<svg class="marks" width="750" height="600" viewBox="0 0 750 600" version="1.1" xmlns="http://www.w3.org/2000/svg" xmlns:xlink="http://www.w3.org/1999/xlink"><rect width="750" height="600" style="fill: white;"></rect><g transform="translate(44,23)"><g class="mark-group role-frame root"><g transform="translate(0,0)"><path class="background" d="M0.5,0.5h700v540h-700Z" style="fill: none; stroke: none;"></path><g><g class="mark-group role-axis"><g transform="translate(0.5,0.5)"><path class="background" d="M0,0h0v0h0Z" style="pointer-events: none; fill: none;"></path><g><g class="mark-rule role-axis-grid" style="pointer-events: none;"><line transform="translate(0,10)" x2="700" y2="0" style="fill: none; stroke: #ddd; stroke-width: 1; opacity: 1;"></line><line transform="translate(0,30)" x2="700" y2="0" style="fill: none; stroke: #ddd; stroke-width: 1; opacity: 1;"></line><line transform="translate(0,50)" x2="700" y2="0" style="fill: none; stroke: #ddd; stroke-width: 1; opacity: 1;"></line><line transform="translate(0,70)" x2="700" y2="0" style="fill: none; stroke: #ddd; stroke-width: 1; opacity: 1;"></line><line transform="translate(0,90)" x2="700" y2="0" style="fill: none; stroke: #ddd; stroke-width: 1; opacity: 1;"></line><line transform="translate(0,110)" x2="700" y2="0" style="fill: none; stroke: #ddd; stroke-width: 1; opacity: 1;"></line><line transform="translate(0,130)" x2="700" y2="0" style="fill: none; stroke: #ddd; stroke-width: 1; opacity: 1;"></line><line transform="translate(0,150)" x2="700" y2="0" style="fill: none; stroke: #ddd; stroke-width: 1; opacity: 1;"></line><line transform="translate(0,170)" x2="700" y2="0" style="fill: none; stroke: #ddd; stroke-width: 1; opacity: 1;"></line><line transform="translate(0,190)" x2="700" y2="0" style="fill: none; stroke: #ddd; stroke-width: 1; opacity: 1;"></line><line transform="translate(0,210)" x2="700" y2="0" style="fill: none; stroke: #ddd; stroke-width: 1; opacity: 1;"></line><line transform="translate(0,230)" x2="700" y2="0" style="fill: none; stroke: #ddd; stroke-width: 1; opacity: 1;"></line><line transform="translate(0,250)" x2="700" y2="0" style="fill: none; stroke: #ddd; stroke-width: 1; opacity: 1;"></line><line transform="translate(0,270)" x2="700" y2="0" style="fill: none; stroke: #ddd; stroke-width: 1; opacity: 1;"></line><line transform="translate(0,290)" x2="700" y2="0" style="fill: none; stroke: #ddd; stroke-width: 1; opacity: 1;"></line><line transform="translate(0,310)" x2="700" y2="0" style="fill: none; stroke: #ddd; stroke-width: 1; opacity: 1;"></line><line transform="translate(0,330)" x2="700" y2="0" style="fill: none; stroke: #ddd; stroke-width: 1; opacity: 1;"></line><line transform="translate(0,350)" x2="700" y2="0" style="fill: none; stroke: #ddd; stroke-width: 1; opacity: 1;"></line><line transform="translate(0,370)" x2="700" y2="0" style="fill: none; stroke: #ddd; stroke-width: 1; opacity: 1;"></line><line transform="translate(0,390)" x2="700" y2="0" style="fill: none; stroke: #ddd; stroke-width: 1; opacity: 1;"></line><line transform="translate(0,410)" x2="700" y2="0" style="fill: none; stroke: #ddd; stroke-width: 1; opacity: 1;"></line><line transform="translate(0,430)" x2="700" y2="0" style="fill: none; stroke: #ddd; stroke-width: 1; opacity: 1;"></line><line transform="translate(0,450)" x2="700" y2="0" style="fill: none; stroke: #ddd; stroke-width: 1; opacity: 1;"></line><line transform="translate(0,470)" x2="700" y2="0" style="fill: none; stroke: #ddd; stroke-width: 1; opacity: 1;"></line><line transform="translate(0,490)" x2="700" y2="0" style="fill: none; stroke: #ddd; stroke-width: 1; opacity: 1;"></line><line transform="translate(0,510)" x2="700" y2="0" style="fill: none; stroke: #ddd; stroke-width: 1; opacity: 1;"></line><line transform="translate(0,530)" x2="700" y2="0" style="fill: none; stroke: #ddd; stroke-width: 1; opacity: 1;"></line></g></g><path class="foreground" d="" style="pointer-events: none; display: none; fill: none;"></path></g></g><g class="mark-group role-axis"><g transform="translate(0.5,540.5)"><path class="background" d="M0,0h0v0h0Z" style="pointer-events: none; fill: none;"></path><g><g class="mark-rule role-axis-tick" style="pointer-events: none;"><line transform="translate(0,0)" x2="0" y2="5" style="fill: none; stroke: #888; stroke-width: 1; opacity: 1;"></line><line transform="translate(39,0)" x2="0" y2="5" style="fill: none; stroke: #888; stroke-width: 1; opacity: 1;"></line><line transform="translate(78,0)" x2="0" y2="5" style="fill: none; stroke: #888; stroke-width: 1; opacity: 1;"></line><line transform="translate(117,0)" x2="0" y2="5" style="fill: none; stroke: #888; stroke-width: 1; opacity: 1;"></line><line transform="translate(156,0)" x2="0" y2="5" style="fill: none; stroke: #888; stroke-width: 1; opacity: 1;"></line><line transform="translate(194,0)" x2="0" y2="5" style="fill: none; stroke: #888; stroke-width: 1; opacity: 1;"></line><line transform="translate(233,0)" x2="0" y2="5" style="fill: none; stroke: #888; stroke-width: 1; opacity: 1;"></line><line transform="translate(272,0)" x2="0" y2="5" style="fill: none; stroke: #888; stroke-width: 1; opacity: 1;"></line><line transform="translate(311,0)" x2="0" y2="5" style="fill: none; stroke: #888; stroke-width: 1; opacity: 1;"></line><line transform="translate(350,0)" x2="0" y2="5" style="fill: none; stroke: #888; stroke-width: 1; opacity: 1;"></line><line transform="translate(389,0)" x2="0" y2="5" style="fill: none; stroke: #888; stroke-width: 1; opacity: 1;"></line><line transform="translate(428,0)" x2="0" y2="5" style="fill: none; stroke: #888; stroke-width: 1; opacity: 1;"></line><line transform="translate(467,0)" x2="0" y2="5" style="fill: none; stroke: #888; stroke-width: 1; opacity: 1;"></line><line transform="translate(506,0)" x2="0" y2="5" style="fill: none; stroke: #888; stroke-width: 1; opacity: 1;"></line><line transform="translate(544,0)" x2="0" y2="5" style="fill: none; stroke: #888; stroke-width: 1; opacity: 1;"></line><line transform="translate(583,0)" x2="0" y2="5" style="fill: none; stroke: #888; stroke-width: 1; opacity: 1;"></line><line transform="translate(622,0)" x2="0" y2="5" style="fill: none; stroke: #888; stroke-width: 1; opacity: 1;"></line><line transform="translate(661,0)" x2="0" y2="5" style="fill: none; stroke: #888; stroke-width: 1; opacity: 1;"></line><line transform="translate(700,0)" x2="0" y2="5" style="fill: none; stroke: #888; stroke-width: 1; opacity: 1;"></line></g><g class="mark-text role-axis-label" style="pointer-events: none;"><text text-anchor="start" transform="translate(0,15)" style="font-family: sans-serif; font-size: 10px; fill: #000; opacity: 1;">0.8</text><text text-anchor="middle" transform="translate(38.88888888888888,15)" style="font-family: sans-serif; font-size: 10px; fill: #000; opacity: 1;">0.9</text><text text-anchor="middle" transform="translate(77.77777777777776,15)" style="font-family: sans-serif; font-size: 10px; fill: #000; opacity: 1;">1.0</text><text text-anchor="middle" transform="translate(116.66666666666669,15)" style="font-family: sans-serif; font-size: 10px; fill: #000; opacity: 1;">1.1</text><text text-anchor="middle" transform="translate(155.55555555555551,15)" style="font-family: sans-serif; font-size: 10px; fill: #000; opacity: 1;">1.2</text><text text-anchor="middle" transform="translate(194.44444444444446,15)" style="font-family: sans-serif; font-size: 10px; fill: #000; opacity: 1;">1.3</text><text text-anchor="middle" transform="translate(233.3333333333333,15)" style="font-family: sans-serif; font-size: 10px; fill: #000; opacity: 1;">1.4</text><text text-anchor="middle" transform="translate(272.2222222222222,15)" style="font-family: sans-serif; font-size: 10px; fill: #000; opacity: 1;">1.5</text><text text-anchor="middle" transform="translate(311.11111111111114,15)" style="font-family: sans-serif; font-size: 10px; fill: #000; opacity: 1;">1.6</text><text text-anchor="middle" transform="translate(349.99999999999994,15)" style="font-family: sans-serif; font-size: 10px; fill: #000; opacity: 1;">1.7</text><text text-anchor="middle" transform="translate(388.8888888888889,15)" style="font-family: sans-serif; font-size: 10px; fill: #000; opacity: 1;">1.8</text><text text-anchor="middle" transform="translate(427.7777777777777,15)" style="font-family: sans-serif; font-size: 10px; fill: #000; opacity: 1;">1.9</text><text text-anchor="middle" transform="translate(466.66666666666663,15)" style="font-family: sans-serif; font-size: 10px; fill: #000; opacity: 1;">2.0</text><text text-anchor="middle" transform="translate(505.55555555555554,15)" style="font-family: sans-serif; font-size: 10px; fill: #000; opacity: 1;">2.1</text><text text-anchor="middle" transform="translate(544.4444444444445,15)" style="font-family: sans-serif; font-size: 10px; fill: #000; opacity: 1;">2.2</text><text text-anchor="middle" transform="translate(583.3333333333333,15)" style="font-family: sans-serif; font-size: 10px; fill: #000; opacity: 1;">2.3</text><text text-anchor="middle" transform="translate(622.2222222222222,15)" style="font-family: sans-serif; font-size: 10px; fill: #000; opacity: 1;">2.4</text><text text-anchor="middle" transform="translate(661.1111111111111,15)" style="font-family: sans-serif; font-size: 10px; fill: #000; opacity: 1;">2.5</text><text text-anchor="end" transform="translate(700,15)" style="font-family: sans-serif; font-size: 10px; fill: #000; opacity: 1;">2.6</text></g><g class="mark-rule role-axis-domain" style="pointer-events: none;"><line transform="translate(0,0)" x2="700" y2="0" style="fill: none; stroke: #888; stroke-width: 1; opacity: 1;"></line></g><g class="mark-text role-axis-title" style="pointer-events: none;"><text text-anchor="middle" transform="translate(350,30)" style="font-family: sans-serif; font-size: 11px; font-weight: bold; fill: #000; opacity: 1;">Instantaneous reproduction number R(t), CI 0.975</text></g></g><path class="foreground" d="" style="pointer-events: none; display: none; fill: none;"></path></g></g><g class="mark-group role-axis"><g transform="translate(0.5,0.5)"><path class="background" d="M0,0h0v0h0Z" style="pointer-events: none; fill: none;"></path><g><g class="mark-rule role-axis-tick" style="pointer-events: none;"><line transform="translate(0,10)" x2="-5" y2="0" style="fill: none; stroke: #888; stroke-width: 1; opacity: 1;"></line><line transform="translate(0,30)" x2="-5" y2="0" style="fill: none; stroke: #888; stroke-width: 1; opacity: 1;"></line><line transform="translate(0,50)" x2="-5" y2="0" style="fill: none; stroke: #888; stroke-width: 1; opacity: 1;"></line><line transform="translate(0,70)" x2="-5" y2="0" style="fill: none; stroke: #888; stroke-width: 1; opacity: 1;"></line><line transform="translate(0,90)" x2="-5" y2="0" style="fill: none; stroke: #888; stroke-width: 1; opacity: 1;"></line><line transform="translate(0,110)" x2="-5" y2="0" style="fill: none; stroke: #888; stroke-width: 1; opacity: 1;"></line><line transform="translate(0,130)" x2="-5" y2="0" style="fill: none; stroke: #888; stroke-width: 1; opacity: 1;"></line><line transform="translate(0,150)" x2="-5" y2="0" style="fill: none; stroke: #888; stroke-width: 1; opacity: 1;"></line><line transform="translate(0,170)" x2="-5" y2="0" style="fill: none; stroke: #888; stroke-width: 1; opacity: 1;"></line><line transform="translate(0,190)" x2="-5" y2="0" style="fill: none; stroke: #888; stroke-width: 1; opacity: 1;"></line><line transform="translate(0,210)" x2="-5" y2="0" style="fill: none; stroke: #888; stroke-width: 1; opacity: 1;"></line><line transform="translate(0,230)" x2="-5" y2="0" style="fill: none; stroke: #888; stroke-width: 1; opacity: 1;"></line><line transform="translate(0,250)" x2="-5" y2="0" style="fill: none; stroke: #888; stroke-width: 1; opacity: 1;"></line><line transform="translate(0,270)" x2="-5" y2="0" style="fill: none; stroke: #888; stroke-width: 1; opacity: 1;"></line><line transform="translate(0,290)" x2="-5" y2="0" style="fill: none; stroke: #888; stroke-width: 1; opacity: 1;"></line><line transform="translate(0,310)" x2="-5" y2="0" style="fill: none; stroke: #888; stroke-width: 1; opacity: 1;"></line><line transform="translate(0,330)" x2="-5" y2="0" style="fill: none; stroke: #888; stroke-width: 1; opacity: 1;"></line><line transform="translate(0,350)" x2="-5" y2="0" style="fill: none; stroke: #888; stroke-width: 1; opacity: 1;"></line><line transform="translate(0,370)" x2="-5" y2="0" style="fill: none; stroke: #888; stroke-width: 1; opacity: 1;"></line><line transform="translate(0,390)" x2="-5" y2="0" style="fill: none; stroke: #888; stroke-width: 1; opacity: 1;"></line><line transform="translate(0,410)" x2="-5" y2="0" style="fill: none; stroke: #888; stroke-width: 1; opacity: 1;"></line><line transform="translate(0,430)" x2="-5" y2="0" style="fill: none; stroke: #888; stroke-width: 1; opacity: 1;"></line><line transform="translate(0,450)" x2="-5" y2="0" style="fill: none; stroke: #888; stroke-width: 1; opacity: 1;"></line><line transform="translate(0,470)" x2="-5" y2="0" style="fill: none; stroke: #888; stroke-width: 1; opacity: 1;"></line><line transform="translate(0,490)" x2="-5" y2="0" style="fill: none; stroke: #888; stroke-width: 1; opacity: 1;"></line><line transform="translate(0,510)" x2="-5" y2="0" style="fill: none; stroke: #888; stroke-width: 1; opacity: 1;"></line><line transform="translate(0,530)" x2="-5" y2="0" style="fill: none; stroke: #888; stroke-width: 1; opacity: 1;"></line></g><g class="mark-text role-axis-label" style="pointer-events: none;"><text text-anchor="end" transform="translate(-7,12.5)" style="font-family: sans-serif; font-size: 10px; fill: #000; opacity: 1;">AC</text><text text-anchor="end" transform="translate(-7,32.5)" style="font-family: sans-serif; font-size: 10px; fill: #000; opacity: 1;">AL</text><text text-anchor="end" transform="translate(-7,52.5)" style="font-family: sans-serif; font-size: 10px; fill: #000; opacity: 1;">AM</text><text text-anchor="end" transform="translate(-7,72.5)" style="font-family: sans-serif; font-size: 10px; fill: #000; opacity: 1;">AP</text><text text-anchor="end" transform="translate(-7,92.5)" style="font-family: sans-serif; font-size: 10px; fill: #000; opacity: 1;">BA</text><text text-anchor="end" transform="translate(-7,112.5)" style="font-family: sans-serif; font-size: 10px; fill: #000; opacity: 1;">CE</text><text text-anchor="end" transform="translate(-7,132.5)" style="font-family: sans-serif; font-size: 10px; fill: #000; opacity: 1;">DF</text><text text-anchor="end" transform="translate(-7,152.5)" style="font-family: sans-serif; font-size: 10px; fill: #000; opacity: 1;">ES</text><text text-anchor="end" transform="translate(-7,172.5)" style="font-family: sans-serif; font-size: 10px; fill: #000; opacity: 1;">GO</text><text text-anchor="end" transform="translate(-7,192.5)" style="font-family: sans-serif; font-size: 10px; fill: #000; opacity: 1;">MA</text><text text-anchor="end" transform="translate(-7,212.5)" style="font-family: sans-serif; font-size: 10px; fill: #000; opacity: 1;">MG</text><text text-anchor="end" transform="translate(-7,232.5)" style="font-family: sans-serif; font-size: 10px; fill: #000; opacity: 1;">MS</text><text text-anchor="end" transform="translate(-7,252.5)" style="font-family: sans-serif; font-size: 10px; fill: #000; opacity: 1;">MT</text><text text-anchor="end" transform="translate(-7,272.5)" style="font-family: sans-serif; font-size: 10px; fill: #000; opacity: 1;">PA</text><text text-anchor="end" transform="translate(-7,292.5)" style="font-family: sans-serif; font-size: 10px; fill: #000; opacity: 1;">PB</text><text text-anchor="end" transform="translate(-7,312.5)" style="font-family: sans-serif; font-size: 10px; fill: #000; opacity: 1;">PE</text><text text-anchor="end" transform="translate(-7,332.5)" style="font-family: sans-serif; font-size: 10px; fill: #000; opacity: 1;">PI</text><text text-anchor="end" transform="translate(-7,352.5)" style="font-family: sans-serif; font-size: 10px; fill: #000; opacity: 1;">PR</text><text text-anchor="end" transform="translate(-7,372.5)" style="font-family: sans-serif; font-size: 10px; fill: #000; opacity: 1;">RJ</text><text text-anchor="end" transform="translate(-7,392.5)" style="font-family: sans-serif; font-size: 10px; fill: #000; opacity: 1;">RN</text><text text-anchor="end" transform="translate(-7,412.5)" style="font-family: sans-serif; font-size: 10px; fill: #000; opacity: 1;">RO</text><text text-anchor="end" transform="translate(-7,432.5)" style="font-family: sans-serif; font-size: 10px; fill: #000; opacity: 1;">RR</text><text text-anchor="end" transform="translate(-7,452.5)" style="font-family: sans-serif; font-size: 10px; fill: #000; opacity: 1;">RS</text><text text-anchor="end" transform="translate(-7,472.5)" style="font-family: sans-serif; font-size: 10px; fill: #000; opacity: 1;">SC</text><text text-anchor="end" transform="translate(-7,492.5)" style="font-family: sans-serif; font-size: 10px; fill: #000; opacity: 1;">SE</text><text text-anchor="end" transform="translate(-7,512.5)" style="font-family: sans-serif; font-size: 10px; fill: #000; opacity: 1;">SP</text><text text-anchor="end" transform="translate(-7,532.5)" style="font-family: sans-serif; font-size: 10px; fill: #000; opacity: 1;">TO</text></g><g class="mark-rule role-axis-domain" style="pointer-events: none;"><line transform="translate(0,0)" x2="0" y2="540" style="fill: none; stroke: #888; stroke-width: 1; opacity: 1;"></line></g><g class="mark-text role-axis-title" style="pointer-events: none;"><text text-anchor="middle" transform="translate(-27.1083984375,270) rotate(-90) translate(0,-2)" style="font-family: sans-serif; font-size: 11px; font-weight: bold; fill: #000; opacity: 1;">States</text></g></g><path class="foreground" d="" style="pointer-events: none; display: none; fill: none;"></path></g></g><g class="mark-symbol role-mark layer_0_marks"><path transform="translate(96.26440131543201,430)" d="M2.7386127875258306,0A2.7386127875258306,2.7386127875258306,0,1,1,-2.7386127875258306,0A2.7386127875258306,2.7386127875258306,0,1,1,2.7386127875258306,0" style="fill: none; stroke: #4c78a8; stroke-width: 2; opacity: 0.7;"></path><path transform="translate(97.86242637310204,490)" d="M2.7386127875258306,0A2.7386127875258306,2.7386127875258306,0,1,1,-2.7386127875258306,0A2.7386127875258306,2.7386127875258306,0,1,1,2.7386127875258306,0" style="fill: none; stroke: #4c78a8; stroke-width: 2; opacity: 0.7;"></path><path transform="translate(119.04276073933387,510)" d="M2.7386127875258306,0A2.7386127875258306,2.7386127875258306,0,1,1,-2.7386127875258306,0A2.7386127875258306,2.7386127875258306,0,1,1,2.7386127875258306,0" style="fill: none; stroke: #4c78a8; stroke-width: 2; opacity: 0.7;"></path><path transform="translate(125.73077543739987,170)" d="M2.7386127875258306,0A2.7386127875258306,2.7386127875258306,0,1,1,-2.7386127875258306,0A2.7386127875258306,2.7386127875258306,0,1,1,2.7386127875258306,0" style="fill: none; stroke: #4c78a8; stroke-width: 2; opacity: 0.7;"></path><path transform="translate(127.50565131870847,310)" d="M2.7386127875258306,0A2.7386127875258306,2.7386127875258306,0,1,1,-2.7386127875258306,0A2.7386127875258306,2.7386127875258306,0,1,1,2.7386127875258306,0" style="fill: none; stroke: #4c78a8; stroke-width: 2; opacity: 0.7;"></path><path transform="translate(129.835039812658,330)" d="M2.7386127875258306,0A2.7386127875258306,2.7386127875258306,0,1,1,-2.7386127875258306,0A2.7386127875258306,2.7386127875258306,0,1,1,2.7386127875258306,0" style="fill: none; stroke: #4c78a8; stroke-width: 2; opacity: 0.7;"></path><path transform="translate(131.4967191482873,110)" d="M2.7386127875258306,0A2.7386127875258306,2.7386127875258306,0,1,1,-2.7386127875258306,0A2.7386127875258306,2.7386127875258306,0,1,1,2.7386127875258306,0" style="fill: none; stroke: #4c78a8; stroke-width: 2; opacity: 0.7;"></path><path transform="translate(144.20866640734636,390)" d="M2.7386127875258306,0A2.7386127875258306,2.7386127875258306,0,1,1,-2.7386127875258306,0A2.7386127875258306,2.7386127875258306,0,1,1,2.7386127875258306,0" style="fill: none; stroke: #4c78a8; stroke-width: 2; opacity: 0.7;"></path><path transform="translate(152.42071462717988,50)" d="M2.7386127875258306,0A2.7386127875258306,2.7386127875258306,0,1,1,-2.7386127875258306,0A2.7386127875258306,2.7386127875258306,0,1,1,2.7386127875258306,0" style="fill: none; stroke: #4c78a8; stroke-width: 2; opacity: 0.7;"></path><path transform="translate(159.75867263543375,130)" d="M2.7386127875258306,0A2.7386127875258306,2.7386127875258306,0,1,1,-2.7386127875258306,0A2.7386127875258306,2.7386127875258306,0,1,1,2.7386127875258306,0" style="fill: none; stroke: #4c78a8; stroke-width: 2; opacity: 0.7;"></path><path transform="translate(160.31912402268378,150)" d="M2.7386127875258306,0A2.7386127875258306,2.7386127875258306,0,1,1,-2.7386127875258306,0A2.7386127875258306,2.7386127875258306,0,1,1,2.7386127875258306,0" style="fill: none; stroke: #4c78a8; stroke-width: 2; opacity: 0.7;"></path><path transform="translate(165.90557821258923,470)" d="M2.7386127875258306,0A2.7386127875258306,2.7386127875258306,0,1,1,-2.7386127875258306,0A2.7386127875258306,2.7386127875258306,0,1,1,2.7386127875258306,0" style="fill: none; stroke: #4c78a8; stroke-width: 2; opacity: 0.7;"></path><path transform="translate(194.02608661917716,270)" d="M2.7386127875258306,0A2.7386127875258306,2.7386127875258306,0,1,1,-2.7386127875258306,0A2.7386127875258306,2.7386127875258306,0,1,1,2.7386127875258306,0" style="fill: none; stroke: #4c78a8; stroke-width: 2; opacity: 0.7;"></path><path transform="translate(206.59041295612892,210)" d="M2.7386127875258306,0A2.7386127875258306,2.7386127875258306,0,1,1,-2.7386127875258306,0A2.7386127875258306,2.7386127875258306,0,1,1,2.7386127875258306,0" style="fill: none; stroke: #4c78a8; stroke-width: 2; opacity: 0.7;"></path><path transform="translate(210.2266462990074,90)" d="M2.7386127875258306,0A2.7386127875258306,2.7386127875258306,0,1,1,-2.7386127875258306,0A2.7386127875258306,2.7386127875258306,0,1,1,2.7386127875258306,0" style="fill: none; stroke: #4c78a8; stroke-width: 2; opacity: 0.7;"></path><path transform="translate(213.25636353469346,290)" d="M2.7386127875258306,0A2.7386127875258306,2.7386127875258306,0,1,1,-2.7386127875258306,0A2.7386127875258306,2.7386127875258306,0,1,1,2.7386127875258306,0" style="fill: none; stroke: #4c78a8; stroke-width: 2; opacity: 0.7;"></path><path transform="translate(227.97829844118797,30)" d="M2.7386127875258306,0A2.7386127875258306,2.7386127875258306,0,1,1,-2.7386127875258306,0A2.7386127875258306,2.7386127875258306,0,1,1,2.7386127875258306,0" style="fill: none; stroke: #4c78a8; stroke-width: 2; opacity: 0.7;"></path><path transform="translate(232.15128381158442,250)" d="M2.7386127875258306,0A2.7386127875258306,2.7386127875258306,0,1,1,-2.7386127875258306,0A2.7386127875258306,2.7386127875258306,0,1,1,2.7386127875258306,0" style="fill: none; stroke: #4c78a8; stroke-width: 2; opacity: 0.7;"></path><path transform="translate(235.2685079942053,230)" d="M2.7386127875258306,0A2.7386127875258306,2.7386127875258306,0,1,1,-2.7386127875258306,0A2.7386127875258306,2.7386127875258306,0,1,1,2.7386127875258306,0" style="fill: none; stroke: #4c78a8; stroke-width: 2; opacity: 0.7;"></path><path transform="translate(236.34789868954672,530)" d="M2.7386127875258306,0A2.7386127875258306,2.7386127875258306,0,1,1,-2.7386127875258306,0A2.7386127875258306,2.7386127875258306,0,1,1,2.7386127875258306,0" style="fill: none; stroke: #4c78a8; stroke-width: 2; opacity: 0.7;"></path><path transform="translate(258.00047514788207,410)" d="M2.7386127875258306,0A2.7386127875258306,2.7386127875258306,0,1,1,-2.7386127875258306,0A2.7386127875258306,2.7386127875258306,0,1,1,2.7386127875258306,0" style="fill: none; stroke: #4c78a8; stroke-width: 2; opacity: 0.7;"></path><path transform="translate(265.15493106582227,350)" d="M2.7386127875258306,0A2.7386127875258306,2.7386127875258306,0,1,1,-2.7386127875258306,0A2.7386127875258306,2.7386127875258306,0,1,1,2.7386127875258306,0" style="fill: none; stroke: #4c78a8; stroke-width: 2; opacity: 0.7;"></path><path transform="translate(272.7722443978148,70)" d="M2.7386127875258306,0A2.7386127875258306,2.7386127875258306,0,1,1,-2.7386127875258306,0A2.7386127875258306,2.7386127875258306,0,1,1,2.7386127875258306,0" style="fill: none; stroke: #4c78a8; stroke-width: 2; opacity: 0.7;"></path><path transform="translate(279.89108220143294,190)" d="M2.7386127875258306,0A2.7386127875258306,2.7386127875258306,0,1,1,-2.7386127875258306,0A2.7386127875258306,2.7386127875258306,0,1,1,2.7386127875258306,0" style="fill: none; stroke: #4c78a8; stroke-width: 2; opacity: 0.7;"></path><path transform="translate(295.9205910715842,370)" d="M2.7386127875258306,0A2.7386127875258306,2.7386127875258306,0,1,1,-2.7386127875258306,0A2.7386127875258306,2.7386127875258306,0,1,1,2.7386127875258306,0" style="fill: none; stroke: #4c78a8; stroke-width: 2; opacity: 0.7;"></path><path transform="translate(296.0564447262042,450)" d="M2.7386127875258306,0A2.7386127875258306,2.7386127875258306,0,1,1,-2.7386127875258306,0A2.7386127875258306,2.7386127875258306,0,1,1,2.7386127875258306,0" style="fill: none; stroke: #4c78a8; stroke-width: 2; opacity: 0.7;"></path><path transform="translate(447.68486863023026,10)" d="M2.7386127875258306,0A2.7386127875258306,2.7386127875258306,0,1,1,-2.7386127875258306,0A2.7386127875258306,2.7386127875258306,0,1,1,2.7386127875258306,0" style="fill: none; stroke: #4c78a8; stroke-width: 2; opacity: 0.7;"></path></g><g class="mark-rule role-mark layer_1_marks"><line transform="translate(77.77777777777776,0)" x2="0" y2="540" style="fill: none; stroke: black; stroke-width: 0.2;"></line><line transform="translate(77.77777777777776,0)" x2="0" y2="540" style="fill: none; stroke: black; stroke-width: 0.2;"></line><line transform="translate(77.77777777777776,0)" x2="0" y2="540" style="fill: none; stroke: black; stroke-width: 0.2;"></line><line transform="translate(77.77777777777776,0)" x2="0" y2="540" style="fill: none; stroke: black; stroke-width: 0.2;"></line><line transform="translate(77.77777777777776,0)" x2="0" y2="540" style="fill: none; stroke: black; stroke-width: 0.2;"></line><line transform="translate(77.77777777777776,0)" x2="0" y2="540" style="fill: none; stroke: black; stroke-width: 0.2;"></line><line transform="translate(77.77777777777776,0)" x2="0" y2="540" style="fill: none; stroke: black; stroke-width: 0.2;"></line><line transform="translate(77.77777777777776,0)" x2="0" y2="540" style="fill: none; stroke: black; stroke-width: 0.2;"></line><line transform="translate(77.77777777777776,0)" x2="0" y2="540" style="fill: none; stroke: black; stroke-width: 0.2;"></line><line transform="translate(77.77777777777776,0)" x2="0" y2="540" style="fill: none; stroke: black; stroke-width: 0.2;"></line><line transform="translate(77.77777777777776,0)" x2="0" y2="540" style="fill: none; stroke: black; stroke-width: 0.2;"></line><line transform="translate(77.77777777777776,0)" x2="0" y2="540" style="fill: none; stroke: black; stroke-width: 0.2;"></line><line transform="translate(77.77777777777776,0)" x2="0" y2="540" style="fill: none; stroke: black; stroke-width: 0.2;"></line><line transform="translate(77.77777777777776,0)" x2="0" y2="540" style="fill: none; stroke: black; stroke-width: 0.2;"></line><line transform="translate(77.77777777777776,0)" x2="0" y2="540" style="fill: none; stroke: black; stroke-width: 0.2;"></line><line transform="translate(77.77777777777776,0)" x2="0" y2="540" style="fill: none; stroke: black; stroke-width: 0.2;"></line><line transform="translate(77.77777777777776,0)" x2="0" y2="540" style="fill: none; stroke: black; stroke-width: 0.2;"></line><line transform="translate(77.77777777777776,0)" x2="0" y2="540" style="fill: none; stroke: black; stroke-width: 0.2;"></line><line transform="translate(77.77777777777776,0)" x2="0" y2="540" style="fill: none; stroke: black; stroke-width: 0.2;"></line><line transform="translate(77.77777777777776,0)" x2="0" y2="540" style="fill: none; stroke: black; stroke-width: 0.2;"></line><line transform="translate(77.77777777777776,0)" x2="0" y2="540" style="fill: none; stroke: black; stroke-width: 0.2;"></line><line transform="translate(77.77777777777776,0)" x2="0" y2="540" style="fill: none; stroke: black; stroke-width: 0.2;"></line><line transform="translate(77.77777777777776,0)" x2="0" y2="540" style="fill: none; stroke: black; stroke-width: 0.2;"></line><line transform="translate(77.77777777777776,0)" x2="0" y2="540" style="fill: none; stroke: black; stroke-width: 0.2;"></line><line transform="translate(77.77777777777776,0)" x2="0" y2="540" style="fill: none; stroke: black; stroke-width: 0.2;"></line><line transform="translate(77.77777777777776,0)" x2="0" y2="540" style="fill: none; stroke: black; stroke-width: 0.2;"></line><line transform="translate(77.77777777777776,0)" x2="0" y2="540" style="fill: none; stroke: black; stroke-width: 0.2;"></line></g><g class="mark-rule role-mark layer_2_marks"><line transform="translate(60.39648640216823,430)" x2="74.99973696187561" y2="0" style="fill: none; stroke: blue; stroke-width: 0.6;"></line><line transform="translate(70.277798808632,490)" x2="56.91343408833035" y2="0" style="fill: none; stroke: blue; stroke-width: 0.6;"></line><line transform="translate(105.72369166022206,510)" x2="27.365184903035257" y2="0" style="fill: none; stroke: blue; stroke-width: 0.6;"></line><line transform="translate(86.56959810145335,170)" x2="80.94354949271636" y2="0" style="fill: none; stroke: blue; stroke-width: 0.6;"></line><line transform="translate(95.55338101222863,310)" x2="73.66866597043246" y2="0" style="fill: none; stroke: blue; stroke-width: 0.6;"></line><line transform="translate(94.53377486169559,330)" x2="73.50758597675711" y2="0" style="fill: none; stroke: blue; stroke-width: 0.6;"></line><line transform="translate(105.86017909463028,110)" x2="59.560614883407354" y2="0" style="fill: none; stroke: blue; stroke-width: 0.6;"></line><line transform="translate(109.5211433041719,390)" x2="72.85194818605304" y2="0" style="fill: none; stroke: blue; stroke-width: 0.6;"></line><line transform="translate(134.5119792965997,50)" x2="35.34457333488342" y2="0" style="fill: none; stroke: blue; stroke-width: 0.6;"></line><line transform="translate(127.82549538643651,130)" x2="65.65441518533787" y2="0" style="fill: none; stroke: blue; stroke-width: 0.6;"></line><line transform="translate(120.11959329079593,150)" x2="85.6265182916789" y2="0" style="fill: none; stroke: blue; stroke-width: 0.6;"></line><line transform="translate(130.11147672630372,470)" x2="70.02139384446437" y2="0" style="fill: none; stroke: blue; stroke-width: 0.6;"></line><line transform="translate(160.7799710209785,270)" x2="72.6162921616502" y2="0" style="fill: none; stroke: blue; stroke-width: 0.6;"></line><line transform="translate(167.78467772059508,210)" x2="81.29304654453875" y2="0" style="fill: none; stroke: blue; stroke-width: 0.6;"></line><line transform="translate(175.78640199815277,90)" x2="75.42286693660554" y2="0" style="fill: none; stroke: blue; stroke-width: 0.6;"></line><line transform="translate(163.99175671694562,290)" x2="102.55961961799474" y2="0" style="fill: none; stroke: blue; stroke-width: 0.6;"></line><line transform="translate(186.63925358276668,30)" x2="87.38389880957851" y2="0" style="fill: none; stroke: blue; stroke-width: 0.6;"></line><line transform="translate(177.1920478116658,250)" x2="112.8758965457802" y2="0" style="fill: none; stroke: blue; stroke-width: 0.6;"></line><line transform="translate(153.4645362242638,230)" x2="171.28312552533154" y2="0" style="fill: none; stroke: blue; stroke-width: 0.6;"></line><line transform="translate(179.80777474997396,530)" x2="118.31646632362717" y2="0" style="fill: none; stroke: blue; stroke-width: 0.6;"></line><line transform="translate(191.84307441006817,410)" x2="137.59086687003534" y2="0" style="fill: none; stroke: blue; stroke-width: 0.6;"></line><line transform="translate(191.80876632617378,350)" x2="162.09189640119246" y2="0" style="fill: none; stroke: blue; stroke-width: 0.6;"></line><line transform="translate(205.40490125661333,70)" x2="134.67585584561746" y2="0" style="fill: none; stroke: blue; stroke-width: 0.6;"></line><line transform="translate(238.96987721420925,190)" x2="81.21488920635653" y2="0" style="fill: none; stroke: blue; stroke-width: 0.6;"></line><line transform="translate(228.29855642801027,370)" x2="158.55567403541562" y2="0" style="fill: none; stroke: blue; stroke-width: 0.6;"></line><line transform="translate(205.8945520087512,450)" x2="228.05771326284992" y2="0" style="fill: none; stroke: blue; stroke-width: 0.6;"></line><line transform="translate(293.65503346591476,10)" x2="339.86117632468364" y2="0" style="fill: none; stroke: blue; stroke-width: 0.6;"></line></g><g class="mark-group role-title"><g transform="translate(350,-17.2)"><path class="background" d="M0,0h0v0h0Z" style="pointer-events: none; fill: none;"></path><g><g class="mark-text role-title-text" style="pointer-events: none;"><text text-anchor="middle" transform="translate(0,10)" style="font-family: sans-serif; font-size: 13px; font-weight: bold; fill: #000; opacity: 1;">Instantaneous reproduction number estimate for all states in Brazil</text></g></g><path class="foreground" d="" style="pointer-events: none; display: none; fill: none;"></path></g></g></g><path class="foreground" d="" style="display: none; fill: none;"></path></g></g></g></svg>