<svg class="marks" width="749" height="600" viewBox="0 0 749 600" version="1.1" xmlns="http://www.w3.org/2000/svg" xmlns:xlink="http://www.w3.org/1999/xlink"><rect width="749" height="600" fill="white"></rect><g fill="none" stroke-miterlimit="10" transform="translate(43,23)"><g class="mark-group role-frame root" role="graphics-object" aria-roledescription="group mark container"><g transform="translate(0,0)"><path class="background" aria-hidden="true" d="M0.5,0.5h700v540h-700Z"></path><g><g class="mark-group role-axis" aria-hidden="true"><g transform="translate(0.5,0.5)"><path class="background" aria-hidden="true" d="M0,0h0v0h0Z" pointer-events="none"></path><g><g class="mark-rule role-axis-grid" pointer-events="none"><line transform="translate(0,10)" x2="700" y2="0" stroke="#ddd" stroke-width="1" opacity="1"></line><line transform="translate(0,30)" x2="700" y2="0" stroke="#ddd" stroke-width="1" opacity="1"></line><line transform="translate(0,50)" x2="700" y2="0" stroke="#ddd" stroke-width="1" opacity="1"></line><line transform="translate(0,70)" x2="700" y2="0" stroke="#ddd" stroke-width="1" opacity="1"></line><line transform="translate(0,90)" x2="700" y2="0" stroke="#ddd" stroke-width="1" opacity="1"></line><line transform="translate(0,110)" x2="700" y2="0" stroke="#ddd" stroke-width="1" opacity="1"></line><line transform="translate(0,130)" x2="700" y2="0" stroke="#ddd" stroke-width="1" opacity="1"></line><line transform="translate(0,150)" x2="700" y2="0" stroke="#ddd" stroke-width="1" opacity="1"></line><line transform="translate(0,170)" x2="700" y2="0" stroke="#ddd" stroke-width="1" opacity="1"></line><line transform="translate(0,190)" x2="700" y2="0" stroke="#ddd" stroke-width="1" opacity="1"></line><line transform="translate(0,210)" x2="700" y2="0" stroke="#ddd" stroke-width="1" opacity="1"></line><line transform="translate(0,230)" x2="700" y2="0" stroke="#ddd" stroke-width="1" opacity="1"></line><line transform="translate(0,250)" x2="700" y2="0" stroke="#ddd" stroke-width="1" opacity="1"></line><line transform="translate(0,270)" x2="700" y2="0" stroke="#ddd" stroke-width="1" opacity="1"></line><line transform="translate(0,290)" x2="700" y2="0" stroke="#ddd" stroke-width="1" opacity="1"></line><line transform="translate(0,310)" x2="700" y2="0" stroke="#ddd" stroke-width="1" opacity="1"></line><line transform="translate(0,330)" x2="700" y2="0" stroke="#ddd" stroke-width="1" opacity="1"></line><line transform="translate(0,350)" x2="700" y2="0" stroke="#ddd" stroke-width="1" opacity="1"></line><line transform="translate(0,370)" x2="700" y2="0" stroke="#ddd" stroke-width="1" opacity="1"></line><line transform="translate(0,390)" x2="700" y2="0" stroke="#ddd" stroke-width="1" opacity="1"></line><line transform="translate(0,410)" x2="700" y2="0" stroke="#ddd" stroke-width="1" opacity="1"></line><line transform="translate(0,430)" x2="700" y2="0" stroke="#ddd" stroke-width="1" opacity="1"></line><line transform="translate(0,450)" x2="700" y2="0" stroke="#ddd" stroke-width="1" opacity="1"></line><line transform="translate(0,470)" x2="700" y2="0" stroke="#ddd" stroke-width="1" opacity="1"></line><line transform="translate(0,490)" x2="700" y2="0" stroke="#ddd" stroke-width="1" opacity="1"></line><line transform="translate(0,510)" x2="700" y2="0" stroke="#ddd" stroke-width="1" opacity="1"></line><line transform="translate(0,530)" x2="700" y2="0" stroke="#ddd" stroke-width="1" opacity="1"></line></g></g><path class="foreground" aria-hidden="true" d="" pointer-events="none" display="none"></path></g></g><g class="mark-group role-axis" role="graphics-symbol" aria-roledescription="axis" aria-label="X-axis titled 'Instantaneous reproduction number R(t), CI 0.975' for a linear scale with values from 0.6 to 2.4"><g transform="translate(0.5,540.5)"><path class="background" aria-hidden="true" d="M0,0h0v0h0Z" pointer-events="none"></path><g><g class="mark-rule role-axis-tick" pointer-events="none"><line transform="translate(0,0)" x2="0" y2="5" stroke="#888" stroke-width="1" opacity="1"></line><line transform="translate(39,0)" x2="0" y2="5" stroke="#888" stroke-width="1" opacity="1"></line><line transform="translate(78,0)" x2="0" y2="5" stroke="#888" stroke-width="1" opacity="1"></line><line transform="translate(117,0)" x2="0" y2="5" stroke="#888" stroke-width="1" opacity="1"></line><line transform="translate(156,0)" x2="0" y2="5" stroke="#888" stroke-width="1" opacity="1"></line><line transform="translate(194,0)" x2="0" y2="5" stroke="#888" stroke-width="1" opacity="1"></line><line transform="translate(233,0)" x2="0" y2="5" stroke="#888" stroke-width="1" opacity="1"></line><line transform="translate(272,0)" x2="0" y2="5" stroke="#888" stroke-width="1" opacity="1"></line><line transform="translate(311,0)" x2="0" y2="5" stroke="#888" stroke-width="1" opacity="1"></line><line transform="translate(350,0)" x2="0" y2="5" stroke="#888" stroke-width="1" opacity="1"></line><line transform="translate(389,0)" x2="0" y2="5" stroke="#888" stroke-width="1" opacity="1"></line><line transform="translate(428,0)" x2="0" y2="5" stroke="#888" stroke-width="1" opacity="1"></line><line transform="translate(467,0)" x2="0" y2="5" stroke="#888" stroke-width="1" opacity="1"></line><line transform="translate(506,0)" x2="0" y2="5" stroke="#888" stroke-width="1" opacity="1"></line><line transform="translate(544,0)" x2="0" y2="5" stroke="#888" stroke-width="1" opacity="1"></line><line transform="translate(583,0)" x2="0" y2="5" stroke="#888" stroke-width="1" opacity="1"></line><line transform="translate(622,0)" x2="0" y2="5" stroke="#888" stroke-width="1" opacity="1"></line><line transform="translate(661,0)" x2="0" y2="5" stroke="#888" stroke-width="1" opacity="1"></line><line transform="translate(700,0)" x2="0" y2="5" stroke="#888" stroke-width="1" opacity="1"></line></g><g class="mark-text role-axis-label" pointer-events="none"><text text-anchor="start" transform="translate(0,15)" font-family="sans-serif" font-size="10px" fill="#000" opacity="1">0.6</text><text text-anchor="middle" transform="translate(38.88888888888888,15)" font-family="sans-serif" font-size="10px" fill="#000" opacity="1">0.7</text><text text-anchor="middle" transform="translate(77.77777777777781,15)" font-family="sans-serif" font-size="10px" fill="#000" opacity="1">0.8</text><text text-anchor="middle" transform="translate(116.6666666666667,15)" font-family="sans-serif" font-size="10px" fill="#000" opacity="1">0.9</text><text text-anchor="middle" transform="translate(155.5555555555556,15)" font-family="sans-serif" font-size="10px" fill="#000" opacity="1">1.0</text><text text-anchor="middle" transform="translate(194.44444444444449,15)" font-family="sans-serif" font-size="10px" fill="#000" opacity="1">1.1</text><text text-anchor="middle" transform="translate(233.33333333333337,15)" font-family="sans-serif" font-size="10px" fill="#000" opacity="1">1.2</text><text text-anchor="middle" transform="translate(272.2222222222223,15)" font-family="sans-serif" font-size="10px" fill="#000" opacity="1">1.3</text><text text-anchor="middle" transform="translate(311.11111111111114,15)" font-family="sans-serif" font-size="10px" fill="#000" opacity="1">1.4</text><text text-anchor="middle" transform="translate(350.00000000000006,15)" font-family="sans-serif" font-size="10px" fill="#000" opacity="1">1.5</text><text text-anchor="middle" transform="translate(388.8888888888889,15)" font-family="sans-serif" font-size="10px" fill="#000" opacity="1">1.6</text><text text-anchor="middle" transform="translate(427.7777777777779,15)" font-family="sans-serif" font-size="10px" fill="#000" opacity="1">1.7</text><text text-anchor="middle" transform="translate(466.6666666666668,15)" font-family="sans-serif" font-size="10px" fill="#000" opacity="1">1.8</text><text text-anchor="middle" transform="translate(505.55555555555554,15)" font-family="sans-serif" font-size="10px" fill="#000" opacity="1">1.9</text><text text-anchor="middle" transform="translate(544.4444444444445,15)" font-family="sans-serif" font-size="10px" fill="#000" opacity="1">2.0</text><text text-anchor="middle" transform="translate(583.3333333333334,15)" font-family="sans-serif" font-size="10px" fill="#000" opacity="1">2.1</text><text text-anchor="middle" transform="translate(622.2222222222224,15)" font-family="sans-serif" font-size="10px" fill="#000" opacity="1">2.2</text><text text-anchor="middle" transform="translate(661.1111111111111,15)" font-family="sans-serif" font-size="10px" fill="#000" opacity="1">2.3</text><text text-anchor="end" transform="translate(700,15)" font-family="sans-serif" font-size="10px" fill="#000" opacity="1">2.4</text></g><g class="mark-rule role-axis-domain" pointer-events="none"><line transform="translate(0,0)" x2="700" y2="0" stroke="#888" stroke-width="1" opacity="1"></line></g><g class="mark-text role-axis-title" pointer-events="none"><text text-anchor="middle" transform="translate(350,30)" font-family="sans-serif" font-size="11px" font-weight="bold" fill="#000" opacity="1">Instantaneous reproduction number R(t), CI 0.975</text></g></g><path class="foreground" aria-hidden="true" d="" pointer-events="none" display="none"></path></g></g><g class="mark-group role-axis" role="graphics-symbol" aria-roledescription="axis" aria-label="Y-axis titled 'States' for a discrete scale with 27 values: AC, AL, AM, AP, BA, ending with TO"><g transform="translate(0.5,0.5)"><path class="background" aria-hidden="true" d="M0,0h0v0h0Z" pointer-events="none"></path><g><g class="mark-rule role-axis-tick" pointer-events="none"><line transform="translate(0,10)" x2="-5" y2="0" stroke="#888" stroke-width="1" opacity="1"></line><line transform="translate(0,30)" x2="-5" y2="0" stroke="#888" stroke-width="1" opacity="1"></line><line transform="translate(0,50)" x2="-5" y2="0" stroke="#888" stroke-width="1" opacity="1"></line><line transform="translate(0,70)" x2="-5" y2="0" stroke="#888" stroke-width="1" opacity="1"></line><line transform="translate(0,90)" x2="-5" y2="0" stroke="#888" stroke-width="1" opacity="1"></line><line transform="translate(0,110)" x2="-5" y2="0" stroke="#888" stroke-width="1" opacity="1"></line><line transform="translate(0,130)" x2="-5" y2="0" stroke="#888" stroke-width="1" opacity="1"></line><line transform="translate(0,150)" x2="-5" y2="0" stroke="#888" stroke-width="1" opacity="1"></line><line transform="translate(0,170)" x2="-5" y2="0" stroke="#888" stroke-width="1" opacity="1"></line><line transform="translate(0,190)" x2="-5" y2="0" stroke="#888" stroke-width="1" opacity="1"></line><line transform="translate(0,210)" x2="-5" y2="0" stroke="#888" stroke-width="1" opacity="1"></line><line transform="translate(0,230)" x2="-5" y2="0" stroke="#888" stroke-width="1" opacity="1"></line><line transform="translate(0,250)" x2="-5" y2="0" stroke="#888" stroke-width="1" opacity="1"></line><line transform="translate(0,270)" x2="-5" y2="0" stroke="#888" stroke-width="1" opacity="1"></line><line transform="translate(0,290)" x2="-5" y2="0" stroke="#888" stroke-width="1" opacity="1"></line><line transform="translate(0,310)" x2="-5" y2="0" stroke="#888" stroke-width="1" opacity="1"></line><line transform="translate(0,330)" x2="-5" y2="0" stroke="#888" stroke-width="1" opacity="1"></line><line transform="translate(0,350)" x2="-5" y2="0" stroke="#888" stroke-width="1" opacity="1"></line><line transform="translate(0,370)" x2="-5" y2="0" stroke="#888" stroke-width="1" opacity="1"></line><line transform="translate(0,390)" x2="-5" y2="0" stroke="#888" stroke-width="1" opacity="1"></line><line transform="translate(0,410)" x2="-5" y2="0" stroke="#888" stroke-width="1" opacity="1"></line><line transform="translate(0,430)" x2="-5" y2="0" stroke="#888" stroke-width="1" opacity="1"></line><line transform="translate(0,450)" x2="-5" y2="0" stroke="#888" stroke-width="1" opacity="1"></line><line transform="translate(0,470)" x2="-5" y2="0" stroke="#888" stroke-width="1" opacity="1"></line><line transform="translate(0,490)" x2="-5" y2="0" stroke="#888" stroke-width="1" opacity="1"></line><line transform="translate(0,510)" x2="-5" y2="0" stroke="#888" stroke-width="1" opacity="1"></line><line transform="translate(0,530)" x2="-5" y2="0" stroke="#888" stroke-width="1" opacity="1"></line></g><g class="mark-text role-axis-label" pointer-events="none"><text text-anchor="end" transform="translate(-7,12.5)" font-family="sans-serif" font-size="10px" fill="#000" opacity="1">AC</text><text text-anchor="end" transform="translate(-7,32.5)" font-family="sans-serif" font-size="10px" fill="#000" opacity="1">AL</text><text text-anchor="end" transform="translate(-7,52.5)" font-family="sans-serif" font-size="10px" fill="#000" opacity="1">AM</text><text text-anchor="end" transform="translate(-7,72.5)" font-family="sans-serif" font-size="10px" fill="#000" opacity="1">AP</text><text text-anchor="end" transform="translate(-7,92.5)" font-family="sans-serif" font-size="10px" fill="#000" opacity="1">BA</text><text text-anchor="end" transform="translate(-7,112.5)" font-family="sans-serif" font-size="10px" fill="#000" opacity="1">CE</text><text text-anchor="end" transform="translate(-7,132.5)" font-family="sans-serif" font-size="10px" fill="#000" opacity="1">DF</text><text text-anchor="end" transform="translate(-7,152.5)" font-family="sans-serif" font-size="10px" fill="#000" opacity="1">ES</text><text text-anchor="end" transform="translate(-7,172.5)" font-family="sans-serif" font-size="10px" fill="#000" opacity="1">GO</text><text text-anchor="end" transform="translate(-7,192.5)" font-family="sans-serif" font-size="10px" fill="#000" opacity="1">MA</text><text text-anchor="end" transform="translate(-7,212.5)" font-family="sans-serif" font-size="10px" fill="#000" opacity="1">MG</text><text text-anchor="end" transform="translate(-7,232.5)" font-family="sans-serif" font-size="10px" fill="#000" opacity="1">MS</text><text text-anchor="end" transform="translate(-7,252.5)" font-family="sans-serif" font-size="10px" fill="#000" opacity="1">MT</text><text text-anchor="end" transform="translate(-7,272.5)" font-family="sans-serif" font-size="10px" fill="#000" opacity="1">PA</text><text text-anchor="end" transform="translate(-7,292.5)" font-family="sans-serif" font-size="10px" fill="#000" opacity="1">PB</text><text text-anchor="end" transform="translate(-7,312.5)" font-family="sans-serif" font-size="10px" fill="#000" opacity="1">PE</text><text text-anchor="end" transform="translate(-7,332.5)" font-family="sans-serif" font-size="10px" fill="#000" opacity="1">PI</text><text text-anchor="end" transform="translate(-7,352.5)" font-family="sans-serif" font-size="10px" fill="#000" opacity="1">PR</text><text text-anchor="end" transform="translate(-7,372.5)" font-family="sans-serif" font-size="10px" fill="#000" opacity="1">RJ</text><text text-anchor="end" transform="translate(-7,392.5)" font-family="sans-serif" font-size="10px" fill="#000" opacity="1">RN</text><text text-anchor="end" transform="translate(-7,412.5)" font-family="sans-serif" font-size="10px" fill="#000" opacity="1">RO</text><text text-anchor="end" transform="translate(-7,432.5)" font-family="sans-serif" font-size="10px" fill="#000" opacity="1">RR</text><text text-anchor="end" transform="translate(-7,452.5)" font-family="sans-serif" font-size="10px" fill="#000" opacity="1">RS</text><text text-anchor="end" transform="translate(-7,472.5)" font-family="sans-serif" font-size="10px" fill="#000" opacity="1">SC</text><text text-anchor="end" transform="translate(-7,492.5)" font-family="sans-serif" font-size="10px" fill="#000" opacity="1">SE</text><text text-anchor="end" transform="translate(-7,512.5)" font-family="sans-serif" font-size="10px" fill="#000" opacity="1">SP</text><text text-anchor="end" transform="translate(-7,532.5)" font-family="sans-serif" font-size="10px" fill="#000" opacity="1">TO</text></g><g class="mark-rule role-axis-domain" pointer-events="none"><line transform="translate(0,0)" x2="0" y2="540" stroke="#888" stroke-width="1" opacity="1"></line></g><g class="mark-text role-axis-title" pointer-events="none"><text text-anchor="middle" transform="translate(-27,270) rotate(-90) translate(0,-2)" font-family="sans-serif" font-size="11px" font-weight="bold" fill="#000" opacity="1">States</text></g></g><path class="foreground" aria-hidden="true" d="" pointer-events="none" display="none"></path></g></g><g class="mark-symbol role-mark layer_0_marks" role="graphics-object" aria-roledescription="symbol mark container"><path aria-label="Instantaneous reproduction number R(t): 0.715764801872; States: AC" role="graphics-symbol" aria-roledescription="point" transform="translate(45.019645172298425,10)" d="M2.7386127875258306,0A2.7386127875258306,2.7386127875258306,0,1,1,-2.7386127875258306,0A2.7386127875258306,2.7386127875258306,0,1,1,2.7386127875258306,0" stroke="#4c78a8" stroke-width="2" opacity="0.7"></path><path aria-label="Instantaneous reproduction number R(t): 0.934260455184; States: AM" role="graphics-symbol" aria-roledescription="point" transform="translate(129.9901770160379,50)" d="M2.7386127875258306,0A2.7386127875258306,2.7386127875258306,0,1,1,-2.7386127875258306,0A2.7386127875258306,2.7386127875258306,0,1,1,2.7386127875258306,0" stroke="#4c78a8" stroke-width="2" opacity="0.7"></path><path aria-label="Instantaneous reproduction number R(t): 0.989837820907; States: RS" role="graphics-symbol" aria-roledescription="point" transform="translate(151.60359701949716,450)" d="M2.7386127875258306,0A2.7386127875258306,2.7386127875258306,0,1,1,-2.7386127875258306,0A2.7386127875258306,2.7386127875258306,0,1,1,2.7386127875258306,0" stroke="#4c78a8" stroke-width="2" opacity="0.7"></path><path aria-label="Instantaneous reproduction number R(t): 0.998238210662; States: PE" role="graphics-symbol" aria-roledescription="point" transform="translate(154.87041525762987,310)" d="M2.7386127875258306,0A2.7386127875258306,2.7386127875258306,0,1,1,-2.7386127875258306,0A2.7386127875258306,2.7386127875258306,0,1,1,2.7386127875258306,0" stroke="#4c78a8" stroke-width="2" opacity="0.7"></path><path aria-label="Instantaneous reproduction number R(t): 1.03658011449; States: MA" role="graphics-symbol" aria-roledescription="point" transform="translate(169.78115563663462,190)" d="M2.7386127875258306,0A2.7386127875258306,2.7386127875258306,0,1,1,-2.7386127875258306,0A2.7386127875258306,2.7386127875258306,0,1,1,2.7386127875258306,0" stroke="#4c78a8" stroke-width="2" opacity="0.7"></path><path aria-label="Instantaneous reproduction number R(t): 1.0551659154; States: RJ" role="graphics-symbol" aria-roledescription="point" transform="translate(177.00896709872833,370)" d="M2.7386127875258306,0A2.7386127875258306,2.7386127875258306,0,1,1,-2.7386127875258306,0A2.7386127875258306,2.7386127875258306,0,1,1,2.7386127875258306,0" stroke="#4c78a8" stroke-width="2" opacity="0.7"></path><path aria-label="Instantaneous reproduction number R(t): 1.07193385587; States: TO" role="graphics-symbol" aria-roledescription="point" transform="translate(183.52983283942433,530)" d="M2.7386127875258306,0A2.7386127875258306,2.7386127875258306,0,1,1,-2.7386127875258306,0A2.7386127875258306,2.7386127875258306,0,1,1,2.7386127875258306,0" stroke="#4c78a8" stroke-width="2" opacity="0.7"></path><path aria-label="Instantaneous reproduction number R(t): 1.08286517463; States: AP" role="graphics-symbol" aria-roledescription="point" transform="translate(187.78090124399247,70)" d="M2.7386127875258306,0A2.7386127875258306,2.7386127875258306,0,1,1,-2.7386127875258306,0A2.7386127875258306,2.7386127875258306,0,1,1,2.7386127875258306,0" stroke="#4c78a8" stroke-width="2" opacity="0.7"></path><path aria-label="Instantaneous reproduction number R(t): 1.09394401487; States: SC" role="graphics-symbol" aria-roledescription="point" transform="translate(192.08933911435258,470)" d="M2.7386127875258306,0A2.7386127875258306,2.7386127875258306,0,1,1,-2.7386127875258306,0A2.7386127875258306,2.7386127875258306,0,1,1,2.7386127875258306,0" stroke="#4c78a8" stroke-width="2" opacity="0.7"></path><path aria-label="Instantaneous reproduction number R(t): 1.09811449216; States: PA" role="graphics-symbol" aria-roledescription="point" transform="translate(193.7111913968434,270)" d="M2.7386127875258306,0A2.7386127875258306,2.7386127875258306,0,1,1,-2.7386127875258306,0A2.7386127875258306,2.7386127875258306,0,1,1,2.7386127875258306,0" stroke="#4c78a8" stroke-width="2" opacity="0.7"></path><path aria-label="Instantaneous reproduction number R(t): 1.17531446352; States: SE" role="graphics-symbol" aria-roledescription="point" transform="translate(223.73340247880256,490)" d="M2.7386127875258306,0A2.7386127875258306,2.7386127875258306,0,1,1,-2.7386127875258306,0A2.7386127875258306,2.7386127875258306,0,1,1,2.7386127875258306,0" stroke="#4c78a8" stroke-width="2" opacity="0.7"></path><path aria-label="Instantaneous reproduction number R(t): 1.18811146927; States: PI" role="graphics-symbol" aria-roledescription="point" transform="translate(228.71001582544366,330)" d="M2.7386127875258306,0A2.7386127875258306,2.7386127875258306,0,1,1,-2.7386127875258306,0A2.7386127875258306,2.7386127875258306,0,1,1,2.7386127875258306,0" stroke="#4c78a8" stroke-width="2" opacity="0.7"></path><path aria-label="Instantaneous reproduction number R(t): 1.24286440221; States: PB" role="graphics-symbol" aria-roledescription="point" transform="translate(250.0028230803849,290)" d="M2.7386127875258306,0A2.7386127875258306,2.7386127875258306,0,1,1,-2.7386127875258306,0A2.7386127875258306,2.7386127875258306,0,1,1,2.7386127875258306,0" stroke="#4c78a8" stroke-width="2" opacity="0.7"></path><path aria-label="Instantaneous reproduction number R(t): 1.24409662851; States: SP" role="graphics-symbol" aria-roledescription="point" transform="translate(250.48202219877578,510)" d="M2.7386127875258306,0A2.7386127875258306,2.7386127875258306,0,1,1,-2.7386127875258306,0A2.7386127875258306,2.7386127875258306,0,1,1,2.7386127875258306,0" stroke="#4c78a8" stroke-width="2" opacity="0.7"></path><path aria-label="Instantaneous reproduction number R(t): 1.24964931563; States: MS" role="graphics-symbol" aria-roledescription="point" transform="translate(252.64140052298401,230)" d="M2.7386127875258306,0A2.7386127875258306,2.7386127875258306,0,1,1,-2.7386127875258306,0A2.7386127875258306,2.7386127875258306,0,1,1,2.7386127875258306,0" stroke="#4c78a8" stroke-width="2" opacity="0.7"></path><path aria-label="Instantaneous reproduction number R(t): 1.26824560764; States: ES" role="graphics-symbol" aria-roledescription="point" transform="translate(259.8732918601335,150)" d="M2.7386127875258306,0A2.7386127875258306,2.7386127875258306,0,1,1,-2.7386127875258306,0A2.7386127875258306,2.7386127875258306,0,1,1,2.7386127875258306,0" stroke="#4c78a8" stroke-width="2" opacity="0.7"></path><path aria-label="Instantaneous reproduction number R(t): 1.29644946331; States: RO" role="graphics-symbol" aria-roledescription="point" transform="translate(270.8414579530456,410)" d="M2.7386127875258306,0A2.7386127875258306,2.7386127875258306,0,1,1,-2.7386127875258306,0A2.7386127875258306,2.7386127875258306,0,1,1,2.7386127875258306,0" stroke="#4c78a8" stroke-width="2" opacity="0.7"></path><path aria-label="Instantaneous reproduction number R(t): 1.30744713629; States: MG" role="graphics-symbol" aria-roledescription="point" transform="translate(275.1183307789182,210)" d="M2.7386127875258306,0A2.7386127875258306,2.7386127875258306,0,1,1,-2.7386127875258306,0A2.7386127875258306,2.7386127875258306,0,1,1,2.7386127875258306,0" stroke="#4c78a8" stroke-width="2" opacity="0.7"></path><path aria-label="Instantaneous reproduction number R(t): 1.31353233042; States: PR" role="graphics-symbol" aria-roledescription="point" transform="translate(277.4847951629034,350)" d="M2.7386127875258306,0A2.7386127875258306,2.7386127875258306,0,1,1,-2.7386127875258306,0A2.7386127875258306,2.7386127875258306,0,1,1,2.7386127875258306,0" stroke="#4c78a8" stroke-width="2" opacity="0.7"></path><path aria-label="Instantaneous reproduction number R(t): 1.33253597481; States: AL" role="graphics-symbol" aria-roledescription="point" transform="translate(284.87510131602045,30)" d="M2.7386127875258306,0A2.7386127875258306,2.7386127875258306,0,1,1,-2.7386127875258306,0A2.7386127875258306,2.7386127875258306,0,1,1,2.7386127875258306,0" stroke="#4c78a8" stroke-width="2" opacity="0.7"></path><path aria-label="Instantaneous reproduction number R(t): 1.34376309222; States: MT" role="graphics-symbol" aria-roledescription="point" transform="translate(289.2412025318985,250)" d="M2.7386127875258306,0A2.7386127875258306,2.7386127875258306,0,1,1,-2.7386127875258306,0A2.7386127875258306,2.7386127875258306,0,1,1,2.7386127875258306,0" stroke="#4c78a8" stroke-width="2" opacity="0.7"></path><path aria-label="Instantaneous reproduction number R(t): 1.41441599975; States: RN" role="graphics-symbol" aria-roledescription="point" transform="translate(316.71733323717154,390)" d="M2.7386127875258306,0A2.7386127875258306,2.7386127875258306,0,1,1,-2.7386127875258306,0A2.7386127875258306,2.7386127875258306,0,1,1,2.7386127875258306,0" stroke="#4c78a8" stroke-width="2" opacity="0.7"></path><path aria-label="Instantaneous reproduction number R(t): 1.41694683931; States: DF" role="graphics-symbol" aria-roledescription="point" transform="translate(317.7015486192756,130)" d="M2.7386127875258306,0A2.7386127875258306,2.7386127875258306,0,1,1,-2.7386127875258306,0A2.7386127875258306,2.7386127875258306,0,1,1,2.7386127875258306,0" stroke="#4c78a8" stroke-width="2" opacity="0.7"></path><path aria-label="Instantaneous reproduction number R(t): 1.46487221567; States: GO" role="graphics-symbol" aria-roledescription="point" transform="translate(336.33919498133156,170)" d="M2.7386127875258306,0A2.7386127875258306,2.7386127875258306,0,1,1,-2.7386127875258306,0A2.7386127875258306,2.7386127875258306,0,1,1,2.7386127875258306,0" stroke="#4c78a8" stroke-width="2" opacity="0.7"></path><path aria-label="Instantaneous reproduction number R(t): 1.48227482575; States: BA" role="graphics-symbol" aria-roledescription="point" transform="translate(343.1068766816136,90)" d="M2.7386127875258306,0A2.7386127875258306,2.7386127875258306,0,1,1,-2.7386127875258306,0A2.7386127875258306,2.7386127875258306,0,1,1,2.7386127875258306,0" stroke="#4c78a8" stroke-width="2" opacity="0.7"></path><path aria-label="Instantaneous reproduction number R(t): 1.50956725782; States: RR" role="graphics-symbol" aria-roledescription="point" transform="translate(353.7206002614699,430)" d="M2.7386127875258306,0A2.7386127875258306,2.7386127875258306,0,1,1,-2.7386127875258306,0A2.7386127875258306,2.7386127875258306,0,1,1,2.7386127875258306,0" stroke="#4c78a8" stroke-width="2" opacity="0.7"></path><path aria-label="Instantaneous reproduction number R(t): 1.84465701817; States: CE" role="graphics-symbol" aria-roledescription="point" transform="translate(484.0332848452621,110)" d="M2.7386127875258306,0A2.7386127875258306,2.7386127875258306,0,1,1,-2.7386127875258306,0A2.7386127875258306,2.7386127875258306,0,1,1,2.7386127875258306,0" stroke="#4c78a8" stroke-width="2" opacity="0.7"></path></g><g class="mark-rule role-mark layer_1_marks" role="graphics-object" aria-roledescription="rule mark container"><line aria-label="a: 1" role="graphics-symbol" aria-roledescription="rule mark" transform="translate(155.5555555555556,0)" x2="0" y2="540" stroke="black" stroke-width="0.2"></line><line aria-label="a: 1" role="graphics-symbol" aria-roledescription="rule mark" transform="translate(155.5555555555556,0)" x2="0" y2="540" stroke="black" stroke-width="0.2"></line><line aria-label="a: 1" role="graphics-symbol" aria-roledescription="rule mark" transform="translate(155.5555555555556,0)" x2="0" y2="540" stroke="black" stroke-width="0.2"></line><line aria-label="a: 1" role="graphics-symbol" aria-roledescription="rule mark" transform="translate(155.5555555555556,0)" x2="0" y2="540" stroke="black" stroke-width="0.2"></line><line aria-label="a: 1" role="graphics-symbol" aria-roledescription="rule mark" transform="translate(155.5555555555556,0)" x2="0" y2="540" stroke="black" stroke-width="0.2"></line><line aria-label="a: 1" role="graphics-symbol" aria-roledescription="rule mark" transform="translate(155.5555555555556,0)" x2="0" y2="540" stroke="black" stroke-width="0.2"></line><line aria-label="a: 1" role="graphics-symbol" aria-roledescription="rule mark" transform="translate(155.5555555555556,0)" x2="0" y2="540" stroke="black" stroke-width="0.2"></line><line aria-label="a: 1" role="graphics-symbol" aria-roledescription="rule mark" transform="translate(155.5555555555556,0)" x2="0" y2="540" stroke="black" stroke-width="0.2"></line><line aria-label="a: 1" role="graphics-symbol" aria-roledescription="rule mark" transform="translate(155.5555555555556,0)" x2="0" y2="540" stroke="black" stroke-width="0.2"></line><line aria-label="a: 1" role="graphics-symbol" aria-roledescription="rule mark" transform="translate(155.5555555555556,0)" x2="0" y2="540" stroke="black" stroke-width="0.2"></line><line aria-label="a: 1" role="graphics-symbol" aria-roledescription="rule mark" transform="translate(155.5555555555556,0)" x2="0" y2="540" stroke="black" stroke-width="0.2"></line><line aria-label="a: 1" role="graphics-symbol" aria-roledescription="rule mark" transform="translate(155.5555555555556,0)" x2="0" y2="540" stroke="black" stroke-width="0.2"></line><line aria-label="a: 1" role="graphics-symbol" aria-roledescription="rule mark" transform="translate(155.5555555555556,0)" x2="0" y2="540" stroke="black" stroke-width="0.2"></line><line aria-label="a: 1" role="graphics-symbol" aria-roledescription="rule mark" transform="translate(155.5555555555556,0)" x2="0" y2="540" stroke="black" stroke-width="0.2"></line><line aria-label="a: 1" role="graphics-symbol" aria-roledescription="rule mark" transform="translate(155.5555555555556,0)" x2="0" y2="540" stroke="black" stroke-width="0.2"></line><line aria-label="a: 1" role="graphics-symbol" aria-roledescription="rule mark" transform="translate(155.5555555555556,0)" x2="0" y2="540" stroke="black" stroke-width="0.2"></line><line aria-label="a: 1" role="graphics-symbol" aria-roledescription="rule mark" transform="translate(155.5555555555556,0)" x2="0" y2="540" stroke="black" stroke-width="0.2"></line><line aria-label="a: 1" role="graphics-symbol" aria-roledescription="rule mark" transform="translate(155.5555555555556,0)" x2="0" y2="540" stroke="black" stroke-width="0.2"></line><line aria-label="a: 1" role="graphics-symbol" aria-roledescription="rule mark" transform="translate(155.5555555555556,0)" x2="0" y2="540" stroke="black" stroke-width="0.2"></line><line aria-label="a: 1" role="graphics-symbol" aria-roledescription="rule mark" transform="translate(155.5555555555556,0)" x2="0" y2="540" stroke="black" stroke-width="0.2"></line><line aria-label="a: 1" role="graphics-symbol" aria-roledescription="rule mark" transform="translate(155.5555555555556,0)" x2="0" y2="540" stroke="black" stroke-width="0.2"></line><line aria-label="a: 1" role="graphics-symbol" aria-roledescription="rule mark" transform="translate(155.5555555555556,0)" x2="0" y2="540" stroke="black" stroke-width="0.2"></line><line aria-label="a: 1" role="graphics-symbol" aria-roledescription="rule mark" transform="translate(155.5555555555556,0)" x2="0" y2="540" stroke="black" stroke-width="0.2"></line><line aria-label="a: 1" role="graphics-symbol" aria-roledescription="rule mark" transform="translate(155.5555555555556,0)" x2="0" y2="540" stroke="black" stroke-width="0.2"></line><line aria-label="a: 1" role="graphics-symbol" aria-roledescription="rule mark" transform="translate(155.5555555555556,0)" x2="0" y2="540" stroke="black" stroke-width="0.2"></line><line aria-label="a: 1" role="graphics-symbol" aria-roledescription="rule mark" transform="translate(155.5555555555556,0)" x2="0" y2="540" stroke="black" stroke-width="0.2"></line><line aria-label="a: 1" role="graphics-symbol" aria-roledescription="rule mark" transform="translate(155.5555555555556,0)" x2="0" y2="540" stroke="black" stroke-width="0.2"></line></g><g class="mark-rule role-mark layer_2_marks" role="graphics-object" aria-roledescription="rule mark container"><line aria-label="CI 0.975: 0.631747148891; upper_Quantile.0.025(R): 0.81057550982; index: AC; Quantile.0.975(R): 0.81057550982; Quantile.0.025(R): 0.631747148891" role="graphics-symbol" aria-roledescription="errorbar" transform="translate(12.346113457426819,10)" x2="69.54436258380245" y2="0" stroke="blue" stroke-width="0.6"></line><line aria-label="CI 0.975: 0.90575100696; upper_Quantile.0.025(R): 0.963606083116; index: AM; Quantile.0.975(R): 0.963606083116; Quantile.0.025(R): 0.90575100696" role="graphics-symbol" aria-roledescription="errorbar" transform="translate(118.90316937339769,50)" x2="22.49919628292959" y2="0" stroke="blue" stroke-width="0.6"></line><line aria-label="CI 0.975: 0.929700113122; upper_Quantile.0.025(R): 1.0476730071; index: RS; Quantile.0.975(R): 1.0476730071; Quantile.0.025(R): 0.929700113122" role="graphics-symbol" aria-roledescription="errorbar" transform="translate(128.2167106585563,450)" x2="45.87834765893564" y2="0" stroke="blue" stroke-width="0.6"></line><line aria-label="CI 0.975: 0.968734561789; upper_Quantile.0.025(R): 1.02763508056; index: PE; Quantile.0.975(R): 1.02763508056; Quantile.0.025(R): 0.968734561789" role="graphics-symbol" aria-roledescription="errorbar" transform="translate(143.39677402918,310)" x2="22.90575729941949" y2="0" stroke="blue" stroke-width="0.6"></line><line aria-label="CI 0.975: 0.99035558366; upper_Quantile.0.025(R): 1.08502513985; index: MA; Quantile.0.975(R): 1.08502513985; Quantile.0.025(R): 0.99035558366" role="graphics-symbol" aria-roledescription="errorbar" transform="translate(151.80494920113225,190)" x2="36.81593852007927" y2="0" stroke="blue" stroke-width="0.6"></line><line aria-label="CI 0.975: 1.01694672955; upper_Quantile.0.025(R): 1.09395198086; index: RJ; Quantile.0.975(R): 1.09395198086; Quantile.0.025(R): 1.01694672955" role="graphics-symbol" aria-roledescription="errorbar" transform="translate(162.14595038123252,370)" x2="29.946486619447285" y2="0" stroke="blue" stroke-width="0.6"></line><line aria-label="CI 0.975: 1.00362135922; upper_Quantile.0.025(R): 1.14483429434; index: TO; Quantile.0.975(R): 1.14483429434; Quantile.0.025(R): 1.00362135922" role="graphics-symbol" aria-roledescription="errorbar" transform="translate(156.96386191715467,530)" x2="54.91614143863447" y2="0" stroke="blue" stroke-width="0.6"></line><line aria-label="CI 0.975: 1.02516481764; upper_Quantile.0.025(R): 1.14246842383; index: AP; Quantile.0.975(R): 1.14246842383; Quantile.0.025(R): 1.02516481764" role="graphics-symbol" aria-roledescription="errorbar" transform="translate(165.3418735261862,70)" x2="45.61806907252674" y2="0" stroke="blue" stroke-width="0.6"></line><line aria-label="CI 0.975: 1.02102443939; upper_Quantile.0.025(R): 1.17123826364; index: SC; Quantile.0.975(R): 1.17123826364; Quantile.0.025(R): 1.02102443939" role="graphics-symbol" aria-roledescription="errorbar" transform="translate(163.73172642872026,470)" x2="58.416487208958074" y2="0" stroke="blue" stroke-width="0.6"></line><line aria-label="CI 0.975: 1.05413443007; upper_Quantile.0.025(R): 1.13596549881; index: PA; Quantile.0.975(R): 1.13596549881; Quantile.0.025(R): 1.05413443007" role="graphics-symbol" aria-roledescription="errorbar" transform="translate(176.60783391649503,270)" x2="31.823193397885404" y2="0" stroke="blue" stroke-width="0.6"></line><line aria-label="CI 0.975: 1.09519525727; upper_Quantile.0.025(R): 1.25843059809; index: SE; Quantile.0.975(R): 1.25843059809; Quantile.0.025(R): 1.09519525727" role="graphics-symbol" aria-roledescription="errorbar" transform="translate(192.57593338175295,490)" x2="63.48041031814975" y2="0" stroke="blue" stroke-width="0.6"></line><line aria-label="CI 0.975: 1.09724016564; upper_Quantile.0.025(R): 1.28223053136; index: PI; Quantile.0.975(R): 1.28223053136; Quantile.0.025(R): 1.09724016564" role="graphics-symbol" aria-roledescription="errorbar" transform="translate(193.371175525173,330)" x2="71.94069778334904" y2="0" stroke="blue" stroke-width="0.6"></line><line aria-label="CI 0.975: 1.17753193512; upper_Quantile.0.025(R): 1.3160085115; index: PB; Quantile.0.975(R): 1.3160085115; Quantile.0.025(R): 1.17753193512" role="graphics-symbol" aria-roledescription="errorbar" transform="translate(224.59575254480643,290)" x2="53.85200192843479" y2="0" stroke="blue" stroke-width="0.6"></line><line aria-label="CI 0.975: 1.14930236771; upper_Quantile.0.025(R): 1.34082363369; index: SP; Quantile.0.975(R): 1.34082363369; Quantile.0.025(R): 1.14930236771" role="graphics-symbol" aria-roledescription="errorbar" transform="translate(213.61758744349066,510)" x2="74.48049232601812" y2="0" stroke="blue" stroke-width="0.6"></line><line aria-label="CI 0.975: 1.14738048026; upper_Quantile.0.025(R): 1.35860397177; index: MS; Quantile.0.975(R): 1.35860397177; Quantile.0.025(R): 1.14738048026" role="graphics-symbol" aria-roledescription="errorbar" transform="translate(212.8701867676849,230)" x2="82.14246891941565" y2="0" stroke="blue" stroke-width="0.6"></line><line aria-label="CI 0.975: 1.17248675985; upper_Quantile.0.025(R): 1.35453086851; index: ES; Quantile.0.975(R): 1.35453086851; Quantile.0.025(R): 1.17248675985" role="graphics-symbol" aria-roledescription="errorbar" transform="translate(222.6337399435779,150)" x2="70.79493114458762" y2="0" stroke="blue" stroke-width="0.6"></line><line aria-label="CI 0.975: 1.21368946952; upper_Quantile.0.025(R): 1.38780366405; index: RO; Quantile.0.975(R): 1.38780366405; Quantile.0.025(R): 1.21368946952" role="graphics-symbol" aria-roledescription="errorbar" transform="translate(238.65701592523675,410)" x2="67.7110756501832" y2="0" stroke="blue" stroke-width="0.6"></line><line aria-label="CI 0.975: 1.23473398769; upper_Quantile.0.025(R): 1.38838253512; index: MG; Quantile.0.975(R): 1.38838253512; Quantile.0.025(R): 1.23473398769" role="graphics-symbol" aria-roledescription="errorbar" transform="translate(246.8409952126017,210)" x2="59.75221288975504" y2="0" stroke="blue" stroke-width="0.6"></line><line aria-label="CI 0.975: 1.19890206862; upper_Quantile.0.025(R): 1.43652539819; index: PR; Quantile.0.975(R): 1.43652539819; Quantile.0.025(R): 1.19890206862" role="graphics-symbol" aria-roledescription="errorbar" transform="translate(232.90636002025985,350)" x2="92.40907261087403" y2="0" stroke="blue" stroke-width="0.6"></line><line aria-label="CI 0.975: 1.22540132741; upper_Quantile.0.025(R): 1.44936387921; index: AL; Quantile.0.975(R): 1.44936387921; Quantile.0.025(R): 1.22540132741" role="graphics-symbol" aria-roledescription="errorbar" transform="translate(243.21162732667977,30)" x2="87.09654792062253" y2="0" stroke="blue" stroke-width="0.6"></line><line aria-label="CI 0.975: 1.24037131215; upper_Quantile.0.025(R): 1.45727562875; index: MT; Quantile.0.975(R): 1.45727562875; Quantile.0.025(R): 1.24037131215" role="graphics-symbol" aria-roledescription="errorbar" transform="translate(249.03328805648857,250)" x2="84.351678677748" y2="0" stroke="blue" stroke-width="0.6"></line><line aria-label="CI 0.975: 1.28680266002; upper_Quantile.0.025(R): 1.55661263879; index: RN; Quantile.0.975(R): 1.55661263879; Quantile.0.025(R): 1.28680266002" role="graphics-symbol" aria-roledescription="errorbar" transform="translate(267.0899233395649,390)" x2="104.92610285582077" y2="0" stroke="blue" stroke-width="0.6"></line><line aria-label="CI 0.975: 1.28151224767; upper_Quantile.0.025(R): 1.55781914957; index: DF; Quantile.0.975(R): 1.55781914957; Quantile.0.025(R): 1.28151224767" role="graphics-symbol" aria-roledescription="errorbar" transform="translate(265.03254076228677,130)" x2="107.45268406996348" y2="0" stroke="blue" stroke-width="0.6"></line><line aria-label="CI 0.975: 1.28455817868; upper_Quantile.0.025(R): 1.67654002322; index: GO; Quantile.0.975(R): 1.67654002322; Quantile.0.025(R): 1.28455817868" role="graphics-symbol" aria-roledescription="errorbar" transform="translate(266.2170694867197,170)" x2="152.43738398870408" y2="0" stroke="blue" stroke-width="0.6"></line><line aria-label="CI 0.975: 1.28383966435; upper_Quantile.0.025(R): 1.67411711717; index: BA; Quantile.0.975(R): 1.67411711717; Quantile.0.025(R): 1.28383966435" role="graphics-symbol" aria-roledescription="errorbar" transform="translate(265.93764724686855,90)" x2="151.77456498445878" y2="0" stroke="blue" stroke-width="0.6"></line><line aria-label="CI 0.975: 1.30770652524; upper_Quantile.0.025(R): 1.73238400384; index: RR; Quantile.0.975(R): 1.73238400384; Quantile.0.025(R): 1.30770652524" role="graphics-symbol" aria-roledescription="errorbar" transform="translate(275.21920425906177,430)" x2="165.15235279173828" y2="0" stroke="blue" stroke-width="0.6"></line><line aria-label="CI 0.975: 1.51477381735; upper_Quantile.0.025(R): 2.28100504647; index: CE; Quantile.0.975(R): 2.28100504647; Quantile.0.025(R): 1.51477381735" role="graphics-symbol" aria-roledescription="errorbar" transform="translate(355.74537341568987,110)" x2="297.9788113221009" y2="0" stroke="blue" stroke-width="0.6"></line></g><g class="mark-group role-title"><g transform="translate(350,-17.2)"><path class="background" aria-hidden="true" d="M0,0h0v0h0Z" pointer-events="none"></path><g><g class="mark-text role-title-text" role="graphics-symbol" aria-roledescription="title" aria-label="Title text 'Instantaneous reproduction number estimate for all states in Brazil'" pointer-events="none"><text text-anchor="middle" transform="translate(0,10)" font-family="sans-serif" font-size="13px" font-weight="bold" fill="#000" opacity="1">Instantaneous reproduction number estimate for all states in Brazil</text></g></g><path class="foreground" aria-hidden="true" d="" pointer-events="none" display="none"></path></g></g></g><path class="foreground" aria-hidden="true" d="" display="none"></path></g></g></g></svg>