<svg class="marks" width="749" height="600" viewBox="0 0 749 600" version="1.1" xmlns="http://www.w3.org/2000/svg" xmlns:xlink="http://www.w3.org/1999/xlink"><rect width="749" height="600" fill="white"></rect><g fill="none" stroke-miterlimit="10" transform="translate(43,23)"><g class="mark-group role-frame root" role="graphics-object" aria-roledescription="group mark container"><g transform="translate(0,0)"><path class="background" aria-hidden="true" d="M0.5,0.5h700v540h-700Z"></path><g><g class="mark-group role-axis" aria-hidden="true"><g transform="translate(0.5,0.5)"><path class="background" aria-hidden="true" d="M0,0h0v0h0Z" pointer-events="none"></path><g><g class="mark-rule role-axis-grid" pointer-events="none"><line transform="translate(0,10)" x2="700" y2="0" stroke="#ddd" stroke-width="1" opacity="1"></line><line transform="translate(0,30)" x2="700" y2="0" stroke="#ddd" stroke-width="1" opacity="1"></line><line transform="translate(0,50)" x2="700" y2="0" stroke="#ddd" stroke-width="1" opacity="1"></line><line transform="translate(0,70)" x2="700" y2="0" stroke="#ddd" stroke-width="1" opacity="1"></line><line transform="translate(0,90)" x2="700" y2="0" stroke="#ddd" stroke-width="1" opacity="1"></line><line transform="translate(0,110)" x2="700" y2="0" stroke="#ddd" stroke-width="1" opacity="1"></line><line transform="translate(0,130)" x2="700" y2="0" stroke="#ddd" stroke-width="1" opacity="1"></line><line transform="translate(0,150)" x2="700" y2="0" stroke="#ddd" stroke-width="1" opacity="1"></line><line transform="translate(0,170)" x2="700" y2="0" stroke="#ddd" stroke-width="1" opacity="1"></line><line transform="translate(0,190)" x2="700" y2="0" stroke="#ddd" stroke-width="1" opacity="1"></line><line transform="translate(0,210)" x2="700" y2="0" stroke="#ddd" stroke-width="1" opacity="1"></line><line transform="translate(0,230)" x2="700" y2="0" stroke="#ddd" stroke-width="1" opacity="1"></line><line transform="translate(0,250)" x2="700" y2="0" stroke="#ddd" stroke-width="1" opacity="1"></line><line transform="translate(0,270)" x2="700" y2="0" stroke="#ddd" stroke-width="1" opacity="1"></line><line transform="translate(0,290)" x2="700" y2="0" stroke="#ddd" stroke-width="1" opacity="1"></line><line transform="translate(0,310)" x2="700" y2="0" stroke="#ddd" stroke-width="1" opacity="1"></line><line transform="translate(0,330)" x2="700" y2="0" stroke="#ddd" stroke-width="1" opacity="1"></line><line transform="translate(0,350)" x2="700" y2="0" stroke="#ddd" stroke-width="1" opacity="1"></line><line transform="translate(0,370)" x2="700" y2="0" stroke="#ddd" stroke-width="1" opacity="1"></line><line transform="translate(0,390)" x2="700" y2="0" stroke="#ddd" stroke-width="1" opacity="1"></line><line transform="translate(0,410)" x2="700" y2="0" stroke="#ddd" stroke-width="1" opacity="1"></line><line transform="translate(0,430)" x2="700" y2="0" stroke="#ddd" stroke-width="1" opacity="1"></line><line transform="translate(0,450)" x2="700" y2="0" stroke="#ddd" stroke-width="1" opacity="1"></line><line transform="translate(0,470)" x2="700" y2="0" stroke="#ddd" stroke-width="1" opacity="1"></line><line transform="translate(0,490)" x2="700" y2="0" stroke="#ddd" stroke-width="1" opacity="1"></line><line transform="translate(0,510)" x2="700" y2="0" stroke="#ddd" stroke-width="1" opacity="1"></line><line transform="translate(0,530)" x2="700" y2="0" stroke="#ddd" stroke-width="1" opacity="1"></line></g></g><path class="foreground" aria-hidden="true" d="" pointer-events="none" display="none"></path></g></g><g class="mark-group role-axis" role="graphics-symbol" aria-roledescription="axis" aria-label="X-axis titled 'Instantaneous reproduction number R(t), CI 0.975' for a linear scale with values from 0.6 to 2.6"><g transform="translate(0.5,540.5)"><path class="background" aria-hidden="true" d="M0,0h0v0h0Z" pointer-events="none"></path><g><g class="mark-rule role-axis-tick" pointer-events="none"><line transform="translate(0,0)" x2="0" y2="5" stroke="#888" stroke-width="1" opacity="1"></line><line transform="translate(35,0)" x2="0" y2="5" stroke="#888" stroke-width="1" opacity="1"></line><line transform="translate(70,0)" x2="0" y2="5" stroke="#888" stroke-width="1" opacity="1"></line><line transform="translate(105,0)" x2="0" y2="5" stroke="#888" stroke-width="1" opacity="1"></line><line transform="translate(140,0)" x2="0" y2="5" stroke="#888" stroke-width="1" opacity="1"></line><line transform="translate(175,0)" x2="0" y2="5" stroke="#888" stroke-width="1" opacity="1"></line><line transform="translate(210,0)" x2="0" y2="5" stroke="#888" stroke-width="1" opacity="1"></line><line transform="translate(245,0)" x2="0" y2="5" stroke="#888" stroke-width="1" opacity="1"></line><line transform="translate(280,0)" x2="0" y2="5" stroke="#888" stroke-width="1" opacity="1"></line><line transform="translate(315,0)" x2="0" y2="5" stroke="#888" stroke-width="1" opacity="1"></line><line transform="translate(350,0)" x2="0" y2="5" stroke="#888" stroke-width="1" opacity="1"></line><line transform="translate(385,0)" x2="0" y2="5" stroke="#888" stroke-width="1" opacity="1"></line><line transform="translate(420,0)" x2="0" y2="5" stroke="#888" stroke-width="1" opacity="1"></line><line transform="translate(455,0)" x2="0" y2="5" stroke="#888" stroke-width="1" opacity="1"></line><line transform="translate(490,0)" x2="0" y2="5" stroke="#888" stroke-width="1" opacity="1"></line><line transform="translate(525,0)" x2="0" y2="5" stroke="#888" stroke-width="1" opacity="1"></line><line transform="translate(560,0)" x2="0" y2="5" stroke="#888" stroke-width="1" opacity="1"></line><line transform="translate(595,0)" x2="0" y2="5" stroke="#888" stroke-width="1" opacity="1"></line><line transform="translate(630,0)" x2="0" y2="5" stroke="#888" stroke-width="1" opacity="1"></line><line transform="translate(665,0)" x2="0" y2="5" stroke="#888" stroke-width="1" opacity="1"></line><line transform="translate(700,0)" x2="0" y2="5" stroke="#888" stroke-width="1" opacity="1"></line></g><g class="mark-text role-axis-label" pointer-events="none"><text text-anchor="start" transform="translate(0,15)" font-family="sans-serif" font-size="10px" fill="#000" opacity="1">0.6</text><text text-anchor="middle" transform="translate(34.99999999999999,15)" font-family="sans-serif" font-size="10px" fill="#000" opacity="1">0.7</text><text text-anchor="middle" transform="translate(70.00000000000003,15)" font-family="sans-serif" font-size="10px" fill="#000" opacity="1">0.8</text><text text-anchor="middle" transform="translate(105.00000000000001,15)" font-family="sans-serif" font-size="10px" fill="#000" opacity="1">0.9</text><text text-anchor="middle" transform="translate(140,15)" font-family="sans-serif" font-size="10px" fill="#000" opacity="1">1.0</text><text text-anchor="middle" transform="translate(175.00000000000003,15)" font-family="sans-serif" font-size="10px" fill="#000" opacity="1">1.1</text><text text-anchor="middle" transform="translate(210,15)" font-family="sans-serif" font-size="10px" fill="#000" opacity="1">1.2</text><text text-anchor="middle" transform="translate(245.00000000000003,15)" font-family="sans-serif" font-size="10px" fill="#000" opacity="1">1.3</text><text text-anchor="middle" transform="translate(280,15)" font-family="sans-serif" font-size="10px" fill="#000" opacity="1">1.4</text><text text-anchor="middle" transform="translate(315,15)" font-family="sans-serif" font-size="10px" fill="#000" opacity="1">1.5</text><text text-anchor="middle" transform="translate(350,15)" font-family="sans-serif" font-size="10px" fill="#000" opacity="1">1.6</text><text text-anchor="middle" transform="translate(385.00000000000006,15)" font-family="sans-serif" font-size="10px" fill="#000" opacity="1">1.7</text><text text-anchor="middle" transform="translate(420.00000000000006,15)" font-family="sans-serif" font-size="10px" fill="#000" opacity="1">1.8</text><text text-anchor="middle" transform="translate(454.99999999999994,15)" font-family="sans-serif" font-size="10px" fill="#000" opacity="1">1.9</text><text text-anchor="middle" transform="translate(489.99999999999994,15)" font-family="sans-serif" font-size="10px" fill="#000" opacity="1">2.0</text><text text-anchor="middle" transform="translate(525,15)" font-family="sans-serif" font-size="10px" fill="#000" opacity="1">2.1</text><text text-anchor="middle" transform="translate(560,15)" font-family="sans-serif" font-size="10px" fill="#000" opacity="1">2.2</text><text text-anchor="middle" transform="translate(594.9999999999999,15)" font-family="sans-serif" font-size="10px" fill="#000" opacity="1">2.3</text><text text-anchor="middle" transform="translate(629.9999999999999,15)" font-family="sans-serif" font-size="10px" fill="#000" opacity="1">2.4</text><text text-anchor="middle" transform="translate(665,15)" font-family="sans-serif" font-size="10px" fill="#000" opacity="1">2.5</text><text text-anchor="end" transform="translate(700,15)" font-family="sans-serif" font-size="10px" fill="#000" opacity="1">2.6</text></g><g class="mark-rule role-axis-domain" pointer-events="none"><line transform="translate(0,0)" x2="700" y2="0" stroke="#888" stroke-width="1" opacity="1"></line></g><g class="mark-text role-axis-title" pointer-events="none"><text text-anchor="middle" transform="translate(350,30)" font-family="sans-serif" font-size="11px" font-weight="bold" fill="#000" opacity="1">Instantaneous reproduction number R(t), CI 0.975</text></g></g><path class="foreground" aria-hidden="true" d="" pointer-events="none" display="none"></path></g></g><g class="mark-group role-axis" role="graphics-symbol" aria-roledescription="axis" aria-label="Y-axis titled 'States' for a discrete scale with 27 values: AC, AL, AM, AP, BA, ending with TO"><g transform="translate(0.5,0.5)"><path class="background" aria-hidden="true" d="M0,0h0v0h0Z" pointer-events="none"></path><g><g class="mark-rule role-axis-tick" pointer-events="none"><line transform="translate(0,10)" x2="-5" y2="0" stroke="#888" stroke-width="1" opacity="1"></line><line transform="translate(0,30)" x2="-5" y2="0" stroke="#888" stroke-width="1" opacity="1"></line><line transform="translate(0,50)" x2="-5" y2="0" stroke="#888" stroke-width="1" opacity="1"></line><line transform="translate(0,70)" x2="-5" y2="0" stroke="#888" stroke-width="1" opacity="1"></line><line transform="translate(0,90)" x2="-5" y2="0" stroke="#888" stroke-width="1" opacity="1"></line><line transform="translate(0,110)" x2="-5" y2="0" stroke="#888" stroke-width="1" opacity="1"></line><line transform="translate(0,130)" x2="-5" y2="0" stroke="#888" stroke-width="1" opacity="1"></line><line transform="translate(0,150)" x2="-5" y2="0" stroke="#888" stroke-width="1" opacity="1"></line><line transform="translate(0,170)" x2="-5" y2="0" stroke="#888" stroke-width="1" opacity="1"></line><line transform="translate(0,190)" x2="-5" y2="0" stroke="#888" stroke-width="1" opacity="1"></line><line transform="translate(0,210)" x2="-5" y2="0" stroke="#888" stroke-width="1" opacity="1"></line><line transform="translate(0,230)" x2="-5" y2="0" stroke="#888" stroke-width="1" opacity="1"></line><line transform="translate(0,250)" x2="-5" y2="0" stroke="#888" stroke-width="1" opacity="1"></line><line transform="translate(0,270)" x2="-5" y2="0" stroke="#888" stroke-width="1" opacity="1"></line><line transform="translate(0,290)" x2="-5" y2="0" stroke="#888" stroke-width="1" opacity="1"></line><line transform="translate(0,310)" x2="-5" y2="0" stroke="#888" stroke-width="1" opacity="1"></line><line transform="translate(0,330)" x2="-5" y2="0" stroke="#888" stroke-width="1" opacity="1"></line><line transform="translate(0,350)" x2="-5" y2="0" stroke="#888" stroke-width="1" opacity="1"></line><line transform="translate(0,370)" x2="-5" y2="0" stroke="#888" stroke-width="1" opacity="1"></line><line transform="translate(0,390)" x2="-5" y2="0" stroke="#888" stroke-width="1" opacity="1"></line><line transform="translate(0,410)" x2="-5" y2="0" stroke="#888" stroke-width="1" opacity="1"></line><line transform="translate(0,430)" x2="-5" y2="0" stroke="#888" stroke-width="1" opacity="1"></line><line transform="translate(0,450)" x2="-5" y2="0" stroke="#888" stroke-width="1" opacity="1"></line><line transform="translate(0,470)" x2="-5" y2="0" stroke="#888" stroke-width="1" opacity="1"></line><line transform="translate(0,490)" x2="-5" y2="0" stroke="#888" stroke-width="1" opacity="1"></line><line transform="translate(0,510)" x2="-5" y2="0" stroke="#888" stroke-width="1" opacity="1"></line><line transform="translate(0,530)" x2="-5" y2="0" stroke="#888" stroke-width="1" opacity="1"></line></g><g class="mark-text role-axis-label" pointer-events="none"><text text-anchor="end" transform="translate(-7,12.5)" font-family="sans-serif" font-size="10px" fill="#000" opacity="1">AC</text><text text-anchor="end" transform="translate(-7,32.5)" font-family="sans-serif" font-size="10px" fill="#000" opacity="1">AL</text><text text-anchor="end" transform="translate(-7,52.5)" font-family="sans-serif" font-size="10px" fill="#000" opacity="1">AM</text><text text-anchor="end" transform="translate(-7,72.5)" font-family="sans-serif" font-size="10px" fill="#000" opacity="1">AP</text><text text-anchor="end" transform="translate(-7,92.5)" font-family="sans-serif" font-size="10px" fill="#000" opacity="1">BA</text><text text-anchor="end" transform="translate(-7,112.5)" font-family="sans-serif" font-size="10px" fill="#000" opacity="1">CE</text><text text-anchor="end" transform="translate(-7,132.5)" font-family="sans-serif" font-size="10px" fill="#000" opacity="1">DF</text><text text-anchor="end" transform="translate(-7,152.5)" font-family="sans-serif" font-size="10px" fill="#000" opacity="1">ES</text><text text-anchor="end" transform="translate(-7,172.5)" font-family="sans-serif" font-size="10px" fill="#000" opacity="1">GO</text><text text-anchor="end" transform="translate(-7,192.5)" font-family="sans-serif" font-size="10px" fill="#000" opacity="1">MA</text><text text-anchor="end" transform="translate(-7,212.5)" font-family="sans-serif" font-size="10px" fill="#000" opacity="1">MG</text><text text-anchor="end" transform="translate(-7,232.5)" font-family="sans-serif" font-size="10px" fill="#000" opacity="1">MS</text><text text-anchor="end" transform="translate(-7,252.5)" font-family="sans-serif" font-size="10px" fill="#000" opacity="1">MT</text><text text-anchor="end" transform="translate(-7,272.5)" font-family="sans-serif" font-size="10px" fill="#000" opacity="1">PA</text><text text-anchor="end" transform="translate(-7,292.5)" font-family="sans-serif" font-size="10px" fill="#000" opacity="1">PB</text><text text-anchor="end" transform="translate(-7,312.5)" font-family="sans-serif" font-size="10px" fill="#000" opacity="1">PE</text><text text-anchor="end" transform="translate(-7,332.5)" font-family="sans-serif" font-size="10px" fill="#000" opacity="1">PI</text><text text-anchor="end" transform="translate(-7,352.5)" font-family="sans-serif" font-size="10px" fill="#000" opacity="1">PR</text><text text-anchor="end" transform="translate(-7,372.5)" font-family="sans-serif" font-size="10px" fill="#000" opacity="1">RJ</text><text text-anchor="end" transform="translate(-7,392.5)" font-family="sans-serif" font-size="10px" fill="#000" opacity="1">RN</text><text text-anchor="end" transform="translate(-7,412.5)" font-family="sans-serif" font-size="10px" fill="#000" opacity="1">RO</text><text text-anchor="end" transform="translate(-7,432.5)" font-family="sans-serif" font-size="10px" fill="#000" opacity="1">RR</text><text text-anchor="end" transform="translate(-7,452.5)" font-family="sans-serif" font-size="10px" fill="#000" opacity="1">RS</text><text text-anchor="end" transform="translate(-7,472.5)" font-family="sans-serif" font-size="10px" fill="#000" opacity="1">SC</text><text text-anchor="end" transform="translate(-7,492.5)" font-family="sans-serif" font-size="10px" fill="#000" opacity="1">SE</text><text text-anchor="end" transform="translate(-7,512.5)" font-family="sans-serif" font-size="10px" fill="#000" opacity="1">SP</text><text text-anchor="end" transform="translate(-7,532.5)" font-family="sans-serif" font-size="10px" fill="#000" opacity="1">TO</text></g><g class="mark-rule role-axis-domain" pointer-events="none"><line transform="translate(0,0)" x2="0" y2="540" stroke="#888" stroke-width="1" opacity="1"></line></g><g class="mark-text role-axis-title" pointer-events="none"><text text-anchor="middle" transform="translate(-27,270) rotate(-90) translate(0,-2)" font-family="sans-serif" font-size="11px" font-weight="bold" fill="#000" opacity="1">States</text></g></g><path class="foreground" aria-hidden="true" d="" pointer-events="none" display="none"></path></g></g><g class="mark-symbol role-mark layer_0_marks" role="graphics-object" aria-roledescription="symbol mark container"><path aria-label="Instantaneous reproduction number R(t): 0.811027874772; States: RJ" role="graphics-symbol" aria-roledescription="point" transform="translate(73.85975617004749,370)" d="M2.7386127875258306,0A2.7386127875258306,2.7386127875258306,0,1,1,-2.7386127875258306,0A2.7386127875258306,2.7386127875258306,0,1,1,2.7386127875258306,0" stroke="#4c78a8" stroke-width="2" opacity="0.7"></path><path aria-label="Instantaneous reproduction number R(t): 0.876676513147; States: MA" role="graphics-symbol" aria-roledescription="point" transform="translate(96.83677960127713,190)" d="M2.7386127875258306,0A2.7386127875258306,2.7386127875258306,0,1,1,-2.7386127875258306,0A2.7386127875258306,2.7386127875258306,0,1,1,2.7386127875258306,0" stroke="#4c78a8" stroke-width="2" opacity="0.7"></path><path aria-label="Instantaneous reproduction number R(t): 0.888728725849; States: AM" role="graphics-symbol" aria-roledescription="point" transform="translate(101.05505404725666,50)" d="M2.7386127875258306,0A2.7386127875258306,2.7386127875258306,0,1,1,-2.7386127875258306,0A2.7386127875258306,2.7386127875258306,0,1,1,2.7386127875258306,0" stroke="#4c78a8" stroke-width="2" opacity="0.7"></path><path aria-label="Instantaneous reproduction number R(t): 0.902105416704; States: AL" role="graphics-symbol" aria-roledescription="point" transform="translate(105.73689584643463,30)" d="M2.7386127875258306,0A2.7386127875258306,2.7386127875258306,0,1,1,-2.7386127875258306,0A2.7386127875258306,2.7386127875258306,0,1,1,2.7386127875258306,0" stroke="#4c78a8" stroke-width="2" opacity="0.7"></path><path aria-label="Instantaneous reproduction number R(t): 0.905814979356; States: RN" role="graphics-symbol" aria-roledescription="point" transform="translate(107.03524277450678,390)" d="M2.7386127875258306,0A2.7386127875258306,2.7386127875258306,0,1,1,-2.7386127875258306,0A2.7386127875258306,2.7386127875258306,0,1,1,2.7386127875258306,0" stroke="#4c78a8" stroke-width="2" opacity="0.7"></path><path aria-label="Instantaneous reproduction number R(t): 0.906609162128; States: AP" role="graphics-symbol" aria-roledescription="point" transform="translate(107.3132067446756,70)" d="M2.7386127875258306,0A2.7386127875258306,2.7386127875258306,0,1,1,-2.7386127875258306,0A2.7386127875258306,2.7386127875258306,0,1,1,2.7386127875258306,0" stroke="#4c78a8" stroke-width="2" opacity="0.7"></path><path aria-label="Instantaneous reproduction number R(t): 0.912540938904; States: PB" role="graphics-symbol" aria-roledescription="point" transform="translate(109.38932861641979,290)" d="M2.7386127875258306,0A2.7386127875258306,2.7386127875258306,0,1,1,-2.7386127875258306,0A2.7386127875258306,2.7386127875258306,0,1,1,2.7386127875258306,0" stroke="#4c78a8" stroke-width="2" opacity="0.7"></path><path aria-label="Instantaneous reproduction number R(t): 0.919376704601; States: ES" role="graphics-symbol" aria-roledescription="point" transform="translate(111.78184661047877,150)" d="M2.7386127875258306,0A2.7386127875258306,2.7386127875258306,0,1,1,-2.7386127875258306,0A2.7386127875258306,2.7386127875258306,0,1,1,2.7386127875258306,0" stroke="#4c78a8" stroke-width="2" opacity="0.7"></path><path aria-label="Instantaneous reproduction number R(t): 0.934329982596; States: PE" role="graphics-symbol" aria-roledescription="point" transform="translate(117.01549390847484,310)" d="M2.7386127875258306,0A2.7386127875258306,2.7386127875258306,0,1,1,-2.7386127875258306,0A2.7386127875258306,2.7386127875258306,0,1,1,2.7386127875258306,0" stroke="#4c78a8" stroke-width="2" opacity="0.7"></path><path aria-label="Instantaneous reproduction number R(t): 0.966566667371; States: AC" role="graphics-symbol" aria-roledescription="point" transform="translate(128.29833357990947,10)" d="M2.7386127875258306,0A2.7386127875258306,2.7386127875258306,0,1,1,-2.7386127875258306,0A2.7386127875258306,2.7386127875258306,0,1,1,2.7386127875258306,0" stroke="#4c78a8" stroke-width="2" opacity="0.7"></path><path aria-label="Instantaneous reproduction number R(t): 0.967718475725; States: CE" role="graphics-symbol" aria-roledescription="point" transform="translate(128.7014665037202,110)" d="M2.7386127875258306,0A2.7386127875258306,2.7386127875258306,0,1,1,-2.7386127875258306,0A2.7386127875258306,2.7386127875258306,0,1,1,2.7386127875258306,0" stroke="#4c78a8" stroke-width="2" opacity="0.7"></path><path aria-label="Instantaneous reproduction number R(t): 1.01305629845; States: PA" role="graphics-symbol" aria-roledescription="point" transform="translate(144.56970445770628,270)" d="M2.7386127875258306,0A2.7386127875258306,2.7386127875258306,0,1,1,-2.7386127875258306,0A2.7386127875258306,2.7386127875258306,0,1,1,2.7386127875258306,0" stroke="#4c78a8" stroke-width="2" opacity="0.7"></path><path aria-label="Instantaneous reproduction number R(t): 1.06655438845; States: DF" role="graphics-symbol" aria-roledescription="point" transform="translate(163.2940359576235,130)" d="M2.7386127875258306,0A2.7386127875258306,2.7386127875258306,0,1,1,-2.7386127875258306,0A2.7386127875258306,2.7386127875258306,0,1,1,2.7386127875258306,0" stroke="#4c78a8" stroke-width="2" opacity="0.7"></path><path aria-label="Instantaneous reproduction number R(t): 1.06986905316; States: GO" role="graphics-symbol" aria-roledescription="point" transform="translate(164.45416860743904,170)" d="M2.7386127875258306,0A2.7386127875258306,2.7386127875258306,0,1,1,-2.7386127875258306,0A2.7386127875258306,2.7386127875258306,0,1,1,2.7386127875258306,0" stroke="#4c78a8" stroke-width="2" opacity="0.7"></path><path aria-label="Instantaneous reproduction number R(t): 1.12752384813; States: PI" role="graphics-symbol" aria-roledescription="point" transform="translate(184.63334684407062,330)" d="M2.7386127875258306,0A2.7386127875258306,2.7386127875258306,0,1,1,-2.7386127875258306,0A2.7386127875258306,2.7386127875258306,0,1,1,2.7386127875258306,0" stroke="#4c78a8" stroke-width="2" opacity="0.7"></path><path aria-label="Instantaneous reproduction number R(t): 1.12839487848; States: SP" role="graphics-symbol" aria-roledescription="point" transform="translate(184.9382074693856,510)" d="M2.7386127875258306,0A2.7386127875258306,2.7386127875258306,0,1,1,-2.7386127875258306,0A2.7386127875258306,2.7386127875258306,0,1,1,2.7386127875258306,0" stroke="#4c78a8" stroke-width="2" opacity="0.7"></path><path aria-label="Instantaneous reproduction number R(t): 1.14213877362; States: SE" role="graphics-symbol" aria-roledescription="point" transform="translate(189.74857076634328,490)" d="M2.7386127875258306,0A2.7386127875258306,2.7386127875258306,0,1,1,-2.7386127875258306,0A2.7386127875258306,2.7386127875258306,0,1,1,2.7386127875258306,0" stroke="#4c78a8" stroke-width="2" opacity="0.7"></path><path aria-label="Instantaneous reproduction number R(t): 1.14304939661; States: RO" role="graphics-symbol" aria-roledescription="point" transform="translate(190.06728881492506,410)" d="M2.7386127875258306,0A2.7386127875258306,2.7386127875258306,0,1,1,-2.7386127875258306,0A2.7386127875258306,2.7386127875258306,0,1,1,2.7386127875258306,0" stroke="#4c78a8" stroke-width="2" opacity="0.7"></path><path aria-label="Instantaneous reproduction number R(t): 1.20040232317; States: PR" role="graphics-symbol" aria-roledescription="point" transform="translate(210.14081310864748,350)" d="M2.7386127875258306,0A2.7386127875258306,2.7386127875258306,0,1,1,-2.7386127875258306,0A2.7386127875258306,2.7386127875258306,0,1,1,2.7386127875258306,0" stroke="#4c78a8" stroke-width="2" opacity="0.7"></path><path aria-label="Instantaneous reproduction number R(t): 1.20662061145; States: TO" role="graphics-symbol" aria-roledescription="point" transform="translate(212.3172140079444,530)" d="M2.7386127875258306,0A2.7386127875258306,2.7386127875258306,0,1,1,-2.7386127875258306,0A2.7386127875258306,2.7386127875258306,0,1,1,2.7386127875258306,0" stroke="#4c78a8" stroke-width="2" opacity="0.7"></path><path aria-label="Instantaneous reproduction number R(t): 1.20826164228; States: MS" role="graphics-symbol" aria-roledescription="point" transform="translate(212.8915747966042,230)" d="M2.7386127875258306,0A2.7386127875258306,2.7386127875258306,0,1,1,-2.7386127875258306,0A2.7386127875258306,2.7386127875258306,0,1,1,2.7386127875258306,0" stroke="#4c78a8" stroke-width="2" opacity="0.7"></path><path aria-label="Instantaneous reproduction number R(t): 1.24446240177; States: MT" role="graphics-symbol" aria-roledescription="point" transform="translate(225.5618406184721,250)" d="M2.7386127875258306,0A2.7386127875258306,2.7386127875258306,0,1,1,-2.7386127875258306,0A2.7386127875258306,2.7386127875258306,0,1,1,2.7386127875258306,0" stroke="#4c78a8" stroke-width="2" opacity="0.7"></path><path aria-label="Instantaneous reproduction number R(t): 1.27763548941; States: RS" role="graphics-symbol" aria-roledescription="point" transform="translate(237.1724212926155,450)" d="M2.7386127875258306,0A2.7386127875258306,2.7386127875258306,0,1,1,-2.7386127875258306,0A2.7386127875258306,2.7386127875258306,0,1,1,2.7386127875258306,0" stroke="#4c78a8" stroke-width="2" opacity="0.7"></path><path aria-label="Instantaneous reproduction number R(t): 1.39517276355; States: SC" role="graphics-symbol" aria-roledescription="point" transform="translate(278.3104672407921,470)" d="M2.7386127875258306,0A2.7386127875258306,2.7386127875258306,0,1,1,-2.7386127875258306,0A2.7386127875258306,2.7386127875258306,0,1,1,2.7386127875258306,0" stroke="#4c78a8" stroke-width="2" opacity="0.7"></path><path aria-label="Instantaneous reproduction number R(t): 1.77468797209; States: MG" role="graphics-symbol" aria-roledescription="point" transform="translate(411.14079023166744,210)" d="M2.7386127875258306,0A2.7386127875258306,2.7386127875258306,0,1,1,-2.7386127875258306,0A2.7386127875258306,2.7386127875258306,0,1,1,2.7386127875258306,0" stroke="#4c78a8" stroke-width="2" opacity="0.7"></path><path aria-label="Instantaneous reproduction number R(t): 1.85498154601; States: RR" role="graphics-symbol" aria-roledescription="point" transform="translate(439.24354110194656,430)" d="M2.7386127875258306,0A2.7386127875258306,2.7386127875258306,0,1,1,-2.7386127875258306,0A2.7386127875258306,2.7386127875258306,0,1,1,2.7386127875258306,0" stroke="#4c78a8" stroke-width="2" opacity="0.7"></path><path aria-label="Instantaneous reproduction number R(t): 1.90565363269; States: BA" role="graphics-symbol" aria-roledescription="point" transform="translate(456.978771440856,90)" d="M2.7386127875258306,0A2.7386127875258306,2.7386127875258306,0,1,1,-2.7386127875258306,0A2.7386127875258306,2.7386127875258306,0,1,1,2.7386127875258306,0" stroke="#4c78a8" stroke-width="2" opacity="0.7"></path></g><g class="mark-rule role-mark layer_1_marks" role="graphics-object" aria-roledescription="rule mark container"><line aria-label="a: 1" role="graphics-symbol" aria-roledescription="rule mark" transform="translate(140,0)" x2="0" y2="540" stroke="black" stroke-width="0.2"></line><line aria-label="a: 1" role="graphics-symbol" aria-roledescription="rule mark" transform="translate(140,0)" x2="0" y2="540" stroke="black" stroke-width="0.2"></line><line aria-label="a: 1" role="graphics-symbol" aria-roledescription="rule mark" transform="translate(140,0)" x2="0" y2="540" stroke="black" stroke-width="0.2"></line><line aria-label="a: 1" role="graphics-symbol" aria-roledescription="rule mark" transform="translate(140,0)" x2="0" y2="540" stroke="black" stroke-width="0.2"></line><line aria-label="a: 1" role="graphics-symbol" aria-roledescription="rule mark" transform="translate(140,0)" x2="0" y2="540" stroke="black" stroke-width="0.2"></line><line aria-label="a: 1" role="graphics-symbol" aria-roledescription="rule mark" transform="translate(140,0)" x2="0" y2="540" stroke="black" stroke-width="0.2"></line><line aria-label="a: 1" role="graphics-symbol" aria-roledescription="rule mark" transform="translate(140,0)" x2="0" y2="540" stroke="black" stroke-width="0.2"></line><line aria-label="a: 1" role="graphics-symbol" aria-roledescription="rule mark" transform="translate(140,0)" x2="0" y2="540" stroke="black" stroke-width="0.2"></line><line aria-label="a: 1" role="graphics-symbol" aria-roledescription="rule mark" transform="translate(140,0)" x2="0" y2="540" stroke="black" stroke-width="0.2"></line><line aria-label="a: 1" role="graphics-symbol" aria-roledescription="rule mark" transform="translate(140,0)" x2="0" y2="540" stroke="black" stroke-width="0.2"></line><line aria-label="a: 1" role="graphics-symbol" aria-roledescription="rule mark" transform="translate(140,0)" x2="0" y2="540" stroke="black" stroke-width="0.2"></line><line aria-label="a: 1" role="graphics-symbol" aria-roledescription="rule mark" transform="translate(140,0)" x2="0" y2="540" stroke="black" stroke-width="0.2"></line><line aria-label="a: 1" role="graphics-symbol" aria-roledescription="rule mark" transform="translate(140,0)" x2="0" y2="540" stroke="black" stroke-width="0.2"></line><line aria-label="a: 1" role="graphics-symbol" aria-roledescription="rule mark" transform="translate(140,0)" x2="0" y2="540" stroke="black" stroke-width="0.2"></line><line aria-label="a: 1" role="graphics-symbol" aria-roledescription="rule mark" transform="translate(140,0)" x2="0" y2="540" stroke="black" stroke-width="0.2"></line><line aria-label="a: 1" role="graphics-symbol" aria-roledescription="rule mark" transform="translate(140,0)" x2="0" y2="540" stroke="black" stroke-width="0.2"></line><line aria-label="a: 1" role="graphics-symbol" aria-roledescription="rule mark" transform="translate(140,0)" x2="0" y2="540" stroke="black" stroke-width="0.2"></line><line aria-label="a: 1" role="graphics-symbol" aria-roledescription="rule mark" transform="translate(140,0)" x2="0" y2="540" stroke="black" stroke-width="0.2"></line><line aria-label="a: 1" role="graphics-symbol" aria-roledescription="rule mark" transform="translate(140,0)" x2="0" y2="540" stroke="black" stroke-width="0.2"></line><line aria-label="a: 1" role="graphics-symbol" aria-roledescription="rule mark" transform="translate(140,0)" x2="0" y2="540" stroke="black" stroke-width="0.2"></line><line aria-label="a: 1" role="graphics-symbol" aria-roledescription="rule mark" transform="translate(140,0)" x2="0" y2="540" stroke="black" stroke-width="0.2"></line><line aria-label="a: 1" role="graphics-symbol" aria-roledescription="rule mark" transform="translate(140,0)" x2="0" y2="540" stroke="black" stroke-width="0.2"></line><line aria-label="a: 1" role="graphics-symbol" aria-roledescription="rule mark" transform="translate(140,0)" x2="0" y2="540" stroke="black" stroke-width="0.2"></line><line aria-label="a: 1" role="graphics-symbol" aria-roledescription="rule mark" transform="translate(140,0)" x2="0" y2="540" stroke="black" stroke-width="0.2"></line><line aria-label="a: 1" role="graphics-symbol" aria-roledescription="rule mark" transform="translate(140,0)" x2="0" y2="540" stroke="black" stroke-width="0.2"></line><line aria-label="a: 1" role="graphics-symbol" aria-roledescription="rule mark" transform="translate(140,0)" x2="0" y2="540" stroke="black" stroke-width="0.2"></line><line aria-label="a: 1" role="graphics-symbol" aria-roledescription="rule mark" transform="translate(140,0)" x2="0" y2="540" stroke="black" stroke-width="0.2"></line></g><g class="mark-rule role-mark layer_2_marks" role="graphics-object" aria-roledescription="rule mark container"><line aria-label="CI 0.975: 0.785110332373; upper_Quantile.0.025(R): 0.835059111501; index: RJ; Quantile.0.975(R): 0.835059111501; Quantile.0.025(R): 0.785110332373" role="graphics-symbol" aria-roledescription="errorbar" transform="translate(64.78861633050008,370)" x2="17.4820726950132" y2="0" stroke="blue" stroke-width="0.6"></line><line aria-label="CI 0.975: 0.835352521351; upper_Quantile.0.025(R): 0.920647355527; index: MA; Quantile.0.975(R): 0.920647355527; Quantile.0.025(R): 0.835352521351" role="graphics-symbol" aria-roledescription="errorbar" transform="translate(82.37338247284349,190)" x2="29.85319196172638" y2="0" stroke="blue" stroke-width="0.6"></line><line aria-label="CI 0.975: 0.864867345817; upper_Quantile.0.025(R): 0.913598342736; index: AM; Quantile.0.975(R): 0.913598342736; Quantile.0.025(R): 0.864867345817" role="graphics-symbol" aria-roledescription="errorbar" transform="translate(92.70357103611511,50)" x2="17.05584892162068" y2="0" stroke="blue" stroke-width="0.6"></line><line aria-label="CI 0.975: 0.874464616543; upper_Quantile.0.025(R): 0.932678880011; index: AL; Quantile.0.975(R): 0.932678880011; Quantile.0.025(R): 0.874464616543" role="graphics-symbol" aria-roledescription="errorbar" transform="translate(96.06261578997956,30)" x2="20.37499221388194" y2="0" stroke="blue" stroke-width="0.6"></line><line aria-label="CI 0.975: 0.810617716493; upper_Quantile.0.025(R): 1.00702009328; index: RN; Quantile.0.975(R): 1.00702009328; Quantile.0.025(R): 0.810617716493" role="graphics-symbol" aria-roledescription="errorbar" transform="translate(73.71620077240199,390)" x2="68.74083187421569" y2="0" stroke="blue" stroke-width="0.6"></line><line aria-label="CI 0.975: 0.839621964037; upper_Quantile.0.025(R): 0.983154028225; index: AP; Quantile.0.975(R): 0.983154028225; Quantile.0.025(R): 0.839621964037" role="graphics-symbol" aria-roledescription="errorbar" transform="translate(83.86768741307402,70)" x2="50.23622246553022" y2="0" stroke="blue" stroke-width="0.6"></line><line aria-label="CI 0.975: 0.887561948703; upper_Quantile.0.025(R): 0.939983576565; index: PB; Quantile.0.975(R): 0.939983576565; Quantile.0.025(R): 0.887561948703" role="graphics-symbol" aria-roledescription="errorbar" transform="translate(100.64668204613832,290)" x2="18.347569751598698" y2="0" stroke="blue" stroke-width="0.6"></line><line aria-label="CI 0.975: 0.893902371699; upper_Quantile.0.025(R): 0.945359748399; index: ES; Quantile.0.975(R): 0.945359748399; Quantile.0.025(R): 0.893902371699" role="graphics-symbol" aria-roledescription="errorbar" transform="translate(102.86583009471971,150)" x2="18.0100818450219" y2="0" stroke="blue" stroke-width="0.6"></line><line aria-label="CI 0.975: 0.903560217405; upper_Quantile.0.025(R): 0.964360332946; index: PE; Quantile.0.975(R): 0.964360332946; Quantile.0.025(R): 0.903560217405" role="graphics-symbol" aria-roledescription="errorbar" transform="translate(106.24607609179117,310)" x2="21.280040439263573" y2="0" stroke="blue" stroke-width="0.6"></line><line aria-label="CI 0.975: 0.919051607848; upper_Quantile.0.025(R): 1.01573384018; index: AC; Quantile.0.975(R): 1.01573384018; Quantile.0.025(R): 0.919051607848" role="graphics-symbol" aria-roledescription="errorbar" transform="translate(111.66806274695679,10)" x2="33.83878131588267" y2="0" stroke="blue" stroke-width="0.6"></line><line aria-label="CI 0.975: 0.946427307456; upper_Quantile.0.025(R): 0.988057967244; index: CE; Quantile.0.975(R): 0.988057967244; Quantile.0.025(R): 0.946427307456" role="graphics-symbol" aria-roledescription="errorbar" transform="translate(121.24955760976431,110)" x2="14.570730925521445" y2="0" stroke="blue" stroke-width="0.6"></line><line aria-label="CI 0.975: 0.981296891431; upper_Quantile.0.025(R): 1.04947694124; index: PA; Quantile.0.975(R): 1.04947694124; Quantile.0.025(R): 0.981296891431" role="graphics-symbol" aria-roledescription="errorbar" transform="translate(133.4539120007135,270)" x2="23.863017433023458" y2="0" stroke="blue" stroke-width="0.6"></line><line aria-label="CI 0.975: 1.03453834629; upper_Quantile.0.025(R): 1.10170801807; index: DF; Quantile.0.975(R): 1.10170801807; Quantile.0.025(R): 1.03453834629" role="graphics-symbol" aria-roledescription="errorbar" transform="translate(152.08842120286064,130)" x2="23.509385119897615" y2="0" stroke="blue" stroke-width="0.6"></line><line aria-label="CI 0.975: 1.02632610379; upper_Quantile.0.025(R): 1.11852528497; index: GO; Quantile.0.975(R): 1.11852528497; Quantile.0.025(R): 1.02632610379" role="graphics-symbol" aria-roledescription="errorbar" transform="translate(149.21413632797248,170)" x2="32.26971341038231" y2="0" stroke="blue" stroke-width="0.6"></line><line aria-label="CI 0.975: 1.03809648712; upper_Quantile.0.025(R): 1.21382411326; index: PI; Quantile.0.975(R): 1.21382411326; Quantile.0.025(R): 1.03809648712" role="graphics-symbol" aria-roledescription="errorbar" transform="translate(153.33377049137744,330)" x2="61.50466914816985" y2="0" stroke="blue" stroke-width="0.6"></line><line aria-label="CI 0.975: 1.07541267945; upper_Quantile.0.025(R): 1.20097003303; index: SP; Quantile.0.975(R): 1.20097003303; Quantile.0.025(R): 1.07541267945" role="graphics-symbol" aria-roledescription="errorbar" transform="translate(166.39443780608235,510)" x2="43.94507375297508" y2="0" stroke="blue" stroke-width="0.6"></line><line aria-label="CI 0.975: 1.0531872255; upper_Quantile.0.025(R): 1.21320270694; index: SE; Quantile.0.975(R): 1.21320270694; Quantile.0.025(R): 1.0531872255" role="graphics-symbol" aria-roledescription="errorbar" transform="translate(158.6155289252667,490)" x2="56.0054185047029" y2="0" stroke="blue" stroke-width="0.6"></line><line aria-label="CI 0.975: 1.03729783453; upper_Quantile.0.025(R): 1.24180065818; index: RO; Quantile.0.975(R): 1.24180065818; Quantile.0.025(R): 1.03729783453" role="graphics-symbol" aria-roledescription="errorbar" transform="translate(153.05424208536974,410)" x2="71.5759882765314" y2="0" stroke="blue" stroke-width="0.6"></line><line aria-label="CI 0.975: 1.12754023241; upper_Quantile.0.025(R): 1.28177336805; index: PR; Quantile.0.975(R): 1.28177336805; Quantile.0.025(R): 1.12754023241" role="graphics-symbol" aria-roledescription="errorbar" transform="translate(184.6390813431124,350)" x2="53.981597475590206" y2="0" stroke="blue" stroke-width="0.6"></line><line aria-label="CI 0.975: 1.11545937579; upper_Quantile.0.025(R): 1.30401633806; index: TO; Quantile.0.975(R): 1.30401633806; Quantile.0.025(R): 1.11545937579" role="graphics-symbol" aria-roledescription="errorbar" transform="translate(180.4107815250081,530)" x2="65.99493679504769" y2="0" stroke="blue" stroke-width="0.6"></line><line aria-label="CI 0.975: 1.12338905881; upper_Quantile.0.025(R): 1.3002454507; index: MS; Quantile.0.975(R): 1.3002454507; Quantile.0.025(R): 1.12338905881" role="graphics-symbol" aria-roledescription="errorbar" transform="translate(183.1861705847781,230)" x2="61.899737160444374" y2="0" stroke="blue" stroke-width="0.6"></line><line aria-label="CI 0.975: 1.15638695691; upper_Quantile.0.025(R): 1.34410927624; index: MT; Quantile.0.975(R): 1.34410927624; Quantile.0.025(R): 1.15638695691" role="graphics-symbol" aria-roledescription="errorbar" transform="translate(194.73543491947993,250)" x2="65.70281176367268" y2="0" stroke="blue" stroke-width="0.6"></line><line aria-label="CI 0.975: 1.19922518166; upper_Quantile.0.025(R): 1.35197438658; index: RS; Quantile.0.975(R): 1.35197438658; Quantile.0.025(R): 1.19922518166" role="graphics-symbol" aria-roledescription="errorbar" transform="translate(209.72881357963553,450)" x2="53.462221723948915" y2="0" stroke="blue" stroke-width="0.6"></line><line aria-label="CI 0.975: 1.22569571785; upper_Quantile.0.025(R): 1.60299039561; index: SC; Quantile.0.975(R): 1.60299039561; Quantile.0.025(R): 1.22569571785" role="graphics-symbol" aria-roledescription="errorbar" transform="translate(218.99350124760807,470)" x2="132.05313721564832" y2="0" stroke="blue" stroke-width="0.6"></line><line aria-label="CI 0.975: 1.51566706272; upper_Quantile.0.025(R): 1.9574387928; index: MG; Quantile.0.975(R): 1.9574387928; Quantile.0.025(R): 1.51566706272" role="graphics-symbol" aria-roledescription="errorbar" transform="translate(320.48347195213734,210)" x2="154.62010552756703" y2="0" stroke="blue" stroke-width="0.6"></line><line aria-label="CI 0.975: 1.40251316874; upper_Quantile.0.025(R): 2.54165353876; index: RR; Quantile.0.975(R): 2.54165353876; Quantile.0.025(R): 1.40251316874" role="graphics-symbol" aria-roledescription="errorbar" transform="translate(280.87960905926496,430)" x2="398.6991295053804" y2="0" stroke="blue" stroke-width="0.6"></line><line aria-label="CI 0.975: 1.76955468246; upper_Quantile.0.025(R): 2.0443910473; index: BA; Quantile.0.975(R): 2.0443910473; Quantile.0.025(R): 1.76955468246" role="graphics-symbol" aria-roledescription="errorbar" transform="translate(409.3441388610579,90)" x2="96.19272769406689" y2="0" stroke="blue" stroke-width="0.6"></line></g><g class="mark-group role-title"><g transform="translate(350,-17.2)"><path class="background" aria-hidden="true" d="M0,0h0v0h0Z" pointer-events="none"></path><g><g class="mark-text role-title-text" role="graphics-symbol" aria-roledescription="title" aria-label="Title text 'Instantaneous reproduction number estimate for all states in Brazil'" pointer-events="none"><text text-anchor="middle" transform="translate(0,10)" font-family="sans-serif" font-size="13px" font-weight="bold" fill="#000" opacity="1">Instantaneous reproduction number estimate for all states in Brazil</text></g></g><path class="foreground" aria-hidden="true" d="" pointer-events="none" display="none"></path></g></g></g><path class="foreground" aria-hidden="true" d="" display="none"></path></g></g></g></svg>