<svg class="marks" width="749" height="600" viewBox="0 0 749 600" version="1.1" xmlns="http://www.w3.org/2000/svg" xmlns:xlink="http://www.w3.org/1999/xlink"><rect width="749" height="600" fill="white"></rect><g fill="none" stroke-miterlimit="10" transform="translate(43,23)"><g class="mark-group role-frame root" role="graphics-object" aria-roledescription="group mark container"><g transform="translate(0,0)"><path class="background" aria-hidden="true" d="M0.5,0.5h700v540h-700Z"></path><g><g class="mark-group role-axis" aria-hidden="true"><g transform="translate(0.5,0.5)"><path class="background" aria-hidden="true" d="M0,0h0v0h0Z" pointer-events="none"></path><g><g class="mark-rule role-axis-grid" pointer-events="none"><line transform="translate(0,10)" x2="700" y2="0" stroke="#ddd" stroke-width="1" opacity="1"></line><line transform="translate(0,30)" x2="700" y2="0" stroke="#ddd" stroke-width="1" opacity="1"></line><line transform="translate(0,50)" x2="700" y2="0" stroke="#ddd" stroke-width="1" opacity="1"></line><line transform="translate(0,70)" x2="700" y2="0" stroke="#ddd" stroke-width="1" opacity="1"></line><line transform="translate(0,90)" x2="700" y2="0" stroke="#ddd" stroke-width="1" opacity="1"></line><line transform="translate(0,110)" x2="700" y2="0" stroke="#ddd" stroke-width="1" opacity="1"></line><line transform="translate(0,130)" x2="700" y2="0" stroke="#ddd" stroke-width="1" opacity="1"></line><line transform="translate(0,150)" x2="700" y2="0" stroke="#ddd" stroke-width="1" opacity="1"></line><line transform="translate(0,170)" x2="700" y2="0" stroke="#ddd" stroke-width="1" opacity="1"></line><line transform="translate(0,190)" x2="700" y2="0" stroke="#ddd" stroke-width="1" opacity="1"></line><line transform="translate(0,210)" x2="700" y2="0" stroke="#ddd" stroke-width="1" opacity="1"></line><line transform="translate(0,230)" x2="700" y2="0" stroke="#ddd" stroke-width="1" opacity="1"></line><line transform="translate(0,250)" x2="700" y2="0" stroke="#ddd" stroke-width="1" opacity="1"></line><line transform="translate(0,270)" x2="700" y2="0" stroke="#ddd" stroke-width="1" opacity="1"></line><line transform="translate(0,290)" x2="700" y2="0" stroke="#ddd" stroke-width="1" opacity="1"></line><line transform="translate(0,310)" x2="700" y2="0" stroke="#ddd" stroke-width="1" opacity="1"></line><line transform="translate(0,330)" x2="700" y2="0" stroke="#ddd" stroke-width="1" opacity="1"></line><line transform="translate(0,350)" x2="700" y2="0" stroke="#ddd" stroke-width="1" opacity="1"></line><line transform="translate(0,370)" x2="700" y2="0" stroke="#ddd" stroke-width="1" opacity="1"></line><line transform="translate(0,390)" x2="700" y2="0" stroke="#ddd" stroke-width="1" opacity="1"></line><line transform="translate(0,410)" x2="700" y2="0" stroke="#ddd" stroke-width="1" opacity="1"></line><line transform="translate(0,430)" x2="700" y2="0" stroke="#ddd" stroke-width="1" opacity="1"></line><line transform="translate(0,450)" x2="700" y2="0" stroke="#ddd" stroke-width="1" opacity="1"></line><line transform="translate(0,470)" x2="700" y2="0" stroke="#ddd" stroke-width="1" opacity="1"></line><line transform="translate(0,490)" x2="700" y2="0" stroke="#ddd" stroke-width="1" opacity="1"></line><line transform="translate(0,510)" x2="700" y2="0" stroke="#ddd" stroke-width="1" opacity="1"></line><line transform="translate(0,530)" x2="700" y2="0" stroke="#ddd" stroke-width="1" opacity="1"></line></g></g><path class="foreground" aria-hidden="true" d="" pointer-events="none" display="none"></path></g></g><g class="mark-group role-axis" role="graphics-symbol" aria-roledescription="axis" aria-label="X-axis titled 'Instantaneous reproduction number R(t), CI 0.975' for a linear scale with values from 0.7 to 1.3"><g transform="translate(0.5,540.5)"><path class="background" aria-hidden="true" d="M0,0h0v0h0Z" pointer-events="none"></path><g><g class="mark-rule role-axis-tick" pointer-events="none"><line transform="translate(0,0)" x2="0" y2="5" stroke="#888" stroke-width="1" opacity="1"></line><line transform="translate(58,0)" x2="0" y2="5" stroke="#888" stroke-width="1" opacity="1"></line><line transform="translate(117,0)" x2="0" y2="5" stroke="#888" stroke-width="1" opacity="1"></line><line transform="translate(175,0)" x2="0" y2="5" stroke="#888" stroke-width="1" opacity="1"></line><line transform="translate(233,0)" x2="0" y2="5" stroke="#888" stroke-width="1" opacity="1"></line><line transform="translate(292,0)" x2="0" y2="5" stroke="#888" stroke-width="1" opacity="1"></line><line transform="translate(350,0)" x2="0" y2="5" stroke="#888" stroke-width="1" opacity="1"></line><line transform="translate(408,0)" x2="0" y2="5" stroke="#888" stroke-width="1" opacity="1"></line><line transform="translate(467,0)" x2="0" y2="5" stroke="#888" stroke-width="1" opacity="1"></line><line transform="translate(525,0)" x2="0" y2="5" stroke="#888" stroke-width="1" opacity="1"></line><line transform="translate(583,0)" x2="0" y2="5" stroke="#888" stroke-width="1" opacity="1"></line><line transform="translate(642,0)" x2="0" y2="5" stroke="#888" stroke-width="1" opacity="1"></line><line transform="translate(700,0)" x2="0" y2="5" stroke="#888" stroke-width="1" opacity="1"></line></g><g class="mark-text role-axis-label" pointer-events="none"><text text-anchor="start" transform="translate(0,15)" font-family="sans-serif" font-size="10px" fill="#000" opacity="1">0.65</text><text text-anchor="middle" transform="translate(58.333333333333265,15)" font-family="sans-serif" font-size="10px" fill="#000" opacity="1">0.70</text><text text-anchor="middle" transform="translate(116.66666666666664,15)" font-family="sans-serif" font-size="10px" fill="#000" opacity="1">0.75</text><text text-anchor="middle" transform="translate(175.00000000000003,15)" font-family="sans-serif" font-size="10px" fill="#000" opacity="1">0.80</text><text text-anchor="middle" transform="translate(233.3333333333333,15)" font-family="sans-serif" font-size="10px" fill="#000" opacity="1">0.85</text><text text-anchor="middle" transform="translate(291.6666666666667,15)" font-family="sans-serif" font-size="10px" fill="#000" opacity="1">0.90</text><text text-anchor="middle" transform="translate(349.99999999999994,15)" font-family="sans-serif" font-size="10px" fill="#000" opacity="1">0.95</text><text text-anchor="middle" transform="translate(408.33333333333337,15)" font-family="sans-serif" font-size="10px" fill="#000" opacity="1">1.00</text><text text-anchor="middle" transform="translate(466.66666666666674,15)" font-family="sans-serif" font-size="10px" fill="#000" opacity="1">1.05</text><text text-anchor="middle" transform="translate(525.0000000000001,15)" font-family="sans-serif" font-size="10px" fill="#000" opacity="1">1.10</text><text text-anchor="middle" transform="translate(583.3333333333333,15)" font-family="sans-serif" font-size="10px" fill="#000" opacity="1">1.15</text><text text-anchor="middle" transform="translate(641.6666666666666,15)" font-family="sans-serif" font-size="10px" fill="#000" opacity="1">1.20</text><text text-anchor="end" transform="translate(700,15)" font-family="sans-serif" font-size="10px" fill="#000" opacity="1">1.25</text></g><g class="mark-rule role-axis-domain" pointer-events="none"><line transform="translate(0,0)" x2="700" y2="0" stroke="#888" stroke-width="1" opacity="1"></line></g><g class="mark-text role-axis-title" pointer-events="none"><text text-anchor="middle" transform="translate(350,30)" font-family="sans-serif" font-size="11px" font-weight="bold" fill="#000" opacity="1">Instantaneous reproduction number R(t), CI 0.975</text></g></g><path class="foreground" aria-hidden="true" d="" pointer-events="none" display="none"></path></g></g><g class="mark-group role-axis" role="graphics-symbol" aria-roledescription="axis" aria-label="Y-axis titled 'States' for a discrete scale with 27 values: AC, AL, AM, AP, BA, ending with TO"><g transform="translate(0.5,0.5)"><path class="background" aria-hidden="true" d="M0,0h0v0h0Z" pointer-events="none"></path><g><g class="mark-rule role-axis-tick" pointer-events="none"><line transform="translate(0,10)" x2="-5" y2="0" stroke="#888" stroke-width="1" opacity="1"></line><line transform="translate(0,30)" x2="-5" y2="0" stroke="#888" stroke-width="1" opacity="1"></line><line transform="translate(0,50)" x2="-5" y2="0" stroke="#888" stroke-width="1" opacity="1"></line><line transform="translate(0,70)" x2="-5" y2="0" stroke="#888" stroke-width="1" opacity="1"></line><line transform="translate(0,90)" x2="-5" y2="0" stroke="#888" stroke-width="1" opacity="1"></line><line transform="translate(0,110)" x2="-5" y2="0" stroke="#888" stroke-width="1" opacity="1"></line><line transform="translate(0,130)" x2="-5" y2="0" stroke="#888" stroke-width="1" opacity="1"></line><line transform="translate(0,150)" x2="-5" y2="0" stroke="#888" stroke-width="1" opacity="1"></line><line transform="translate(0,170)" x2="-5" y2="0" stroke="#888" stroke-width="1" opacity="1"></line><line transform="translate(0,190)" x2="-5" y2="0" stroke="#888" stroke-width="1" opacity="1"></line><line transform="translate(0,210)" x2="-5" y2="0" stroke="#888" stroke-width="1" opacity="1"></line><line transform="translate(0,230)" x2="-5" y2="0" stroke="#888" stroke-width="1" opacity="1"></line><line transform="translate(0,250)" x2="-5" y2="0" stroke="#888" stroke-width="1" opacity="1"></line><line transform="translate(0,270)" x2="-5" y2="0" stroke="#888" stroke-width="1" opacity="1"></line><line transform="translate(0,290)" x2="-5" y2="0" stroke="#888" stroke-width="1" opacity="1"></line><line transform="translate(0,310)" x2="-5" y2="0" stroke="#888" stroke-width="1" opacity="1"></line><line transform="translate(0,330)" x2="-5" y2="0" stroke="#888" stroke-width="1" opacity="1"></line><line transform="translate(0,350)" x2="-5" y2="0" stroke="#888" stroke-width="1" opacity="1"></line><line transform="translate(0,370)" x2="-5" y2="0" stroke="#888" stroke-width="1" opacity="1"></line><line transform="translate(0,390)" x2="-5" y2="0" stroke="#888" stroke-width="1" opacity="1"></line><line transform="translate(0,410)" x2="-5" y2="0" stroke="#888" stroke-width="1" opacity="1"></line><line transform="translate(0,430)" x2="-5" y2="0" stroke="#888" stroke-width="1" opacity="1"></line><line transform="translate(0,450)" x2="-5" y2="0" stroke="#888" stroke-width="1" opacity="1"></line><line transform="translate(0,470)" x2="-5" y2="0" stroke="#888" stroke-width="1" opacity="1"></line><line transform="translate(0,490)" x2="-5" y2="0" stroke="#888" stroke-width="1" opacity="1"></line><line transform="translate(0,510)" x2="-5" y2="0" stroke="#888" stroke-width="1" opacity="1"></line><line transform="translate(0,530)" x2="-5" y2="0" stroke="#888" stroke-width="1" opacity="1"></line></g><g class="mark-text role-axis-label" pointer-events="none"><text text-anchor="end" transform="translate(-7,12.5)" font-family="sans-serif" font-size="10px" fill="#000" opacity="1">AC</text><text text-anchor="end" transform="translate(-7,32.5)" font-family="sans-serif" font-size="10px" fill="#000" opacity="1">AL</text><text text-anchor="end" transform="translate(-7,52.5)" font-family="sans-serif" font-size="10px" fill="#000" opacity="1">AM</text><text text-anchor="end" transform="translate(-7,72.5)" font-family="sans-serif" font-size="10px" fill="#000" opacity="1">AP</text><text text-anchor="end" transform="translate(-7,92.5)" font-family="sans-serif" font-size="10px" fill="#000" opacity="1">BA</text><text text-anchor="end" transform="translate(-7,112.5)" font-family="sans-serif" font-size="10px" fill="#000" opacity="1">CE</text><text text-anchor="end" transform="translate(-7,132.5)" font-family="sans-serif" font-size="10px" fill="#000" opacity="1">DF</text><text text-anchor="end" transform="translate(-7,152.5)" font-family="sans-serif" font-size="10px" fill="#000" opacity="1">ES</text><text text-anchor="end" transform="translate(-7,172.5)" font-family="sans-serif" font-size="10px" fill="#000" opacity="1">GO</text><text text-anchor="end" transform="translate(-7,192.5)" font-family="sans-serif" font-size="10px" fill="#000" opacity="1">MA</text><text text-anchor="end" transform="translate(-7,212.5)" font-family="sans-serif" font-size="10px" fill="#000" opacity="1">MG</text><text text-anchor="end" transform="translate(-7,232.5)" font-family="sans-serif" font-size="10px" fill="#000" opacity="1">MS</text><text text-anchor="end" transform="translate(-7,252.5)" font-family="sans-serif" font-size="10px" fill="#000" opacity="1">MT</text><text text-anchor="end" transform="translate(-7,272.5)" font-family="sans-serif" font-size="10px" fill="#000" opacity="1">PA</text><text text-anchor="end" transform="translate(-7,292.5)" font-family="sans-serif" font-size="10px" fill="#000" opacity="1">PB</text><text text-anchor="end" transform="translate(-7,312.5)" font-family="sans-serif" font-size="10px" fill="#000" opacity="1">PE</text><text text-anchor="end" transform="translate(-7,332.5)" font-family="sans-serif" font-size="10px" fill="#000" opacity="1">PI</text><text text-anchor="end" transform="translate(-7,352.5)" font-family="sans-serif" font-size="10px" fill="#000" opacity="1">PR</text><text text-anchor="end" transform="translate(-7,372.5)" font-family="sans-serif" font-size="10px" fill="#000" opacity="1">RJ</text><text text-anchor="end" transform="translate(-7,392.5)" font-family="sans-serif" font-size="10px" fill="#000" opacity="1">RN</text><text text-anchor="end" transform="translate(-7,412.5)" font-family="sans-serif" font-size="10px" fill="#000" opacity="1">RO</text><text text-anchor="end" transform="translate(-7,432.5)" font-family="sans-serif" font-size="10px" fill="#000" opacity="1">RR</text><text text-anchor="end" transform="translate(-7,452.5)" font-family="sans-serif" font-size="10px" fill="#000" opacity="1">RS</text><text text-anchor="end" transform="translate(-7,472.5)" font-family="sans-serif" font-size="10px" fill="#000" opacity="1">SC</text><text text-anchor="end" transform="translate(-7,492.5)" font-family="sans-serif" font-size="10px" fill="#000" opacity="1">SE</text><text text-anchor="end" transform="translate(-7,512.5)" font-family="sans-serif" font-size="10px" fill="#000" opacity="1">SP</text><text text-anchor="end" transform="translate(-7,532.5)" font-family="sans-serif" font-size="10px" fill="#000" opacity="1">TO</text></g><g class="mark-rule role-axis-domain" pointer-events="none"><line transform="translate(0,0)" x2="0" y2="540" stroke="#888" stroke-width="1" opacity="1"></line></g><g class="mark-text role-axis-title" pointer-events="none"><text text-anchor="middle" transform="translate(-27,270) rotate(-90) translate(0,-2)" font-family="sans-serif" font-size="11px" font-weight="bold" fill="#000" opacity="1">States</text></g></g><path class="foreground" aria-hidden="true" d="" pointer-events="none" display="none"></path></g></g><g class="mark-symbol role-mark layer_0_marks" role="graphics-object" aria-roledescription="symbol mark container"><path aria-label="Instantaneous reproduction number R(t): 0.742468908958; States: AC" role="graphics-symbol" aria-roledescription="point" transform="translate(107.88039378468847,10)" d="M2.7386127875258306,0A2.7386127875258306,2.7386127875258306,0,1,1,-2.7386127875258306,0A2.7386127875258306,2.7386127875258306,0,1,1,2.7386127875258306,0" stroke="#4c78a8" stroke-width="2" opacity="0.7"></path><path aria-label="Instantaneous reproduction number R(t): 0.801263055326; States: RN" role="graphics-symbol" aria-roledescription="point" transform="translate(176.47356454696222,390)" d="M2.7386127875258306,0A2.7386127875258306,2.7386127875258306,0,1,1,-2.7386127875258306,0A2.7386127875258306,2.7386127875258306,0,1,1,2.7386127875258306,0" stroke="#4c78a8" stroke-width="2" opacity="0.7"></path><path aria-label="Instantaneous reproduction number R(t): 0.810373514455; States: CE" role="graphics-symbol" aria-roledescription="point" transform="translate(187.10243353127842,110)" d="M2.7386127875258306,0A2.7386127875258306,2.7386127875258306,0,1,1,-2.7386127875258306,0A2.7386127875258306,2.7386127875258306,0,1,1,2.7386127875258306,0" stroke="#4c78a8" stroke-width="2" opacity="0.7"></path><path aria-label="Instantaneous reproduction number R(t): 0.842575058681; States: AP" role="graphics-symbol" aria-roledescription="point" transform="translate(224.67090179463588,70)" d="M2.7386127875258306,0A2.7386127875258306,2.7386127875258306,0,1,1,-2.7386127875258306,0A2.7386127875258306,2.7386127875258306,0,1,1,2.7386127875258306,0" stroke="#4c78a8" stroke-width="2" opacity="0.7"></path><path aria-label="Instantaneous reproduction number R(t): 0.848951541732; States: MG" role="graphics-symbol" aria-roledescription="point" transform="translate(232.1101320209676,210)" d="M2.7386127875258306,0A2.7386127875258306,2.7386127875258306,0,1,1,-2.7386127875258306,0A2.7386127875258306,2.7386127875258306,0,1,1,2.7386127875258306,0" stroke="#4c78a8" stroke-width="2" opacity="0.7"></path><path aria-label="Instantaneous reproduction number R(t): 0.884505376161; States: AM" role="graphics-symbol" aria-roledescription="point" transform="translate(273.5896055216766,50)" d="M2.7386127875258306,0A2.7386127875258306,2.7386127875258306,0,1,1,-2.7386127875258306,0A2.7386127875258306,2.7386127875258306,0,1,1,2.7386127875258306,0" stroke="#4c78a8" stroke-width="2" opacity="0.7"></path><path aria-label="Instantaneous reproduction number R(t): 0.900873333465; States: RO" role="graphics-symbol" aria-roledescription="point" transform="translate(292.68555570954754,410)" d="M2.7386127875258306,0A2.7386127875258306,2.7386127875258306,0,1,1,-2.7386127875258306,0A2.7386127875258306,2.7386127875258306,0,1,1,2.7386127875258306,0" stroke="#4c78a8" stroke-width="2" opacity="0.7"></path><path aria-label="Instantaneous reproduction number R(t): 0.917709111748; States: MS" role="graphics-symbol" aria-roledescription="point" transform="translate(312.32729703963054,230)" d="M2.7386127875258306,0A2.7386127875258306,2.7386127875258306,0,1,1,-2.7386127875258306,0A2.7386127875258306,2.7386127875258306,0,1,1,2.7386127875258306,0" stroke="#4c78a8" stroke-width="2" opacity="0.7"></path><path aria-label="Instantaneous reproduction number R(t): 0.930587802313; States: MT" role="graphics-symbol" aria-roledescription="point" transform="translate(327.35243603212433,250)" d="M2.7386127875258306,0A2.7386127875258306,2.7386127875258306,0,1,1,-2.7386127875258306,0A2.7386127875258306,2.7386127875258306,0,1,1,2.7386127875258306,0" stroke="#4c78a8" stroke-width="2" opacity="0.7"></path><path aria-label="Instantaneous reproduction number R(t): 0.934707192223; States: SC" role="graphics-symbol" aria-roledescription="point" transform="translate(332.1583909265926,470)" d="M2.7386127875258306,0A2.7386127875258306,2.7386127875258306,0,1,1,-2.7386127875258306,0A2.7386127875258306,2.7386127875258306,0,1,1,2.7386127875258306,0" stroke="#4c78a8" stroke-width="2" opacity="0.7"></path><path aria-label="Instantaneous reproduction number R(t): 0.943809449839; States: PR" role="graphics-symbol" aria-roledescription="point" transform="translate(342.77769147929564,350)" d="M2.7386127875258306,0A2.7386127875258306,2.7386127875258306,0,1,1,-2.7386127875258306,0A2.7386127875258306,2.7386127875258306,0,1,1,2.7386127875258306,0" stroke="#4c78a8" stroke-width="2" opacity="0.7"></path><path aria-label="Instantaneous reproduction number R(t): 0.948659683849; States: DF" role="graphics-symbol" aria-roledescription="point" transform="translate(348.43629782426905,130)" d="M2.7386127875258306,0A2.7386127875258306,2.7386127875258306,0,1,1,-2.7386127875258306,0A2.7386127875258306,2.7386127875258306,0,1,1,2.7386127875258306,0" stroke="#4c78a8" stroke-width="2" opacity="0.7"></path><path aria-label="Instantaneous reproduction number R(t): 0.951933569977; States: PB" role="graphics-symbol" aria-roledescription="point" transform="translate(352.25583164009805,290)" d="M2.7386127875258306,0A2.7386127875258306,2.7386127875258306,0,1,1,-2.7386127875258306,0A2.7386127875258306,2.7386127875258306,0,1,1,2.7386127875258306,0" stroke="#4c78a8" stroke-width="2" opacity="0.7"></path><path aria-label="Instantaneous reproduction number R(t): 0.95643166426; States: PA" role="graphics-symbol" aria-roledescription="point" transform="translate(357.50360830283523,270)" d="M2.7386127875258306,0A2.7386127875258306,2.7386127875258306,0,1,1,-2.7386127875258306,0A2.7386127875258306,2.7386127875258306,0,1,1,2.7386127875258306,0" stroke="#4c78a8" stroke-width="2" opacity="0.7"></path><path aria-label="Instantaneous reproduction number R(t): 0.95902377127; States: SP" role="graphics-symbol" aria-roledescription="point" transform="translate(360.52773314788146,510)" d="M2.7386127875258306,0A2.7386127875258306,2.7386127875258306,0,1,1,-2.7386127875258306,0A2.7386127875258306,2.7386127875258306,0,1,1,2.7386127875258306,0" stroke="#4c78a8" stroke-width="2" opacity="0.7"></path><path aria-label="Instantaneous reproduction number R(t): 0.987422091547; States: BA" role="graphics-symbol" aria-roledescription="point" transform="translate(393.65910680473525,90)" d="M2.7386127875258306,0A2.7386127875258306,2.7386127875258306,0,1,1,-2.7386127875258306,0A2.7386127875258306,2.7386127875258306,0,1,1,2.7386127875258306,0" stroke="#4c78a8" stroke-width="2" opacity="0.7"></path><path aria-label="Instantaneous reproduction number R(t): 0.993131528451; States: GO" role="graphics-symbol" aria-roledescription="point" transform="translate(400.320116526288,170)" d="M2.7386127875258306,0A2.7386127875258306,2.7386127875258306,0,1,1,-2.7386127875258306,0A2.7386127875258306,2.7386127875258306,0,1,1,2.7386127875258306,0" stroke="#4c78a8" stroke-width="2" opacity="0.7"></path><path aria-label="Instantaneous reproduction number R(t): 1.00227630815; States: RS" role="graphics-symbol" aria-roledescription="point" transform="translate(410.9890261763856,450)" d="M2.7386127875258306,0A2.7386127875258306,2.7386127875258306,0,1,1,-2.7386127875258306,0A2.7386127875258306,2.7386127875258306,0,1,1,2.7386127875258306,0" stroke="#4c78a8" stroke-width="2" opacity="0.7"></path><path aria-label="Instantaneous reproduction number R(t): 1.01046862546; States: TO" role="graphics-symbol" aria-roledescription="point" transform="translate(420.54672969792114,530)" d="M2.7386127875258306,0A2.7386127875258306,2.7386127875258306,0,1,1,-2.7386127875258306,0A2.7386127875258306,2.7386127875258306,0,1,1,2.7386127875258306,0" stroke="#4c78a8" stroke-width="2" opacity="0.7"></path><path aria-label="Instantaneous reproduction number R(t): 1.01891840051; States: AL" role="graphics-symbol" aria-roledescription="point" transform="translate(430.4048005917697,30)" d="M2.7386127875258306,0A2.7386127875258306,2.7386127875258306,0,1,1,-2.7386127875258306,0A2.7386127875258306,2.7386127875258306,0,1,1,2.7386127875258306,0" stroke="#4c78a8" stroke-width="2" opacity="0.7"></path><path aria-label="Instantaneous reproduction number R(t): 1.02478365447; States: ES" role="graphics-symbol" aria-roledescription="point" transform="translate(437.24759687847484,150)" d="M2.7386127875258306,0A2.7386127875258306,2.7386127875258306,0,1,1,-2.7386127875258306,0A2.7386127875258306,2.7386127875258306,0,1,1,2.7386127875258306,0" stroke="#4c78a8" stroke-width="2" opacity="0.7"></path><path aria-label="Instantaneous reproduction number R(t): 1.0296515848; States: PE" role="graphics-symbol" aria-roledescription="point" transform="translate(442.92684893412587,310)" d="M2.7386127875258306,0A2.7386127875258306,2.7386127875258306,0,1,1,-2.7386127875258306,0A2.7386127875258306,2.7386127875258306,0,1,1,2.7386127875258306,0" stroke="#4c78a8" stroke-width="2" opacity="0.7"></path><path aria-label="Instantaneous reproduction number R(t): 1.03057943882; States: RR" role="graphics-symbol" aria-roledescription="point" transform="translate(444.00934528936403,430)" d="M2.7386127875258306,0A2.7386127875258306,2.7386127875258306,0,1,1,-2.7386127875258306,0A2.7386127875258306,2.7386127875258306,0,1,1,2.7386127875258306,0" stroke="#4c78a8" stroke-width="2" opacity="0.7"></path><path aria-label="Instantaneous reproduction number R(t): 1.0342100769; States: SE" role="graphics-symbol" aria-roledescription="point" transform="translate(448.2450897193108,490)" d="M2.7386127875258306,0A2.7386127875258306,2.7386127875258306,0,1,1,-2.7386127875258306,0A2.7386127875258306,2.7386127875258306,0,1,1,2.7386127875258306,0" stroke="#4c78a8" stroke-width="2" opacity="0.7"></path><path aria-label="Instantaneous reproduction number R(t): 1.06305030937; States: RJ" role="graphics-symbol" aria-roledescription="point" transform="translate(481.8920276024154,370)" d="M2.7386127875258306,0A2.7386127875258306,2.7386127875258306,0,1,1,-2.7386127875258306,0A2.7386127875258306,2.7386127875258306,0,1,1,2.7386127875258306,0" stroke="#4c78a8" stroke-width="2" opacity="0.7"></path><path aria-label="Instantaneous reproduction number R(t): 1.08077462258; States: PI" role="graphics-symbol" aria-roledescription="point" transform="translate(502.57039301276086,330)" d="M2.7386127875258306,0A2.7386127875258306,2.7386127875258306,0,1,1,-2.7386127875258306,0A2.7386127875258306,2.7386127875258306,0,1,1,2.7386127875258306,0" stroke="#4c78a8" stroke-width="2" opacity="0.7"></path><path aria-label="Instantaneous reproduction number R(t): 1.15133686021; States: MA" role="graphics-symbol" aria-roledescription="point" transform="translate(584.893003577285,190)" d="M2.7386127875258306,0A2.7386127875258306,2.7386127875258306,0,1,1,-2.7386127875258306,0A2.7386127875258306,2.7386127875258306,0,1,1,2.7386127875258306,0" stroke="#4c78a8" stroke-width="2" opacity="0.7"></path></g><g class="mark-rule role-mark layer_1_marks" role="graphics-object" aria-roledescription="rule mark container"><line aria-label="a: 1" role="graphics-symbol" aria-roledescription="rule mark" transform="translate(408.33333333333337,0)" x2="0" y2="540" stroke="black" stroke-width="0.2"></line><line aria-label="a: 1" role="graphics-symbol" aria-roledescription="rule mark" transform="translate(408.33333333333337,0)" x2="0" y2="540" stroke="black" stroke-width="0.2"></line><line aria-label="a: 1" role="graphics-symbol" aria-roledescription="rule mark" transform="translate(408.33333333333337,0)" x2="0" y2="540" stroke="black" stroke-width="0.2"></line><line aria-label="a: 1" role="graphics-symbol" aria-roledescription="rule mark" transform="translate(408.33333333333337,0)" x2="0" y2="540" stroke="black" stroke-width="0.2"></line><line aria-label="a: 1" role="graphics-symbol" aria-roledescription="rule mark" transform="translate(408.33333333333337,0)" x2="0" y2="540" stroke="black" stroke-width="0.2"></line><line aria-label="a: 1" role="graphics-symbol" aria-roledescription="rule mark" transform="translate(408.33333333333337,0)" x2="0" y2="540" stroke="black" stroke-width="0.2"></line><line aria-label="a: 1" role="graphics-symbol" aria-roledescription="rule mark" transform="translate(408.33333333333337,0)" x2="0" y2="540" stroke="black" stroke-width="0.2"></line><line aria-label="a: 1" role="graphics-symbol" aria-roledescription="rule mark" transform="translate(408.33333333333337,0)" x2="0" y2="540" stroke="black" stroke-width="0.2"></line><line aria-label="a: 1" role="graphics-symbol" aria-roledescription="rule mark" transform="translate(408.33333333333337,0)" x2="0" y2="540" stroke="black" stroke-width="0.2"></line><line aria-label="a: 1" role="graphics-symbol" aria-roledescription="rule mark" transform="translate(408.33333333333337,0)" x2="0" y2="540" stroke="black" stroke-width="0.2"></line><line aria-label="a: 1" role="graphics-symbol" aria-roledescription="rule mark" transform="translate(408.33333333333337,0)" x2="0" y2="540" stroke="black" stroke-width="0.2"></line><line aria-label="a: 1" role="graphics-symbol" aria-roledescription="rule mark" transform="translate(408.33333333333337,0)" x2="0" y2="540" stroke="black" stroke-width="0.2"></line><line aria-label="a: 1" role="graphics-symbol" aria-roledescription="rule mark" transform="translate(408.33333333333337,0)" x2="0" y2="540" stroke="black" stroke-width="0.2"></line><line aria-label="a: 1" role="graphics-symbol" aria-roledescription="rule mark" transform="translate(408.33333333333337,0)" x2="0" y2="540" stroke="black" stroke-width="0.2"></line><line aria-label="a: 1" role="graphics-symbol" aria-roledescription="rule mark" transform="translate(408.33333333333337,0)" x2="0" y2="540" stroke="black" stroke-width="0.2"></line><line aria-label="a: 1" role="graphics-symbol" aria-roledescription="rule mark" transform="translate(408.33333333333337,0)" x2="0" y2="540" stroke="black" stroke-width="0.2"></line><line aria-label="a: 1" role="graphics-symbol" aria-roledescription="rule mark" transform="translate(408.33333333333337,0)" x2="0" y2="540" stroke="black" stroke-width="0.2"></line><line aria-label="a: 1" role="graphics-symbol" aria-roledescription="rule mark" transform="translate(408.33333333333337,0)" x2="0" y2="540" stroke="black" stroke-width="0.2"></line><line aria-label="a: 1" role="graphics-symbol" aria-roledescription="rule mark" transform="translate(408.33333333333337,0)" x2="0" y2="540" stroke="black" stroke-width="0.2"></line><line aria-label="a: 1" role="graphics-symbol" aria-roledescription="rule mark" transform="translate(408.33333333333337,0)" x2="0" y2="540" stroke="black" stroke-width="0.2"></line><line aria-label="a: 1" role="graphics-symbol" aria-roledescription="rule mark" transform="translate(408.33333333333337,0)" x2="0" y2="540" stroke="black" stroke-width="0.2"></line><line aria-label="a: 1" role="graphics-symbol" aria-roledescription="rule mark" transform="translate(408.33333333333337,0)" x2="0" y2="540" stroke="black" stroke-width="0.2"></line><line aria-label="a: 1" role="graphics-symbol" aria-roledescription="rule mark" transform="translate(408.33333333333337,0)" x2="0" y2="540" stroke="black" stroke-width="0.2"></line><line aria-label="a: 1" role="graphics-symbol" aria-roledescription="rule mark" transform="translate(408.33333333333337,0)" x2="0" y2="540" stroke="black" stroke-width="0.2"></line><line aria-label="a: 1" role="graphics-symbol" aria-roledescription="rule mark" transform="translate(408.33333333333337,0)" x2="0" y2="540" stroke="black" stroke-width="0.2"></line><line aria-label="a: 1" role="graphics-symbol" aria-roledescription="rule mark" transform="translate(408.33333333333337,0)" x2="0" y2="540" stroke="black" stroke-width="0.2"></line><line aria-label="a: 1" role="graphics-symbol" aria-roledescription="rule mark" transform="translate(408.33333333333337,0)" x2="0" y2="540" stroke="black" stroke-width="0.2"></line></g><g class="mark-rule role-mark layer_2_marks" role="graphics-object" aria-roledescription="rule mark container"><line aria-label="CI 0.975: 0.69363502752; upper_Quantile.0.025(R): 0.791832446337; index: AC; Quantile.0.975(R): 0.791832446337; Quantile.0.025(R): 0.69363502752" role="graphics-symbol" aria-roledescription="errorbar" transform="translate(50.90753210655079,10)" x2="114.56365528654801" y2="0" stroke="blue" stroke-width="0.6"></line><line aria-label="CI 0.975: 0.730850334702; upper_Quantile.0.025(R): 0.853967843164; index: RN; Quantile.0.975(R): 0.853967843164; Quantile.0.025(R): 0.730850334702" role="graphics-symbol" aria-roledescription="errorbar" transform="translate(94.32539048593128,390)" x2="143.6370932051817" y2="0" stroke="blue" stroke-width="0.6"></line><line aria-label="CI 0.975: 0.79638926582; upper_Quantile.0.025(R): 0.827783049409; index: CE; Quantile.0.975(R): 0.827783049409; Quantile.0.025(R): 0.79638926582" role="graphics-symbol" aria-roledescription="errorbar" transform="translate(170.78747679022032,110)" x2="36.62608085415448" y2="0" stroke="blue" stroke-width="0.6"></line><line aria-label="CI 0.975: 0.78406993536; upper_Quantile.0.025(R): 0.901538808813; index: AP; Quantile.0.975(R): 0.901538808813; Quantile.0.025(R): 0.78406993536" role="graphics-symbol" aria-roledescription="errorbar" transform="translate(156.41492458676123,70)" x2="137.04701902815253" y2="0" stroke="blue" stroke-width="0.6"></line><line aria-label="CI 0.975: 0.807374725031; upper_Quantile.0.025(R): 0.886441295504; index: MG; Quantile.0.975(R): 0.886441295504; Quantile.0.025(R): 0.807374725031" role="graphics-symbol" aria-roledescription="errorbar" transform="translate(183.60384586916834,210)" x2="92.24433221882654" y2="0" stroke="blue" stroke-width="0.6"></line><line aria-label="CI 0.975: 0.849414345751; upper_Quantile.0.025(R): 0.919215189377; index: AM; Quantile.0.975(R): 0.919215189377; Quantile.0.025(R): 0.849414345751" role="graphics-symbol" aria-roledescription="errorbar" transform="translate(232.6500700429699,50)" x2="81.43431756359519" y2="0" stroke="blue" stroke-width="0.6"></line><line aria-label="CI 0.975: 0.875612435818; upper_Quantile.0.025(R): 0.925900146444; index: RO; Quantile.0.975(R): 0.925900146444; Quantile.0.025(R): 0.875612435818" role="graphics-symbol" aria-roledescription="errorbar" transform="translate(263.21450845378615,410)" x2="58.66899573094082" y2="0" stroke="blue" stroke-width="0.6"></line><line aria-label="CI 0.975: 0.889474915815; upper_Quantile.0.025(R): 0.946632166001; index: MS; Quantile.0.975(R): 0.946632166001; Quantile.0.025(R): 0.889474915815" role="graphics-symbol" aria-roledescription="errorbar" transform="translate(279.38740178406596,230)" x2="66.68345855050484" y2="0" stroke="blue" stroke-width="0.6"></line><line aria-label="CI 0.975: 0.911159270809; upper_Quantile.0.025(R): 0.949878791298; index: MT; Quantile.0.975(R): 0.949878791298; Quantile.0.025(R): 0.911159270809" role="graphics-symbol" aria-roledescription="errorbar" transform="translate(304.6858159439848,250)" x2="45.172773904127325" y2="0" stroke="blue" stroke-width="0.6"></line><line aria-label="CI 0.975: 0.918893566532; upper_Quantile.0.025(R): 0.951915183075; index: SC; Quantile.0.975(R): 0.951915183075; Quantile.0.025(R): 0.918893566532" role="graphics-symbol" aria-roledescription="errorbar" transform="translate(313.70916095411405,470)" x2="38.52521929955941" y2="0" stroke="blue" stroke-width="0.6"></line><line aria-label="CI 0.975: 0.924265719215; upper_Quantile.0.025(R): 0.958189957844; index: PR; Quantile.0.975(R): 0.958189957844; Quantile.0.025(R): 0.924265719215" role="graphics-symbol" aria-roledescription="errorbar" transform="translate(319.97667241739185,350)" x2="39.57827840093904" y2="0" stroke="blue" stroke-width="0.6"></line><line aria-label="CI 0.975: 0.912591389909; upper_Quantile.0.025(R): 0.984957999774; index: DF; Quantile.0.975(R): 0.984957999774; Quantile.0.025(R): 0.912591389909" role="graphics-symbol" aria-roledescription="errorbar" transform="translate(306.35662156012467,130)" x2="84.42771150971288" y2="0" stroke="blue" stroke-width="0.6"></line><line aria-label="CI 0.975: 0.930872436509; upper_Quantile.0.025(R): 0.973043971052; index: PB; Quantile.0.975(R): 0.973043971052; Quantile.0.025(R): 0.930872436509" role="graphics-symbol" aria-roledescription="errorbar" transform="translate(327.6845092608611,290)" x2="49.200123633425164" y2="0" stroke="blue" stroke-width="0.6"></line><line aria-label="CI 0.975: 0.925795200082; upper_Quantile.0.025(R): 0.985415022216; index: PA; Quantile.0.975(R): 0.985415022216; Quantile.0.025(R): 0.925795200082" role="graphics-symbol" aria-roledescription="errorbar" transform="translate(321.7610667620494,270)" x2="69.55645915608414" y2="0" stroke="blue" stroke-width="0.6"></line><line aria-label="CI 0.975: 0.939838427685; upper_Quantile.0.025(R): 0.975863909387; index: SP; Quantile.0.975(R): 0.975863909387; Quantile.0.025(R): 0.939838427685" role="graphics-symbol" aria-roledescription="errorbar" transform="translate(338.14483229879767,510)" x2="42.02972865268242" y2="0" stroke="blue" stroke-width="0.6"></line><line aria-label="CI 0.975: 0.97188044208; upper_Quantile.0.025(R): 1.00260505447; index: BA; Quantile.0.975(R): 1.00260505447; Quantile.0.025(R): 0.97188044208" role="graphics-symbol" aria-roledescription="errorbar" transform="translate(375.5271824261401,90)" x2="35.84538111853675" y2="0" stroke="blue" stroke-width="0.6"></line><line aria-label="CI 0.975: 0.976489175371; upper_Quantile.0.025(R): 1.00927157853; index: GO; Quantile.0.975(R): 1.00927157853; Quantile.0.025(R): 0.976489175371" role="graphics-symbol" aria-roledescription="errorbar" transform="translate(380.9040379324399,170)" x2="38.2461370190228" y2="0" stroke="blue" stroke-width="0.6"></line><line aria-label="CI 0.975: 0.989459221954; upper_Quantile.0.025(R): 1.01447975368; index: RS; Quantile.0.975(R): 1.01447975368; Quantile.0.025(R): 0.989459221954" role="graphics-symbol" aria-roledescription="errorbar" transform="translate(396.0357589457874,450)" x2="29.19062034445011" y2="0" stroke="blue" stroke-width="0.6"></line><line aria-label="CI 0.975: 0.979770922723; upper_Quantile.0.025(R): 1.04141065289; index: TO; Quantile.0.975(R): 1.04141065289; Quantile.0.025(R): 0.979770922723" role="graphics-symbol" aria-roledescription="errorbar" transform="translate(384.7327431770208,530)" x2="71.9130185294245" y2="0" stroke="blue" stroke-width="0.6"></line><line aria-label="CI 0.975: 0.980854613365; upper_Quantile.0.025(R): 1.0582626329; index: AL; Quantile.0.975(R): 1.0582626329; Quantile.0.025(R): 0.980854613365" role="graphics-symbol" aria-roledescription="errorbar" transform="translate(385.9970489263956,30)" x2="90.30935612026468" y2="0" stroke="blue" stroke-width="0.6"></line><line aria-label="CI 0.975: 0.997376096473; upper_Quantile.0.025(R): 1.0573893465; index: ES; Quantile.0.975(R): 1.0573893465; Quantile.0.025(R): 0.997376096473" role="graphics-symbol" aria-roledescription="errorbar" transform="translate(405.2721125517936,150)" x2="70.01545836782901" y2="0" stroke="blue" stroke-width="0.6"></line><line aria-label="CI 0.975: 1.00565783666; upper_Quantile.0.025(R): 1.05138111994; index: PE; Quantile.0.975(R): 1.05138111994; Quantile.0.025(R): 1.00565783666" role="graphics-symbol" aria-roledescription="errorbar" transform="translate(414.93414277558696,310)" x2="53.34383049197703" y2="0" stroke="blue" stroke-width="0.6"></line><line aria-label="CI 0.975: 0.971411252004; upper_Quantile.0.025(R): 1.09573364336; index: RR; Quantile.0.975(R): 1.09573364336; Quantile.0.025(R): 0.971411252004" role="graphics-symbol" aria-roledescription="errorbar" transform="translate(374.9797940051786,430)" x2="145.04278991078178" y2="0" stroke="blue" stroke-width="0.6"></line><line aria-label="CI 0.975: 1.00774017757; upper_Quantile.0.025(R): 1.06127138178; index: SE; Quantile.0.975(R): 1.06127138178; Quantile.0.025(R): 1.00774017757" role="graphics-symbol" aria-roledescription="errorbar" transform="translate(417.36354050361837,490)" x2="62.45307157813363" y2="0" stroke="blue" stroke-width="0.6"></line><line aria-label="CI 0.975: 1.03994700085; upper_Quantile.0.025(R): 1.08336216218; index: RJ; Quantile.0.975(R): 1.08336216218; Quantile.0.025(R): 1.03994700085" role="graphics-symbol" aria-roledescription="errorbar" transform="translate(454.9381676639698,370)" x2="50.651021540476165" y2="0" stroke="blue" stroke-width="0.6"></line><line aria-label="CI 0.975: 1.05741182277; upper_Quantile.0.025(R): 1.10404961479; index: PI; Quantile.0.975(R): 1.10404961479; Quantile.0.025(R): 1.05741182277" role="graphics-symbol" aria-roledescription="errorbar" transform="translate(475.3137932305603,330)" x2="54.41075735746432" y2="0" stroke="blue" stroke-width="0.6"></line><line aria-label="CI 0.975: 1.10353029152; upper_Quantile.0.025(R): 1.2018381862; index: MA; Quantile.0.975(R): 1.2018381862; Quantile.0.025(R): 1.10353029152" role="graphics-symbol" aria-roledescription="errorbar" transform="translate(529.1186734400596,190)" x2="114.69254379735378" y2="0" stroke="blue" stroke-width="0.6"></line></g><g class="mark-group role-title"><g transform="translate(350,-17.2)"><path class="background" aria-hidden="true" d="M0,0h0v0h0Z" pointer-events="none"></path><g><g class="mark-text role-title-text" role="graphics-symbol" aria-roledescription="title" aria-label="Title text 'Instantaneous reproduction number estimate for all states in Brazil'" pointer-events="none"><text text-anchor="middle" transform="translate(0,10)" font-family="sans-serif" font-size="13px" font-weight="bold" fill="#000" opacity="1">Instantaneous reproduction number estimate for all states in Brazil</text></g></g><path class="foreground" aria-hidden="true" d="" pointer-events="none" display="none"></path></g></g></g><path class="foreground" aria-hidden="true" d="" display="none"></path></g></g></g></svg>