<svg class="marks" width="750" height="600" viewBox="0 0 750 600" version="1.1" xmlns="http://www.w3.org/2000/svg" xmlns:xlink="http://www.w3.org/1999/xlink"><rect width="750" height="600" style="fill: white;"></rect><g transform="translate(44,23)"><g class="mark-group role-frame root"><g transform="translate(0,0)"><path class="background" d="M0.5,0.5h700v540h-700Z" style="fill: none; stroke: none;"></path><g><g class="mark-group role-axis"><g transform="translate(0.5,0.5)"><path class="background" d="M0,0h0v0h0Z" style="pointer-events: none; fill: none;"></path><g><g class="mark-rule role-axis-grid" style="pointer-events: none;"><line transform="translate(0,10)" x2="700" y2="0" style="fill: none; stroke: #ddd; stroke-width: 1; opacity: 1;"></line><line transform="translate(0,30)" x2="700" y2="0" style="fill: none; stroke: #ddd; stroke-width: 1; opacity: 1;"></line><line transform="translate(0,50)" x2="700" y2="0" style="fill: none; stroke: #ddd; stroke-width: 1; opacity: 1;"></line><line transform="translate(0,70)" x2="700" y2="0" style="fill: none; stroke: #ddd; stroke-width: 1; opacity: 1;"></line><line transform="translate(0,90)" x2="700" y2="0" style="fill: none; stroke: #ddd; stroke-width: 1; opacity: 1;"></line><line transform="translate(0,110)" x2="700" y2="0" style="fill: none; stroke: #ddd; stroke-width: 1; opacity: 1;"></line><line transform="translate(0,130)" x2="700" y2="0" style="fill: none; stroke: #ddd; stroke-width: 1; opacity: 1;"></line><line transform="translate(0,150)" x2="700" y2="0" style="fill: none; stroke: #ddd; stroke-width: 1; opacity: 1;"></line><line transform="translate(0,170)" x2="700" y2="0" style="fill: none; stroke: #ddd; stroke-width: 1; opacity: 1;"></line><line transform="translate(0,190)" x2="700" y2="0" style="fill: none; stroke: #ddd; stroke-width: 1; opacity: 1;"></line><line transform="translate(0,210)" x2="700" y2="0" style="fill: none; stroke: #ddd; stroke-width: 1; opacity: 1;"></line><line transform="translate(0,230)" x2="700" y2="0" style="fill: none; stroke: #ddd; stroke-width: 1; opacity: 1;"></line><line transform="translate(0,250)" x2="700" y2="0" style="fill: none; stroke: #ddd; stroke-width: 1; opacity: 1;"></line><line transform="translate(0,270)" x2="700" y2="0" style="fill: none; stroke: #ddd; stroke-width: 1; opacity: 1;"></line><line transform="translate(0,290)" x2="700" y2="0" style="fill: none; stroke: #ddd; stroke-width: 1; opacity: 1;"></line><line transform="translate(0,310)" x2="700" y2="0" style="fill: none; stroke: #ddd; stroke-width: 1; opacity: 1;"></line><line transform="translate(0,330)" x2="700" y2="0" style="fill: none; stroke: #ddd; stroke-width: 1; opacity: 1;"></line><line transform="translate(0,350)" x2="700" y2="0" style="fill: none; stroke: #ddd; stroke-width: 1; opacity: 1;"></line><line transform="translate(0,370)" x2="700" y2="0" style="fill: none; stroke: #ddd; stroke-width: 1; opacity: 1;"></line><line transform="translate(0,390)" x2="700" y2="0" style="fill: none; stroke: #ddd; stroke-width: 1; opacity: 1;"></line><line transform="translate(0,410)" x2="700" y2="0" style="fill: none; stroke: #ddd; stroke-width: 1; opacity: 1;"></line><line transform="translate(0,430)" x2="700" y2="0" style="fill: none; stroke: #ddd; stroke-width: 1; opacity: 1;"></line><line transform="translate(0,450)" x2="700" y2="0" style="fill: none; stroke: #ddd; stroke-width: 1; opacity: 1;"></line><line transform="translate(0,470)" x2="700" y2="0" style="fill: none; stroke: #ddd; stroke-width: 1; opacity: 1;"></line><line transform="translate(0,490)" x2="700" y2="0" style="fill: none; stroke: #ddd; stroke-width: 1; opacity: 1;"></line><line transform="translate(0,510)" x2="700" y2="0" style="fill: none; stroke: #ddd; stroke-width: 1; opacity: 1;"></line><line transform="translate(0,530)" x2="700" y2="0" style="fill: none; stroke: #ddd; stroke-width: 1; opacity: 1;"></line></g></g><path class="foreground" d="" style="pointer-events: none; display: none; fill: none;"></path></g></g><g class="mark-group role-axis"><g transform="translate(0.5,540.5)"><path class="background" d="M0,0h0v0h0Z" style="pointer-events: none; fill: none;"></path><g><g class="mark-rule role-axis-tick" style="pointer-events: none;"><line transform="translate(0,0)" x2="0" y2="5" style="fill: none; stroke: #888; stroke-width: 1; opacity: 1;"></line><line transform="translate(54,0)" x2="0" y2="5" style="fill: none; stroke: #888; stroke-width: 1; opacity: 1;"></line><line transform="translate(108,0)" x2="0" y2="5" style="fill: none; stroke: #888; stroke-width: 1; opacity: 1;"></line><line transform="translate(162,0)" x2="0" y2="5" style="fill: none; stroke: #888; stroke-width: 1; opacity: 1;"></line><line transform="translate(215,0)" x2="0" y2="5" style="fill: none; stroke: #888; stroke-width: 1; opacity: 1;"></line><line transform="translate(269,0)" x2="0" y2="5" style="fill: none; stroke: #888; stroke-width: 1; opacity: 1;"></line><line transform="translate(323,0)" x2="0" y2="5" style="fill: none; stroke: #888; stroke-width: 1; opacity: 1;"></line><line transform="translate(377,0)" x2="0" y2="5" style="fill: none; stroke: #888; stroke-width: 1; opacity: 1;"></line><line transform="translate(431,0)" x2="0" y2="5" style="fill: none; stroke: #888; stroke-width: 1; opacity: 1;"></line><line transform="translate(485,0)" x2="0" y2="5" style="fill: none; stroke: #888; stroke-width: 1; opacity: 1;"></line><line transform="translate(538,0)" x2="0" y2="5" style="fill: none; stroke: #888; stroke-width: 1; opacity: 1;"></line><line transform="translate(592,0)" x2="0" y2="5" style="fill: none; stroke: #888; stroke-width: 1; opacity: 1;"></line><line transform="translate(646,0)" x2="0" y2="5" style="fill: none; stroke: #888; stroke-width: 1; opacity: 1;"></line><line transform="translate(700,0)" x2="0" y2="5" style="fill: none; stroke: #888; stroke-width: 1; opacity: 1;"></line></g><g class="mark-text role-axis-label" style="pointer-events: none;"><text text-anchor="start" transform="translate(0,15)" style="font-family: sans-serif; font-size: 10px; fill: #000; opacity: 1;">1.0</text><text text-anchor="middle" transform="translate(53.846153846153896,15)" style="font-family: sans-serif; font-size: 10px; fill: #000; opacity: 1;">1.1</text><text text-anchor="middle" transform="translate(107.69230769230768,15)" style="font-family: sans-serif; font-size: 10px; fill: #000; opacity: 1;">1.2</text><text text-anchor="middle" transform="translate(161.53846153846158,15)" style="font-family: sans-serif; font-size: 10px; fill: #000; opacity: 1;">1.3</text><text text-anchor="middle" transform="translate(215.38461538461536,15)" style="font-family: sans-serif; font-size: 10px; fill: #000; opacity: 1;">1.4</text><text text-anchor="middle" transform="translate(269.2307692307693,15)" style="font-family: sans-serif; font-size: 10px; fill: #000; opacity: 1;">1.5</text><text text-anchor="middle" transform="translate(323.07692307692315,15)" style="font-family: sans-serif; font-size: 10px; fill: #000; opacity: 1;">1.6</text><text text-anchor="middle" transform="translate(376.92307692307696,15)" style="font-family: sans-serif; font-size: 10px; fill: #000; opacity: 1;">1.7</text><text text-anchor="middle" transform="translate(430.7692307692309,15)" style="font-family: sans-serif; font-size: 10px; fill: #000; opacity: 1;">1.8</text><text text-anchor="middle" transform="translate(484.6153846153846,15)" style="font-family: sans-serif; font-size: 10px; fill: #000; opacity: 1;">1.9</text><text text-anchor="middle" transform="translate(538.4615384615386,15)" style="font-family: sans-serif; font-size: 10px; fill: #000; opacity: 1;">2.0</text><text text-anchor="middle" transform="translate(592.3076923076925,15)" style="font-family: sans-serif; font-size: 10px; fill: #000; opacity: 1;">2.1</text><text text-anchor="middle" transform="translate(646.1538461538463,15)" style="font-family: sans-serif; font-size: 10px; fill: #000; opacity: 1;">2.2</text><text text-anchor="end" transform="translate(700,15)" style="font-family: sans-serif; font-size: 10px; fill: #000; opacity: 1;">2.3</text></g><g class="mark-rule role-axis-domain" style="pointer-events: none;"><line transform="translate(0,0)" x2="700" y2="0" style="fill: none; stroke: #888; stroke-width: 1; opacity: 1;"></line></g><g class="mark-text role-axis-title" style="pointer-events: none;"><text text-anchor="middle" transform="translate(350,30)" style="font-family: sans-serif; font-size: 11px; font-weight: bold; fill: #000; opacity: 1;">Instantaneous reproduction number R(t), CI 0.975</text></g></g><path class="foreground" d="" style="pointer-events: none; display: none; fill: none;"></path></g></g><g class="mark-group role-axis"><g transform="translate(0.5,0.5)"><path class="background" d="M0,0h0v0h0Z" style="pointer-events: none; fill: none;"></path><g><g class="mark-rule role-axis-tick" style="pointer-events: none;"><line transform="translate(0,10)" x2="-5" y2="0" style="fill: none; stroke: #888; stroke-width: 1; opacity: 1;"></line><line transform="translate(0,30)" x2="-5" y2="0" style="fill: none; stroke: #888; stroke-width: 1; opacity: 1;"></line><line transform="translate(0,50)" x2="-5" y2="0" style="fill: none; stroke: #888; stroke-width: 1; opacity: 1;"></line><line transform="translate(0,70)" x2="-5" y2="0" style="fill: none; stroke: #888; stroke-width: 1; opacity: 1;"></line><line transform="translate(0,90)" x2="-5" y2="0" style="fill: none; stroke: #888; stroke-width: 1; opacity: 1;"></line><line transform="translate(0,110)" x2="-5" y2="0" style="fill: none; stroke: #888; stroke-width: 1; opacity: 1;"></line><line transform="translate(0,130)" x2="-5" y2="0" style="fill: none; stroke: #888; stroke-width: 1; opacity: 1;"></line><line transform="translate(0,150)" x2="-5" y2="0" style="fill: none; stroke: #888; stroke-width: 1; opacity: 1;"></line><line transform="translate(0,170)" x2="-5" y2="0" style="fill: none; stroke: #888; stroke-width: 1; opacity: 1;"></line><line transform="translate(0,190)" x2="-5" y2="0" style="fill: none; stroke: #888; stroke-width: 1; opacity: 1;"></line><line transform="translate(0,210)" x2="-5" y2="0" style="fill: none; stroke: #888; stroke-width: 1; opacity: 1;"></line><line transform="translate(0,230)" x2="-5" y2="0" style="fill: none; stroke: #888; stroke-width: 1; opacity: 1;"></line><line transform="translate(0,250)" x2="-5" y2="0" style="fill: none; stroke: #888; stroke-width: 1; opacity: 1;"></line><line transform="translate(0,270)" x2="-5" y2="0" style="fill: none; stroke: #888; stroke-width: 1; opacity: 1;"></line><line transform="translate(0,290)" x2="-5" y2="0" style="fill: none; stroke: #888; stroke-width: 1; opacity: 1;"></line><line transform="translate(0,310)" x2="-5" y2="0" style="fill: none; stroke: #888; stroke-width: 1; opacity: 1;"></line><line transform="translate(0,330)" x2="-5" y2="0" style="fill: none; stroke: #888; stroke-width: 1; opacity: 1;"></line><line transform="translate(0,350)" x2="-5" y2="0" style="fill: none; stroke: #888; stroke-width: 1; opacity: 1;"></line><line transform="translate(0,370)" x2="-5" y2="0" style="fill: none; stroke: #888; stroke-width: 1; opacity: 1;"></line><line transform="translate(0,390)" x2="-5" y2="0" style="fill: none; stroke: #888; stroke-width: 1; opacity: 1;"></line><line transform="translate(0,410)" x2="-5" y2="0" style="fill: none; stroke: #888; stroke-width: 1; opacity: 1;"></line><line transform="translate(0,430)" x2="-5" y2="0" style="fill: none; stroke: #888; stroke-width: 1; opacity: 1;"></line><line transform="translate(0,450)" x2="-5" y2="0" style="fill: none; stroke: #888; stroke-width: 1; opacity: 1;"></line><line transform="translate(0,470)" x2="-5" y2="0" style="fill: none; stroke: #888; stroke-width: 1; opacity: 1;"></line><line transform="translate(0,490)" x2="-5" y2="0" style="fill: none; stroke: #888; stroke-width: 1; opacity: 1;"></line><line transform="translate(0,510)" x2="-5" y2="0" style="fill: none; stroke: #888; stroke-width: 1; opacity: 1;"></line><line transform="translate(0,530)" x2="-5" y2="0" style="fill: none; stroke: #888; stroke-width: 1; opacity: 1;"></line></g><g class="mark-text role-axis-label" style="pointer-events: none;"><text text-anchor="end" transform="translate(-7,12.5)" style="font-family: sans-serif; font-size: 10px; fill: #000; opacity: 1;">AC</text><text text-anchor="end" transform="translate(-7,32.5)" style="font-family: sans-serif; font-size: 10px; fill: #000; opacity: 1;">AL</text><text text-anchor="end" transform="translate(-7,52.5)" style="font-family: sans-serif; font-size: 10px; fill: #000; opacity: 1;">AM</text><text text-anchor="end" transform="translate(-7,72.5)" style="font-family: sans-serif; font-size: 10px; fill: #000; opacity: 1;">AP</text><text text-anchor="end" transform="translate(-7,92.5)" style="font-family: sans-serif; font-size: 10px; fill: #000; opacity: 1;">BA</text><text text-anchor="end" transform="translate(-7,112.5)" style="font-family: sans-serif; font-size: 10px; fill: #000; opacity: 1;">CE</text><text text-anchor="end" transform="translate(-7,132.5)" style="font-family: sans-serif; font-size: 10px; fill: #000; opacity: 1;">DF</text><text text-anchor="end" transform="translate(-7,152.5)" style="font-family: sans-serif; font-size: 10px; fill: #000; opacity: 1;">ES</text><text text-anchor="end" transform="translate(-7,172.5)" style="font-family: sans-serif; font-size: 10px; fill: #000; opacity: 1;">GO</text><text text-anchor="end" transform="translate(-7,192.5)" style="font-family: sans-serif; font-size: 10px; fill: #000; opacity: 1;">MA</text><text text-anchor="end" transform="translate(-7,212.5)" style="font-family: sans-serif; font-size: 10px; fill: #000; opacity: 1;">MG</text><text text-anchor="end" transform="translate(-7,232.5)" style="font-family: sans-serif; font-size: 10px; fill: #000; opacity: 1;">MS</text><text text-anchor="end" transform="translate(-7,252.5)" style="font-family: sans-serif; font-size: 10px; fill: #000; opacity: 1;">MT</text><text text-anchor="end" transform="translate(-7,272.5)" style="font-family: sans-serif; font-size: 10px; fill: #000; opacity: 1;">PA</text><text text-anchor="end" transform="translate(-7,292.5)" style="font-family: sans-serif; font-size: 10px; fill: #000; opacity: 1;">PB</text><text text-anchor="end" transform="translate(-7,312.5)" style="font-family: sans-serif; font-size: 10px; fill: #000; opacity: 1;">PE</text><text text-anchor="end" transform="translate(-7,332.5)" style="font-family: sans-serif; font-size: 10px; fill: #000; opacity: 1;">PI</text><text text-anchor="end" transform="translate(-7,352.5)" style="font-family: sans-serif; font-size: 10px; fill: #000; opacity: 1;">PR</text><text text-anchor="end" transform="translate(-7,372.5)" style="font-family: sans-serif; font-size: 10px; fill: #000; opacity: 1;">RJ</text><text text-anchor="end" transform="translate(-7,392.5)" style="font-family: sans-serif; font-size: 10px; fill: #000; opacity: 1;">RN</text><text text-anchor="end" transform="translate(-7,412.5)" style="font-family: sans-serif; font-size: 10px; fill: #000; opacity: 1;">RO</text><text text-anchor="end" transform="translate(-7,432.5)" style="font-family: sans-serif; font-size: 10px; fill: #000; opacity: 1;">RR</text><text text-anchor="end" transform="translate(-7,452.5)" style="font-family: sans-serif; font-size: 10px; fill: #000; opacity: 1;">RS</text><text text-anchor="end" transform="translate(-7,472.5)" style="font-family: sans-serif; font-size: 10px; fill: #000; opacity: 1;">SC</text><text text-anchor="end" transform="translate(-7,492.5)" style="font-family: sans-serif; font-size: 10px; fill: #000; opacity: 1;">SE</text><text text-anchor="end" transform="translate(-7,512.5)" style="font-family: sans-serif; font-size: 10px; fill: #000; opacity: 1;">SP</text><text text-anchor="end" transform="translate(-7,532.5)" style="font-family: sans-serif; font-size: 10px; fill: #000; opacity: 1;">TO</text></g><g class="mark-rule role-axis-domain" style="pointer-events: none;"><line transform="translate(0,0)" x2="0" y2="540" style="fill: none; stroke: #888; stroke-width: 1; opacity: 1;"></line></g><g class="mark-text role-axis-title" style="pointer-events: none;"><text text-anchor="middle" transform="translate(-27.1083984375,270) rotate(-90) translate(0,-2)" style="font-family: sans-serif; font-size: 11px; font-weight: bold; fill: #000; opacity: 1;">States</text></g></g><path class="foreground" d="" style="pointer-events: none; display: none; fill: none;"></path></g></g><g class="mark-symbol role-mark layer_0_marks"><path transform="translate(45.74602167686815,50)" d="M2.7386127875258306,0A2.7386127875258306,2.7386127875258306,0,1,1,-2.7386127875258306,0A2.7386127875258306,2.7386127875258306,0,1,1,2.7386127875258306,0" style="fill: none; stroke: #4c78a8; stroke-width: 2; opacity: 0.7;"></path><path transform="translate(99.75952233618865,510)" d="M2.7386127875258306,0A2.7386127875258306,2.7386127875258306,0,1,1,-2.7386127875258306,0A2.7386127875258306,2.7386127875258306,0,1,1,2.7386127875258306,0" style="fill: none; stroke: #4c78a8; stroke-width: 2; opacity: 0.7;"></path><path transform="translate(113.41275221039834,250)" d="M2.7386127875258306,0A2.7386127875258306,2.7386127875258306,0,1,1,-2.7386127875258306,0A2.7386127875258306,2.7386127875258306,0,1,1,2.7386127875258306,0" style="fill: none; stroke: #4c78a8; stroke-width: 2; opacity: 0.7;"></path><path transform="translate(120.72810477993616,210)" d="M2.7386127875258306,0A2.7386127875258306,2.7386127875258306,0,1,1,-2.7386127875258306,0A2.7386127875258306,2.7386127875258306,0,1,1,2.7386127875258306,0" style="fill: none; stroke: #4c78a8; stroke-width: 2; opacity: 0.7;"></path><path transform="translate(124.7873576976478,70)" d="M2.7386127875258306,0A2.7386127875258306,2.7386127875258306,0,1,1,-2.7386127875258306,0A2.7386127875258306,2.7386127875258306,0,1,1,2.7386127875258306,0" style="fill: none; stroke: #4c78a8; stroke-width: 2; opacity: 0.7;"></path><path transform="translate(136.61227658931696,30)" d="M2.7386127875258306,0A2.7386127875258306,2.7386127875258306,0,1,1,-2.7386127875258306,0A2.7386127875258306,2.7386127875258306,0,1,1,2.7386127875258306,0" style="fill: none; stroke: #4c78a8; stroke-width: 2; opacity: 0.7;"></path><path transform="translate(137.52015007245546,470)" d="M2.7386127875258306,0A2.7386127875258306,2.7386127875258306,0,1,1,-2.7386127875258306,0A2.7386127875258306,2.7386127875258306,0,1,1,2.7386127875258306,0" style="fill: none; stroke: #4c78a8; stroke-width: 2; opacity: 0.7;"></path><path transform="translate(139.54234638344778,330)" d="M2.7386127875258306,0A2.7386127875258306,2.7386127875258306,0,1,1,-2.7386127875258306,0A2.7386127875258306,2.7386127875258306,0,1,1,2.7386127875258306,0" style="fill: none; stroke: #4c78a8; stroke-width: 2; opacity: 0.7;"></path><path transform="translate(147.08553229876605,430)" d="M2.7386127875258306,0A2.7386127875258306,2.7386127875258306,0,1,1,-2.7386127875258306,0A2.7386127875258306,2.7386127875258306,0,1,1,2.7386127875258306,0" style="fill: none; stroke: #4c78a8; stroke-width: 2; opacity: 0.7;"></path><path transform="translate(163.13301609618293,190)" d="M2.7386127875258306,0A2.7386127875258306,2.7386127875258306,0,1,1,-2.7386127875258306,0A2.7386127875258306,2.7386127875258306,0,1,1,2.7386127875258306,0" style="fill: none; stroke: #4c78a8; stroke-width: 2; opacity: 0.7;"></path><path transform="translate(164.75234261469743,150)" d="M2.7386127875258306,0A2.7386127875258306,2.7386127875258306,0,1,1,-2.7386127875258306,0A2.7386127875258306,2.7386127875258306,0,1,1,2.7386127875258306,0" style="fill: none; stroke: #4c78a8; stroke-width: 2; opacity: 0.7;"></path><path transform="translate(179.13842829225874,130)" d="M2.7386127875258306,0A2.7386127875258306,2.7386127875258306,0,1,1,-2.7386127875258306,0A2.7386127875258306,2.7386127875258306,0,1,1,2.7386127875258306,0" style="fill: none; stroke: #4c78a8; stroke-width: 2; opacity: 0.7;"></path><path transform="translate(185.40367078487222,530)" d="M2.7386127875258306,0A2.7386127875258306,2.7386127875258306,0,1,1,-2.7386127875258306,0A2.7386127875258306,2.7386127875258306,0,1,1,2.7386127875258306,0" style="fill: none; stroke: #4c78a8; stroke-width: 2; opacity: 0.7;"></path><path transform="translate(199.93224519022237,310)" d="M2.7386127875258306,0A2.7386127875258306,2.7386127875258306,0,1,1,-2.7386127875258306,0A2.7386127875258306,2.7386127875258306,0,1,1,2.7386127875258306,0" style="fill: none; stroke: #4c78a8; stroke-width: 2; opacity: 0.7;"></path><path transform="translate(203.28518858127168,490)" d="M2.7386127875258306,0A2.7386127875258306,2.7386127875258306,0,1,1,-2.7386127875258306,0A2.7386127875258306,2.7386127875258306,0,1,1,2.7386127875258306,0" style="fill: none; stroke: #4c78a8; stroke-width: 2; opacity: 0.7;"></path><path transform="translate(210.66695644932457,410)" d="M2.7386127875258306,0A2.7386127875258306,2.7386127875258306,0,1,1,-2.7386127875258306,0A2.7386127875258306,2.7386127875258306,0,1,1,2.7386127875258306,0" style="fill: none; stroke: #4c78a8; stroke-width: 2; opacity: 0.7;"></path><path transform="translate(230.1265332420935,350)" d="M2.7386127875258306,0A2.7386127875258306,2.7386127875258306,0,1,1,-2.7386127875258306,0A2.7386127875258306,2.7386127875258306,0,1,1,2.7386127875258306,0" style="fill: none; stroke: #4c78a8; stroke-width: 2; opacity: 0.7;"></path><path transform="translate(232.35451020327906,390)" d="M2.7386127875258306,0A2.7386127875258306,2.7386127875258306,0,1,1,-2.7386127875258306,0A2.7386127875258306,2.7386127875258306,0,1,1,2.7386127875258306,0" style="fill: none; stroke: #4c78a8; stroke-width: 2; opacity: 0.7;"></path><path transform="translate(240.65966813906752,270)" d="M2.7386127875258306,0A2.7386127875258306,2.7386127875258306,0,1,1,-2.7386127875258306,0A2.7386127875258306,2.7386127875258306,0,1,1,2.7386127875258306,0" style="fill: none; stroke: #4c78a8; stroke-width: 2; opacity: 0.7;"></path><path transform="translate(251.9002651392011,110)" d="M2.7386127875258306,0A2.7386127875258306,2.7386127875258306,0,1,1,-2.7386127875258306,0A2.7386127875258306,2.7386127875258306,0,1,1,2.7386127875258306,0" style="fill: none; stroke: #4c78a8; stroke-width: 2; opacity: 0.7;"></path><path transform="translate(282.28684053515457,290)" d="M2.7386127875258306,0A2.7386127875258306,2.7386127875258306,0,1,1,-2.7386127875258306,0A2.7386127875258306,2.7386127875258306,0,1,1,2.7386127875258306,0" style="fill: none; stroke: #4c78a8; stroke-width: 2; opacity: 0.7;"></path><path transform="translate(297.8950511370468,230)" d="M2.7386127875258306,0A2.7386127875258306,2.7386127875258306,0,1,1,-2.7386127875258306,0A2.7386127875258306,2.7386127875258306,0,1,1,2.7386127875258306,0" style="fill: none; stroke: #4c78a8; stroke-width: 2; opacity: 0.7;"></path><path transform="translate(335.9694663485726,90)" d="M2.7386127875258306,0A2.7386127875258306,2.7386127875258306,0,1,1,-2.7386127875258306,0A2.7386127875258306,2.7386127875258306,0,1,1,2.7386127875258306,0" style="fill: none; stroke: #4c78a8; stroke-width: 2; opacity: 0.7;"></path><path transform="translate(360.34447216274464,10)" d="M2.7386127875258306,0A2.7386127875258306,2.7386127875258306,0,1,1,-2.7386127875258306,0A2.7386127875258306,2.7386127875258306,0,1,1,2.7386127875258306,0" style="fill: none; stroke: #4c78a8; stroke-width: 2; opacity: 0.7;"></path><path transform="translate(380.9799252126166,170)" d="M2.7386127875258306,0A2.7386127875258306,2.7386127875258306,0,1,1,-2.7386127875258306,0A2.7386127875258306,2.7386127875258306,0,1,1,2.7386127875258306,0" style="fill: none; stroke: #4c78a8; stroke-width: 2; opacity: 0.7;"></path><path transform="translate(504.0535202660811,370)" d="M2.7386127875258306,0A2.7386127875258306,2.7386127875258306,0,1,1,-2.7386127875258306,0A2.7386127875258306,2.7386127875258306,0,1,1,2.7386127875258306,0" style="fill: none; stroke: #4c78a8; stroke-width: 2; opacity: 0.7;"></path><path transform="translate(516.6807547506032,450)" d="M2.7386127875258306,0A2.7386127875258306,2.7386127875258306,0,1,1,-2.7386127875258306,0A2.7386127875258306,2.7386127875258306,0,1,1,2.7386127875258306,0" style="fill: none; stroke: #4c78a8; stroke-width: 2; opacity: 0.7;"></path></g><g class="mark-rule role-mark layer_1_marks"><line transform="translate(0,0)" x2="0" y2="540" style="fill: none; stroke: black; stroke-width: 0.2;"></line><line transform="translate(0,0)" x2="0" y2="540" style="fill: none; stroke: black; stroke-width: 0.2;"></line><line transform="translate(0,0)" x2="0" y2="540" style="fill: none; stroke: black; stroke-width: 0.2;"></line><line transform="translate(0,0)" x2="0" y2="540" style="fill: none; stroke: black; stroke-width: 0.2;"></line><line transform="translate(0,0)" x2="0" y2="540" style="fill: none; stroke: black; stroke-width: 0.2;"></line><line transform="translate(0,0)" x2="0" y2="540" style="fill: none; stroke: black; stroke-width: 0.2;"></line><line transform="translate(0,0)" x2="0" y2="540" style="fill: none; stroke: black; stroke-width: 0.2;"></line><line transform="translate(0,0)" x2="0" y2="540" style="fill: none; stroke: black; stroke-width: 0.2;"></line><line transform="translate(0,0)" x2="0" y2="540" style="fill: none; stroke: black; stroke-width: 0.2;"></line><line transform="translate(0,0)" x2="0" y2="540" style="fill: none; stroke: black; stroke-width: 0.2;"></line><line transform="translate(0,0)" x2="0" y2="540" style="fill: none; stroke: black; stroke-width: 0.2;"></line><line transform="translate(0,0)" x2="0" y2="540" style="fill: none; stroke: black; stroke-width: 0.2;"></line><line transform="translate(0,0)" x2="0" y2="540" style="fill: none; stroke: black; stroke-width: 0.2;"></line><line transform="translate(0,0)" x2="0" y2="540" style="fill: none; stroke: black; stroke-width: 0.2;"></line><line transform="translate(0,0)" x2="0" y2="540" style="fill: none; stroke: black; stroke-width: 0.2;"></line><line transform="translate(0,0)" x2="0" y2="540" style="fill: none; stroke: black; stroke-width: 0.2;"></line><line transform="translate(0,0)" x2="0" y2="540" style="fill: none; stroke: black; stroke-width: 0.2;"></line><line transform="translate(0,0)" x2="0" y2="540" style="fill: none; stroke: black; stroke-width: 0.2;"></line><line transform="translate(0,0)" x2="0" y2="540" style="fill: none; stroke: black; stroke-width: 0.2;"></line><line transform="translate(0,0)" x2="0" y2="540" style="fill: none; stroke: black; stroke-width: 0.2;"></line><line transform="translate(0,0)" x2="0" y2="540" style="fill: none; stroke: black; stroke-width: 0.2;"></line><line transform="translate(0,0)" x2="0" y2="540" style="fill: none; stroke: black; stroke-width: 0.2;"></line><line transform="translate(0,0)" x2="0" y2="540" style="fill: none; stroke: black; stroke-width: 0.2;"></line><line transform="translate(0,0)" x2="0" y2="540" style="fill: none; stroke: black; stroke-width: 0.2;"></line><line transform="translate(0,0)" x2="0" y2="540" style="fill: none; stroke: black; stroke-width: 0.2;"></line><line transform="translate(0,0)" x2="0" y2="540" style="fill: none; stroke: black; stroke-width: 0.2;"></line><line transform="translate(0,0)" x2="0" y2="540" style="fill: none; stroke: black; stroke-width: 0.2;"></line></g><g class="mark-rule role-mark layer_2_marks"><line transform="translate(20.338103521226348,50)" x2="53.4467908531044" y2="0" style="fill: none; stroke: blue; stroke-width: 0.6;"></line><line transform="translate(72.96356236982017,510)" x2="55.058412790984974" y2="0" style="fill: none; stroke: blue; stroke-width: 0.6;"></line><line transform="translate(30.335772881564036,250)" x2="175.17734439831466" y2="0" style="fill: none; stroke: blue; stroke-width: 0.6;"></line><line transform="translate(73.71056754258832,210)" x2="96.63167485778068" y2="0" style="fill: none; stroke: blue; stroke-width: 0.6;"></line><line transform="translate(83.24097269130759,70)" x2="85.75675788937538" y2="0" style="fill: none; stroke: blue; stroke-width: 0.6;"></line><line transform="translate(64.14267983076141,30)" x2="165.3817482977289" y2="0" style="fill: none; stroke: blue; stroke-width: 0.6;"></line><line transform="translate(72.95471714859387,470)" x2="134.9093668119765" y2="0" style="fill: none; stroke: blue; stroke-width: 0.6;"></line><line transform="translate(75.0581634205027,330)" x2="137.39450335453293" y2="0" style="fill: none; stroke: blue; stroke-width: 0.6;"></line><line transform="translate(78.35804050241344,430)" x2="137.4455338455281" y2="0" style="fill: none; stroke: blue; stroke-width: 0.6;"></line><line transform="translate(121.00292653308279,190)" x2="85.57209071560618" y2="0" style="fill: none; stroke: blue; stroke-width: 0.6;"></line><line transform="translate(112.51806923034547,150)" x2="104.99590288370533" y2="0" style="fill: none; stroke: blue; stroke-width: 0.6;"></line><line transform="translate(109.26735067758828,130)" x2="149.72056028470826" y2="0" style="fill: none; stroke: blue; stroke-width: 0.6;"></line><line transform="translate(118.16957431044196,530)" x2="141.1151051097959" y2="0" style="fill: none; stroke: blue; stroke-width: 0.6;"></line><line transform="translate(148.021478736691,310)" x2="107.733144470701" y2="0" style="fill: none; stroke: blue; stroke-width: 0.6;"></line><line transform="translate(132.63806285773904,490)" x2="140.42649752823536" y2="0" style="fill: none; stroke: blue; stroke-width: 0.6;"></line><line transform="translate(150.7406684692528,410)" x2="118.35884078483815" y2="0" style="fill: none; stroke: blue; stroke-width: 0.6;"></line><line transform="translate(143.5499670465551,350)" x2="177.95922392432786" y2="0" style="fill: none; stroke: blue; stroke-width: 0.6;"></line><line transform="translate(134.83600027433874,390)" x2="203.9215980483675" y2="0" style="fill: none; stroke: blue; stroke-width: 0.6;"></line><line transform="translate(172.81084070879882,270)" x2="142.22247361925787" y2="0" style="fill: none; stroke: blue; stroke-width: 0.6;"></line><line transform="translate(200.54845835086724,110)" x2="94.77192106951304" y2="0" style="fill: none; stroke: blue; stroke-width: 0.6;"></line><line transform="translate(193.282386672834,290)" x2="173.02365857994428" y2="0" style="fill: none; stroke: blue; stroke-width: 0.6;"></line><line transform="translate(154.7059937984121,230)" x2="307.7859274123026" y2="0" style="fill: none; stroke: blue; stroke-width: 0.6;"></line><line transform="translate(214.1220316630407,90)" x2="198.98971610826473" y2="0" style="fill: none; stroke: blue; stroke-width: 0.6;"></line><line transform="translate(279.5527376575968,10)" x2="152.80367481814562" y2="0" style="fill: none; stroke: blue; stroke-width: 0.6;"></line><line transform="translate(240.4592128977832,170)" x2="332.53099223607137" y2="0" style="fill: none; stroke: blue; stroke-width: 0.6;"></line><line transform="translate(337.0158159487743,370)" x2="316.0794584834223" y2="0" style="fill: none; stroke: blue; stroke-width: 0.6;"></line><line transform="translate(450.1053603756272,450)" x2="141.93611470182412" y2="0" style="fill: none; stroke: blue; stroke-width: 0.6;"></line></g><g class="mark-group role-title"><g transform="translate(350,-17.2)"><path class="background" d="M0,0h0v0h0Z" style="pointer-events: none; fill: none;"></path><g><g class="mark-text role-title-text" style="pointer-events: none;"><text text-anchor="middle" transform="translate(0,10)" style="font-family: sans-serif; font-size: 13px; font-weight: bold; fill: #000; opacity: 1;">Instantaneous reproduction number estimate for all states in Brazil</text></g></g><path class="foreground" d="" style="pointer-events: none; display: none; fill: none;"></path></g></g></g><path class="foreground" d="" style="display: none; fill: none;"></path></g></g></g></svg>