<svg class="marks" width="749" height="600" viewBox="0 0 749 600" version="1.1" xmlns="http://www.w3.org/2000/svg" xmlns:xlink="http://www.w3.org/1999/xlink"><rect width="749" height="600" fill="white"></rect><g fill="none" stroke-miterlimit="10" transform="translate(43,23)"><g class="mark-group role-frame root" role="graphics-object" aria-roledescription="group mark container"><g transform="translate(0,0)"><path class="background" aria-hidden="true" d="M0.5,0.5h700v540h-700Z"></path><g><g class="mark-group role-axis" aria-hidden="true"><g transform="translate(0.5,0.5)"><path class="background" aria-hidden="true" d="M0,0h0v0h0Z" pointer-events="none"></path><g><g class="mark-rule role-axis-grid" pointer-events="none"><line transform="translate(0,10)" x2="700" y2="0" stroke="#ddd" stroke-width="1" opacity="1"></line><line transform="translate(0,30)" x2="700" y2="0" stroke="#ddd" stroke-width="1" opacity="1"></line><line transform="translate(0,50)" x2="700" y2="0" stroke="#ddd" stroke-width="1" opacity="1"></line><line transform="translate(0,70)" x2="700" y2="0" stroke="#ddd" stroke-width="1" opacity="1"></line><line transform="translate(0,90)" x2="700" y2="0" stroke="#ddd" stroke-width="1" opacity="1"></line><line transform="translate(0,110)" x2="700" y2="0" stroke="#ddd" stroke-width="1" opacity="1"></line><line transform="translate(0,130)" x2="700" y2="0" stroke="#ddd" stroke-width="1" opacity="1"></line><line transform="translate(0,150)" x2="700" y2="0" stroke="#ddd" stroke-width="1" opacity="1"></line><line transform="translate(0,170)" x2="700" y2="0" stroke="#ddd" stroke-width="1" opacity="1"></line><line transform="translate(0,190)" x2="700" y2="0" stroke="#ddd" stroke-width="1" opacity="1"></line><line transform="translate(0,210)" x2="700" y2="0" stroke="#ddd" stroke-width="1" opacity="1"></line><line transform="translate(0,230)" x2="700" y2="0" stroke="#ddd" stroke-width="1" opacity="1"></line><line transform="translate(0,250)" x2="700" y2="0" stroke="#ddd" stroke-width="1" opacity="1"></line><line transform="translate(0,270)" x2="700" y2="0" stroke="#ddd" stroke-width="1" opacity="1"></line><line transform="translate(0,290)" x2="700" y2="0" stroke="#ddd" stroke-width="1" opacity="1"></line><line transform="translate(0,310)" x2="700" y2="0" stroke="#ddd" stroke-width="1" opacity="1"></line><line transform="translate(0,330)" x2="700" y2="0" stroke="#ddd" stroke-width="1" opacity="1"></line><line transform="translate(0,350)" x2="700" y2="0" stroke="#ddd" stroke-width="1" opacity="1"></line><line transform="translate(0,370)" x2="700" y2="0" stroke="#ddd" stroke-width="1" opacity="1"></line><line transform="translate(0,390)" x2="700" y2="0" stroke="#ddd" stroke-width="1" opacity="1"></line><line transform="translate(0,410)" x2="700" y2="0" stroke="#ddd" stroke-width="1" opacity="1"></line><line transform="translate(0,430)" x2="700" y2="0" stroke="#ddd" stroke-width="1" opacity="1"></line><line transform="translate(0,450)" x2="700" y2="0" stroke="#ddd" stroke-width="1" opacity="1"></line><line transform="translate(0,470)" x2="700" y2="0" stroke="#ddd" stroke-width="1" opacity="1"></line><line transform="translate(0,490)" x2="700" y2="0" stroke="#ddd" stroke-width="1" opacity="1"></line><line transform="translate(0,510)" x2="700" y2="0" stroke="#ddd" stroke-width="1" opacity="1"></line><line transform="translate(0,530)" x2="700" y2="0" stroke="#ddd" stroke-width="1" opacity="1"></line></g></g><path class="foreground" aria-hidden="true" d="" pointer-events="none" display="none"></path></g></g><g class="mark-group role-axis" role="graphics-symbol" aria-roledescription="axis" aria-label="X-axis titled 'Instantaneous reproduction number R(t), CI 0.975' for a linear scale with values from 0.5 to 1.3"><g transform="translate(0.5,540.5)"><path class="background" aria-hidden="true" d="M0,0h0v0h0Z" pointer-events="none"></path><g><g class="mark-rule role-axis-tick" pointer-events="none"><line transform="translate(0,0)" x2="0" y2="5" stroke="#888" stroke-width="1" opacity="1"></line><line transform="translate(44,0)" x2="0" y2="5" stroke="#888" stroke-width="1" opacity="1"></line><line transform="translate(87,0)" x2="0" y2="5" stroke="#888" stroke-width="1" opacity="1"></line><line transform="translate(131,0)" x2="0" y2="5" stroke="#888" stroke-width="1" opacity="1"></line><line transform="translate(175,0)" x2="0" y2="5" stroke="#888" stroke-width="1" opacity="1"></line><line transform="translate(219,0)" x2="0" y2="5" stroke="#888" stroke-width="1" opacity="1"></line><line transform="translate(263,0)" x2="0" y2="5" stroke="#888" stroke-width="1" opacity="1"></line><line transform="translate(306,0)" x2="0" y2="5" stroke="#888" stroke-width="1" opacity="1"></line><line transform="translate(350,0)" x2="0" y2="5" stroke="#888" stroke-width="1" opacity="1"></line><line transform="translate(394,0)" x2="0" y2="5" stroke="#888" stroke-width="1" opacity="1"></line><line transform="translate(438,0)" x2="0" y2="5" stroke="#888" stroke-width="1" opacity="1"></line><line transform="translate(481,0)" x2="0" y2="5" stroke="#888" stroke-width="1" opacity="1"></line><line transform="translate(525,0)" x2="0" y2="5" stroke="#888" stroke-width="1" opacity="1"></line><line transform="translate(569,0)" x2="0" y2="5" stroke="#888" stroke-width="1" opacity="1"></line><line transform="translate(612,0)" x2="0" y2="5" stroke="#888" stroke-width="1" opacity="1"></line><line transform="translate(656,0)" x2="0" y2="5" stroke="#888" stroke-width="1" opacity="1"></line><line transform="translate(700,0)" x2="0" y2="5" stroke="#888" stroke-width="1" opacity="1"></line></g><g class="mark-text role-axis-label" pointer-events="none"><text text-anchor="start" transform="translate(0,15)" font-family="sans-serif" font-size="10px" fill="#000" opacity="1">0.50</text><text text-anchor="middle" transform="translate(43.750000000000036,15)" font-family="sans-serif" font-size="10px" fill="#000" opacity="0">0.55</text><text text-anchor="middle" transform="translate(87.49999999999999,15)" font-family="sans-serif" font-size="10px" fill="#000" opacity="1">0.60</text><text text-anchor="middle" transform="translate(131.25000000000003,15)" font-family="sans-serif" font-size="10px" fill="#000" opacity="0">0.65</text><text text-anchor="middle" transform="translate(174.99999999999997,15)" font-family="sans-serif" font-size="10px" fill="#000" opacity="1">0.70</text><text text-anchor="middle" transform="translate(218.75,15)" font-family="sans-serif" font-size="10px" fill="#000" opacity="0">0.75</text><text text-anchor="middle" transform="translate(262.50000000000006,15)" font-family="sans-serif" font-size="10px" fill="#000" opacity="1">0.80</text><text text-anchor="middle" transform="translate(306.24999999999994,15)" font-family="sans-serif" font-size="10px" fill="#000" opacity="0">0.85</text><text text-anchor="middle" transform="translate(350,15)" font-family="sans-serif" font-size="10px" fill="#000" opacity="1">0.90</text><text text-anchor="middle" transform="translate(393.74999999999994,15)" font-family="sans-serif" font-size="10px" fill="#000" opacity="0">0.95</text><text text-anchor="middle" transform="translate(437.5,15)" font-family="sans-serif" font-size="10px" fill="#000" opacity="1">1.00</text><text text-anchor="middle" transform="translate(481.25,15)" font-family="sans-serif" font-size="10px" fill="#000" opacity="0">1.05</text><text text-anchor="middle" transform="translate(525.0000000000001,15)" font-family="sans-serif" font-size="10px" fill="#000" opacity="1">1.10</text><text text-anchor="middle" transform="translate(568.7499999999999,15)" font-family="sans-serif" font-size="10px" fill="#000" opacity="0">1.15</text><text text-anchor="middle" transform="translate(612.4999999999999,15)" font-family="sans-serif" font-size="10px" fill="#000" opacity="1">1.20</text><text text-anchor="middle" transform="translate(656.25,15)" font-family="sans-serif" font-size="10px" fill="#000" opacity="0">1.25</text><text text-anchor="end" transform="translate(700,15)" font-family="sans-serif" font-size="10px" fill="#000" opacity="1">1.30</text></g><g class="mark-rule role-axis-domain" pointer-events="none"><line transform="translate(0,0)" x2="700" y2="0" stroke="#888" stroke-width="1" opacity="1"></line></g><g class="mark-text role-axis-title" pointer-events="none"><text text-anchor="middle" transform="translate(350,30)" font-family="sans-serif" font-size="11px" font-weight="bold" fill="#000" opacity="1">Instantaneous reproduction number R(t), CI 0.975</text></g></g><path class="foreground" aria-hidden="true" d="" pointer-events="none" display="none"></path></g></g><g class="mark-group role-axis" role="graphics-symbol" aria-roledescription="axis" aria-label="Y-axis titled 'States' for a discrete scale with 27 values: AC, AL, AM, AP, BA, ending with TO"><g transform="translate(0.5,0.5)"><path class="background" aria-hidden="true" d="M0,0h0v0h0Z" pointer-events="none"></path><g><g class="mark-rule role-axis-tick" pointer-events="none"><line transform="translate(0,10)" x2="-5" y2="0" stroke="#888" stroke-width="1" opacity="1"></line><line transform="translate(0,30)" x2="-5" y2="0" stroke="#888" stroke-width="1" opacity="1"></line><line transform="translate(0,50)" x2="-5" y2="0" stroke="#888" stroke-width="1" opacity="1"></line><line transform="translate(0,70)" x2="-5" y2="0" stroke="#888" stroke-width="1" opacity="1"></line><line transform="translate(0,90)" x2="-5" y2="0" stroke="#888" stroke-width="1" opacity="1"></line><line transform="translate(0,110)" x2="-5" y2="0" stroke="#888" stroke-width="1" opacity="1"></line><line transform="translate(0,130)" x2="-5" y2="0" stroke="#888" stroke-width="1" opacity="1"></line><line transform="translate(0,150)" x2="-5" y2="0" stroke="#888" stroke-width="1" opacity="1"></line><line transform="translate(0,170)" x2="-5" y2="0" stroke="#888" stroke-width="1" opacity="1"></line><line transform="translate(0,190)" x2="-5" y2="0" stroke="#888" stroke-width="1" opacity="1"></line><line transform="translate(0,210)" x2="-5" y2="0" stroke="#888" stroke-width="1" opacity="1"></line><line transform="translate(0,230)" x2="-5" y2="0" stroke="#888" stroke-width="1" opacity="1"></line><line transform="translate(0,250)" x2="-5" y2="0" stroke="#888" stroke-width="1" opacity="1"></line><line transform="translate(0,270)" x2="-5" y2="0" stroke="#888" stroke-width="1" opacity="1"></line><line transform="translate(0,290)" x2="-5" y2="0" stroke="#888" stroke-width="1" opacity="1"></line><line transform="translate(0,310)" x2="-5" y2="0" stroke="#888" stroke-width="1" opacity="1"></line><line transform="translate(0,330)" x2="-5" y2="0" stroke="#888" stroke-width="1" opacity="1"></line><line transform="translate(0,350)" x2="-5" y2="0" stroke="#888" stroke-width="1" opacity="1"></line><line transform="translate(0,370)" x2="-5" y2="0" stroke="#888" stroke-width="1" opacity="1"></line><line transform="translate(0,390)" x2="-5" y2="0" stroke="#888" stroke-width="1" opacity="1"></line><line transform="translate(0,410)" x2="-5" y2="0" stroke="#888" stroke-width="1" opacity="1"></line><line transform="translate(0,430)" x2="-5" y2="0" stroke="#888" stroke-width="1" opacity="1"></line><line transform="translate(0,450)" x2="-5" y2="0" stroke="#888" stroke-width="1" opacity="1"></line><line transform="translate(0,470)" x2="-5" y2="0" stroke="#888" stroke-width="1" opacity="1"></line><line transform="translate(0,490)" x2="-5" y2="0" stroke="#888" stroke-width="1" opacity="1"></line><line transform="translate(0,510)" x2="-5" y2="0" stroke="#888" stroke-width="1" opacity="1"></line><line transform="translate(0,530)" x2="-5" y2="0" stroke="#888" stroke-width="1" opacity="1"></line></g><g class="mark-text role-axis-label" pointer-events="none"><text text-anchor="end" transform="translate(-7,12.5)" font-family="sans-serif" font-size="10px" fill="#000" opacity="1">AC</text><text text-anchor="end" transform="translate(-7,32.5)" font-family="sans-serif" font-size="10px" fill="#000" opacity="1">AL</text><text text-anchor="end" transform="translate(-7,52.5)" font-family="sans-serif" font-size="10px" fill="#000" opacity="1">AM</text><text text-anchor="end" transform="translate(-7,72.5)" font-family="sans-serif" font-size="10px" fill="#000" opacity="1">AP</text><text text-anchor="end" transform="translate(-7,92.5)" font-family="sans-serif" font-size="10px" fill="#000" opacity="1">BA</text><text text-anchor="end" transform="translate(-7,112.5)" font-family="sans-serif" font-size="10px" fill="#000" opacity="1">CE</text><text text-anchor="end" transform="translate(-7,132.5)" font-family="sans-serif" font-size="10px" fill="#000" opacity="1">DF</text><text text-anchor="end" transform="translate(-7,152.5)" font-family="sans-serif" font-size="10px" fill="#000" opacity="1">ES</text><text text-anchor="end" transform="translate(-7,172.5)" font-family="sans-serif" font-size="10px" fill="#000" opacity="1">GO</text><text text-anchor="end" transform="translate(-7,192.5)" font-family="sans-serif" font-size="10px" fill="#000" opacity="1">MA</text><text text-anchor="end" transform="translate(-7,212.5)" font-family="sans-serif" font-size="10px" fill="#000" opacity="1">MG</text><text text-anchor="end" transform="translate(-7,232.5)" font-family="sans-serif" font-size="10px" fill="#000" opacity="1">MS</text><text text-anchor="end" transform="translate(-7,252.5)" font-family="sans-serif" font-size="10px" fill="#000" opacity="1">MT</text><text text-anchor="end" transform="translate(-7,272.5)" font-family="sans-serif" font-size="10px" fill="#000" opacity="1">PA</text><text text-anchor="end" transform="translate(-7,292.5)" font-family="sans-serif" font-size="10px" fill="#000" opacity="1">PB</text><text text-anchor="end" transform="translate(-7,312.5)" font-family="sans-serif" font-size="10px" fill="#000" opacity="1">PE</text><text text-anchor="end" transform="translate(-7,332.5)" font-family="sans-serif" font-size="10px" fill="#000" opacity="1">PI</text><text text-anchor="end" transform="translate(-7,352.5)" font-family="sans-serif" font-size="10px" fill="#000" opacity="1">PR</text><text text-anchor="end" transform="translate(-7,372.5)" font-family="sans-serif" font-size="10px" fill="#000" opacity="1">RJ</text><text text-anchor="end" transform="translate(-7,392.5)" font-family="sans-serif" font-size="10px" fill="#000" opacity="1">RN</text><text text-anchor="end" transform="translate(-7,412.5)" font-family="sans-serif" font-size="10px" fill="#000" opacity="1">RO</text><text text-anchor="end" transform="translate(-7,432.5)" font-family="sans-serif" font-size="10px" fill="#000" opacity="1">RR</text><text text-anchor="end" transform="translate(-7,452.5)" font-family="sans-serif" font-size="10px" fill="#000" opacity="1">RS</text><text text-anchor="end" transform="translate(-7,472.5)" font-family="sans-serif" font-size="10px" fill="#000" opacity="1">SC</text><text text-anchor="end" transform="translate(-7,492.5)" font-family="sans-serif" font-size="10px" fill="#000" opacity="1">SE</text><text text-anchor="end" transform="translate(-7,512.5)" font-family="sans-serif" font-size="10px" fill="#000" opacity="1">SP</text><text text-anchor="end" transform="translate(-7,532.5)" font-family="sans-serif" font-size="10px" fill="#000" opacity="1">TO</text></g><g class="mark-rule role-axis-domain" pointer-events="none"><line transform="translate(0,0)" x2="0" y2="540" stroke="#888" stroke-width="1" opacity="1"></line></g><g class="mark-text role-axis-title" pointer-events="none"><text text-anchor="middle" transform="translate(-27,270) rotate(-90) translate(0,-2)" font-family="sans-serif" font-size="11px" font-weight="bold" fill="#000" opacity="1">States</text></g></g><path class="foreground" aria-hidden="true" d="" pointer-events="none" display="none"></path></g></g><g class="mark-symbol role-mark layer_0_marks" role="graphics-object" aria-roledescription="symbol mark container"><path aria-label="Instantaneous reproduction number R(t): 0.593731691462; States: RJ" role="graphics-symbol" aria-roledescription="point" transform="translate(82.0152300296447,370)" d="M2.7386127875258306,0A2.7386127875258306,2.7386127875258306,0,1,1,-2.7386127875258306,0A2.7386127875258306,2.7386127875258306,0,1,1,2.7386127875258306,0" stroke="#4c78a8" stroke-width="2" opacity="0.7"></path><path aria-label="Instantaneous reproduction number R(t): 0.645443154219; States: BA" role="graphics-symbol" aria-roledescription="point" transform="translate(127.26275994153106,90)" d="M2.7386127875258306,0A2.7386127875258306,2.7386127875258306,0,1,1,-2.7386127875258306,0A2.7386127875258306,2.7386127875258306,0,1,1,2.7386127875258306,0" stroke="#4c78a8" stroke-width="2" opacity="0.7"></path><path aria-label="Instantaneous reproduction number R(t): 0.666449047633; States: GO" role="graphics-symbol" aria-roledescription="point" transform="translate(145.64291667894906,170)" d="M2.7386127875258306,0A2.7386127875258306,2.7386127875258306,0,1,1,-2.7386127875258306,0A2.7386127875258306,2.7386127875258306,0,1,1,2.7386127875258306,0" stroke="#4c78a8" stroke-width="2" opacity="0.7"></path><path aria-label="Instantaneous reproduction number R(t): 0.672541939817; States: PA" role="graphics-symbol" aria-roledescription="point" transform="translate(150.97419733960808,270)" d="M2.7386127875258306,0A2.7386127875258306,2.7386127875258306,0,1,1,-2.7386127875258306,0A2.7386127875258306,2.7386127875258306,0,1,1,2.7386127875258306,0" stroke="#4c78a8" stroke-width="2" opacity="0.7"></path><path aria-label="Instantaneous reproduction number R(t): 0.694806073463; States: PE" role="graphics-symbol" aria-roledescription="point" transform="translate(170.45531427993095,310)" d="M2.7386127875258306,0A2.7386127875258306,2.7386127875258306,0,1,1,-2.7386127875258306,0A2.7386127875258306,2.7386127875258306,0,1,1,2.7386127875258306,0" stroke="#4c78a8" stroke-width="2" opacity="0.7"></path><path aria-label="Instantaneous reproduction number R(t): 0.700674977871; States: SE" role="graphics-symbol" aria-roledescription="point" transform="translate(175.5906056369908,490)" d="M2.7386127875258306,0A2.7386127875258306,2.7386127875258306,0,1,1,-2.7386127875258306,0A2.7386127875258306,2.7386127875258306,0,1,1,2.7386127875258306,0" stroke="#4c78a8" stroke-width="2" opacity="0.7"></path><path aria-label="Instantaneous reproduction number R(t): 0.728331422667; States: RN" role="graphics-symbol" aria-roledescription="point" transform="translate(199.7899948333117,390)" d="M2.7386127875258306,0A2.7386127875258306,2.7386127875258306,0,1,1,-2.7386127875258306,0A2.7386127875258306,2.7386127875258306,0,1,1,2.7386127875258306,0" stroke="#4c78a8" stroke-width="2" opacity="0.7"></path><path aria-label="Instantaneous reproduction number R(t): 0.729534924992; States: SP" role="graphics-symbol" aria-roledescription="point" transform="translate(200.84305936832058,510)" d="M2.7386127875258306,0A2.7386127875258306,2.7386127875258306,0,1,1,-2.7386127875258306,0A2.7386127875258306,2.7386127875258306,0,1,1,2.7386127875258306,0" stroke="#4c78a8" stroke-width="2" opacity="0.7"></path><path aria-label="Instantaneous reproduction number R(t): 0.734212520866; States: MA" role="graphics-symbol" aria-roledescription="point" transform="translate(204.93595575772142,190)" d="M2.7386127875258306,0A2.7386127875258306,2.7386127875258306,0,1,1,-2.7386127875258306,0A2.7386127875258306,2.7386127875258306,0,1,1,2.7386127875258306,0" stroke="#4c78a8" stroke-width="2" opacity="0.7"></path><path aria-label="Instantaneous reproduction number R(t): 0.739055316293; States: MT" role="graphics-symbol" aria-roledescription="point" transform="translate(209.17340175664373,250)" d="M2.7386127875258306,0A2.7386127875258306,2.7386127875258306,0,1,1,-2.7386127875258306,0A2.7386127875258306,2.7386127875258306,0,1,1,2.7386127875258306,0" stroke="#4c78a8" stroke-width="2" opacity="0.7"></path><path aria-label="Instantaneous reproduction number R(t): 0.760915943791; States: MG" role="graphics-symbol" aria-roledescription="point" transform="translate(228.3014508170774,210)" d="M2.7386127875258306,0A2.7386127875258306,2.7386127875258306,0,1,1,-2.7386127875258306,0A2.7386127875258306,2.7386127875258306,0,1,1,2.7386127875258306,0" stroke="#4c78a8" stroke-width="2" opacity="0.7"></path><path aria-label="Instantaneous reproduction number R(t): 0.770347525884; States: DF" role="graphics-symbol" aria-roledescription="point" transform="translate(236.5540851481338,130)" d="M2.7386127875258306,0A2.7386127875258306,2.7386127875258306,0,1,1,-2.7386127875258306,0A2.7386127875258306,2.7386127875258306,0,1,1,2.7386127875258306,0" stroke="#4c78a8" stroke-width="2" opacity="0.7"></path><path aria-label="Instantaneous reproduction number R(t): 0.777969711772; States: PR" role="graphics-symbol" aria-roledescription="point" transform="translate(243.22349780065542,350)" d="M2.7386127875258306,0A2.7386127875258306,2.7386127875258306,0,1,1,-2.7386127875258306,0A2.7386127875258306,2.7386127875258306,0,1,1,2.7386127875258306,0" stroke="#4c78a8" stroke-width="2" opacity="0.7"></path><path aria-label="Instantaneous reproduction number R(t): 0.779270728743; States: AM" role="graphics-symbol" aria-roledescription="point" transform="translate(244.36188765026105,50)" d="M2.7386127875258306,0A2.7386127875258306,2.7386127875258306,0,1,1,-2.7386127875258306,0A2.7386127875258306,2.7386127875258306,0,1,1,2.7386127875258306,0" stroke="#4c78a8" stroke-width="2" opacity="0.7"></path><path aria-label="Instantaneous reproduction number R(t): 0.78851789102; States: CE" role="graphics-symbol" aria-roledescription="point" transform="translate(252.45315464260116,110)" d="M2.7386127875258306,0A2.7386127875258306,2.7386127875258306,0,1,1,-2.7386127875258306,0A2.7386127875258306,2.7386127875258306,0,1,1,2.7386127875258306,0" stroke="#4c78a8" stroke-width="2" opacity="0.7"></path><path aria-label="Instantaneous reproduction number R(t): 0.793990331221; States: TO" role="graphics-symbol" aria-roledescription="point" transform="translate(257.2415398180501,530)" d="M2.7386127875258306,0A2.7386127875258306,2.7386127875258306,0,1,1,-2.7386127875258306,0A2.7386127875258306,2.7386127875258306,0,1,1,2.7386127875258306,0" stroke="#4c78a8" stroke-width="2" opacity="0.7"></path><path aria-label="Instantaneous reproduction number R(t): 0.805754931996; States: RR" role="graphics-symbol" aria-roledescription="point" transform="translate(267.5355654962562,430)" d="M2.7386127875258306,0A2.7386127875258306,2.7386127875258306,0,1,1,-2.7386127875258306,0A2.7386127875258306,2.7386127875258306,0,1,1,2.7386127875258306,0" stroke="#4c78a8" stroke-width="2" opacity="0.7"></path><path aria-label="Instantaneous reproduction number R(t): 0.823798520986; States: PB" role="graphics-symbol" aria-roledescription="point" transform="translate(283.32370586280064,290)" d="M2.7386127875258306,0A2.7386127875258306,2.7386127875258306,0,1,1,-2.7386127875258306,0A2.7386127875258306,2.7386127875258306,0,1,1,2.7386127875258306,0" stroke="#4c78a8" stroke-width="2" opacity="0.7"></path><path aria-label="Instantaneous reproduction number R(t): 0.826796020303; States: PI" role="graphics-symbol" aria-roledescription="point" transform="translate(285.9465177652595,330)" d="M2.7386127875258306,0A2.7386127875258306,2.7386127875258306,0,1,1,-2.7386127875258306,0A2.7386127875258306,2.7386127875258306,0,1,1,2.7386127875258306,0" stroke="#4c78a8" stroke-width="2" opacity="0.7"></path><path aria-label="Instantaneous reproduction number R(t): 0.841487054523; States: RO" role="graphics-symbol" aria-roledescription="point" transform="translate(298.8011727071891,410)" d="M2.7386127875258306,0A2.7386127875258306,2.7386127875258306,0,1,1,-2.7386127875258306,0A2.7386127875258306,2.7386127875258306,0,1,1,2.7386127875258306,0" stroke="#4c78a8" stroke-width="2" opacity="0.7"></path><path aria-label="Instantaneous reproduction number R(t): 0.884434068776; States: MS" role="graphics-symbol" aria-roledescription="point" transform="translate(336.3798101788036,230)" d="M2.7386127875258306,0A2.7386127875258306,2.7386127875258306,0,1,1,-2.7386127875258306,0A2.7386127875258306,2.7386127875258306,0,1,1,2.7386127875258306,0" stroke="#4c78a8" stroke-width="2" opacity="0.7"></path><path aria-label="Instantaneous reproduction number R(t): 0.951173462493; States: AL" role="graphics-symbol" aria-roledescription="point" transform="translate(394.7767796817807,30)" d="M2.7386127875258306,0A2.7386127875258306,2.7386127875258306,0,1,1,-2.7386127875258306,0A2.7386127875258306,2.7386127875258306,0,1,1,2.7386127875258306,0" stroke="#4c78a8" stroke-width="2" opacity="0.7"></path><path aria-label="Instantaneous reproduction number R(t): 0.955101101106; States: RS" role="graphics-symbol" aria-roledescription="point" transform="translate(398.21346346758185,450)" d="M2.7386127875258306,0A2.7386127875258306,2.7386127875258306,0,1,1,-2.7386127875258306,0A2.7386127875258306,2.7386127875258306,0,1,1,2.7386127875258306,0" stroke="#4c78a8" stroke-width="2" opacity="0.7"></path><path aria-label="Instantaneous reproduction number R(t): 1.00566860342; States: ES" role="graphics-symbol" aria-roledescription="point" transform="translate(442.46002799606265,150)" d="M2.7386127875258306,0A2.7386127875258306,2.7386127875258306,0,1,1,-2.7386127875258306,0A2.7386127875258306,2.7386127875258306,0,1,1,2.7386127875258306,0" stroke="#4c78a8" stroke-width="2" opacity="0.7"></path><path aria-label="Instantaneous reproduction number R(t): 1.05817291639; States: SC" role="graphics-symbol" aria-roledescription="point" transform="translate(488.4013018450299,470)" d="M2.7386127875258306,0A2.7386127875258306,2.7386127875258306,0,1,1,-2.7386127875258306,0A2.7386127875258306,2.7386127875258306,0,1,1,2.7386127875258306,0" stroke="#4c78a8" stroke-width="2" opacity="0.7"></path><path aria-label="Instantaneous reproduction number R(t): 1.10867573612; States: AC" role="graphics-symbol" aria-roledescription="point" transform="translate(532.5912691042346,10)" d="M2.7386127875258306,0A2.7386127875258306,2.7386127875258306,0,1,1,-2.7386127875258306,0A2.7386127875258306,2.7386127875258306,0,1,1,2.7386127875258306,0" stroke="#4c78a8" stroke-width="2" opacity="0.7"></path><path aria-label="Instantaneous reproduction number R(t): 1.10885217648; States: AP" role="graphics-symbol" aria-roledescription="point" transform="translate(532.7456544243387,70)" d="M2.7386127875258306,0A2.7386127875258306,2.7386127875258306,0,1,1,-2.7386127875258306,0A2.7386127875258306,2.7386127875258306,0,1,1,2.7386127875258306,0" stroke="#4c78a8" stroke-width="2" opacity="0.7"></path></g><g class="mark-rule role-mark layer_1_marks" role="graphics-object" aria-roledescription="rule mark container"><line aria-label="a: 1" role="graphics-symbol" aria-roledescription="rule mark" transform="translate(437.5,0)" x2="0" y2="540" stroke="black" stroke-width="0.2"></line><line aria-label="a: 1" role="graphics-symbol" aria-roledescription="rule mark" transform="translate(437.5,0)" x2="0" y2="540" stroke="black" stroke-width="0.2"></line><line aria-label="a: 1" role="graphics-symbol" aria-roledescription="rule mark" transform="translate(437.5,0)" x2="0" y2="540" stroke="black" stroke-width="0.2"></line><line aria-label="a: 1" role="graphics-symbol" aria-roledescription="rule mark" transform="translate(437.5,0)" x2="0" y2="540" stroke="black" stroke-width="0.2"></line><line aria-label="a: 1" role="graphics-symbol" aria-roledescription="rule mark" transform="translate(437.5,0)" x2="0" y2="540" stroke="black" stroke-width="0.2"></line><line aria-label="a: 1" role="graphics-symbol" aria-roledescription="rule mark" transform="translate(437.5,0)" x2="0" y2="540" stroke="black" stroke-width="0.2"></line><line aria-label="a: 1" role="graphics-symbol" aria-roledescription="rule mark" transform="translate(437.5,0)" x2="0" y2="540" stroke="black" stroke-width="0.2"></line><line aria-label="a: 1" role="graphics-symbol" aria-roledescription="rule mark" transform="translate(437.5,0)" x2="0" y2="540" stroke="black" stroke-width="0.2"></line><line aria-label="a: 1" role="graphics-symbol" aria-roledescription="rule mark" transform="translate(437.5,0)" x2="0" y2="540" stroke="black" stroke-width="0.2"></line><line aria-label="a: 1" role="graphics-symbol" aria-roledescription="rule mark" transform="translate(437.5,0)" x2="0" y2="540" stroke="black" stroke-width="0.2"></line><line aria-label="a: 1" role="graphics-symbol" aria-roledescription="rule mark" transform="translate(437.5,0)" x2="0" y2="540" stroke="black" stroke-width="0.2"></line><line aria-label="a: 1" role="graphics-symbol" aria-roledescription="rule mark" transform="translate(437.5,0)" x2="0" y2="540" stroke="black" stroke-width="0.2"></line><line aria-label="a: 1" role="graphics-symbol" aria-roledescription="rule mark" transform="translate(437.5,0)" x2="0" y2="540" stroke="black" stroke-width="0.2"></line><line aria-label="a: 1" role="graphics-symbol" aria-roledescription="rule mark" transform="translate(437.5,0)" x2="0" y2="540" stroke="black" stroke-width="0.2"></line><line aria-label="a: 1" role="graphics-symbol" aria-roledescription="rule mark" transform="translate(437.5,0)" x2="0" y2="540" stroke="black" stroke-width="0.2"></line><line aria-label="a: 1" role="graphics-symbol" aria-roledescription="rule mark" transform="translate(437.5,0)" x2="0" y2="540" stroke="black" stroke-width="0.2"></line><line aria-label="a: 1" role="graphics-symbol" aria-roledescription="rule mark" transform="translate(437.5,0)" x2="0" y2="540" stroke="black" stroke-width="0.2"></line><line aria-label="a: 1" role="graphics-symbol" aria-roledescription="rule mark" transform="translate(437.5,0)" x2="0" y2="540" stroke="black" stroke-width="0.2"></line><line aria-label="a: 1" role="graphics-symbol" aria-roledescription="rule mark" transform="translate(437.5,0)" x2="0" y2="540" stroke="black" stroke-width="0.2"></line><line aria-label="a: 1" role="graphics-symbol" aria-roledescription="rule mark" transform="translate(437.5,0)" x2="0" y2="540" stroke="black" stroke-width="0.2"></line><line aria-label="a: 1" role="graphics-symbol" aria-roledescription="rule mark" transform="translate(437.5,0)" x2="0" y2="540" stroke="black" stroke-width="0.2"></line><line aria-label="a: 1" role="graphics-symbol" aria-roledescription="rule mark" transform="translate(437.5,0)" x2="0" y2="540" stroke="black" stroke-width="0.2"></line><line aria-label="a: 1" role="graphics-symbol" aria-roledescription="rule mark" transform="translate(437.5,0)" x2="0" y2="540" stroke="black" stroke-width="0.2"></line><line aria-label="a: 1" role="graphics-symbol" aria-roledescription="rule mark" transform="translate(437.5,0)" x2="0" y2="540" stroke="black" stroke-width="0.2"></line><line aria-label="a: 1" role="graphics-symbol" aria-roledescription="rule mark" transform="translate(437.5,0)" x2="0" y2="540" stroke="black" stroke-width="0.2"></line><line aria-label="a: 1" role="graphics-symbol" aria-roledescription="rule mark" transform="translate(437.5,0)" x2="0" y2="540" stroke="black" stroke-width="0.2"></line><line aria-label="a: 1" role="graphics-symbol" aria-roledescription="rule mark" transform="translate(437.5,0)" x2="0" y2="540" stroke="black" stroke-width="0.2"></line></g><g class="mark-rule role-mark layer_2_marks" role="graphics-object" aria-roledescription="rule mark container"><line aria-label="CI 0.975: 0.539499731383; upper_Quantile.0.025(R): 0.656860982237; index: RJ; Quantile.0.975(R): 0.656860982237; Quantile.0.025(R): 0.539499731383" role="graphics-symbol" aria-roledescription="errorbar" transform="translate(34.56226496015055,370)" x2="102.69109449683265" y2="0" stroke="blue" stroke-width="0.6"></line><line aria-label="CI 0.975: 0.608477871605; upper_Quantile.0.025(R): 0.696220823633; index: BA; Quantile.0.975(R): 0.696220823633; Quantile.0.025(R): 0.608477871605" role="graphics-symbol" aria-roledescription="errorbar" transform="translate(94.9181376540449,90)" x2="76.77508302484969" y2="0" stroke="blue" stroke-width="0.6"></line><line aria-label="CI 0.975: 0.605652910108; upper_Quantile.0.025(R): 0.750913806584; index: GO; Quantile.0.975(R): 0.750913806584; Quantile.0.025(R): 0.605652910108" role="graphics-symbol" aria-roledescription="errorbar" transform="translate(92.44629634482673,170)" x2="127.10328441628145" y2="0" stroke="blue" stroke-width="0.6"></line><line aria-label="CI 0.975: 0.608078053911; upper_Quantile.0.025(R): 0.755483553694; index: PA; Quantile.0.975(R): 0.755483553694; Quantile.0.025(R): 0.608078053911" role="graphics-symbol" aria-roledescription="errorbar" transform="translate(94.56829717212024,270)" x2="128.97981230993224" y2="0" stroke="blue" stroke-width="0.6"></line><line aria-label="CI 0.975: 0.654385493483; upper_Quantile.0.025(R): 0.748387526559; index: PE; Quantile.0.975(R): 0.748387526559; Quantile.0.025(R): 0.654385493483" role="graphics-symbol" aria-roledescription="errorbar" transform="translate(135.08730679781104,310)" x2="82.2517789417378" y2="0" stroke="blue" stroke-width="0.6"></line><line aria-label="CI 0.975: 0.579269921231; upper_Quantile.0.025(R): 0.842628572566; index: SE; Quantile.0.975(R): 0.842628572566; Quantile.0.025(R): 0.579269921231" role="graphics-symbol" aria-roledescription="errorbar" transform="translate(69.36118107736588,490)" x2="230.43881991821178" y2="0" stroke="blue" stroke-width="0.6"></line><line aria-label="CI 0.975: 0.656410718223; upper_Quantile.0.025(R): 0.802517459771; index: RN; Quantile.0.975(R): 0.802517459771; Quantile.0.025(R): 0.656410718223" role="graphics-symbol" aria-roledescription="errorbar" transform="translate(136.8593784447273,390)" x2="127.8433988544617" y2="0" stroke="blue" stroke-width="0.6"></line><line aria-label="CI 0.975: 0.683622906479; upper_Quantile.0.025(R): 0.785934310327; index: SP; Quantile.0.975(R): 0.785934310327; Quantile.0.025(R): 0.683622906479" role="graphics-symbol" aria-roledescription="errorbar" transform="translate(160.67004316877987,510)" x2="89.52247836711686" y2="0" stroke="blue" stroke-width="0.6"></line><line aria-label="CI 0.975: 0.670520085401; upper_Quantile.0.025(R): 0.807381764341; index: MA; Quantile.0.975(R): 0.807381764341; Quantile.0.025(R): 0.670520085401" role="graphics-symbol" aria-roledescription="errorbar" transform="translate(149.2050747255366,190)" x2="119.75396907245309" y2="0" stroke="blue" stroke-width="0.6"></line><line aria-label="CI 0.975: 0.679137946497; upper_Quantile.0.025(R): 0.809800110711; index: MT; Quantile.0.975(R): 0.809800110711; Quantile.0.025(R): 0.679137946497" role="graphics-symbol" aria-roledescription="errorbar" transform="translate(156.7457031846836,250)" x2="114.32939368780703" y2="0" stroke="blue" stroke-width="0.6"></line><line aria-label="CI 0.975: 0.731440815876; upper_Quantile.0.025(R): 0.795322183234; index: MG; Quantile.0.975(R): 0.795322183234; Quantile.0.025(R): 0.731440815876" role="graphics-symbol" aria-roledescription="errorbar" transform="translate(202.51071389150937,210)" x2="55.89619643817545" y2="0" stroke="blue" stroke-width="0.6"></line><line aria-label="CI 0.975: 0.720710291252; upper_Quantile.0.025(R): 0.829106641446; index: DF; Quantile.0.975(R): 0.829106641446; Quantile.0.025(R): 0.720710291252" role="graphics-symbol" aria-roledescription="errorbar" transform="translate(193.12150484567275,130)" x2="94.84680641995436" y2="0" stroke="blue" stroke-width="0.6"></line><line aria-label="CI 0.975: 0.733374231183; upper_Quantile.0.025(R): 0.827617861209; index: PR; Quantile.0.975(R): 0.827617861209; Quantile.0.025(R): 0.733374231183" role="graphics-symbol" aria-roledescription="errorbar" transform="translate(204.20245228492493,350)" x2="82.46317627326076" y2="0" stroke="blue" stroke-width="0.6"></line><line aria-label="CI 0.975: 0.727931670195; upper_Quantile.0.025(R): 0.838444820178; index: AM; Quantile.0.975(R): 0.838444820178; Quantile.0.025(R): 0.727931670195" role="graphics-symbol" aria-roledescription="errorbar" transform="translate(199.4402114209254,50)" x2="96.69900623468706" y2="0" stroke="blue" stroke-width="0.6"></line><line aria-label="CI 0.975: 0.744840095013; upper_Quantile.0.025(R): 0.83572171646; index: CE; Quantile.0.975(R): 0.83572171646; Quantile.0.025(R): 0.744840095013" role="graphics-symbol" aria-roledescription="errorbar" transform="translate(214.23508313623364,110)" x2="79.52141876589212" y2="0" stroke="blue" stroke-width="0.6"></line><line aria-label="CI 0.975: 0.741119146904; upper_Quantile.0.025(R): 0.854045308188; index: TO; Quantile.0.975(R): 0.854045308188; Quantile.0.025(R): 0.741119146904" role="graphics-symbol" aria-roledescription="errorbar" transform="translate(210.97925354081505,530)" x2="98.81039112395555" y2="0" stroke="blue" stroke-width="0.6"></line><line aria-label="CI 0.975: 0.751678904445; upper_Quantile.0.025(R): 0.862297279649; index: RR; Quantile.0.975(R): 0.862297279649; Quantile.0.025(R): 0.751678904445" role="graphics-symbol" aria-roledescription="errorbar" transform="translate(220.2190413896452,430)" x2="96.79107830312785" y2="0" stroke="blue" stroke-width="0.6"></line><line aria-label="CI 0.975: 0.778763653006; upper_Quantile.0.025(R): 0.878249538012; index: PB; Quantile.0.975(R): 0.878249538012; Quantile.0.025(R): 0.778763653006" role="graphics-symbol" aria-roledescription="errorbar" transform="translate(243.91819638003173,290)" x2="87.05014938023172" y2="0" stroke="blue" stroke-width="0.6"></line><line aria-label="CI 0.975: 0.786310863085; upper_Quantile.0.025(R): 0.87196534712; index: PI; Quantile.0.975(R): 0.87196534712; Quantile.0.025(R): 0.786310863085" role="graphics-symbol" aria-roledescription="errorbar" transform="translate(250.52200519898932,330)" x2="74.9476735306911" y2="0" stroke="blue" stroke-width="0.6"></line><line aria-label="CI 0.975: 0.781357578967; upper_Quantile.0.025(R): 0.908960729943; index: RO; Quantile.0.975(R): 0.908960729943; Quantile.0.025(R): 0.781357578967" role="graphics-symbol" aria-roledescription="errorbar" transform="translate(246.1878815957534,410)" x2="111.6527571041486" y2="0" stroke="blue" stroke-width="0.6"></line><line aria-label="CI 0.975: 0.847911134391; upper_Quantile.0.025(R): 0.922618617184; index: MS; Quantile.0.975(R): 0.922618617184; Quantile.0.025(R): 0.847911134391" role="graphics-symbol" aria-roledescription="errorbar" transform="translate(304.42224259169603,230)" x2="65.36904744400528" y2="0" stroke="blue" stroke-width="0.6"></line><line aria-label="CI 0.975: 0.876284710271; upper_Quantile.0.025(R): 1.02925256057; index: AL; Quantile.0.975(R): 1.02925256057; Quantile.0.025(R): 0.876284710271" role="graphics-symbol" aria-roledescription="errorbar" transform="translate(329.24912148748354,30)" x2="133.8468690069597" y2="0" stroke="blue" stroke-width="0.6"></line><line aria-label="CI 0.975: 0.925918757305; upper_Quantile.0.025(R): 0.988406676715; index: RS; Quantile.0.975(R): 0.988406676715; Quantile.0.025(R): 0.925918757305" role="graphics-symbol" aria-roledescription="errorbar" transform="translate(372.67891264191144,450)" x2="54.67692948363316" y2="0" stroke="blue" stroke-width="0.6"></line><line aria-label="CI 0.975: 0.974970641906; upper_Quantile.0.025(R): 1.03732117178; index: ES; Quantile.0.975(R): 1.03732117178; Quantile.0.025(R): 0.974970641906" role="graphics-symbol" aria-roledescription="errorbar" transform="translate(415.5993116675102,150)" x2="54.5567136368183" y2="0" stroke="blue" stroke-width="0.6"></line><line aria-label="CI 0.975: 1.02697016617; upper_Quantile.0.025(R): 1.0936043513; index: SC; Quantile.0.975(R): 1.0936043513; Quantile.0.025(R): 1.02697016617" role="graphics-symbol" aria-roledescription="errorbar" transform="translate(461.0988953988778,470)" x2="58.30491198779902" y2="0" stroke="blue" stroke-width="0.6"></line><line aria-label="CI 0.975: 1.02600079078; upper_Quantile.0.025(R): 1.1942620431; index: AC; Quantile.0.975(R): 1.1942620431; Quantile.0.025(R): 1.02600079078" role="graphics-symbol" aria-roledescription="errorbar" transform="translate(460.25069193296315,10)" x2="147.22859577646375" y2="0" stroke="blue" stroke-width="0.6"></line><line aria-label="CI 0.975: 1.00372312259; upper_Quantile.0.025(R): 1.23447324521; index: AP; Quantile.0.975(R): 1.23447324521; Quantile.0.025(R): 1.00372312259" role="graphics-symbol" aria-roledescription="errorbar" transform="translate(440.757732268599,70)" x2="201.90635728687397" y2="0" stroke="blue" stroke-width="0.6"></line></g><g class="mark-group role-title"><g transform="translate(350,-17.2)"><path class="background" aria-hidden="true" d="M0,0h0v0h0Z" pointer-events="none"></path><g><g class="mark-text role-title-text" role="graphics-symbol" aria-roledescription="title" aria-label="Title text 'Instantaneous reproduction number estimate for all states in Brazil'" pointer-events="none"><text text-anchor="middle" transform="translate(0,10)" font-family="sans-serif" font-size="13px" font-weight="bold" fill="#000" opacity="1">Instantaneous reproduction number estimate for all states in Brazil</text></g></g><path class="foreground" aria-hidden="true" d="" pointer-events="none" display="none"></path></g></g></g><path class="foreground" aria-hidden="true" d="" display="none"></path></g></g></g></svg>