<svg class="marks" width="749" height="600" viewBox="0 0 749 600" version="1.1" xmlns="http://www.w3.org/2000/svg" xmlns:xlink="http://www.w3.org/1999/xlink"><rect width="749" height="600" fill="white"></rect><g fill="none" stroke-miterlimit="10" transform="translate(43,23)"><g class="mark-group role-frame root" role="graphics-object" aria-roledescription="group mark container"><g transform="translate(0,0)"><path class="background" aria-hidden="true" d="M0.5,0.5h700v540h-700Z"></path><g><g class="mark-group role-axis" aria-hidden="true"><g transform="translate(0.5,0.5)"><path class="background" aria-hidden="true" d="M0,0h0v0h0Z" pointer-events="none"></path><g><g class="mark-rule role-axis-grid" pointer-events="none"><line transform="translate(0,10)" x2="700" y2="0" stroke="#ddd" stroke-width="1" opacity="1"></line><line transform="translate(0,30)" x2="700" y2="0" stroke="#ddd" stroke-width="1" opacity="1"></line><line transform="translate(0,50)" x2="700" y2="0" stroke="#ddd" stroke-width="1" opacity="1"></line><line transform="translate(0,70)" x2="700" y2="0" stroke="#ddd" stroke-width="1" opacity="1"></line><line transform="translate(0,90)" x2="700" y2="0" stroke="#ddd" stroke-width="1" opacity="1"></line><line transform="translate(0,110)" x2="700" y2="0" stroke="#ddd" stroke-width="1" opacity="1"></line><line transform="translate(0,130)" x2="700" y2="0" stroke="#ddd" stroke-width="1" opacity="1"></line><line transform="translate(0,150)" x2="700" y2="0" stroke="#ddd" stroke-width="1" opacity="1"></line><line transform="translate(0,170)" x2="700" y2="0" stroke="#ddd" stroke-width="1" opacity="1"></line><line transform="translate(0,190)" x2="700" y2="0" stroke="#ddd" stroke-width="1" opacity="1"></line><line transform="translate(0,210)" x2="700" y2="0" stroke="#ddd" stroke-width="1" opacity="1"></line><line transform="translate(0,230)" x2="700" y2="0" stroke="#ddd" stroke-width="1" opacity="1"></line><line transform="translate(0,250)" x2="700" y2="0" stroke="#ddd" stroke-width="1" opacity="1"></line><line transform="translate(0,270)" x2="700" y2="0" stroke="#ddd" stroke-width="1" opacity="1"></line><line transform="translate(0,290)" x2="700" y2="0" stroke="#ddd" stroke-width="1" opacity="1"></line><line transform="translate(0,310)" x2="700" y2="0" stroke="#ddd" stroke-width="1" opacity="1"></line><line transform="translate(0,330)" x2="700" y2="0" stroke="#ddd" stroke-width="1" opacity="1"></line><line transform="translate(0,350)" x2="700" y2="0" stroke="#ddd" stroke-width="1" opacity="1"></line><line transform="translate(0,370)" x2="700" y2="0" stroke="#ddd" stroke-width="1" opacity="1"></line><line transform="translate(0,390)" x2="700" y2="0" stroke="#ddd" stroke-width="1" opacity="1"></line><line transform="translate(0,410)" x2="700" y2="0" stroke="#ddd" stroke-width="1" opacity="1"></line><line transform="translate(0,430)" x2="700" y2="0" stroke="#ddd" stroke-width="1" opacity="1"></line><line transform="translate(0,450)" x2="700" y2="0" stroke="#ddd" stroke-width="1" opacity="1"></line><line transform="translate(0,470)" x2="700" y2="0" stroke="#ddd" stroke-width="1" opacity="1"></line><line transform="translate(0,490)" x2="700" y2="0" stroke="#ddd" stroke-width="1" opacity="1"></line><line transform="translate(0,510)" x2="700" y2="0" stroke="#ddd" stroke-width="1" opacity="1"></line><line transform="translate(0,530)" x2="700" y2="0" stroke="#ddd" stroke-width="1" opacity="1"></line></g></g><path class="foreground" aria-hidden="true" d="" pointer-events="none" display="none"></path></g></g><g class="mark-group role-axis" role="graphics-symbol" aria-roledescription="axis" aria-label="X-axis titled 'Instantaneous reproduction number R(t), CI 0.975' for a linear scale with values from 0.7 to 1.4"><g transform="translate(0.5,540.5)"><path class="background" aria-hidden="true" d="M0,0h0v0h0Z" pointer-events="none"></path><g><g class="mark-rule role-axis-tick" pointer-events="none"><line transform="translate(0,0)" x2="0" y2="5" stroke="#888" stroke-width="1" opacity="1"></line><line transform="translate(50,0)" x2="0" y2="5" stroke="#888" stroke-width="1" opacity="1"></line><line transform="translate(100,0)" x2="0" y2="5" stroke="#888" stroke-width="1" opacity="1"></line><line transform="translate(150,0)" x2="0" y2="5" stroke="#888" stroke-width="1" opacity="1"></line><line transform="translate(200,0)" x2="0" y2="5" stroke="#888" stroke-width="1" opacity="1"></line><line transform="translate(250,0)" x2="0" y2="5" stroke="#888" stroke-width="1" opacity="1"></line><line transform="translate(300,0)" x2="0" y2="5" stroke="#888" stroke-width="1" opacity="1"></line><line transform="translate(350,0)" x2="0" y2="5" stroke="#888" stroke-width="1" opacity="1"></line><line transform="translate(400,0)" x2="0" y2="5" stroke="#888" stroke-width="1" opacity="1"></line><line transform="translate(450,0)" x2="0" y2="5" stroke="#888" stroke-width="1" opacity="1"></line><line transform="translate(500,0)" x2="0" y2="5" stroke="#888" stroke-width="1" opacity="1"></line><line transform="translate(550,0)" x2="0" y2="5" stroke="#888" stroke-width="1" opacity="1"></line><line transform="translate(600,0)" x2="0" y2="5" stroke="#888" stroke-width="1" opacity="1"></line><line transform="translate(650,0)" x2="0" y2="5" stroke="#888" stroke-width="1" opacity="1"></line><line transform="translate(700,0)" x2="0" y2="5" stroke="#888" stroke-width="1" opacity="1"></line></g><g class="mark-text role-axis-label" pointer-events="none"><text text-anchor="start" transform="translate(0,15)" font-family="sans-serif" font-size="10px" fill="#000" opacity="1">0.65</text><text text-anchor="middle" transform="translate(49.99999999999993,15)" font-family="sans-serif" font-size="10px" fill="#000" opacity="1">0.70</text><text text-anchor="middle" transform="translate(99.99999999999997,15)" font-family="sans-serif" font-size="10px" fill="#000" opacity="1">0.75</text><text text-anchor="middle" transform="translate(150,15)" font-family="sans-serif" font-size="10px" fill="#000" opacity="1">0.80</text><text text-anchor="middle" transform="translate(199.99999999999994,15)" font-family="sans-serif" font-size="10px" fill="#000" opacity="1">0.85</text><text text-anchor="middle" transform="translate(249.99999999999997,15)" font-family="sans-serif" font-size="10px" fill="#000" opacity="1">0.90</text><text text-anchor="middle" transform="translate(299.9999999999999,15)" font-family="sans-serif" font-size="10px" fill="#000" opacity="1">0.95</text><text text-anchor="middle" transform="translate(349.99999999999994,15)" font-family="sans-serif" font-size="10px" fill="#000" opacity="1">1.00</text><text text-anchor="middle" transform="translate(400,15)" font-family="sans-serif" font-size="10px" fill="#000" opacity="1">1.05</text><text text-anchor="middle" transform="translate(450.00000000000006,15)" font-family="sans-serif" font-size="10px" fill="#000" opacity="1">1.10</text><text text-anchor="middle" transform="translate(499.99999999999983,15)" font-family="sans-serif" font-size="10px" fill="#000" opacity="1">1.15</text><text text-anchor="middle" transform="translate(549.9999999999999,15)" font-family="sans-serif" font-size="10px" fill="#000" opacity="1">1.20</text><text text-anchor="middle" transform="translate(599.9999999999999,15)" font-family="sans-serif" font-size="10px" fill="#000" opacity="1">1.25</text><text text-anchor="middle" transform="translate(650,15)" font-family="sans-serif" font-size="10px" fill="#000" opacity="1">1.30</text><text text-anchor="end" transform="translate(700,15)" font-family="sans-serif" font-size="10px" fill="#000" opacity="1">1.35</text></g><g class="mark-rule role-axis-domain" pointer-events="none"><line transform="translate(0,0)" x2="700" y2="0" stroke="#888" stroke-width="1" opacity="1"></line></g><g class="mark-text role-axis-title" pointer-events="none"><text text-anchor="middle" transform="translate(350,30)" font-family="sans-serif" font-size="11px" font-weight="bold" fill="#000" opacity="1">Instantaneous reproduction number R(t), CI 0.975</text></g></g><path class="foreground" aria-hidden="true" d="" pointer-events="none" display="none"></path></g></g><g class="mark-group role-axis" role="graphics-symbol" aria-roledescription="axis" aria-label="Y-axis titled 'States' for a discrete scale with 27 values: AC, AL, AM, AP, BA, ending with TO"><g transform="translate(0.5,0.5)"><path class="background" aria-hidden="true" d="M0,0h0v0h0Z" pointer-events="none"></path><g><g class="mark-rule role-axis-tick" pointer-events="none"><line transform="translate(0,10)" x2="-5" y2="0" stroke="#888" stroke-width="1" opacity="1"></line><line transform="translate(0,30)" x2="-5" y2="0" stroke="#888" stroke-width="1" opacity="1"></line><line transform="translate(0,50)" x2="-5" y2="0" stroke="#888" stroke-width="1" opacity="1"></line><line transform="translate(0,70)" x2="-5" y2="0" stroke="#888" stroke-width="1" opacity="1"></line><line transform="translate(0,90)" x2="-5" y2="0" stroke="#888" stroke-width="1" opacity="1"></line><line transform="translate(0,110)" x2="-5" y2="0" stroke="#888" stroke-width="1" opacity="1"></line><line transform="translate(0,130)" x2="-5" y2="0" stroke="#888" stroke-width="1" opacity="1"></line><line transform="translate(0,150)" x2="-5" y2="0" stroke="#888" stroke-width="1" opacity="1"></line><line transform="translate(0,170)" x2="-5" y2="0" stroke="#888" stroke-width="1" opacity="1"></line><line transform="translate(0,190)" x2="-5" y2="0" stroke="#888" stroke-width="1" opacity="1"></line><line transform="translate(0,210)" x2="-5" y2="0" stroke="#888" stroke-width="1" opacity="1"></line><line transform="translate(0,230)" x2="-5" y2="0" stroke="#888" stroke-width="1" opacity="1"></line><line transform="translate(0,250)" x2="-5" y2="0" stroke="#888" stroke-width="1" opacity="1"></line><line transform="translate(0,270)" x2="-5" y2="0" stroke="#888" stroke-width="1" opacity="1"></line><line transform="translate(0,290)" x2="-5" y2="0" stroke="#888" stroke-width="1" opacity="1"></line><line transform="translate(0,310)" x2="-5" y2="0" stroke="#888" stroke-width="1" opacity="1"></line><line transform="translate(0,330)" x2="-5" y2="0" stroke="#888" stroke-width="1" opacity="1"></line><line transform="translate(0,350)" x2="-5" y2="0" stroke="#888" stroke-width="1" opacity="1"></line><line transform="translate(0,370)" x2="-5" y2="0" stroke="#888" stroke-width="1" opacity="1"></line><line transform="translate(0,390)" x2="-5" y2="0" stroke="#888" stroke-width="1" opacity="1"></line><line transform="translate(0,410)" x2="-5" y2="0" stroke="#888" stroke-width="1" opacity="1"></line><line transform="translate(0,430)" x2="-5" y2="0" stroke="#888" stroke-width="1" opacity="1"></line><line transform="translate(0,450)" x2="-5" y2="0" stroke="#888" stroke-width="1" opacity="1"></line><line transform="translate(0,470)" x2="-5" y2="0" stroke="#888" stroke-width="1" opacity="1"></line><line transform="translate(0,490)" x2="-5" y2="0" stroke="#888" stroke-width="1" opacity="1"></line><line transform="translate(0,510)" x2="-5" y2="0" stroke="#888" stroke-width="1" opacity="1"></line><line transform="translate(0,530)" x2="-5" y2="0" stroke="#888" stroke-width="1" opacity="1"></line></g><g class="mark-text role-axis-label" pointer-events="none"><text text-anchor="end" transform="translate(-7,12.5)" font-family="sans-serif" font-size="10px" fill="#000" opacity="1">AC</text><text text-anchor="end" transform="translate(-7,32.5)" font-family="sans-serif" font-size="10px" fill="#000" opacity="1">AL</text><text text-anchor="end" transform="translate(-7,52.5)" font-family="sans-serif" font-size="10px" fill="#000" opacity="1">AM</text><text text-anchor="end" transform="translate(-7,72.5)" font-family="sans-serif" font-size="10px" fill="#000" opacity="1">AP</text><text text-anchor="end" transform="translate(-7,92.5)" font-family="sans-serif" font-size="10px" fill="#000" opacity="1">BA</text><text text-anchor="end" transform="translate(-7,112.5)" font-family="sans-serif" font-size="10px" fill="#000" opacity="1">CE</text><text text-anchor="end" transform="translate(-7,132.5)" font-family="sans-serif" font-size="10px" fill="#000" opacity="1">DF</text><text text-anchor="end" transform="translate(-7,152.5)" font-family="sans-serif" font-size="10px" fill="#000" opacity="1">ES</text><text text-anchor="end" transform="translate(-7,172.5)" font-family="sans-serif" font-size="10px" fill="#000" opacity="1">GO</text><text text-anchor="end" transform="translate(-7,192.5)" font-family="sans-serif" font-size="10px" fill="#000" opacity="1">MA</text><text text-anchor="end" transform="translate(-7,212.5)" font-family="sans-serif" font-size="10px" fill="#000" opacity="1">MG</text><text text-anchor="end" transform="translate(-7,232.5)" font-family="sans-serif" font-size="10px" fill="#000" opacity="1">MS</text><text text-anchor="end" transform="translate(-7,252.5)" font-family="sans-serif" font-size="10px" fill="#000" opacity="1">MT</text><text text-anchor="end" transform="translate(-7,272.5)" font-family="sans-serif" font-size="10px" fill="#000" opacity="1">PA</text><text text-anchor="end" transform="translate(-7,292.5)" font-family="sans-serif" font-size="10px" fill="#000" opacity="1">PB</text><text text-anchor="end" transform="translate(-7,312.5)" font-family="sans-serif" font-size="10px" fill="#000" opacity="1">PE</text><text text-anchor="end" transform="translate(-7,332.5)" font-family="sans-serif" font-size="10px" fill="#000" opacity="1">PI</text><text text-anchor="end" transform="translate(-7,352.5)" font-family="sans-serif" font-size="10px" fill="#000" opacity="1">PR</text><text text-anchor="end" transform="translate(-7,372.5)" font-family="sans-serif" font-size="10px" fill="#000" opacity="1">RJ</text><text text-anchor="end" transform="translate(-7,392.5)" font-family="sans-serif" font-size="10px" fill="#000" opacity="1">RN</text><text text-anchor="end" transform="translate(-7,412.5)" font-family="sans-serif" font-size="10px" fill="#000" opacity="1">RO</text><text text-anchor="end" transform="translate(-7,432.5)" font-family="sans-serif" font-size="10px" fill="#000" opacity="1">RR</text><text text-anchor="end" transform="translate(-7,452.5)" font-family="sans-serif" font-size="10px" fill="#000" opacity="1">RS</text><text text-anchor="end" transform="translate(-7,472.5)" font-family="sans-serif" font-size="10px" fill="#000" opacity="1">SC</text><text text-anchor="end" transform="translate(-7,492.5)" font-family="sans-serif" font-size="10px" fill="#000" opacity="1">SE</text><text text-anchor="end" transform="translate(-7,512.5)" font-family="sans-serif" font-size="10px" fill="#000" opacity="1">SP</text><text text-anchor="end" transform="translate(-7,532.5)" font-family="sans-serif" font-size="10px" fill="#000" opacity="1">TO</text></g><g class="mark-rule role-axis-domain" pointer-events="none"><line transform="translate(0,0)" x2="0" y2="540" stroke="#888" stroke-width="1" opacity="1"></line></g><g class="mark-text role-axis-title" pointer-events="none"><text text-anchor="middle" transform="translate(-27,270) rotate(-90) translate(0,-2)" font-family="sans-serif" font-size="11px" font-weight="bold" fill="#000" opacity="1">States</text></g></g><path class="foreground" aria-hidden="true" d="" pointer-events="none" display="none"></path></g></g><g class="mark-symbol role-mark layer_0_marks" role="graphics-object" aria-roledescription="symbol mark container"><path aria-label="Instantaneous reproduction number R(t): 0.711140906683; States: SE" role="graphics-symbol" aria-roledescription="point" transform="translate(61.1409066830969,490)" d="M2.7386127875258306,0A2.7386127875258306,2.7386127875258306,0,1,1,-2.7386127875258306,0A2.7386127875258306,2.7386127875258306,0,1,1,2.7386127875258306,0" stroke="#4c78a8" stroke-width="2" opacity="0.7"></path><path aria-label="Instantaneous reproduction number R(t): 0.823127945013; States: PE" role="graphics-symbol" aria-roledescription="point" transform="translate(173.12794501263662,310)" d="M2.7386127875258306,0A2.7386127875258306,2.7386127875258306,0,1,1,-2.7386127875258306,0A2.7386127875258306,2.7386127875258306,0,1,1,2.7386127875258306,0" stroke="#4c78a8" stroke-width="2" opacity="0.7"></path><path aria-label="Instantaneous reproduction number R(t): 0.823296752256; States: RN" role="graphics-symbol" aria-roledescription="point" transform="translate(173.2967522558192,390)" d="M2.7386127875258306,0A2.7386127875258306,2.7386127875258306,0,1,1,-2.7386127875258306,0A2.7386127875258306,2.7386127875258306,0,1,1,2.7386127875258306,0" stroke="#4c78a8" stroke-width="2" opacity="0.7"></path><path aria-label="Instantaneous reproduction number R(t): 0.839123288147; States: PR" role="graphics-symbol" aria-roledescription="point" transform="translate(189.12328814699575,350)" d="M2.7386127875258306,0A2.7386127875258306,2.7386127875258306,0,1,1,-2.7386127875258306,0A2.7386127875258306,2.7386127875258306,0,1,1,2.7386127875258306,0" stroke="#4c78a8" stroke-width="2" opacity="0.7"></path><path aria-label="Instantaneous reproduction number R(t): 0.86627617659; States: PB" role="graphics-symbol" aria-roledescription="point" transform="translate(216.27617658973975,290)" d="M2.7386127875258306,0A2.7386127875258306,2.7386127875258306,0,1,1,-2.7386127875258306,0A2.7386127875258306,2.7386127875258306,0,1,1,2.7386127875258306,0" stroke="#4c78a8" stroke-width="2" opacity="0.7"></path><path aria-label="Instantaneous reproduction number R(t): 0.876093473477; States: AM" role="graphics-symbol" aria-roledescription="point" transform="translate(226.09347347681117,50)" d="M2.7386127875258306,0A2.7386127875258306,2.7386127875258306,0,1,1,-2.7386127875258306,0A2.7386127875258306,2.7386127875258306,0,1,1,2.7386127875258306,0" stroke="#4c78a8" stroke-width="2" opacity="0.7"></path><path aria-label="Instantaneous reproduction number R(t): 0.917302033006; States: CE" role="graphics-symbol" aria-roledescription="point" transform="translate(267.30203300604035,110)" d="M2.7386127875258306,0A2.7386127875258306,2.7386127875258306,0,1,1,-2.7386127875258306,0A2.7386127875258306,2.7386127875258306,0,1,1,2.7386127875258306,0" stroke="#4c78a8" stroke-width="2" opacity="0.7"></path><path aria-label="Instantaneous reproduction number R(t): 0.923905053244; States: AL" role="graphics-symbol" aria-roledescription="point" transform="translate(273.9050532442569,30)" d="M2.7386127875258306,0A2.7386127875258306,2.7386127875258306,0,1,1,-2.7386127875258306,0A2.7386127875258306,2.7386127875258306,0,1,1,2.7386127875258306,0" stroke="#4c78a8" stroke-width="2" opacity="0.7"></path><path aria-label="Instantaneous reproduction number R(t): 0.943854111768; States: SP" role="graphics-symbol" aria-roledescription="point" transform="translate(293.854111767896,510)" d="M2.7386127875258306,0A2.7386127875258306,2.7386127875258306,0,1,1,-2.7386127875258306,0A2.7386127875258306,2.7386127875258306,0,1,1,2.7386127875258306,0" stroke="#4c78a8" stroke-width="2" opacity="0.7"></path><path aria-label="Instantaneous reproduction number R(t): 0.959607457945; States: RR" role="graphics-symbol" aria-roledescription="point" transform="translate(309.6074579445967,430)" d="M2.7386127875258306,0A2.7386127875258306,2.7386127875258306,0,1,1,-2.7386127875258306,0A2.7386127875258306,2.7386127875258306,0,1,1,2.7386127875258306,0" stroke="#4c78a8" stroke-width="2" opacity="0.7"></path><path aria-label="Instantaneous reproduction number R(t): 0.978317748643; States: SC" role="graphics-symbol" aria-roledescription="point" transform="translate(328.3177486431683,470)" d="M2.7386127875258306,0A2.7386127875258306,2.7386127875258306,0,1,1,-2.7386127875258306,0A2.7386127875258306,2.7386127875258306,0,1,1,2.7386127875258306,0" stroke="#4c78a8" stroke-width="2" opacity="0.7"></path><path aria-label="Instantaneous reproduction number R(t): 1.00007709754; States: BA" role="graphics-symbol" aria-roledescription="point" transform="translate(350.07709754118736,90)" d="M2.7386127875258306,0A2.7386127875258306,2.7386127875258306,0,1,1,-2.7386127875258306,0A2.7386127875258306,2.7386127875258306,0,1,1,2.7386127875258306,0" stroke="#4c78a8" stroke-width="2" opacity="0.7"></path><path aria-label="Instantaneous reproduction number R(t): 1.00663716797; States: RO" role="graphics-symbol" aria-roledescription="point" transform="translate(356.63716797226186,410)" d="M2.7386127875258306,0A2.7386127875258306,2.7386127875258306,0,1,1,-2.7386127875258306,0A2.7386127875258306,2.7386127875258306,0,1,1,2.7386127875258306,0" stroke="#4c78a8" stroke-width="2" opacity="0.7"></path><path aria-label="Instantaneous reproduction number R(t): 1.01895917664; States: MT" role="graphics-symbol" aria-roledescription="point" transform="translate(368.9591766408321,250)" d="M2.7386127875258306,0A2.7386127875258306,2.7386127875258306,0,1,1,-2.7386127875258306,0A2.7386127875258306,2.7386127875258306,0,1,1,2.7386127875258306,0" stroke="#4c78a8" stroke-width="2" opacity="0.7"></path><path aria-label="Instantaneous reproduction number R(t): 1.02092250444; States: DF" role="graphics-symbol" aria-roledescription="point" transform="translate(370.9225044372949,130)" d="M2.7386127875258306,0A2.7386127875258306,2.7386127875258306,0,1,1,-2.7386127875258306,0A2.7386127875258306,2.7386127875258306,0,1,1,2.7386127875258306,0" stroke="#4c78a8" stroke-width="2" opacity="0.7"></path><path aria-label="Instantaneous reproduction number R(t): 1.02290086002; States: AC" role="graphics-symbol" aria-roledescription="point" transform="translate(372.90086002139356,10)" d="M2.7386127875258306,0A2.7386127875258306,2.7386127875258306,0,1,1,-2.7386127875258306,0A2.7386127875258306,2.7386127875258306,0,1,1,2.7386127875258306,0" stroke="#4c78a8" stroke-width="2" opacity="0.7"></path><path aria-label="Instantaneous reproduction number R(t): 1.02388804187; States: MS" role="graphics-symbol" aria-roledescription="point" transform="translate(373.888041873908,230)" d="M2.7386127875258306,0A2.7386127875258306,2.7386127875258306,0,1,1,-2.7386127875258306,0A2.7386127875258306,2.7386127875258306,0,1,1,2.7386127875258306,0" stroke="#4c78a8" stroke-width="2" opacity="0.7"></path><path aria-label="Instantaneous reproduction number R(t): 1.02835330152; States: MA" role="graphics-symbol" aria-roledescription="point" transform="translate(378.35330152116853,190)" d="M2.7386127875258306,0A2.7386127875258306,2.7386127875258306,0,1,1,-2.7386127875258306,0A2.7386127875258306,2.7386127875258306,0,1,1,2.7386127875258306,0" stroke="#4c78a8" stroke-width="2" opacity="0.7"></path><path aria-label="Instantaneous reproduction number R(t): 1.04339893364; States: MG" role="graphics-symbol" aria-roledescription="point" transform="translate(393.39893363521975,210)" d="M2.7386127875258306,0A2.7386127875258306,2.7386127875258306,0,1,1,-2.7386127875258306,0A2.7386127875258306,2.7386127875258306,0,1,1,2.7386127875258306,0" stroke="#4c78a8" stroke-width="2" opacity="0.7"></path><path aria-label="Instantaneous reproduction number R(t): 1.04483908056; States: RJ" role="graphics-symbol" aria-roledescription="point" transform="translate(394.8390805598899,370)" d="M2.7386127875258306,0A2.7386127875258306,2.7386127875258306,0,1,1,-2.7386127875258306,0A2.7386127875258306,2.7386127875258306,0,1,1,2.7386127875258306,0" stroke="#4c78a8" stroke-width="2" opacity="0.7"></path><path aria-label="Instantaneous reproduction number R(t): 1.06599392436; States: PI" role="graphics-symbol" aria-roledescription="point" transform="translate(415.993924359599,330)" d="M2.7386127875258306,0A2.7386127875258306,2.7386127875258306,0,1,1,-2.7386127875258306,0A2.7386127875258306,2.7386127875258306,0,1,1,2.7386127875258306,0" stroke="#4c78a8" stroke-width="2" opacity="0.7"></path><path aria-label="Instantaneous reproduction number R(t): 1.06680166403; States: ES" role="graphics-symbol" aria-roledescription="point" transform="translate(416.80166402994416,150)" d="M2.7386127875258306,0A2.7386127875258306,2.7386127875258306,0,1,1,-2.7386127875258306,0A2.7386127875258306,2.7386127875258306,0,1,1,2.7386127875258306,0" stroke="#4c78a8" stroke-width="2" opacity="0.7"></path><path aria-label="Instantaneous reproduction number R(t): 1.09099915685; States: GO" role="graphics-symbol" aria-roledescription="point" transform="translate(440.99915684761305,170)" d="M2.7386127875258306,0A2.7386127875258306,2.7386127875258306,0,1,1,-2.7386127875258306,0A2.7386127875258306,2.7386127875258306,0,1,1,2.7386127875258306,0" stroke="#4c78a8" stroke-width="2" opacity="0.7"></path><path aria-label="Instantaneous reproduction number R(t): 1.09314051874; States: AP" role="graphics-symbol" aria-roledescription="point" transform="translate(443.14051874270274,70)" d="M2.7386127875258306,0A2.7386127875258306,2.7386127875258306,0,1,1,-2.7386127875258306,0A2.7386127875258306,2.7386127875258306,0,1,1,2.7386127875258306,0" stroke="#4c78a8" stroke-width="2" opacity="0.7"></path><path aria-label="Instantaneous reproduction number R(t): 1.1273305896; States: RS" role="graphics-symbol" aria-roledescription="point" transform="translate(477.3305895950345,450)" d="M2.7386127875258306,0A2.7386127875258306,2.7386127875258306,0,1,1,-2.7386127875258306,0A2.7386127875258306,2.7386127875258306,0,1,1,2.7386127875258306,0" stroke="#4c78a8" stroke-width="2" opacity="0.7"></path><path aria-label="Instantaneous reproduction number R(t): 1.18592817531; States: TO" role="graphics-symbol" aria-roledescription="point" transform="translate(535.9281753103918,530)" d="M2.7386127875258306,0A2.7386127875258306,2.7386127875258306,0,1,1,-2.7386127875258306,0A2.7386127875258306,2.7386127875258306,0,1,1,2.7386127875258306,0" stroke="#4c78a8" stroke-width="2" opacity="0.7"></path><path aria-label="Instantaneous reproduction number R(t): 1.26208309794; States: PA" role="graphics-symbol" aria-roledescription="point" transform="translate(612.0830979441998,270)" d="M2.7386127875258306,0A2.7386127875258306,2.7386127875258306,0,1,1,-2.7386127875258306,0A2.7386127875258306,2.7386127875258306,0,1,1,2.7386127875258306,0" stroke="#4c78a8" stroke-width="2" opacity="0.7"></path></g><g class="mark-rule role-mark layer_1_marks" role="graphics-object" aria-roledescription="rule mark container"><line aria-label="a: 1" role="graphics-symbol" aria-roledescription="rule mark" transform="translate(349.99999999999994,0)" x2="0" y2="540" stroke="black" stroke-width="0.2"></line><line aria-label="a: 1" role="graphics-symbol" aria-roledescription="rule mark" transform="translate(349.99999999999994,0)" x2="0" y2="540" stroke="black" stroke-width="0.2"></line><line aria-label="a: 1" role="graphics-symbol" aria-roledescription="rule mark" transform="translate(349.99999999999994,0)" x2="0" y2="540" stroke="black" stroke-width="0.2"></line><line aria-label="a: 1" role="graphics-symbol" aria-roledescription="rule mark" transform="translate(349.99999999999994,0)" x2="0" y2="540" stroke="black" stroke-width="0.2"></line><line aria-label="a: 1" role="graphics-symbol" aria-roledescription="rule mark" transform="translate(349.99999999999994,0)" x2="0" y2="540" stroke="black" stroke-width="0.2"></line><line aria-label="a: 1" role="graphics-symbol" aria-roledescription="rule mark" transform="translate(349.99999999999994,0)" x2="0" y2="540" stroke="black" stroke-width="0.2"></line><line aria-label="a: 1" role="graphics-symbol" aria-roledescription="rule mark" transform="translate(349.99999999999994,0)" x2="0" y2="540" stroke="black" stroke-width="0.2"></line><line aria-label="a: 1" role="graphics-symbol" aria-roledescription="rule mark" transform="translate(349.99999999999994,0)" x2="0" y2="540" stroke="black" stroke-width="0.2"></line><line aria-label="a: 1" role="graphics-symbol" aria-roledescription="rule mark" transform="translate(349.99999999999994,0)" x2="0" y2="540" stroke="black" stroke-width="0.2"></line><line aria-label="a: 1" role="graphics-symbol" aria-roledescription="rule mark" transform="translate(349.99999999999994,0)" x2="0" y2="540" stroke="black" stroke-width="0.2"></line><line aria-label="a: 1" role="graphics-symbol" aria-roledescription="rule mark" transform="translate(349.99999999999994,0)" x2="0" y2="540" stroke="black" stroke-width="0.2"></line><line aria-label="a: 1" role="graphics-symbol" aria-roledescription="rule mark" transform="translate(349.99999999999994,0)" x2="0" y2="540" stroke="black" stroke-width="0.2"></line><line aria-label="a: 1" role="graphics-symbol" aria-roledescription="rule mark" transform="translate(349.99999999999994,0)" x2="0" y2="540" stroke="black" stroke-width="0.2"></line><line aria-label="a: 1" role="graphics-symbol" aria-roledescription="rule mark" transform="translate(349.99999999999994,0)" x2="0" y2="540" stroke="black" stroke-width="0.2"></line><line aria-label="a: 1" role="graphics-symbol" aria-roledescription="rule mark" transform="translate(349.99999999999994,0)" x2="0" y2="540" stroke="black" stroke-width="0.2"></line><line aria-label="a: 1" role="graphics-symbol" aria-roledescription="rule mark" transform="translate(349.99999999999994,0)" x2="0" y2="540" stroke="black" stroke-width="0.2"></line><line aria-label="a: 1" role="graphics-symbol" aria-roledescription="rule mark" transform="translate(349.99999999999994,0)" x2="0" y2="540" stroke="black" stroke-width="0.2"></line><line aria-label="a: 1" role="graphics-symbol" aria-roledescription="rule mark" transform="translate(349.99999999999994,0)" x2="0" y2="540" stroke="black" stroke-width="0.2"></line><line aria-label="a: 1" role="graphics-symbol" aria-roledescription="rule mark" transform="translate(349.99999999999994,0)" x2="0" y2="540" stroke="black" stroke-width="0.2"></line><line aria-label="a: 1" role="graphics-symbol" aria-roledescription="rule mark" transform="translate(349.99999999999994,0)" x2="0" y2="540" stroke="black" stroke-width="0.2"></line><line aria-label="a: 1" role="graphics-symbol" aria-roledescription="rule mark" transform="translate(349.99999999999994,0)" x2="0" y2="540" stroke="black" stroke-width="0.2"></line><line aria-label="a: 1" role="graphics-symbol" aria-roledescription="rule mark" transform="translate(349.99999999999994,0)" x2="0" y2="540" stroke="black" stroke-width="0.2"></line><line aria-label="a: 1" role="graphics-symbol" aria-roledescription="rule mark" transform="translate(349.99999999999994,0)" x2="0" y2="540" stroke="black" stroke-width="0.2"></line><line aria-label="a: 1" role="graphics-symbol" aria-roledescription="rule mark" transform="translate(349.99999999999994,0)" x2="0" y2="540" stroke="black" stroke-width="0.2"></line><line aria-label="a: 1" role="graphics-symbol" aria-roledescription="rule mark" transform="translate(349.99999999999994,0)" x2="0" y2="540" stroke="black" stroke-width="0.2"></line><line aria-label="a: 1" role="graphics-symbol" aria-roledescription="rule mark" transform="translate(349.99999999999994,0)" x2="0" y2="540" stroke="black" stroke-width="0.2"></line><line aria-label="a: 1" role="graphics-symbol" aria-roledescription="rule mark" transform="translate(349.99999999999994,0)" x2="0" y2="540" stroke="black" stroke-width="0.2"></line></g><g class="mark-rule role-mark layer_2_marks" role="graphics-object" aria-roledescription="rule mark container"><line aria-label="CI 0.975: 0.654614404413; upper_Quantile.0.025(R): 0.770170328214; index: SE; Quantile.0.975(R): 0.770170328214; Quantile.0.025(R): 0.654614404413" role="graphics-symbol" aria-roledescription="errorbar" transform="translate(4.614404413311512,490)" x2="115.55592380113865" y2="0" stroke="blue" stroke-width="0.6"></line><line aria-label="CI 0.975: 0.778810818534; upper_Quantile.0.025(R): 0.870653824749; index: PE; Quantile.0.975(R): 0.870653824749; Quantile.0.025(R): 0.778810818534" role="graphics-symbol" aria-roledescription="errorbar" transform="translate(128.81081853412346,310)" x2="91.84300621488848" y2="0" stroke="blue" stroke-width="0.6"></line><line aria-label="CI 0.975: 0.794754664475; upper_Quantile.0.025(R): 0.852151726812; index: RN; Quantile.0.975(R): 0.852151726812; Quantile.0.025(R): 0.794754664475" role="graphics-symbol" aria-roledescription="errorbar" transform="translate(144.75466447515416,390)" x2="57.397062337031" y2="0" stroke="blue" stroke-width="0.6"></line><line aria-label="CI 0.975: 0.816392606878; upper_Quantile.0.025(R): 0.863621908388; index: PR; Quantile.0.975(R): 0.863621908388; Quantile.0.025(R): 0.816392606878" role="graphics-symbol" aria-roledescription="errorbar" transform="translate(166.39260687787535,350)" x2="47.229301510408504" y2="0" stroke="blue" stroke-width="0.6"></line><line aria-label="CI 0.975: 0.82370344217; upper_Quantile.0.025(R): 0.913208042402; index: PB; Quantile.0.975(R): 0.913208042402; Quantile.0.025(R): 0.82370344217" role="graphics-symbol" aria-roledescription="errorbar" transform="translate(173.70344216964915,290)" x2="89.50460023220742" y2="0" stroke="blue" stroke-width="0.6"></line><line aria-label="CI 0.975: 0.84051121397; upper_Quantile.0.025(R): 0.91168052649; index: AM; Quantile.0.975(R): 0.91168052649; Quantile.0.025(R): 0.84051121397" role="graphics-symbol" aria-roledescription="errorbar" transform="translate(190.51121396972857,50)" x2="71.1693125197875" y2="0" stroke="blue" stroke-width="0.6"></line><line aria-label="CI 0.975: 0.865552807456; upper_Quantile.0.025(R): 0.974355475176; index: CE; Quantile.0.975(R): 0.974355475176; Quantile.0.025(R): 0.865552807456" role="graphics-symbol" aria-roledescription="errorbar" transform="translate(215.55280745640803,110)" x2="108.80266771944432" y2="0" stroke="blue" stroke-width="0.6"></line><line aria-label="CI 0.975: 0.893930650363; upper_Quantile.0.025(R): 0.952869270288; index: AL; Quantile.0.975(R): 0.952869270288; Quantile.0.025(R): 0.893930650363" role="graphics-symbol" aria-roledescription="errorbar" transform="translate(243.93065036340374,30)" x2="58.938619924357226" y2="0" stroke="blue" stroke-width="0.6"></line><line aria-label="CI 0.975: 0.91040487125; upper_Quantile.0.025(R): 0.989604219837; index: SP; Quantile.0.975(R): 0.989604219837; Quantile.0.025(R): 0.91040487125" role="graphics-symbol" aria-roledescription="errorbar" transform="translate(260.40487124958685,510)" x2="79.1993485876884" y2="0" stroke="blue" stroke-width="0.6"></line><line aria-label="CI 0.975: 0.917597961172; upper_Quantile.0.025(R): 1.00359886823; index: RR; Quantile.0.975(R): 1.00359886823; Quantile.0.025(R): 0.917597961172" role="graphics-symbol" aria-roledescription="errorbar" transform="translate(267.5979611722567,430)" x2="86.00090705621062" y2="0" stroke="blue" stroke-width="0.6"></line><line aria-label="CI 0.975: 0.950058528608; upper_Quantile.0.025(R): 1.00788422004; index: SC; Quantile.0.975(R): 1.00788422004; Quantile.0.025(R): 0.950058528608" role="graphics-symbol" aria-roledescription="errorbar" transform="translate(300.0585286075674,470)" x2="57.82569143170912" y2="0" stroke="blue" stroke-width="0.6"></line><line aria-label="CI 0.975: 0.983024268957; upper_Quantile.0.025(R): 1.01739353642; index: BA; Quantile.0.975(R): 1.01739353642; Quantile.0.025(R): 0.983024268957" role="graphics-symbol" aria-roledescription="errorbar" transform="translate(333.0242689569963,90)" x2="34.36926745915713" y2="0" stroke="blue" stroke-width="0.6"></line><line aria-label="CI 0.975: 0.971047465414; upper_Quantile.0.025(R): 1.04683654238; index: RO; Quantile.0.975(R): 1.04683654238; Quantile.0.025(R): 0.971047465414" role="graphics-symbol" aria-roledescription="errorbar" transform="translate(321.04746541389795,410)" x2="75.789076967602" y2="0" stroke="blue" stroke-width="0.6"></line><line aria-label="CI 0.975: 0.993973379253; upper_Quantile.0.025(R): 1.04165374995; index: MT; Quantile.0.975(R): 1.04165374995; Quantile.0.025(R): 0.993973379253" role="graphics-symbol" aria-roledescription="errorbar" transform="translate(343.9733792529058,250)" x2="47.680370698685124" y2="0" stroke="blue" stroke-width="0.6"></line><line aria-label="CI 0.975: 1.0035057284; upper_Quantile.0.025(R): 1.03837071226; index: DF; Quantile.0.975(R): 1.03837071226; Quantile.0.025(R): 1.0035057284" role="graphics-symbol" aria-roledescription="errorbar" transform="translate(353.5057283963801,130)" x2="34.864983862996894" y2="0" stroke="blue" stroke-width="0.6"></line><line aria-label="CI 0.975: 0.950079388451; upper_Quantile.0.025(R): 1.10703795101; index: AC; Quantile.0.975(R): 1.10703795101; Quantile.0.025(R): 0.950079388451" role="graphics-symbol" aria-roledescription="errorbar" transform="translate(300.0793884507029,10)" x2="156.95856255845763" y2="0" stroke="blue" stroke-width="0.6"></line><line aria-label="CI 0.975: 0.994214208786; upper_Quantile.0.025(R): 1.05412656816; index: MS; Quantile.0.975(R): 1.05412656816; Quantile.0.025(R): 0.994214208786" role="graphics-symbol" aria-roledescription="errorbar" transform="translate(344.2142087858472,230)" x2="59.912359371541186" y2="0" stroke="blue" stroke-width="0.6"></line><line aria-label="CI 0.975: 1.00551756318; upper_Quantile.0.025(R): 1.05123027; index: MA; Quantile.0.975(R): 1.05123027; Quantile.0.025(R): 1.00551756318" role="graphics-symbol" aria-roledescription="errorbar" transform="translate(355.51756318034916,190)" x2="45.712706823359156" y2="0" stroke="blue" stroke-width="0.6"></line><line aria-label="CI 0.975: 1.0286644679; upper_Quantile.0.025(R): 1.05816483007; index: MG; Quantile.0.975(R): 1.05816483007; Quantile.0.025(R): 1.0286644679" role="graphics-symbol" aria-roledescription="errorbar" transform="translate(378.66446790476607,210)" x2="29.500362169906964" y2="0" stroke="blue" stroke-width="0.6"></line><line aria-label="CI 0.975: 1.00542400027; upper_Quantile.0.025(R): 1.08377713126; index: RJ; Quantile.0.975(R): 1.08377713126; Quantile.0.025(R): 1.00542400027" role="graphics-symbol" aria-roledescription="errorbar" transform="translate(355.4240002726988,370)" x2="78.35313099151847" y2="0" stroke="blue" stroke-width="0.6"></line><line aria-label="CI 0.975: 1.03803708508; upper_Quantile.0.025(R): 1.09517425488; index: PI; Quantile.0.975(R): 1.09517425488; Quantile.0.025(R): 1.03803708508" role="graphics-symbol" aria-roledescription="errorbar" transform="translate(388.0370850752091,330)" x2="57.137169809658985" y2="0" stroke="blue" stroke-width="0.6"></line><line aria-label="CI 0.975: 1.03582224595; upper_Quantile.0.025(R): 1.09654279836; index: ES; Quantile.0.975(R): 1.09654279836; Quantile.0.025(R): 1.03582224595" role="graphics-symbol" aria-roledescription="errorbar" transform="translate(385.822245946204,150)" x2="60.72055241462971" y2="0" stroke="blue" stroke-width="0.6"></line><line aria-label="CI 0.975: 1.06443920718; upper_Quantile.0.025(R): 1.12055117456; index: GO; Quantile.0.975(R): 1.12055117456; Quantile.0.025(R): 1.06443920718" role="graphics-symbol" aria-roledescription="errorbar" transform="translate(414.43920717663195,170)" x2="56.11196738162971" y2="0" stroke="blue" stroke-width="0.6"></line><line aria-label="CI 0.975: 1.03180341704; upper_Quantile.0.025(R): 1.15416766598; index: AP; Quantile.0.975(R): 1.15416766598; Quantile.0.025(R): 1.03180341704" role="graphics-symbol" aria-roledescription="errorbar" transform="translate(381.8034170382859,70)" x2="122.36424893887164" y2="0" stroke="blue" stroke-width="0.6"></line><line aria-label="CI 0.975: 1.09614249943; upper_Quantile.0.025(R): 1.16222312251; index: RS; Quantile.0.975(R): 1.16222312251; Quantile.0.025(R): 1.09614249943" role="graphics-symbol" aria-roledescription="errorbar" transform="translate(446.14249942859726,450)" x2="66.08062308542026" y2="0" stroke="blue" stroke-width="0.6"></line><line aria-label="CI 0.975: 1.13547669083; upper_Quantile.0.025(R): 1.2332630506; index: TO; Quantile.0.975(R): 1.2332630506; Quantile.0.025(R): 1.13547669083" role="graphics-symbol" aria-roledescription="errorbar" transform="translate(485.4766908318596,530)" x2="97.78635976450516" y2="0" stroke="blue" stroke-width="0.6"></line><line aria-label="CI 0.975: 1.18522567417; upper_Quantile.0.025(R): 1.33846012538; index: PA; Quantile.0.975(R): 1.33846012538; Quantile.0.025(R): 1.18522567417" role="graphics-symbol" aria-roledescription="errorbar" transform="translate(535.2256741734145,270)" x2="153.23445120633482" y2="0" stroke="blue" stroke-width="0.6"></line></g><g class="mark-group role-title"><g transform="translate(350,-17.2)"><path class="background" aria-hidden="true" d="M0,0h0v0h0Z" pointer-events="none"></path><g><g class="mark-text role-title-text" role="graphics-symbol" aria-roledescription="title" aria-label="Title text 'Instantaneous reproduction number estimate for all states in Brazil'" pointer-events="none"><text text-anchor="middle" transform="translate(0,10)" font-family="sans-serif" font-size="13px" font-weight="bold" fill="#000" opacity="1">Instantaneous reproduction number estimate for all states in Brazil</text></g></g><path class="foreground" aria-hidden="true" d="" pointer-events="none" display="none"></path></g></g></g><path class="foreground" aria-hidden="true" d="" display="none"></path></g></g></g></svg>