<svg class="marks" width="749" height="600" viewBox="0 0 749 600" version="1.1" xmlns="http://www.w3.org/2000/svg" xmlns:xlink="http://www.w3.org/1999/xlink"><rect width="749" height="600" fill="white"></rect><g fill="none" stroke-miterlimit="10" transform="translate(43,23)"><g class="mark-group role-frame root" role="graphics-object" aria-roledescription="group mark container"><g transform="translate(0,0)"><path class="background" aria-hidden="true" d="M0.5,0.5h700v540h-700Z"></path><g><g class="mark-group role-axis" aria-hidden="true"><g transform="translate(0.5,0.5)"><path class="background" aria-hidden="true" d="M0,0h0v0h0Z" pointer-events="none"></path><g><g class="mark-rule role-axis-grid" pointer-events="none"><line transform="translate(0,10)" x2="700" y2="0" stroke="#ddd" stroke-width="1" opacity="1"></line><line transform="translate(0,30)" x2="700" y2="0" stroke="#ddd" stroke-width="1" opacity="1"></line><line transform="translate(0,50)" x2="700" y2="0" stroke="#ddd" stroke-width="1" opacity="1"></line><line transform="translate(0,70)" x2="700" y2="0" stroke="#ddd" stroke-width="1" opacity="1"></line><line transform="translate(0,90)" x2="700" y2="0" stroke="#ddd" stroke-width="1" opacity="1"></line><line transform="translate(0,110)" x2="700" y2="0" stroke="#ddd" stroke-width="1" opacity="1"></line><line transform="translate(0,130)" x2="700" y2="0" stroke="#ddd" stroke-width="1" opacity="1"></line><line transform="translate(0,150)" x2="700" y2="0" stroke="#ddd" stroke-width="1" opacity="1"></line><line transform="translate(0,170)" x2="700" y2="0" stroke="#ddd" stroke-width="1" opacity="1"></line><line transform="translate(0,190)" x2="700" y2="0" stroke="#ddd" stroke-width="1" opacity="1"></line><line transform="translate(0,210)" x2="700" y2="0" stroke="#ddd" stroke-width="1" opacity="1"></line><line transform="translate(0,230)" x2="700" y2="0" stroke="#ddd" stroke-width="1" opacity="1"></line><line transform="translate(0,250)" x2="700" y2="0" stroke="#ddd" stroke-width="1" opacity="1"></line><line transform="translate(0,270)" x2="700" y2="0" stroke="#ddd" stroke-width="1" opacity="1"></line><line transform="translate(0,290)" x2="700" y2="0" stroke="#ddd" stroke-width="1" opacity="1"></line><line transform="translate(0,310)" x2="700" y2="0" stroke="#ddd" stroke-width="1" opacity="1"></line><line transform="translate(0,330)" x2="700" y2="0" stroke="#ddd" stroke-width="1" opacity="1"></line><line transform="translate(0,350)" x2="700" y2="0" stroke="#ddd" stroke-width="1" opacity="1"></line><line transform="translate(0,370)" x2="700" y2="0" stroke="#ddd" stroke-width="1" opacity="1"></line><line transform="translate(0,390)" x2="700" y2="0" stroke="#ddd" stroke-width="1" opacity="1"></line><line transform="translate(0,410)" x2="700" y2="0" stroke="#ddd" stroke-width="1" opacity="1"></line><line transform="translate(0,430)" x2="700" y2="0" stroke="#ddd" stroke-width="1" opacity="1"></line><line transform="translate(0,450)" x2="700" y2="0" stroke="#ddd" stroke-width="1" opacity="1"></line><line transform="translate(0,470)" x2="700" y2="0" stroke="#ddd" stroke-width="1" opacity="1"></line><line transform="translate(0,490)" x2="700" y2="0" stroke="#ddd" stroke-width="1" opacity="1"></line><line transform="translate(0,510)" x2="700" y2="0" stroke="#ddd" stroke-width="1" opacity="1"></line><line transform="translate(0,530)" x2="700" y2="0" stroke="#ddd" stroke-width="1" opacity="1"></line></g></g><path class="foreground" aria-hidden="true" d="" pointer-events="none" display="none"></path></g></g><g class="mark-group role-axis" role="graphics-symbol" aria-roledescription="axis" aria-label="X-axis titled 'Instantaneous reproduction number R(t), CI 0.975' for a linear scale with values from 0.6 to 1.9"><g transform="translate(0.5,540.5)"><path class="background" aria-hidden="true" d="M0,0h0v0h0Z" pointer-events="none"></path><g><g class="mark-rule role-axis-tick" pointer-events="none"><line transform="translate(0,0)" x2="0" y2="5" stroke="#888" stroke-width="1" opacity="1"></line><line transform="translate(54,0)" x2="0" y2="5" stroke="#888" stroke-width="1" opacity="1"></line><line transform="translate(108,0)" x2="0" y2="5" stroke="#888" stroke-width="1" opacity="1"></line><line transform="translate(162,0)" x2="0" y2="5" stroke="#888" stroke-width="1" opacity="1"></line><line transform="translate(215,0)" x2="0" y2="5" stroke="#888" stroke-width="1" opacity="1"></line><line transform="translate(269,0)" x2="0" y2="5" stroke="#888" stroke-width="1" opacity="1"></line><line transform="translate(323,0)" x2="0" y2="5" stroke="#888" stroke-width="1" opacity="1"></line><line transform="translate(377,0)" x2="0" y2="5" stroke="#888" stroke-width="1" opacity="1"></line><line transform="translate(431,0)" x2="0" y2="5" stroke="#888" stroke-width="1" opacity="1"></line><line transform="translate(485,0)" x2="0" y2="5" stroke="#888" stroke-width="1" opacity="1"></line><line transform="translate(538,0)" x2="0" y2="5" stroke="#888" stroke-width="1" opacity="1"></line><line transform="translate(592,0)" x2="0" y2="5" stroke="#888" stroke-width="1" opacity="1"></line><line transform="translate(646,0)" x2="0" y2="5" stroke="#888" stroke-width="1" opacity="1"></line><line transform="translate(700,0)" x2="0" y2="5" stroke="#888" stroke-width="1" opacity="1"></line></g><g class="mark-text role-axis-label" pointer-events="none"><text text-anchor="start" transform="translate(0,15)" font-family="sans-serif" font-size="10px" fill="#000" opacity="1">0.6</text><text text-anchor="middle" transform="translate(53.84615384615384,15)" font-family="sans-serif" font-size="10px" fill="#000" opacity="1">0.7</text><text text-anchor="middle" transform="translate(107.69230769230774,15)" font-family="sans-serif" font-size="10px" fill="#000" opacity="1">0.8</text><text text-anchor="middle" transform="translate(161.53846153846158,15)" font-family="sans-serif" font-size="10px" fill="#000" opacity="1">0.9</text><text text-anchor="middle" transform="translate(215.38461538461544,15)" font-family="sans-serif" font-size="10px" fill="#000" opacity="1">1.0</text><text text-anchor="middle" transform="translate(269.23076923076934,15)" font-family="sans-serif" font-size="10px" fill="#000" opacity="1">1.1</text><text text-anchor="middle" transform="translate(323.0769230769231,15)" font-family="sans-serif" font-size="10px" fill="#000" opacity="1">1.2</text><text text-anchor="middle" transform="translate(376.92307692307696,15)" font-family="sans-serif" font-size="10px" fill="#000" opacity="1">1.3</text><text text-anchor="middle" transform="translate(430.7692307692308,15)" font-family="sans-serif" font-size="10px" fill="#000" opacity="1">1.4</text><text text-anchor="middle" transform="translate(484.6153846153847,15)" font-family="sans-serif" font-size="10px" fill="#000" opacity="1">1.5</text><text text-anchor="middle" transform="translate(538.4615384615386,15)" font-family="sans-serif" font-size="10px" fill="#000" opacity="1">1.6</text><text text-anchor="middle" transform="translate(592.3076923076925,15)" font-family="sans-serif" font-size="10px" fill="#000" opacity="1">1.7</text><text text-anchor="middle" transform="translate(646.1538461538463,15)" font-family="sans-serif" font-size="10px" fill="#000" opacity="1">1.8</text><text text-anchor="end" transform="translate(700,15)" font-family="sans-serif" font-size="10px" fill="#000" opacity="1">1.9</text></g><g class="mark-rule role-axis-domain" pointer-events="none"><line transform="translate(0,0)" x2="700" y2="0" stroke="#888" stroke-width="1" opacity="1"></line></g><g class="mark-text role-axis-title" pointer-events="none"><text text-anchor="middle" transform="translate(350,30)" font-family="sans-serif" font-size="11px" font-weight="bold" fill="#000" opacity="1">Instantaneous reproduction number R(t), CI 0.975</text></g></g><path class="foreground" aria-hidden="true" d="" pointer-events="none" display="none"></path></g></g><g class="mark-group role-axis" role="graphics-symbol" aria-roledescription="axis" aria-label="Y-axis titled 'States' for a discrete scale with 27 values: AC, AL, AM, AP, BA, ending with TO"><g transform="translate(0.5,0.5)"><path class="background" aria-hidden="true" d="M0,0h0v0h0Z" pointer-events="none"></path><g><g class="mark-rule role-axis-tick" pointer-events="none"><line transform="translate(0,10)" x2="-5" y2="0" stroke="#888" stroke-width="1" opacity="1"></line><line transform="translate(0,30)" x2="-5" y2="0" stroke="#888" stroke-width="1" opacity="1"></line><line transform="translate(0,50)" x2="-5" y2="0" stroke="#888" stroke-width="1" opacity="1"></line><line transform="translate(0,70)" x2="-5" y2="0" stroke="#888" stroke-width="1" opacity="1"></line><line transform="translate(0,90)" x2="-5" y2="0" stroke="#888" stroke-width="1" opacity="1"></line><line transform="translate(0,110)" x2="-5" y2="0" stroke="#888" stroke-width="1" opacity="1"></line><line transform="translate(0,130)" x2="-5" y2="0" stroke="#888" stroke-width="1" opacity="1"></line><line transform="translate(0,150)" x2="-5" y2="0" stroke="#888" stroke-width="1" opacity="1"></line><line transform="translate(0,170)" x2="-5" y2="0" stroke="#888" stroke-width="1" opacity="1"></line><line transform="translate(0,190)" x2="-5" y2="0" stroke="#888" stroke-width="1" opacity="1"></line><line transform="translate(0,210)" x2="-5" y2="0" stroke="#888" stroke-width="1" opacity="1"></line><line transform="translate(0,230)" x2="-5" y2="0" stroke="#888" stroke-width="1" opacity="1"></line><line transform="translate(0,250)" x2="-5" y2="0" stroke="#888" stroke-width="1" opacity="1"></line><line transform="translate(0,270)" x2="-5" y2="0" stroke="#888" stroke-width="1" opacity="1"></line><line transform="translate(0,290)" x2="-5" y2="0" stroke="#888" stroke-width="1" opacity="1"></line><line transform="translate(0,310)" x2="-5" y2="0" stroke="#888" stroke-width="1" opacity="1"></line><line transform="translate(0,330)" x2="-5" y2="0" stroke="#888" stroke-width="1" opacity="1"></line><line transform="translate(0,350)" x2="-5" y2="0" stroke="#888" stroke-width="1" opacity="1"></line><line transform="translate(0,370)" x2="-5" y2="0" stroke="#888" stroke-width="1" opacity="1"></line><line transform="translate(0,390)" x2="-5" y2="0" stroke="#888" stroke-width="1" opacity="1"></line><line transform="translate(0,410)" x2="-5" y2="0" stroke="#888" stroke-width="1" opacity="1"></line><line transform="translate(0,430)" x2="-5" y2="0" stroke="#888" stroke-width="1" opacity="1"></line><line transform="translate(0,450)" x2="-5" y2="0" stroke="#888" stroke-width="1" opacity="1"></line><line transform="translate(0,470)" x2="-5" y2="0" stroke="#888" stroke-width="1" opacity="1"></line><line transform="translate(0,490)" x2="-5" y2="0" stroke="#888" stroke-width="1" opacity="1"></line><line transform="translate(0,510)" x2="-5" y2="0" stroke="#888" stroke-width="1" opacity="1"></line><line transform="translate(0,530)" x2="-5" y2="0" stroke="#888" stroke-width="1" opacity="1"></line></g><g class="mark-text role-axis-label" pointer-events="none"><text text-anchor="end" transform="translate(-7,12.5)" font-family="sans-serif" font-size="10px" fill="#000" opacity="1">AC</text><text text-anchor="end" transform="translate(-7,32.5)" font-family="sans-serif" font-size="10px" fill="#000" opacity="1">AL</text><text text-anchor="end" transform="translate(-7,52.5)" font-family="sans-serif" font-size="10px" fill="#000" opacity="1">AM</text><text text-anchor="end" transform="translate(-7,72.5)" font-family="sans-serif" font-size="10px" fill="#000" opacity="1">AP</text><text text-anchor="end" transform="translate(-7,92.5)" font-family="sans-serif" font-size="10px" fill="#000" opacity="1">BA</text><text text-anchor="end" transform="translate(-7,112.5)" font-family="sans-serif" font-size="10px" fill="#000" opacity="1">CE</text><text text-anchor="end" transform="translate(-7,132.5)" font-family="sans-serif" font-size="10px" fill="#000" opacity="1">DF</text><text text-anchor="end" transform="translate(-7,152.5)" font-family="sans-serif" font-size="10px" fill="#000" opacity="1">ES</text><text text-anchor="end" transform="translate(-7,172.5)" font-family="sans-serif" font-size="10px" fill="#000" opacity="1">GO</text><text text-anchor="end" transform="translate(-7,192.5)" font-family="sans-serif" font-size="10px" fill="#000" opacity="1">MA</text><text text-anchor="end" transform="translate(-7,212.5)" font-family="sans-serif" font-size="10px" fill="#000" opacity="1">MG</text><text text-anchor="end" transform="translate(-7,232.5)" font-family="sans-serif" font-size="10px" fill="#000" opacity="1">MS</text><text text-anchor="end" transform="translate(-7,252.5)" font-family="sans-serif" font-size="10px" fill="#000" opacity="1">MT</text><text text-anchor="end" transform="translate(-7,272.5)" font-family="sans-serif" font-size="10px" fill="#000" opacity="1">PA</text><text text-anchor="end" transform="translate(-7,292.5)" font-family="sans-serif" font-size="10px" fill="#000" opacity="1">PB</text><text text-anchor="end" transform="translate(-7,312.5)" font-family="sans-serif" font-size="10px" fill="#000" opacity="1">PE</text><text text-anchor="end" transform="translate(-7,332.5)" font-family="sans-serif" font-size="10px" fill="#000" opacity="1">PI</text><text text-anchor="end" transform="translate(-7,352.5)" font-family="sans-serif" font-size="10px" fill="#000" opacity="1">PR</text><text text-anchor="end" transform="translate(-7,372.5)" font-family="sans-serif" font-size="10px" fill="#000" opacity="1">RJ</text><text text-anchor="end" transform="translate(-7,392.5)" font-family="sans-serif" font-size="10px" fill="#000" opacity="1">RN</text><text text-anchor="end" transform="translate(-7,412.5)" font-family="sans-serif" font-size="10px" fill="#000" opacity="1">RO</text><text text-anchor="end" transform="translate(-7,432.5)" font-family="sans-serif" font-size="10px" fill="#000" opacity="1">RR</text><text text-anchor="end" transform="translate(-7,452.5)" font-family="sans-serif" font-size="10px" fill="#000" opacity="1">RS</text><text text-anchor="end" transform="translate(-7,472.5)" font-family="sans-serif" font-size="10px" fill="#000" opacity="1">SC</text><text text-anchor="end" transform="translate(-7,492.5)" font-family="sans-serif" font-size="10px" fill="#000" opacity="1">SE</text><text text-anchor="end" transform="translate(-7,512.5)" font-family="sans-serif" font-size="10px" fill="#000" opacity="1">SP</text><text text-anchor="end" transform="translate(-7,532.5)" font-family="sans-serif" font-size="10px" fill="#000" opacity="1">TO</text></g><g class="mark-rule role-axis-domain" pointer-events="none"><line transform="translate(0,0)" x2="0" y2="540" stroke="#888" stroke-width="1" opacity="1"></line></g><g class="mark-text role-axis-title" pointer-events="none"><text text-anchor="middle" transform="translate(-27,270) rotate(-90) translate(0,-2)" font-family="sans-serif" font-size="11px" font-weight="bold" fill="#000" opacity="1">States</text></g></g><path class="foreground" aria-hidden="true" d="" pointer-events="none" display="none"></path></g></g><g class="mark-symbol role-mark layer_0_marks" role="graphics-object" aria-roledescription="symbol mark container"><path aria-label="Instantaneous reproduction number R(t): 0.697207371074; States: RN" role="graphics-symbol" aria-roledescription="point" transform="translate(52.342430578187255,390)" d="M2.7386127875258306,0A2.7386127875258306,2.7386127875258306,0,1,1,-2.7386127875258306,0A2.7386127875258306,2.7386127875258306,0,1,1,2.7386127875258306,0" stroke="#4c78a8" stroke-width="2" opacity="0.7"></path><path aria-label="Instantaneous reproduction number R(t): 0.76505411248; States: AM" role="graphics-symbol" aria-roledescription="point" transform="translate(88.87529133560332,50)" d="M2.7386127875258306,0A2.7386127875258306,2.7386127875258306,0,1,1,-2.7386127875258306,0A2.7386127875258306,2.7386127875258306,0,1,1,2.7386127875258306,0" stroke="#4c78a8" stroke-width="2" opacity="0.7"></path><path aria-label="Instantaneous reproduction number R(t): 0.773209829133; States: RJ" role="graphics-symbol" aria-roledescription="point" transform="translate(93.26683107154635,370)" d="M2.7386127875258306,0A2.7386127875258306,2.7386127875258306,0,1,1,-2.7386127875258306,0A2.7386127875258306,2.7386127875258306,0,1,1,2.7386127875258306,0" stroke="#4c78a8" stroke-width="2" opacity="0.7"></path><path aria-label="Instantaneous reproduction number R(t): 0.8262584037; States: AC" role="graphics-symbol" aria-roledescription="point" transform="translate(121.83144814625881,10)" d="M2.7386127875258306,0A2.7386127875258306,2.7386127875258306,0,1,1,-2.7386127875258306,0A2.7386127875258306,2.7386127875258306,0,1,1,2.7386127875258306,0" stroke="#4c78a8" stroke-width="2" opacity="0.7"></path><path aria-label="Instantaneous reproduction number R(t): 0.885827819145; States: PE" role="graphics-symbol" aria-roledescription="point" transform="translate(153.90728723188525,310)" d="M2.7386127875258306,0A2.7386127875258306,2.7386127875258306,0,1,1,-2.7386127875258306,0A2.7386127875258306,2.7386127875258306,0,1,1,2.7386127875258306,0" stroke="#4c78a8" stroke-width="2" opacity="0.7"></path><path aria-label="Instantaneous reproduction number R(t): 0.952488114813; States: RS" role="graphics-symbol" aria-roledescription="point" transform="translate(189.80129259139017,450)" d="M2.7386127875258306,0A2.7386127875258306,2.7386127875258306,0,1,1,-2.7386127875258306,0A2.7386127875258306,2.7386127875258306,0,1,1,2.7386127875258306,0" stroke="#4c78a8" stroke-width="2" opacity="0.7"></path><path aria-label="Instantaneous reproduction number R(t): 0.979330604992; States: TO" role="graphics-symbol" aria-roledescription="point" transform="translate(204.2549411493058,530)" d="M2.7386127875258306,0A2.7386127875258306,2.7386127875258306,0,1,1,-2.7386127875258306,0A2.7386127875258306,2.7386127875258306,0,1,1,2.7386127875258306,0" stroke="#4c78a8" stroke-width="2" opacity="0.7"></path><path aria-label="Instantaneous reproduction number R(t): 1.03159393452; States: SC" role="graphics-symbol" aria-roledescription="point" transform="translate(232.39673396996233,470)" d="M2.7386127875258306,0A2.7386127875258306,2.7386127875258306,0,1,1,-2.7386127875258306,0A2.7386127875258306,2.7386127875258306,0,1,1,2.7386127875258306,0" stroke="#4c78a8" stroke-width="2" opacity="0.7"></path><path aria-label="Instantaneous reproduction number R(t): 1.03993359534; States: MA" role="graphics-symbol" aria-roledescription="point" transform="translate(236.8873205697189,190)" d="M2.7386127875258306,0A2.7386127875258306,2.7386127875258306,0,1,1,-2.7386127875258306,0A2.7386127875258306,2.7386127875258306,0,1,1,2.7386127875258306,0" stroke="#4c78a8" stroke-width="2" opacity="0.7"></path><path aria-label="Instantaneous reproduction number R(t): 1.04343869337; States: AP" role="graphics-symbol" aria-roledescription="point" transform="translate(238.7746810463758,70)" d="M2.7386127875258306,0A2.7386127875258306,2.7386127875258306,0,1,1,-2.7386127875258306,0A2.7386127875258306,2.7386127875258306,0,1,1,2.7386127875258306,0" stroke="#4c78a8" stroke-width="2" opacity="0.7"></path><path aria-label="Instantaneous reproduction number R(t): 1.09026893551; States: CE" role="graphics-symbol" aria-roledescription="point" transform="translate(263.9909652748043,110)" d="M2.7386127875258306,0A2.7386127875258306,2.7386127875258306,0,1,1,-2.7386127875258306,0A2.7386127875258306,2.7386127875258306,0,1,1,2.7386127875258306,0" stroke="#4c78a8" stroke-width="2" opacity="0.7"></path><path aria-label="Instantaneous reproduction number R(t): 1.13109105673; States: SP" role="graphics-symbol" aria-roledescription="point" transform="translate(285.9721074703686,510)" d="M2.7386127875258306,0A2.7386127875258306,2.7386127875258306,0,1,1,-2.7386127875258306,0A2.7386127875258306,2.7386127875258306,0,1,1,2.7386127875258306,0" stroke="#4c78a8" stroke-width="2" opacity="0.7"></path><path aria-label="Instantaneous reproduction number R(t): 1.16038499228; States: SE" role="graphics-symbol" aria-roledescription="point" transform="translate(301.74576507483533,490)" d="M2.7386127875258306,0A2.7386127875258306,2.7386127875258306,0,1,1,-2.7386127875258306,0A2.7386127875258306,2.7386127875258306,0,1,1,2.7386127875258306,0" stroke="#4c78a8" stroke-width="2" opacity="0.7"></path><path aria-label="Instantaneous reproduction number R(t): 1.18132435925; States: PA" role="graphics-symbol" aria-roledescription="point" transform="translate(313.02080882607413,270)" d="M2.7386127875258306,0A2.7386127875258306,2.7386127875258306,0,1,1,-2.7386127875258306,0A2.7386127875258306,2.7386127875258306,0,1,1,2.7386127875258306,0" stroke="#4c78a8" stroke-width="2" opacity="0.7"></path><path aria-label="Instantaneous reproduction number R(t): 1.22579590636; States: PB" role="graphics-symbol" aria-roledescription="point" transform="translate(336.9670265028492,290)" d="M2.7386127875258306,0A2.7386127875258306,2.7386127875258306,0,1,1,-2.7386127875258306,0A2.7386127875258306,2.7386127875258306,0,1,1,2.7386127875258306,0" stroke="#4c78a8" stroke-width="2" opacity="0.7"></path><path aria-label="Instantaneous reproduction number R(t): 1.24699170462; States: MS" role="graphics-symbol" aria-roledescription="point" transform="translate(348.38014864023893,230)" d="M2.7386127875258306,0A2.7386127875258306,2.7386127875258306,0,1,1,-2.7386127875258306,0A2.7386127875258306,2.7386127875258306,0,1,1,2.7386127875258306,0" stroke="#4c78a8" stroke-width="2" opacity="0.7"></path><path aria-label="Instantaneous reproduction number R(t): 1.25347731303; States: MT" role="graphics-symbol" aria-roledescription="point" transform="translate(351.8723993250865,250)" d="M2.7386127875258306,0A2.7386127875258306,2.7386127875258306,0,1,1,-2.7386127875258306,0A2.7386127875258306,2.7386127875258306,0,1,1,2.7386127875258306,0" stroke="#4c78a8" stroke-width="2" opacity="0.7"></path><path aria-label="Instantaneous reproduction number R(t): 1.29885684665; States: AL" role="graphics-symbol" aria-roledescription="point" transform="translate(376.3075328123027,30)" d="M2.7386127875258306,0A2.7386127875258306,2.7386127875258306,0,1,1,-2.7386127875258306,0A2.7386127875258306,2.7386127875258306,0,1,1,2.7386127875258306,0" stroke="#4c78a8" stroke-width="2" opacity="0.7"></path><path aria-label="Instantaneous reproduction number R(t): 1.3319094569; States: ES" role="graphics-symbol" aria-roledescription="point" transform="translate(394.1050921744706,150)" d="M2.7386127875258306,0A2.7386127875258306,2.7386127875258306,0,1,1,-2.7386127875258306,0A2.7386127875258306,2.7386127875258306,0,1,1,2.7386127875258306,0" stroke="#4c78a8" stroke-width="2" opacity="0.7"></path><path aria-label="Instantaneous reproduction number R(t): 1.336243522; States: PR" role="graphics-symbol" aria-roledescription="point" transform="translate(396.43881953787144,350)" d="M2.7386127875258306,0A2.7386127875258306,2.7386127875258306,0,1,1,-2.7386127875258306,0A2.7386127875258306,2.7386127875258306,0,1,1,2.7386127875258306,0" stroke="#4c78a8" stroke-width="2" opacity="0.7"></path><path aria-label="Instantaneous reproduction number R(t): 1.37930461721; States: GO" role="graphics-symbol" aria-roledescription="point" transform="translate(419.6255631114927,170)" d="M2.7386127875258306,0A2.7386127875258306,2.7386127875258306,0,1,1,-2.7386127875258306,0A2.7386127875258306,2.7386127875258306,0,1,1,2.7386127875258306,0" stroke="#4c78a8" stroke-width="2" opacity="0.7"></path><path aria-label="Instantaneous reproduction number R(t): 1.39432855913; States: PI" role="graphics-symbol" aria-roledescription="point" transform="translate(427.7153779912109,330)" d="M2.7386127875258306,0A2.7386127875258306,2.7386127875258306,0,1,1,-2.7386127875258306,0A2.7386127875258306,2.7386127875258306,0,1,1,2.7386127875258306,0" stroke="#4c78a8" stroke-width="2" opacity="0.7"></path><path aria-label="Instantaneous reproduction number R(t): 1.42608161848; States: MG" role="graphics-symbol" aria-roledescription="point" transform="translate(444.8131791790253,210)" d="M2.7386127875258306,0A2.7386127875258306,2.7386127875258306,0,1,1,-2.7386127875258306,0A2.7386127875258306,2.7386127875258306,0,1,1,2.7386127875258306,0" stroke="#4c78a8" stroke-width="2" opacity="0.7"></path><path aria-label="Instantaneous reproduction number R(t): 1.57129164539; States: BA" role="graphics-symbol" aria-roledescription="point" transform="translate(523.0031936735799,90)" d="M2.7386127875258306,0A2.7386127875258306,2.7386127875258306,0,1,1,-2.7386127875258306,0A2.7386127875258306,2.7386127875258306,0,1,1,2.7386127875258306,0" stroke="#4c78a8" stroke-width="2" opacity="0.7"></path><path aria-label="Instantaneous reproduction number R(t): 1.57221969349; States: RO" role="graphics-symbol" aria-roledescription="point" transform="translate(523.5029118778004,410)" d="M2.7386127875258306,0A2.7386127875258306,2.7386127875258306,0,1,1,-2.7386127875258306,0A2.7386127875258306,2.7386127875258306,0,1,1,2.7386127875258306,0" stroke="#4c78a8" stroke-width="2" opacity="0.7"></path><path aria-label="Instantaneous reproduction number R(t): 1.57724734602; States: RR" role="graphics-symbol" aria-roledescription="point" transform="translate(526.2101093951007,430)" d="M2.7386127875258306,0A2.7386127875258306,2.7386127875258306,0,1,1,-2.7386127875258306,0A2.7386127875258306,2.7386127875258306,0,1,1,2.7386127875258306,0" stroke="#4c78a8" stroke-width="2" opacity="0.7"></path><path aria-label="Instantaneous reproduction number R(t): 1.66068051056; States: DF" role="graphics-symbol" aria-roledescription="point" transform="translate(571.135659534215,130)" d="M2.7386127875258306,0A2.7386127875258306,2.7386127875258306,0,1,1,-2.7386127875258306,0A2.7386127875258306,2.7386127875258306,0,1,1,2.7386127875258306,0" stroke="#4c78a8" stroke-width="2" opacity="0.7"></path></g><g class="mark-rule role-mark layer_1_marks" role="graphics-object" aria-roledescription="rule mark container"><line aria-label="a: 1" role="graphics-symbol" aria-roledescription="rule mark" transform="translate(215.38461538461544,0)" x2="0" y2="540" stroke="black" stroke-width="0.2"></line><line aria-label="a: 1" role="graphics-symbol" aria-roledescription="rule mark" transform="translate(215.38461538461544,0)" x2="0" y2="540" stroke="black" stroke-width="0.2"></line><line aria-label="a: 1" role="graphics-symbol" aria-roledescription="rule mark" transform="translate(215.38461538461544,0)" x2="0" y2="540" stroke="black" stroke-width="0.2"></line><line aria-label="a: 1" role="graphics-symbol" aria-roledescription="rule mark" transform="translate(215.38461538461544,0)" x2="0" y2="540" stroke="black" stroke-width="0.2"></line><line aria-label="a: 1" role="graphics-symbol" aria-roledescription="rule mark" transform="translate(215.38461538461544,0)" x2="0" y2="540" stroke="black" stroke-width="0.2"></line><line aria-label="a: 1" role="graphics-symbol" aria-roledescription="rule mark" transform="translate(215.38461538461544,0)" x2="0" y2="540" stroke="black" stroke-width="0.2"></line><line aria-label="a: 1" role="graphics-symbol" aria-roledescription="rule mark" transform="translate(215.38461538461544,0)" x2="0" y2="540" stroke="black" stroke-width="0.2"></line><line aria-label="a: 1" role="graphics-symbol" aria-roledescription="rule mark" transform="translate(215.38461538461544,0)" x2="0" y2="540" stroke="black" stroke-width="0.2"></line><line aria-label="a: 1" role="graphics-symbol" aria-roledescription="rule mark" transform="translate(215.38461538461544,0)" x2="0" y2="540" stroke="black" stroke-width="0.2"></line><line aria-label="a: 1" role="graphics-symbol" aria-roledescription="rule mark" transform="translate(215.38461538461544,0)" x2="0" y2="540" stroke="black" stroke-width="0.2"></line><line aria-label="a: 1" role="graphics-symbol" aria-roledescription="rule mark" transform="translate(215.38461538461544,0)" x2="0" y2="540" stroke="black" stroke-width="0.2"></line><line aria-label="a: 1" role="graphics-symbol" aria-roledescription="rule mark" transform="translate(215.38461538461544,0)" x2="0" y2="540" stroke="black" stroke-width="0.2"></line><line aria-label="a: 1" role="graphics-symbol" aria-roledescription="rule mark" transform="translate(215.38461538461544,0)" x2="0" y2="540" stroke="black" stroke-width="0.2"></line><line aria-label="a: 1" role="graphics-symbol" aria-roledescription="rule mark" transform="translate(215.38461538461544,0)" x2="0" y2="540" stroke="black" stroke-width="0.2"></line><line aria-label="a: 1" role="graphics-symbol" aria-roledescription="rule mark" transform="translate(215.38461538461544,0)" x2="0" y2="540" stroke="black" stroke-width="0.2"></line><line aria-label="a: 1" role="graphics-symbol" aria-roledescription="rule mark" transform="translate(215.38461538461544,0)" x2="0" y2="540" stroke="black" stroke-width="0.2"></line><line aria-label="a: 1" role="graphics-symbol" aria-roledescription="rule mark" transform="translate(215.38461538461544,0)" x2="0" y2="540" stroke="black" stroke-width="0.2"></line><line aria-label="a: 1" role="graphics-symbol" aria-roledescription="rule mark" transform="translate(215.38461538461544,0)" x2="0" y2="540" stroke="black" stroke-width="0.2"></line><line aria-label="a: 1" role="graphics-symbol" aria-roledescription="rule mark" transform="translate(215.38461538461544,0)" x2="0" y2="540" stroke="black" stroke-width="0.2"></line><line aria-label="a: 1" role="graphics-symbol" aria-roledescription="rule mark" transform="translate(215.38461538461544,0)" x2="0" y2="540" stroke="black" stroke-width="0.2"></line><line aria-label="a: 1" role="graphics-symbol" aria-roledescription="rule mark" transform="translate(215.38461538461544,0)" x2="0" y2="540" stroke="black" stroke-width="0.2"></line><line aria-label="a: 1" role="graphics-symbol" aria-roledescription="rule mark" transform="translate(215.38461538461544,0)" x2="0" y2="540" stroke="black" stroke-width="0.2"></line><line aria-label="a: 1" role="graphics-symbol" aria-roledescription="rule mark" transform="translate(215.38461538461544,0)" x2="0" y2="540" stroke="black" stroke-width="0.2"></line><line aria-label="a: 1" role="graphics-symbol" aria-roledescription="rule mark" transform="translate(215.38461538461544,0)" x2="0" y2="540" stroke="black" stroke-width="0.2"></line><line aria-label="a: 1" role="graphics-symbol" aria-roledescription="rule mark" transform="translate(215.38461538461544,0)" x2="0" y2="540" stroke="black" stroke-width="0.2"></line><line aria-label="a: 1" role="graphics-symbol" aria-roledescription="rule mark" transform="translate(215.38461538461544,0)" x2="0" y2="540" stroke="black" stroke-width="0.2"></line><line aria-label="a: 1" role="graphics-symbol" aria-roledescription="rule mark" transform="translate(215.38461538461544,0)" x2="0" y2="540" stroke="black" stroke-width="0.2"></line></g><g class="mark-rule role-mark layer_2_marks" role="graphics-object" aria-roledescription="rule mark container"><line aria-label="CI 0.975: 0.64350996397; upper_Quantile.0.025(R): 0.753105418446; index: RN; Quantile.0.975(R): 0.753105418446; Quantile.0.025(R): 0.64350996397" role="graphics-symbol" aria-roledescription="errorbar" transform="translate(23.428442137586234,390)" x2="59.0129370255773" y2="0" stroke="blue" stroke-width="0.6"></line><line aria-label="CI 0.975: 0.72695349668; upper_Quantile.0.025(R): 0.815443163419; index: AM; Quantile.0.975(R): 0.815443163419; Quantile.0.025(R): 0.72695349668" role="graphics-symbol" aria-roledescription="errorbar" transform="translate(68.35957513545534,50)" x2="47.64828209012386" y2="0" stroke="blue" stroke-width="0.6"></line><line aria-label="CI 0.975: 0.749788875455; upper_Quantile.0.025(R): 0.797493040835; index: RJ; Quantile.0.975(R): 0.797493040835; Quantile.0.025(R): 0.749788875455" role="graphics-symbol" aria-roledescription="errorbar" transform="translate(80.65554832190459,370)" x2="25.686858281312254" y2="0" stroke="blue" stroke-width="0.6"></line><line aria-label="CI 0.975: 0.732660407602; upper_Quantile.0.025(R): 0.914915635528; index: AC; Quantile.0.975(R): 0.914915635528; Quantile.0.025(R): 0.732660407602" role="graphics-symbol" aria-roledescription="errorbar" transform="translate(71.43252717042465,10)" x2="98.1374304215707" y2="0" stroke="blue" stroke-width="0.6"></line><line aria-label="CI 0.975: 0.86047234831; upper_Quantile.0.025(R): 0.911272662008; index: PE; Quantile.0.975(R): 0.911272662008; Quantile.0.025(R): 0.86047234831" role="graphics-symbol" aria-roledescription="errorbar" transform="translate(140.25434139781188,310)" x2="27.354015067957107" y2="0" stroke="blue" stroke-width="0.6"></line><line aria-label="CI 0.975: 0.909704428001; upper_Quantile.0.025(R): 0.997541139144; index: RS; Quantile.0.975(R): 0.997541139144; Quantile.0.025(R): 0.909704428001" role="graphics-symbol" aria-roledescription="errorbar" transform="translate(166.76392276963477,450)" x2="47.29669061534119" y2="0" stroke="blue" stroke-width="0.6"></line><line aria-label="CI 0.975: 0.923201115637; upper_Quantile.0.025(R): 1.03728575824; index: TO; Quantile.0.975(R): 1.03728575824; Quantile.0.025(R): 0.923201115637" role="graphics-symbol" aria-roledescription="errorbar" transform="translate(174.03136995824676,530)" x2="61.430192173459545" y2="0" stroke="blue" stroke-width="0.6"></line><line aria-label="CI 0.975: 0.978539287855; upper_Quantile.0.025(R): 1.08516235199; index: SC; Quantile.0.975(R): 1.08516235199; Quantile.0.025(R): 0.978539287855" role="graphics-symbol" aria-roledescription="errorbar" transform="translate(203.82884730678433,470)" x2="57.41241915097612" y2="0" stroke="blue" stroke-width="0.6"></line><line aria-label="CI 0.975: 1.01037385427; upper_Quantile.0.025(R): 1.07448921763; index: MA; Quantile.0.975(R): 1.07448921763; Quantile.0.025(R): 1.01037385427" role="graphics-symbol" aria-roledescription="errorbar" transform="translate(220.97053691420618,190)" x2="34.52365719494841" y2="0" stroke="blue" stroke-width="0.6"></line><line aria-label="CI 0.975: 0.993649745119; upper_Quantile.0.025(R): 1.09488337101; index: AP; Quantile.0.975(R): 1.09488337101; Quantile.0.025(R): 0.993649745119" role="graphics-symbol" aria-roledescription="errorbar" transform="translate(211.96524737175486,70)" x2="54.51041394049196" y2="0" stroke="blue" stroke-width="0.6"></line><line aria-label="CI 0.975: 0.933839400492; upper_Quantile.0.025(R): 1.29868360752; index: CE; Quantile.0.975(R): 1.29868360752; Quantile.0.025(R): 0.933839400492" role="graphics-symbol" aria-roledescription="errorbar" transform="translate(179.75967718797455,110)" x2="196.45457301670234" y2="0" stroke="blue" stroke-width="0.6"></line><line aria-label="CI 0.975: 1.07364388582; upper_Quantile.0.025(R): 1.19548725884; index: SP; Quantile.0.975(R): 1.19548725884; Quantile.0.025(R): 1.07364388582" role="graphics-symbol" aria-roledescription="errorbar" transform="translate(255.03901544212863,510)" x2="65.60797008950999" y2="0" stroke="blue" stroke-width="0.6"></line><line aria-label="CI 0.975: 1.08589842191; upper_Quantile.0.025(R): 1.24519540335; index: SE; Quantile.0.975(R): 1.24519540335; Quantile.0.025(R): 1.08589842191" role="graphics-symbol" aria-roledescription="errorbar" transform="translate(261.6376117975157,490)" x2="85.77529769846296" y2="0" stroke="blue" stroke-width="0.6"></line><line aria-label="CI 0.975: 1.15236344723; upper_Quantile.0.025(R): 1.20968024196; index: PA; Quantile.0.975(R): 1.20968024196; Quantile.0.025(R): 1.15236344723" role="graphics-symbol" aria-roledescription="errorbar" transform="translate(297.4264715843222,270)" x2="30.862889471054757" y2="0" stroke="blue" stroke-width="0.6"></line><line aria-label="CI 0.975: 1.16195602873; upper_Quantile.0.025(R): 1.29233545163; index: PB; Quantile.0.975(R): 1.29233545163; Quantile.0.025(R): 1.16195602873" role="graphics-symbol" aria-roledescription="errorbar" transform="translate(302.59170777600036,290)" x2="70.20430463922997" y2="0" stroke="blue" stroke-width="0.6"></line><line aria-label="CI 0.975: 1.1421616699; upper_Quantile.0.025(R): 1.35824593835; index: MS; Quantile.0.975(R): 1.35824593835; Quantile.0.025(R): 1.1421616699" role="graphics-symbol" aria-roledescription="errorbar" transform="translate(291.93320686953757,230)" x2="116.3530676282287" y2="0" stroke="blue" stroke-width="0.6"></line><line aria-label="CI 0.975: 1.13032369528; upper_Quantile.0.025(R): 1.37192991407; index: MT; Quantile.0.975(R): 1.37192991407; Quantile.0.025(R): 1.13032369528" role="graphics-symbol" aria-roledescription="errorbar" transform="translate(285.55891284187067,250)" x2="130.0956562721463" y2="0" stroke="blue" stroke-width="0.6"></line><line aria-label="CI 0.975: 1.20678125999; upper_Quantile.0.025(R): 1.40164550823; index: AL; Quantile.0.975(R): 1.40164550823; Quantile.0.025(R): 1.20678125999" role="graphics-symbol" aria-roledescription="errorbar" transform="translate(326.72837076470364,30)" x2="104.92690289938457" y2="0" stroke="blue" stroke-width="0.6"></line><line aria-label="CI 0.975: 1.22631492102; upper_Quantile.0.025(R): 1.44291233071; index: ES; Quantile.0.975(R): 1.44291233071; Quantile.0.025(R): 1.22631492102" role="graphics-symbol" aria-roledescription="errorbar" transform="translate(337.24649593455314,150)" x2="116.62937444641358" y2="0" stroke="blue" stroke-width="0.6"></line><line aria-label="CI 0.975: 1.21409808195; upper_Quantile.0.025(R): 1.46393968052; index: PR; Quantile.0.975(R): 1.46393968052; Quantile.0.025(R): 1.21409808195" role="graphics-symbol" aria-roledescription="errorbar" transform="translate(330.6681979710626,350)" x2="134.53009154098947" y2="0" stroke="blue" stroke-width="0.6"></line><line aria-label="CI 0.975: 1.22736879575; upper_Quantile.0.025(R): 1.55317841286; index: GO; Quantile.0.975(R): 1.55317841286; Quantile.0.025(R): 1.22736879575" role="graphics-symbol" aria-roledescription="errorbar" transform="translate(337.8139669407962,170)" x2="175.4359476769951" y2="0" stroke="blue" stroke-width="0.6"></line><line aria-label="CI 0.975: 1.28327093222; upper_Quantile.0.025(R): 1.50673891371; index: PI; Quantile.0.975(R): 1.50673891371; Quantile.0.025(R): 1.28327093222" role="graphics-symbol" aria-roledescription="errorbar" transform="translate(367.9151173493523,330)" x2="120.32891311232697" y2="0" stroke="blue" stroke-width="0.6"></line><line aria-label="CI 0.975: 1.31927613823; upper_Quantile.0.025(R): 1.52855208532; index: MG; Quantile.0.975(R): 1.52855208532; Quantile.0.025(R): 1.31927613823" role="graphics-symbol" aria-roledescription="errorbar" transform="translate(387.30253596834933,210)" x2="112.68704843469902" y2="0" stroke="blue" stroke-width="0.6"></line><line aria-label="CI 0.975: 1.35137605792; upper_Quantile.0.025(R): 1.83361836359; index: BA; Quantile.0.975(R): 1.83361836359; Quantile.0.025(R): 1.35137605792" role="graphics-symbol" aria-roledescription="errorbar" transform="translate(404.5871081101043,90)" x2="259.66893382078297" y2="0" stroke="blue" stroke-width="0.6"></line><line aria-label="CI 0.975: 1.45328600921; upper_Quantile.0.025(R): 1.68717324787; index: RO; Quantile.0.975(R): 1.68717324787; Quantile.0.025(R): 1.45328600921" role="graphics-symbol" aria-roledescription="errorbar" transform="translate(459.4616972652375,410)" x2="125.93928235456599" y2="0" stroke="blue" stroke-width="0.6"></line><line aria-label="CI 0.975: 1.38728238605; upper_Quantile.0.025(R): 1.79713450623; index: RR; Quantile.0.975(R): 1.79713450623; Quantile.0.025(R): 1.38728238605" role="graphics-symbol" aria-roledescription="errorbar" transform="translate(423.92128479685067,430)" x2="220.68960317251737" y2="0" stroke="blue" stroke-width="0.6"></line><line aria-label="CI 0.975: 1.47602455866; upper_Quantile.0.025(R): 1.844990731; index: DF; Quantile.0.975(R): 1.844990731; Quantile.0.025(R): 1.47602455866" role="graphics-symbol" aria-roledescription="errorbar" transform="translate(471.70553158463525,130)" x2="198.67409280120654" y2="0" stroke="blue" stroke-width="0.6"></line></g><g class="mark-group role-title"><g transform="translate(350,-17.2)"><path class="background" aria-hidden="true" d="M0,0h0v0h0Z" pointer-events="none"></path><g><g class="mark-text role-title-text" role="graphics-symbol" aria-roledescription="title" aria-label="Title text 'Instantaneous reproduction number estimate for all states in Brazil'" pointer-events="none"><text text-anchor="middle" transform="translate(0,10)" font-family="sans-serif" font-size="13px" font-weight="bold" fill="#000" opacity="1">Instantaneous reproduction number estimate for all states in Brazil</text></g></g><path class="foreground" aria-hidden="true" d="" pointer-events="none" display="none"></path></g></g></g><path class="foreground" aria-hidden="true" d="" display="none"></path></g></g></g></svg>