<svg class="marks" width="748" height="600" viewBox="0 0 748 600" version="1.1" xmlns="http://www.w3.org/2000/svg" xmlns:xlink="http://www.w3.org/1999/xlink"><rect width="748" height="600" fill="white"></rect><g fill="none" stroke-miterlimit="10" transform="translate(43,23)"><g class="mark-group role-frame root" role="graphics-object" aria-roledescription="group mark container"><g transform="translate(0,0)"><path class="background" aria-hidden="true" d="M0.5,0.5h700v540h-700Z"></path><g><g class="mark-group role-axis" aria-hidden="true"><g transform="translate(0.5,0.5)"><path class="background" aria-hidden="true" d="M0,0h0v0h0Z" pointer-events="none"></path><g><g class="mark-rule role-axis-grid" pointer-events="none"><line transform="translate(0,10)" x2="700" y2="0" stroke="#ddd" stroke-width="1" opacity="1"></line><line transform="translate(0,30)" x2="700" y2="0" stroke="#ddd" stroke-width="1" opacity="1"></line><line transform="translate(0,50)" x2="700" y2="0" stroke="#ddd" stroke-width="1" opacity="1"></line><line transform="translate(0,70)" x2="700" y2="0" stroke="#ddd" stroke-width="1" opacity="1"></line><line transform="translate(0,90)" x2="700" y2="0" stroke="#ddd" stroke-width="1" opacity="1"></line><line transform="translate(0,110)" x2="700" y2="0" stroke="#ddd" stroke-width="1" opacity="1"></line><line transform="translate(0,130)" x2="700" y2="0" stroke="#ddd" stroke-width="1" opacity="1"></line><line transform="translate(0,150)" x2="700" y2="0" stroke="#ddd" stroke-width="1" opacity="1"></line><line transform="translate(0,170)" x2="700" y2="0" stroke="#ddd" stroke-width="1" opacity="1"></line><line transform="translate(0,190)" x2="700" y2="0" stroke="#ddd" stroke-width="1" opacity="1"></line><line transform="translate(0,210)" x2="700" y2="0" stroke="#ddd" stroke-width="1" opacity="1"></line><line transform="translate(0,230)" x2="700" y2="0" stroke="#ddd" stroke-width="1" opacity="1"></line><line transform="translate(0,250)" x2="700" y2="0" stroke="#ddd" stroke-width="1" opacity="1"></line><line transform="translate(0,270)" x2="700" y2="0" stroke="#ddd" stroke-width="1" opacity="1"></line><line transform="translate(0,290)" x2="700" y2="0" stroke="#ddd" stroke-width="1" opacity="1"></line><line transform="translate(0,310)" x2="700" y2="0" stroke="#ddd" stroke-width="1" opacity="1"></line><line transform="translate(0,330)" x2="700" y2="0" stroke="#ddd" stroke-width="1" opacity="1"></line><line transform="translate(0,350)" x2="700" y2="0" stroke="#ddd" stroke-width="1" opacity="1"></line><line transform="translate(0,370)" x2="700" y2="0" stroke="#ddd" stroke-width="1" opacity="1"></line><line transform="translate(0,390)" x2="700" y2="0" stroke="#ddd" stroke-width="1" opacity="1"></line><line transform="translate(0,410)" x2="700" y2="0" stroke="#ddd" stroke-width="1" opacity="1"></line><line transform="translate(0,430)" x2="700" y2="0" stroke="#ddd" stroke-width="1" opacity="1"></line><line transform="translate(0,450)" x2="700" y2="0" stroke="#ddd" stroke-width="1" opacity="1"></line><line transform="translate(0,470)" x2="700" y2="0" stroke="#ddd" stroke-width="1" opacity="1"></line><line transform="translate(0,490)" x2="700" y2="0" stroke="#ddd" stroke-width="1" opacity="1"></line><line transform="translate(0,510)" x2="700" y2="0" stroke="#ddd" stroke-width="1" opacity="1"></line><line transform="translate(0,530)" x2="700" y2="0" stroke="#ddd" stroke-width="1" opacity="1"></line></g></g><path class="foreground" aria-hidden="true" d="" pointer-events="none" display="none"></path></g></g><g class="mark-group role-axis" role="graphics-symbol" aria-roledescription="axis" aria-label="X-axis titled 'Instantaneous reproduction number R(t), CI 0.975' for a linear scale with values from 0.8 to 1.4"><g transform="translate(0.5,540.5)"><path class="background" aria-hidden="true" d="M0,0h0v0h0Z" pointer-events="none"></path><g><g class="mark-rule role-axis-tick" pointer-events="none"><line transform="translate(0,0)" x2="0" y2="5" stroke="#888" stroke-width="1" opacity="1"></line><line transform="translate(25,0)" x2="0" y2="5" stroke="#888" stroke-width="1" opacity="1"></line><line transform="translate(51,0)" x2="0" y2="5" stroke="#888" stroke-width="1" opacity="1"></line><line transform="translate(76,0)" x2="0" y2="5" stroke="#888" stroke-width="1" opacity="1"></line><line transform="translate(102,0)" x2="0" y2="5" stroke="#888" stroke-width="1" opacity="1"></line><line transform="translate(127,0)" x2="0" y2="5" stroke="#888" stroke-width="1" opacity="1"></line><line transform="translate(153,0)" x2="0" y2="5" stroke="#888" stroke-width="1" opacity="1"></line><line transform="translate(178,0)" x2="0" y2="5" stroke="#888" stroke-width="1" opacity="1"></line><line transform="translate(204,0)" x2="0" y2="5" stroke="#888" stroke-width="1" opacity="1"></line><line transform="translate(229,0)" x2="0" y2="5" stroke="#888" stroke-width="1" opacity="1"></line><line transform="translate(255,0)" x2="0" y2="5" stroke="#888" stroke-width="1" opacity="1"></line><line transform="translate(280,0)" x2="0" y2="5" stroke="#888" stroke-width="1" opacity="1"></line><line transform="translate(305,0)" x2="0" y2="5" stroke="#888" stroke-width="1" opacity="1"></line><line transform="translate(331,0)" x2="0" y2="5" stroke="#888" stroke-width="1" opacity="1"></line><line transform="translate(356,0)" x2="0" y2="5" stroke="#888" stroke-width="1" opacity="1"></line><line transform="translate(382,0)" x2="0" y2="5" stroke="#888" stroke-width="1" opacity="1"></line><line transform="translate(407,0)" x2="0" y2="5" stroke="#888" stroke-width="1" opacity="1"></line><line transform="translate(433,0)" x2="0" y2="5" stroke="#888" stroke-width="1" opacity="1"></line><line transform="translate(458,0)" x2="0" y2="5" stroke="#888" stroke-width="1" opacity="1"></line><line transform="translate(484,0)" x2="0" y2="5" stroke="#888" stroke-width="1" opacity="1"></line><line transform="translate(509,0)" x2="0" y2="5" stroke="#888" stroke-width="1" opacity="1"></line><line transform="translate(535,0)" x2="0" y2="5" stroke="#888" stroke-width="1" opacity="1"></line><line transform="translate(560,0)" x2="0" y2="5" stroke="#888" stroke-width="1" opacity="1"></line><line transform="translate(585,0)" x2="0" y2="5" stroke="#888" stroke-width="1" opacity="1"></line><line transform="translate(611,0)" x2="0" y2="5" stroke="#888" stroke-width="1" opacity="1"></line><line transform="translate(636,0)" x2="0" y2="5" stroke="#888" stroke-width="1" opacity="1"></line><line transform="translate(662,0)" x2="0" y2="5" stroke="#888" stroke-width="1" opacity="1"></line><line transform="translate(687,0)" x2="0" y2="5" stroke="#888" stroke-width="1" opacity="1"></line></g><g class="mark-text role-axis-label" pointer-events="none"><text text-anchor="start" transform="translate(0,15)" font-family="sans-serif" font-size="10px" fill="#000" opacity="1">0.80</text><text text-anchor="middle" transform="translate(25.454545454545332,15)" font-family="sans-serif" font-size="10px" fill="#000" opacity="0">0.82</text><text text-anchor="middle" transform="translate(50.90909090909081,15)" font-family="sans-serif" font-size="10px" fill="#000" opacity="1">0.84</text><text text-anchor="middle" transform="translate(76.36363636363629,15)" font-family="sans-serif" font-size="10px" fill="#000" opacity="0">0.86</text><text text-anchor="middle" transform="translate(101.81818181818176,15)" font-family="sans-serif" font-size="10px" fill="#000" opacity="1">0.88</text><text text-anchor="middle" transform="translate(127.27272727272724,15)" font-family="sans-serif" font-size="10px" fill="#000" opacity="0">0.90</text><text text-anchor="middle" transform="translate(152.7272727272727,15)" font-family="sans-serif" font-size="10px" fill="#000" opacity="1">0.92</text><text text-anchor="middle" transform="translate(178.18181818181804,15)" font-family="sans-serif" font-size="10px" fill="#000" opacity="0">0.94</text><text text-anchor="middle" transform="translate(203.6363636363635,15)" font-family="sans-serif" font-size="10px" fill="#000" opacity="1">0.96</text><text text-anchor="middle" transform="translate(229.090909090909,15)" font-family="sans-serif" font-size="10px" fill="#000" opacity="0">0.98</text><text text-anchor="middle" transform="translate(254.54545454545448,15)" font-family="sans-serif" font-size="10px" fill="#000" opacity="1">1.00</text><text text-anchor="middle" transform="translate(279.99999999999994,15)" font-family="sans-serif" font-size="10px" fill="#000" opacity="0">1.02</text><text text-anchor="middle" transform="translate(305.4545454545454,15)" font-family="sans-serif" font-size="10px" fill="#000" opacity="1">1.04</text><text text-anchor="middle" transform="translate(330.9090909090909,15)" font-family="sans-serif" font-size="10px" fill="#000" opacity="0">1.06</text><text text-anchor="middle" transform="translate(356.36363636363643,15)" font-family="sans-serif" font-size="10px" fill="#000" opacity="1">1.08</text><text text-anchor="middle" transform="translate(381.81818181818187,15)" font-family="sans-serif" font-size="10px" fill="#000" opacity="0">1.10</text><text text-anchor="middle" transform="translate(407.2727272727273,15)" font-family="sans-serif" font-size="10px" fill="#000" opacity="1">1.12</text><text text-anchor="middle" transform="translate(432.72727272727246,15)" font-family="sans-serif" font-size="10px" fill="#000" opacity="0">1.14</text><text text-anchor="middle" transform="translate(458.181818181818,15)" font-family="sans-serif" font-size="10px" fill="#000" opacity="1">1.16</text><text text-anchor="middle" transform="translate(483.6363636363635,15)" font-family="sans-serif" font-size="10px" fill="#000" opacity="0">1.18</text><text text-anchor="middle" transform="translate(509.09090909090895,15)" font-family="sans-serif" font-size="10px" fill="#000" opacity="1">1.20</text><text text-anchor="middle" transform="translate(534.5454545454544,15)" font-family="sans-serif" font-size="10px" fill="#000" opacity="0">1.22</text><text text-anchor="middle" transform="translate(559.9999999999999,15)" font-family="sans-serif" font-size="10px" fill="#000" opacity="1">1.24</text><text text-anchor="middle" transform="translate(585.4545454545454,15)" font-family="sans-serif" font-size="10px" fill="#000" opacity="0">1.26</text><text text-anchor="middle" transform="translate(610.9090909090908,15)" font-family="sans-serif" font-size="10px" fill="#000" opacity="1">1.28</text><text text-anchor="middle" transform="translate(636.3636363636364,15)" font-family="sans-serif" font-size="10px" fill="#000" opacity="0">1.30</text><text text-anchor="middle" transform="translate(661.8181818181818,15)" font-family="sans-serif" font-size="10px" fill="#000" opacity="1">1.32</text><text text-anchor="middle" transform="translate(687.2727272727273,15)" font-family="sans-serif" font-size="10px" fill="#000" opacity="0">1.34</text></g><g class="mark-rule role-axis-domain" pointer-events="none"><line transform="translate(0,0)" x2="700" y2="0" stroke="#888" stroke-width="1" opacity="1"></line></g><g class="mark-text role-axis-title" pointer-events="none"><text text-anchor="middle" transform="translate(350,30)" font-family="sans-serif" font-size="11px" font-weight="bold" fill="#000" opacity="1">Instantaneous reproduction number R(t), CI 0.975</text></g></g><path class="foreground" aria-hidden="true" d="" pointer-events="none" display="none"></path></g></g><g class="mark-group role-axis" role="graphics-symbol" aria-roledescription="axis" aria-label="Y-axis titled 'States' for a discrete scale with 27 values: AC, AL, AM, AP, BA, ending with TO"><g transform="translate(0.5,0.5)"><path class="background" aria-hidden="true" d="M0,0h0v0h0Z" pointer-events="none"></path><g><g class="mark-rule role-axis-tick" pointer-events="none"><line transform="translate(0,10)" x2="-5" y2="0" stroke="#888" stroke-width="1" opacity="1"></line><line transform="translate(0,30)" x2="-5" y2="0" stroke="#888" stroke-width="1" opacity="1"></line><line transform="translate(0,50)" x2="-5" y2="0" stroke="#888" stroke-width="1" opacity="1"></line><line transform="translate(0,70)" x2="-5" y2="0" stroke="#888" stroke-width="1" opacity="1"></line><line transform="translate(0,90)" x2="-5" y2="0" stroke="#888" stroke-width="1" opacity="1"></line><line transform="translate(0,110)" x2="-5" y2="0" stroke="#888" stroke-width="1" opacity="1"></line><line transform="translate(0,130)" x2="-5" y2="0" stroke="#888" stroke-width="1" opacity="1"></line><line transform="translate(0,150)" x2="-5" y2="0" stroke="#888" stroke-width="1" opacity="1"></line><line transform="translate(0,170)" x2="-5" y2="0" stroke="#888" stroke-width="1" opacity="1"></line><line transform="translate(0,190)" x2="-5" y2="0" stroke="#888" stroke-width="1" opacity="1"></line><line transform="translate(0,210)" x2="-5" y2="0" stroke="#888" stroke-width="1" opacity="1"></line><line transform="translate(0,230)" x2="-5" y2="0" stroke="#888" stroke-width="1" opacity="1"></line><line transform="translate(0,250)" x2="-5" y2="0" stroke="#888" stroke-width="1" opacity="1"></line><line transform="translate(0,270)" x2="-5" y2="0" stroke="#888" stroke-width="1" opacity="1"></line><line transform="translate(0,290)" x2="-5" y2="0" stroke="#888" stroke-width="1" opacity="1"></line><line transform="translate(0,310)" x2="-5" y2="0" stroke="#888" stroke-width="1" opacity="1"></line><line transform="translate(0,330)" x2="-5" y2="0" stroke="#888" stroke-width="1" opacity="1"></line><line transform="translate(0,350)" x2="-5" y2="0" stroke="#888" stroke-width="1" opacity="1"></line><line transform="translate(0,370)" x2="-5" y2="0" stroke="#888" stroke-width="1" opacity="1"></line><line transform="translate(0,390)" x2="-5" y2="0" stroke="#888" stroke-width="1" opacity="1"></line><line transform="translate(0,410)" x2="-5" y2="0" stroke="#888" stroke-width="1" opacity="1"></line><line transform="translate(0,430)" x2="-5" y2="0" stroke="#888" stroke-width="1" opacity="1"></line><line transform="translate(0,450)" x2="-5" y2="0" stroke="#888" stroke-width="1" opacity="1"></line><line transform="translate(0,470)" x2="-5" y2="0" stroke="#888" stroke-width="1" opacity="1"></line><line transform="translate(0,490)" x2="-5" y2="0" stroke="#888" stroke-width="1" opacity="1"></line><line transform="translate(0,510)" x2="-5" y2="0" stroke="#888" stroke-width="1" opacity="1"></line><line transform="translate(0,530)" x2="-5" y2="0" stroke="#888" stroke-width="1" opacity="1"></line></g><g class="mark-text role-axis-label" pointer-events="none"><text text-anchor="end" transform="translate(-7,12.5)" font-family="sans-serif" font-size="10px" fill="#000" opacity="1">AC</text><text text-anchor="end" transform="translate(-7,32.5)" font-family="sans-serif" font-size="10px" fill="#000" opacity="1">AL</text><text text-anchor="end" transform="translate(-7,52.5)" font-family="sans-serif" font-size="10px" fill="#000" opacity="1">AM</text><text text-anchor="end" transform="translate(-7,72.5)" font-family="sans-serif" font-size="10px" fill="#000" opacity="1">AP</text><text text-anchor="end" transform="translate(-7,92.5)" font-family="sans-serif" font-size="10px" fill="#000" opacity="1">BA</text><text text-anchor="end" transform="translate(-7,112.5)" font-family="sans-serif" font-size="10px" fill="#000" opacity="1">CE</text><text text-anchor="end" transform="translate(-7,132.5)" font-family="sans-serif" font-size="10px" fill="#000" opacity="1">DF</text><text text-anchor="end" transform="translate(-7,152.5)" font-family="sans-serif" font-size="10px" fill="#000" opacity="1">ES</text><text text-anchor="end" transform="translate(-7,172.5)" font-family="sans-serif" font-size="10px" fill="#000" opacity="1">GO</text><text text-anchor="end" transform="translate(-7,192.5)" font-family="sans-serif" font-size="10px" fill="#000" opacity="1">MA</text><text text-anchor="end" transform="translate(-7,212.5)" font-family="sans-serif" font-size="10px" fill="#000" opacity="1">MG</text><text text-anchor="end" transform="translate(-7,232.5)" font-family="sans-serif" font-size="10px" fill="#000" opacity="1">MS</text><text text-anchor="end" transform="translate(-7,252.5)" font-family="sans-serif" font-size="10px" fill="#000" opacity="1">MT</text><text text-anchor="end" transform="translate(-7,272.5)" font-family="sans-serif" font-size="10px" fill="#000" opacity="1">PA</text><text text-anchor="end" transform="translate(-7,292.5)" font-family="sans-serif" font-size="10px" fill="#000" opacity="1">PB</text><text text-anchor="end" transform="translate(-7,312.5)" font-family="sans-serif" font-size="10px" fill="#000" opacity="1">PE</text><text text-anchor="end" transform="translate(-7,332.5)" font-family="sans-serif" font-size="10px" fill="#000" opacity="1">PI</text><text text-anchor="end" transform="translate(-7,352.5)" font-family="sans-serif" font-size="10px" fill="#000" opacity="1">PR</text><text text-anchor="end" transform="translate(-7,372.5)" font-family="sans-serif" font-size="10px" fill="#000" opacity="1">RJ</text><text text-anchor="end" transform="translate(-7,392.5)" font-family="sans-serif" font-size="10px" fill="#000" opacity="1">RN</text><text text-anchor="end" transform="translate(-7,412.5)" font-family="sans-serif" font-size="10px" fill="#000" opacity="1">RO</text><text text-anchor="end" transform="translate(-7,432.5)" font-family="sans-serif" font-size="10px" fill="#000" opacity="1">RR</text><text text-anchor="end" transform="translate(-7,452.5)" font-family="sans-serif" font-size="10px" fill="#000" opacity="1">RS</text><text text-anchor="end" transform="translate(-7,472.5)" font-family="sans-serif" font-size="10px" fill="#000" opacity="1">SC</text><text text-anchor="end" transform="translate(-7,492.5)" font-family="sans-serif" font-size="10px" fill="#000" opacity="1">SE</text><text text-anchor="end" transform="translate(-7,512.5)" font-family="sans-serif" font-size="10px" fill="#000" opacity="1">SP</text><text text-anchor="end" transform="translate(-7,532.5)" font-family="sans-serif" font-size="10px" fill="#000" opacity="1">TO</text></g><g class="mark-rule role-axis-domain" pointer-events="none"><line transform="translate(0,0)" x2="0" y2="540" stroke="#888" stroke-width="1" opacity="1"></line></g><g class="mark-text role-axis-title" pointer-events="none"><text text-anchor="middle" transform="translate(-27,270) rotate(-90) translate(0,-2)" font-family="sans-serif" font-size="11px" font-weight="bold" fill="#000" opacity="1">States</text></g></g><path class="foreground" aria-hidden="true" d="" pointer-events="none" display="none"></path></g></g><g class="mark-symbol role-mark layer_0_marks" role="graphics-object" aria-roledescription="symbol mark container"><path aria-label="Instantaneous reproduction number R(t): 0.876825592152; States: RR" role="graphics-symbol" aria-roledescription="point" transform="translate(97.77802637562797,430)" d="M2.7386127875258306,0A2.7386127875258306,2.7386127875258306,0,1,1,-2.7386127875258306,0A2.7386127875258306,2.7386127875258306,0,1,1,2.7386127875258306,0" stroke="#4c78a8" stroke-width="2" opacity="0.7"></path><path aria-label="Instantaneous reproduction number R(t): 0.879045085836; States: AM" role="graphics-symbol" aria-roledescription="point" transform="translate(100.60283651886931,50)" d="M2.7386127875258306,0A2.7386127875258306,2.7386127875258306,0,1,1,-2.7386127875258306,0A2.7386127875258306,2.7386127875258306,0,1,1,2.7386127875258306,0" stroke="#4c78a8" stroke-width="2" opacity="0.7"></path><path aria-label="Instantaneous reproduction number R(t): 0.903912338839; States: RJ" role="graphics-symbol" aria-roledescription="point" transform="translate(132.25206761348858,370)" d="M2.7386127875258306,0A2.7386127875258306,2.7386127875258306,0,1,1,-2.7386127875258306,0A2.7386127875258306,2.7386127875258306,0,1,1,2.7386127875258306,0" stroke="#4c78a8" stroke-width="2" opacity="0.7"></path><path aria-label="Instantaneous reproduction number R(t): 0.939179197684; States: PA" role="graphics-symbol" aria-roledescription="point" transform="translate(177.1371606883958,270)" d="M2.7386127875258306,0A2.7386127875258306,2.7386127875258306,0,1,1,-2.7386127875258306,0A2.7386127875258306,2.7386127875258306,0,1,1,2.7386127875258306,0" stroke="#4c78a8" stroke-width="2" opacity="0.7"></path><path aria-label="Instantaneous reproduction number R(t): 0.958234692188; States: PB" role="graphics-symbol" aria-roledescription="point" transform="translate(201.38960823943268,290)" d="M2.7386127875258306,0A2.7386127875258306,2.7386127875258306,0,1,1,-2.7386127875258306,0A2.7386127875258306,2.7386127875258306,0,1,1,2.7386127875258306,0" stroke="#4c78a8" stroke-width="2" opacity="0.7"></path><path aria-label="Instantaneous reproduction number R(t): 1.01646201624; States: BA" role="graphics-symbol" aria-roledescription="point" transform="translate(275.49711157556766,90)" d="M2.7386127875258306,0A2.7386127875258306,2.7386127875258306,0,1,1,-2.7386127875258306,0A2.7386127875258306,2.7386127875258306,0,1,1,2.7386127875258306,0" stroke="#4c78a8" stroke-width="2" opacity="0.7"></path><path aria-label="Instantaneous reproduction number R(t): 1.02220580935; States: PE" role="graphics-symbol" aria-roledescription="point" transform="translate(282.8073937146867,310)" d="M2.7386127875258306,0A2.7386127875258306,2.7386127875258306,0,1,1,-2.7386127875258306,0A2.7386127875258306,2.7386127875258306,0,1,1,2.7386127875258306,0" stroke="#4c78a8" stroke-width="2" opacity="0.7"></path><path aria-label="Instantaneous reproduction number R(t): 1.02340593086; States: SE" role="graphics-symbol" aria-roledescription="point" transform="translate(284.3348211006186,490)" d="M2.7386127875258306,0A2.7386127875258306,2.7386127875258306,0,1,1,-2.7386127875258306,0A2.7386127875258306,2.7386127875258306,0,1,1,2.7386127875258306,0" stroke="#4c78a8" stroke-width="2" opacity="0.7"></path><path aria-label="Instantaneous reproduction number R(t): 1.03032331203; States: RN" role="graphics-symbol" aria-roledescription="point" transform="translate(293.13876076176984,390)" d="M2.7386127875258306,0A2.7386127875258306,2.7386127875258306,0,1,1,-2.7386127875258306,0A2.7386127875258306,2.7386127875258306,0,1,1,2.7386127875258306,0" stroke="#4c78a8" stroke-width="2" opacity="0.7"></path><path aria-label="Instantaneous reproduction number R(t): 1.03672638061; States: MS" role="graphics-symbol" aria-roledescription="point" transform="translate(301.28812077963073,230)" d="M2.7386127875258306,0A2.7386127875258306,2.7386127875258306,0,1,1,-2.7386127875258306,0A2.7386127875258306,2.7386127875258306,0,1,1,2.7386127875258306,0" stroke="#4c78a8" stroke-width="2" opacity="0.7"></path><path aria-label="Instantaneous reproduction number R(t): 1.05373987914; States: AP" role="graphics-symbol" aria-roledescription="point" transform="translate(322.94166436431175,70)" d="M2.7386127875258306,0A2.7386127875258306,2.7386127875258306,0,1,1,-2.7386127875258306,0A2.7386127875258306,2.7386127875258306,0,1,1,2.7386127875258306,0" stroke="#4c78a8" stroke-width="2" opacity="0.7"></path><path aria-label="Instantaneous reproduction number R(t): 1.05569602417; States: MG" role="graphics-symbol" aria-roledescription="point" transform="translate(325.4313034890891,210)" d="M2.7386127875258306,0A2.7386127875258306,2.7386127875258306,0,1,1,-2.7386127875258306,0A2.7386127875258306,2.7386127875258306,0,1,1,2.7386127875258306,0" stroke="#4c78a8" stroke-width="2" opacity="0.7"></path><path aria-label="Instantaneous reproduction number R(t): 1.0558694238; States: ES" role="graphics-symbol" aria-roledescription="point" transform="translate(325.6519939273155,150)" d="M2.7386127875258306,0A2.7386127875258306,2.7386127875258306,0,1,1,-2.7386127875258306,0A2.7386127875258306,2.7386127875258306,0,1,1,2.7386127875258306,0" stroke="#4c78a8" stroke-width="2" opacity="0.7"></path><path aria-label="Instantaneous reproduction number R(t): 1.06382377419; States: TO" role="graphics-symbol" aria-roledescription="point" transform="translate(335.77571260681583,530)" d="M2.7386127875258306,0A2.7386127875258306,2.7386127875258306,0,1,1,-2.7386127875258306,0A2.7386127875258306,2.7386127875258306,0,1,1,2.7386127875258306,0" stroke="#4c78a8" stroke-width="2" opacity="0.7"></path><path aria-label="Instantaneous reproduction number R(t): 1.06622271578; States: AC" role="graphics-symbol" aria-roledescription="point" transform="translate(338.82891099367015,10)" d="M2.7386127875258306,0A2.7386127875258306,2.7386127875258306,0,1,1,-2.7386127875258306,0A2.7386127875258306,2.7386127875258306,0,1,1,2.7386127875258306,0" stroke="#4c78a8" stroke-width="2" opacity="0.7"></path><path aria-label="Instantaneous reproduction number R(t): 1.06821453217; States: AL" role="graphics-symbol" aria-roledescription="point" transform="translate(341.3639500364657,30)" d="M2.7386127875258306,0A2.7386127875258306,2.7386127875258306,0,1,1,-2.7386127875258306,0A2.7386127875258306,2.7386127875258306,0,1,1,2.7386127875258306,0" stroke="#4c78a8" stroke-width="2" opacity="0.7"></path><path aria-label="Instantaneous reproduction number R(t): 1.07372466933; States: SP" role="graphics-symbol" aria-roledescription="point" transform="translate(348.3768518688727,510)" d="M2.7386127875258306,0A2.7386127875258306,2.7386127875258306,0,1,1,-2.7386127875258306,0A2.7386127875258306,2.7386127875258306,0,1,1,2.7386127875258306,0" stroke="#4c78a8" stroke-width="2" opacity="0.7"></path><path aria-label="Instantaneous reproduction number R(t): 1.07410670336; States: GO" role="graphics-symbol" aria-roledescription="point" transform="translate(348.8630770090911,170)" d="M2.7386127875258306,0A2.7386127875258306,2.7386127875258306,0,1,1,-2.7386127875258306,0A2.7386127875258306,2.7386127875258306,0,1,1,2.7386127875258306,0" stroke="#4c78a8" stroke-width="2" opacity="0.7"></path><path aria-label="Instantaneous reproduction number R(t): 1.09060952984; States: MT" role="graphics-symbol" aria-roledescription="point" transform="translate(369.86667433903193,250)" d="M2.7386127875258306,0A2.7386127875258306,2.7386127875258306,0,1,1,-2.7386127875258306,0A2.7386127875258306,2.7386127875258306,0,1,1,2.7386127875258306,0" stroke="#4c78a8" stroke-width="2" opacity="0.7"></path><path aria-label="Instantaneous reproduction number R(t): 1.09643886249; States: SC" role="graphics-symbol" aria-roledescription="point" transform="translate(377.28582499094324,470)" d="M2.7386127875258306,0A2.7386127875258306,2.7386127875258306,0,1,1,-2.7386127875258306,0A2.7386127875258306,2.7386127875258306,0,1,1,2.7386127875258306,0" stroke="#4c78a8" stroke-width="2" opacity="0.7"></path><path aria-label="Instantaneous reproduction number R(t): 1.10248057349; States: MA" role="graphics-symbol" aria-roledescription="point" transform="translate(384.9752753482131,190)" d="M2.7386127875258306,0A2.7386127875258306,2.7386127875258306,0,1,1,-2.7386127875258306,0A2.7386127875258306,2.7386127875258306,0,1,1,2.7386127875258306,0" stroke="#4c78a8" stroke-width="2" opacity="0.7"></path><path aria-label="Instantaneous reproduction number R(t): 1.15726385872; States: CE" role="graphics-symbol" aria-roledescription="point" transform="translate(454.6994565537439,110)" d="M2.7386127875258306,0A2.7386127875258306,2.7386127875258306,0,1,1,-2.7386127875258306,0A2.7386127875258306,2.7386127875258306,0,1,1,2.7386127875258306,0" stroke="#4c78a8" stroke-width="2" opacity="0.7"></path><path aria-label="Instantaneous reproduction number R(t): 1.1706279658; States: PR" role="graphics-symbol" aria-roledescription="point" transform="translate(471.7083201091901,350)" d="M2.7386127875258306,0A2.7386127875258306,2.7386127875258306,0,1,1,-2.7386127875258306,0A2.7386127875258306,2.7386127875258306,0,1,1,2.7386127875258306,0" stroke="#4c78a8" stroke-width="2" opacity="0.7"></path><path aria-label="Instantaneous reproduction number R(t): 1.20798311606; States: RO" role="graphics-symbol" aria-roledescription="point" transform="translate(519.2512386168627,410)" d="M2.7386127875258306,0A2.7386127875258306,2.7386127875258306,0,1,1,-2.7386127875258306,0A2.7386127875258306,2.7386127875258306,0,1,1,2.7386127875258306,0" stroke="#4c78a8" stroke-width="2" opacity="0.7"></path><path aria-label="Instantaneous reproduction number R(t): 1.20840121125; States: PI" role="graphics-symbol" aria-roledescription="point" transform="translate(519.7833597708487,330)" d="M2.7386127875258306,0A2.7386127875258306,2.7386127875258306,0,1,1,-2.7386127875258306,0A2.7386127875258306,2.7386127875258306,0,1,1,2.7386127875258306,0" stroke="#4c78a8" stroke-width="2" opacity="0.7"></path><path aria-label="Instantaneous reproduction number R(t): 1.2731315648; States: RS" role="graphics-symbol" aria-roledescription="point" transform="translate(602.1674461132098,450)" d="M2.7386127875258306,0A2.7386127875258306,2.7386127875258306,0,1,1,-2.7386127875258306,0A2.7386127875258306,2.7386127875258306,0,1,1,2.7386127875258306,0" stroke="#4c78a8" stroke-width="2" opacity="0.7"></path><path aria-label="Instantaneous reproduction number R(t): 1.28144389386; States: DF" role="graphics-symbol" aria-roledescription="point" transform="translate(612.746773999808,130)" d="M2.7386127875258306,0A2.7386127875258306,2.7386127875258306,0,1,1,-2.7386127875258306,0A2.7386127875258306,2.7386127875258306,0,1,1,2.7386127875258306,0" stroke="#4c78a8" stroke-width="2" opacity="0.7"></path></g><g class="mark-rule role-mark layer_1_marks" role="graphics-object" aria-roledescription="rule mark container"><line aria-label="a: 1" role="graphics-symbol" aria-roledescription="rule mark" transform="translate(254.54545454545448,0)" x2="0" y2="540" stroke="black" stroke-width="0.2"></line><line aria-label="a: 1" role="graphics-symbol" aria-roledescription="rule mark" transform="translate(254.54545454545448,0)" x2="0" y2="540" stroke="black" stroke-width="0.2"></line><line aria-label="a: 1" role="graphics-symbol" aria-roledescription="rule mark" transform="translate(254.54545454545448,0)" x2="0" y2="540" stroke="black" stroke-width="0.2"></line><line aria-label="a: 1" role="graphics-symbol" aria-roledescription="rule mark" transform="translate(254.54545454545448,0)" x2="0" y2="540" stroke="black" stroke-width="0.2"></line><line aria-label="a: 1" role="graphics-symbol" aria-roledescription="rule mark" transform="translate(254.54545454545448,0)" x2="0" y2="540" stroke="black" stroke-width="0.2"></line><line aria-label="a: 1" role="graphics-symbol" aria-roledescription="rule mark" transform="translate(254.54545454545448,0)" x2="0" y2="540" stroke="black" stroke-width="0.2"></line><line aria-label="a: 1" role="graphics-symbol" aria-roledescription="rule mark" transform="translate(254.54545454545448,0)" x2="0" y2="540" stroke="black" stroke-width="0.2"></line><line aria-label="a: 1" role="graphics-symbol" aria-roledescription="rule mark" transform="translate(254.54545454545448,0)" x2="0" y2="540" stroke="black" stroke-width="0.2"></line><line aria-label="a: 1" role="graphics-symbol" aria-roledescription="rule mark" transform="translate(254.54545454545448,0)" x2="0" y2="540" stroke="black" stroke-width="0.2"></line><line aria-label="a: 1" role="graphics-symbol" aria-roledescription="rule mark" transform="translate(254.54545454545448,0)" x2="0" y2="540" stroke="black" stroke-width="0.2"></line><line aria-label="a: 1" role="graphics-symbol" aria-roledescription="rule mark" transform="translate(254.54545454545448,0)" x2="0" y2="540" stroke="black" stroke-width="0.2"></line><line aria-label="a: 1" role="graphics-symbol" aria-roledescription="rule mark" transform="translate(254.54545454545448,0)" x2="0" y2="540" stroke="black" stroke-width="0.2"></line><line aria-label="a: 1" role="graphics-symbol" aria-roledescription="rule mark" transform="translate(254.54545454545448,0)" x2="0" y2="540" stroke="black" stroke-width="0.2"></line><line aria-label="a: 1" role="graphics-symbol" aria-roledescription="rule mark" transform="translate(254.54545454545448,0)" x2="0" y2="540" stroke="black" stroke-width="0.2"></line><line aria-label="a: 1" role="graphics-symbol" aria-roledescription="rule mark" transform="translate(254.54545454545448,0)" x2="0" y2="540" stroke="black" stroke-width="0.2"></line><line aria-label="a: 1" role="graphics-symbol" aria-roledescription="rule mark" transform="translate(254.54545454545448,0)" x2="0" y2="540" stroke="black" stroke-width="0.2"></line><line aria-label="a: 1" role="graphics-symbol" aria-roledescription="rule mark" transform="translate(254.54545454545448,0)" x2="0" y2="540" stroke="black" stroke-width="0.2"></line><line aria-label="a: 1" role="graphics-symbol" aria-roledescription="rule mark" transform="translate(254.54545454545448,0)" x2="0" y2="540" stroke="black" stroke-width="0.2"></line><line aria-label="a: 1" role="graphics-symbol" aria-roledescription="rule mark" transform="translate(254.54545454545448,0)" x2="0" y2="540" stroke="black" stroke-width="0.2"></line><line aria-label="a: 1" role="graphics-symbol" aria-roledescription="rule mark" transform="translate(254.54545454545448,0)" x2="0" y2="540" stroke="black" stroke-width="0.2"></line><line aria-label="a: 1" role="graphics-symbol" aria-roledescription="rule mark" transform="translate(254.54545454545448,0)" x2="0" y2="540" stroke="black" stroke-width="0.2"></line><line aria-label="a: 1" role="graphics-symbol" aria-roledescription="rule mark" transform="translate(254.54545454545448,0)" x2="0" y2="540" stroke="black" stroke-width="0.2"></line><line aria-label="a: 1" role="graphics-symbol" aria-roledescription="rule mark" transform="translate(254.54545454545448,0)" x2="0" y2="540" stroke="black" stroke-width="0.2"></line><line aria-label="a: 1" role="graphics-symbol" aria-roledescription="rule mark" transform="translate(254.54545454545448,0)" x2="0" y2="540" stroke="black" stroke-width="0.2"></line><line aria-label="a: 1" role="graphics-symbol" aria-roledescription="rule mark" transform="translate(254.54545454545448,0)" x2="0" y2="540" stroke="black" stroke-width="0.2"></line><line aria-label="a: 1" role="graphics-symbol" aria-roledescription="rule mark" transform="translate(254.54545454545448,0)" x2="0" y2="540" stroke="black" stroke-width="0.2"></line><line aria-label="a: 1" role="graphics-symbol" aria-roledescription="rule mark" transform="translate(254.54545454545448,0)" x2="0" y2="540" stroke="black" stroke-width="0.2"></line></g><g class="mark-rule role-mark layer_2_marks" role="graphics-object" aria-roledescription="rule mark container"><line aria-label="CI 0.975: 0.832872196237; upper_Quantile.0.025(R): 0.921079329624; index: RR; Quantile.0.975(R): 0.921079329624; Quantile.0.025(R): 0.832872196237" role="graphics-symbol" aria-roledescription="errorbar" transform="translate(41.83734066585078,430)" x2="112.26362431066019" y2="0" stroke="blue" stroke-width="0.6"></line><line aria-label="CI 0.975: 0.828404024516; upper_Quantile.0.025(R): 0.927727090489; index: AM; Quantile.0.975(R): 0.927727090489; Quantile.0.025(R): 0.828404024516" role="graphics-symbol" aria-roledescription="errorbar" transform="translate(36.15057665634857,50)" x2="126.41117487550287" y2="0" stroke="blue" stroke-width="0.6"></line><line aria-label="CI 0.975: 0.871326037505; upper_Quantile.0.025(R): 0.932333255283; index: RJ; Quantile.0.975(R): 0.932333255283; Quantile.0.025(R): 0.871326037505" role="graphics-symbol" aria-roledescription="errorbar" transform="translate(90.77859318878049,370)" x2="77.64554989838197" y2="0" stroke="blue" stroke-width="0.6"></line><line aria-label="CI 0.975: 0.91477665806; upper_Quantile.0.025(R): 0.964341612643; index: PA; Quantile.0.975(R): 0.964341612643; Quantile.0.025(R): 0.91477665806" role="graphics-symbol" aria-roledescription="errorbar" transform="translate(146.0793829857865,270)" x2="63.08266946906096" y2="0" stroke="blue" stroke-width="0.6"></line><line aria-label="CI 0.975: 0.931995043843; upper_Quantile.0.025(R): 0.987262297038; index: PB; Quantile.0.975(R): 0.987262297038; Quantile.0.025(R): 0.931995043843" role="graphics-symbol" aria-roledescription="errorbar" transform="translate(167.9936921636011,290)" x2="70.34014043017694" y2="0" stroke="blue" stroke-width="0.6"></line><line aria-label="CI 0.975: 0.991256414565; upper_Quantile.0.025(R): 1.0420684998; index: BA; Quantile.0.975(R): 1.0420684998; Quantile.0.025(R): 0.991256414565" role="graphics-symbol" aria-roledescription="errorbar" transform="translate(243.41725490055705,90)" x2="64.66992666406952" y2="0" stroke="blue" stroke-width="0.6"></line><line aria-label="CI 0.975: 0.998536491343; upper_Quantile.0.025(R): 1.04645234811; index: PE; Quantile.0.975(R): 1.04645234811; Quantile.0.025(R): 0.998536491343" role="graphics-symbol" aria-roledescription="errorbar" transform="translate(252.68280716408947,310)" x2="60.98381770459065" y2="0" stroke="blue" stroke-width="0.6"></line><line aria-label="CI 0.975: 0.9666318687; upper_Quantile.0.025(R): 1.08603476679; index: SE; Quantile.0.975(R): 1.08603476679; Quantile.0.025(R): 0.9666318687" role="graphics-symbol" aria-roledescription="errorbar" transform="translate(212.07692380010303,490)" x2="151.96732484231995" y2="0" stroke="blue" stroke-width="0.6"></line><line aria-label="CI 0.975: 0.994191855875; upper_Quantile.0.025(R): 1.08063145737; index: RN; Quantile.0.975(R): 1.08063145737; Quantile.0.025(R): 0.994191855875" role="graphics-symbol" aria-roledescription="errorbar" transform="translate(247.15327111334963,390)" x2="110.01403827047389" y2="0" stroke="blue" stroke-width="0.6"></line><line aria-label="CI 0.975: 1.00869587933; upper_Quantile.0.025(R): 1.0659543077; index: MS; Quantile.0.975(R): 1.0659543077; Quantile.0.025(R): 1.00869587933" role="graphics-symbol" aria-roledescription="errorbar" transform="translate(265.6129373227767,230)" x2="72.87436338934589" y2="0" stroke="blue" stroke-width="0.6"></line><line aria-label="CI 0.975: 0.995939823723; upper_Quantile.0.025(R): 1.11124480955; index: AP; Quantile.0.975(R): 1.11124480955; Quantile.0.025(R): 0.995939823723" role="graphics-symbol" aria-roledescription="errorbar" transform="translate(249.37795746585408,70)" x2="146.7518001388101" y2="0" stroke="blue" stroke-width="0.6"></line><line aria-label="CI 0.975: 1.04011756466; upper_Quantile.0.025(R): 1.07216986671; index: MG; Quantile.0.975(R): 1.07216986671; Quantile.0.025(R): 1.04011756466" role="graphics-symbol" aria-roledescription="errorbar" transform="translate(305.6041732014993,210)" x2="40.79383897192622" y2="0" stroke="blue" stroke-width="0.6"></line><line aria-label="CI 0.975: 1.03077003437; upper_Quantile.0.025(R): 1.07966582235; index: ES; Quantile.0.975(R): 1.07966582235; Quantile.0.025(R): 1.03077003437" role="graphics-symbol" aria-roledescription="errorbar" transform="translate(293.70731646591986,150)" x2="62.231002887086674" y2="0" stroke="blue" stroke-width="0.6"></line><line aria-label="CI 0.975: 1.01058584286; upper_Quantile.0.025(R): 1.12306681231; index: TO; Quantile.0.975(R): 1.12306681231; Quantile.0.025(R): 1.01058584286" role="graphics-symbol" aria-roledescription="errorbar" transform="translate(268.0183454538377,530)" x2="143.15759748093552" y2="0" stroke="blue" stroke-width="0.6"></line><line aria-label="CI 0.975: 1.01948973884; upper_Quantile.0.025(R): 1.11475099567; index: AC; Quantile.0.975(R): 1.11475099567; Quantile.0.025(R): 1.01948973884" role="graphics-symbol" aria-roledescription="errorbar" transform="translate(279.35057670030255,10)" x2="121.24159961167555" y2="0" stroke="blue" stroke-width="0.6"></line><line aria-label="CI 0.975: 1.02417985985; upper_Quantile.0.025(R): 1.11583933495; index: AL; Quantile.0.975(R): 1.11583933495; Quantile.0.025(R): 1.02417985985" role="graphics-symbol" aria-roledescription="errorbar" transform="translate(285.3198216332379,30)" x2="116.65751376015908" y2="0" stroke="blue" stroke-width="0.6"></line><line aria-label="CI 0.975: 1.06281203759; upper_Quantile.0.025(R): 1.08397117826; index: SP; Quantile.0.975(R): 1.08397117826; Quantile.0.025(R): 1.06281203759" role="graphics-symbol" aria-roledescription="errorbar" transform="translate(334.4880478468977,510)" x2="26.929815388906547" y2="0" stroke="blue" stroke-width="0.6"></line><line aria-label="CI 0.975: 1.03747775876; upper_Quantile.0.025(R): 1.11618022593; index: GO; Quantile.0.975(R): 1.11618022593; Quantile.0.025(R): 1.03747775876" role="graphics-symbol" aria-roledescription="errorbar" transform="translate(302.24442024285975,170)" x2="100.16677639796461" y2="0" stroke="blue" stroke-width="0.6"></line><line aria-label="CI 0.975: 1.06357317541; upper_Quantile.0.025(R): 1.11590442945; index: MT; Quantile.0.975(R): 1.11590442945; Quantile.0.025(R): 1.06357317541" role="graphics-symbol" aria-roledescription="errorbar" transform="translate(335.45676870930237,250)" x2="66.60341423308057" y2="0" stroke="blue" stroke-width="0.6"></line><line aria-label="CI 0.975: 1.06436870616; upper_Quantile.0.025(R): 1.13264693897; index: SC; Quantile.0.975(R): 1.13264693897; Quantile.0.025(R): 1.06436870616" role="graphics-symbol" aria-roledescription="errorbar" transform="translate(336.46926238824204,470)" x2="86.8995690299542" y2="0" stroke="blue" stroke-width="0.6"></line><line aria-label="CI 0.975: 1.05467343452; upper_Quantile.0.025(R): 1.1508422138; index: MA; Quantile.0.975(R): 1.1508422138; Quantile.0.025(R): 1.05467343452" role="graphics-symbol" aria-roledescription="errorbar" transform="translate(324.1298257477276,190)" x2="122.39662817518013" y2="0" stroke="blue" stroke-width="0.6"></line><line aria-label="CI 0.975: 1.10698570787; upper_Quantile.0.025(R): 1.21883811995; index: CE; Quantile.0.975(R): 1.21883811995; Quantile.0.025(R): 1.10698570787" role="graphics-symbol" aria-roledescription="errorbar" transform="translate(390.7090827428521,110)" x2="142.35761537966874" y2="0" stroke="blue" stroke-width="0.6"></line><line aria-label="CI 0.975: 1.14507212002; upper_Quantile.0.025(R): 1.19741136422; index: PR; Quantile.0.975(R): 1.19741136422; Quantile.0.025(R): 1.14507212002" role="graphics-symbol" aria-roledescription="errorbar" transform="translate(439.18269820681746,350)" x2="66.6135835285225" y2="0" stroke="blue" stroke-width="0.6"></line><line aria-label="CI 0.975: 1.13501381991; upper_Quantile.0.025(R): 1.27005050302; index: RO; Quantile.0.975(R): 1.27005050302; Quantile.0.025(R): 1.13501381991" role="graphics-symbol" aria-roledescription="errorbar" transform="translate(426.38122533998063,410)" x2="171.86486940890535" y2="0" stroke="blue" stroke-width="0.6"></line><line aria-label="CI 0.975: 1.15812307167; upper_Quantile.0.025(R): 1.26257678039; index: PI; Quantile.0.975(R): 1.26257678039; Quantile.0.025(R): 1.15812307167" role="graphics-symbol" aria-roledescription="errorbar" transform="translate(455.79300030272776,330)" x2="132.94108383320594" y2="0" stroke="blue" stroke-width="0.6"></line><line aria-label="CI 0.975: 1.20702646393; upper_Quantile.0.025(R): 1.32866834069; index: RS; Quantile.0.975(R): 1.32866834069; Quantile.0.025(R): 1.20702646393" role="graphics-symbol" aria-roledescription="errorbar" transform="translate(518.0336813715475,450)" x2="154.81693404903433" y2="0" stroke="blue" stroke-width="0.6"></line><line aria-label="CI 0.975: 1.22014994265; upper_Quantile.0.025(R): 1.34433043132; index: DF; Quantile.0.975(R): 1.34433043132; Quantile.0.025(R): 1.22014994265" role="graphics-symbol" aria-roledescription="errorbar" transform="translate(534.736290649122,130)" x2="158.04789466810996" y2="0" stroke="blue" stroke-width="0.6"></line></g><g class="mark-group role-title"><g transform="translate(350,-17.2)"><path class="background" aria-hidden="true" d="M0,0h0v0h0Z" pointer-events="none"></path><g><g class="mark-text role-title-text" role="graphics-symbol" aria-roledescription="title" aria-label="Title text 'Instantaneous reproduction number estimate for all states in Brazil'" pointer-events="none"><text text-anchor="middle" transform="translate(0,10)" font-family="sans-serif" font-size="13px" font-weight="bold" fill="#000" opacity="1">Instantaneous reproduction number estimate for all states in Brazil</text></g></g><path class="foreground" aria-hidden="true" d="" pointer-events="none" display="none"></path></g></g></g><path class="foreground" aria-hidden="true" d="" display="none"></path></g></g></g></svg>