<svg class="marks" width="749" height="600" viewBox="0 0 749 600" version="1.1" xmlns="http://www.w3.org/2000/svg" xmlns:xlink="http://www.w3.org/1999/xlink"><rect width="749" height="600" style="fill: white;"></rect><g transform="translate(44,23)"><g class="mark-group role-frame root"><g transform="translate(0,0)"><path class="background" d="M0.5,0.5h700v540h-700Z" style="fill: none; stroke: none;"></path><g><g class="mark-group role-axis"><g transform="translate(0.5,0.5)"><path class="background" d="M0,0h0v0h0Z" style="pointer-events: none; fill: none;"></path><g><g class="mark-rule role-axis-grid" style="pointer-events: none;"><line transform="translate(0,10)" x2="700" y2="0" style="fill: none; stroke: #ddd; stroke-width: 1; opacity: 1;"></line><line transform="translate(0,30)" x2="700" y2="0" style="fill: none; stroke: #ddd; stroke-width: 1; opacity: 1;"></line><line transform="translate(0,50)" x2="700" y2="0" style="fill: none; stroke: #ddd; stroke-width: 1; opacity: 1;"></line><line transform="translate(0,70)" x2="700" y2="0" style="fill: none; stroke: #ddd; stroke-width: 1; opacity: 1;"></line><line transform="translate(0,90)" x2="700" y2="0" style="fill: none; stroke: #ddd; stroke-width: 1; opacity: 1;"></line><line transform="translate(0,110)" x2="700" y2="0" style="fill: none; stroke: #ddd; stroke-width: 1; opacity: 1;"></line><line transform="translate(0,130)" x2="700" y2="0" style="fill: none; stroke: #ddd; stroke-width: 1; opacity: 1;"></line><line transform="translate(0,150)" x2="700" y2="0" style="fill: none; stroke: #ddd; stroke-width: 1; opacity: 1;"></line><line transform="translate(0,170)" x2="700" y2="0" style="fill: none; stroke: #ddd; stroke-width: 1; opacity: 1;"></line><line transform="translate(0,190)" x2="700" y2="0" style="fill: none; stroke: #ddd; stroke-width: 1; opacity: 1;"></line><line transform="translate(0,210)" x2="700" y2="0" style="fill: none; stroke: #ddd; stroke-width: 1; opacity: 1;"></line><line transform="translate(0,230)" x2="700" y2="0" style="fill: none; stroke: #ddd; stroke-width: 1; opacity: 1;"></line><line transform="translate(0,250)" x2="700" y2="0" style="fill: none; stroke: #ddd; stroke-width: 1; opacity: 1;"></line><line transform="translate(0,270)" x2="700" y2="0" style="fill: none; stroke: #ddd; stroke-width: 1; opacity: 1;"></line><line transform="translate(0,290)" x2="700" y2="0" style="fill: none; stroke: #ddd; stroke-width: 1; opacity: 1;"></line><line transform="translate(0,310)" x2="700" y2="0" style="fill: none; stroke: #ddd; stroke-width: 1; opacity: 1;"></line><line transform="translate(0,330)" x2="700" y2="0" style="fill: none; stroke: #ddd; stroke-width: 1; opacity: 1;"></line><line transform="translate(0,350)" x2="700" y2="0" style="fill: none; stroke: #ddd; stroke-width: 1; opacity: 1;"></line><line transform="translate(0,370)" x2="700" y2="0" style="fill: none; stroke: #ddd; stroke-width: 1; opacity: 1;"></line><line transform="translate(0,390)" x2="700" y2="0" style="fill: none; stroke: #ddd; stroke-width: 1; opacity: 1;"></line><line transform="translate(0,410)" x2="700" y2="0" style="fill: none; stroke: #ddd; stroke-width: 1; opacity: 1;"></line><line transform="translate(0,430)" x2="700" y2="0" style="fill: none; stroke: #ddd; stroke-width: 1; opacity: 1;"></line><line transform="translate(0,450)" x2="700" y2="0" style="fill: none; stroke: #ddd; stroke-width: 1; opacity: 1;"></line><line transform="translate(0,470)" x2="700" y2="0" style="fill: none; stroke: #ddd; stroke-width: 1; opacity: 1;"></line><line transform="translate(0,490)" x2="700" y2="0" style="fill: none; stroke: #ddd; stroke-width: 1; opacity: 1;"></line><line transform="translate(0,510)" x2="700" y2="0" style="fill: none; stroke: #ddd; stroke-width: 1; opacity: 1;"></line><line transform="translate(0,530)" x2="700" y2="0" style="fill: none; stroke: #ddd; stroke-width: 1; opacity: 1;"></line></g></g><path class="foreground" d="" style="pointer-events: none; display: none; fill: none;"></path></g></g><g class="mark-group role-axis"><g transform="translate(0.5,540.5)"><path class="background" d="M0,0h0v0h0Z" style="pointer-events: none; fill: none;"></path><g><g class="mark-rule role-axis-tick" style="pointer-events: none;"><line transform="translate(0,0)" x2="0" y2="5" style="fill: none; stroke: #888; stroke-width: 1; opacity: 1;"></line><line transform="translate(40,0)" x2="0" y2="5" style="fill: none; stroke: #888; stroke-width: 1; opacity: 1;"></line><line transform="translate(80,0)" x2="0" y2="5" style="fill: none; stroke: #888; stroke-width: 1; opacity: 1;"></line><line transform="translate(120,0)" x2="0" y2="5" style="fill: none; stroke: #888; stroke-width: 1; opacity: 1;"></line><line transform="translate(160,0)" x2="0" y2="5" style="fill: none; stroke: #888; stroke-width: 1; opacity: 1;"></line><line transform="translate(200,0)" x2="0" y2="5" style="fill: none; stroke: #888; stroke-width: 1; opacity: 1;"></line><line transform="translate(240,0)" x2="0" y2="5" style="fill: none; stroke: #888; stroke-width: 1; opacity: 1;"></line><line transform="translate(280,0)" x2="0" y2="5" style="fill: none; stroke: #888; stroke-width: 1; opacity: 1;"></line><line transform="translate(320,0)" x2="0" y2="5" style="fill: none; stroke: #888; stroke-width: 1; opacity: 1;"></line><line transform="translate(360,0)" x2="0" y2="5" style="fill: none; stroke: #888; stroke-width: 1; opacity: 1;"></line><line transform="translate(400,0)" x2="0" y2="5" style="fill: none; stroke: #888; stroke-width: 1; opacity: 1;"></line><line transform="translate(440,0)" x2="0" y2="5" style="fill: none; stroke: #888; stroke-width: 1; opacity: 1;"></line><line transform="translate(480,0)" x2="0" y2="5" style="fill: none; stroke: #888; stroke-width: 1; opacity: 1;"></line><line transform="translate(520,0)" x2="0" y2="5" style="fill: none; stroke: #888; stroke-width: 1; opacity: 1;"></line><line transform="translate(560,0)" x2="0" y2="5" style="fill: none; stroke: #888; stroke-width: 1; opacity: 1;"></line><line transform="translate(600,0)" x2="0" y2="5" style="fill: none; stroke: #888; stroke-width: 1; opacity: 1;"></line><line transform="translate(640,0)" x2="0" y2="5" style="fill: none; stroke: #888; stroke-width: 1; opacity: 1;"></line><line transform="translate(680,0)" x2="0" y2="5" style="fill: none; stroke: #888; stroke-width: 1; opacity: 1;"></line></g><g class="mark-text role-axis-label" style="pointer-events: none;"><text text-anchor="start" transform="translate(0,15)" style="font-family: sans-serif; font-size: 10px; fill: #000; opacity: 1;">0.0</text><text text-anchor="middle" transform="translate(40.00000000000001,15)" style="font-family: sans-serif; font-size: 10px; fill: #000; opacity: 1;">0.2</text><text text-anchor="middle" transform="translate(80.00000000000001,15)" style="font-family: sans-serif; font-size: 10px; fill: #000; opacity: 1;">0.4</text><text text-anchor="middle" transform="translate(120,15)" style="font-family: sans-serif; font-size: 10px; fill: #000; opacity: 1;">0.6</text><text text-anchor="middle" transform="translate(160.00000000000003,15)" style="font-family: sans-serif; font-size: 10px; fill: #000; opacity: 1;">0.8</text><text text-anchor="middle" transform="translate(200,15)" style="font-family: sans-serif; font-size: 10px; fill: #000; opacity: 1;">1.0</text><text text-anchor="middle" transform="translate(240,15)" style="font-family: sans-serif; font-size: 10px; fill: #000; opacity: 1;">1.2</text><text text-anchor="middle" transform="translate(280,15)" style="font-family: sans-serif; font-size: 10px; fill: #000; opacity: 1;">1.4</text><text text-anchor="middle" transform="translate(320.00000000000006,15)" style="font-family: sans-serif; font-size: 10px; fill: #000; opacity: 1;">1.6</text><text text-anchor="middle" transform="translate(360.00000000000006,15)" style="font-family: sans-serif; font-size: 10px; fill: #000; opacity: 1;">1.8</text><text text-anchor="middle" transform="translate(400,15)" style="font-family: sans-serif; font-size: 10px; fill: #000; opacity: 1;">2.0</text><text text-anchor="middle" transform="translate(440.00000000000006,15)" style="font-family: sans-serif; font-size: 10px; fill: #000; opacity: 1;">2.2</text><text text-anchor="middle" transform="translate(480,15)" style="font-family: sans-serif; font-size: 10px; fill: #000; opacity: 1;">2.4</text><text text-anchor="middle" transform="translate(520,15)" style="font-family: sans-serif; font-size: 10px; fill: #000; opacity: 1;">2.6</text><text text-anchor="middle" transform="translate(560,15)" style="font-family: sans-serif; font-size: 10px; fill: #000; opacity: 1;">2.8</text><text text-anchor="middle" transform="translate(600,15)" style="font-family: sans-serif; font-size: 10px; fill: #000; opacity: 1;">3.0</text><text text-anchor="middle" transform="translate(640.0000000000001,15)" style="font-family: sans-serif; font-size: 10px; fill: #000; opacity: 1;">3.2</text><text text-anchor="middle" transform="translate(680,15)" style="font-family: sans-serif; font-size: 10px; fill: #000; opacity: 1;">3.4</text></g><g class="mark-rule role-axis-domain" style="pointer-events: none;"><line transform="translate(0,0)" x2="700" y2="0" style="fill: none; stroke: #888; stroke-width: 1; opacity: 1;"></line></g><g class="mark-text role-axis-title" style="pointer-events: none;"><text text-anchor="middle" transform="translate(350,30)" style="font-family: sans-serif; font-size: 11px; font-weight: bold; fill: #000; opacity: 1;">Instantaneous reproduction number R(t), CI 0.975</text></g></g><path class="foreground" d="" style="pointer-events: none; display: none; fill: none;"></path></g></g><g class="mark-group role-axis"><g transform="translate(0.5,0.5)"><path class="background" d="M0,0h0v0h0Z" style="pointer-events: none; fill: none;"></path><g><g class="mark-rule role-axis-tick" style="pointer-events: none;"><line transform="translate(0,10)" x2="-5" y2="0" style="fill: none; stroke: #888; stroke-width: 1; opacity: 1;"></line><line transform="translate(0,30)" x2="-5" y2="0" style="fill: none; stroke: #888; stroke-width: 1; opacity: 1;"></line><line transform="translate(0,50)" x2="-5" y2="0" style="fill: none; stroke: #888; stroke-width: 1; opacity: 1;"></line><line transform="translate(0,70)" x2="-5" y2="0" style="fill: none; stroke: #888; stroke-width: 1; opacity: 1;"></line><line transform="translate(0,90)" x2="-5" y2="0" style="fill: none; stroke: #888; stroke-width: 1; opacity: 1;"></line><line transform="translate(0,110)" x2="-5" y2="0" style="fill: none; stroke: #888; stroke-width: 1; opacity: 1;"></line><line transform="translate(0,130)" x2="-5" y2="0" style="fill: none; stroke: #888; stroke-width: 1; opacity: 1;"></line><line transform="translate(0,150)" x2="-5" y2="0" style="fill: none; stroke: #888; stroke-width: 1; opacity: 1;"></line><line transform="translate(0,170)" x2="-5" y2="0" style="fill: none; stroke: #888; stroke-width: 1; opacity: 1;"></line><line transform="translate(0,190)" x2="-5" y2="0" style="fill: none; stroke: #888; stroke-width: 1; opacity: 1;"></line><line transform="translate(0,210)" x2="-5" y2="0" style="fill: none; stroke: #888; stroke-width: 1; opacity: 1;"></line><line transform="translate(0,230)" x2="-5" y2="0" style="fill: none; stroke: #888; stroke-width: 1; opacity: 1;"></line><line transform="translate(0,250)" x2="-5" y2="0" style="fill: none; stroke: #888; stroke-width: 1; opacity: 1;"></line><line transform="translate(0,270)" x2="-5" y2="0" style="fill: none; stroke: #888; stroke-width: 1; opacity: 1;"></line><line transform="translate(0,290)" x2="-5" y2="0" style="fill: none; stroke: #888; stroke-width: 1; opacity: 1;"></line><line transform="translate(0,310)" x2="-5" y2="0" style="fill: none; stroke: #888; stroke-width: 1; opacity: 1;"></line><line transform="translate(0,330)" x2="-5" y2="0" style="fill: none; stroke: #888; stroke-width: 1; opacity: 1;"></line><line transform="translate(0,350)" x2="-5" y2="0" style="fill: none; stroke: #888; stroke-width: 1; opacity: 1;"></line><line transform="translate(0,370)" x2="-5" y2="0" style="fill: none; stroke: #888; stroke-width: 1; opacity: 1;"></line><line transform="translate(0,390)" x2="-5" y2="0" style="fill: none; stroke: #888; stroke-width: 1; opacity: 1;"></line><line transform="translate(0,410)" x2="-5" y2="0" style="fill: none; stroke: #888; stroke-width: 1; opacity: 1;"></line><line transform="translate(0,430)" x2="-5" y2="0" style="fill: none; stroke: #888; stroke-width: 1; opacity: 1;"></line><line transform="translate(0,450)" x2="-5" y2="0" style="fill: none; stroke: #888; stroke-width: 1; opacity: 1;"></line><line transform="translate(0,470)" x2="-5" y2="0" style="fill: none; stroke: #888; stroke-width: 1; opacity: 1;"></line><line transform="translate(0,490)" x2="-5" y2="0" style="fill: none; stroke: #888; stroke-width: 1; opacity: 1;"></line><line transform="translate(0,510)" x2="-5" y2="0" style="fill: none; stroke: #888; stroke-width: 1; opacity: 1;"></line><line transform="translate(0,530)" x2="-5" y2="0" style="fill: none; stroke: #888; stroke-width: 1; opacity: 1;"></line></g><g class="mark-text role-axis-label" style="pointer-events: none;"><text text-anchor="end" transform="translate(-7,12.5)" style="font-family: sans-serif; font-size: 10px; fill: #000; opacity: 1;">AC</text><text text-anchor="end" transform="translate(-7,32.5)" style="font-family: sans-serif; font-size: 10px; fill: #000; opacity: 1;">AL</text><text text-anchor="end" transform="translate(-7,52.5)" style="font-family: sans-serif; font-size: 10px; fill: #000; opacity: 1;">AM</text><text text-anchor="end" transform="translate(-7,72.5)" style="font-family: sans-serif; font-size: 10px; fill: #000; opacity: 1;">AP</text><text text-anchor="end" transform="translate(-7,92.5)" style="font-family: sans-serif; font-size: 10px; fill: #000; opacity: 1;">BA</text><text text-anchor="end" transform="translate(-7,112.5)" style="font-family: sans-serif; font-size: 10px; fill: #000; opacity: 1;">CE</text><text text-anchor="end" transform="translate(-7,132.5)" style="font-family: sans-serif; font-size: 10px; fill: #000; opacity: 1;">DF</text><text text-anchor="end" transform="translate(-7,152.5)" style="font-family: sans-serif; font-size: 10px; fill: #000; opacity: 1;">ES</text><text text-anchor="end" transform="translate(-7,172.5)" style="font-family: sans-serif; font-size: 10px; fill: #000; opacity: 1;">GO</text><text text-anchor="end" transform="translate(-7,192.5)" style="font-family: sans-serif; font-size: 10px; fill: #000; opacity: 1;">MA</text><text text-anchor="end" transform="translate(-7,212.5)" style="font-family: sans-serif; font-size: 10px; fill: #000; opacity: 1;">MG</text><text text-anchor="end" transform="translate(-7,232.5)" style="font-family: sans-serif; font-size: 10px; fill: #000; opacity: 1;">MS</text><text text-anchor="end" transform="translate(-7,252.5)" style="font-family: sans-serif; font-size: 10px; fill: #000; opacity: 1;">MT</text><text text-anchor="end" transform="translate(-7,272.5)" style="font-family: sans-serif; font-size: 10px; fill: #000; opacity: 1;">PA</text><text text-anchor="end" transform="translate(-7,292.5)" style="font-family: sans-serif; font-size: 10px; fill: #000; opacity: 1;">PB</text><text text-anchor="end" transform="translate(-7,312.5)" style="font-family: sans-serif; font-size: 10px; fill: #000; opacity: 1;">PE</text><text text-anchor="end" transform="translate(-7,332.5)" style="font-family: sans-serif; font-size: 10px; fill: #000; opacity: 1;">PI</text><text text-anchor="end" transform="translate(-7,352.5)" style="font-family: sans-serif; font-size: 10px; fill: #000; opacity: 1;">PR</text><text text-anchor="end" transform="translate(-7,372.5)" style="font-family: sans-serif; font-size: 10px; fill: #000; opacity: 1;">RJ</text><text text-anchor="end" transform="translate(-7,392.5)" style="font-family: sans-serif; font-size: 10px; fill: #000; opacity: 1;">RN</text><text text-anchor="end" transform="translate(-7,412.5)" style="font-family: sans-serif; font-size: 10px; fill: #000; opacity: 1;">RO</text><text text-anchor="end" transform="translate(-7,432.5)" style="font-family: sans-serif; font-size: 10px; fill: #000; opacity: 1;">RR</text><text text-anchor="end" transform="translate(-7,452.5)" style="font-family: sans-serif; font-size: 10px; fill: #000; opacity: 1;">RS</text><text text-anchor="end" transform="translate(-7,472.5)" style="font-family: sans-serif; font-size: 10px; fill: #000; opacity: 1;">SC</text><text text-anchor="end" transform="translate(-7,492.5)" style="font-family: sans-serif; font-size: 10px; fill: #000; opacity: 1;">SE</text><text text-anchor="end" transform="translate(-7,512.5)" style="font-family: sans-serif; font-size: 10px; fill: #000; opacity: 1;">SP</text><text text-anchor="end" transform="translate(-7,532.5)" style="font-family: sans-serif; font-size: 10px; fill: #000; opacity: 1;">TO</text></g><g class="mark-rule role-axis-domain" style="pointer-events: none;"><line transform="translate(0,0)" x2="0" y2="540" style="fill: none; stroke: #888; stroke-width: 1; opacity: 1;"></line></g><g class="mark-text role-axis-title" style="pointer-events: none;"><text text-anchor="middle" transform="translate(-27.1083984375,270) rotate(-90) translate(0,-2)" style="font-family: sans-serif; font-size: 11px; font-weight: bold; fill: #000; opacity: 1;">States</text></g></g><path class="foreground" d="" style="pointer-events: none; display: none; fill: none;"></path></g></g><g class="mark-symbol role-mark layer_0_marks"><path transform="translate(99.10703056635772,530)" d="M2.7386127875258306,0A2.7386127875258306,2.7386127875258306,0,1,1,-2.7386127875258306,0A2.7386127875258306,2.7386127875258306,0,1,1,2.7386127875258306,0" style="fill: none; stroke: #4c78a8; stroke-width: 2; opacity: 0.7;"></path><path transform="translate(164.15067319301804,490)" d="M2.7386127875258306,0A2.7386127875258306,2.7386127875258306,0,1,1,-2.7386127875258306,0A2.7386127875258306,2.7386127875258306,0,1,1,2.7386127875258306,0" style="fill: none; stroke: #4c78a8; stroke-width: 2; opacity: 0.7;"></path><path transform="translate(172.96035896078578,450)" d="M2.7386127875258306,0A2.7386127875258306,2.7386127875258306,0,1,1,-2.7386127875258306,0A2.7386127875258306,2.7386127875258306,0,1,1,2.7386127875258306,0" style="fill: none; stroke: #4c78a8; stroke-width: 2; opacity: 0.7;"></path><path transform="translate(176.72890048271975,350)" d="M2.7386127875258306,0A2.7386127875258306,2.7386127875258306,0,1,1,-2.7386127875258306,0A2.7386127875258306,2.7386127875258306,0,1,1,2.7386127875258306,0" style="fill: none; stroke: #4c78a8; stroke-width: 2; opacity: 0.7;"></path><path transform="translate(197.2789861609095,210)" d="M2.7386127875258306,0A2.7386127875258306,2.7386127875258306,0,1,1,-2.7386127875258306,0A2.7386127875258306,2.7386127875258306,0,1,1,2.7386127875258306,0" style="fill: none; stroke: #4c78a8; stroke-width: 2; opacity: 0.7;"></path><path transform="translate(202.27297813374756,230)" d="M2.7386127875258306,0A2.7386127875258306,2.7386127875258306,0,1,1,-2.7386127875258306,0A2.7386127875258306,2.7386127875258306,0,1,1,2.7386127875258306,0" style="fill: none; stroke: #4c78a8; stroke-width: 2; opacity: 0.7;"></path><path transform="translate(204.85523590823368,250)" d="M2.7386127875258306,0A2.7386127875258306,2.7386127875258306,0,1,1,-2.7386127875258306,0A2.7386127875258306,2.7386127875258306,0,1,1,2.7386127875258306,0" style="fill: none; stroke: #4c78a8; stroke-width: 2; opacity: 0.7;"></path><path transform="translate(218.43988602734177,110)" d="M2.7386127875258306,0A2.7386127875258306,2.7386127875258306,0,1,1,-2.7386127875258306,0A2.7386127875258306,2.7386127875258306,0,1,1,2.7386127875258306,0" style="fill: none; stroke: #4c78a8; stroke-width: 2; opacity: 0.7;"></path><path transform="translate(222.69556830237764,90)" d="M2.7386127875258306,0A2.7386127875258306,2.7386127875258306,0,1,1,-2.7386127875258306,0A2.7386127875258306,2.7386127875258306,0,1,1,2.7386127875258306,0" style="fill: none; stroke: #4c78a8; stroke-width: 2; opacity: 0.7;"></path><path transform="translate(225.70611085853395,50)" d="M2.7386127875258306,0A2.7386127875258306,2.7386127875258306,0,1,1,-2.7386127875258306,0A2.7386127875258306,2.7386127875258306,0,1,1,2.7386127875258306,0" style="fill: none; stroke: #4c78a8; stroke-width: 2; opacity: 0.7;"></path><path transform="translate(227.1811404581261,130)" d="M2.7386127875258306,0A2.7386127875258306,2.7386127875258306,0,1,1,-2.7386127875258306,0A2.7386127875258306,2.7386127875258306,0,1,1,2.7386127875258306,0" style="fill: none; stroke: #4c78a8; stroke-width: 2; opacity: 0.7;"></path><path transform="translate(227.3193836405846,510)" d="M2.7386127875258306,0A2.7386127875258306,2.7386127875258306,0,1,1,-2.7386127875258306,0A2.7386127875258306,2.7386127875258306,0,1,1,2.7386127875258306,0" style="fill: none; stroke: #4c78a8; stroke-width: 2; opacity: 0.7;"></path><path transform="translate(234.1192295518968,470)" d="M2.7386127875258306,0A2.7386127875258306,2.7386127875258306,0,1,1,-2.7386127875258306,0A2.7386127875258306,2.7386127875258306,0,1,1,2.7386127875258306,0" style="fill: none; stroke: #4c78a8; stroke-width: 2; opacity: 0.7;"></path><path transform="translate(259.0579526212909,390)" d="M2.7386127875258306,0A2.7386127875258306,2.7386127875258306,0,1,1,-2.7386127875258306,0A2.7386127875258306,2.7386127875258306,0,1,1,2.7386127875258306,0" style="fill: none; stroke: #4c78a8; stroke-width: 2; opacity: 0.7;"></path><path transform="translate(268.450268662793,370)" d="M2.7386127875258306,0A2.7386127875258306,2.7386127875258306,0,1,1,-2.7386127875258306,0A2.7386127875258306,2.7386127875258306,0,1,1,2.7386127875258306,0" style="fill: none; stroke: #4c78a8; stroke-width: 2; opacity: 0.7;"></path><path transform="translate(286.82284863245275,170)" d="M2.7386127875258306,0A2.7386127875258306,2.7386127875258306,0,1,1,-2.7386127875258306,0A2.7386127875258306,2.7386127875258306,0,1,1,2.7386127875258306,0" style="fill: none; stroke: #4c78a8; stroke-width: 2; opacity: 0.7;"></path><path transform="translate(302.5444420580339,70)" d="M2.7386127875258306,0A2.7386127875258306,2.7386127875258306,0,1,1,-2.7386127875258306,0A2.7386127875258306,2.7386127875258306,0,1,1,2.7386127875258306,0" style="fill: none; stroke: #4c78a8; stroke-width: 2; opacity: 0.7;"></path><path transform="translate(323.9618259532451,270)" d="M2.7386127875258306,0A2.7386127875258306,2.7386127875258306,0,1,1,-2.7386127875258306,0A2.7386127875258306,2.7386127875258306,0,1,1,2.7386127875258306,0" style="fill: none; stroke: #4c78a8; stroke-width: 2; opacity: 0.7;"></path><path transform="translate(343.02131988275784,190)" d="M2.7386127875258306,0A2.7386127875258306,2.7386127875258306,0,1,1,-2.7386127875258306,0A2.7386127875258306,2.7386127875258306,0,1,1,2.7386127875258306,0" style="fill: none; stroke: #4c78a8; stroke-width: 2; opacity: 0.7;"></path><path transform="translate(360.21116205061304,10)" d="M2.7386127875258306,0A2.7386127875258306,2.7386127875258306,0,1,1,-2.7386127875258306,0A2.7386127875258306,2.7386127875258306,0,1,1,2.7386127875258306,0" style="fill: none; stroke: #4c78a8; stroke-width: 2; opacity: 0.7;"></path><path transform="translate(362.3553052354807,150)" d="M2.7386127875258306,0A2.7386127875258306,2.7386127875258306,0,1,1,-2.7386127875258306,0A2.7386127875258306,2.7386127875258306,0,1,1,2.7386127875258306,0" style="fill: none; stroke: #4c78a8; stroke-width: 2; opacity: 0.7;"></path><path transform="translate(364.41172873589267,310)" d="M2.7386127875258306,0A2.7386127875258306,2.7386127875258306,0,1,1,-2.7386127875258306,0A2.7386127875258306,2.7386127875258306,0,1,1,2.7386127875258306,0" style="fill: none; stroke: #4c78a8; stroke-width: 2; opacity: 0.7;"></path><path transform="translate(366.0732469160088,430)" d="M2.7386127875258306,0A2.7386127875258306,2.7386127875258306,0,1,1,-2.7386127875258306,0A2.7386127875258306,2.7386127875258306,0,1,1,2.7386127875258306,0" style="fill: none; stroke: #4c78a8; stroke-width: 2; opacity: 0.7;"></path><path transform="translate(422.05681554358057,290)" d="M2.7386127875258306,0A2.7386127875258306,2.7386127875258306,0,1,1,-2.7386127875258306,0A2.7386127875258306,2.7386127875258306,0,1,1,2.7386127875258306,0" style="fill: none; stroke: #4c78a8; stroke-width: 2; opacity: 0.7;"></path><path transform="translate(430.6655299298474,30)" d="M2.7386127875258306,0A2.7386127875258306,2.7386127875258306,0,1,1,-2.7386127875258306,0A2.7386127875258306,2.7386127875258306,0,1,1,2.7386127875258306,0" style="fill: none; stroke: #4c78a8; stroke-width: 2; opacity: 0.7;"></path><path transform="translate(455.927055434526,330)" d="M2.7386127875258306,0A2.7386127875258306,2.7386127875258306,0,1,1,-2.7386127875258306,0A2.7386127875258306,2.7386127875258306,0,1,1,2.7386127875258306,0" style="fill: none; stroke: #4c78a8; stroke-width: 2; opacity: 0.7;"></path><path transform="translate(483.94181093075844,410)" d="M2.7386127875258306,0A2.7386127875258306,2.7386127875258306,0,1,1,-2.7386127875258306,0A2.7386127875258306,2.7386127875258306,0,1,1,2.7386127875258306,0" style="fill: none; stroke: #4c78a8; stroke-width: 2; opacity: 0.7;"></path></g><g class="mark-rule role-mark layer_1_marks"><line transform="translate(200,0)" x2="0" y2="540" style="fill: none; stroke: black; stroke-width: 0.2;"></line><line transform="translate(200,0)" x2="0" y2="540" style="fill: none; stroke: black; stroke-width: 0.2;"></line><line transform="translate(200,0)" x2="0" y2="540" style="fill: none; stroke: black; stroke-width: 0.2;"></line><line transform="translate(200,0)" x2="0" y2="540" style="fill: none; stroke: black; stroke-width: 0.2;"></line><line transform="translate(200,0)" x2="0" y2="540" style="fill: none; stroke: black; stroke-width: 0.2;"></line><line transform="translate(200,0)" x2="0" y2="540" style="fill: none; stroke: black; stroke-width: 0.2;"></line><line transform="translate(200,0)" x2="0" y2="540" style="fill: none; stroke: black; stroke-width: 0.2;"></line><line transform="translate(200,0)" x2="0" y2="540" style="fill: none; stroke: black; stroke-width: 0.2;"></line><line transform="translate(200,0)" x2="0" y2="540" style="fill: none; stroke: black; stroke-width: 0.2;"></line><line transform="translate(200,0)" x2="0" y2="540" style="fill: none; stroke: black; stroke-width: 0.2;"></line><line transform="translate(200,0)" x2="0" y2="540" style="fill: none; stroke: black; stroke-width: 0.2;"></line><line transform="translate(200,0)" x2="0" y2="540" style="fill: none; stroke: black; stroke-width: 0.2;"></line><line transform="translate(200,0)" x2="0" y2="540" style="fill: none; stroke: black; stroke-width: 0.2;"></line><line transform="translate(200,0)" x2="0" y2="540" style="fill: none; stroke: black; stroke-width: 0.2;"></line><line transform="translate(200,0)" x2="0" y2="540" style="fill: none; stroke: black; stroke-width: 0.2;"></line><line transform="translate(200,0)" x2="0" y2="540" style="fill: none; stroke: black; stroke-width: 0.2;"></line><line transform="translate(200,0)" x2="0" y2="540" style="fill: none; stroke: black; stroke-width: 0.2;"></line><line transform="translate(200,0)" x2="0" y2="540" style="fill: none; stroke: black; stroke-width: 0.2;"></line><line transform="translate(200,0)" x2="0" y2="540" style="fill: none; stroke: black; stroke-width: 0.2;"></line><line transform="translate(200,0)" x2="0" y2="540" style="fill: none; stroke: black; stroke-width: 0.2;"></line><line transform="translate(200,0)" x2="0" y2="540" style="fill: none; stroke: black; stroke-width: 0.2;"></line><line transform="translate(200,0)" x2="0" y2="540" style="fill: none; stroke: black; stroke-width: 0.2;"></line><line transform="translate(200,0)" x2="0" y2="540" style="fill: none; stroke: black; stroke-width: 0.2;"></line><line transform="translate(200,0)" x2="0" y2="540" style="fill: none; stroke: black; stroke-width: 0.2;"></line><line transform="translate(200,0)" x2="0" y2="540" style="fill: none; stroke: black; stroke-width: 0.2;"></line><line transform="translate(200,0)" x2="0" y2="540" style="fill: none; stroke: black; stroke-width: 0.2;"></line><line transform="translate(200,0)" x2="0" y2="540" style="fill: none; stroke: black; stroke-width: 0.2;"></line></g><g class="mark-rule role-mark layer_2_marks"><line transform="translate(30.66169532017609,530)" x2="177.0167377738106" y2="0" style="fill: none; stroke: blue; stroke-width: 0.6;"></line><line transform="translate(82.96337073897553,490)" x2="190.44703222599628" y2="0" style="fill: none; stroke: blue; stroke-width: 0.6;"></line><line transform="translate(146.38698109633225,450)" x2="55.79575560130698" y2="0" style="fill: none; stroke: blue; stroke-width: 0.6;"></line><line transform="translate(154.71812465077323,350)" x2="45.661890981575965" y2="0" style="fill: none; stroke: blue; stroke-width: 0.6;"></line><line transform="translate(174.62277815569317,210)" x2="46.808231489739484" y2="0" style="fill: none; stroke: blue; stroke-width: 0.6;"></line><line transform="translate(142.3995671829844,230)" x2="130.42690772054908" y2="0" style="fill: none; stroke: blue; stroke-width: 0.6;"></line><line transform="translate(156.34370243994815,250)" x2="104.06544323113624" y2="0" style="fill: none; stroke: blue; stroke-width: 0.6;"></line><line transform="translate(201.1550908548576,110)" x2="36.51137521163852" y2="0" style="fill: none; stroke: blue; stroke-width: 0.6;"></line><line transform="translate(197.57811308486276,90)" x2="51.99344260093696" y2="0" style="fill: none; stroke: blue; stroke-width: 0.6;"></line><line transform="translate(202.10820372878015,50)" x2="49.34376632873236" y2="0" style="fill: none; stroke: blue; stroke-width: 0.6;"></line><line transform="translate(194.31992756034592,130)" x2="68.33438086060696" y2="0" style="fill: none; stroke: blue; stroke-width: 0.6;"></line><line transform="translate(216.4033556812022,510)" x2="23.010339030484687" y2="0" style="fill: none; stroke: blue; stroke-width: 0.6;"></line><line transform="translate(204.19304219530494,470)" x2="64.78420671889364" y2="0" style="fill: none; stroke: blue; stroke-width: 0.6;"></line><line transform="translate(211.96966250526603,390)" x2="98.05634085858233" y2="0" style="fill: none; stroke: blue; stroke-width: 0.6;"></line><line transform="translate(240.5920477532133,370)" x2="58.91873727917363" y2="0" style="fill: none; stroke: blue; stroke-width: 0.6;"></line><line transform="translate(234.09679548387643,170)" x2="111.623708561614" y2="0" style="fill: none; stroke: blue; stroke-width: 0.6;"></line><line transform="translate(235.94416037635702,70)" x2="149.35115288188777" y2="0" style="fill: none; stroke: blue; stroke-width: 0.6;"></line><line transform="translate(270.95020421533485,270)" x2="112.4583284196637" y2="0" style="fill: none; stroke: blue; stroke-width: 0.6;"></line><line transform="translate(291.94006084428304,190)" x2="113.50224580924709" y2="0" style="fill: none; stroke: blue; stroke-width: 0.6;"></line><line transform="translate(241.78359517683745,10)" x2="272.3564301569986" y2="0" style="fill: none; stroke: blue; stroke-width: 0.6;"></line><line transform="translate(305.8789624941583,150)" x2="121.78595790091407" y2="0" style="fill: none; stroke: blue; stroke-width: 0.6;"></line><line transform="translate(298.4252333505061,310)" x2="155.4134490223292" y2="0" style="fill: none; stroke: blue; stroke-width: 0.6;"></line><line transform="translate(262.501922106283,430)" x2="220.3480674667244" y2="0" style="fill: none; stroke: blue; stroke-width: 0.6;"></line><line transform="translate(305.93698890449724,290)" x2="264.86751612847826" y2="0" style="fill: none; stroke: blue; stroke-width: 0.6;"></line><line transform="translate(304.89383221250876,30)" x2="271.26309341776073" y2="0" style="fill: none; stroke: blue; stroke-width: 0.6;"></line><line transform="translate(318.3961555803483,330)" x2="304.9482203537404" y2="0" style="fill: none; stroke: blue; stroke-width: 0.6;"></line><line transform="translate(326.22405101105954,410)" x2="350.19907300710923" y2="0" style="fill: none; stroke: blue; stroke-width: 0.6;"></line></g><g class="mark-group role-title"><g transform="translate(350,-17.2)"><path class="background" d="M0,0h0v0h0Z" style="pointer-events: none; fill: none;"></path><g><g class="mark-text role-title-text" style="pointer-events: none;"><text text-anchor="middle" transform="translate(0,10)" style="font-family: sans-serif; font-size: 13px; font-weight: bold; fill: #000; opacity: 1;">Instantaneous reproduction number estimate for all states in Brazil</text></g></g><path class="foreground" d="" style="pointer-events: none; display: none; fill: none;"></path></g></g></g><path class="foreground" d="" style="display: none; fill: none;"></path></g></g></g></svg>