<svg class="marks" width="749" height="600" viewBox="0 0 749 600" version="1.1" xmlns="http://www.w3.org/2000/svg" xmlns:xlink="http://www.w3.org/1999/xlink"><rect width="749" height="600" fill="white"></rect><g fill="none" stroke-miterlimit="10" transform="translate(43,23)"><g class="mark-group role-frame root" role="graphics-object" aria-roledescription="group mark container"><g transform="translate(0,0)"><path class="background" aria-hidden="true" d="M0.5,0.5h700v540h-700Z"></path><g><g class="mark-group role-axis" aria-hidden="true"><g transform="translate(0.5,0.5)"><path class="background" aria-hidden="true" d="M0,0h0v0h0Z" pointer-events="none"></path><g><g class="mark-rule role-axis-grid" pointer-events="none"><line transform="translate(0,10)" x2="700" y2="0" stroke="#ddd" stroke-width="1" opacity="1"></line><line transform="translate(0,30)" x2="700" y2="0" stroke="#ddd" stroke-width="1" opacity="1"></line><line transform="translate(0,50)" x2="700" y2="0" stroke="#ddd" stroke-width="1" opacity="1"></line><line transform="translate(0,70)" x2="700" y2="0" stroke="#ddd" stroke-width="1" opacity="1"></line><line transform="translate(0,90)" x2="700" y2="0" stroke="#ddd" stroke-width="1" opacity="1"></line><line transform="translate(0,110)" x2="700" y2="0" stroke="#ddd" stroke-width="1" opacity="1"></line><line transform="translate(0,130)" x2="700" y2="0" stroke="#ddd" stroke-width="1" opacity="1"></line><line transform="translate(0,150)" x2="700" y2="0" stroke="#ddd" stroke-width="1" opacity="1"></line><line transform="translate(0,170)" x2="700" y2="0" stroke="#ddd" stroke-width="1" opacity="1"></line><line transform="translate(0,190)" x2="700" y2="0" stroke="#ddd" stroke-width="1" opacity="1"></line><line transform="translate(0,210)" x2="700" y2="0" stroke="#ddd" stroke-width="1" opacity="1"></line><line transform="translate(0,230)" x2="700" y2="0" stroke="#ddd" stroke-width="1" opacity="1"></line><line transform="translate(0,250)" x2="700" y2="0" stroke="#ddd" stroke-width="1" opacity="1"></line><line transform="translate(0,270)" x2="700" y2="0" stroke="#ddd" stroke-width="1" opacity="1"></line><line transform="translate(0,290)" x2="700" y2="0" stroke="#ddd" stroke-width="1" opacity="1"></line><line transform="translate(0,310)" x2="700" y2="0" stroke="#ddd" stroke-width="1" opacity="1"></line><line transform="translate(0,330)" x2="700" y2="0" stroke="#ddd" stroke-width="1" opacity="1"></line><line transform="translate(0,350)" x2="700" y2="0" stroke="#ddd" stroke-width="1" opacity="1"></line><line transform="translate(0,370)" x2="700" y2="0" stroke="#ddd" stroke-width="1" opacity="1"></line><line transform="translate(0,390)" x2="700" y2="0" stroke="#ddd" stroke-width="1" opacity="1"></line><line transform="translate(0,410)" x2="700" y2="0" stroke="#ddd" stroke-width="1" opacity="1"></line><line transform="translate(0,430)" x2="700" y2="0" stroke="#ddd" stroke-width="1" opacity="1"></line><line transform="translate(0,450)" x2="700" y2="0" stroke="#ddd" stroke-width="1" opacity="1"></line><line transform="translate(0,470)" x2="700" y2="0" stroke="#ddd" stroke-width="1" opacity="1"></line><line transform="translate(0,490)" x2="700" y2="0" stroke="#ddd" stroke-width="1" opacity="1"></line><line transform="translate(0,510)" x2="700" y2="0" stroke="#ddd" stroke-width="1" opacity="1"></line><line transform="translate(0,530)" x2="700" y2="0" stroke="#ddd" stroke-width="1" opacity="1"></line></g></g><path class="foreground" aria-hidden="true" d="" pointer-events="none" display="none"></path></g></g><g class="mark-group role-axis" role="graphics-symbol" aria-roledescription="axis" aria-label="X-axis titled 'Instantaneous reproduction number R(t), CI 0.975' for a linear scale with values from 0.7 to 1.3"><g transform="translate(0.5,540.5)"><path class="background" aria-hidden="true" d="M0,0h0v0h0Z" pointer-events="none"></path><g><g class="mark-rule role-axis-tick" pointer-events="none"><line transform="translate(0,0)" x2="0" y2="5" stroke="#888" stroke-width="1" opacity="1"></line><line transform="translate(58,0)" x2="0" y2="5" stroke="#888" stroke-width="1" opacity="1"></line><line transform="translate(117,0)" x2="0" y2="5" stroke="#888" stroke-width="1" opacity="1"></line><line transform="translate(175,0)" x2="0" y2="5" stroke="#888" stroke-width="1" opacity="1"></line><line transform="translate(233,0)" x2="0" y2="5" stroke="#888" stroke-width="1" opacity="1"></line><line transform="translate(292,0)" x2="0" y2="5" stroke="#888" stroke-width="1" opacity="1"></line><line transform="translate(350,0)" x2="0" y2="5" stroke="#888" stroke-width="1" opacity="1"></line><line transform="translate(408,0)" x2="0" y2="5" stroke="#888" stroke-width="1" opacity="1"></line><line transform="translate(467,0)" x2="0" y2="5" stroke="#888" stroke-width="1" opacity="1"></line><line transform="translate(525,0)" x2="0" y2="5" stroke="#888" stroke-width="1" opacity="1"></line><line transform="translate(583,0)" x2="0" y2="5" stroke="#888" stroke-width="1" opacity="1"></line><line transform="translate(642,0)" x2="0" y2="5" stroke="#888" stroke-width="1" opacity="1"></line><line transform="translate(700,0)" x2="0" y2="5" stroke="#888" stroke-width="1" opacity="1"></line></g><g class="mark-text role-axis-label" pointer-events="none"><text text-anchor="start" transform="translate(0,15)" font-family="sans-serif" font-size="10px" fill="#000" opacity="1">0.65</text><text text-anchor="middle" transform="translate(58.333333333333265,15)" font-family="sans-serif" font-size="10px" fill="#000" opacity="1">0.70</text><text text-anchor="middle" transform="translate(116.66666666666664,15)" font-family="sans-serif" font-size="10px" fill="#000" opacity="1">0.75</text><text text-anchor="middle" transform="translate(175.00000000000003,15)" font-family="sans-serif" font-size="10px" fill="#000" opacity="1">0.80</text><text text-anchor="middle" transform="translate(233.3333333333333,15)" font-family="sans-serif" font-size="10px" fill="#000" opacity="1">0.85</text><text text-anchor="middle" transform="translate(291.6666666666667,15)" font-family="sans-serif" font-size="10px" fill="#000" opacity="1">0.90</text><text text-anchor="middle" transform="translate(349.99999999999994,15)" font-family="sans-serif" font-size="10px" fill="#000" opacity="1">0.95</text><text text-anchor="middle" transform="translate(408.33333333333337,15)" font-family="sans-serif" font-size="10px" fill="#000" opacity="1">1.00</text><text text-anchor="middle" transform="translate(466.66666666666674,15)" font-family="sans-serif" font-size="10px" fill="#000" opacity="1">1.05</text><text text-anchor="middle" transform="translate(525.0000000000001,15)" font-family="sans-serif" font-size="10px" fill="#000" opacity="1">1.10</text><text text-anchor="middle" transform="translate(583.3333333333333,15)" font-family="sans-serif" font-size="10px" fill="#000" opacity="1">1.15</text><text text-anchor="middle" transform="translate(641.6666666666666,15)" font-family="sans-serif" font-size="10px" fill="#000" opacity="1">1.20</text><text text-anchor="end" transform="translate(700,15)" font-family="sans-serif" font-size="10px" fill="#000" opacity="1">1.25</text></g><g class="mark-rule role-axis-domain" pointer-events="none"><line transform="translate(0,0)" x2="700" y2="0" stroke="#888" stroke-width="1" opacity="1"></line></g><g class="mark-text role-axis-title" pointer-events="none"><text text-anchor="middle" transform="translate(350,30)" font-family="sans-serif" font-size="11px" font-weight="bold" fill="#000" opacity="1">Instantaneous reproduction number R(t), CI 0.975</text></g></g><path class="foreground" aria-hidden="true" d="" pointer-events="none" display="none"></path></g></g><g class="mark-group role-axis" role="graphics-symbol" aria-roledescription="axis" aria-label="Y-axis titled 'States' for a discrete scale with 27 values: AC, AL, AM, AP, BA, ending with TO"><g transform="translate(0.5,0.5)"><path class="background" aria-hidden="true" d="M0,0h0v0h0Z" pointer-events="none"></path><g><g class="mark-rule role-axis-tick" pointer-events="none"><line transform="translate(0,10)" x2="-5" y2="0" stroke="#888" stroke-width="1" opacity="1"></line><line transform="translate(0,30)" x2="-5" y2="0" stroke="#888" stroke-width="1" opacity="1"></line><line transform="translate(0,50)" x2="-5" y2="0" stroke="#888" stroke-width="1" opacity="1"></line><line transform="translate(0,70)" x2="-5" y2="0" stroke="#888" stroke-width="1" opacity="1"></line><line transform="translate(0,90)" x2="-5" y2="0" stroke="#888" stroke-width="1" opacity="1"></line><line transform="translate(0,110)" x2="-5" y2="0" stroke="#888" stroke-width="1" opacity="1"></line><line transform="translate(0,130)" x2="-5" y2="0" stroke="#888" stroke-width="1" opacity="1"></line><line transform="translate(0,150)" x2="-5" y2="0" stroke="#888" stroke-width="1" opacity="1"></line><line transform="translate(0,170)" x2="-5" y2="0" stroke="#888" stroke-width="1" opacity="1"></line><line transform="translate(0,190)" x2="-5" y2="0" stroke="#888" stroke-width="1" opacity="1"></line><line transform="translate(0,210)" x2="-5" y2="0" stroke="#888" stroke-width="1" opacity="1"></line><line transform="translate(0,230)" x2="-5" y2="0" stroke="#888" stroke-width="1" opacity="1"></line><line transform="translate(0,250)" x2="-5" y2="0" stroke="#888" stroke-width="1" opacity="1"></line><line transform="translate(0,270)" x2="-5" y2="0" stroke="#888" stroke-width="1" opacity="1"></line><line transform="translate(0,290)" x2="-5" y2="0" stroke="#888" stroke-width="1" opacity="1"></line><line transform="translate(0,310)" x2="-5" y2="0" stroke="#888" stroke-width="1" opacity="1"></line><line transform="translate(0,330)" x2="-5" y2="0" stroke="#888" stroke-width="1" opacity="1"></line><line transform="translate(0,350)" x2="-5" y2="0" stroke="#888" stroke-width="1" opacity="1"></line><line transform="translate(0,370)" x2="-5" y2="0" stroke="#888" stroke-width="1" opacity="1"></line><line transform="translate(0,390)" x2="-5" y2="0" stroke="#888" stroke-width="1" opacity="1"></line><line transform="translate(0,410)" x2="-5" y2="0" stroke="#888" stroke-width="1" opacity="1"></line><line transform="translate(0,430)" x2="-5" y2="0" stroke="#888" stroke-width="1" opacity="1"></line><line transform="translate(0,450)" x2="-5" y2="0" stroke="#888" stroke-width="1" opacity="1"></line><line transform="translate(0,470)" x2="-5" y2="0" stroke="#888" stroke-width="1" opacity="1"></line><line transform="translate(0,490)" x2="-5" y2="0" stroke="#888" stroke-width="1" opacity="1"></line><line transform="translate(0,510)" x2="-5" y2="0" stroke="#888" stroke-width="1" opacity="1"></line><line transform="translate(0,530)" x2="-5" y2="0" stroke="#888" stroke-width="1" opacity="1"></line></g><g class="mark-text role-axis-label" pointer-events="none"><text text-anchor="end" transform="translate(-7,12.5)" font-family="sans-serif" font-size="10px" fill="#000" opacity="1">AC</text><text text-anchor="end" transform="translate(-7,32.5)" font-family="sans-serif" font-size="10px" fill="#000" opacity="1">AL</text><text text-anchor="end" transform="translate(-7,52.5)" font-family="sans-serif" font-size="10px" fill="#000" opacity="1">AM</text><text text-anchor="end" transform="translate(-7,72.5)" font-family="sans-serif" font-size="10px" fill="#000" opacity="1">AP</text><text text-anchor="end" transform="translate(-7,92.5)" font-family="sans-serif" font-size="10px" fill="#000" opacity="1">BA</text><text text-anchor="end" transform="translate(-7,112.5)" font-family="sans-serif" font-size="10px" fill="#000" opacity="1">CE</text><text text-anchor="end" transform="translate(-7,132.5)" font-family="sans-serif" font-size="10px" fill="#000" opacity="1">DF</text><text text-anchor="end" transform="translate(-7,152.5)" font-family="sans-serif" font-size="10px" fill="#000" opacity="1">ES</text><text text-anchor="end" transform="translate(-7,172.5)" font-family="sans-serif" font-size="10px" fill="#000" opacity="1">GO</text><text text-anchor="end" transform="translate(-7,192.5)" font-family="sans-serif" font-size="10px" fill="#000" opacity="1">MA</text><text text-anchor="end" transform="translate(-7,212.5)" font-family="sans-serif" font-size="10px" fill="#000" opacity="1">MG</text><text text-anchor="end" transform="translate(-7,232.5)" font-family="sans-serif" font-size="10px" fill="#000" opacity="1">MS</text><text text-anchor="end" transform="translate(-7,252.5)" font-family="sans-serif" font-size="10px" fill="#000" opacity="1">MT</text><text text-anchor="end" transform="translate(-7,272.5)" font-family="sans-serif" font-size="10px" fill="#000" opacity="1">PA</text><text text-anchor="end" transform="translate(-7,292.5)" font-family="sans-serif" font-size="10px" fill="#000" opacity="1">PB</text><text text-anchor="end" transform="translate(-7,312.5)" font-family="sans-serif" font-size="10px" fill="#000" opacity="1">PE</text><text text-anchor="end" transform="translate(-7,332.5)" font-family="sans-serif" font-size="10px" fill="#000" opacity="1">PI</text><text text-anchor="end" transform="translate(-7,352.5)" font-family="sans-serif" font-size="10px" fill="#000" opacity="1">PR</text><text text-anchor="end" transform="translate(-7,372.5)" font-family="sans-serif" font-size="10px" fill="#000" opacity="1">RJ</text><text text-anchor="end" transform="translate(-7,392.5)" font-family="sans-serif" font-size="10px" fill="#000" opacity="1">RN</text><text text-anchor="end" transform="translate(-7,412.5)" font-family="sans-serif" font-size="10px" fill="#000" opacity="1">RO</text><text text-anchor="end" transform="translate(-7,432.5)" font-family="sans-serif" font-size="10px" fill="#000" opacity="1">RR</text><text text-anchor="end" transform="translate(-7,452.5)" font-family="sans-serif" font-size="10px" fill="#000" opacity="1">RS</text><text text-anchor="end" transform="translate(-7,472.5)" font-family="sans-serif" font-size="10px" fill="#000" opacity="1">SC</text><text text-anchor="end" transform="translate(-7,492.5)" font-family="sans-serif" font-size="10px" fill="#000" opacity="1">SE</text><text text-anchor="end" transform="translate(-7,512.5)" font-family="sans-serif" font-size="10px" fill="#000" opacity="1">SP</text><text text-anchor="end" transform="translate(-7,532.5)" font-family="sans-serif" font-size="10px" fill="#000" opacity="1">TO</text></g><g class="mark-rule role-axis-domain" pointer-events="none"><line transform="translate(0,0)" x2="0" y2="540" stroke="#888" stroke-width="1" opacity="1"></line></g><g class="mark-text role-axis-title" pointer-events="none"><text text-anchor="middle" transform="translate(-27,270) rotate(-90) translate(0,-2)" font-family="sans-serif" font-size="11px" font-weight="bold" fill="#000" opacity="1">States</text></g></g><path class="foreground" aria-hidden="true" d="" pointer-events="none" display="none"></path></g></g><g class="mark-symbol role-mark layer_0_marks" role="graphics-object" aria-roledescription="symbol mark container"><path aria-label="Instantaneous reproduction number R(t): 0.750919626758; States: RJ" role="graphics-symbol" aria-roledescription="point" transform="translate(117.7395645513087,370)" d="M2.7386127875258306,0A2.7386127875258306,2.7386127875258306,0,1,1,-2.7386127875258306,0A2.7386127875258306,2.7386127875258306,0,1,1,2.7386127875258306,0" stroke="#4c78a8" stroke-width="2" opacity="0.7"></path><path aria-label="Instantaneous reproduction number R(t): 0.787846858783; States: SE" role="graphics-symbol" aria-roledescription="point" transform="translate(160.82133524727382,490)" d="M2.7386127875258306,0A2.7386127875258306,2.7386127875258306,0,1,1,-2.7386127875258306,0A2.7386127875258306,2.7386127875258306,0,1,1,2.7386127875258306,0" stroke="#4c78a8" stroke-width="2" opacity="0.7"></path><path aria-label="Instantaneous reproduction number R(t): 0.808608890673; States: RR" role="graphics-symbol" aria-roledescription="point" transform="translate(185.04370578540306,430)" d="M2.7386127875258306,0A2.7386127875258306,2.7386127875258306,0,1,1,-2.7386127875258306,0A2.7386127875258306,2.7386127875258306,0,1,1,2.7386127875258306,0" stroke="#4c78a8" stroke-width="2" opacity="0.7"></path><path aria-label="Instantaneous reproduction number R(t): 0.865678262925; States: GO" role="graphics-symbol" aria-roledescription="point" transform="translate(251.6246400792812,170)" d="M2.7386127875258306,0A2.7386127875258306,2.7386127875258306,0,1,1,-2.7386127875258306,0A2.7386127875258306,2.7386127875258306,0,1,1,2.7386127875258306,0" stroke="#4c78a8" stroke-width="2" opacity="0.7"></path><path aria-label="Instantaneous reproduction number R(t): 0.892473277055; States: AM" role="graphics-symbol" aria-roledescription="point" transform="translate(282.8854898976303,50)" d="M2.7386127875258306,0A2.7386127875258306,2.7386127875258306,0,1,1,-2.7386127875258306,0A2.7386127875258306,2.7386127875258306,0,1,1,2.7386127875258306,0" stroke="#4c78a8" stroke-width="2" opacity="0.7"></path><path aria-label="Instantaneous reproduction number R(t): 0.90429297552; States: AP" role="graphics-symbol" aria-roledescription="point" transform="translate(296.67513810720584,70)" d="M2.7386127875258306,0A2.7386127875258306,2.7386127875258306,0,1,1,-2.7386127875258306,0A2.7386127875258306,2.7386127875258306,0,1,1,2.7386127875258306,0" stroke="#4c78a8" stroke-width="2" opacity="0.7"></path><path aria-label="Instantaneous reproduction number R(t): 0.911562893836; States: PA" role="graphics-symbol" aria-roledescription="point" transform="translate(305.15670947529355,270)" d="M2.7386127875258306,0A2.7386127875258306,2.7386127875258306,0,1,1,-2.7386127875258306,0A2.7386127875258306,2.7386127875258306,0,1,1,2.7386127875258306,0" stroke="#4c78a8" stroke-width="2" opacity="0.7"></path><path aria-label="Instantaneous reproduction number R(t): 0.929287154086; States: PB" role="graphics-symbol" aria-roledescription="point" transform="translate(325.8350131003518,290)" d="M2.7386127875258306,0A2.7386127875258306,2.7386127875258306,0,1,1,-2.7386127875258306,0A2.7386127875258306,2.7386127875258306,0,1,1,2.7386127875258306,0" stroke="#4c78a8" stroke-width="2" opacity="0.7"></path><path aria-label="Instantaneous reproduction number R(t): 0.930798966704; States: CE" role="graphics-symbol" aria-roledescription="point" transform="translate(327.5987944881447,110)" d="M2.7386127875258306,0A2.7386127875258306,2.7386127875258306,0,1,1,-2.7386127875258306,0A2.7386127875258306,2.7386127875258306,0,1,1,2.7386127875258306,0" stroke="#4c78a8" stroke-width="2" opacity="0.7"></path><path aria-label="Instantaneous reproduction number R(t): 0.946540135829; States: BA" role="graphics-symbol" aria-roledescription="point" transform="translate(345.96349180089396,90)" d="M2.7386127875258306,0A2.7386127875258306,2.7386127875258306,0,1,1,-2.7386127875258306,0A2.7386127875258306,2.7386127875258306,0,1,1,2.7386127875258306,0" stroke="#4c78a8" stroke-width="2" opacity="0.7"></path><path aria-label="Instantaneous reproduction number R(t): 0.948325831006; States: MG" role="graphics-symbol" aria-roledescription="point" transform="translate(348.0468028398981,210)" d="M2.7386127875258306,0A2.7386127875258306,2.7386127875258306,0,1,1,-2.7386127875258306,0A2.7386127875258306,2.7386127875258306,0,1,1,2.7386127875258306,0" stroke="#4c78a8" stroke-width="2" opacity="0.7"></path><path aria-label="Instantaneous reproduction number R(t): 0.950637427397; States: DF" role="graphics-symbol" aria-roledescription="point" transform="translate(350.74366529693384,130)" d="M2.7386127875258306,0A2.7386127875258306,2.7386127875258306,0,1,1,-2.7386127875258306,0A2.7386127875258306,2.7386127875258306,0,1,1,2.7386127875258306,0" stroke="#4c78a8" stroke-width="2" opacity="0.7"></path><path aria-label="Instantaneous reproduction number R(t): 0.952334759773; States: ES" role="graphics-symbol" aria-roledescription="point" transform="translate(352.7238864017884,150)" d="M2.7386127875258306,0A2.7386127875258306,2.7386127875258306,0,1,1,-2.7386127875258306,0A2.7386127875258306,2.7386127875258306,0,1,1,2.7386127875258306,0" stroke="#4c78a8" stroke-width="2" opacity="0.7"></path><path aria-label="Instantaneous reproduction number R(t): 0.960027173266; States: PE" role="graphics-symbol" aria-roledescription="point" transform="translate(361.6983688104044,310)" d="M2.7386127875258306,0A2.7386127875258306,2.7386127875258306,0,1,1,-2.7386127875258306,0A2.7386127875258306,2.7386127875258306,0,1,1,2.7386127875258306,0" stroke="#4c78a8" stroke-width="2" opacity="0.7"></path><path aria-label="Instantaneous reproduction number R(t): 0.965973836045; States: RO" role="graphics-symbol" aria-roledescription="point" transform="translate(368.63614205200406,410)" d="M2.7386127875258306,0A2.7386127875258306,2.7386127875258306,0,1,1,-2.7386127875258306,0A2.7386127875258306,2.7386127875258306,0,1,1,2.7386127875258306,0" stroke="#4c78a8" stroke-width="2" opacity="0.7"></path><path aria-label="Instantaneous reproduction number R(t): 0.986553090839; States: PI" role="graphics-symbol" aria-roledescription="point" transform="translate(392.6452726459919,330)" d="M2.7386127875258306,0A2.7386127875258306,2.7386127875258306,0,1,1,-2.7386127875258306,0A2.7386127875258306,2.7386127875258306,0,1,1,2.7386127875258306,0" stroke="#4c78a8" stroke-width="2" opacity="0.7"></path><path aria-label="Instantaneous reproduction number R(t): 0.995681587846; States: MT" role="graphics-symbol" aria-roledescription="point" transform="translate(403.295185819805,250)" d="M2.7386127875258306,0A2.7386127875258306,2.7386127875258306,0,1,1,-2.7386127875258306,0A2.7386127875258306,2.7386127875258306,0,1,1,2.7386127875258306,0" stroke="#4c78a8" stroke-width="2" opacity="0.7"></path><path aria-label="Instantaneous reproduction number R(t): 1.00132225127; States: MA" role="graphics-symbol" aria-roledescription="point" transform="translate(409.8759598187072,190)" d="M2.7386127875258306,0A2.7386127875258306,2.7386127875258306,0,1,1,-2.7386127875258306,0A2.7386127875258306,2.7386127875258306,0,1,1,2.7386127875258306,0" stroke="#4c78a8" stroke-width="2" opacity="0.7"></path><path aria-label="Instantaneous reproduction number R(t): 1.00355664485; States: AL" role="graphics-symbol" aria-roledescription="point" transform="translate(412.4827523218957,30)" d="M2.7386127875258306,0A2.7386127875258306,2.7386127875258306,0,1,1,-2.7386127875258306,0A2.7386127875258306,2.7386127875258306,0,1,1,2.7386127875258306,0" stroke="#4c78a8" stroke-width="2" opacity="0.7"></path><path aria-label="Instantaneous reproduction number R(t): 1.0042043486; States: RS" role="graphics-symbol" aria-roledescription="point" transform="translate(413.23840670555904,450)" d="M2.7386127875258306,0A2.7386127875258306,2.7386127875258306,0,1,1,-2.7386127875258306,0A2.7386127875258306,2.7386127875258306,0,1,1,2.7386127875258306,0" stroke="#4c78a8" stroke-width="2" opacity="0.7"></path><path aria-label="Instantaneous reproduction number R(t): 1.00619692998; States: RN" role="graphics-symbol" aria-roledescription="point" transform="translate(415.5630849743212,390)" d="M2.7386127875258306,0A2.7386127875258306,2.7386127875258306,0,1,1,-2.7386127875258306,0A2.7386127875258306,2.7386127875258306,0,1,1,2.7386127875258306,0" stroke="#4c78a8" stroke-width="2" opacity="0.7"></path><path aria-label="Instantaneous reproduction number R(t): 1.02004893664; States: SC" role="graphics-symbol" aria-roledescription="point" transform="translate(431.7237594098818,470)" d="M2.7386127875258306,0A2.7386127875258306,2.7386127875258306,0,1,1,-2.7386127875258306,0A2.7386127875258306,2.7386127875258306,0,1,1,2.7386127875258306,0" stroke="#4c78a8" stroke-width="2" opacity="0.7"></path><path aria-label="Instantaneous reproduction number R(t): 1.06808970952; States: TO" role="graphics-symbol" aria-roledescription="point" transform="translate(487.77132776752813,530)" d="M2.7386127875258306,0A2.7386127875258306,2.7386127875258306,0,1,1,-2.7386127875258306,0A2.7386127875258306,2.7386127875258306,0,1,1,2.7386127875258306,0" stroke="#4c78a8" stroke-width="2" opacity="0.7"></path><path aria-label="Instantaneous reproduction number R(t): 1.10621087669; States: PR" role="graphics-symbol" aria-roledescription="point" transform="translate(532.2460228022593,350)" d="M2.7386127875258306,0A2.7386127875258306,2.7386127875258306,0,1,1,-2.7386127875258306,0A2.7386127875258306,2.7386127875258306,0,1,1,2.7386127875258306,0" stroke="#4c78a8" stroke-width="2" opacity="0.7"></path><path aria-label="Instantaneous reproduction number R(t): 1.12157311887; States: MS" role="graphics-symbol" aria-roledescription="point" transform="translate(550.1686386784179,230)" d="M2.7386127875258306,0A2.7386127875258306,2.7386127875258306,0,1,1,-2.7386127875258306,0A2.7386127875258306,2.7386127875258306,0,1,1,2.7386127875258306,0" stroke="#4c78a8" stroke-width="2" opacity="0.7"></path><path aria-label="Instantaneous reproduction number R(t): 1.17979734274; States: AC" role="graphics-symbol" aria-roledescription="point" transform="translate(618.0968998603466,10)" d="M2.7386127875258306,0A2.7386127875258306,2.7386127875258306,0,1,1,-2.7386127875258306,0A2.7386127875258306,2.7386127875258306,0,1,1,2.7386127875258306,0" stroke="#4c78a8" stroke-width="2" opacity="0.7"></path><path aria-label="Instantaneous reproduction number R(t): 1.21459817689; States: SP" role="graphics-symbol" aria-roledescription="point" transform="translate(658.6978730336962,510)" d="M2.7386127875258306,0A2.7386127875258306,2.7386127875258306,0,1,1,-2.7386127875258306,0A2.7386127875258306,2.7386127875258306,0,1,1,2.7386127875258306,0" stroke="#4c78a8" stroke-width="2" opacity="0.7"></path></g><g class="mark-rule role-mark layer_1_marks" role="graphics-object" aria-roledescription="rule mark container"><line aria-label="a: 1" role="graphics-symbol" aria-roledescription="rule mark" transform="translate(408.33333333333337,0)" x2="0" y2="540" stroke="black" stroke-width="0.2"></line><line aria-label="a: 1" role="graphics-symbol" aria-roledescription="rule mark" transform="translate(408.33333333333337,0)" x2="0" y2="540" stroke="black" stroke-width="0.2"></line><line aria-label="a: 1" role="graphics-symbol" aria-roledescription="rule mark" transform="translate(408.33333333333337,0)" x2="0" y2="540" stroke="black" stroke-width="0.2"></line><line aria-label="a: 1" role="graphics-symbol" aria-roledescription="rule mark" transform="translate(408.33333333333337,0)" x2="0" y2="540" stroke="black" stroke-width="0.2"></line><line aria-label="a: 1" role="graphics-symbol" aria-roledescription="rule mark" transform="translate(408.33333333333337,0)" x2="0" y2="540" stroke="black" stroke-width="0.2"></line><line aria-label="a: 1" role="graphics-symbol" aria-roledescription="rule mark" transform="translate(408.33333333333337,0)" x2="0" y2="540" stroke="black" stroke-width="0.2"></line><line aria-label="a: 1" role="graphics-symbol" aria-roledescription="rule mark" transform="translate(408.33333333333337,0)" x2="0" y2="540" stroke="black" stroke-width="0.2"></line><line aria-label="a: 1" role="graphics-symbol" aria-roledescription="rule mark" transform="translate(408.33333333333337,0)" x2="0" y2="540" stroke="black" stroke-width="0.2"></line><line aria-label="a: 1" role="graphics-symbol" aria-roledescription="rule mark" transform="translate(408.33333333333337,0)" x2="0" y2="540" stroke="black" stroke-width="0.2"></line><line aria-label="a: 1" role="graphics-symbol" aria-roledescription="rule mark" transform="translate(408.33333333333337,0)" x2="0" y2="540" stroke="black" stroke-width="0.2"></line><line aria-label="a: 1" role="graphics-symbol" aria-roledescription="rule mark" transform="translate(408.33333333333337,0)" x2="0" y2="540" stroke="black" stroke-width="0.2"></line><line aria-label="a: 1" role="graphics-symbol" aria-roledescription="rule mark" transform="translate(408.33333333333337,0)" x2="0" y2="540" stroke="black" stroke-width="0.2"></line><line aria-label="a: 1" role="graphics-symbol" aria-roledescription="rule mark" transform="translate(408.33333333333337,0)" x2="0" y2="540" stroke="black" stroke-width="0.2"></line><line aria-label="a: 1" role="graphics-symbol" aria-roledescription="rule mark" transform="translate(408.33333333333337,0)" x2="0" y2="540" stroke="black" stroke-width="0.2"></line><line aria-label="a: 1" role="graphics-symbol" aria-roledescription="rule mark" transform="translate(408.33333333333337,0)" x2="0" y2="540" stroke="black" stroke-width="0.2"></line><line aria-label="a: 1" role="graphics-symbol" aria-roledescription="rule mark" transform="translate(408.33333333333337,0)" x2="0" y2="540" stroke="black" stroke-width="0.2"></line><line aria-label="a: 1" role="graphics-symbol" aria-roledescription="rule mark" transform="translate(408.33333333333337,0)" x2="0" y2="540" stroke="black" stroke-width="0.2"></line><line aria-label="a: 1" role="graphics-symbol" aria-roledescription="rule mark" transform="translate(408.33333333333337,0)" x2="0" y2="540" stroke="black" stroke-width="0.2"></line><line aria-label="a: 1" role="graphics-symbol" aria-roledescription="rule mark" transform="translate(408.33333333333337,0)" x2="0" y2="540" stroke="black" stroke-width="0.2"></line><line aria-label="a: 1" role="graphics-symbol" aria-roledescription="rule mark" transform="translate(408.33333333333337,0)" x2="0" y2="540" stroke="black" stroke-width="0.2"></line><line aria-label="a: 1" role="graphics-symbol" aria-roledescription="rule mark" transform="translate(408.33333333333337,0)" x2="0" y2="540" stroke="black" stroke-width="0.2"></line><line aria-label="a: 1" role="graphics-symbol" aria-roledescription="rule mark" transform="translate(408.33333333333337,0)" x2="0" y2="540" stroke="black" stroke-width="0.2"></line><line aria-label="a: 1" role="graphics-symbol" aria-roledescription="rule mark" transform="translate(408.33333333333337,0)" x2="0" y2="540" stroke="black" stroke-width="0.2"></line><line aria-label="a: 1" role="graphics-symbol" aria-roledescription="rule mark" transform="translate(408.33333333333337,0)" x2="0" y2="540" stroke="black" stroke-width="0.2"></line><line aria-label="a: 1" role="graphics-symbol" aria-roledescription="rule mark" transform="translate(408.33333333333337,0)" x2="0" y2="540" stroke="black" stroke-width="0.2"></line><line aria-label="a: 1" role="graphics-symbol" aria-roledescription="rule mark" transform="translate(408.33333333333337,0)" x2="0" y2="540" stroke="black" stroke-width="0.2"></line><line aria-label="a: 1" role="graphics-symbol" aria-roledescription="rule mark" transform="translate(408.33333333333337,0)" x2="0" y2="540" stroke="black" stroke-width="0.2"></line></g><g class="mark-rule role-mark layer_2_marks" role="graphics-object" aria-roledescription="rule mark container"><line aria-label="CI 0.975: 0.694795758409; upper_Quantile.0.025(R): 0.804928984579; index: RJ; Quantile.0.975(R): 0.804928984579; Quantile.0.025(R): 0.694795758409" role="graphics-symbol" aria-roledescription="errorbar" transform="translate(52.26171814382552,370)" x2="128.48876386463422" y2="0" stroke="blue" stroke-width="0.6"></line><line aria-label="CI 0.975: 0.759017897874; upper_Quantile.0.025(R): 0.821282646496; index: SE; Quantile.0.975(R): 0.821282646496; Quantile.0.025(R): 0.759017897874" role="graphics-symbol" aria-roledescription="errorbar" transform="translate(127.18754751969396,490)" x2="72.64220672615244" y2="0" stroke="blue" stroke-width="0.6"></line><line aria-label="CI 0.975: 0.762474349608; upper_Quantile.0.025(R): 0.851439531875; index: RR; Quantile.0.975(R): 0.851439531875; Quantile.0.025(R): 0.762474349608" role="graphics-symbol" aria-roledescription="errorbar" transform="translate(131.22007454281078,430)" x2="103.7927126446699" y2="0" stroke="blue" stroke-width="0.6"></line><line aria-label="CI 0.975: 0.815844090185; upper_Quantile.0.025(R): 0.925832511952; index: GO; Quantile.0.975(R): 0.925832511952; Quantile.0.025(R): 0.815844090185" role="graphics-symbol" aria-roledescription="errorbar" transform="translate(193.48477188219942,170)" x2="128.3198253952093" y2="0" stroke="blue" stroke-width="0.6"></line><line aria-label="CI 0.975: 0.86366458821; upper_Quantile.0.025(R): 0.92228273265; index: AM; Quantile.0.975(R): 0.92228273265; Quantile.0.025(R): 0.86366458821" role="graphics-symbol" aria-roledescription="errorbar" transform="translate(249.27535291139364,50)" x2="68.38783518064272" y2="0" stroke="blue" stroke-width="0.6"></line><line aria-label="CI 0.975: 0.848275699222; upper_Quantile.0.025(R): 0.962246769429; index: AP; Quantile.0.975(R): 0.962246769429; Quantile.0.025(R): 0.848275699222" role="graphics-symbol" aria-roledescription="errorbar" transform="translate(231.32164909197266,70)" x2="132.9662485754147" y2="0" stroke="blue" stroke-width="0.6"></line><line aria-label="CI 0.975: 0.862672927043; upper_Quantile.0.025(R): 0.959793590567; index: PA; Quantile.0.975(R): 0.959793590567; Quantile.0.025(R): 0.862672927043" role="graphics-symbol" aria-roledescription="errorbar" transform="translate(248.11841488407276,270)" x2="113.30744077724535" y2="0" stroke="blue" stroke-width="0.6"></line><line aria-label="CI 0.975: 0.891680904518; upper_Quantile.0.025(R): 0.964470463063; index: PB; Quantile.0.975(R): 0.964470463063; Quantile.0.025(R): 0.891680904518" role="graphics-symbol" aria-roledescription="errorbar" transform="translate(281.96105527080215,290)" x2="84.9211516358676" y2="0" stroke="blue" stroke-width="0.6"></line><line aria-label="CI 0.975: 0.90172285739; upper_Quantile.0.025(R): 0.955437858432; index: CE; Quantile.0.975(R): 0.955437858432; Quantile.0.025(R): 0.90172285739" role="graphics-symbol" aria-roledescription="errorbar" transform="translate(293.6766669547385,110)" x2="62.66750121648437" y2="0" stroke="blue" stroke-width="0.6"></line><line aria-label="CI 0.975: 0.914599889238; upper_Quantile.0.025(R): 0.974381453057; index: BA; Quantile.0.975(R): 0.974381453057; Quantile.0.025(R): 0.914599889238" role="graphics-symbol" aria-roledescription="errorbar" transform="translate(308.69987077746543,90)" x2="69.74515778868675" y2="0" stroke="blue" stroke-width="0.6"></line><line aria-label="CI 0.975: 0.930911832595; upper_Quantile.0.025(R): 0.965446291592; index: MG; Quantile.0.975(R): 0.965446291592; Quantile.0.025(R): 0.930911832595" role="graphics-symbol" aria-roledescription="errorbar" transform="translate(327.73047136099933,210)" x2="40.29020216341007" y2="0" stroke="blue" stroke-width="0.6"></line><line aria-label="CI 0.975: 0.927848666451; upper_Quantile.0.025(R): 0.972860817624; index: DF; Quantile.0.975(R): 0.972860817624; Quantile.0.025(R): 0.927848666451" role="graphics-symbol" aria-roledescription="errorbar" transform="translate(324.1567775263229,130)" x2="52.514176368892436" y2="0" stroke="blue" stroke-width="0.6"></line><line aria-label="CI 0.975: 0.928351135326; upper_Quantile.0.025(R): 0.977075784545; index: ES; Quantile.0.975(R): 0.977075784545; Quantile.0.025(R): 0.928351135326" role="graphics-symbol" aria-roledescription="errorbar" transform="translate(324.7429912135098,150)" x2="56.84542408875029" y2="0" stroke="blue" stroke-width="0.6"></line><line aria-label="CI 0.975: 0.929671477525; upper_Quantile.0.025(R): 0.990628648705; index: PE; Quantile.0.975(R): 0.990628648705; Quantile.0.025(R): 0.929671477525" role="graphics-symbol" aria-roledescription="errorbar" transform="translate(326.28339044602205,310)" x2="71.11669970981364" y2="0" stroke="blue" stroke-width="0.6"></line><line aria-label="CI 0.975: 0.889499222183; upper_Quantile.0.025(R): 1.03652154291; index: RO; Quantile.0.975(R): 1.03652154291; Quantile.0.025(R): 0.889499222183" role="graphics-symbol" aria-roledescription="errorbar" transform="translate(279.41575921294435,410)" x2="171.5260408520943" y2="0" stroke="blue" stroke-width="0.6"></line><line aria-label="CI 0.975: 0.959961810079; upper_Quantile.0.025(R): 1.01476162574; index: PI; Quantile.0.975(R): 1.01476162574; Quantile.0.025(R): 0.959961810079" role="graphics-symbol" aria-roledescription="errorbar" transform="translate(361.62211175909687,330)" x2="63.93311827070687" y2="0" stroke="blue" stroke-width="0.6"></line><line aria-label="CI 0.975: 0.973060921063; upper_Quantile.0.025(R): 1.01879080969; index: MT; Quantile.0.975(R): 1.01879080969; Quantile.0.025(R): 0.973060921063" role="graphics-symbol" aria-roledescription="errorbar" transform="translate(376.90440790660244,250)" x2="53.351536730020655" y2="0" stroke="blue" stroke-width="0.6"></line><line aria-label="CI 0.975: 0.978234545413; upper_Quantile.0.025(R): 1.02471171304; index: MA; Quantile.0.975(R): 1.02471171304; Quantile.0.025(R): 0.978234545413" role="graphics-symbol" aria-roledescription="errorbar" transform="translate(382.9403029823629,190)" x2="54.22336223596221" y2="0" stroke="blue" stroke-width="0.6"></line><line aria-label="CI 0.975: 0.966685571253; upper_Quantile.0.025(R): 1.04315840619; index: AL; Quantile.0.975(R): 1.04315840619; Quantile.0.025(R): 0.966685571253" role="graphics-symbol" aria-roledescription="errorbar" transform="translate(369.4664997951737,30)" x2="89.21830743020706" y2="0" stroke="blue" stroke-width="0.6"></line><line aria-label="CI 0.975: 0.982295459122; upper_Quantile.0.025(R): 1.02507644524; index: RS; Quantile.0.975(R): 1.02507644524; Quantile.0.025(R): 0.982295459122" role="graphics-symbol" aria-roledescription="errorbar" transform="translate(387.67803564255297,450)" x2="49.91115046979684" y2="0" stroke="blue" stroke-width="0.6"></line><line aria-label="CI 0.975: 0.941844169349; upper_Quantile.0.025(R): 1.08039833073; index: RN; Quantile.0.975(R): 1.08039833073; Quantile.0.025(R): 0.941844169349" role="graphics-symbol" aria-roledescription="errorbar" transform="translate(340.484864240709,390)" x2="161.64652160665042" y2="0" stroke="blue" stroke-width="0.6"></line><line aria-label="CI 0.975: 0.984593914691; upper_Quantile.0.025(R): 1.05701884192; index: SC; Quantile.0.975(R): 1.05701884192; Quantile.0.025(R): 0.984593914691" role="graphics-symbol" aria-roledescription="errorbar" transform="translate(390.3595671400571,470)" x2="84.49574842912153" y2="0" stroke="blue" stroke-width="0.6"></line><line aria-label="CI 0.975: 1.02708823499; upper_Quantile.0.025(R): 1.11446377319; index: TO; Quantile.0.975(R): 1.11446377319; Quantile.0.025(R): 1.02708823499" role="graphics-symbol" aria-roledescription="errorbar" transform="translate(439.9362741538044,530)" x2="101.9381279058801" y2="0" stroke="blue" stroke-width="0.6"></line><line aria-label="CI 0.975: 1.07624243505; upper_Quantile.0.025(R): 1.13697792653; index: PR; Quantile.0.975(R): 1.13697792653; Quantile.0.025(R): 1.07624243505" role="graphics-symbol" aria-roledescription="errorbar" transform="translate(497.28284089302383,350)" x2="70.8580733912321" y2="0" stroke="blue" stroke-width="0.6"></line><line aria-label="CI 0.975: 1.08848448072; upper_Quantile.0.025(R): 1.15461122106; index: MS; Quantile.0.975(R): 1.15461122106; Quantile.0.025(R): 1.08848448072" role="graphics-symbol" aria-roledescription="errorbar" transform="translate(511.56522750444896,230)" x2="77.14786373473845" y2="0" stroke="blue" stroke-width="0.6"></line><line aria-label="CI 0.975: 1.11706767065; upper_Quantile.0.025(R): 1.24306679189; index: AC; Quantile.0.975(R): 1.24306679189; Quantile.0.025(R): 1.11706767065" role="graphics-symbol" aria-roledescription="errorbar" transform="translate(544.9122824260777,10)" x2="146.99897477847912" y2="0" stroke="blue" stroke-width="0.6"></line><line aria-label="CI 0.975: 1.18362977185; upper_Quantile.0.025(R): 1.24845360753; index: SP; Quantile.0.975(R): 1.24845360753; Quantile.0.025(R): 1.18362977185" role="graphics-symbol" aria-roledescription="errorbar" transform="translate(622.5680671619243,510)" x2="75.62780829525593" y2="0" stroke="blue" stroke-width="0.6"></line></g><g class="mark-group role-title"><g transform="translate(350,-17.2)"><path class="background" aria-hidden="true" d="M0,0h0v0h0Z" pointer-events="none"></path><g><g class="mark-text role-title-text" role="graphics-symbol" aria-roledescription="title" aria-label="Title text 'Instantaneous reproduction number estimate for all states in Brazil'" pointer-events="none"><text text-anchor="middle" transform="translate(0,10)" font-family="sans-serif" font-size="13px" font-weight="bold" fill="#000" opacity="1">Instantaneous reproduction number estimate for all states in Brazil</text></g></g><path class="foreground" aria-hidden="true" d="" pointer-events="none" display="none"></path></g></g></g><path class="foreground" aria-hidden="true" d="" display="none"></path></g></g></g></svg>