<svg class="marks" width="749" height="600" viewBox="0 0 749 600" version="1.1" xmlns="http://www.w3.org/2000/svg" xmlns:xlink="http://www.w3.org/1999/xlink"><rect width="749" height="600" fill="white"></rect><g fill="none" stroke-miterlimit="10" transform="translate(43,23)"><g class="mark-group role-frame root" role="graphics-object" aria-roledescription="group mark container"><g transform="translate(0,0)"><path class="background" aria-hidden="true" d="M0.5,0.5h700v540h-700Z"></path><g><g class="mark-group role-axis" aria-hidden="true"><g transform="translate(0.5,0.5)"><path class="background" aria-hidden="true" d="M0,0h0v0h0Z" pointer-events="none"></path><g><g class="mark-rule role-axis-grid" pointer-events="none"><line transform="translate(0,10)" x2="700" y2="0" stroke="#ddd" stroke-width="1" opacity="1"></line><line transform="translate(0,30)" x2="700" y2="0" stroke="#ddd" stroke-width="1" opacity="1"></line><line transform="translate(0,50)" x2="700" y2="0" stroke="#ddd" stroke-width="1" opacity="1"></line><line transform="translate(0,70)" x2="700" y2="0" stroke="#ddd" stroke-width="1" opacity="1"></line><line transform="translate(0,90)" x2="700" y2="0" stroke="#ddd" stroke-width="1" opacity="1"></line><line transform="translate(0,110)" x2="700" y2="0" stroke="#ddd" stroke-width="1" opacity="1"></line><line transform="translate(0,130)" x2="700" y2="0" stroke="#ddd" stroke-width="1" opacity="1"></line><line transform="translate(0,150)" x2="700" y2="0" stroke="#ddd" stroke-width="1" opacity="1"></line><line transform="translate(0,170)" x2="700" y2="0" stroke="#ddd" stroke-width="1" opacity="1"></line><line transform="translate(0,190)" x2="700" y2="0" stroke="#ddd" stroke-width="1" opacity="1"></line><line transform="translate(0,210)" x2="700" y2="0" stroke="#ddd" stroke-width="1" opacity="1"></line><line transform="translate(0,230)" x2="700" y2="0" stroke="#ddd" stroke-width="1" opacity="1"></line><line transform="translate(0,250)" x2="700" y2="0" stroke="#ddd" stroke-width="1" opacity="1"></line><line transform="translate(0,270)" x2="700" y2="0" stroke="#ddd" stroke-width="1" opacity="1"></line><line transform="translate(0,290)" x2="700" y2="0" stroke="#ddd" stroke-width="1" opacity="1"></line><line transform="translate(0,310)" x2="700" y2="0" stroke="#ddd" stroke-width="1" opacity="1"></line><line transform="translate(0,330)" x2="700" y2="0" stroke="#ddd" stroke-width="1" opacity="1"></line><line transform="translate(0,350)" x2="700" y2="0" stroke="#ddd" stroke-width="1" opacity="1"></line><line transform="translate(0,370)" x2="700" y2="0" stroke="#ddd" stroke-width="1" opacity="1"></line><line transform="translate(0,390)" x2="700" y2="0" stroke="#ddd" stroke-width="1" opacity="1"></line><line transform="translate(0,410)" x2="700" y2="0" stroke="#ddd" stroke-width="1" opacity="1"></line><line transform="translate(0,430)" x2="700" y2="0" stroke="#ddd" stroke-width="1" opacity="1"></line><line transform="translate(0,450)" x2="700" y2="0" stroke="#ddd" stroke-width="1" opacity="1"></line><line transform="translate(0,470)" x2="700" y2="0" stroke="#ddd" stroke-width="1" opacity="1"></line><line transform="translate(0,490)" x2="700" y2="0" stroke="#ddd" stroke-width="1" opacity="1"></line><line transform="translate(0,510)" x2="700" y2="0" stroke="#ddd" stroke-width="1" opacity="1"></line><line transform="translate(0,530)" x2="700" y2="0" stroke="#ddd" stroke-width="1" opacity="1"></line></g></g><path class="foreground" aria-hidden="true" d="" pointer-events="none" display="none"></path></g></g><g class="mark-group role-axis" role="graphics-symbol" aria-roledescription="axis" aria-label="X-axis titled 'Instantaneous reproduction number R(t), CI 0.975' for a linear scale with values from 0.6 to 1.9"><g transform="translate(0.5,540.5)"><path class="background" aria-hidden="true" d="M0,0h0v0h0Z" pointer-events="none"></path><g><g class="mark-rule role-axis-tick" pointer-events="none"><line transform="translate(0,0)" x2="0" y2="5" stroke="#888" stroke-width="1" opacity="1"></line><line transform="translate(54,0)" x2="0" y2="5" stroke="#888" stroke-width="1" opacity="1"></line><line transform="translate(108,0)" x2="0" y2="5" stroke="#888" stroke-width="1" opacity="1"></line><line transform="translate(162,0)" x2="0" y2="5" stroke="#888" stroke-width="1" opacity="1"></line><line transform="translate(215,0)" x2="0" y2="5" stroke="#888" stroke-width="1" opacity="1"></line><line transform="translate(269,0)" x2="0" y2="5" stroke="#888" stroke-width="1" opacity="1"></line><line transform="translate(323,0)" x2="0" y2="5" stroke="#888" stroke-width="1" opacity="1"></line><line transform="translate(377,0)" x2="0" y2="5" stroke="#888" stroke-width="1" opacity="1"></line><line transform="translate(431,0)" x2="0" y2="5" stroke="#888" stroke-width="1" opacity="1"></line><line transform="translate(485,0)" x2="0" y2="5" stroke="#888" stroke-width="1" opacity="1"></line><line transform="translate(538,0)" x2="0" y2="5" stroke="#888" stroke-width="1" opacity="1"></line><line transform="translate(592,0)" x2="0" y2="5" stroke="#888" stroke-width="1" opacity="1"></line><line transform="translate(646,0)" x2="0" y2="5" stroke="#888" stroke-width="1" opacity="1"></line><line transform="translate(700,0)" x2="0" y2="5" stroke="#888" stroke-width="1" opacity="1"></line></g><g class="mark-text role-axis-label" pointer-events="none"><text text-anchor="start" transform="translate(0,15)" font-family="sans-serif" font-size="10px" fill="#000" opacity="1">0.6</text><text text-anchor="middle" transform="translate(53.84615384615384,15)" font-family="sans-serif" font-size="10px" fill="#000" opacity="1">0.7</text><text text-anchor="middle" transform="translate(107.69230769230774,15)" font-family="sans-serif" font-size="10px" fill="#000" opacity="1">0.8</text><text text-anchor="middle" transform="translate(161.53846153846158,15)" font-family="sans-serif" font-size="10px" fill="#000" opacity="1">0.9</text><text text-anchor="middle" transform="translate(215.38461538461544,15)" font-family="sans-serif" font-size="10px" fill="#000" opacity="1">1.0</text><text text-anchor="middle" transform="translate(269.23076923076934,15)" font-family="sans-serif" font-size="10px" fill="#000" opacity="1">1.1</text><text text-anchor="middle" transform="translate(323.0769230769231,15)" font-family="sans-serif" font-size="10px" fill="#000" opacity="1">1.2</text><text text-anchor="middle" transform="translate(376.92307692307696,15)" font-family="sans-serif" font-size="10px" fill="#000" opacity="1">1.3</text><text text-anchor="middle" transform="translate(430.7692307692308,15)" font-family="sans-serif" font-size="10px" fill="#000" opacity="1">1.4</text><text text-anchor="middle" transform="translate(484.6153846153847,15)" font-family="sans-serif" font-size="10px" fill="#000" opacity="1">1.5</text><text text-anchor="middle" transform="translate(538.4615384615386,15)" font-family="sans-serif" font-size="10px" fill="#000" opacity="1">1.6</text><text text-anchor="middle" transform="translate(592.3076923076925,15)" font-family="sans-serif" font-size="10px" fill="#000" opacity="1">1.7</text><text text-anchor="middle" transform="translate(646.1538461538463,15)" font-family="sans-serif" font-size="10px" fill="#000" opacity="1">1.8</text><text text-anchor="end" transform="translate(700,15)" font-family="sans-serif" font-size="10px" fill="#000" opacity="1">1.9</text></g><g class="mark-rule role-axis-domain" pointer-events="none"><line transform="translate(0,0)" x2="700" y2="0" stroke="#888" stroke-width="1" opacity="1"></line></g><g class="mark-text role-axis-title" pointer-events="none"><text text-anchor="middle" transform="translate(350,30)" font-family="sans-serif" font-size="11px" font-weight="bold" fill="#000" opacity="1">Instantaneous reproduction number R(t), CI 0.975</text></g></g><path class="foreground" aria-hidden="true" d="" pointer-events="none" display="none"></path></g></g><g class="mark-group role-axis" role="graphics-symbol" aria-roledescription="axis" aria-label="Y-axis titled 'States' for a discrete scale with 27 values: AC, AL, AM, AP, BA, ending with TO"><g transform="translate(0.5,0.5)"><path class="background" aria-hidden="true" d="M0,0h0v0h0Z" pointer-events="none"></path><g><g class="mark-rule role-axis-tick" pointer-events="none"><line transform="translate(0,10)" x2="-5" y2="0" stroke="#888" stroke-width="1" opacity="1"></line><line transform="translate(0,30)" x2="-5" y2="0" stroke="#888" stroke-width="1" opacity="1"></line><line transform="translate(0,50)" x2="-5" y2="0" stroke="#888" stroke-width="1" opacity="1"></line><line transform="translate(0,70)" x2="-5" y2="0" stroke="#888" stroke-width="1" opacity="1"></line><line transform="translate(0,90)" x2="-5" y2="0" stroke="#888" stroke-width="1" opacity="1"></line><line transform="translate(0,110)" x2="-5" y2="0" stroke="#888" stroke-width="1" opacity="1"></line><line transform="translate(0,130)" x2="-5" y2="0" stroke="#888" stroke-width="1" opacity="1"></line><line transform="translate(0,150)" x2="-5" y2="0" stroke="#888" stroke-width="1" opacity="1"></line><line transform="translate(0,170)" x2="-5" y2="0" stroke="#888" stroke-width="1" opacity="1"></line><line transform="translate(0,190)" x2="-5" y2="0" stroke="#888" stroke-width="1" opacity="1"></line><line transform="translate(0,210)" x2="-5" y2="0" stroke="#888" stroke-width="1" opacity="1"></line><line transform="translate(0,230)" x2="-5" y2="0" stroke="#888" stroke-width="1" opacity="1"></line><line transform="translate(0,250)" x2="-5" y2="0" stroke="#888" stroke-width="1" opacity="1"></line><line transform="translate(0,270)" x2="-5" y2="0" stroke="#888" stroke-width="1" opacity="1"></line><line transform="translate(0,290)" x2="-5" y2="0" stroke="#888" stroke-width="1" opacity="1"></line><line transform="translate(0,310)" x2="-5" y2="0" stroke="#888" stroke-width="1" opacity="1"></line><line transform="translate(0,330)" x2="-5" y2="0" stroke="#888" stroke-width="1" opacity="1"></line><line transform="translate(0,350)" x2="-5" y2="0" stroke="#888" stroke-width="1" opacity="1"></line><line transform="translate(0,370)" x2="-5" y2="0" stroke="#888" stroke-width="1" opacity="1"></line><line transform="translate(0,390)" x2="-5" y2="0" stroke="#888" stroke-width="1" opacity="1"></line><line transform="translate(0,410)" x2="-5" y2="0" stroke="#888" stroke-width="1" opacity="1"></line><line transform="translate(0,430)" x2="-5" y2="0" stroke="#888" stroke-width="1" opacity="1"></line><line transform="translate(0,450)" x2="-5" y2="0" stroke="#888" stroke-width="1" opacity="1"></line><line transform="translate(0,470)" x2="-5" y2="0" stroke="#888" stroke-width="1" opacity="1"></line><line transform="translate(0,490)" x2="-5" y2="0" stroke="#888" stroke-width="1" opacity="1"></line><line transform="translate(0,510)" x2="-5" y2="0" stroke="#888" stroke-width="1" opacity="1"></line><line transform="translate(0,530)" x2="-5" y2="0" stroke="#888" stroke-width="1" opacity="1"></line></g><g class="mark-text role-axis-label" pointer-events="none"><text text-anchor="end" transform="translate(-7,12.5)" font-family="sans-serif" font-size="10px" fill="#000" opacity="1">AC</text><text text-anchor="end" transform="translate(-7,32.5)" font-family="sans-serif" font-size="10px" fill="#000" opacity="1">AL</text><text text-anchor="end" transform="translate(-7,52.5)" font-family="sans-serif" font-size="10px" fill="#000" opacity="1">AM</text><text text-anchor="end" transform="translate(-7,72.5)" font-family="sans-serif" font-size="10px" fill="#000" opacity="1">AP</text><text text-anchor="end" transform="translate(-7,92.5)" font-family="sans-serif" font-size="10px" fill="#000" opacity="1">BA</text><text text-anchor="end" transform="translate(-7,112.5)" font-family="sans-serif" font-size="10px" fill="#000" opacity="1">CE</text><text text-anchor="end" transform="translate(-7,132.5)" font-family="sans-serif" font-size="10px" fill="#000" opacity="1">DF</text><text text-anchor="end" transform="translate(-7,152.5)" font-family="sans-serif" font-size="10px" fill="#000" opacity="1">ES</text><text text-anchor="end" transform="translate(-7,172.5)" font-family="sans-serif" font-size="10px" fill="#000" opacity="1">GO</text><text text-anchor="end" transform="translate(-7,192.5)" font-family="sans-serif" font-size="10px" fill="#000" opacity="1">MA</text><text text-anchor="end" transform="translate(-7,212.5)" font-family="sans-serif" font-size="10px" fill="#000" opacity="1">MG</text><text text-anchor="end" transform="translate(-7,232.5)" font-family="sans-serif" font-size="10px" fill="#000" opacity="1">MS</text><text text-anchor="end" transform="translate(-7,252.5)" font-family="sans-serif" font-size="10px" fill="#000" opacity="1">MT</text><text text-anchor="end" transform="translate(-7,272.5)" font-family="sans-serif" font-size="10px" fill="#000" opacity="1">PA</text><text text-anchor="end" transform="translate(-7,292.5)" font-family="sans-serif" font-size="10px" fill="#000" opacity="1">PB</text><text text-anchor="end" transform="translate(-7,312.5)" font-family="sans-serif" font-size="10px" fill="#000" opacity="1">PE</text><text text-anchor="end" transform="translate(-7,332.5)" font-family="sans-serif" font-size="10px" fill="#000" opacity="1">PI</text><text text-anchor="end" transform="translate(-7,352.5)" font-family="sans-serif" font-size="10px" fill="#000" opacity="1">PR</text><text text-anchor="end" transform="translate(-7,372.5)" font-family="sans-serif" font-size="10px" fill="#000" opacity="1">RJ</text><text text-anchor="end" transform="translate(-7,392.5)" font-family="sans-serif" font-size="10px" fill="#000" opacity="1">RN</text><text text-anchor="end" transform="translate(-7,412.5)" font-family="sans-serif" font-size="10px" fill="#000" opacity="1">RO</text><text text-anchor="end" transform="translate(-7,432.5)" font-family="sans-serif" font-size="10px" fill="#000" opacity="1">RR</text><text text-anchor="end" transform="translate(-7,452.5)" font-family="sans-serif" font-size="10px" fill="#000" opacity="1">RS</text><text text-anchor="end" transform="translate(-7,472.5)" font-family="sans-serif" font-size="10px" fill="#000" opacity="1">SC</text><text text-anchor="end" transform="translate(-7,492.5)" font-family="sans-serif" font-size="10px" fill="#000" opacity="1">SE</text><text text-anchor="end" transform="translate(-7,512.5)" font-family="sans-serif" font-size="10px" fill="#000" opacity="1">SP</text><text text-anchor="end" transform="translate(-7,532.5)" font-family="sans-serif" font-size="10px" fill="#000" opacity="1">TO</text></g><g class="mark-rule role-axis-domain" pointer-events="none"><line transform="translate(0,0)" x2="0" y2="540" stroke="#888" stroke-width="1" opacity="1"></line></g><g class="mark-text role-axis-title" pointer-events="none"><text text-anchor="middle" transform="translate(-27,270) rotate(-90) translate(0,-2)" font-family="sans-serif" font-size="11px" font-weight="bold" fill="#000" opacity="1">States</text></g></g><path class="foreground" aria-hidden="true" d="" pointer-events="none" display="none"></path></g></g><g class="mark-symbol role-mark layer_0_marks" role="graphics-object" aria-roledescription="symbol mark container"><path aria-label="Instantaneous reproduction number R(t): 0.715143447013; States: AP" role="graphics-symbol" aria-roledescription="point" transform="translate(62.000317622324985,70)" d="M2.7386127875258306,0A2.7386127875258306,2.7386127875258306,0,1,1,-2.7386127875258306,0A2.7386127875258306,2.7386127875258306,0,1,1,2.7386127875258306,0" stroke="#4c78a8" stroke-width="2" opacity="0.7"></path><path aria-label="Instantaneous reproduction number R(t): 0.868226564863; States: PA" role="graphics-symbol" aria-roledescription="point" transform="translate(144.42968877212948,270)" d="M2.7386127875258306,0A2.7386127875258306,2.7386127875258306,0,1,1,-2.7386127875258306,0A2.7386127875258306,2.7386127875258306,0,1,1,2.7386127875258306,0" stroke="#4c78a8" stroke-width="2" opacity="0.7"></path><path aria-label="Instantaneous reproduction number R(t): 0.901087115519; States: RJ" role="graphics-symbol" aria-roledescription="point" transform="translate(162.12383143332266,370)" d="M2.7386127875258306,0A2.7386127875258306,2.7386127875258306,0,1,1,-2.7386127875258306,0A2.7386127875258306,2.7386127875258306,0,1,1,2.7386127875258306,0" stroke="#4c78a8" stroke-width="2" opacity="0.7"></path><path aria-label="Instantaneous reproduction number R(t): 0.955939106867; States: PR" role="graphics-symbol" aria-roledescription="point" transform="translate(191.659519082187,350)" d="M2.7386127875258306,0A2.7386127875258306,2.7386127875258306,0,1,1,-2.7386127875258306,0A2.7386127875258306,2.7386127875258306,0,1,1,2.7386127875258306,0" stroke="#4c78a8" stroke-width="2" opacity="0.7"></path><path aria-label="Instantaneous reproduction number R(t): 0.969162077255; States: SE" role="graphics-symbol" aria-roledescription="point" transform="translate(198.77958006045324,490)" d="M2.7386127875258306,0A2.7386127875258306,2.7386127875258306,0,1,1,-2.7386127875258306,0A2.7386127875258306,2.7386127875258306,0,1,1,2.7386127875258306,0" stroke="#4c78a8" stroke-width="2" opacity="0.7"></path><path aria-label="Instantaneous reproduction number R(t): 0.970902657232; States: AM" role="graphics-symbol" aria-roledescription="point" transform="translate(199.71681543267078,50)" d="M2.7386127875258306,0A2.7386127875258306,2.7386127875258306,0,1,1,-2.7386127875258306,0A2.7386127875258306,2.7386127875258306,0,1,1,2.7386127875258306,0" stroke="#4c78a8" stroke-width="2" opacity="0.7"></path><path aria-label="Instantaneous reproduction number R(t): 0.988472186479; States: RN" role="graphics-symbol" aria-roledescription="point" transform="translate(209.17733118112727,390)" d="M2.7386127875258306,0A2.7386127875258306,2.7386127875258306,0,1,1,-2.7386127875258306,0A2.7386127875258306,2.7386127875258306,0,1,1,2.7386127875258306,0" stroke="#4c78a8" stroke-width="2" opacity="0.7"></path><path aria-label="Instantaneous reproduction number R(t): 0.997683446677; States: ES" role="graphics-symbol" aria-roledescription="point" transform="translate(214.13724051852552,150)" d="M2.7386127875258306,0A2.7386127875258306,2.7386127875258306,0,1,1,-2.7386127875258306,0A2.7386127875258306,2.7386127875258306,0,1,1,2.7386127875258306,0" stroke="#4c78a8" stroke-width="2" opacity="0.7"></path><path aria-label="Instantaneous reproduction number R(t): 1.04475526706; States: MA" role="graphics-symbol" aria-roledescription="point" transform="translate(239.4836053375367,190)" d="M2.7386127875258306,0A2.7386127875258306,2.7386127875258306,0,1,1,-2.7386127875258306,0A2.7386127875258306,2.7386127875258306,0,1,1,2.7386127875258306,0" stroke="#4c78a8" stroke-width="2" opacity="0.7"></path><path aria-label="Instantaneous reproduction number R(t): 1.04576350268; States: MT" role="graphics-symbol" aria-roledescription="point" transform="translate(240.02650144130436,250)" d="M2.7386127875258306,0A2.7386127875258306,2.7386127875258306,0,1,1,-2.7386127875258306,0A2.7386127875258306,2.7386127875258306,0,1,1,2.7386127875258306,0" stroke="#4c78a8" stroke-width="2" opacity="0.7"></path><path aria-label="Instantaneous reproduction number R(t): 1.05691541956; States: AC" role="graphics-symbol" aria-roledescription="point" transform="translate(246.03137976348904,10)" d="M2.7386127875258306,0A2.7386127875258306,2.7386127875258306,0,1,1,-2.7386127875258306,0A2.7386127875258306,2.7386127875258306,0,1,1,2.7386127875258306,0" stroke="#4c78a8" stroke-width="2" opacity="0.7"></path><path aria-label="Instantaneous reproduction number R(t): 1.0851598011; States: PI" role="graphics-symbol" aria-roledescription="point" transform="translate(261.2398929007598,330)" d="M2.7386127875258306,0A2.7386127875258306,2.7386127875258306,0,1,1,-2.7386127875258306,0A2.7386127875258306,2.7386127875258306,0,1,1,2.7386127875258306,0" stroke="#4c78a8" stroke-width="2" opacity="0.7"></path><path aria-label="Instantaneous reproduction number R(t): 1.13246602095; States: DF" role="graphics-symbol" aria-roledescription="point" transform="translate(286.71247281665575,130)" d="M2.7386127875258306,0A2.7386127875258306,2.7386127875258306,0,1,1,-2.7386127875258306,0A2.7386127875258306,2.7386127875258306,0,1,1,2.7386127875258306,0" stroke="#4c78a8" stroke-width="2" opacity="0.7"></path><path aria-label="Instantaneous reproduction number R(t): 1.13937096355; States: MG" role="graphics-symbol" aria-roledescription="point" transform="translate(290.43051883688474,210)" d="M2.7386127875258306,0A2.7386127875258306,2.7386127875258306,0,1,1,-2.7386127875258306,0A2.7386127875258306,2.7386127875258306,0,1,1,2.7386127875258306,0" stroke="#4c78a8" stroke-width="2" opacity="0.7"></path><path aria-label="Instantaneous reproduction number R(t): 1.14572838544; States: RR" role="graphics-symbol" aria-roledescription="point" transform="translate(293.85374600366305,430)" d="M2.7386127875258306,0A2.7386127875258306,2.7386127875258306,0,1,1,-2.7386127875258306,0A2.7386127875258306,2.7386127875258306,0,1,1,2.7386127875258306,0" stroke="#4c78a8" stroke-width="2" opacity="0.7"></path><path aria-label="Instantaneous reproduction number R(t): 1.14710416164; States: MS" role="graphics-symbol" aria-roledescription="point" transform="translate(294.594548577268,230)" d="M2.7386127875258306,0A2.7386127875258306,2.7386127875258306,0,1,1,-2.7386127875258306,0A2.7386127875258306,2.7386127875258306,0,1,1,2.7386127875258306,0" stroke="#4c78a8" stroke-width="2" opacity="0.7"></path><path aria-label="Instantaneous reproduction number R(t): 1.15029792523; States: SP" role="graphics-symbol" aria-roledescription="point" transform="translate(296.3142674317784,510)" d="M2.7386127875258306,0A2.7386127875258306,2.7386127875258306,0,1,1,-2.7386127875258306,0A2.7386127875258306,2.7386127875258306,0,1,1,2.7386127875258306,0" stroke="#4c78a8" stroke-width="2" opacity="0.7"></path><path aria-label="Instantaneous reproduction number R(t): 1.17134116889; States: BA" role="graphics-symbol" aria-roledescription="point" transform="translate(307.64524478881987,90)" d="M2.7386127875258306,0A2.7386127875258306,2.7386127875258306,0,1,1,-2.7386127875258306,0A2.7386127875258306,2.7386127875258306,0,1,1,2.7386127875258306,0" stroke="#4c78a8" stroke-width="2" opacity="0.7"></path><path aria-label="Instantaneous reproduction number R(t): 1.17328465804; States: PB" role="graphics-symbol" aria-roledescription="point" transform="translate(308.691738947292,290)" d="M2.7386127875258306,0A2.7386127875258306,2.7386127875258306,0,1,1,-2.7386127875258306,0A2.7386127875258306,2.7386127875258306,0,1,1,2.7386127875258306,0" stroke="#4c78a8" stroke-width="2" opacity="0.7"></path><path aria-label="Instantaneous reproduction number R(t): 1.17420824856; States: RS" role="graphics-symbol" aria-roledescription="point" transform="translate(309.1890569149784,450)" d="M2.7386127875258306,0A2.7386127875258306,2.7386127875258306,0,1,1,-2.7386127875258306,0A2.7386127875258306,2.7386127875258306,0,1,1,2.7386127875258306,0" stroke="#4c78a8" stroke-width="2" opacity="0.7"></path><path aria-label="Instantaneous reproduction number R(t): 1.17443783232; States: RO" role="graphics-symbol" aria-roledescription="point" transform="translate(309.312678939128,410)" d="M2.7386127875258306,0A2.7386127875258306,2.7386127875258306,0,1,1,-2.7386127875258306,0A2.7386127875258306,2.7386127875258306,0,1,1,2.7386127875258306,0" stroke="#4c78a8" stroke-width="2" opacity="0.7"></path><path aria-label="Instantaneous reproduction number R(t): 1.1866131369; States: PE" role="graphics-symbol" aria-roledescription="point" transform="translate(315.8686121759691,310)" d="M2.7386127875258306,0A2.7386127875258306,2.7386127875258306,0,1,1,-2.7386127875258306,0A2.7386127875258306,2.7386127875258306,0,1,1,2.7386127875258306,0" stroke="#4c78a8" stroke-width="2" opacity="0.7"></path><path aria-label="Instantaneous reproduction number R(t): 1.25851438119; States: CE" role="graphics-symbol" aria-roledescription="point" transform="translate(354.5846667961703,110)" d="M2.7386127875258306,0A2.7386127875258306,2.7386127875258306,0,1,1,-2.7386127875258306,0A2.7386127875258306,2.7386127875258306,0,1,1,2.7386127875258306,0" stroke="#4c78a8" stroke-width="2" opacity="0.7"></path><path aria-label="Instantaneous reproduction number R(t): 1.31085409869; States: SC" role="graphics-symbol" aria-roledescription="point" transform="translate(382.7675916033675,470)" d="M2.7386127875258306,0A2.7386127875258306,2.7386127875258306,0,1,1,-2.7386127875258306,0A2.7386127875258306,2.7386127875258306,0,1,1,2.7386127875258306,0" stroke="#4c78a8" stroke-width="2" opacity="0.7"></path><path aria-label="Instantaneous reproduction number R(t): 1.31422755184; States: AL" role="graphics-symbol" aria-roledescription="point" transform="translate(384.5840663777855,30)" d="M2.7386127875258306,0A2.7386127875258306,2.7386127875258306,0,1,1,-2.7386127875258306,0A2.7386127875258306,2.7386127875258306,0,1,1,2.7386127875258306,0" stroke="#4c78a8" stroke-width="2" opacity="0.7"></path><path aria-label="Instantaneous reproduction number R(t): 1.39743049144; States: TO" role="graphics-symbol" aria-roledescription="point" transform="translate(429.3856492355288,530)" d="M2.7386127875258306,0A2.7386127875258306,2.7386127875258306,0,1,1,-2.7386127875258306,0A2.7386127875258306,2.7386127875258306,0,1,1,2.7386127875258306,0" stroke="#4c78a8" stroke-width="2" opacity="0.7"></path><path aria-label="Instantaneous reproduction number R(t): 1.52450530217; States: GO" role="graphics-symbol" aria-roledescription="point" transform="translate(497.8105473218046,170)" d="M2.7386127875258306,0A2.7386127875258306,2.7386127875258306,0,1,1,-2.7386127875258306,0A2.7386127875258306,2.7386127875258306,0,1,1,2.7386127875258306,0" stroke="#4c78a8" stroke-width="2" opacity="0.7"></path></g><g class="mark-rule role-mark layer_1_marks" role="graphics-object" aria-roledescription="rule mark container"><line aria-label="a: 1" role="graphics-symbol" aria-roledescription="rule mark" transform="translate(215.38461538461544,0)" x2="0" y2="540" stroke="black" stroke-width="0.2"></line><line aria-label="a: 1" role="graphics-symbol" aria-roledescription="rule mark" transform="translate(215.38461538461544,0)" x2="0" y2="540" stroke="black" stroke-width="0.2"></line><line aria-label="a: 1" role="graphics-symbol" aria-roledescription="rule mark" transform="translate(215.38461538461544,0)" x2="0" y2="540" stroke="black" stroke-width="0.2"></line><line aria-label="a: 1" role="graphics-symbol" aria-roledescription="rule mark" transform="translate(215.38461538461544,0)" x2="0" y2="540" stroke="black" stroke-width="0.2"></line><line aria-label="a: 1" role="graphics-symbol" aria-roledescription="rule mark" transform="translate(215.38461538461544,0)" x2="0" y2="540" stroke="black" stroke-width="0.2"></line><line aria-label="a: 1" role="graphics-symbol" aria-roledescription="rule mark" transform="translate(215.38461538461544,0)" x2="0" y2="540" stroke="black" stroke-width="0.2"></line><line aria-label="a: 1" role="graphics-symbol" aria-roledescription="rule mark" transform="translate(215.38461538461544,0)" x2="0" y2="540" stroke="black" stroke-width="0.2"></line><line aria-label="a: 1" role="graphics-symbol" aria-roledescription="rule mark" transform="translate(215.38461538461544,0)" x2="0" y2="540" stroke="black" stroke-width="0.2"></line><line aria-label="a: 1" role="graphics-symbol" aria-roledescription="rule mark" transform="translate(215.38461538461544,0)" x2="0" y2="540" stroke="black" stroke-width="0.2"></line><line aria-label="a: 1" role="graphics-symbol" aria-roledescription="rule mark" transform="translate(215.38461538461544,0)" x2="0" y2="540" stroke="black" stroke-width="0.2"></line><line aria-label="a: 1" role="graphics-symbol" aria-roledescription="rule mark" transform="translate(215.38461538461544,0)" x2="0" y2="540" stroke="black" stroke-width="0.2"></line><line aria-label="a: 1" role="graphics-symbol" aria-roledescription="rule mark" transform="translate(215.38461538461544,0)" x2="0" y2="540" stroke="black" stroke-width="0.2"></line><line aria-label="a: 1" role="graphics-symbol" aria-roledescription="rule mark" transform="translate(215.38461538461544,0)" x2="0" y2="540" stroke="black" stroke-width="0.2"></line><line aria-label="a: 1" role="graphics-symbol" aria-roledescription="rule mark" transform="translate(215.38461538461544,0)" x2="0" y2="540" stroke="black" stroke-width="0.2"></line><line aria-label="a: 1" role="graphics-symbol" aria-roledescription="rule mark" transform="translate(215.38461538461544,0)" x2="0" y2="540" stroke="black" stroke-width="0.2"></line><line aria-label="a: 1" role="graphics-symbol" aria-roledescription="rule mark" transform="translate(215.38461538461544,0)" x2="0" y2="540" stroke="black" stroke-width="0.2"></line><line aria-label="a: 1" role="graphics-symbol" aria-roledescription="rule mark" transform="translate(215.38461538461544,0)" x2="0" y2="540" stroke="black" stroke-width="0.2"></line><line aria-label="a: 1" role="graphics-symbol" aria-roledescription="rule mark" transform="translate(215.38461538461544,0)" x2="0" y2="540" stroke="black" stroke-width="0.2"></line><line aria-label="a: 1" role="graphics-symbol" aria-roledescription="rule mark" transform="translate(215.38461538461544,0)" x2="0" y2="540" stroke="black" stroke-width="0.2"></line><line aria-label="a: 1" role="graphics-symbol" aria-roledescription="rule mark" transform="translate(215.38461538461544,0)" x2="0" y2="540" stroke="black" stroke-width="0.2"></line><line aria-label="a: 1" role="graphics-symbol" aria-roledescription="rule mark" transform="translate(215.38461538461544,0)" x2="0" y2="540" stroke="black" stroke-width="0.2"></line><line aria-label="a: 1" role="graphics-symbol" aria-roledescription="rule mark" transform="translate(215.38461538461544,0)" x2="0" y2="540" stroke="black" stroke-width="0.2"></line><line aria-label="a: 1" role="graphics-symbol" aria-roledescription="rule mark" transform="translate(215.38461538461544,0)" x2="0" y2="540" stroke="black" stroke-width="0.2"></line><line aria-label="a: 1" role="graphics-symbol" aria-roledescription="rule mark" transform="translate(215.38461538461544,0)" x2="0" y2="540" stroke="black" stroke-width="0.2"></line><line aria-label="a: 1" role="graphics-symbol" aria-roledescription="rule mark" transform="translate(215.38461538461544,0)" x2="0" y2="540" stroke="black" stroke-width="0.2"></line><line aria-label="a: 1" role="graphics-symbol" aria-roledescription="rule mark" transform="translate(215.38461538461544,0)" x2="0" y2="540" stroke="black" stroke-width="0.2"></line><line aria-label="a: 1" role="graphics-symbol" aria-roledescription="rule mark" transform="translate(215.38461538461544,0)" x2="0" y2="540" stroke="black" stroke-width="0.2"></line></g><g class="mark-rule role-mark layer_2_marks" role="graphics-object" aria-roledescription="rule mark container"><line aria-label="CI 0.975: 0.635816029484; upper_Quantile.0.025(R): 0.805673178564; index: AP; Quantile.0.975(R): 0.805673178564; Quantile.0.025(R): 0.635816029484" role="graphics-symbol" aria-roledescription="errorbar" transform="translate(19.285554337417455,70)" x2="91.46154181241349" y2="0" stroke="blue" stroke-width="0.6"></line><line aria-label="CI 0.975: 0.84458958534; upper_Quantile.0.025(R): 0.892599182367; index: PA; Quantile.0.975(R): 0.892599182367; Quantile.0.025(R): 0.84458958534" role="graphics-symbol" aria-roledescription="errorbar" transform="translate(131.70208441392842,270)" x2="25.851321475913068" y2="0" stroke="blue" stroke-width="0.6"></line><line aria-label="CI 0.975: 0.833079762565; upper_Quantile.0.025(R): 0.976051788667; index: RJ; Quantile.0.975(R): 0.976051788667; Quantile.0.025(R): 0.833079762565" role="graphics-symbol" aria-roledescription="errorbar" transform="translate(125.50448753524313,370)" x2="76.98493713162955" y2="0" stroke="blue" stroke-width="0.6"></line><line aria-label="CI 0.975: 0.93632320474; upper_Quantile.0.025(R): 0.976277732206; index: PR; Quantile.0.975(R): 0.976277732206; Quantile.0.025(R): 0.93632320474" role="graphics-symbol" aria-roledescription="errorbar" transform="translate(181.09711024475536,350)" x2="21.51397632789184" y2="0" stroke="blue" stroke-width="0.6"></line><line aria-label="CI 0.975: 0.933485891573; upper_Quantile.0.025(R): 1.01034762289; index: SE; Quantile.0.975(R): 1.01034762289; Quantile.0.025(R): 0.933485891573" role="graphics-symbol" aria-roledescription="errorbar" transform="translate(179.5693262318637,490)" x2="41.38708609162032" y2="0" stroke="blue" stroke-width="0.6"></line><line aria-label="CI 0.975: 0.931216689152; upper_Quantile.0.025(R): 1.01162553313; index: AM; Quantile.0.975(R): 1.01162553313; Quantile.0.025(R): 0.931216689152" role="graphics-symbol" aria-roledescription="errorbar" transform="translate(178.3474480050375,50)" x2="43.29706983664346" y2="0" stroke="blue" stroke-width="0.6"></line><line aria-label="CI 0.975: 0.908608418126; upper_Quantile.0.025(R): 1.07211447199; index: RN; Quantile.0.975(R): 1.07211447199; Quantile.0.025(R): 0.908608418126" role="graphics-symbol" aria-roledescription="errorbar" transform="translate(166.17376360612553,390)" x2="88.04172131239108" y2="0" stroke="blue" stroke-width="0.6"></line><line aria-label="CI 0.975: 0.960520887169; upper_Quantile.0.025(R): 1.03546158316; index: ES; Quantile.0.975(R): 1.03546158316; Quantile.0.025(R): 0.960520887169" role="graphics-symbol" aria-roledescription="errorbar" transform="translate(194.12663155252343,150)" x2="40.35268245451462" y2="0" stroke="blue" stroke-width="0.6"></line><line aria-label="CI 0.975: 1.01230546614; upper_Quantile.0.025(R): 1.07781701857; index: MA; Quantile.0.975(R): 1.07781701857; Quantile.0.025(R): 1.01230546614" role="graphics-symbol" aria-roledescription="errorbar" transform="translate(222.01063561201687,190)" x2="35.27545130841878" y2="0" stroke="blue" stroke-width="0.6"></line><line aria-label="CI 0.975: 1.00097133441; upper_Quantile.0.025(R): 1.08702710679; index: MT; Quantile.0.975(R): 1.08702710679; Quantile.0.025(R): 1.00097133441" role="graphics-symbol" aria-roledescription="errorbar" transform="translate(215.9076416079227,250)" x2="46.33772358929508" y2="0" stroke="blue" stroke-width="0.6"></line><line aria-label="CI 0.975: 0.998496714939; upper_Quantile.0.025(R): 1.12006577187; index: AC; Quantile.0.975(R): 1.12006577187; Quantile.0.025(R): 0.998496714939" role="graphics-symbol" aria-roledescription="errorbar" transform="translate(214.57515419765878,10)" x2="65.46026142673566" y2="0" stroke="blue" stroke-width="0.6"></line><line aria-label="CI 0.975: 1.05637445144; upper_Quantile.0.025(R): 1.11548207517; index: PI; Quantile.0.975(R): 1.11548207517; Quantile.0.025(R): 1.05637445144" role="graphics-symbol" aria-roledescription="errorbar" transform="translate(245.7400892395189,330)" x2="31.827182004775864" y2="0" stroke="blue" stroke-width="0.6"></line><line aria-label="CI 0.975: 1.09402561535; upper_Quantile.0.025(R): 1.17180805539; index: DF; Quantile.0.975(R): 1.17180805539; Quantile.0.025(R): 1.09402561535" role="graphics-symbol" aria-roledescription="errorbar" transform="translate(266.0137928786306,130)" x2="41.8828523340527" y2="0" stroke="blue" stroke-width="0.6"></line><line aria-label="CI 0.975: 1.10899268452; upper_Quantile.0.025(R): 1.17332980999; index: MG; Quantile.0.975(R): 1.17332980999; Quantile.0.025(R): 1.10899268452" role="graphics-symbol" aria-roledescription="errorbar" transform="translate(274.072983972419,210)" x2="34.64306755838271" y2="0" stroke="blue" stroke-width="0.6"></line><line aria-label="CI 0.975: 1.07683379761; upper_Quantile.0.025(R): 1.22968294982; index: RR; Quantile.0.975(R): 1.22968294982; Quantile.0.025(R): 1.07683379761" role="graphics-symbol" aria-roledescription="errorbar" transform="translate(256.75666024898226,430)" x2="82.30338965225894" y2="0" stroke="blue" stroke-width="0.6"></line><line aria-label="CI 0.975: 1.0717403891; upper_Quantile.0.025(R): 1.23507096843; index: MS; Quantile.0.975(R): 1.23507096843; Quantile.0.025(R): 1.0717403891" role="graphics-symbol" aria-roledescription="errorbar" transform="translate(254.0140556707069,230)" x2="87.94723502324939" y2="0" stroke="blue" stroke-width="0.6"></line><line aria-label="CI 0.975: 1.04838851925; upper_Quantile.0.025(R): 1.29560146223; index: SP; Quantile.0.975(R): 1.29560146223; Quantile.0.025(R): 1.04838851925" role="graphics-symbol" aria-roledescription="errorbar" transform="translate(241.4399719035393,510)" x2="133.11466160442262" y2="0" stroke="blue" stroke-width="0.6"></line><line aria-label="CI 0.975: 1.10578855823; upper_Quantile.0.025(R): 1.2636552527; index: BA; Quantile.0.975(R): 1.2636552527; Quantile.0.025(R): 1.10578855823" role="graphics-symbol" aria-roledescription="errorbar" transform="translate(272.3476852031225,90)" x2="85.00514317643496" y2="0" stroke="blue" stroke-width="0.6"></line><line aria-label="CI 0.975: 1.10914993728; upper_Quantile.0.025(R): 1.25144967734; index: PB; Quantile.0.975(R): 1.25144967734; Quantile.0.025(R): 1.10914993728" role="graphics-symbol" aria-roledescription="errorbar" transform="translate(274.1576585332689,290)" x2="76.62293695852009" y2="0" stroke="blue" stroke-width="0.6"></line><line aria-label="CI 0.975: 1.09729796489; upper_Quantile.0.025(R): 1.26589561687; index: RS; Quantile.0.975(R): 1.26589561687; Quantile.0.025(R): 1.09729796489" role="graphics-symbol" aria-roledescription="errorbar" transform="translate(267.7758272461121,450)" x2="90.7833510670909" y2="0" stroke="blue" stroke-width="0.6"></line><line aria-label="CI 0.975: 1.07485947856; upper_Quantile.0.025(R): 1.31465963531; index: RO; Quantile.0.975(R): 1.31465963531; Quantile.0.025(R): 1.07485947856" role="graphics-symbol" aria-roledescription="errorbar" transform="translate(255.6935653771412,410)" x2="129.1231613273121" y2="0" stroke="blue" stroke-width="0.6"></line><line aria-label="CI 0.975: 1.11459642357; upper_Quantile.0.025(R): 1.27291471104; index: PE; Quantile.0.975(R): 1.27291471104; Quantile.0.025(R): 1.11459642357" role="graphics-symbol" aria-roledescription="errorbar" transform="translate(277.09038192481853,310)" x2="85.24830863628421" y2="0" stroke="blue" stroke-width="0.6"></line><line aria-label="CI 0.975: 1.18221558221; upper_Quantile.0.025(R): 1.37135386574; index: CE; Quantile.0.975(R): 1.37135386574; Quantile.0.025(R): 1.18221558221" role="graphics-symbol" aria-roledescription="errorbar" transform="translate(313.50069811261164,110)" x2="101.84369113095352" y2="0" stroke="blue" stroke-width="0.6"></line><line aria-label="CI 0.975: 1.22522792646; upper_Quantile.0.025(R): 1.41063948462; index: SC; Quantile.0.975(R): 1.41063948462; Quantile.0.025(R): 1.22522792646" role="graphics-symbol" aria-roledescription="errorbar" transform="translate(336.6611911695191,470)" x2="99.83699285587102" y2="0" stroke="blue" stroke-width="0.6"></line><line aria-label="CI 0.975: 1.19857328305; upper_Quantile.0.025(R): 1.44706424643; index: AL; Quantile.0.975(R): 1.44706424643; Quantile.0.025(R): 1.19857328305" role="graphics-symbol" aria-roledescription="errorbar" transform="translate(322.30869087308236,30)" x2="133.8028264357775" y2="0" stroke="blue" stroke-width="0.6"></line><line aria-label="CI 0.975: 1.25227964532; upper_Quantile.0.025(R): 1.55316424445; index: TO; Quantile.0.975(R): 1.55316424445; Quantile.0.025(R): 1.25227964532" role="graphics-symbol" aria-roledescription="errorbar" transform="translate(351.22750132381617,530)" x2="162.01478415147295" y2="0" stroke="blue" stroke-width="0.6"></line><line aria-label="CI 0.975: 1.28510192884; upper_Quantile.0.025(R): 1.82054915866; index: GO; Quantile.0.975(R): 1.82054915866; Quantile.0.025(R): 1.28510192884" role="graphics-symbol" aria-roledescription="errorbar" transform="translate(368.90103860430054,170)" x2="288.31773913759935" y2="0" stroke="blue" stroke-width="0.6"></line></g><g class="mark-group role-title"><g transform="translate(350,-17.2)"><path class="background" aria-hidden="true" d="M0,0h0v0h0Z" pointer-events="none"></path><g><g class="mark-text role-title-text" role="graphics-symbol" aria-roledescription="title" aria-label="Title text 'Instantaneous reproduction number estimate for all states in Brazil'" pointer-events="none"><text text-anchor="middle" transform="translate(0,10)" font-family="sans-serif" font-size="13px" font-weight="bold" fill="#000" opacity="1">Instantaneous reproduction number estimate for all states in Brazil</text></g></g><path class="foreground" aria-hidden="true" d="" pointer-events="none" display="none"></path></g></g></g><path class="foreground" aria-hidden="true" d="" display="none"></path></g></g></g></svg>