<svg class="marks" width="749" height="600" viewBox="0 0 749 600" version="1.1" xmlns="http://www.w3.org/2000/svg" xmlns:xlink="http://www.w3.org/1999/xlink"><rect width="749" height="600" fill="white"></rect><g fill="none" stroke-miterlimit="10" transform="translate(43,23)"><g class="mark-group role-frame root" role="graphics-object" aria-roledescription="group mark container"><g transform="translate(0,0)"><path class="background" aria-hidden="true" d="M0.5,0.5h700v540h-700Z"></path><g><g class="mark-group role-axis" aria-hidden="true"><g transform="translate(0.5,0.5)"><path class="background" aria-hidden="true" d="M0,0h0v0h0Z" pointer-events="none"></path><g><g class="mark-rule role-axis-grid" pointer-events="none"><line transform="translate(0,10)" x2="700" y2="0" stroke="#ddd" stroke-width="1" opacity="1"></line><line transform="translate(0,30)" x2="700" y2="0" stroke="#ddd" stroke-width="1" opacity="1"></line><line transform="translate(0,50)" x2="700" y2="0" stroke="#ddd" stroke-width="1" opacity="1"></line><line transform="translate(0,70)" x2="700" y2="0" stroke="#ddd" stroke-width="1" opacity="1"></line><line transform="translate(0,90)" x2="700" y2="0" stroke="#ddd" stroke-width="1" opacity="1"></line><line transform="translate(0,110)" x2="700" y2="0" stroke="#ddd" stroke-width="1" opacity="1"></line><line transform="translate(0,130)" x2="700" y2="0" stroke="#ddd" stroke-width="1" opacity="1"></line><line transform="translate(0,150)" x2="700" y2="0" stroke="#ddd" stroke-width="1" opacity="1"></line><line transform="translate(0,170)" x2="700" y2="0" stroke="#ddd" stroke-width="1" opacity="1"></line><line transform="translate(0,190)" x2="700" y2="0" stroke="#ddd" stroke-width="1" opacity="1"></line><line transform="translate(0,210)" x2="700" y2="0" stroke="#ddd" stroke-width="1" opacity="1"></line><line transform="translate(0,230)" x2="700" y2="0" stroke="#ddd" stroke-width="1" opacity="1"></line><line transform="translate(0,250)" x2="700" y2="0" stroke="#ddd" stroke-width="1" opacity="1"></line><line transform="translate(0,270)" x2="700" y2="0" stroke="#ddd" stroke-width="1" opacity="1"></line><line transform="translate(0,290)" x2="700" y2="0" stroke="#ddd" stroke-width="1" opacity="1"></line><line transform="translate(0,310)" x2="700" y2="0" stroke="#ddd" stroke-width="1" opacity="1"></line><line transform="translate(0,330)" x2="700" y2="0" stroke="#ddd" stroke-width="1" opacity="1"></line><line transform="translate(0,350)" x2="700" y2="0" stroke="#ddd" stroke-width="1" opacity="1"></line><line transform="translate(0,370)" x2="700" y2="0" stroke="#ddd" stroke-width="1" opacity="1"></line><line transform="translate(0,390)" x2="700" y2="0" stroke="#ddd" stroke-width="1" opacity="1"></line><line transform="translate(0,410)" x2="700" y2="0" stroke="#ddd" stroke-width="1" opacity="1"></line><line transform="translate(0,430)" x2="700" y2="0" stroke="#ddd" stroke-width="1" opacity="1"></line><line transform="translate(0,450)" x2="700" y2="0" stroke="#ddd" stroke-width="1" opacity="1"></line><line transform="translate(0,470)" x2="700" y2="0" stroke="#ddd" stroke-width="1" opacity="1"></line><line transform="translate(0,490)" x2="700" y2="0" stroke="#ddd" stroke-width="1" opacity="1"></line><line transform="translate(0,510)" x2="700" y2="0" stroke="#ddd" stroke-width="1" opacity="1"></line><line transform="translate(0,530)" x2="700" y2="0" stroke="#ddd" stroke-width="1" opacity="1"></line></g></g><path class="foreground" aria-hidden="true" d="" pointer-events="none" display="none"></path></g></g><g class="mark-group role-axis" role="graphics-symbol" aria-roledescription="axis" aria-label="X-axis titled 'Instantaneous reproduction number R(t), CI 0.975' for a linear scale with values from 0.7 to 1.3"><g transform="translate(0.5,540.5)"><path class="background" aria-hidden="true" d="M0,0h0v0h0Z" pointer-events="none"></path><g><g class="mark-rule role-axis-tick" pointer-events="none"><line transform="translate(0,0)" x2="0" y2="5" stroke="#888" stroke-width="1" opacity="1"></line><line transform="translate(54,0)" x2="0" y2="5" stroke="#888" stroke-width="1" opacity="1"></line><line transform="translate(108,0)" x2="0" y2="5" stroke="#888" stroke-width="1" opacity="1"></line><line transform="translate(162,0)" x2="0" y2="5" stroke="#888" stroke-width="1" opacity="1"></line><line transform="translate(215,0)" x2="0" y2="5" stroke="#888" stroke-width="1" opacity="1"></line><line transform="translate(269,0)" x2="0" y2="5" stroke="#888" stroke-width="1" opacity="1"></line><line transform="translate(323,0)" x2="0" y2="5" stroke="#888" stroke-width="1" opacity="1"></line><line transform="translate(377,0)" x2="0" y2="5" stroke="#888" stroke-width="1" opacity="1"></line><line transform="translate(431,0)" x2="0" y2="5" stroke="#888" stroke-width="1" opacity="1"></line><line transform="translate(485,0)" x2="0" y2="5" stroke="#888" stroke-width="1" opacity="1"></line><line transform="translate(538,0)" x2="0" y2="5" stroke="#888" stroke-width="1" opacity="1"></line><line transform="translate(592,0)" x2="0" y2="5" stroke="#888" stroke-width="1" opacity="1"></line><line transform="translate(646,0)" x2="0" y2="5" stroke="#888" stroke-width="1" opacity="1"></line><line transform="translate(700,0)" x2="0" y2="5" stroke="#888" stroke-width="1" opacity="1"></line></g><g class="mark-text role-axis-label" pointer-events="none"><text text-anchor="start" transform="translate(0,15)" font-family="sans-serif" font-size="10px" fill="#000" opacity="1">0.65</text><text text-anchor="middle" transform="translate(53.84615384615377,15)" font-family="sans-serif" font-size="10px" fill="#000" opacity="1">0.70</text><text text-anchor="middle" transform="translate(107.69230769230766,15)" font-family="sans-serif" font-size="10px" fill="#000" opacity="1">0.75</text><text text-anchor="middle" transform="translate(161.53846153846155,15)" font-family="sans-serif" font-size="10px" fill="#000" opacity="1">0.80</text><text text-anchor="middle" transform="translate(215.38461538461533,15)" font-family="sans-serif" font-size="10px" fill="#000" opacity="1">0.85</text><text text-anchor="middle" transform="translate(269.2307692307692,15)" font-family="sans-serif" font-size="10px" fill="#000" opacity="1">0.90</text><text text-anchor="middle" transform="translate(323.076923076923,15)" font-family="sans-serif" font-size="10px" fill="#000" opacity="1">0.95</text><text text-anchor="middle" transform="translate(376.9230769230769,15)" font-family="sans-serif" font-size="10px" fill="#000" opacity="1">1.00</text><text text-anchor="middle" transform="translate(430.7692307692308,15)" font-family="sans-serif" font-size="10px" fill="#000" opacity="1">1.05</text><text text-anchor="middle" transform="translate(484.6153846153847,15)" font-family="sans-serif" font-size="10px" fill="#000" opacity="1">1.10</text><text text-anchor="middle" transform="translate(538.4615384615383,15)" font-family="sans-serif" font-size="10px" fill="#000" opacity="1">1.15</text><text text-anchor="middle" transform="translate(592.3076923076923,15)" font-family="sans-serif" font-size="10px" fill="#000" opacity="1">1.20</text><text text-anchor="middle" transform="translate(646.1538461538461,15)" font-family="sans-serif" font-size="10px" fill="#000" opacity="1">1.25</text><text text-anchor="end" transform="translate(700,15)" font-family="sans-serif" font-size="10px" fill="#000" opacity="1">1.30</text></g><g class="mark-rule role-axis-domain" pointer-events="none"><line transform="translate(0,0)" x2="700" y2="0" stroke="#888" stroke-width="1" opacity="1"></line></g><g class="mark-text role-axis-title" pointer-events="none"><text text-anchor="middle" transform="translate(350,30)" font-family="sans-serif" font-size="11px" font-weight="bold" fill="#000" opacity="1">Instantaneous reproduction number R(t), CI 0.975</text></g></g><path class="foreground" aria-hidden="true" d="" pointer-events="none" display="none"></path></g></g><g class="mark-group role-axis" role="graphics-symbol" aria-roledescription="axis" aria-label="Y-axis titled 'States' for a discrete scale with 27 values: AC, AL, AM, AP, BA, ending with TO"><g transform="translate(0.5,0.5)"><path class="background" aria-hidden="true" d="M0,0h0v0h0Z" pointer-events="none"></path><g><g class="mark-rule role-axis-tick" pointer-events="none"><line transform="translate(0,10)" x2="-5" y2="0" stroke="#888" stroke-width="1" opacity="1"></line><line transform="translate(0,30)" x2="-5" y2="0" stroke="#888" stroke-width="1" opacity="1"></line><line transform="translate(0,50)" x2="-5" y2="0" stroke="#888" stroke-width="1" opacity="1"></line><line transform="translate(0,70)" x2="-5" y2="0" stroke="#888" stroke-width="1" opacity="1"></line><line transform="translate(0,90)" x2="-5" y2="0" stroke="#888" stroke-width="1" opacity="1"></line><line transform="translate(0,110)" x2="-5" y2="0" stroke="#888" stroke-width="1" opacity="1"></line><line transform="translate(0,130)" x2="-5" y2="0" stroke="#888" stroke-width="1" opacity="1"></line><line transform="translate(0,150)" x2="-5" y2="0" stroke="#888" stroke-width="1" opacity="1"></line><line transform="translate(0,170)" x2="-5" y2="0" stroke="#888" stroke-width="1" opacity="1"></line><line transform="translate(0,190)" x2="-5" y2="0" stroke="#888" stroke-width="1" opacity="1"></line><line transform="translate(0,210)" x2="-5" y2="0" stroke="#888" stroke-width="1" opacity="1"></line><line transform="translate(0,230)" x2="-5" y2="0" stroke="#888" stroke-width="1" opacity="1"></line><line transform="translate(0,250)" x2="-5" y2="0" stroke="#888" stroke-width="1" opacity="1"></line><line transform="translate(0,270)" x2="-5" y2="0" stroke="#888" stroke-width="1" opacity="1"></line><line transform="translate(0,290)" x2="-5" y2="0" stroke="#888" stroke-width="1" opacity="1"></line><line transform="translate(0,310)" x2="-5" y2="0" stroke="#888" stroke-width="1" opacity="1"></line><line transform="translate(0,330)" x2="-5" y2="0" stroke="#888" stroke-width="1" opacity="1"></line><line transform="translate(0,350)" x2="-5" y2="0" stroke="#888" stroke-width="1" opacity="1"></line><line transform="translate(0,370)" x2="-5" y2="0" stroke="#888" stroke-width="1" opacity="1"></line><line transform="translate(0,390)" x2="-5" y2="0" stroke="#888" stroke-width="1" opacity="1"></line><line transform="translate(0,410)" x2="-5" y2="0" stroke="#888" stroke-width="1" opacity="1"></line><line transform="translate(0,430)" x2="-5" y2="0" stroke="#888" stroke-width="1" opacity="1"></line><line transform="translate(0,450)" x2="-5" y2="0" stroke="#888" stroke-width="1" opacity="1"></line><line transform="translate(0,470)" x2="-5" y2="0" stroke="#888" stroke-width="1" opacity="1"></line><line transform="translate(0,490)" x2="-5" y2="0" stroke="#888" stroke-width="1" opacity="1"></line><line transform="translate(0,510)" x2="-5" y2="0" stroke="#888" stroke-width="1" opacity="1"></line><line transform="translate(0,530)" x2="-5" y2="0" stroke="#888" stroke-width="1" opacity="1"></line></g><g class="mark-text role-axis-label" pointer-events="none"><text text-anchor="end" transform="translate(-7,12.5)" font-family="sans-serif" font-size="10px" fill="#000" opacity="1">AC</text><text text-anchor="end" transform="translate(-7,32.5)" font-family="sans-serif" font-size="10px" fill="#000" opacity="1">AL</text><text text-anchor="end" transform="translate(-7,52.5)" font-family="sans-serif" font-size="10px" fill="#000" opacity="1">AM</text><text text-anchor="end" transform="translate(-7,72.5)" font-family="sans-serif" font-size="10px" fill="#000" opacity="1">AP</text><text text-anchor="end" transform="translate(-7,92.5)" font-family="sans-serif" font-size="10px" fill="#000" opacity="1">BA</text><text text-anchor="end" transform="translate(-7,112.5)" font-family="sans-serif" font-size="10px" fill="#000" opacity="1">CE</text><text text-anchor="end" transform="translate(-7,132.5)" font-family="sans-serif" font-size="10px" fill="#000" opacity="1">DF</text><text text-anchor="end" transform="translate(-7,152.5)" font-family="sans-serif" font-size="10px" fill="#000" opacity="1">ES</text><text text-anchor="end" transform="translate(-7,172.5)" font-family="sans-serif" font-size="10px" fill="#000" opacity="1">GO</text><text text-anchor="end" transform="translate(-7,192.5)" font-family="sans-serif" font-size="10px" fill="#000" opacity="1">MA</text><text text-anchor="end" transform="translate(-7,212.5)" font-family="sans-serif" font-size="10px" fill="#000" opacity="1">MG</text><text text-anchor="end" transform="translate(-7,232.5)" font-family="sans-serif" font-size="10px" fill="#000" opacity="1">MS</text><text text-anchor="end" transform="translate(-7,252.5)" font-family="sans-serif" font-size="10px" fill="#000" opacity="1">MT</text><text text-anchor="end" transform="translate(-7,272.5)" font-family="sans-serif" font-size="10px" fill="#000" opacity="1">PA</text><text text-anchor="end" transform="translate(-7,292.5)" font-family="sans-serif" font-size="10px" fill="#000" opacity="1">PB</text><text text-anchor="end" transform="translate(-7,312.5)" font-family="sans-serif" font-size="10px" fill="#000" opacity="1">PE</text><text text-anchor="end" transform="translate(-7,332.5)" font-family="sans-serif" font-size="10px" fill="#000" opacity="1">PI</text><text text-anchor="end" transform="translate(-7,352.5)" font-family="sans-serif" font-size="10px" fill="#000" opacity="1">PR</text><text text-anchor="end" transform="translate(-7,372.5)" font-family="sans-serif" font-size="10px" fill="#000" opacity="1">RJ</text><text text-anchor="end" transform="translate(-7,392.5)" font-family="sans-serif" font-size="10px" fill="#000" opacity="1">RN</text><text text-anchor="end" transform="translate(-7,412.5)" font-family="sans-serif" font-size="10px" fill="#000" opacity="1">RO</text><text text-anchor="end" transform="translate(-7,432.5)" font-family="sans-serif" font-size="10px" fill="#000" opacity="1">RR</text><text text-anchor="end" transform="translate(-7,452.5)" font-family="sans-serif" font-size="10px" fill="#000" opacity="1">RS</text><text text-anchor="end" transform="translate(-7,472.5)" font-family="sans-serif" font-size="10px" fill="#000" opacity="1">SC</text><text text-anchor="end" transform="translate(-7,492.5)" font-family="sans-serif" font-size="10px" fill="#000" opacity="1">SE</text><text text-anchor="end" transform="translate(-7,512.5)" font-family="sans-serif" font-size="10px" fill="#000" opacity="1">SP</text><text text-anchor="end" transform="translate(-7,532.5)" font-family="sans-serif" font-size="10px" fill="#000" opacity="1">TO</text></g><g class="mark-rule role-axis-domain" pointer-events="none"><line transform="translate(0,0)" x2="0" y2="540" stroke="#888" stroke-width="1" opacity="1"></line></g><g class="mark-text role-axis-title" pointer-events="none"><text text-anchor="middle" transform="translate(-27,270) rotate(-90) translate(0,-2)" font-family="sans-serif" font-size="11px" font-weight="bold" fill="#000" opacity="1">States</text></g></g><path class="foreground" aria-hidden="true" d="" pointer-events="none" display="none"></path></g></g><g class="mark-symbol role-mark layer_0_marks" role="graphics-object" aria-roledescription="symbol mark container"><path aria-label="Instantaneous reproduction number R(t): 0.706394032942; States: CE" role="graphics-symbol" aria-roledescription="point" transform="translate(60.732035476312845,110)" d="M2.7386127875258306,0A2.7386127875258306,2.7386127875258306,0,1,1,-2.7386127875258306,0A2.7386127875258306,2.7386127875258306,0,1,1,2.7386127875258306,0" stroke="#4c78a8" stroke-width="2" opacity="0.7"></path><path aria-label="Instantaneous reproduction number R(t): 0.75572113995; States: RS" role="graphics-symbol" aria-roledescription="point" transform="translate(113.85353533093684,450)" d="M2.7386127875258306,0A2.7386127875258306,2.7386127875258306,0,1,1,-2.7386127875258306,0A2.7386127875258306,2.7386127875258306,0,1,1,2.7386127875258306,0" stroke="#4c78a8" stroke-width="2" opacity="0.7"></path><path aria-label="Instantaneous reproduction number R(t): 0.853684731186; States: AC" role="graphics-symbol" aria-roledescription="point" transform="translate(219.352787431527,10)" d="M2.7386127875258306,0A2.7386127875258306,2.7386127875258306,0,1,1,-2.7386127875258306,0A2.7386127875258306,2.7386127875258306,0,1,1,2.7386127875258306,0" stroke="#4c78a8" stroke-width="2" opacity="0.7"></path><path aria-label="Instantaneous reproduction number R(t): 0.855908071378; States: PE" role="graphics-symbol" aria-roledescription="point" transform="translate(221.74715379206802,310)" d="M2.7386127875258306,0A2.7386127875258306,2.7386127875258306,0,1,1,-2.7386127875258306,0A2.7386127875258306,2.7386127875258306,0,1,1,2.7386127875258306,0" stroke="#4c78a8" stroke-width="2" opacity="0.7"></path><path aria-label="Instantaneous reproduction number R(t): 0.864051300477; States: SC" role="graphics-symbol" aria-roledescription="point" transform="translate(230.51678512888543,470)" d="M2.7386127875258306,0A2.7386127875258306,2.7386127875258306,0,1,1,-2.7386127875258306,0A2.7386127875258306,2.7386127875258306,0,1,1,2.7386127875258306,0" stroke="#4c78a8" stroke-width="2" opacity="0.7"></path><path aria-label="Instantaneous reproduction number R(t): 0.867488382049; States: PB" role="graphics-symbol" aria-roledescription="point" transform="translate(234.2182575906944,290)" d="M2.7386127875258306,0A2.7386127875258306,2.7386127875258306,0,1,1,-2.7386127875258306,0A2.7386127875258306,2.7386127875258306,0,1,1,2.7386127875258306,0" stroke="#4c78a8" stroke-width="2" opacity="0.7"></path><path aria-label="Instantaneous reproduction number R(t): 0.879315272106; States: GO" role="graphics-symbol" aria-roledescription="point" transform="translate(246.9549084214161,170)" d="M2.7386127875258306,0A2.7386127875258306,2.7386127875258306,0,1,1,-2.7386127875258306,0A2.7386127875258306,2.7386127875258306,0,1,1,2.7386127875258306,0" stroke="#4c78a8" stroke-width="2" opacity="0.7"></path><path aria-label="Instantaneous reproduction number R(t): 0.881195549187; States: DF" role="graphics-symbol" aria-roledescription="point" transform="translate(248.9798222016429,130)" d="M2.7386127875258306,0A2.7386127875258306,2.7386127875258306,0,1,1,-2.7386127875258306,0A2.7386127875258306,2.7386127875258306,0,1,1,2.7386127875258306,0" stroke="#4c78a8" stroke-width="2" opacity="0.7"></path><path aria-label="Instantaneous reproduction number R(t): 0.886948184299; States: MA" role="graphics-symbol" aria-roledescription="point" transform="translate(255.1749677063436,190)" d="M2.7386127875258306,0A2.7386127875258306,2.7386127875258306,0,1,1,-2.7386127875258306,0A2.7386127875258306,2.7386127875258306,0,1,1,2.7386127875258306,0" stroke="#4c78a8" stroke-width="2" opacity="0.7"></path><path aria-label="Instantaneous reproduction number R(t): 0.894037391626; States: RO" role="graphics-symbol" aria-roledescription="point" transform="translate(262.80949867398584,410)" d="M2.7386127875258306,0A2.7386127875258306,2.7386127875258306,0,1,1,-2.7386127875258306,0A2.7386127875258306,2.7386127875258306,0,1,1,2.7386127875258306,0" stroke="#4c78a8" stroke-width="2" opacity="0.7"></path><path aria-label="Instantaneous reproduction number R(t): 0.895525497571; States: BA" role="graphics-symbol" aria-roledescription="point" transform="translate(264.4120743074564,90)" d="M2.7386127875258306,0A2.7386127875258306,2.7386127875258306,0,1,1,-2.7386127875258306,0A2.7386127875258306,2.7386127875258306,0,1,1,2.7386127875258306,0" stroke="#4c78a8" stroke-width="2" opacity="0.7"></path><path aria-label="Instantaneous reproduction number R(t): 0.899221332182; States: PR" role="graphics-symbol" aria-roledescription="point" transform="translate(268.3922038882598,350)" d="M2.7386127875258306,0A2.7386127875258306,2.7386127875258306,0,1,1,-2.7386127875258306,0A2.7386127875258306,2.7386127875258306,0,1,1,2.7386127875258306,0" stroke="#4c78a8" stroke-width="2" opacity="0.7"></path><path aria-label="Instantaneous reproduction number R(t): 0.909980702859; States: MS" role="graphics-symbol" aria-roledescription="point" transform="translate(279.979218463182,230)" d="M2.7386127875258306,0A2.7386127875258306,2.7386127875258306,0,1,1,-2.7386127875258306,0A2.7386127875258306,2.7386127875258306,0,1,1,2.7386127875258306,0" stroke="#4c78a8" stroke-width="2" opacity="0.7"></path><path aria-label="Instantaneous reproduction number R(t): 0.923330601223; States: RN" role="graphics-symbol" aria-roledescription="point" transform="translate(294.35603208588947,390)" d="M2.7386127875258306,0A2.7386127875258306,2.7386127875258306,0,1,1,-2.7386127875258306,0A2.7386127875258306,2.7386127875258306,0,1,1,2.7386127875258306,0" stroke="#4c78a8" stroke-width="2" opacity="0.7"></path><path aria-label="Instantaneous reproduction number R(t): 0.937341185149; States: TO" role="graphics-symbol" aria-roledescription="point" transform="translate(309.4443532376819,530)" d="M2.7386127875258306,0A2.7386127875258306,2.7386127875258306,0,1,1,-2.7386127875258306,0A2.7386127875258306,2.7386127875258306,0,1,1,2.7386127875258306,0" stroke="#4c78a8" stroke-width="2" opacity="0.7"></path><path aria-label="Instantaneous reproduction number R(t): 0.94886735264; States: SP" role="graphics-symbol" aria-roledescription="point" transform="translate(321.8571489974117,510)" d="M2.7386127875258306,0A2.7386127875258306,2.7386127875258306,0,1,1,-2.7386127875258306,0A2.7386127875258306,2.7386127875258306,0,1,1,2.7386127875258306,0" stroke="#4c78a8" stroke-width="2" opacity="0.7"></path><path aria-label="Instantaneous reproduction number R(t): 0.957566974664; States: PI" role="graphics-symbol" aria-roledescription="point" transform="translate(331.22597271466975,330)" d="M2.7386127875258306,0A2.7386127875258306,2.7386127875258306,0,1,1,-2.7386127875258306,0A2.7386127875258306,2.7386127875258306,0,1,1,2.7386127875258306,0" stroke="#4c78a8" stroke-width="2" opacity="0.7"></path><path aria-label="Instantaneous reproduction number R(t): 0.962611883914; States: MT" role="graphics-symbol" aria-roledescription="point" transform="translate(336.65895190696085,250)" d="M2.7386127875258306,0A2.7386127875258306,2.7386127875258306,0,1,1,-2.7386127875258306,0A2.7386127875258306,2.7386127875258306,0,1,1,2.7386127875258306,0" stroke="#4c78a8" stroke-width="2" opacity="0.7"></path><path aria-label="Instantaneous reproduction number R(t): 0.997391850182; States: RJ" role="graphics-symbol" aria-roledescription="point" transform="translate(374.11430019586663,370)" d="M2.7386127875258306,0A2.7386127875258306,2.7386127875258306,0,1,1,-2.7386127875258306,0A2.7386127875258306,2.7386127875258306,0,1,1,2.7386127875258306,0" stroke="#4c78a8" stroke-width="2" opacity="0.7"></path><path aria-label="Instantaneous reproduction number R(t): 1.01483854707; States: SE" role="graphics-symbol" aria-roledescription="point" transform="translate(392.9030506943043,490)" d="M2.7386127875258306,0A2.7386127875258306,2.7386127875258306,0,1,1,-2.7386127875258306,0A2.7386127875258306,2.7386127875258306,0,1,1,2.7386127875258306,0" stroke="#4c78a8" stroke-width="2" opacity="0.7"></path><path aria-label="Instantaneous reproduction number R(t): 1.02393688952; States: MG" role="graphics-symbol" aria-roledescription="point" transform="translate(402.7012656422271,210)" d="M2.7386127875258306,0A2.7386127875258306,2.7386127875258306,0,1,1,-2.7386127875258306,0A2.7386127875258306,2.7386127875258306,0,1,1,2.7386127875258306,0" stroke="#4c78a8" stroke-width="2" opacity="0.7"></path><path aria-label="Instantaneous reproduction number R(t): 1.02463127825; States: AP" role="graphics-symbol" aria-roledescription="point" transform="translate(403.4490688883837,70)" d="M2.7386127875258306,0A2.7386127875258306,2.7386127875258306,0,1,1,-2.7386127875258306,0A2.7386127875258306,2.7386127875258306,0,1,1,2.7386127875258306,0" stroke="#4c78a8" stroke-width="2" opacity="0.7"></path><path aria-label="Instantaneous reproduction number R(t): 1.02952682645; States: PA" role="graphics-symbol" aria-roledescription="point" transform="translate(408.72119771169577,270)" d="M2.7386127875258306,0A2.7386127875258306,2.7386127875258306,0,1,1,-2.7386127875258306,0A2.7386127875258306,2.7386127875258306,0,1,1,2.7386127875258306,0" stroke="#4c78a8" stroke-width="2" opacity="0.7"></path><path aria-label="Instantaneous reproduction number R(t): 1.0411481826; States: RR" role="graphics-symbol" aria-roledescription="point" transform="translate(421.2365043415421,430)" d="M2.7386127875258306,0A2.7386127875258306,2.7386127875258306,0,1,1,-2.7386127875258306,0A2.7386127875258306,2.7386127875258306,0,1,1,2.7386127875258306,0" stroke="#4c78a8" stroke-width="2" opacity="0.7"></path><path aria-label="Instantaneous reproduction number R(t): 1.06039118475; States: ES" role="graphics-symbol" aria-roledescription="point" transform="translate(441.95973742487826,150)" d="M2.7386127875258306,0A2.7386127875258306,2.7386127875258306,0,1,1,-2.7386127875258306,0A2.7386127875258306,2.7386127875258306,0,1,1,2.7386127875258306,0" stroke="#4c78a8" stroke-width="2" opacity="0.7"></path><path aria-label="Instantaneous reproduction number R(t): 1.10129561766; States: AM" role="graphics-symbol" aria-roledescription="point" transform="translate(486.0106651713073,50)" d="M2.7386127875258306,0A2.7386127875258306,2.7386127875258306,0,1,1,-2.7386127875258306,0A2.7386127875258306,2.7386127875258306,0,1,1,2.7386127875258306,0" stroke="#4c78a8" stroke-width="2" opacity="0.7"></path><path aria-label="Instantaneous reproduction number R(t): 1.17621793732; States: AL" role="graphics-symbol" aria-roledescription="point" transform="translate(566.6962401872082,30)" d="M2.7386127875258306,0A2.7386127875258306,2.7386127875258306,0,1,1,-2.7386127875258306,0A2.7386127875258306,2.7386127875258306,0,1,1,2.7386127875258306,0" stroke="#4c78a8" stroke-width="2" opacity="0.7"></path></g><g class="mark-rule role-mark layer_1_marks" role="graphics-object" aria-roledescription="rule mark container"><line aria-label="a: 1" role="graphics-symbol" aria-roledescription="rule mark" transform="translate(376.9230769230769,0)" x2="0" y2="540" stroke="black" stroke-width="0.2"></line><line aria-label="a: 1" role="graphics-symbol" aria-roledescription="rule mark" transform="translate(376.9230769230769,0)" x2="0" y2="540" stroke="black" stroke-width="0.2"></line><line aria-label="a: 1" role="graphics-symbol" aria-roledescription="rule mark" transform="translate(376.9230769230769,0)" x2="0" y2="540" stroke="black" stroke-width="0.2"></line><line aria-label="a: 1" role="graphics-symbol" aria-roledescription="rule mark" transform="translate(376.9230769230769,0)" x2="0" y2="540" stroke="black" stroke-width="0.2"></line><line aria-label="a: 1" role="graphics-symbol" aria-roledescription="rule mark" transform="translate(376.9230769230769,0)" x2="0" y2="540" stroke="black" stroke-width="0.2"></line><line aria-label="a: 1" role="graphics-symbol" aria-roledescription="rule mark" transform="translate(376.9230769230769,0)" x2="0" y2="540" stroke="black" stroke-width="0.2"></line><line aria-label="a: 1" role="graphics-symbol" aria-roledescription="rule mark" transform="translate(376.9230769230769,0)" x2="0" y2="540" stroke="black" stroke-width="0.2"></line><line aria-label="a: 1" role="graphics-symbol" aria-roledescription="rule mark" transform="translate(376.9230769230769,0)" x2="0" y2="540" stroke="black" stroke-width="0.2"></line><line aria-label="a: 1" role="graphics-symbol" aria-roledescription="rule mark" transform="translate(376.9230769230769,0)" x2="0" y2="540" stroke="black" stroke-width="0.2"></line><line aria-label="a: 1" role="graphics-symbol" aria-roledescription="rule mark" transform="translate(376.9230769230769,0)" x2="0" y2="540" stroke="black" stroke-width="0.2"></line><line aria-label="a: 1" role="graphics-symbol" aria-roledescription="rule mark" transform="translate(376.9230769230769,0)" x2="0" y2="540" stroke="black" stroke-width="0.2"></line><line aria-label="a: 1" role="graphics-symbol" aria-roledescription="rule mark" transform="translate(376.9230769230769,0)" x2="0" y2="540" stroke="black" stroke-width="0.2"></line><line aria-label="a: 1" role="graphics-symbol" aria-roledescription="rule mark" transform="translate(376.9230769230769,0)" x2="0" y2="540" stroke="black" stroke-width="0.2"></line><line aria-label="a: 1" role="graphics-symbol" aria-roledescription="rule mark" transform="translate(376.9230769230769,0)" x2="0" y2="540" stroke="black" stroke-width="0.2"></line><line aria-label="a: 1" role="graphics-symbol" aria-roledescription="rule mark" transform="translate(376.9230769230769,0)" x2="0" y2="540" stroke="black" stroke-width="0.2"></line><line aria-label="a: 1" role="graphics-symbol" aria-roledescription="rule mark" transform="translate(376.9230769230769,0)" x2="0" y2="540" stroke="black" stroke-width="0.2"></line><line aria-label="a: 1" role="graphics-symbol" aria-roledescription="rule mark" transform="translate(376.9230769230769,0)" x2="0" y2="540" stroke="black" stroke-width="0.2"></line><line aria-label="a: 1" role="graphics-symbol" aria-roledescription="rule mark" transform="translate(376.9230769230769,0)" x2="0" y2="540" stroke="black" stroke-width="0.2"></line><line aria-label="a: 1" role="graphics-symbol" aria-roledescription="rule mark" transform="translate(376.9230769230769,0)" x2="0" y2="540" stroke="black" stroke-width="0.2"></line><line aria-label="a: 1" role="graphics-symbol" aria-roledescription="rule mark" transform="translate(376.9230769230769,0)" x2="0" y2="540" stroke="black" stroke-width="0.2"></line><line aria-label="a: 1" role="graphics-symbol" aria-roledescription="rule mark" transform="translate(376.9230769230769,0)" x2="0" y2="540" stroke="black" stroke-width="0.2"></line><line aria-label="a: 1" role="graphics-symbol" aria-roledescription="rule mark" transform="translate(376.9230769230769,0)" x2="0" y2="540" stroke="black" stroke-width="0.2"></line><line aria-label="a: 1" role="graphics-symbol" aria-roledescription="rule mark" transform="translate(376.9230769230769,0)" x2="0" y2="540" stroke="black" stroke-width="0.2"></line><line aria-label="a: 1" role="graphics-symbol" aria-roledescription="rule mark" transform="translate(376.9230769230769,0)" x2="0" y2="540" stroke="black" stroke-width="0.2"></line><line aria-label="a: 1" role="graphics-symbol" aria-roledescription="rule mark" transform="translate(376.9230769230769,0)" x2="0" y2="540" stroke="black" stroke-width="0.2"></line><line aria-label="a: 1" role="graphics-symbol" aria-roledescription="rule mark" transform="translate(376.9230769230769,0)" x2="0" y2="540" stroke="black" stroke-width="0.2"></line><line aria-label="a: 1" role="graphics-symbol" aria-roledescription="rule mark" transform="translate(376.9230769230769,0)" x2="0" y2="540" stroke="black" stroke-width="0.2"></line></g><g class="mark-rule role-mark layer_2_marks" role="graphics-object" aria-roledescription="rule mark container"><line aria-label="CI 0.975: 0.660575725084; upper_Quantile.0.025(R): 0.745553463715; index: CE; Quantile.0.975(R): 0.745553463715; Quantile.0.025(R): 0.660575725084" role="graphics-symbol" aria-roledescription="errorbar" transform="translate(11.389242398170177,110)" x2="91.51448775612627" y2="0" stroke="blue" stroke-width="0.6"></line><line aria-label="CI 0.975: 0.718198053729; upper_Quantile.0.025(R): 0.801490625568; index: RS; Quantile.0.975(R): 0.801490625568; Quantile.0.025(R): 0.718198053729" role="graphics-symbol" aria-roledescription="errorbar" transform="translate(73.44405786202715,450)" x2="89.6996927499052" y2="0" stroke="blue" stroke-width="0.6"></line><line aria-label="CI 0.975: 0.791915770027; upper_Quantile.0.025(R): 0.917684783055; index: AC; Quantile.0.975(R): 0.917684783055; Quantile.0.025(R): 0.791915770027" role="graphics-symbol" aria-roledescription="errorbar" transform="translate(152.83236772131332,10)" x2="135.443552491875" y2="0" stroke="blue" stroke-width="0.6"></line><line aria-label="CI 0.975: 0.827382128829; upper_Quantile.0.025(R): 0.885710954364; index: PE; Quantile.0.975(R): 0.885710954364; Quantile.0.025(R): 0.827382128829" role="graphics-symbol" aria-roledescription="errorbar" transform="translate(191.02690797001554,310)" x2="62.81565826829316" y2="0" stroke="blue" stroke-width="0.6"></line><line aria-label="CI 0.975: 0.814709696026; upper_Quantile.0.025(R): 0.907589509248; index: SC; Quantile.0.975(R): 0.907589509248; Quantile.0.025(R): 0.814709696026" role="graphics-symbol" aria-roledescription="errorbar" transform="translate(177.37967264287138,470)" x2="100.02441423988674" y2="0" stroke="blue" stroke-width="0.6"></line><line aria-label="CI 0.975: 0.82455908651; upper_Quantile.0.025(R): 0.913201037652; index: PB; Quantile.0.975(R): 0.913201037652; Quantile.0.025(R): 0.82455908651" role="graphics-symbol" aria-roledescription="errorbar" transform="translate(187.98670854975666,290)" x2="95.46056276764944" y2="0" stroke="blue" stroke-width="0.6"></line><line aria-label="CI 0.975: 0.851328906991; upper_Quantile.0.025(R): 0.901760731801; index: GO; Quantile.0.975(R): 0.901760731801; Quantile.0.025(R): 0.851328906991" role="graphics-symbol" aria-roledescription="errorbar" transform="translate(216.8157459897897,170)" x2="54.31119595009537" y2="0" stroke="blue" stroke-width="0.6"></line><line aria-label="CI 0.975: 0.845820898809; upper_Quantile.0.025(R): 0.918156678661; index: DF; Quantile.0.975(R): 0.918156678661; Quantile.0.025(R): 0.845820898809" role="graphics-symbol" aria-roledescription="errorbar" transform="translate(210.88404487165593,130)" x2="77.90007060939462" y2="0" stroke="blue" stroke-width="0.6"></line><line aria-label="CI 0.975: 0.860121984256; upper_Quantile.0.025(R): 0.91448445963; index: MA; Quantile.0.975(R): 0.91448445963; Quantile.0.025(R): 0.860121984256" role="graphics-symbol" aria-roledescription="errorbar" transform="translate(226.28521381435033,190)" x2="58.54420424887067" y2="0" stroke="blue" stroke-width="0.6"></line><line aria-label="CI 0.975: 0.856189552129; upper_Quantile.0.025(R): 0.933477985246; index: RO; Quantile.0.975(R): 0.933477985246; Quantile.0.025(R): 0.856189552129" role="graphics-symbol" aria-roledescription="errorbar" transform="translate(222.05028690766727,410)" x2="83.23369720368606" y2="0" stroke="blue" stroke-width="0.6"></line><line aria-label="CI 0.975: 0.872474844251; upper_Quantile.0.025(R): 0.918665365307; index: BA; Quantile.0.975(R): 0.918665365307; Quantile.0.025(R): 0.872474844251" role="graphics-symbol" aria-roledescription="errorbar" transform="translate(239.58829380903984,90)" x2="49.74363806001128" y2="0" stroke="blue" stroke-width="0.6"></line><line aria-label="CI 0.975: 0.880160922436; upper_Quantile.0.025(R): 0.919646740033; index: PR; Quantile.0.975(R): 0.919646740033; Quantile.0.025(R): 0.880160922436" role="graphics-symbol" aria-roledescription="errorbar" transform="translate(247.8656087770675,350)" x2="42.52318818191344" y2="0" stroke="blue" stroke-width="0.6"></line><line aria-label="CI 0.975: 0.878171494885; upper_Quantile.0.025(R): 0.942081772419; index: MS; Quantile.0.975(R): 0.942081772419; Quantile.0.025(R): 0.878171494885" role="graphics-symbol" aria-roledescription="errorbar" transform="translate(245.72314833800556,230)" x2="68.8264527288577" y2="0" stroke="blue" stroke-width="0.6"></line><line aria-label="CI 0.975: 0.878177826168; upper_Quantile.0.025(R): 0.969771390423; index: RN; Quantile.0.975(R): 0.969771390423; Quantile.0.025(R): 0.878177826168" role="graphics-symbol" aria-roledescription="errorbar" transform="translate(245.72996664236905,390)" x2="98.6392230442313" y2="0" stroke="blue" stroke-width="0.6"></line><line aria-label="CI 0.975: 0.899451359589; upper_Quantile.0.025(R): 0.975937579966; index: TO; Quantile.0.975(R): 0.975937579966; Quantile.0.025(R): 0.899451359589" role="graphics-symbol" aria-roledescription="errorbar" transform="translate(268.6399257107598,530)" x2="82.36977579055394" y2="0" stroke="blue" stroke-width="0.6"></line><line aria-label="CI 0.975: 0.936843716817; upper_Quantile.0.025(R): 0.959857515899; index: SP; Quantile.0.975(R): 0.959857515899; Quantile.0.025(R): 0.936843716817" role="graphics-symbol" aria-roledescription="errorbar" transform="translate(308.90861811058113,510)" x2="24.784091319122865" y2="0" stroke="blue" stroke-width="0.6"></line><line aria-label="CI 0.975: 0.926486016415; upper_Quantile.0.025(R): 0.989092891205; index: PI; Quantile.0.975(R): 0.989092891205; Quantile.0.025(R): 0.926486016415" role="graphics-symbol" aria-roledescription="errorbar" transform="translate(297.7541715234718,330)" x2="67.42278823529102" y2="0" stroke="blue" stroke-width="0.6"></line><line aria-label="CI 0.975: 0.940531033538; upper_Quantile.0.025(R): 0.984968456785; index: MT; Quantile.0.975(R): 0.984968456785; Quantile.0.025(R): 0.940531033538" role="graphics-symbol" aria-roledescription="errorbar" transform="translate(312.8795745799211,250)" x2="47.8556865734854" y2="0" stroke="blue" stroke-width="0.6"></line><line aria-label="CI 0.975: 0.967445924955; upper_Quantile.0.025(R): 1.02441515097; index: RJ; Quantile.0.975(R): 1.02441515097; Quantile.0.025(R): 0.967445924955" role="graphics-symbol" aria-roledescription="errorbar" transform="translate(341.8648422588796,370)" x2="61.35147417065707" y2="0" stroke="blue" stroke-width="0.6"></line><line aria-label="CI 0.975: 0.951432714499; upper_Quantile.0.025(R): 1.08066321707; index: SE; Quantile.0.975(R): 1.08066321707; Quantile.0.025(R): 0.951432714499" role="graphics-symbol" aria-roledescription="errorbar" transform="translate(324.6198463832901,490)" x2="139.17131045947502" y2="0" stroke="blue" stroke-width="0.6"></line><line aria-label="CI 0.975: 1.0031916987; upper_Quantile.0.025(R): 1.04474299674; index: MG; Quantile.0.975(R): 1.04474299674; Quantile.0.025(R): 1.0031916987" role="graphics-symbol" aria-roledescription="errorbar" transform="translate(380.3602909075024,210)" x2="44.74755173472863" y2="0" stroke="blue" stroke-width="0.6"></line><line aria-label="CI 0.975: 0.945353934846; upper_Quantile.0.025(R): 1.10607029353; index: AP; Quantile.0.975(R): 1.10607029353; Quantile.0.025(R): 0.945353934846" role="graphics-symbol" aria-roledescription="errorbar" transform="translate(318.0734682954528,70)" x2="173.0791555065942" y2="0" stroke="blue" stroke-width="0.6"></line><line aria-label="CI 0.975: 0.979671421127; upper_Quantile.0.025(R): 1.0773199321; index: PA; Quantile.0.975(R): 1.0773199321; Quantile.0.025(R): 0.979671421127" role="graphics-symbol" aria-roledescription="errorbar" transform="translate(355.03076121412977,270)" x2="105.15993489227645" y2="0" stroke="blue" stroke-width="0.6"></line><line aria-label="CI 0.975: 0.990439023295; upper_Quantile.0.025(R): 1.09359202463; index: RR; Quantile.0.975(R): 1.09359202463; Quantile.0.025(R): 0.990439023295" role="graphics-symbol" aria-roledescription="errorbar" transform="translate(366.62664047115845,430)" x2="111.08784759270912" y2="0" stroke="blue" stroke-width="0.6"></line><line aria-label="CI 0.975: 1.02505771576; upper_Quantile.0.025(R): 1.09796167006; index: ES; Quantile.0.975(R): 1.09796167006; Quantile.0.025(R): 1.02505771576" role="graphics-symbol" aria-roledescription="errorbar" transform="translate(403.908309279643,150)" x2="78.5119507899912" y2="0" stroke="blue" stroke-width="0.6"></line><line aria-label="CI 0.975: 1.06049941475; upper_Quantile.0.025(R): 1.1440990742; index: AM; Quantile.0.975(R): 1.1440990742; Quantile.0.025(R): 1.06049941475" role="graphics-symbol" aria-roledescription="errorbar" transform="translate(442.0762928062697,50)" x2="90.03040248469637" y2="0" stroke="blue" stroke-width="0.6"></line><line aria-label="CI 0.975: 1.08664078151; upper_Quantile.0.025(R): 1.2735610433; index: AL; Quantile.0.975(R): 1.2735610433; Quantile.0.025(R): 1.08664078151" role="graphics-symbol" aria-roledescription="errorbar" transform="translate(470.22853393366427,30)" x2="201.2987434711091" y2="0" stroke="blue" stroke-width="0.6"></line></g><g class="mark-group role-title"><g transform="translate(350,-17.2)"><path class="background" aria-hidden="true" d="M0,0h0v0h0Z" pointer-events="none"></path><g><g class="mark-text role-title-text" role="graphics-symbol" aria-roledescription="title" aria-label="Title text 'Instantaneous reproduction number estimate for all states in Brazil'" pointer-events="none"><text text-anchor="middle" transform="translate(0,10)" font-family="sans-serif" font-size="13px" font-weight="bold" fill="#000" opacity="1">Instantaneous reproduction number estimate for all states in Brazil</text></g></g><path class="foreground" aria-hidden="true" d="" pointer-events="none" display="none"></path></g></g></g><path class="foreground" aria-hidden="true" d="" display="none"></path></g></g></g></svg>