<svg class="marks" width="750" height="600" viewBox="0 0 750 600" version="1.1" xmlns="http://www.w3.org/2000/svg" xmlns:xlink="http://www.w3.org/1999/xlink"><rect width="750" height="600" style="fill: white;"></rect><g transform="translate(44,23)"><g class="mark-group role-frame root"><g transform="translate(0,0)"><path class="background" d="M0.5,0.5h700v540h-700Z" style="fill: none; stroke: none;"></path><g><g class="mark-group role-axis"><g transform="translate(0.5,0.5)"><path class="background" d="M0,0h0v0h0Z" style="pointer-events: none; fill: none;"></path><g><g class="mark-rule role-axis-grid" style="pointer-events: none;"><line transform="translate(0,10)" x2="700" y2="0" style="fill: none; stroke: #ddd; stroke-width: 1; opacity: 1;"></line><line transform="translate(0,30)" x2="700" y2="0" style="fill: none; stroke: #ddd; stroke-width: 1; opacity: 1;"></line><line transform="translate(0,50)" x2="700" y2="0" style="fill: none; stroke: #ddd; stroke-width: 1; opacity: 1;"></line><line transform="translate(0,70)" x2="700" y2="0" style="fill: none; stroke: #ddd; stroke-width: 1; opacity: 1;"></line><line transform="translate(0,90)" x2="700" y2="0" style="fill: none; stroke: #ddd; stroke-width: 1; opacity: 1;"></line><line transform="translate(0,110)" x2="700" y2="0" style="fill: none; stroke: #ddd; stroke-width: 1; opacity: 1;"></line><line transform="translate(0,130)" x2="700" y2="0" style="fill: none; stroke: #ddd; stroke-width: 1; opacity: 1;"></line><line transform="translate(0,150)" x2="700" y2="0" style="fill: none; stroke: #ddd; stroke-width: 1; opacity: 1;"></line><line transform="translate(0,170)" x2="700" y2="0" style="fill: none; stroke: #ddd; stroke-width: 1; opacity: 1;"></line><line transform="translate(0,190)" x2="700" y2="0" style="fill: none; stroke: #ddd; stroke-width: 1; opacity: 1;"></line><line transform="translate(0,210)" x2="700" y2="0" style="fill: none; stroke: #ddd; stroke-width: 1; opacity: 1;"></line><line transform="translate(0,230)" x2="700" y2="0" style="fill: none; stroke: #ddd; stroke-width: 1; opacity: 1;"></line><line transform="translate(0,250)" x2="700" y2="0" style="fill: none; stroke: #ddd; stroke-width: 1; opacity: 1;"></line><line transform="translate(0,270)" x2="700" y2="0" style="fill: none; stroke: #ddd; stroke-width: 1; opacity: 1;"></line><line transform="translate(0,290)" x2="700" y2="0" style="fill: none; stroke: #ddd; stroke-width: 1; opacity: 1;"></line><line transform="translate(0,310)" x2="700" y2="0" style="fill: none; stroke: #ddd; stroke-width: 1; opacity: 1;"></line><line transform="translate(0,330)" x2="700" y2="0" style="fill: none; stroke: #ddd; stroke-width: 1; opacity: 1;"></line><line transform="translate(0,350)" x2="700" y2="0" style="fill: none; stroke: #ddd; stroke-width: 1; opacity: 1;"></line><line transform="translate(0,370)" x2="700" y2="0" style="fill: none; stroke: #ddd; stroke-width: 1; opacity: 1;"></line><line transform="translate(0,390)" x2="700" y2="0" style="fill: none; stroke: #ddd; stroke-width: 1; opacity: 1;"></line><line transform="translate(0,410)" x2="700" y2="0" style="fill: none; stroke: #ddd; stroke-width: 1; opacity: 1;"></line><line transform="translate(0,430)" x2="700" y2="0" style="fill: none; stroke: #ddd; stroke-width: 1; opacity: 1;"></line><line transform="translate(0,450)" x2="700" y2="0" style="fill: none; stroke: #ddd; stroke-width: 1; opacity: 1;"></line><line transform="translate(0,470)" x2="700" y2="0" style="fill: none; stroke: #ddd; stroke-width: 1; opacity: 1;"></line><line transform="translate(0,490)" x2="700" y2="0" style="fill: none; stroke: #ddd; stroke-width: 1; opacity: 1;"></line><line transform="translate(0,510)" x2="700" y2="0" style="fill: none; stroke: #ddd; stroke-width: 1; opacity: 1;"></line><line transform="translate(0,530)" x2="700" y2="0" style="fill: none; stroke: #ddd; stroke-width: 1; opacity: 1;"></line></g></g><path class="foreground" d="" style="pointer-events: none; display: none; fill: none;"></path></g></g><g class="mark-group role-axis"><g transform="translate(0.5,540.5)"><path class="background" d="M0,0h0v0h0Z" style="pointer-events: none; fill: none;"></path><g><g class="mark-rule role-axis-tick" style="pointer-events: none;"><line transform="translate(0,0)" x2="0" y2="5" style="fill: none; stroke: #888; stroke-width: 1; opacity: 1;"></line><line transform="translate(50,0)" x2="0" y2="5" style="fill: none; stroke: #888; stroke-width: 1; opacity: 1;"></line><line transform="translate(100,0)" x2="0" y2="5" style="fill: none; stroke: #888; stroke-width: 1; opacity: 1;"></line><line transform="translate(150,0)" x2="0" y2="5" style="fill: none; stroke: #888; stroke-width: 1; opacity: 1;"></line><line transform="translate(200,0)" x2="0" y2="5" style="fill: none; stroke: #888; stroke-width: 1; opacity: 1;"></line><line transform="translate(250,0)" x2="0" y2="5" style="fill: none; stroke: #888; stroke-width: 1; opacity: 1;"></line><line transform="translate(300,0)" x2="0" y2="5" style="fill: none; stroke: #888; stroke-width: 1; opacity: 1;"></line><line transform="translate(350,0)" x2="0" y2="5" style="fill: none; stroke: #888; stroke-width: 1; opacity: 1;"></line><line transform="translate(400,0)" x2="0" y2="5" style="fill: none; stroke: #888; stroke-width: 1; opacity: 1;"></line><line transform="translate(450,0)" x2="0" y2="5" style="fill: none; stroke: #888; stroke-width: 1; opacity: 1;"></line><line transform="translate(500,0)" x2="0" y2="5" style="fill: none; stroke: #888; stroke-width: 1; opacity: 1;"></line><line transform="translate(550,0)" x2="0" y2="5" style="fill: none; stroke: #888; stroke-width: 1; opacity: 1;"></line><line transform="translate(600,0)" x2="0" y2="5" style="fill: none; stroke: #888; stroke-width: 1; opacity: 1;"></line><line transform="translate(650,0)" x2="0" y2="5" style="fill: none; stroke: #888; stroke-width: 1; opacity: 1;"></line><line transform="translate(700,0)" x2="0" y2="5" style="fill: none; stroke: #888; stroke-width: 1; opacity: 1;"></line></g><g class="mark-text role-axis-label" style="pointer-events: none;"><text text-anchor="start" transform="translate(0,15)" style="font-family: sans-serif; font-size: 10px; fill: #000; opacity: 1;">0.4</text><text text-anchor="middle" transform="translate(49.999999999999986,15)" style="font-family: sans-serif; font-size: 10px; fill: #000; opacity: 1;">0.6</text><text text-anchor="middle" transform="translate(100,15)" style="font-family: sans-serif; font-size: 10px; fill: #000; opacity: 1;">0.8</text><text text-anchor="middle" transform="translate(149.99999999999997,15)" style="font-family: sans-serif; font-size: 10px; fill: #000; opacity: 1;">1.0</text><text text-anchor="middle" transform="translate(199.99999999999994,15)" style="font-family: sans-serif; font-size: 10px; fill: #000; opacity: 1;">1.2</text><text text-anchor="middle" transform="translate(249.99999999999997,15)" style="font-family: sans-serif; font-size: 10px; fill: #000; opacity: 1;">1.4</text><text text-anchor="middle" transform="translate(300,15)" style="font-family: sans-serif; font-size: 10px; fill: #000; opacity: 1;">1.6</text><text text-anchor="middle" transform="translate(349.99999999999994,15)" style="font-family: sans-serif; font-size: 10px; fill: #000; opacity: 1;">1.8</text><text text-anchor="middle" transform="translate(400,15)" style="font-family: sans-serif; font-size: 10px; fill: #000; opacity: 1;">2.0</text><text text-anchor="middle" transform="translate(450.00000000000006,15)" style="font-family: sans-serif; font-size: 10px; fill: #000; opacity: 1;">2.2</text><text text-anchor="middle" transform="translate(499.99999999999994,15)" style="font-family: sans-serif; font-size: 10px; fill: #000; opacity: 1;">2.4</text><text text-anchor="middle" transform="translate(550,15)" style="font-family: sans-serif; font-size: 10px; fill: #000; opacity: 1;">2.6</text><text text-anchor="middle" transform="translate(599.9999999999999,15)" style="font-family: sans-serif; font-size: 10px; fill: #000; opacity: 1;">2.8</text><text text-anchor="middle" transform="translate(650,15)" style="font-family: sans-serif; font-size: 10px; fill: #000; opacity: 1;">3.0</text><text text-anchor="end" transform="translate(700,15)" style="font-family: sans-serif; font-size: 10px; fill: #000; opacity: 1;">3.2</text></g><g class="mark-rule role-axis-domain" style="pointer-events: none;"><line transform="translate(0,0)" x2="700" y2="0" style="fill: none; stroke: #888; stroke-width: 1; opacity: 1;"></line></g><g class="mark-text role-axis-title" style="pointer-events: none;"><text text-anchor="middle" transform="translate(350,30)" style="font-family: sans-serif; font-size: 11px; font-weight: bold; fill: #000; opacity: 1;">Instantaneous reproduction number R(t), CI 0.975</text></g></g><path class="foreground" d="" style="pointer-events: none; display: none; fill: none;"></path></g></g><g class="mark-group role-axis"><g transform="translate(0.5,0.5)"><path class="background" d="M0,0h0v0h0Z" style="pointer-events: none; fill: none;"></path><g><g class="mark-rule role-axis-tick" style="pointer-events: none;"><line transform="translate(0,10)" x2="-5" y2="0" style="fill: none; stroke: #888; stroke-width: 1; opacity: 1;"></line><line transform="translate(0,30)" x2="-5" y2="0" style="fill: none; stroke: #888; stroke-width: 1; opacity: 1;"></line><line transform="translate(0,50)" x2="-5" y2="0" style="fill: none; stroke: #888; stroke-width: 1; opacity: 1;"></line><line transform="translate(0,70)" x2="-5" y2="0" style="fill: none; stroke: #888; stroke-width: 1; opacity: 1;"></line><line transform="translate(0,90)" x2="-5" y2="0" style="fill: none; stroke: #888; stroke-width: 1; opacity: 1;"></line><line transform="translate(0,110)" x2="-5" y2="0" style="fill: none; stroke: #888; stroke-width: 1; opacity: 1;"></line><line transform="translate(0,130)" x2="-5" y2="0" style="fill: none; stroke: #888; stroke-width: 1; opacity: 1;"></line><line transform="translate(0,150)" x2="-5" y2="0" style="fill: none; stroke: #888; stroke-width: 1; opacity: 1;"></line><line transform="translate(0,170)" x2="-5" y2="0" style="fill: none; stroke: #888; stroke-width: 1; opacity: 1;"></line><line transform="translate(0,190)" x2="-5" y2="0" style="fill: none; stroke: #888; stroke-width: 1; opacity: 1;"></line><line transform="translate(0,210)" x2="-5" y2="0" style="fill: none; stroke: #888; stroke-width: 1; opacity: 1;"></line><line transform="translate(0,230)" x2="-5" y2="0" style="fill: none; stroke: #888; stroke-width: 1; opacity: 1;"></line><line transform="translate(0,250)" x2="-5" y2="0" style="fill: none; stroke: #888; stroke-width: 1; opacity: 1;"></line><line transform="translate(0,270)" x2="-5" y2="0" style="fill: none; stroke: #888; stroke-width: 1; opacity: 1;"></line><line transform="translate(0,290)" x2="-5" y2="0" style="fill: none; stroke: #888; stroke-width: 1; opacity: 1;"></line><line transform="translate(0,310)" x2="-5" y2="0" style="fill: none; stroke: #888; stroke-width: 1; opacity: 1;"></line><line transform="translate(0,330)" x2="-5" y2="0" style="fill: none; stroke: #888; stroke-width: 1; opacity: 1;"></line><line transform="translate(0,350)" x2="-5" y2="0" style="fill: none; stroke: #888; stroke-width: 1; opacity: 1;"></line><line transform="translate(0,370)" x2="-5" y2="0" style="fill: none; stroke: #888; stroke-width: 1; opacity: 1;"></line><line transform="translate(0,390)" x2="-5" y2="0" style="fill: none; stroke: #888; stroke-width: 1; opacity: 1;"></line><line transform="translate(0,410)" x2="-5" y2="0" style="fill: none; stroke: #888; stroke-width: 1; opacity: 1;"></line><line transform="translate(0,430)" x2="-5" y2="0" style="fill: none; stroke: #888; stroke-width: 1; opacity: 1;"></line><line transform="translate(0,450)" x2="-5" y2="0" style="fill: none; stroke: #888; stroke-width: 1; opacity: 1;"></line><line transform="translate(0,470)" x2="-5" y2="0" style="fill: none; stroke: #888; stroke-width: 1; opacity: 1;"></line><line transform="translate(0,490)" x2="-5" y2="0" style="fill: none; stroke: #888; stroke-width: 1; opacity: 1;"></line><line transform="translate(0,510)" x2="-5" y2="0" style="fill: none; stroke: #888; stroke-width: 1; opacity: 1;"></line><line transform="translate(0,530)" x2="-5" y2="0" style="fill: none; stroke: #888; stroke-width: 1; opacity: 1;"></line></g><g class="mark-text role-axis-label" style="pointer-events: none;"><text text-anchor="end" transform="translate(-7,12.5)" style="font-family: sans-serif; font-size: 10px; fill: #000; opacity: 1;">AC</text><text text-anchor="end" transform="translate(-7,32.5)" style="font-family: sans-serif; font-size: 10px; fill: #000; opacity: 1;">AL</text><text text-anchor="end" transform="translate(-7,52.5)" style="font-family: sans-serif; font-size: 10px; fill: #000; opacity: 1;">AM</text><text text-anchor="end" transform="translate(-7,72.5)" style="font-family: sans-serif; font-size: 10px; fill: #000; opacity: 1;">AP</text><text text-anchor="end" transform="translate(-7,92.5)" style="font-family: sans-serif; font-size: 10px; fill: #000; opacity: 1;">BA</text><text text-anchor="end" transform="translate(-7,112.5)" style="font-family: sans-serif; font-size: 10px; fill: #000; opacity: 1;">CE</text><text text-anchor="end" transform="translate(-7,132.5)" style="font-family: sans-serif; font-size: 10px; fill: #000; opacity: 1;">DF</text><text text-anchor="end" transform="translate(-7,152.5)" style="font-family: sans-serif; font-size: 10px; fill: #000; opacity: 1;">ES</text><text text-anchor="end" transform="translate(-7,172.5)" style="font-family: sans-serif; font-size: 10px; fill: #000; opacity: 1;">GO</text><text text-anchor="end" transform="translate(-7,192.5)" style="font-family: sans-serif; font-size: 10px; fill: #000; opacity: 1;">MA</text><text text-anchor="end" transform="translate(-7,212.5)" style="font-family: sans-serif; font-size: 10px; fill: #000; opacity: 1;">MG</text><text text-anchor="end" transform="translate(-7,232.5)" style="font-family: sans-serif; font-size: 10px; fill: #000; opacity: 1;">MS</text><text text-anchor="end" transform="translate(-7,252.5)" style="font-family: sans-serif; font-size: 10px; fill: #000; opacity: 1;">MT</text><text text-anchor="end" transform="translate(-7,272.5)" style="font-family: sans-serif; font-size: 10px; fill: #000; opacity: 1;">PA</text><text text-anchor="end" transform="translate(-7,292.5)" style="font-family: sans-serif; font-size: 10px; fill: #000; opacity: 1;">PB</text><text text-anchor="end" transform="translate(-7,312.5)" style="font-family: sans-serif; font-size: 10px; fill: #000; opacity: 1;">PE</text><text text-anchor="end" transform="translate(-7,332.5)" style="font-family: sans-serif; font-size: 10px; fill: #000; opacity: 1;">PI</text><text text-anchor="end" transform="translate(-7,352.5)" style="font-family: sans-serif; font-size: 10px; fill: #000; opacity: 1;">PR</text><text text-anchor="end" transform="translate(-7,372.5)" style="font-family: sans-serif; font-size: 10px; fill: #000; opacity: 1;">RJ</text><text text-anchor="end" transform="translate(-7,392.5)" style="font-family: sans-serif; font-size: 10px; fill: #000; opacity: 1;">RN</text><text text-anchor="end" transform="translate(-7,412.5)" style="font-family: sans-serif; font-size: 10px; fill: #000; opacity: 1;">RO</text><text text-anchor="end" transform="translate(-7,432.5)" style="font-family: sans-serif; font-size: 10px; fill: #000; opacity: 1;">RR</text><text text-anchor="end" transform="translate(-7,452.5)" style="font-family: sans-serif; font-size: 10px; fill: #000; opacity: 1;">RS</text><text text-anchor="end" transform="translate(-7,472.5)" style="font-family: sans-serif; font-size: 10px; fill: #000; opacity: 1;">SC</text><text text-anchor="end" transform="translate(-7,492.5)" style="font-family: sans-serif; font-size: 10px; fill: #000; opacity: 1;">SE</text><text text-anchor="end" transform="translate(-7,512.5)" style="font-family: sans-serif; font-size: 10px; fill: #000; opacity: 1;">SP</text><text text-anchor="end" transform="translate(-7,532.5)" style="font-family: sans-serif; font-size: 10px; fill: #000; opacity: 1;">TO</text></g><g class="mark-rule role-axis-domain" style="pointer-events: none;"><line transform="translate(0,0)" x2="0" y2="540" style="fill: none; stroke: #888; stroke-width: 1; opacity: 1;"></line></g><g class="mark-text role-axis-title" style="pointer-events: none;"><text text-anchor="middle" transform="translate(-27.1083984375,270) rotate(-90) translate(0,-2)" style="font-family: sans-serif; font-size: 11px; font-weight: bold; fill: #000; opacity: 1;">States</text></g></g><path class="foreground" d="" style="pointer-events: none; display: none; fill: none;"></path></g></g><g class="mark-symbol role-mark layer_0_marks"><path transform="translate(93.75033362013862,390)" d="M2.7386127875258306,0A2.7386127875258306,2.7386127875258306,0,1,1,-2.7386127875258306,0A2.7386127875258306,2.7386127875258306,0,1,1,2.7386127875258306,0" style="fill: none; stroke: #4c78a8; stroke-width: 2; opacity: 0.7;"></path><path transform="translate(95.27571909887155,450)" d="M2.7386127875258306,0A2.7386127875258306,2.7386127875258306,0,1,1,-2.7386127875258306,0A2.7386127875258306,2.7386127875258306,0,1,1,2.7386127875258306,0" style="fill: none; stroke: #4c78a8; stroke-width: 2; opacity: 0.7;"></path><path transform="translate(121.41385557856154,490)" d="M2.7386127875258306,0A2.7386127875258306,2.7386127875258306,0,1,1,-2.7386127875258306,0A2.7386127875258306,2.7386127875258306,0,1,1,2.7386127875258306,0" style="fill: none; stroke: #4c78a8; stroke-width: 2; opacity: 0.7;"></path><path transform="translate(148.93883146783256,350)" d="M2.7386127875258306,0A2.7386127875258306,2.7386127875258306,0,1,1,-2.7386127875258306,0A2.7386127875258306,2.7386127875258306,0,1,1,2.7386127875258306,0" style="fill: none; stroke: #4c78a8; stroke-width: 2; opacity: 0.7;"></path><path transform="translate(149.71135171346359,250)" d="M2.7386127875258306,0A2.7386127875258306,2.7386127875258306,0,1,1,-2.7386127875258306,0A2.7386127875258306,2.7386127875258306,0,1,1,2.7386127875258306,0" style="fill: none; stroke: #4c78a8; stroke-width: 2; opacity: 0.7;"></path><path transform="translate(156.56161702730793,210)" d="M2.7386127875258306,0A2.7386127875258306,2.7386127875258306,0,1,1,-2.7386127875258306,0A2.7386127875258306,2.7386127875258306,0,1,1,2.7386127875258306,0" style="fill: none; stroke: #4c78a8; stroke-width: 2; opacity: 0.7;"></path><path transform="translate(165.69927852194462,110)" d="M2.7386127875258306,0A2.7386127875258306,2.7386127875258306,0,1,1,-2.7386127875258306,0A2.7386127875258306,2.7386127875258306,0,1,1,2.7386127875258306,0" style="fill: none; stroke: #4c78a8; stroke-width: 2; opacity: 0.7;"></path><path transform="translate(170.44083374812593,130)" d="M2.7386127875258306,0A2.7386127875258306,2.7386127875258306,0,1,1,-2.7386127875258306,0A2.7386127875258306,2.7386127875258306,0,1,1,2.7386127875258306,0" style="fill: none; stroke: #4c78a8; stroke-width: 2; opacity: 0.7;"></path><path transform="translate(172.88801841652725,30)" d="M2.7386127875258306,0A2.7386127875258306,2.7386127875258306,0,1,1,-2.7386127875258306,0A2.7386127875258306,2.7386127875258306,0,1,1,2.7386127875258306,0" style="fill: none; stroke: #4c78a8; stroke-width: 2; opacity: 0.7;"></path><path transform="translate(174.43287236213013,90)" d="M2.7386127875258306,0A2.7386127875258306,2.7386127875258306,0,1,1,-2.7386127875258306,0A2.7386127875258306,2.7386127875258306,0,1,1,2.7386127875258306,0" style="fill: none; stroke: #4c78a8; stroke-width: 2; opacity: 0.7;"></path><path transform="translate(175.91436911210673,510)" d="M2.7386127875258306,0A2.7386127875258306,2.7386127875258306,0,1,1,-2.7386127875258306,0A2.7386127875258306,2.7386127875258306,0,1,1,2.7386127875258306,0" style="fill: none; stroke: #4c78a8; stroke-width: 2; opacity: 0.7;"></path><path transform="translate(176.65372446979856,530)" d="M2.7386127875258306,0A2.7386127875258306,2.7386127875258306,0,1,1,-2.7386127875258306,0A2.7386127875258306,2.7386127875258306,0,1,1,2.7386127875258306,0" style="fill: none; stroke: #4c78a8; stroke-width: 2; opacity: 0.7;"></path><path transform="translate(224.1501934575888,50)" d="M2.7386127875258306,0A2.7386127875258306,2.7386127875258306,0,1,1,-2.7386127875258306,0A2.7386127875258306,2.7386127875258306,0,1,1,2.7386127875258306,0" style="fill: none; stroke: #4c78a8; stroke-width: 2; opacity: 0.7;"></path><path transform="translate(230.20640668202128,170)" d="M2.7386127875258306,0A2.7386127875258306,2.7386127875258306,0,1,1,-2.7386127875258306,0A2.7386127875258306,2.7386127875258306,0,1,1,2.7386127875258306,0" style="fill: none; stroke: #4c78a8; stroke-width: 2; opacity: 0.7;"></path><path transform="translate(255.6562431741178,470)" d="M2.7386127875258306,0A2.7386127875258306,2.7386127875258306,0,1,1,-2.7386127875258306,0A2.7386127875258306,2.7386127875258306,0,1,1,2.7386127875258306,0" style="fill: none; stroke: #4c78a8; stroke-width: 2; opacity: 0.7;"></path><path transform="translate(255.7343026874954,230)" d="M2.7386127875258306,0A2.7386127875258306,2.7386127875258306,0,1,1,-2.7386127875258306,0A2.7386127875258306,2.7386127875258306,0,1,1,2.7386127875258306,0" style="fill: none; stroke: #4c78a8; stroke-width: 2; opacity: 0.7;"></path><path transform="translate(257.11413565045603,430)" d="M2.7386127875258306,0A2.7386127875258306,2.7386127875258306,0,1,1,-2.7386127875258306,0A2.7386127875258306,2.7386127875258306,0,1,1,2.7386127875258306,0" style="fill: none; stroke: #4c78a8; stroke-width: 2; opacity: 0.7;"></path><path transform="translate(279.9417434398592,270)" d="M2.7386127875258306,0A2.7386127875258306,2.7386127875258306,0,1,1,-2.7386127875258306,0A2.7386127875258306,2.7386127875258306,0,1,1,2.7386127875258306,0" style="fill: none; stroke: #4c78a8; stroke-width: 2; opacity: 0.7;"></path><path transform="translate(292.6756699332082,370)" d="M2.7386127875258306,0A2.7386127875258306,2.7386127875258306,0,1,1,-2.7386127875258306,0A2.7386127875258306,2.7386127875258306,0,1,1,2.7386127875258306,0" style="fill: none; stroke: #4c78a8; stroke-width: 2; opacity: 0.7;"></path><path transform="translate(301.31666144175426,150)" d="M2.7386127875258306,0A2.7386127875258306,2.7386127875258306,0,1,1,-2.7386127875258306,0A2.7386127875258306,2.7386127875258306,0,1,1,2.7386127875258306,0" style="fill: none; stroke: #4c78a8; stroke-width: 2; opacity: 0.7;"></path><path transform="translate(332.3760338148248,190)" d="M2.7386127875258306,0A2.7386127875258306,2.7386127875258306,0,1,1,-2.7386127875258306,0A2.7386127875258306,2.7386127875258306,0,1,1,2.7386127875258306,0" style="fill: none; stroke: #4c78a8; stroke-width: 2; opacity: 0.7;"></path><path transform="translate(351.5560273383984,330)" d="M2.7386127875258306,0A2.7386127875258306,2.7386127875258306,0,1,1,-2.7386127875258306,0A2.7386127875258306,2.7386127875258306,0,1,1,2.7386127875258306,0" style="fill: none; stroke: #4c78a8; stroke-width: 2; opacity: 0.7;"></path><path transform="translate(377.81693768775034,410)" d="M2.7386127875258306,0A2.7386127875258306,2.7386127875258306,0,1,1,-2.7386127875258306,0A2.7386127875258306,2.7386127875258306,0,1,1,2.7386127875258306,0" style="fill: none; stroke: #4c78a8; stroke-width: 2; opacity: 0.7;"></path><path transform="translate(415.16857619644225,70)" d="M2.7386127875258306,0A2.7386127875258306,2.7386127875258306,0,1,1,-2.7386127875258306,0A2.7386127875258306,2.7386127875258306,0,1,1,2.7386127875258306,0" style="fill: none; stroke: #4c78a8; stroke-width: 2; opacity: 0.7;"></path><path transform="translate(435.51626999694287,10)" d="M2.7386127875258306,0A2.7386127875258306,2.7386127875258306,0,1,1,-2.7386127875258306,0A2.7386127875258306,2.7386127875258306,0,1,1,2.7386127875258306,0" style="fill: none; stroke: #4c78a8; stroke-width: 2; opacity: 0.7;"></path><path transform="translate(441.736629630651,290)" d="M2.7386127875258306,0A2.7386127875258306,2.7386127875258306,0,1,1,-2.7386127875258306,0A2.7386127875258306,2.7386127875258306,0,1,1,2.7386127875258306,0" style="fill: none; stroke: #4c78a8; stroke-width: 2; opacity: 0.7;"></path><path transform="translate(483.4985289529857,310)" d="M2.7386127875258306,0A2.7386127875258306,2.7386127875258306,0,1,1,-2.7386127875258306,0A2.7386127875258306,2.7386127875258306,0,1,1,2.7386127875258306,0" style="fill: none; stroke: #4c78a8; stroke-width: 2; opacity: 0.7;"></path></g><g class="mark-rule role-mark layer_1_marks"><line transform="translate(149.99999999999997,0)" x2="0" y2="540" style="fill: none; stroke: black; stroke-width: 0.2;"></line><line transform="translate(149.99999999999997,0)" x2="0" y2="540" style="fill: none; stroke: black; stroke-width: 0.2;"></line><line transform="translate(149.99999999999997,0)" x2="0" y2="540" style="fill: none; stroke: black; stroke-width: 0.2;"></line><line transform="translate(149.99999999999997,0)" x2="0" y2="540" style="fill: none; stroke: black; stroke-width: 0.2;"></line><line transform="translate(149.99999999999997,0)" x2="0" y2="540" style="fill: none; stroke: black; stroke-width: 0.2;"></line><line transform="translate(149.99999999999997,0)" x2="0" y2="540" style="fill: none; stroke: black; stroke-width: 0.2;"></line><line transform="translate(149.99999999999997,0)" x2="0" y2="540" style="fill: none; stroke: black; stroke-width: 0.2;"></line><line transform="translate(149.99999999999997,0)" x2="0" y2="540" style="fill: none; stroke: black; stroke-width: 0.2;"></line><line transform="translate(149.99999999999997,0)" x2="0" y2="540" style="fill: none; stroke: black; stroke-width: 0.2;"></line><line transform="translate(149.99999999999997,0)" x2="0" y2="540" style="fill: none; stroke: black; stroke-width: 0.2;"></line><line transform="translate(149.99999999999997,0)" x2="0" y2="540" style="fill: none; stroke: black; stroke-width: 0.2;"></line><line transform="translate(149.99999999999997,0)" x2="0" y2="540" style="fill: none; stroke: black; stroke-width: 0.2;"></line><line transform="translate(149.99999999999997,0)" x2="0" y2="540" style="fill: none; stroke: black; stroke-width: 0.2;"></line><line transform="translate(149.99999999999997,0)" x2="0" y2="540" style="fill: none; stroke: black; stroke-width: 0.2;"></line><line transform="translate(149.99999999999997,0)" x2="0" y2="540" style="fill: none; stroke: black; stroke-width: 0.2;"></line><line transform="translate(149.99999999999997,0)" x2="0" y2="540" style="fill: none; stroke: black; stroke-width: 0.2;"></line><line transform="translate(149.99999999999997,0)" x2="0" y2="540" style="fill: none; stroke: black; stroke-width: 0.2;"></line><line transform="translate(149.99999999999997,0)" x2="0" y2="540" style="fill: none; stroke: black; stroke-width: 0.2;"></line><line transform="translate(149.99999999999997,0)" x2="0" y2="540" style="fill: none; stroke: black; stroke-width: 0.2;"></line><line transform="translate(149.99999999999997,0)" x2="0" y2="540" style="fill: none; stroke: black; stroke-width: 0.2;"></line><line transform="translate(149.99999999999997,0)" x2="0" y2="540" style="fill: none; stroke: black; stroke-width: 0.2;"></line><line transform="translate(149.99999999999997,0)" x2="0" y2="540" style="fill: none; stroke: black; stroke-width: 0.2;"></line><line transform="translate(149.99999999999997,0)" x2="0" y2="540" style="fill: none; stroke: black; stroke-width: 0.2;"></line><line transform="translate(149.99999999999997,0)" x2="0" y2="540" style="fill: none; stroke: black; stroke-width: 0.2;"></line><line transform="translate(149.99999999999997,0)" x2="0" y2="540" style="fill: none; stroke: black; stroke-width: 0.2;"></line><line transform="translate(149.99999999999997,0)" x2="0" y2="540" style="fill: none; stroke: black; stroke-width: 0.2;"></line><line transform="translate(149.99999999999997,0)" x2="0" y2="540" style="fill: none; stroke: black; stroke-width: 0.2;"></line></g><g class="mark-rule role-mark layer_2_marks"><line transform="translate(41.45178280732914,390)" x2="119.74706315602963" y2="0" style="fill: none; stroke: blue; stroke-width: 0.6;"></line><line transform="translate(67.32572014600876,450)" x2="58.13556357948099" y2="0" style="fill: none; stroke: blue; stroke-width: 0.6;"></line><line transform="translate(19.59762797379144,490)" x2="235.25990416957248" y2="0" style="fill: none; stroke: blue; stroke-width: 0.6;"></line><line transform="translate(118.04745620261451,350)" x2="64.30862980043804" y2="0" style="fill: none; stroke: blue; stroke-width: 0.6;"></line><line transform="translate(88.68065771231582,250)" x2="131.1267794657806" y2="0" style="fill: none; stroke: blue; stroke-width: 0.6;"></line><line transform="translate(126.11020067713214,210)" x2="63.01122033908747" y2="0" style="fill: none; stroke: blue; stroke-width: 0.6;"></line><line transform="translate(139.7683833931101,110)" x2="55.00261140459722" y2="0" style="fill: none; stroke: blue; stroke-width: 0.6;"></line><line transform="translate(129.27849040094193,130)" x2="85.92489227257101" y2="0" style="fill: none; stroke: blue; stroke-width: 0.6;"></line><line transform="translate(65.98447452139385,30)" x2="242.43898705189315" y2="0" style="fill: none; stroke: blue; stroke-width: 0.6;"></line><line transform="translate(140.62484316810017,90)" x2="69.93910033628879" y2="0" style="fill: none; stroke: blue; stroke-width: 0.6;"></line><line transform="translate(159.9132912266222,510)" x2="34.29567981409426" y2="0" style="fill: none; stroke: blue; stroke-width: 0.6;"></line><line transform="translate(35.93542897134716,530)" x2="330.71856419472766" y2="0" style="fill: none; stroke: blue; stroke-width: 0.6;"></line><line transform="translate(180.65693257772452,50)" x2="97.9958854953251" y2="0" style="fill: none; stroke: blue; stroke-width: 0.6;"></line><line transform="translate(164.23280563555437,170)" x2="142.9577892831703" y2="0" style="fill: none; stroke: blue; stroke-width: 0.6;"></line><line transform="translate(191.23962073830637,470)" x2="149.42912130909906" y2="0" style="fill: none; stroke: blue; stroke-width: 0.6;"></line><line transform="translate(161.8586736487299,230)" x2="202.26565594256192" y2="0" style="fill: none; stroke: blue; stroke-width: 0.6;"></line><line transform="translate(153.97704372005978,430)" x2="225.47208183866513" y2="0" style="fill: none; stroke: blue; stroke-width: 0.6;"></line><line transform="translate(211.05356614050285,270)" x2="146.97572900382394" y2="0" style="fill: none; stroke: blue; stroke-width: 0.6;"></line><line transform="translate(253.21339715000312,370)" x2="87.17848629153787" y2="0" style="fill: none; stroke: blue; stroke-width: 0.6;"></line><line transform="translate(230.4113276233165,150)" x2="150.9959583545752" y2="0" style="fill: none; stroke: blue; stroke-width: 0.6;"></line><line transform="translate(244.6169845296998,190)" x2="190.59900123190974" y2="0" style="fill: none; stroke: blue; stroke-width: 0.6;"></line><line transform="translate(194.33238321576025,330)" x2="353.5833231035217" y2="0" style="fill: none; stroke: blue; stroke-width: 0.6;"></line><line transform="translate(203.75596983904256,410)" x2="404.97020669402684" y2="0" style="fill: none; stroke: blue; stroke-width: 0.6;"></line><line transform="translate(272.0467413754341,70)" x2="341.6648440503905" y2="0" style="fill: none; stroke: blue; stroke-width: 0.6;"></line><line transform="translate(263.37372630944566,10)" x2="401.0303175608854" y2="0" style="fill: none; stroke: blue; stroke-width: 0.6;"></line><line transform="translate(279.2520819764784,290)" x2="383.3860326100787" y2="0" style="fill: none; stroke: blue; stroke-width: 0.6;"></line><line transform="translate(342.55818511932335,310)" x2="339.92919042740397" y2="0" style="fill: none; stroke: blue; stroke-width: 0.6;"></line></g><g class="mark-group role-title"><g transform="translate(350,-17.2)"><path class="background" d="M0,0h0v0h0Z" style="pointer-events: none; fill: none;"></path><g><g class="mark-text role-title-text" style="pointer-events: none;"><text text-anchor="middle" transform="translate(0,10)" style="font-family: sans-serif; font-size: 13px; font-weight: bold; fill: #000; opacity: 1;">Instantaneous reproduction number estimate for all states in Brazil</text></g></g><path class="foreground" d="" style="pointer-events: none; display: none; fill: none;"></path></g></g></g><path class="foreground" d="" style="display: none; fill: none;"></path></g></g></g></svg>