<svg class="marks" width="749" height="600" viewBox="0 0 749 600" version="1.1" xmlns="http://www.w3.org/2000/svg" xmlns:xlink="http://www.w3.org/1999/xlink"><rect width="749" height="600" fill="white"></rect><g fill="none" stroke-miterlimit="10" transform="translate(43,23)"><g class="mark-group role-frame root" role="graphics-object" aria-roledescription="group mark container"><g transform="translate(0,0)"><path class="background" aria-hidden="true" d="M0.5,0.5h700v540h-700Z"></path><g><g class="mark-group role-axis" aria-hidden="true"><g transform="translate(0.5,0.5)"><path class="background" aria-hidden="true" d="M0,0h0v0h0Z" pointer-events="none"></path><g><g class="mark-rule role-axis-grid" pointer-events="none"><line transform="translate(0,10)" x2="700" y2="0" stroke="#ddd" stroke-width="1" opacity="1"></line><line transform="translate(0,30)" x2="700" y2="0" stroke="#ddd" stroke-width="1" opacity="1"></line><line transform="translate(0,50)" x2="700" y2="0" stroke="#ddd" stroke-width="1" opacity="1"></line><line transform="translate(0,70)" x2="700" y2="0" stroke="#ddd" stroke-width="1" opacity="1"></line><line transform="translate(0,90)" x2="700" y2="0" stroke="#ddd" stroke-width="1" opacity="1"></line><line transform="translate(0,110)" x2="700" y2="0" stroke="#ddd" stroke-width="1" opacity="1"></line><line transform="translate(0,130)" x2="700" y2="0" stroke="#ddd" stroke-width="1" opacity="1"></line><line transform="translate(0,150)" x2="700" y2="0" stroke="#ddd" stroke-width="1" opacity="1"></line><line transform="translate(0,170)" x2="700" y2="0" stroke="#ddd" stroke-width="1" opacity="1"></line><line transform="translate(0,190)" x2="700" y2="0" stroke="#ddd" stroke-width="1" opacity="1"></line><line transform="translate(0,210)" x2="700" y2="0" stroke="#ddd" stroke-width="1" opacity="1"></line><line transform="translate(0,230)" x2="700" y2="0" stroke="#ddd" stroke-width="1" opacity="1"></line><line transform="translate(0,250)" x2="700" y2="0" stroke="#ddd" stroke-width="1" opacity="1"></line><line transform="translate(0,270)" x2="700" y2="0" stroke="#ddd" stroke-width="1" opacity="1"></line><line transform="translate(0,290)" x2="700" y2="0" stroke="#ddd" stroke-width="1" opacity="1"></line><line transform="translate(0,310)" x2="700" y2="0" stroke="#ddd" stroke-width="1" opacity="1"></line><line transform="translate(0,330)" x2="700" y2="0" stroke="#ddd" stroke-width="1" opacity="1"></line><line transform="translate(0,350)" x2="700" y2="0" stroke="#ddd" stroke-width="1" opacity="1"></line><line transform="translate(0,370)" x2="700" y2="0" stroke="#ddd" stroke-width="1" opacity="1"></line><line transform="translate(0,390)" x2="700" y2="0" stroke="#ddd" stroke-width="1" opacity="1"></line><line transform="translate(0,410)" x2="700" y2="0" stroke="#ddd" stroke-width="1" opacity="1"></line><line transform="translate(0,430)" x2="700" y2="0" stroke="#ddd" stroke-width="1" opacity="1"></line><line transform="translate(0,450)" x2="700" y2="0" stroke="#ddd" stroke-width="1" opacity="1"></line><line transform="translate(0,470)" x2="700" y2="0" stroke="#ddd" stroke-width="1" opacity="1"></line><line transform="translate(0,490)" x2="700" y2="0" stroke="#ddd" stroke-width="1" opacity="1"></line><line transform="translate(0,510)" x2="700" y2="0" stroke="#ddd" stroke-width="1" opacity="1"></line><line transform="translate(0,530)" x2="700" y2="0" stroke="#ddd" stroke-width="1" opacity="1"></line></g></g><path class="foreground" aria-hidden="true" d="" pointer-events="none" display="none"></path></g></g><g class="mark-group role-axis" role="graphics-symbol" aria-roledescription="axis" aria-label="X-axis titled 'Instantaneous reproduction number R(t), CI 0.975' for a linear scale with values from 0.6 to 3.6"><g transform="translate(0.5,540.5)"><path class="background" aria-hidden="true" d="M0,0h0v0h0Z" pointer-events="none"></path><g><g class="mark-rule role-axis-tick" pointer-events="none"><line transform="translate(0,0)" x2="0" y2="5" stroke="#888" stroke-width="1" opacity="1"></line><line transform="translate(47,0)" x2="0" y2="5" stroke="#888" stroke-width="1" opacity="1"></line><line transform="translate(93,0)" x2="0" y2="5" stroke="#888" stroke-width="1" opacity="1"></line><line transform="translate(140,0)" x2="0" y2="5" stroke="#888" stroke-width="1" opacity="1"></line><line transform="translate(187,0)" x2="0" y2="5" stroke="#888" stroke-width="1" opacity="1"></line><line transform="translate(233,0)" x2="0" y2="5" stroke="#888" stroke-width="1" opacity="1"></line><line transform="translate(280,0)" x2="0" y2="5" stroke="#888" stroke-width="1" opacity="1"></line><line transform="translate(327,0)" x2="0" y2="5" stroke="#888" stroke-width="1" opacity="1"></line><line transform="translate(373,0)" x2="0" y2="5" stroke="#888" stroke-width="1" opacity="1"></line><line transform="translate(420,0)" x2="0" y2="5" stroke="#888" stroke-width="1" opacity="1"></line><line transform="translate(467,0)" x2="0" y2="5" stroke="#888" stroke-width="1" opacity="1"></line><line transform="translate(513,0)" x2="0" y2="5" stroke="#888" stroke-width="1" opacity="1"></line><line transform="translate(560,0)" x2="0" y2="5" stroke="#888" stroke-width="1" opacity="1"></line><line transform="translate(607,0)" x2="0" y2="5" stroke="#888" stroke-width="1" opacity="1"></line><line transform="translate(653,0)" x2="0" y2="5" stroke="#888" stroke-width="1" opacity="1"></line><line transform="translate(700,0)" x2="0" y2="5" stroke="#888" stroke-width="1" opacity="1"></line></g><g class="mark-text role-axis-label" pointer-events="none"><text text-anchor="start" transform="translate(0,15)" font-family="sans-serif" font-size="10px" fill="#000" opacity="1">0.6</text><text text-anchor="middle" transform="translate(46.666666666666686,15)" font-family="sans-serif" font-size="10px" fill="#000" opacity="1">0.8</text><text text-anchor="middle" transform="translate(93.33333333333333,15)" font-family="sans-serif" font-size="10px" fill="#000" opacity="1">1.0</text><text text-anchor="middle" transform="translate(140,15)" font-family="sans-serif" font-size="10px" fill="#000" opacity="1">1.2</text><text text-anchor="middle" transform="translate(186.66666666666666,15)" font-family="sans-serif" font-size="10px" fill="#000" opacity="1">1.4</text><text text-anchor="middle" transform="translate(233.33333333333331,15)" font-family="sans-serif" font-size="10px" fill="#000" opacity="1">1.6</text><text text-anchor="middle" transform="translate(280.00000000000006,15)" font-family="sans-serif" font-size="10px" fill="#000" opacity="1">1.8</text><text text-anchor="middle" transform="translate(326.66666666666663,15)" font-family="sans-serif" font-size="10px" fill="#000" opacity="1">2.0</text><text text-anchor="middle" transform="translate(373.3333333333333,15)" font-family="sans-serif" font-size="10px" fill="#000" opacity="1">2.2</text><text text-anchor="middle" transform="translate(420,15)" font-family="sans-serif" font-size="10px" fill="#000" opacity="1">2.4</text><text text-anchor="middle" transform="translate(466.66666666666663,15)" font-family="sans-serif" font-size="10px" fill="#000" opacity="1">2.6</text><text text-anchor="middle" transform="translate(513.3333333333333,15)" font-family="sans-serif" font-size="10px" fill="#000" opacity="1">2.8</text><text text-anchor="middle" transform="translate(560,15)" font-family="sans-serif" font-size="10px" fill="#000" opacity="1">3.0</text><text text-anchor="middle" transform="translate(606.6666666666667,15)" font-family="sans-serif" font-size="10px" fill="#000" opacity="1">3.2</text><text text-anchor="middle" transform="translate(653.3333333333333,15)" font-family="sans-serif" font-size="10px" fill="#000" opacity="1">3.4</text><text text-anchor="end" transform="translate(700,15)" font-family="sans-serif" font-size="10px" fill="#000" opacity="1">3.6</text></g><g class="mark-rule role-axis-domain" pointer-events="none"><line transform="translate(0,0)" x2="700" y2="0" stroke="#888" stroke-width="1" opacity="1"></line></g><g class="mark-text role-axis-title" pointer-events="none"><text text-anchor="middle" transform="translate(350,30)" font-family="sans-serif" font-size="11px" font-weight="bold" fill="#000" opacity="1">Instantaneous reproduction number R(t), CI 0.975</text></g></g><path class="foreground" aria-hidden="true" d="" pointer-events="none" display="none"></path></g></g><g class="mark-group role-axis" role="graphics-symbol" aria-roledescription="axis" aria-label="Y-axis titled 'States' for a discrete scale with 27 values: AC, AL, AM, AP, BA, ending with TO"><g transform="translate(0.5,0.5)"><path class="background" aria-hidden="true" d="M0,0h0v0h0Z" pointer-events="none"></path><g><g class="mark-rule role-axis-tick" pointer-events="none"><line transform="translate(0,10)" x2="-5" y2="0" stroke="#888" stroke-width="1" opacity="1"></line><line transform="translate(0,30)" x2="-5" y2="0" stroke="#888" stroke-width="1" opacity="1"></line><line transform="translate(0,50)" x2="-5" y2="0" stroke="#888" stroke-width="1" opacity="1"></line><line transform="translate(0,70)" x2="-5" y2="0" stroke="#888" stroke-width="1" opacity="1"></line><line transform="translate(0,90)" x2="-5" y2="0" stroke="#888" stroke-width="1" opacity="1"></line><line transform="translate(0,110)" x2="-5" y2="0" stroke="#888" stroke-width="1" opacity="1"></line><line transform="translate(0,130)" x2="-5" y2="0" stroke="#888" stroke-width="1" opacity="1"></line><line transform="translate(0,150)" x2="-5" y2="0" stroke="#888" stroke-width="1" opacity="1"></line><line transform="translate(0,170)" x2="-5" y2="0" stroke="#888" stroke-width="1" opacity="1"></line><line transform="translate(0,190)" x2="-5" y2="0" stroke="#888" stroke-width="1" opacity="1"></line><line transform="translate(0,210)" x2="-5" y2="0" stroke="#888" stroke-width="1" opacity="1"></line><line transform="translate(0,230)" x2="-5" y2="0" stroke="#888" stroke-width="1" opacity="1"></line><line transform="translate(0,250)" x2="-5" y2="0" stroke="#888" stroke-width="1" opacity="1"></line><line transform="translate(0,270)" x2="-5" y2="0" stroke="#888" stroke-width="1" opacity="1"></line><line transform="translate(0,290)" x2="-5" y2="0" stroke="#888" stroke-width="1" opacity="1"></line><line transform="translate(0,310)" x2="-5" y2="0" stroke="#888" stroke-width="1" opacity="1"></line><line transform="translate(0,330)" x2="-5" y2="0" stroke="#888" stroke-width="1" opacity="1"></line><line transform="translate(0,350)" x2="-5" y2="0" stroke="#888" stroke-width="1" opacity="1"></line><line transform="translate(0,370)" x2="-5" y2="0" stroke="#888" stroke-width="1" opacity="1"></line><line transform="translate(0,390)" x2="-5" y2="0" stroke="#888" stroke-width="1" opacity="1"></line><line transform="translate(0,410)" x2="-5" y2="0" stroke="#888" stroke-width="1" opacity="1"></line><line transform="translate(0,430)" x2="-5" y2="0" stroke="#888" stroke-width="1" opacity="1"></line><line transform="translate(0,450)" x2="-5" y2="0" stroke="#888" stroke-width="1" opacity="1"></line><line transform="translate(0,470)" x2="-5" y2="0" stroke="#888" stroke-width="1" opacity="1"></line><line transform="translate(0,490)" x2="-5" y2="0" stroke="#888" stroke-width="1" opacity="1"></line><line transform="translate(0,510)" x2="-5" y2="0" stroke="#888" stroke-width="1" opacity="1"></line><line transform="translate(0,530)" x2="-5" y2="0" stroke="#888" stroke-width="1" opacity="1"></line></g><g class="mark-text role-axis-label" pointer-events="none"><text text-anchor="end" transform="translate(-7,12.5)" font-family="sans-serif" font-size="10px" fill="#000" opacity="1">AC</text><text text-anchor="end" transform="translate(-7,32.5)" font-family="sans-serif" font-size="10px" fill="#000" opacity="1">AL</text><text text-anchor="end" transform="translate(-7,52.5)" font-family="sans-serif" font-size="10px" fill="#000" opacity="1">AM</text><text text-anchor="end" transform="translate(-7,72.5)" font-family="sans-serif" font-size="10px" fill="#000" opacity="1">AP</text><text text-anchor="end" transform="translate(-7,92.5)" font-family="sans-serif" font-size="10px" fill="#000" opacity="1">BA</text><text text-anchor="end" transform="translate(-7,112.5)" font-family="sans-serif" font-size="10px" fill="#000" opacity="1">CE</text><text text-anchor="end" transform="translate(-7,132.5)" font-family="sans-serif" font-size="10px" fill="#000" opacity="1">DF</text><text text-anchor="end" transform="translate(-7,152.5)" font-family="sans-serif" font-size="10px" fill="#000" opacity="1">ES</text><text text-anchor="end" transform="translate(-7,172.5)" font-family="sans-serif" font-size="10px" fill="#000" opacity="1">GO</text><text text-anchor="end" transform="translate(-7,192.5)" font-family="sans-serif" font-size="10px" fill="#000" opacity="1">MA</text><text text-anchor="end" transform="translate(-7,212.5)" font-family="sans-serif" font-size="10px" fill="#000" opacity="1">MG</text><text text-anchor="end" transform="translate(-7,232.5)" font-family="sans-serif" font-size="10px" fill="#000" opacity="1">MS</text><text text-anchor="end" transform="translate(-7,252.5)" font-family="sans-serif" font-size="10px" fill="#000" opacity="1">MT</text><text text-anchor="end" transform="translate(-7,272.5)" font-family="sans-serif" font-size="10px" fill="#000" opacity="1">PA</text><text text-anchor="end" transform="translate(-7,292.5)" font-family="sans-serif" font-size="10px" fill="#000" opacity="1">PB</text><text text-anchor="end" transform="translate(-7,312.5)" font-family="sans-serif" font-size="10px" fill="#000" opacity="1">PE</text><text text-anchor="end" transform="translate(-7,332.5)" font-family="sans-serif" font-size="10px" fill="#000" opacity="1">PI</text><text text-anchor="end" transform="translate(-7,352.5)" font-family="sans-serif" font-size="10px" fill="#000" opacity="1">PR</text><text text-anchor="end" transform="translate(-7,372.5)" font-family="sans-serif" font-size="10px" fill="#000" opacity="1">RJ</text><text text-anchor="end" transform="translate(-7,392.5)" font-family="sans-serif" font-size="10px" fill="#000" opacity="1">RN</text><text text-anchor="end" transform="translate(-7,412.5)" font-family="sans-serif" font-size="10px" fill="#000" opacity="1">RO</text><text text-anchor="end" transform="translate(-7,432.5)" font-family="sans-serif" font-size="10px" fill="#000" opacity="1">RR</text><text text-anchor="end" transform="translate(-7,452.5)" font-family="sans-serif" font-size="10px" fill="#000" opacity="1">RS</text><text text-anchor="end" transform="translate(-7,472.5)" font-family="sans-serif" font-size="10px" fill="#000" opacity="1">SC</text><text text-anchor="end" transform="translate(-7,492.5)" font-family="sans-serif" font-size="10px" fill="#000" opacity="1">SE</text><text text-anchor="end" transform="translate(-7,512.5)" font-family="sans-serif" font-size="10px" fill="#000" opacity="1">SP</text><text text-anchor="end" transform="translate(-7,532.5)" font-family="sans-serif" font-size="10px" fill="#000" opacity="1">TO</text></g><g class="mark-rule role-axis-domain" pointer-events="none"><line transform="translate(0,0)" x2="0" y2="540" stroke="#888" stroke-width="1" opacity="1"></line></g><g class="mark-text role-axis-title" pointer-events="none"><text text-anchor="middle" transform="translate(-27,270) rotate(-90) translate(0,-2)" font-family="sans-serif" font-size="11px" font-weight="bold" fill="#000" opacity="1">States</text></g></g><path class="foreground" aria-hidden="true" d="" pointer-events="none" display="none"></path></g></g><g class="mark-symbol role-mark layer_0_marks" role="graphics-object" aria-roledescription="symbol mark container"><path aria-label="Instantaneous reproduction number R(t): 0.823009989383; States: MA" role="graphics-symbol" aria-roledescription="point" transform="translate(52.03566418940192,190)" d="M2.7386127875258306,0A2.7386127875258306,2.7386127875258306,0,1,1,-2.7386127875258306,0A2.7386127875258306,2.7386127875258306,0,1,1,2.7386127875258306,0" stroke="#4c78a8" stroke-width="2" opacity="0.7"></path><path aria-label="Instantaneous reproduction number R(t): 0.914276189894; States: AL" role="graphics-symbol" aria-roledescription="point" transform="translate(73.33111097536157,30)" d="M2.7386127875258306,0A2.7386127875258306,2.7386127875258306,0,1,1,-2.7386127875258306,0A2.7386127875258306,2.7386127875258306,0,1,1,2.7386127875258306,0" stroke="#4c78a8" stroke-width="2" opacity="0.7"></path><path aria-label="Instantaneous reproduction number R(t): 0.91492705514; States: PB" role="graphics-symbol" aria-roledescription="point" transform="translate(73.48297953256747,290)" d="M2.7386127875258306,0A2.7386127875258306,2.7386127875258306,0,1,1,-2.7386127875258306,0A2.7386127875258306,2.7386127875258306,0,1,1,2.7386127875258306,0" stroke="#4c78a8" stroke-width="2" opacity="0.7"></path><path aria-label="Instantaneous reproduction number R(t): 0.926047977267; States: SE" role="graphics-symbol" aria-roledescription="point" transform="translate(76.07786136236608,490)" d="M2.7386127875258306,0A2.7386127875258306,2.7386127875258306,0,1,1,-2.7386127875258306,0A2.7386127875258306,2.7386127875258306,0,1,1,2.7386127875258306,0" stroke="#4c78a8" stroke-width="2" opacity="0.7"></path><path aria-label="Instantaneous reproduction number R(t): 0.937129487066; States: RJ" role="graphics-symbol" aria-roledescription="point" transform="translate(78.66354698201822,370)" d="M2.7386127875258306,0A2.7386127875258306,2.7386127875258306,0,1,1,-2.7386127875258306,0A2.7386127875258306,2.7386127875258306,0,1,1,2.7386127875258306,0" stroke="#4c78a8" stroke-width="2" opacity="0.7"></path><path aria-label="Instantaneous reproduction number R(t): 0.940954660772; States: AM" role="graphics-symbol" aria-roledescription="point" transform="translate(79.55608751350239,50)" d="M2.7386127875258306,0A2.7386127875258306,2.7386127875258306,0,1,1,-2.7386127875258306,0A2.7386127875258306,2.7386127875258306,0,1,1,2.7386127875258306,0" stroke="#4c78a8" stroke-width="2" opacity="0.7"></path><path aria-label="Instantaneous reproduction number R(t): 0.952468593472; States: PE" role="graphics-symbol" aria-roledescription="point" transform="translate(82.24267181008497,310)" d="M2.7386127875258306,0A2.7386127875258306,2.7386127875258306,0,1,1,-2.7386127875258306,0A2.7386127875258306,2.7386127875258306,0,1,1,2.7386127875258306,0" stroke="#4c78a8" stroke-width="2" opacity="0.7"></path><path aria-label="Instantaneous reproduction number R(t): 0.964159301835; States: AC" role="graphics-symbol" aria-roledescription="point" transform="translate(84.97050376152669,10)" d="M2.7386127875258306,0A2.7386127875258306,2.7386127875258306,0,1,1,-2.7386127875258306,0A2.7386127875258306,2.7386127875258306,0,1,1,2.7386127875258306,0" stroke="#4c78a8" stroke-width="2" opacity="0.7"></path><path aria-label="Instantaneous reproduction number R(t): 0.972110735259; States: CE" role="graphics-symbol" aria-roledescription="point" transform="translate(86.82583822716921,110)" d="M2.7386127875258306,0A2.7386127875258306,2.7386127875258306,0,1,1,-2.7386127875258306,0A2.7386127875258306,2.7386127875258306,0,1,1,2.7386127875258306,0" stroke="#4c78a8" stroke-width="2" opacity="0.7"></path><path aria-label="Instantaneous reproduction number R(t): 1.03224970264; States: PA" role="graphics-symbol" aria-roledescription="point" transform="translate(100.85826394853052,270)" d="M2.7386127875258306,0A2.7386127875258306,2.7386127875258306,0,1,1,-2.7386127875258306,0A2.7386127875258306,2.7386127875258306,0,1,1,2.7386127875258306,0" stroke="#4c78a8" stroke-width="2" opacity="0.7"></path><path aria-label="Instantaneous reproduction number R(t): 1.06637888604; States: ES" role="graphics-symbol" aria-roledescription="point" transform="translate(108.82174007665708,150)" d="M2.7386127875258306,0A2.7386127875258306,2.7386127875258306,0,1,1,-2.7386127875258306,0A2.7386127875258306,2.7386127875258306,0,1,1,2.7386127875258306,0" stroke="#4c78a8" stroke-width="2" opacity="0.7"></path><path aria-label="Instantaneous reproduction number R(t): 1.07548042798; States: DF" role="graphics-symbol" aria-roledescription="point" transform="translate(110.94543319428297,130)" d="M2.7386127875258306,0A2.7386127875258306,2.7386127875258306,0,1,1,-2.7386127875258306,0A2.7386127875258306,2.7386127875258306,0,1,1,2.7386127875258306,0" stroke="#4c78a8" stroke-width="2" opacity="0.7"></path><path aria-label="Instantaneous reproduction number R(t): 1.10314695209; States: GO" role="graphics-symbol" aria-roledescription="point" transform="translate(117.40095548654045,170)" d="M2.7386127875258306,0A2.7386127875258306,2.7386127875258306,0,1,1,-2.7386127875258306,0A2.7386127875258306,2.7386127875258306,0,1,1,2.7386127875258306,0" stroke="#4c78a8" stroke-width="2" opacity="0.7"></path><path aria-label="Instantaneous reproduction number R(t): 1.11657550842; States: SP" role="graphics-symbol" aria-roledescription="point" transform="translate(120.53428529830346,510)" d="M2.7386127875258306,0A2.7386127875258306,2.7386127875258306,0,1,1,-2.7386127875258306,0A2.7386127875258306,2.7386127875258306,0,1,1,2.7386127875258306,0" stroke="#4c78a8" stroke-width="2" opacity="0.7"></path><path aria-label="Instantaneous reproduction number R(t): 1.17930376502; States: AP" role="graphics-symbol" aria-roledescription="point" transform="translate(135.17087850486328,70)" d="M2.7386127875258306,0A2.7386127875258306,2.7386127875258306,0,1,1,-2.7386127875258306,0A2.7386127875258306,2.7386127875258306,0,1,1,2.7386127875258306,0" stroke="#4c78a8" stroke-width="2" opacity="0.7"></path><path aria-label="Instantaneous reproduction number R(t): 1.21141370542; States: PR" role="graphics-symbol" aria-roledescription="point" transform="translate(142.66319793075027,350)" d="M2.7386127875258306,0A2.7386127875258306,2.7386127875258306,0,1,1,-2.7386127875258306,0A2.7386127875258306,2.7386127875258306,0,1,1,2.7386127875258306,0" stroke="#4c78a8" stroke-width="2" opacity="0.7"></path><path aria-label="Instantaneous reproduction number R(t): 1.2287244757; States: TO" role="graphics-symbol" aria-roledescription="point" transform="translate(146.70237766229152,530)" d="M2.7386127875258306,0A2.7386127875258306,2.7386127875258306,0,1,1,-2.7386127875258306,0A2.7386127875258306,2.7386127875258306,0,1,1,2.7386127875258306,0" stroke="#4c78a8" stroke-width="2" opacity="0.7"></path><path aria-label="Instantaneous reproduction number R(t): 1.23465055041; States: MS" role="graphics-symbol" aria-roledescription="point" transform="translate(148.0851284293969,230)" d="M2.7386127875258306,0A2.7386127875258306,2.7386127875258306,0,1,1,-2.7386127875258306,0A2.7386127875258306,2.7386127875258306,0,1,1,2.7386127875258306,0" stroke="#4c78a8" stroke-width="2" opacity="0.7"></path><path aria-label="Instantaneous reproduction number R(t): 1.26162756238; States: RS" role="graphics-symbol" aria-roledescription="point" transform="translate(154.37976455492776,450)" d="M2.7386127875258306,0A2.7386127875258306,2.7386127875258306,0,1,1,-2.7386127875258306,0A2.7386127875258306,2.7386127875258306,0,1,1,2.7386127875258306,0" stroke="#4c78a8" stroke-width="2" opacity="0.7"></path><path aria-label="Instantaneous reproduction number R(t): 1.26403964266; States: BA" role="graphics-symbol" aria-roledescription="point" transform="translate(154.9425832884395,90)" d="M2.7386127875258306,0A2.7386127875258306,2.7386127875258306,0,1,1,-2.7386127875258306,0A2.7386127875258306,2.7386127875258306,0,1,1,2.7386127875258306,0" stroke="#4c78a8" stroke-width="2" opacity="0.7"></path><path aria-label="Instantaneous reproduction number R(t): 1.27956510489; States: MT" role="graphics-symbol" aria-roledescription="point" transform="translate(158.5651911408457,250)" d="M2.7386127875258306,0A2.7386127875258306,2.7386127875258306,0,1,1,-2.7386127875258306,0A2.7386127875258306,2.7386127875258306,0,1,1,2.7386127875258306,0" stroke="#4c78a8" stroke-width="2" opacity="0.7"></path><path aria-label="Instantaneous reproduction number R(t): 1.34737040318; States: PI" role="graphics-symbol" aria-roledescription="point" transform="translate(174.38642740933986,330)" d="M2.7386127875258306,0A2.7386127875258306,2.7386127875258306,0,1,1,-2.7386127875258306,0A2.7386127875258306,2.7386127875258306,0,1,1,2.7386127875258306,0" stroke="#4c78a8" stroke-width="2" opacity="0.7"></path><path aria-label="Instantaneous reproduction number R(t): 1.36686182108; States: RO" role="graphics-symbol" aria-roledescription="point" transform="translate(178.93442491790964,410)" d="M2.7386127875258306,0A2.7386127875258306,2.7386127875258306,0,1,1,-2.7386127875258306,0A2.7386127875258306,2.7386127875258306,0,1,1,2.7386127875258306,0" stroke="#4c78a8" stroke-width="2" opacity="0.7"></path><path aria-label="Instantaneous reproduction number R(t): 1.50797917638; States: RN" role="graphics-symbol" aria-roledescription="point" transform="translate(211.86180782270753,390)" d="M2.7386127875258306,0A2.7386127875258306,2.7386127875258306,0,1,1,-2.7386127875258306,0A2.7386127875258306,2.7386127875258306,0,1,1,2.7386127875258306,0" stroke="#4c78a8" stroke-width="2" opacity="0.7"></path><path aria-label="Instantaneous reproduction number R(t): 1.54819409738; States: SC" role="graphics-symbol" aria-roledescription="point" transform="translate(221.24528938892726,470)" d="M2.7386127875258306,0A2.7386127875258306,2.7386127875258306,0,1,1,-2.7386127875258306,0A2.7386127875258306,2.7386127875258306,0,1,1,2.7386127875258306,0" stroke="#4c78a8" stroke-width="2" opacity="0.7"></path><path aria-label="Instantaneous reproduction number R(t): 1.82397734927; States: MG" role="graphics-symbol" aria-roledescription="point" transform="translate(285.59471482984316,210)" d="M2.7386127875258306,0A2.7386127875258306,2.7386127875258306,0,1,1,-2.7386127875258306,0A2.7386127875258306,2.7386127875258306,0,1,1,2.7386127875258306,0" stroke="#4c78a8" stroke-width="2" opacity="0.7"></path><path aria-label="Instantaneous reproduction number R(t): 2.46061760483; States: RR" role="graphics-symbol" aria-roledescription="point" transform="translate(434.1441077944092,430)" d="M2.7386127875258306,0A2.7386127875258306,2.7386127875258306,0,1,1,-2.7386127875258306,0A2.7386127875258306,2.7386127875258306,0,1,1,2.7386127875258306,0" stroke="#4c78a8" stroke-width="2" opacity="0.7"></path></g><g class="mark-rule role-mark layer_1_marks" role="graphics-object" aria-roledescription="rule mark container"><line aria-label="a: 1" role="graphics-symbol" aria-roledescription="rule mark" transform="translate(93.33333333333333,0)" x2="0" y2="540" stroke="black" stroke-width="0.2"></line><line aria-label="a: 1" role="graphics-symbol" aria-roledescription="rule mark" transform="translate(93.33333333333333,0)" x2="0" y2="540" stroke="black" stroke-width="0.2"></line><line aria-label="a: 1" role="graphics-symbol" aria-roledescription="rule mark" transform="translate(93.33333333333333,0)" x2="0" y2="540" stroke="black" stroke-width="0.2"></line><line aria-label="a: 1" role="graphics-symbol" aria-roledescription="rule mark" transform="translate(93.33333333333333,0)" x2="0" y2="540" stroke="black" stroke-width="0.2"></line><line aria-label="a: 1" role="graphics-symbol" aria-roledescription="rule mark" transform="translate(93.33333333333333,0)" x2="0" y2="540" stroke="black" stroke-width="0.2"></line><line aria-label="a: 1" role="graphics-symbol" aria-roledescription="rule mark" transform="translate(93.33333333333333,0)" x2="0" y2="540" stroke="black" stroke-width="0.2"></line><line aria-label="a: 1" role="graphics-symbol" aria-roledescription="rule mark" transform="translate(93.33333333333333,0)" x2="0" y2="540" stroke="black" stroke-width="0.2"></line><line aria-label="a: 1" role="graphics-symbol" aria-roledescription="rule mark" transform="translate(93.33333333333333,0)" x2="0" y2="540" stroke="black" stroke-width="0.2"></line><line aria-label="a: 1" role="graphics-symbol" aria-roledescription="rule mark" transform="translate(93.33333333333333,0)" x2="0" y2="540" stroke="black" stroke-width="0.2"></line><line aria-label="a: 1" role="graphics-symbol" aria-roledescription="rule mark" transform="translate(93.33333333333333,0)" x2="0" y2="540" stroke="black" stroke-width="0.2"></line><line aria-label="a: 1" role="graphics-symbol" aria-roledescription="rule mark" transform="translate(93.33333333333333,0)" x2="0" y2="540" stroke="black" stroke-width="0.2"></line><line aria-label="a: 1" role="graphics-symbol" aria-roledescription="rule mark" transform="translate(93.33333333333333,0)" x2="0" y2="540" stroke="black" stroke-width="0.2"></line><line aria-label="a: 1" role="graphics-symbol" aria-roledescription="rule mark" transform="translate(93.33333333333333,0)" x2="0" y2="540" stroke="black" stroke-width="0.2"></line><line aria-label="a: 1" role="graphics-symbol" aria-roledescription="rule mark" transform="translate(93.33333333333333,0)" x2="0" y2="540" stroke="black" stroke-width="0.2"></line><line aria-label="a: 1" role="graphics-symbol" aria-roledescription="rule mark" transform="translate(93.33333333333333,0)" x2="0" y2="540" stroke="black" stroke-width="0.2"></line><line aria-label="a: 1" role="graphics-symbol" aria-roledescription="rule mark" transform="translate(93.33333333333333,0)" x2="0" y2="540" stroke="black" stroke-width="0.2"></line><line aria-label="a: 1" role="graphics-symbol" aria-roledescription="rule mark" transform="translate(93.33333333333333,0)" x2="0" y2="540" stroke="black" stroke-width="0.2"></line><line aria-label="a: 1" role="graphics-symbol" aria-roledescription="rule mark" transform="translate(93.33333333333333,0)" x2="0" y2="540" stroke="black" stroke-width="0.2"></line><line aria-label="a: 1" role="graphics-symbol" aria-roledescription="rule mark" transform="translate(93.33333333333333,0)" x2="0" y2="540" stroke="black" stroke-width="0.2"></line><line aria-label="a: 1" role="graphics-symbol" aria-roledescription="rule mark" transform="translate(93.33333333333333,0)" x2="0" y2="540" stroke="black" stroke-width="0.2"></line><line aria-label="a: 1" role="graphics-symbol" aria-roledescription="rule mark" transform="translate(93.33333333333333,0)" x2="0" y2="540" stroke="black" stroke-width="0.2"></line><line aria-label="a: 1" role="graphics-symbol" aria-roledescription="rule mark" transform="translate(93.33333333333333,0)" x2="0" y2="540" stroke="black" stroke-width="0.2"></line><line aria-label="a: 1" role="graphics-symbol" aria-roledescription="rule mark" transform="translate(93.33333333333333,0)" x2="0" y2="540" stroke="black" stroke-width="0.2"></line><line aria-label="a: 1" role="graphics-symbol" aria-roledescription="rule mark" transform="translate(93.33333333333333,0)" x2="0" y2="540" stroke="black" stroke-width="0.2"></line><line aria-label="a: 1" role="graphics-symbol" aria-roledescription="rule mark" transform="translate(93.33333333333333,0)" x2="0" y2="540" stroke="black" stroke-width="0.2"></line><line aria-label="a: 1" role="graphics-symbol" aria-roledescription="rule mark" transform="translate(93.33333333333333,0)" x2="0" y2="540" stroke="black" stroke-width="0.2"></line><line aria-label="a: 1" role="graphics-symbol" aria-roledescription="rule mark" transform="translate(93.33333333333333,0)" x2="0" y2="540" stroke="black" stroke-width="0.2"></line></g><g class="mark-rule role-mark layer_2_marks" role="graphics-object" aria-roledescription="rule mark container"><line aria-label="CI 0.975: 0.783132022241; upper_Quantile.0.025(R): 0.864576265099; index: MA; Quantile.0.975(R): 0.864576265099; Quantile.0.025(R): 0.783132022241" role="graphics-symbol" aria-roledescription="errorbar" transform="translate(42.73080518955042,190)" x2="19.003656666778404" y2="0" stroke="blue" stroke-width="0.6"></line><line aria-label="CI 0.975: 0.888812885199; upper_Quantile.0.025(R): 0.94017391084; index: AL; Quantile.0.975(R): 0.94017391084; Quantile.0.025(R): 0.888812885199" role="graphics-symbol" aria-roledescription="errorbar" transform="translate(67.389673213187,30)" x2="11.984239316230415" y2="0" stroke="blue" stroke-width="0.6"></line><line aria-label="CI 0.975: 0.891502007142; upper_Quantile.0.025(R): 0.939116283565; index: PB; Quantile.0.975(R): 0.939116283565; Quantile.0.025(R): 0.891502007142" role="graphics-symbol" aria-roledescription="errorbar" transform="translate(68.01713499988112,290)" x2="11.109997832050837" y2="0" stroke="blue" stroke-width="0.6"></line><line aria-label="CI 0.975: 0.824500454841; upper_Quantile.0.025(R): 1.01254489297; index: SE; Quantile.0.975(R): 1.01254489297; Quantile.0.025(R): 0.824500454841" role="graphics-symbol" aria-roledescription="errorbar" transform="translate(52.383439462819744,490)" x2="43.87703556442687" y2="0" stroke="blue" stroke-width="0.6"></line><line aria-label="CI 0.975: 0.899950982952; upper_Quantile.0.025(R): 0.977571941964; index: RJ; Quantile.0.975(R): 0.977571941964; Quantile.0.025(R): 0.899950982952" role="graphics-symbol" aria-roledescription="errorbar" transform="translate(69.98856268883333,370)" x2="18.111557102699848" y2="0" stroke="blue" stroke-width="0.6"></line><line aria-label="CI 0.975: 0.916976078487; upper_Quantile.0.025(R): 0.965490062001; index: AM; Quantile.0.975(R): 0.965490062001; Quantile.0.025(R): 0.916976078487" role="graphics-symbol" aria-roledescription="errorbar" transform="translate(73.96108498035636,50)" x2="11.319929486555267" y2="0" stroke="blue" stroke-width="0.6"></line><line aria-label="CI 0.975: 0.922099021618; upper_Quantile.0.025(R): 0.983190287656; index: PE; Quantile.0.975(R): 0.983190287656; Quantile.0.025(R): 0.922099021618" role="graphics-symbol" aria-roledescription="errorbar" transform="translate(75.15643837749279,310)" x2="14.254628742138607" y2="0" stroke="blue" stroke-width="0.6"></line><line aria-label="CI 0.975: 0.917503551833; upper_Quantile.0.025(R): 1.01194275688; index: AC; Quantile.0.975(R): 1.01194275688; Quantile.0.025(R): 0.917503551833" role="graphics-symbol" aria-roledescription="errorbar" transform="translate(74.08416209436474,10)" x2="22.035814510658795" y2="0" stroke="blue" stroke-width="0.6"></line><line aria-label="CI 0.975: 0.952502169659; upper_Quantile.0.025(R): 0.99058331965; index: CE; Quantile.0.975(R): 0.99058331965; Quantile.0.025(R): 0.952502169659" role="graphics-symbol" aria-roledescription="errorbar" transform="translate(82.25050625378297,110)" x2="8.88560166453594" y2="0" stroke="blue" stroke-width="0.6"></line><line aria-label="CI 0.975: 0.988214427359; upper_Quantile.0.025(R): 1.0914310404; index: PA; Quantile.0.975(R): 1.0914310404; Quantile.0.025(R): 0.988214427359" role="graphics-symbol" aria-roledescription="errorbar" transform="translate(90.58336638369192,270)" x2="24.083876375365037" y2="0" stroke="blue" stroke-width="0.6"></line><line aria-label="CI 0.975: 1.03973506679; upper_Quantile.0.025(R): 1.0947311854; index: ES; Quantile.0.975(R): 1.0947311854; Quantile.0.025(R): 1.03973506679" role="graphics-symbol" aria-roledescription="errorbar" transform="translate(102.60484891754487,150)" x2="12.83242767601351" y2="0" stroke="blue" stroke-width="0.6"></line><line aria-label="CI 0.975: 1.03822812163; upper_Quantile.0.025(R): 1.11688841518; index: DF; Quantile.0.975(R): 1.11688841518; Quantile.0.025(R): 1.03822812163" role="graphics-symbol" aria-roledescription="errorbar" transform="translate(102.25322838130145,130)" x2="18.354068494348567" y2="0" stroke="blue" stroke-width="0.6"></line><line aria-label="CI 0.975: 1.04404473999; upper_Quantile.0.025(R): 1.16332898815; index: GO; Quantile.0.975(R): 1.16332898815; Quantile.0.025(R): 1.04404473999" role="graphics-symbol" aria-roledescription="errorbar" transform="translate(103.61043933204506,170)" x2="27.83299123556783" y2="0" stroke="blue" stroke-width="0.6"></line><line aria-label="CI 0.975: 1.02926640584; upper_Quantile.0.025(R): 1.17154854346; index: SP; Quantile.0.975(R): 1.17154854346; Quantile.0.025(R): 1.02926640584" role="graphics-symbol" aria-roledescription="errorbar" transform="translate(100.16216136238774,510)" x2="33.19916544496962" y2="0" stroke="blue" stroke-width="0.6"></line><line aria-label="CI 0.975: 1.06928583004; upper_Quantile.0.025(R): 1.33280606534; index: AP; Quantile.0.975(R): 1.33280606534; Quantile.0.025(R): 1.06928583004" role="graphics-symbol" aria-roledescription="errorbar" transform="translate(109.5000270099999,70)" x2="61.48805490225173" y2="0" stroke="blue" stroke-width="0.6"></line><line aria-label="CI 0.975: 1.12120821254; upper_Quantile.0.025(R): 1.30975786652; index: PR; Quantile.0.975(R): 1.30975786652; Quantile.0.025(R): 1.12120821254" role="graphics-symbol" aria-roledescription="errorbar" transform="translate(121.61524959170657,350)" x2="43.994919262581334" y2="0" stroke="blue" stroke-width="0.6"></line><line aria-label="CI 0.975: 1.14055648315; upper_Quantile.0.025(R): 1.31955160603; index: TO; Quantile.0.975(R): 1.31955160603; Quantile.0.025(R): 1.14055648315" role="graphics-symbol" aria-roledescription="errorbar" transform="translate(126.12984606754752,530)" x2="41.765528673200535" y2="0" stroke="blue" stroke-width="0.6"></line><line aria-label="CI 0.975: 1.14312806798; upper_Quantile.0.025(R): 1.32886950364; index: MS; Quantile.0.975(R): 1.32886950364; Quantile.0.025(R): 1.14312806798" role="graphics-symbol" aria-roledescription="errorbar" transform="translate(126.7298825282411,230)" x2="43.339668321595" y2="0" stroke="blue" stroke-width="0.6"></line><line aria-label="CI 0.975: 1.18971242038; upper_Quantile.0.025(R): 1.3279284105; index: RS; Quantile.0.975(R): 1.3279284105; Quantile.0.025(R): 1.18971242038" role="graphics-symbol" aria-roledescription="errorbar" transform="translate(137.59956475460385,450)" x2="32.25039769622734" y2="0" stroke="blue" stroke-width="0.6"></line><line aria-label="CI 0.975: 1.16673108017; upper_Quantile.0.025(R): 1.3385445675; index: BA; Quantile.0.975(R): 1.3385445675; Quantile.0.025(R): 1.16673108017" role="graphics-symbol" aria-roledescription="errorbar" transform="translate(132.23725204035833,90)" x2="40.08981371002551" y2="0" stroke="blue" stroke-width="0.6"></line><line aria-label="CI 0.975: 1.17458708502; upper_Quantile.0.025(R): 1.4015323126; index: MT; Quantile.0.975(R): 1.4015323126; Quantile.0.025(R): 1.17458708502" role="graphics-symbol" aria-roledescription="errorbar" transform="translate(134.07031983915823,250)" x2="52.953886435240975" y2="0" stroke="blue" stroke-width="0.6"></line><line aria-label="CI 0.975: 1.25219863645; upper_Quantile.0.025(R): 1.44203867853; index: PI; Quantile.0.975(R): 1.44203867853; Quantile.0.025(R): 1.25219863645" role="graphics-symbol" aria-roledescription="errorbar" transform="translate(152.17968183877045,330)" x2="44.29600981827048" y2="0" stroke="blue" stroke-width="0.6"></line><line aria-label="CI 0.975: 1.27615526491; upper_Quantile.0.025(R): 1.44840323216; index: RO; Quantile.0.975(R): 1.44840323216; Quantile.0.025(R): 1.27615526491" role="graphics-symbol" aria-roledescription="errorbar" transform="translate(157.76956181254707,410)" x2="40.19119235876323" y2="0" stroke="blue" stroke-width="0.6"></line><line aria-label="CI 0.975: 1.36308459424; upper_Quantile.0.025(R): 1.66089031887; index: RN; Quantile.0.975(R): 1.66089031887; Quantile.0.025(R): 1.36308459424" role="graphics-symbol" aria-roledescription="errorbar" transform="translate(178.05307198851406,390)" x2="69.48800241559795" y2="0" stroke="blue" stroke-width="0.6"></line><line aria-label="CI 0.975: 1.32123659512; upper_Quantile.0.025(R): 1.77867303876; index: SC; Quantile.0.975(R): 1.77867303876; Quantile.0.025(R): 1.32123659512" role="graphics-symbol" aria-roledescription="errorbar" transform="translate(168.28853886203538,470)" x2="106.7351701822333" y2="0" stroke="blue" stroke-width="0.6"></line><line aria-label="CI 0.975: 1.73623792869; upper_Quantile.0.025(R): 1.94333904808; index: MG; Quantile.0.975(R): 1.94333904808; Quantile.0.025(R): 1.73623792869" role="graphics-symbol" aria-roledescription="errorbar" transform="translate(265.1221833618899,210)" x2="48.32359452402636" y2="0" stroke="blue" stroke-width="0.6"></line><line aria-label="CI 0.975: 1.77439144578; upper_Quantile.0.025(R): 3.5991772266; index: RR; Quantile.0.975(R): 3.5991772266; Quantile.0.025(R): 1.77439144578" role="graphics-symbol" aria-roledescription="errorbar" transform="translate(274.02467068227577,430)" x2="425.7833488585692" y2="0" stroke="blue" stroke-width="0.6"></line></g><g class="mark-group role-title"><g transform="translate(350,-17.2)"><path class="background" aria-hidden="true" d="M0,0h0v0h0Z" pointer-events="none"></path><g><g class="mark-text role-title-text" role="graphics-symbol" aria-roledescription="title" aria-label="Title text 'Instantaneous reproduction number estimate for all states in Brazil'" pointer-events="none"><text text-anchor="middle" transform="translate(0,10)" font-family="sans-serif" font-size="13px" font-weight="bold" fill="#000" opacity="1">Instantaneous reproduction number estimate for all states in Brazil</text></g></g><path class="foreground" aria-hidden="true" d="" pointer-events="none" display="none"></path></g></g></g><path class="foreground" aria-hidden="true" d="" display="none"></path></g></g></g></svg>