<svg class="marks" width="749" height="600" viewBox="0 0 749 600" version="1.1" xmlns="http://www.w3.org/2000/svg" xmlns:xlink="http://www.w3.org/1999/xlink"><rect width="749" height="600" fill="white"></rect><g fill="none" stroke-miterlimit="10" transform="translate(43,23)"><g class="mark-group role-frame root" role="graphics-object" aria-roledescription="group mark container"><g transform="translate(0,0)"><path class="background" aria-hidden="true" d="M0.5,0.5h700v540h-700Z"></path><g><g class="mark-group role-axis" aria-hidden="true"><g transform="translate(0.5,0.5)"><path class="background" aria-hidden="true" d="M0,0h0v0h0Z" pointer-events="none"></path><g><g class="mark-rule role-axis-grid" pointer-events="none"><line transform="translate(0,10)" x2="700" y2="0" stroke="#ddd" stroke-width="1" opacity="1"></line><line transform="translate(0,30)" x2="700" y2="0" stroke="#ddd" stroke-width="1" opacity="1"></line><line transform="translate(0,50)" x2="700" y2="0" stroke="#ddd" stroke-width="1" opacity="1"></line><line transform="translate(0,70)" x2="700" y2="0" stroke="#ddd" stroke-width="1" opacity="1"></line><line transform="translate(0,90)" x2="700" y2="0" stroke="#ddd" stroke-width="1" opacity="1"></line><line transform="translate(0,110)" x2="700" y2="0" stroke="#ddd" stroke-width="1" opacity="1"></line><line transform="translate(0,130)" x2="700" y2="0" stroke="#ddd" stroke-width="1" opacity="1"></line><line transform="translate(0,150)" x2="700" y2="0" stroke="#ddd" stroke-width="1" opacity="1"></line><line transform="translate(0,170)" x2="700" y2="0" stroke="#ddd" stroke-width="1" opacity="1"></line><line transform="translate(0,190)" x2="700" y2="0" stroke="#ddd" stroke-width="1" opacity="1"></line><line transform="translate(0,210)" x2="700" y2="0" stroke="#ddd" stroke-width="1" opacity="1"></line><line transform="translate(0,230)" x2="700" y2="0" stroke="#ddd" stroke-width="1" opacity="1"></line><line transform="translate(0,250)" x2="700" y2="0" stroke="#ddd" stroke-width="1" opacity="1"></line><line transform="translate(0,270)" x2="700" y2="0" stroke="#ddd" stroke-width="1" opacity="1"></line><line transform="translate(0,290)" x2="700" y2="0" stroke="#ddd" stroke-width="1" opacity="1"></line><line transform="translate(0,310)" x2="700" y2="0" stroke="#ddd" stroke-width="1" opacity="1"></line><line transform="translate(0,330)" x2="700" y2="0" stroke="#ddd" stroke-width="1" opacity="1"></line><line transform="translate(0,350)" x2="700" y2="0" stroke="#ddd" stroke-width="1" opacity="1"></line><line transform="translate(0,370)" x2="700" y2="0" stroke="#ddd" stroke-width="1" opacity="1"></line><line transform="translate(0,390)" x2="700" y2="0" stroke="#ddd" stroke-width="1" opacity="1"></line><line transform="translate(0,410)" x2="700" y2="0" stroke="#ddd" stroke-width="1" opacity="1"></line><line transform="translate(0,430)" x2="700" y2="0" stroke="#ddd" stroke-width="1" opacity="1"></line><line transform="translate(0,450)" x2="700" y2="0" stroke="#ddd" stroke-width="1" opacity="1"></line><line transform="translate(0,470)" x2="700" y2="0" stroke="#ddd" stroke-width="1" opacity="1"></line><line transform="translate(0,490)" x2="700" y2="0" stroke="#ddd" stroke-width="1" opacity="1"></line><line transform="translate(0,510)" x2="700" y2="0" stroke="#ddd" stroke-width="1" opacity="1"></line><line transform="translate(0,530)" x2="700" y2="0" stroke="#ddd" stroke-width="1" opacity="1"></line></g></g><path class="foreground" aria-hidden="true" d="" pointer-events="none" display="none"></path></g></g><g class="mark-group role-axis" role="graphics-symbol" aria-roledescription="axis" aria-label="X-axis titled 'Instantaneous reproduction number R(t), CI 0.975' for a linear scale with values from 0.6 to 3.4"><g transform="translate(0.5,540.5)"><path class="background" aria-hidden="true" d="M0,0h0v0h0Z" pointer-events="none"></path><g><g class="mark-rule role-axis-tick" pointer-events="none"><line transform="translate(0,0)" x2="0" y2="5" stroke="#888" stroke-width="1" opacity="1"></line><line transform="translate(50,0)" x2="0" y2="5" stroke="#888" stroke-width="1" opacity="1"></line><line transform="translate(100,0)" x2="0" y2="5" stroke="#888" stroke-width="1" opacity="1"></line><line transform="translate(150,0)" x2="0" y2="5" stroke="#888" stroke-width="1" opacity="1"></line><line transform="translate(200,0)" x2="0" y2="5" stroke="#888" stroke-width="1" opacity="1"></line><line transform="translate(250,0)" x2="0" y2="5" stroke="#888" stroke-width="1" opacity="1"></line><line transform="translate(300,0)" x2="0" y2="5" stroke="#888" stroke-width="1" opacity="1"></line><line transform="translate(350,0)" x2="0" y2="5" stroke="#888" stroke-width="1" opacity="1"></line><line transform="translate(400,0)" x2="0" y2="5" stroke="#888" stroke-width="1" opacity="1"></line><line transform="translate(450,0)" x2="0" y2="5" stroke="#888" stroke-width="1" opacity="1"></line><line transform="translate(500,0)" x2="0" y2="5" stroke="#888" stroke-width="1" opacity="1"></line><line transform="translate(550,0)" x2="0" y2="5" stroke="#888" stroke-width="1" opacity="1"></line><line transform="translate(600,0)" x2="0" y2="5" stroke="#888" stroke-width="1" opacity="1"></line><line transform="translate(650,0)" x2="0" y2="5" stroke="#888" stroke-width="1" opacity="1"></line><line transform="translate(700,0)" x2="0" y2="5" stroke="#888" stroke-width="1" opacity="1"></line></g><g class="mark-text role-axis-label" pointer-events="none"><text text-anchor="start" transform="translate(0,15)" font-family="sans-serif" font-size="10px" fill="#000" opacity="1">0.6</text><text text-anchor="middle" transform="translate(50.000000000000014,15)" font-family="sans-serif" font-size="10px" fill="#000" opacity="1">0.8</text><text text-anchor="middle" transform="translate(100.00000000000001,15)" font-family="sans-serif" font-size="10px" fill="#000" opacity="1">1.0</text><text text-anchor="middle" transform="translate(150,15)" font-family="sans-serif" font-size="10px" fill="#000" opacity="1">1.2</text><text text-anchor="middle" transform="translate(200,15)" font-family="sans-serif" font-size="10px" fill="#000" opacity="1">1.4</text><text text-anchor="middle" transform="translate(250,15)" font-family="sans-serif" font-size="10px" fill="#000" opacity="1">1.6</text><text text-anchor="middle" transform="translate(300.00000000000006,15)" font-family="sans-serif" font-size="10px" fill="#000" opacity="1">1.8</text><text text-anchor="middle" transform="translate(350,15)" font-family="sans-serif" font-size="10px" fill="#000" opacity="1">2.0</text><text text-anchor="middle" transform="translate(400.00000000000006,15)" font-family="sans-serif" font-size="10px" fill="#000" opacity="1">2.2</text><text text-anchor="middle" transform="translate(449.99999999999994,15)" font-family="sans-serif" font-size="10px" fill="#000" opacity="1">2.4</text><text text-anchor="middle" transform="translate(500,15)" font-family="sans-serif" font-size="10px" fill="#000" opacity="1">2.6</text><text text-anchor="middle" transform="translate(550,15)" font-family="sans-serif" font-size="10px" fill="#000" opacity="1">2.8</text><text text-anchor="middle" transform="translate(600,15)" font-family="sans-serif" font-size="10px" fill="#000" opacity="1">3.0</text><text text-anchor="middle" transform="translate(650.0000000000001,15)" font-family="sans-serif" font-size="10px" fill="#000" opacity="1">3.2</text><text text-anchor="end" transform="translate(700,15)" font-family="sans-serif" font-size="10px" fill="#000" opacity="1">3.4</text></g><g class="mark-rule role-axis-domain" pointer-events="none"><line transform="translate(0,0)" x2="700" y2="0" stroke="#888" stroke-width="1" opacity="1"></line></g><g class="mark-text role-axis-title" pointer-events="none"><text text-anchor="middle" transform="translate(350,30)" font-family="sans-serif" font-size="11px" font-weight="bold" fill="#000" opacity="1">Instantaneous reproduction number R(t), CI 0.975</text></g></g><path class="foreground" aria-hidden="true" d="" pointer-events="none" display="none"></path></g></g><g class="mark-group role-axis" role="graphics-symbol" aria-roledescription="axis" aria-label="Y-axis titled 'States' for a discrete scale with 27 values: AC, AL, AM, AP, BA, ending with TO"><g transform="translate(0.5,0.5)"><path class="background" aria-hidden="true" d="M0,0h0v0h0Z" pointer-events="none"></path><g><g class="mark-rule role-axis-tick" pointer-events="none"><line transform="translate(0,10)" x2="-5" y2="0" stroke="#888" stroke-width="1" opacity="1"></line><line transform="translate(0,30)" x2="-5" y2="0" stroke="#888" stroke-width="1" opacity="1"></line><line transform="translate(0,50)" x2="-5" y2="0" stroke="#888" stroke-width="1" opacity="1"></line><line transform="translate(0,70)" x2="-5" y2="0" stroke="#888" stroke-width="1" opacity="1"></line><line transform="translate(0,90)" x2="-5" y2="0" stroke="#888" stroke-width="1" opacity="1"></line><line transform="translate(0,110)" x2="-5" y2="0" stroke="#888" stroke-width="1" opacity="1"></line><line transform="translate(0,130)" x2="-5" y2="0" stroke="#888" stroke-width="1" opacity="1"></line><line transform="translate(0,150)" x2="-5" y2="0" stroke="#888" stroke-width="1" opacity="1"></line><line transform="translate(0,170)" x2="-5" y2="0" stroke="#888" stroke-width="1" opacity="1"></line><line transform="translate(0,190)" x2="-5" y2="0" stroke="#888" stroke-width="1" opacity="1"></line><line transform="translate(0,210)" x2="-5" y2="0" stroke="#888" stroke-width="1" opacity="1"></line><line transform="translate(0,230)" x2="-5" y2="0" stroke="#888" stroke-width="1" opacity="1"></line><line transform="translate(0,250)" x2="-5" y2="0" stroke="#888" stroke-width="1" opacity="1"></line><line transform="translate(0,270)" x2="-5" y2="0" stroke="#888" stroke-width="1" opacity="1"></line><line transform="translate(0,290)" x2="-5" y2="0" stroke="#888" stroke-width="1" opacity="1"></line><line transform="translate(0,310)" x2="-5" y2="0" stroke="#888" stroke-width="1" opacity="1"></line><line transform="translate(0,330)" x2="-5" y2="0" stroke="#888" stroke-width="1" opacity="1"></line><line transform="translate(0,350)" x2="-5" y2="0" stroke="#888" stroke-width="1" opacity="1"></line><line transform="translate(0,370)" x2="-5" y2="0" stroke="#888" stroke-width="1" opacity="1"></line><line transform="translate(0,390)" x2="-5" y2="0" stroke="#888" stroke-width="1" opacity="1"></line><line transform="translate(0,410)" x2="-5" y2="0" stroke="#888" stroke-width="1" opacity="1"></line><line transform="translate(0,430)" x2="-5" y2="0" stroke="#888" stroke-width="1" opacity="1"></line><line transform="translate(0,450)" x2="-5" y2="0" stroke="#888" stroke-width="1" opacity="1"></line><line transform="translate(0,470)" x2="-5" y2="0" stroke="#888" stroke-width="1" opacity="1"></line><line transform="translate(0,490)" x2="-5" y2="0" stroke="#888" stroke-width="1" opacity="1"></line><line transform="translate(0,510)" x2="-5" y2="0" stroke="#888" stroke-width="1" opacity="1"></line><line transform="translate(0,530)" x2="-5" y2="0" stroke="#888" stroke-width="1" opacity="1"></line></g><g class="mark-text role-axis-label" pointer-events="none"><text text-anchor="end" transform="translate(-7,12.5)" font-family="sans-serif" font-size="10px" fill="#000" opacity="1">AC</text><text text-anchor="end" transform="translate(-7,32.5)" font-family="sans-serif" font-size="10px" fill="#000" opacity="1">AL</text><text text-anchor="end" transform="translate(-7,52.5)" font-family="sans-serif" font-size="10px" fill="#000" opacity="1">AM</text><text text-anchor="end" transform="translate(-7,72.5)" font-family="sans-serif" font-size="10px" fill="#000" opacity="1">AP</text><text text-anchor="end" transform="translate(-7,92.5)" font-family="sans-serif" font-size="10px" fill="#000" opacity="1">BA</text><text text-anchor="end" transform="translate(-7,112.5)" font-family="sans-serif" font-size="10px" fill="#000" opacity="1">CE</text><text text-anchor="end" transform="translate(-7,132.5)" font-family="sans-serif" font-size="10px" fill="#000" opacity="1">DF</text><text text-anchor="end" transform="translate(-7,152.5)" font-family="sans-serif" font-size="10px" fill="#000" opacity="1">ES</text><text text-anchor="end" transform="translate(-7,172.5)" font-family="sans-serif" font-size="10px" fill="#000" opacity="1">GO</text><text text-anchor="end" transform="translate(-7,192.5)" font-family="sans-serif" font-size="10px" fill="#000" opacity="1">MA</text><text text-anchor="end" transform="translate(-7,212.5)" font-family="sans-serif" font-size="10px" fill="#000" opacity="1">MG</text><text text-anchor="end" transform="translate(-7,232.5)" font-family="sans-serif" font-size="10px" fill="#000" opacity="1">MS</text><text text-anchor="end" transform="translate(-7,252.5)" font-family="sans-serif" font-size="10px" fill="#000" opacity="1">MT</text><text text-anchor="end" transform="translate(-7,272.5)" font-family="sans-serif" font-size="10px" fill="#000" opacity="1">PA</text><text text-anchor="end" transform="translate(-7,292.5)" font-family="sans-serif" font-size="10px" fill="#000" opacity="1">PB</text><text text-anchor="end" transform="translate(-7,312.5)" font-family="sans-serif" font-size="10px" fill="#000" opacity="1">PE</text><text text-anchor="end" transform="translate(-7,332.5)" font-family="sans-serif" font-size="10px" fill="#000" opacity="1">PI</text><text text-anchor="end" transform="translate(-7,352.5)" font-family="sans-serif" font-size="10px" fill="#000" opacity="1">PR</text><text text-anchor="end" transform="translate(-7,372.5)" font-family="sans-serif" font-size="10px" fill="#000" opacity="1">RJ</text><text text-anchor="end" transform="translate(-7,392.5)" font-family="sans-serif" font-size="10px" fill="#000" opacity="1">RN</text><text text-anchor="end" transform="translate(-7,412.5)" font-family="sans-serif" font-size="10px" fill="#000" opacity="1">RO</text><text text-anchor="end" transform="translate(-7,432.5)" font-family="sans-serif" font-size="10px" fill="#000" opacity="1">RR</text><text text-anchor="end" transform="translate(-7,452.5)" font-family="sans-serif" font-size="10px" fill="#000" opacity="1">RS</text><text text-anchor="end" transform="translate(-7,472.5)" font-family="sans-serif" font-size="10px" fill="#000" opacity="1">SC</text><text text-anchor="end" transform="translate(-7,492.5)" font-family="sans-serif" font-size="10px" fill="#000" opacity="1">SE</text><text text-anchor="end" transform="translate(-7,512.5)" font-family="sans-serif" font-size="10px" fill="#000" opacity="1">SP</text><text text-anchor="end" transform="translate(-7,532.5)" font-family="sans-serif" font-size="10px" fill="#000" opacity="1">TO</text></g><g class="mark-rule role-axis-domain" pointer-events="none"><line transform="translate(0,0)" x2="0" y2="540" stroke="#888" stroke-width="1" opacity="1"></line></g><g class="mark-text role-axis-title" pointer-events="none"><text text-anchor="middle" transform="translate(-27,270) rotate(-90) translate(0,-2)" font-family="sans-serif" font-size="11px" font-weight="bold" fill="#000" opacity="1">States</text></g></g><path class="foreground" aria-hidden="true" d="" pointer-events="none" display="none"></path></g></g><g class="mark-symbol role-mark layer_0_marks" role="graphics-object" aria-roledescription="symbol mark container"><path aria-label="Instantaneous reproduction number R(t): 0.667358202011; States: SE" role="graphics-symbol" aria-roledescription="point" transform="translate(16.839550502691093,490)" d="M2.7386127875258306,0A2.7386127875258306,2.7386127875258306,0,1,1,-2.7386127875258306,0A2.7386127875258306,2.7386127875258306,0,1,1,2.7386127875258306,0" stroke="#4c78a8" stroke-width="2" opacity="0.7"></path><path aria-label="Instantaneous reproduction number R(t): 0.847950137922; States: MA" role="graphics-symbol" aria-roledescription="point" transform="translate(61.98753448042496,190)" d="M2.7386127875258306,0A2.7386127875258306,2.7386127875258306,0,1,1,-2.7386127875258306,0A2.7386127875258306,2.7386127875258306,0,1,1,2.7386127875258306,0" stroke="#4c78a8" stroke-width="2" opacity="0.7"></path><path aria-label="Instantaneous reproduction number R(t): 1.00646489259; States: AL" role="graphics-symbol" aria-roledescription="point" transform="translate(101.61622314820933,30)" d="M2.7386127875258306,0A2.7386127875258306,2.7386127875258306,0,1,1,-2.7386127875258306,0A2.7386127875258306,2.7386127875258306,0,1,1,2.7386127875258306,0" stroke="#4c78a8" stroke-width="2" opacity="0.7"></path><path aria-label="Instantaneous reproduction number R(t): 1.01270714435; States: SP" role="graphics-symbol" aria-roledescription="point" transform="translate(103.17678608832718,510)" d="M2.7386127875258306,0A2.7386127875258306,2.7386127875258306,0,1,1,-2.7386127875258306,0A2.7386127875258306,2.7386127875258306,0,1,1,2.7386127875258306,0" stroke="#4c78a8" stroke-width="2" opacity="0.7"></path><path aria-label="Instantaneous reproduction number R(t): 1.01589470539; States: RO" role="graphics-symbol" aria-roledescription="point" transform="translate(103.97367634799818,410)" d="M2.7386127875258306,0A2.7386127875258306,2.7386127875258306,0,1,1,-2.7386127875258306,0A2.7386127875258306,2.7386127875258306,0,1,1,2.7386127875258306,0" stroke="#4c78a8" stroke-width="2" opacity="0.7"></path><path aria-label="Instantaneous reproduction number R(t): 1.02032100346; States: ES" role="graphics-symbol" aria-roledescription="point" transform="translate(105.08025086423793,150)" d="M2.7386127875258306,0A2.7386127875258306,2.7386127875258306,0,1,1,-2.7386127875258306,0A2.7386127875258306,2.7386127875258306,0,1,1,2.7386127875258306,0" stroke="#4c78a8" stroke-width="2" opacity="0.7"></path><path aria-label="Instantaneous reproduction number R(t): 1.02196757338; States: AM" role="graphics-symbol" aria-roledescription="point" transform="translate(105.4918933450957,50)" d="M2.7386127875258306,0A2.7386127875258306,2.7386127875258306,0,1,1,-2.7386127875258306,0A2.7386127875258306,2.7386127875258306,0,1,1,2.7386127875258306,0" stroke="#4c78a8" stroke-width="2" opacity="0.7"></path><path aria-label="Instantaneous reproduction number R(t): 1.06493712933; States: AC" role="graphics-symbol" aria-roledescription="point" transform="translate(116.2342823332991,10)" d="M2.7386127875258306,0A2.7386127875258306,2.7386127875258306,0,1,1,-2.7386127875258306,0A2.7386127875258306,2.7386127875258306,0,1,1,2.7386127875258306,0" stroke="#4c78a8" stroke-width="2" opacity="0.7"></path><path aria-label="Instantaneous reproduction number R(t): 1.06661830003; States: PE" role="graphics-symbol" aria-roledescription="point" transform="translate(116.65457500661473,310)" d="M2.7386127875258306,0A2.7386127875258306,2.7386127875258306,0,1,1,-2.7386127875258306,0A2.7386127875258306,2.7386127875258306,0,1,1,2.7386127875258306,0" stroke="#4c78a8" stroke-width="2" opacity="0.7"></path><path aria-label="Instantaneous reproduction number R(t): 1.09129351748; States: PB" role="graphics-symbol" aria-roledescription="point" transform="translate(122.82337937035635,290)" d="M2.7386127875258306,0A2.7386127875258306,2.7386127875258306,0,1,1,-2.7386127875258306,0A2.7386127875258306,2.7386127875258306,0,1,1,2.7386127875258306,0" stroke="#4c78a8" stroke-width="2" opacity="0.7"></path><path aria-label="Instantaneous reproduction number R(t): 1.09547395378; States: BA" role="graphics-symbol" aria-roledescription="point" transform="translate(123.86848844620056,90)" d="M2.7386127875258306,0A2.7386127875258306,2.7386127875258306,0,1,1,-2.7386127875258306,0A2.7386127875258306,2.7386127875258306,0,1,1,2.7386127875258306,0" stroke="#4c78a8" stroke-width="2" opacity="0.7"></path><path aria-label="Instantaneous reproduction number R(t): 1.10448745585; States: GO" role="graphics-symbol" aria-roledescription="point" transform="translate(126.12186396239642,170)" d="M2.7386127875258306,0A2.7386127875258306,2.7386127875258306,0,1,1,-2.7386127875258306,0A2.7386127875258306,2.7386127875258306,0,1,1,2.7386127875258306,0" stroke="#4c78a8" stroke-width="2" opacity="0.7"></path><path aria-label="Instantaneous reproduction number R(t): 1.11152079857; States: TO" role="graphics-symbol" aria-roledescription="point" transform="translate(127.88019964158441,530)" d="M2.7386127875258306,0A2.7386127875258306,2.7386127875258306,0,1,1,-2.7386127875258306,0A2.7386127875258306,2.7386127875258306,0,1,1,2.7386127875258306,0" stroke="#4c78a8" stroke-width="2" opacity="0.7"></path><path aria-label="Instantaneous reproduction number R(t): 1.11347842687; States: RS" role="graphics-symbol" aria-roledescription="point" transform="translate(128.36960671736344,450)" d="M2.7386127875258306,0A2.7386127875258306,2.7386127875258306,0,1,1,-2.7386127875258306,0A2.7386127875258306,2.7386127875258306,0,1,1,2.7386127875258306,0" stroke="#4c78a8" stroke-width="2" opacity="0.7"></path><path aria-label="Instantaneous reproduction number R(t): 1.1205465584; States: DF" role="graphics-symbol" aria-roledescription="point" transform="translate(130.13663960101078,130)" d="M2.7386127875258306,0A2.7386127875258306,2.7386127875258306,0,1,1,-2.7386127875258306,0A2.7386127875258306,2.7386127875258306,0,1,1,2.7386127875258306,0" stroke="#4c78a8" stroke-width="2" opacity="0.7"></path><path aria-label="Instantaneous reproduction number R(t): 1.12151792564; States: CE" role="graphics-symbol" aria-roledescription="point" transform="translate(130.37948141037694,110)" d="M2.7386127875258306,0A2.7386127875258306,2.7386127875258306,0,1,1,-2.7386127875258306,0A2.7386127875258306,2.7386127875258306,0,1,1,2.7386127875258306,0" stroke="#4c78a8" stroke-width="2" opacity="0.7"></path><path aria-label="Instantaneous reproduction number R(t): 1.18623719753; States: RN" role="graphics-symbol" aria-roledescription="point" transform="translate(146.55929938338366,390)" d="M2.7386127875258306,0A2.7386127875258306,2.7386127875258306,0,1,1,-2.7386127875258306,0A2.7386127875258306,2.7386127875258306,0,1,1,2.7386127875258306,0" stroke="#4c78a8" stroke-width="2" opacity="0.7"></path><path aria-label="Instantaneous reproduction number R(t): 1.21144387835; States: RJ" role="graphics-symbol" aria-roledescription="point" transform="translate(152.86096958766313,370)" d="M2.7386127875258306,0A2.7386127875258306,2.7386127875258306,0,1,1,-2.7386127875258306,0A2.7386127875258306,2.7386127875258306,0,1,1,2.7386127875258306,0" stroke="#4c78a8" stroke-width="2" opacity="0.7"></path><path aria-label="Instantaneous reproduction number R(t): 1.22782903774; States: PA" role="graphics-symbol" aria-roledescription="point" transform="translate(156.95725943573555,270)" d="M2.7386127875258306,0A2.7386127875258306,2.7386127875258306,0,1,1,-2.7386127875258306,0A2.7386127875258306,2.7386127875258306,0,1,1,2.7386127875258306,0" stroke="#4c78a8" stroke-width="2" opacity="0.7"></path><path aria-label="Instantaneous reproduction number R(t): 1.26603290451; States: MG" role="graphics-symbol" aria-roledescription="point" transform="translate(166.50822612748107,210)" d="M2.7386127875258306,0A2.7386127875258306,2.7386127875258306,0,1,1,-2.7386127875258306,0A2.7386127875258306,2.7386127875258306,0,1,1,2.7386127875258306,0" stroke="#4c78a8" stroke-width="2" opacity="0.7"></path><path aria-label="Instantaneous reproduction number R(t): 1.2736878356; States: PI" role="graphics-symbol" aria-roledescription="point" transform="translate(168.42195889963648,330)" d="M2.7386127875258306,0A2.7386127875258306,2.7386127875258306,0,1,1,-2.7386127875258306,0A2.7386127875258306,2.7386127875258306,0,1,1,2.7386127875258306,0" stroke="#4c78a8" stroke-width="2" opacity="0.7"></path><path aria-label="Instantaneous reproduction number R(t): 1.28565062127; States: MS" role="graphics-symbol" aria-roledescription="point" transform="translate(171.4126553173309,230)" d="M2.7386127875258306,0A2.7386127875258306,2.7386127875258306,0,1,1,-2.7386127875258306,0A2.7386127875258306,2.7386127875258306,0,1,1,2.7386127875258306,0" stroke="#4c78a8" stroke-width="2" opacity="0.7"></path><path aria-label="Instantaneous reproduction number R(t): 1.34814428738; States: PR" role="graphics-symbol" aria-roledescription="point" transform="translate(187.03607184527752,350)" d="M2.7386127875258306,0A2.7386127875258306,2.7386127875258306,0,1,1,-2.7386127875258306,0A2.7386127875258306,2.7386127875258306,0,1,1,2.7386127875258306,0" stroke="#4c78a8" stroke-width="2" opacity="0.7"></path><path aria-label="Instantaneous reproduction number R(t): 1.48979183462; States: MT" role="graphics-symbol" aria-roledescription="point" transform="translate(222.44795865398459,250)" d="M2.7386127875258306,0A2.7386127875258306,2.7386127875258306,0,1,1,-2.7386127875258306,0A2.7386127875258306,2.7386127875258306,0,1,1,2.7386127875258306,0" stroke="#4c78a8" stroke-width="2" opacity="0.7"></path><path aria-label="Instantaneous reproduction number R(t): 1.54969135905; States: SC" role="graphics-symbol" aria-roledescription="point" transform="translate(237.42283976167678,470)" d="M2.7386127875258306,0A2.7386127875258306,2.7386127875258306,0,1,1,-2.7386127875258306,0A2.7386127875258306,2.7386127875258306,0,1,1,2.7386127875258306,0" stroke="#4c78a8" stroke-width="2" opacity="0.7"></path><path aria-label="Instantaneous reproduction number R(t): 1.78624143301; States: AP" role="graphics-symbol" aria-roledescription="point" transform="translate(296.56035825253304,70)" d="M2.7386127875258306,0A2.7386127875258306,2.7386127875258306,0,1,1,-2.7386127875258306,0A2.7386127875258306,2.7386127875258306,0,1,1,2.7386127875258306,0" stroke="#4c78a8" stroke-width="2" opacity="0.7"></path><path aria-label="Instantaneous reproduction number R(t): 3.01880095002; States: RR" role="graphics-symbol" aria-roledescription="point" transform="translate(604.7002375057087,430)" d="M2.7386127875258306,0A2.7386127875258306,2.7386127875258306,0,1,1,-2.7386127875258306,0A2.7386127875258306,2.7386127875258306,0,1,1,2.7386127875258306,0" stroke="#4c78a8" stroke-width="2" opacity="0.7"></path></g><g class="mark-rule role-mark layer_1_marks" role="graphics-object" aria-roledescription="rule mark container"><line aria-label="a: 1" role="graphics-symbol" aria-roledescription="rule mark" transform="translate(100.00000000000001,0)" x2="0" y2="540" stroke="black" stroke-width="0.2"></line><line aria-label="a: 1" role="graphics-symbol" aria-roledescription="rule mark" transform="translate(100.00000000000001,0)" x2="0" y2="540" stroke="black" stroke-width="0.2"></line><line aria-label="a: 1" role="graphics-symbol" aria-roledescription="rule mark" transform="translate(100.00000000000001,0)" x2="0" y2="540" stroke="black" stroke-width="0.2"></line><line aria-label="a: 1" role="graphics-symbol" aria-roledescription="rule mark" transform="translate(100.00000000000001,0)" x2="0" y2="540" stroke="black" stroke-width="0.2"></line><line aria-label="a: 1" role="graphics-symbol" aria-roledescription="rule mark" transform="translate(100.00000000000001,0)" x2="0" y2="540" stroke="black" stroke-width="0.2"></line><line aria-label="a: 1" role="graphics-symbol" aria-roledescription="rule mark" transform="translate(100.00000000000001,0)" x2="0" y2="540" stroke="black" stroke-width="0.2"></line><line aria-label="a: 1" role="graphics-symbol" aria-roledescription="rule mark" transform="translate(100.00000000000001,0)" x2="0" y2="540" stroke="black" stroke-width="0.2"></line><line aria-label="a: 1" role="graphics-symbol" aria-roledescription="rule mark" transform="translate(100.00000000000001,0)" x2="0" y2="540" stroke="black" stroke-width="0.2"></line><line aria-label="a: 1" role="graphics-symbol" aria-roledescription="rule mark" transform="translate(100.00000000000001,0)" x2="0" y2="540" stroke="black" stroke-width="0.2"></line><line aria-label="a: 1" role="graphics-symbol" aria-roledescription="rule mark" transform="translate(100.00000000000001,0)" x2="0" y2="540" stroke="black" stroke-width="0.2"></line><line aria-label="a: 1" role="graphics-symbol" aria-roledescription="rule mark" transform="translate(100.00000000000001,0)" x2="0" y2="540" stroke="black" stroke-width="0.2"></line><line aria-label="a: 1" role="graphics-symbol" aria-roledescription="rule mark" transform="translate(100.00000000000001,0)" x2="0" y2="540" stroke="black" stroke-width="0.2"></line><line aria-label="a: 1" role="graphics-symbol" aria-roledescription="rule mark" transform="translate(100.00000000000001,0)" x2="0" y2="540" stroke="black" stroke-width="0.2"></line><line aria-label="a: 1" role="graphics-symbol" aria-roledescription="rule mark" transform="translate(100.00000000000001,0)" x2="0" y2="540" stroke="black" stroke-width="0.2"></line><line aria-label="a: 1" role="graphics-symbol" aria-roledescription="rule mark" transform="translate(100.00000000000001,0)" x2="0" y2="540" stroke="black" stroke-width="0.2"></line><line aria-label="a: 1" role="graphics-symbol" aria-roledescription="rule mark" transform="translate(100.00000000000001,0)" x2="0" y2="540" stroke="black" stroke-width="0.2"></line><line aria-label="a: 1" role="graphics-symbol" aria-roledescription="rule mark" transform="translate(100.00000000000001,0)" x2="0" y2="540" stroke="black" stroke-width="0.2"></line><line aria-label="a: 1" role="graphics-symbol" aria-roledescription="rule mark" transform="translate(100.00000000000001,0)" x2="0" y2="540" stroke="black" stroke-width="0.2"></line><line aria-label="a: 1" role="graphics-symbol" aria-roledescription="rule mark" transform="translate(100.00000000000001,0)" x2="0" y2="540" stroke="black" stroke-width="0.2"></line><line aria-label="a: 1" role="graphics-symbol" aria-roledescription="rule mark" transform="translate(100.00000000000001,0)" x2="0" y2="540" stroke="black" stroke-width="0.2"></line><line aria-label="a: 1" role="graphics-symbol" aria-roledescription="rule mark" transform="translate(100.00000000000001,0)" x2="0" y2="540" stroke="black" stroke-width="0.2"></line><line aria-label="a: 1" role="graphics-symbol" aria-roledescription="rule mark" transform="translate(100.00000000000001,0)" x2="0" y2="540" stroke="black" stroke-width="0.2"></line><line aria-label="a: 1" role="graphics-symbol" aria-roledescription="rule mark" transform="translate(100.00000000000001,0)" x2="0" y2="540" stroke="black" stroke-width="0.2"></line><line aria-label="a: 1" role="graphics-symbol" aria-roledescription="rule mark" transform="translate(100.00000000000001,0)" x2="0" y2="540" stroke="black" stroke-width="0.2"></line><line aria-label="a: 1" role="graphics-symbol" aria-roledescription="rule mark" transform="translate(100.00000000000001,0)" x2="0" y2="540" stroke="black" stroke-width="0.2"></line><line aria-label="a: 1" role="graphics-symbol" aria-roledescription="rule mark" transform="translate(100.00000000000001,0)" x2="0" y2="540" stroke="black" stroke-width="0.2"></line><line aria-label="a: 1" role="graphics-symbol" aria-roledescription="rule mark" transform="translate(100.00000000000001,0)" x2="0" y2="540" stroke="black" stroke-width="0.2"></line></g><g class="mark-rule role-mark layer_2_marks" role="graphics-object" aria-roledescription="rule mark container"><line aria-label="CI 0.975: 0.60420949057; upper_Quantile.0.025(R): 0.752038728872; index: SE; Quantile.0.975(R): 0.752038728872; Quantile.0.025(R): 0.60420949057" role="graphics-symbol" aria-roledescription="errorbar" transform="translate(1.0523726425090973,490)" x2="36.95730957550398" y2="0" stroke="blue" stroke-width="0.6"></line><line aria-label="CI 0.975: 0.819116098842; upper_Quantile.0.025(R): 0.876104052386; index: MA; Quantile.0.975(R): 0.876104052386; Quantile.0.025(R): 0.819116098842" role="graphics-symbol" aria-roledescription="errorbar" transform="translate(54.77902471060789,190)" x2="14.246988385948676" y2="0" stroke="blue" stroke-width="0.6"></line><line aria-label="CI 0.975: 0.977731884421; upper_Quantile.0.025(R): 1.03729431192; index: AL; Quantile.0.975(R): 1.03729431192; Quantile.0.025(R): 0.977731884421" role="graphics-symbol" aria-roledescription="errorbar" transform="translate(94.43297110526132,30)" x2="14.89060687433701" y2="0" stroke="blue" stroke-width="0.6"></line><line aria-label="CI 0.975: 0.984397722762; upper_Quantile.0.025(R): 1.05221905153; index: SP; Quantile.0.975(R): 1.05221905153; Quantile.0.025(R): 0.984397722762" role="graphics-symbol" aria-roledescription="errorbar" transform="translate(96.0994306905207,510)" x2="16.955332191389687" y2="0" stroke="blue" stroke-width="0.6"></line><line aria-label="CI 0.975: 0.979420447874; upper_Quantile.0.025(R): 1.05385085982; index: RO; Quantile.0.975(R): 1.05385085982; Quantile.0.025(R): 0.979420447874" role="graphics-symbol" aria-roledescription="errorbar" transform="translate(94.85511196841418,410)" x2="18.6076029865512" y2="0" stroke="blue" stroke-width="0.6"></line><line aria-label="CI 0.975: 0.983914104598; upper_Quantile.0.025(R): 1.06381998919; index: ES; Quantile.0.975(R): 1.06381998919; Quantile.0.025(R): 0.983914104598" role="graphics-symbol" aria-roledescription="errorbar" transform="translate(95.97852614954886,150)" x2="19.976471147530546" y2="0" stroke="blue" stroke-width="0.6"></line><line aria-label="CI 0.975: 0.99139391325; upper_Quantile.0.025(R): 1.05273481121; index: AM; Quantile.0.975(R): 1.05273481121; Quantile.0.025(R): 0.99139391325" role="graphics-symbol" aria-roledescription="errorbar" transform="translate(97.84847831257352,50)" x2="15.33522449043106" y2="0" stroke="blue" stroke-width="0.6"></line><line aria-label="CI 0.975: 1.01152236226; upper_Quantile.0.025(R): 1.12139177823; index: AC; Quantile.0.975(R): 1.12139177823; Quantile.0.025(R): 1.01152236226" role="graphics-symbol" aria-roledescription="errorbar" transform="translate(102.8805905661264,10)" x2="27.467353992512116" y2="0" stroke="blue" stroke-width="0.6"></line><line aria-label="CI 0.975: 1.00016230613; upper_Quantile.0.025(R): 1.14320150796; index: PE; Quantile.0.975(R): 1.14320150796; Quantile.0.025(R): 1.00016230613" role="graphics-symbol" aria-roledescription="errorbar" transform="translate(100.04057653301776,310)" x2="35.759800457694055" y2="0" stroke="blue" stroke-width="0.6"></line><line aria-label="CI 0.975: 1.05192292406; upper_Quantile.0.025(R): 1.14524195195; index: PB; Quantile.0.975(R): 1.14524195195; Quantile.0.025(R): 1.05192292406" role="graphics-symbol" aria-roledescription="errorbar" transform="translate(112.98073101589571,290)" x2="23.32975697093903" y2="0" stroke="blue" stroke-width="0.6"></line><line aria-label="CI 0.975: 1.05775063645; upper_Quantile.0.025(R): 1.14749767244; index: BA; Quantile.0.975(R): 1.14749767244; Quantile.0.025(R): 1.05775063645" role="graphics-symbol" aria-roledescription="errorbar" transform="translate(114.43765911306866,90)" x2="22.436758996105823" y2="0" stroke="blue" stroke-width="0.6"></line><line aria-label="CI 0.975: 1.0030694968; upper_Quantile.0.025(R): 1.22361893393; index: GO; Quantile.0.975(R): 1.22361893393; Quantile.0.025(R): 1.0030694968" role="graphics-symbol" aria-roledescription="errorbar" transform="translate(100.76737420051721,170)" x2="55.13735928304364" y2="0" stroke="blue" stroke-width="0.6"></line><line aria-label="CI 0.975: 1.05000871817; upper_Quantile.0.025(R): 1.17571529831; index: TO; Quantile.0.975(R): 1.17571529831; Quantile.0.025(R): 1.05000871817" role="graphics-symbol" aria-roledescription="errorbar" transform="translate(112.50217954329015,530)" x2="31.426645033480426" y2="0" stroke="blue" stroke-width="0.6"></line><line aria-label="CI 0.975: 1.04485521929; upper_Quantile.0.025(R): 1.19637131427; index: RS; Quantile.0.975(R): 1.19637131427; Quantile.0.025(R): 1.04485521929" role="graphics-symbol" aria-roledescription="errorbar" transform="translate(111.2138048233727,450)" x2="37.87902374287907" y2="0" stroke="blue" stroke-width="0.6"></line><line aria-label="CI 0.975: 1.05172689942; upper_Quantile.0.025(R): 1.21027418325; index: DF; Quantile.0.975(R): 1.21027418325; Quantile.0.025(R): 1.05172689942" role="graphics-symbol" aria-roledescription="errorbar" transform="translate(112.93172485578675,130)" x2="39.63682095657744" y2="0" stroke="blue" stroke-width="0.6"></line><line aria-label="CI 0.975: 1.08577905666; upper_Quantile.0.025(R): 1.17514033767; index: CE; Quantile.0.975(R): 1.17514033767; Quantile.0.025(R): 1.08577905666" role="graphics-symbol" aria-roledescription="errorbar" transform="translate(121.44476416392217,110)" x2="22.340320253488358" y2="0" stroke="blue" stroke-width="0.6"></line><line aria-label="CI 0.975: 1.04547615975; upper_Quantile.0.025(R): 1.35337406825; index: RN; Quantile.0.975(R): 1.35337406825; Quantile.0.025(R): 1.04547615975" role="graphics-symbol" aria-roledescription="errorbar" transform="translate(111.36903993766482,390)" x2="76.97447712411766" y2="0" stroke="blue" stroke-width="0.6"></line><line aria-label="CI 0.975: 1.13185363742; upper_Quantile.0.025(R): 1.32436115532; index: RJ; Quantile.0.975(R): 1.32436115532; Quantile.0.025(R): 1.13185363742" role="graphics-symbol" aria-roledescription="errorbar" transform="translate(132.96340935550504,370)" x2="48.12687947443533" y2="0" stroke="blue" stroke-width="0.6"></line><line aria-label="CI 0.975: 1.15163487465; upper_Quantile.0.025(R): 1.30877842589; index: PA; Quantile.0.975(R): 1.30877842589; Quantile.0.025(R): 1.15163487465" role="graphics-symbol" aria-roledescription="errorbar" transform="translate(137.9087186622651,270)" x2="39.285887809122585" y2="0" stroke="blue" stroke-width="0.6"></line><line aria-label="CI 0.975: 1.21708314898; upper_Quantile.0.025(R): 1.31039171119; index: MG; Quantile.0.975(R): 1.31039171119; Quantile.0.025(R): 1.21708314898" role="graphics-symbol" aria-roledescription="errorbar" transform="translate(154.27078724498054,210)" x2="23.327140551386492" y2="0" stroke="blue" stroke-width="0.6"></line><line aria-label="CI 0.975: 1.18067295488; upper_Quantile.0.025(R): 1.37776714611; index: PI; Quantile.0.975(R): 1.37776714611; Quantile.0.025(R): 1.18067295488" role="graphics-symbol" aria-roledescription="errorbar" transform="translate(145.16823872100662,330)" x2="49.273547806653994" y2="0" stroke="blue" stroke-width="0.6"></line><line aria-label="CI 0.975: 1.18913843146; upper_Quantile.0.025(R): 1.38974304163; index: MS; Quantile.0.975(R): 1.38974304163; Quantile.0.025(R): 1.18913843146" role="graphics-symbol" aria-roledescription="errorbar" transform="translate(147.28460786509203,230)" x2="50.15115254282472" y2="0" stroke="blue" stroke-width="0.6"></line><line aria-label="CI 0.975: 1.20007982171; upper_Quantile.0.025(R): 1.50976274118; index: PR; Quantile.0.975(R): 1.50976274118; Quantile.0.025(R): 1.20007982171" role="graphics-symbol" aria-roledescription="errorbar" transform="translate(150.0199554273348,350)" x2="77.42072986879447" y2="0" stroke="blue" stroke-width="0.6"></line><line aria-label="CI 0.975: 1.33469656184; upper_Quantile.0.025(R): 1.68047651833; index: MT; Quantile.0.975(R): 1.68047651833; Quantile.0.025(R): 1.33469656184" role="graphics-symbol" aria-roledescription="errorbar" transform="translate(183.67414046034617,250)" x2="86.44498912260445" y2="0" stroke="blue" stroke-width="0.6"></line><line aria-label="CI 0.975: 1.37695784247; upper_Quantile.0.025(R): 1.7646864498; index: SC; Quantile.0.975(R): 1.7646864498; Quantile.0.025(R): 1.37695784247" role="graphics-symbol" aria-roledescription="errorbar" transform="translate(194.23946061859138,470)" x2="96.93215183238212" y2="0" stroke="blue" stroke-width="0.6"></line><line aria-label="CI 0.975: 1.50568833878; upper_Quantile.0.025(R): 2.00667199251; index: AP; Quantile.0.975(R): 2.00667199251; Quantile.0.025(R): 1.50568833878" role="graphics-symbol" aria-roledescription="errorbar" transform="translate(226.42208469552168,70)" x2="125.24591343284226" y2="0" stroke="blue" stroke-width="0.6"></line><line aria-label="CI 0.975: 2.75907491553; upper_Quantile.0.025(R): 3.39318088118; index: RR; Quantile.0.975(R): 3.39318088118; Quantile.0.025(R): 2.75907491553" role="graphics-symbol" aria-roledescription="errorbar" transform="translate(539.7687288814861,430)" x2="158.52649141402526" y2="0" stroke="blue" stroke-width="0.6"></line></g><g class="mark-group role-title"><g transform="translate(350,-17.2)"><path class="background" aria-hidden="true" d="M0,0h0v0h0Z" pointer-events="none"></path><g><g class="mark-text role-title-text" role="graphics-symbol" aria-roledescription="title" aria-label="Title text 'Instantaneous reproduction number estimate for all states in Brazil'" pointer-events="none"><text text-anchor="middle" transform="translate(0,10)" font-family="sans-serif" font-size="13px" font-weight="bold" fill="#000" opacity="1">Instantaneous reproduction number estimate for all states in Brazil</text></g></g><path class="foreground" aria-hidden="true" d="" pointer-events="none" display="none"></path></g></g></g><path class="foreground" aria-hidden="true" d="" display="none"></path></g></g></g></svg>