<svg class="marks" width="749" height="600" viewBox="0 0 749 600" version="1.1" xmlns="http://www.w3.org/2000/svg" xmlns:xlink="http://www.w3.org/1999/xlink"><rect width="749" height="600" fill="white"></rect><g fill="none" stroke-miterlimit="10" transform="translate(43,23)"><g class="mark-group role-frame root" role="graphics-object" aria-roledescription="group mark container"><g transform="translate(0,0)"><path class="background" aria-hidden="true" d="M0.5,0.5h700v540h-700Z"></path><g><g class="mark-group role-axis" aria-hidden="true"><g transform="translate(0.5,0.5)"><path class="background" aria-hidden="true" d="M0,0h0v0h0Z" pointer-events="none"></path><g><g class="mark-rule role-axis-grid" pointer-events="none"><line transform="translate(0,10)" x2="700" y2="0" stroke="#ddd" stroke-width="1" opacity="1"></line><line transform="translate(0,30)" x2="700" y2="0" stroke="#ddd" stroke-width="1" opacity="1"></line><line transform="translate(0,50)" x2="700" y2="0" stroke="#ddd" stroke-width="1" opacity="1"></line><line transform="translate(0,70)" x2="700" y2="0" stroke="#ddd" stroke-width="1" opacity="1"></line><line transform="translate(0,90)" x2="700" y2="0" stroke="#ddd" stroke-width="1" opacity="1"></line><line transform="translate(0,110)" x2="700" y2="0" stroke="#ddd" stroke-width="1" opacity="1"></line><line transform="translate(0,130)" x2="700" y2="0" stroke="#ddd" stroke-width="1" opacity="1"></line><line transform="translate(0,150)" x2="700" y2="0" stroke="#ddd" stroke-width="1" opacity="1"></line><line transform="translate(0,170)" x2="700" y2="0" stroke="#ddd" stroke-width="1" opacity="1"></line><line transform="translate(0,190)" x2="700" y2="0" stroke="#ddd" stroke-width="1" opacity="1"></line><line transform="translate(0,210)" x2="700" y2="0" stroke="#ddd" stroke-width="1" opacity="1"></line><line transform="translate(0,230)" x2="700" y2="0" stroke="#ddd" stroke-width="1" opacity="1"></line><line transform="translate(0,250)" x2="700" y2="0" stroke="#ddd" stroke-width="1" opacity="1"></line><line transform="translate(0,270)" x2="700" y2="0" stroke="#ddd" stroke-width="1" opacity="1"></line><line transform="translate(0,290)" x2="700" y2="0" stroke="#ddd" stroke-width="1" opacity="1"></line><line transform="translate(0,310)" x2="700" y2="0" stroke="#ddd" stroke-width="1" opacity="1"></line><line transform="translate(0,330)" x2="700" y2="0" stroke="#ddd" stroke-width="1" opacity="1"></line><line transform="translate(0,350)" x2="700" y2="0" stroke="#ddd" stroke-width="1" opacity="1"></line><line transform="translate(0,370)" x2="700" y2="0" stroke="#ddd" stroke-width="1" opacity="1"></line><line transform="translate(0,390)" x2="700" y2="0" stroke="#ddd" stroke-width="1" opacity="1"></line><line transform="translate(0,410)" x2="700" y2="0" stroke="#ddd" stroke-width="1" opacity="1"></line><line transform="translate(0,430)" x2="700" y2="0" stroke="#ddd" stroke-width="1" opacity="1"></line><line transform="translate(0,450)" x2="700" y2="0" stroke="#ddd" stroke-width="1" opacity="1"></line><line transform="translate(0,470)" x2="700" y2="0" stroke="#ddd" stroke-width="1" opacity="1"></line><line transform="translate(0,490)" x2="700" y2="0" stroke="#ddd" stroke-width="1" opacity="1"></line><line transform="translate(0,510)" x2="700" y2="0" stroke="#ddd" stroke-width="1" opacity="1"></line><line transform="translate(0,530)" x2="700" y2="0" stroke="#ddd" stroke-width="1" opacity="1"></line></g></g><path class="foreground" aria-hidden="true" d="" pointer-events="none" display="none"></path></g></g><g class="mark-group role-axis" role="graphics-symbol" aria-roledescription="axis" aria-label="X-axis titled 'Instantaneous reproduction number R(t), CI 0.975' for a linear scale with values from 0.2 to 1.4"><g transform="translate(0.5,540.5)"><path class="background" aria-hidden="true" d="M0,0h0v0h0Z" pointer-events="none"></path><g><g class="mark-rule role-axis-tick" pointer-events="none"><line transform="translate(0,0)" x2="0" y2="5" stroke="#888" stroke-width="1" opacity="1"></line><line transform="translate(29,0)" x2="0" y2="5" stroke="#888" stroke-width="1" opacity="1"></line><line transform="translate(58,0)" x2="0" y2="5" stroke="#888" stroke-width="1" opacity="1"></line><line transform="translate(87,0)" x2="0" y2="5" stroke="#888" stroke-width="1" opacity="1"></line><line transform="translate(117,0)" x2="0" y2="5" stroke="#888" stroke-width="1" opacity="1"></line><line transform="translate(146,0)" x2="0" y2="5" stroke="#888" stroke-width="1" opacity="1"></line><line transform="translate(175,0)" x2="0" y2="5" stroke="#888" stroke-width="1" opacity="1"></line><line transform="translate(204,0)" x2="0" y2="5" stroke="#888" stroke-width="1" opacity="1"></line><line transform="translate(233,0)" x2="0" y2="5" stroke="#888" stroke-width="1" opacity="1"></line><line transform="translate(263,0)" x2="0" y2="5" stroke="#888" stroke-width="1" opacity="1"></line><line transform="translate(292,0)" x2="0" y2="5" stroke="#888" stroke-width="1" opacity="1"></line><line transform="translate(321,0)" x2="0" y2="5" stroke="#888" stroke-width="1" opacity="1"></line><line transform="translate(350,0)" x2="0" y2="5" stroke="#888" stroke-width="1" opacity="1"></line><line transform="translate(379,0)" x2="0" y2="5" stroke="#888" stroke-width="1" opacity="1"></line><line transform="translate(408,0)" x2="0" y2="5" stroke="#888" stroke-width="1" opacity="1"></line><line transform="translate(438,0)" x2="0" y2="5" stroke="#888" stroke-width="1" opacity="1"></line><line transform="translate(467,0)" x2="0" y2="5" stroke="#888" stroke-width="1" opacity="1"></line><line transform="translate(496,0)" x2="0" y2="5" stroke="#888" stroke-width="1" opacity="1"></line><line transform="translate(525,0)" x2="0" y2="5" stroke="#888" stroke-width="1" opacity="1"></line><line transform="translate(554,0)" x2="0" y2="5" stroke="#888" stroke-width="1" opacity="1"></line><line transform="translate(583,0)" x2="0" y2="5" stroke="#888" stroke-width="1" opacity="1"></line><line transform="translate(613,0)" x2="0" y2="5" stroke="#888" stroke-width="1" opacity="1"></line><line transform="translate(642,0)" x2="0" y2="5" stroke="#888" stroke-width="1" opacity="1"></line><line transform="translate(671,0)" x2="0" y2="5" stroke="#888" stroke-width="1" opacity="1"></line><line transform="translate(700,0)" x2="0" y2="5" stroke="#888" stroke-width="1" opacity="1"></line></g><g class="mark-text role-axis-label" pointer-events="none"><text text-anchor="start" transform="translate(0,15)" font-family="sans-serif" font-size="10px" fill="#000" opacity="1">0.20</text><text text-anchor="middle" transform="translate(29.16666666666666,15)" font-family="sans-serif" font-size="10px" fill="#000" opacity="0">0.25</text><text text-anchor="middle" transform="translate(58.33333333333332,15)" font-family="sans-serif" font-size="10px" fill="#000" opacity="1">0.30</text><text text-anchor="middle" transform="translate(87.49999999999999,15)" font-family="sans-serif" font-size="10px" fill="#000" opacity="0">0.35</text><text text-anchor="middle" transform="translate(116.66666666666669,15)" font-family="sans-serif" font-size="10px" fill="#000" opacity="1">0.40</text><text text-anchor="middle" transform="translate(145.83333333333334,15)" font-family="sans-serif" font-size="10px" fill="#000" opacity="0">0.45</text><text text-anchor="middle" transform="translate(175,15)" font-family="sans-serif" font-size="10px" fill="#000" opacity="1">0.50</text><text text-anchor="middle" transform="translate(204.16666666666669,15)" font-family="sans-serif" font-size="10px" fill="#000" opacity="0">0.55</text><text text-anchor="middle" transform="translate(233.33333333333331,15)" font-family="sans-serif" font-size="10px" fill="#000" opacity="1">0.60</text><text text-anchor="middle" transform="translate(262.5,15)" font-family="sans-serif" font-size="10px" fill="#000" opacity="0">0.65</text><text text-anchor="middle" transform="translate(291.66666666666663,15)" font-family="sans-serif" font-size="10px" fill="#000" opacity="1">0.70</text><text text-anchor="middle" transform="translate(320.83333333333337,15)" font-family="sans-serif" font-size="10px" fill="#000" opacity="0">0.75</text><text text-anchor="middle" transform="translate(350.00000000000006,15)" font-family="sans-serif" font-size="10px" fill="#000" opacity="1">0.80</text><text text-anchor="middle" transform="translate(379.16666666666663,15)" font-family="sans-serif" font-size="10px" fill="#000" opacity="0">0.85</text><text text-anchor="middle" transform="translate(408.33333333333337,15)" font-family="sans-serif" font-size="10px" fill="#000" opacity="1">0.90</text><text text-anchor="middle" transform="translate(437.5,15)" font-family="sans-serif" font-size="10px" fill="#000" opacity="0">0.95</text><text text-anchor="middle" transform="translate(466.66666666666674,15)" font-family="sans-serif" font-size="10px" fill="#000" opacity="1">1.00</text><text text-anchor="middle" transform="translate(495.8333333333334,15)" font-family="sans-serif" font-size="10px" fill="#000" opacity="0">1.05</text><text text-anchor="middle" transform="translate(525.0000000000001,15)" font-family="sans-serif" font-size="10px" fill="#000" opacity="1">1.10</text><text text-anchor="middle" transform="translate(554.1666666666666,15)" font-family="sans-serif" font-size="10px" fill="#000" opacity="0">1.15</text><text text-anchor="middle" transform="translate(583.3333333333334,15)" font-family="sans-serif" font-size="10px" fill="#000" opacity="1">1.20</text><text text-anchor="middle" transform="translate(612.5000000000001,15)" font-family="sans-serif" font-size="10px" fill="#000" opacity="0">1.25</text><text text-anchor="middle" transform="translate(641.6666666666667,15)" font-family="sans-serif" font-size="10px" fill="#000" opacity="1">1.30</text><text text-anchor="middle" transform="translate(670.8333333333335,15)" font-family="sans-serif" font-size="10px" fill="#000" opacity="0">1.35</text><text text-anchor="end" transform="translate(700,15)" font-family="sans-serif" font-size="10px" fill="#000" opacity="1">1.40</text></g><g class="mark-rule role-axis-domain" pointer-events="none"><line transform="translate(0,0)" x2="700" y2="0" stroke="#888" stroke-width="1" opacity="1"></line></g><g class="mark-text role-axis-title" pointer-events="none"><text text-anchor="middle" transform="translate(350,30)" font-family="sans-serif" font-size="11px" font-weight="bold" fill="#000" opacity="1">Instantaneous reproduction number R(t), CI 0.975</text></g></g><path class="foreground" aria-hidden="true" d="" pointer-events="none" display="none"></path></g></g><g class="mark-group role-axis" role="graphics-symbol" aria-roledescription="axis" aria-label="Y-axis titled 'States' for a discrete scale with 27 values: AC, AL, AM, AP, BA, ending with TO"><g transform="translate(0.5,0.5)"><path class="background" aria-hidden="true" d="M0,0h0v0h0Z" pointer-events="none"></path><g><g class="mark-rule role-axis-tick" pointer-events="none"><line transform="translate(0,10)" x2="-5" y2="0" stroke="#888" stroke-width="1" opacity="1"></line><line transform="translate(0,30)" x2="-5" y2="0" stroke="#888" stroke-width="1" opacity="1"></line><line transform="translate(0,50)" x2="-5" y2="0" stroke="#888" stroke-width="1" opacity="1"></line><line transform="translate(0,70)" x2="-5" y2="0" stroke="#888" stroke-width="1" opacity="1"></line><line transform="translate(0,90)" x2="-5" y2="0" stroke="#888" stroke-width="1" opacity="1"></line><line transform="translate(0,110)" x2="-5" y2="0" stroke="#888" stroke-width="1" opacity="1"></line><line transform="translate(0,130)" x2="-5" y2="0" stroke="#888" stroke-width="1" opacity="1"></line><line transform="translate(0,150)" x2="-5" y2="0" stroke="#888" stroke-width="1" opacity="1"></line><line transform="translate(0,170)" x2="-5" y2="0" stroke="#888" stroke-width="1" opacity="1"></line><line transform="translate(0,190)" x2="-5" y2="0" stroke="#888" stroke-width="1" opacity="1"></line><line transform="translate(0,210)" x2="-5" y2="0" stroke="#888" stroke-width="1" opacity="1"></line><line transform="translate(0,230)" x2="-5" y2="0" stroke="#888" stroke-width="1" opacity="1"></line><line transform="translate(0,250)" x2="-5" y2="0" stroke="#888" stroke-width="1" opacity="1"></line><line transform="translate(0,270)" x2="-5" y2="0" stroke="#888" stroke-width="1" opacity="1"></line><line transform="translate(0,290)" x2="-5" y2="0" stroke="#888" stroke-width="1" opacity="1"></line><line transform="translate(0,310)" x2="-5" y2="0" stroke="#888" stroke-width="1" opacity="1"></line><line transform="translate(0,330)" x2="-5" y2="0" stroke="#888" stroke-width="1" opacity="1"></line><line transform="translate(0,350)" x2="-5" y2="0" stroke="#888" stroke-width="1" opacity="1"></line><line transform="translate(0,370)" x2="-5" y2="0" stroke="#888" stroke-width="1" opacity="1"></line><line transform="translate(0,390)" x2="-5" y2="0" stroke="#888" stroke-width="1" opacity="1"></line><line transform="translate(0,410)" x2="-5" y2="0" stroke="#888" stroke-width="1" opacity="1"></line><line transform="translate(0,430)" x2="-5" y2="0" stroke="#888" stroke-width="1" opacity="1"></line><line transform="translate(0,450)" x2="-5" y2="0" stroke="#888" stroke-width="1" opacity="1"></line><line transform="translate(0,470)" x2="-5" y2="0" stroke="#888" stroke-width="1" opacity="1"></line><line transform="translate(0,490)" x2="-5" y2="0" stroke="#888" stroke-width="1" opacity="1"></line><line transform="translate(0,510)" x2="-5" y2="0" stroke="#888" stroke-width="1" opacity="1"></line><line transform="translate(0,530)" x2="-5" y2="0" stroke="#888" stroke-width="1" opacity="1"></line></g><g class="mark-text role-axis-label" pointer-events="none"><text text-anchor="end" transform="translate(-7,12.5)" font-family="sans-serif" font-size="10px" fill="#000" opacity="1">AC</text><text text-anchor="end" transform="translate(-7,32.5)" font-family="sans-serif" font-size="10px" fill="#000" opacity="1">AL</text><text text-anchor="end" transform="translate(-7,52.5)" font-family="sans-serif" font-size="10px" fill="#000" opacity="1">AM</text><text text-anchor="end" transform="translate(-7,72.5)" font-family="sans-serif" font-size="10px" fill="#000" opacity="1">AP</text><text text-anchor="end" transform="translate(-7,92.5)" font-family="sans-serif" font-size="10px" fill="#000" opacity="1">BA</text><text text-anchor="end" transform="translate(-7,112.5)" font-family="sans-serif" font-size="10px" fill="#000" opacity="1">CE</text><text text-anchor="end" transform="translate(-7,132.5)" font-family="sans-serif" font-size="10px" fill="#000" opacity="1">DF</text><text text-anchor="end" transform="translate(-7,152.5)" font-family="sans-serif" font-size="10px" fill="#000" opacity="1">ES</text><text text-anchor="end" transform="translate(-7,172.5)" font-family="sans-serif" font-size="10px" fill="#000" opacity="1">GO</text><text text-anchor="end" transform="translate(-7,192.5)" font-family="sans-serif" font-size="10px" fill="#000" opacity="1">MA</text><text text-anchor="end" transform="translate(-7,212.5)" font-family="sans-serif" font-size="10px" fill="#000" opacity="1">MG</text><text text-anchor="end" transform="translate(-7,232.5)" font-family="sans-serif" font-size="10px" fill="#000" opacity="1">MS</text><text text-anchor="end" transform="translate(-7,252.5)" font-family="sans-serif" font-size="10px" fill="#000" opacity="1">MT</text><text text-anchor="end" transform="translate(-7,272.5)" font-family="sans-serif" font-size="10px" fill="#000" opacity="1">PA</text><text text-anchor="end" transform="translate(-7,292.5)" font-family="sans-serif" font-size="10px" fill="#000" opacity="1">PB</text><text text-anchor="end" transform="translate(-7,312.5)" font-family="sans-serif" font-size="10px" fill="#000" opacity="1">PE</text><text text-anchor="end" transform="translate(-7,332.5)" font-family="sans-serif" font-size="10px" fill="#000" opacity="1">PI</text><text text-anchor="end" transform="translate(-7,352.5)" font-family="sans-serif" font-size="10px" fill="#000" opacity="1">PR</text><text text-anchor="end" transform="translate(-7,372.5)" font-family="sans-serif" font-size="10px" fill="#000" opacity="1">RJ</text><text text-anchor="end" transform="translate(-7,392.5)" font-family="sans-serif" font-size="10px" fill="#000" opacity="1">RN</text><text text-anchor="end" transform="translate(-7,412.5)" font-family="sans-serif" font-size="10px" fill="#000" opacity="1">RO</text><text text-anchor="end" transform="translate(-7,432.5)" font-family="sans-serif" font-size="10px" fill="#000" opacity="1">RR</text><text text-anchor="end" transform="translate(-7,452.5)" font-family="sans-serif" font-size="10px" fill="#000" opacity="1">RS</text><text text-anchor="end" transform="translate(-7,472.5)" font-family="sans-serif" font-size="10px" fill="#000" opacity="1">SC</text><text text-anchor="end" transform="translate(-7,492.5)" font-family="sans-serif" font-size="10px" fill="#000" opacity="1">SE</text><text text-anchor="end" transform="translate(-7,512.5)" font-family="sans-serif" font-size="10px" fill="#000" opacity="1">SP</text><text text-anchor="end" transform="translate(-7,532.5)" font-family="sans-serif" font-size="10px" fill="#000" opacity="1">TO</text></g><g class="mark-rule role-axis-domain" pointer-events="none"><line transform="translate(0,0)" x2="0" y2="540" stroke="#888" stroke-width="1" opacity="1"></line></g><g class="mark-text role-axis-title" pointer-events="none"><text text-anchor="middle" transform="translate(-27,270) rotate(-90) translate(0,-2)" font-family="sans-serif" font-size="11px" font-weight="bold" fill="#000" opacity="1">States</text></g></g><path class="foreground" aria-hidden="true" d="" pointer-events="none" display="none"></path></g></g><g class="mark-symbol role-mark layer_0_marks" role="graphics-object" aria-roledescription="symbol mark container"><path aria-label="Instantaneous reproduction number R(t): 0.324902096766; States: SC" role="graphics-symbol" aria-roledescription="point" transform="translate(72.85955644696057,470)" d="M2.7386127875258306,0A2.7386127875258306,2.7386127875258306,0,1,1,-2.7386127875258306,0A2.7386127875258306,2.7386127875258306,0,1,1,2.7386127875258306,0" stroke="#4c78a8" stroke-width="2" opacity="0.7"></path><path aria-label="Instantaneous reproduction number R(t): 0.523401800333; States: RJ" role="graphics-symbol" aria-roledescription="point" transform="translate(188.6510501941765,370)" d="M2.7386127875258306,0A2.7386127875258306,2.7386127875258306,0,1,1,-2.7386127875258306,0A2.7386127875258306,2.7386127875258306,0,1,1,2.7386127875258306,0" stroke="#4c78a8" stroke-width="2" opacity="0.7"></path><path aria-label="Instantaneous reproduction number R(t): 0.678850721857; States: PE" role="graphics-symbol" aria-roledescription="point" transform="translate(279.3295877496448,310)" d="M2.7386127875258306,0A2.7386127875258306,2.7386127875258306,0,1,1,-2.7386127875258306,0A2.7386127875258306,2.7386127875258306,0,1,1,2.7386127875258306,0" stroke="#4c78a8" stroke-width="2" opacity="0.7"></path><path aria-label="Instantaneous reproduction number R(t): 0.7322858224; States: AL" role="graphics-symbol" aria-roledescription="point" transform="translate(310.50006306668257,30)" d="M2.7386127875258306,0A2.7386127875258306,2.7386127875258306,0,1,1,-2.7386127875258306,0A2.7386127875258306,2.7386127875258306,0,1,1,2.7386127875258306,0" stroke="#4c78a8" stroke-width="2" opacity="0.7"></path><path aria-label="Instantaneous reproduction number R(t): 0.774348431897; States: AC" role="graphics-symbol" aria-roledescription="point" transform="translate(335.03658527318134,10)" d="M2.7386127875258306,0A2.7386127875258306,2.7386127875258306,0,1,1,-2.7386127875258306,0A2.7386127875258306,2.7386127875258306,0,1,1,2.7386127875258306,0" stroke="#4c78a8" stroke-width="2" opacity="0.7"></path><path aria-label="Instantaneous reproduction number R(t): 0.780746085516; States: BA" role="graphics-symbol" aria-roledescription="point" transform="translate(338.76854988439413,90)" d="M2.7386127875258306,0A2.7386127875258306,2.7386127875258306,0,1,1,-2.7386127875258306,0A2.7386127875258306,2.7386127875258306,0,1,1,2.7386127875258306,0" stroke="#4c78a8" stroke-width="2" opacity="0.7"></path><path aria-label="Instantaneous reproduction number R(t): 0.789039992583; States: SP" role="graphics-symbol" aria-roledescription="point" transform="translate(343.60666233986905,510)" d="M2.7386127875258306,0A2.7386127875258306,2.7386127875258306,0,1,1,-2.7386127875258306,0A2.7386127875258306,2.7386127875258306,0,1,1,2.7386127875258306,0" stroke="#4c78a8" stroke-width="2" opacity="0.7"></path><path aria-label="Instantaneous reproduction number R(t): 0.7966139327; States: AM" role="graphics-symbol" aria-roledescription="point" transform="translate(348.0247940748604,50)" d="M2.7386127875258306,0A2.7386127875258306,2.7386127875258306,0,1,1,-2.7386127875258306,0A2.7386127875258306,2.7386127875258306,0,1,1,2.7386127875258306,0" stroke="#4c78a8" stroke-width="2" opacity="0.7"></path><path aria-label="Instantaneous reproduction number R(t): 0.803000328729; States: SE" role="graphics-symbol" aria-roledescription="point" transform="translate(351.7501917587672,490)" d="M2.7386127875258306,0A2.7386127875258306,2.7386127875258306,0,1,1,-2.7386127875258306,0A2.7386127875258306,2.7386127875258306,0,1,1,2.7386127875258306,0" stroke="#4c78a8" stroke-width="2" opacity="0.7"></path><path aria-label="Instantaneous reproduction number R(t): 0.812645139553; States: AP" role="graphics-symbol" aria-roledescription="point" transform="translate(357.37633140608386,70)" d="M2.7386127875258306,0A2.7386127875258306,2.7386127875258306,0,1,1,-2.7386127875258306,0A2.7386127875258306,2.7386127875258306,0,1,1,2.7386127875258306,0" stroke="#4c78a8" stroke-width="2" opacity="0.7"></path><path aria-label="Instantaneous reproduction number R(t): 0.825082819605; States: PB" role="graphics-symbol" aria-roledescription="point" transform="translate(364.63164476963414,290)" d="M2.7386127875258306,0A2.7386127875258306,2.7386127875258306,0,1,1,-2.7386127875258306,0A2.7386127875258306,2.7386127875258306,0,1,1,2.7386127875258306,0" stroke="#4c78a8" stroke-width="2" opacity="0.7"></path><path aria-label="Instantaneous reproduction number R(t): 0.828730585157; States: RN" role="graphics-symbol" aria-roledescription="point" transform="translate(366.75950800844487,390)" d="M2.7386127875258306,0A2.7386127875258306,2.7386127875258306,0,1,1,-2.7386127875258306,0A2.7386127875258306,2.7386127875258306,0,1,1,2.7386127875258306,0" stroke="#4c78a8" stroke-width="2" opacity="0.7"></path><path aria-label="Instantaneous reproduction number R(t): 0.834872307942; States: TO" role="graphics-symbol" aria-roledescription="point" transform="translate(370.34217963284607,530)" d="M2.7386127875258306,0A2.7386127875258306,2.7386127875258306,0,1,1,-2.7386127875258306,0A2.7386127875258306,2.7386127875258306,0,1,1,2.7386127875258306,0" stroke="#4c78a8" stroke-width="2" opacity="0.7"></path><path aria-label="Instantaneous reproduction number R(t): 0.843829604769; States: PA" role="graphics-symbol" aria-roledescription="point" transform="translate(375.56726944839636,270)" d="M2.7386127875258306,0A2.7386127875258306,2.7386127875258306,0,1,1,-2.7386127875258306,0A2.7386127875258306,2.7386127875258306,0,1,1,2.7386127875258306,0" stroke="#4c78a8" stroke-width="2" opacity="0.7"></path><path aria-label="Instantaneous reproduction number R(t): 0.847626837006; States: MA" role="graphics-symbol" aria-roledescription="point" transform="translate(377.7823215868079,190)" d="M2.7386127875258306,0A2.7386127875258306,2.7386127875258306,0,1,1,-2.7386127875258306,0A2.7386127875258306,2.7386127875258306,0,1,1,2.7386127875258306,0" stroke="#4c78a8" stroke-width="2" opacity="0.7"></path><path aria-label="Instantaneous reproduction number R(t): 0.848409950149; States: MG" role="graphics-symbol" aria-roledescription="point" transform="translate(378.23913758674195,210)" d="M2.7386127875258306,0A2.7386127875258306,2.7386127875258306,0,1,1,-2.7386127875258306,0A2.7386127875258306,2.7386127875258306,0,1,1,2.7386127875258306,0" stroke="#4c78a8" stroke-width="2" opacity="0.7"></path><path aria-label="Instantaneous reproduction number R(t): 0.850475664286; States: PR" role="graphics-symbol" aria-roledescription="point" transform="translate(379.4441375004096,350)" d="M2.7386127875258306,0A2.7386127875258306,2.7386127875258306,0,1,1,-2.7386127875258306,0A2.7386127875258306,2.7386127875258306,0,1,1,2.7386127875258306,0" stroke="#4c78a8" stroke-width="2" opacity="0.7"></path><path aria-label="Instantaneous reproduction number R(t): 0.857383547364; States: MT" role="graphics-symbol" aria-roledescription="point" transform="translate(383.4737359624285,250)" d="M2.7386127875258306,0A2.7386127875258306,2.7386127875258306,0,1,1,-2.7386127875258306,0A2.7386127875258306,2.7386127875258306,0,1,1,2.7386127875258306,0" stroke="#4c78a8" stroke-width="2" opacity="0.7"></path><path aria-label="Instantaneous reproduction number R(t): 0.865095897748; States: DF" role="graphics-symbol" aria-roledescription="point" transform="translate(387.97260701960715,130)" d="M2.7386127875258306,0A2.7386127875258306,2.7386127875258306,0,1,1,-2.7386127875258306,0A2.7386127875258306,2.7386127875258306,0,1,1,2.7386127875258306,0" stroke="#4c78a8" stroke-width="2" opacity="0.7"></path><path aria-label="Instantaneous reproduction number R(t): 0.868748039655; States: RR" role="graphics-symbol" aria-roledescription="point" transform="translate(390.1030231323005,430)" d="M2.7386127875258306,0A2.7386127875258306,2.7386127875258306,0,1,1,-2.7386127875258306,0A2.7386127875258306,2.7386127875258306,0,1,1,2.7386127875258306,0" stroke="#4c78a8" stroke-width="2" opacity="0.7"></path><path aria-label="Instantaneous reproduction number R(t): 0.87165962436; States: RO" role="graphics-symbol" aria-roledescription="point" transform="translate(391.8014475431959,410)" d="M2.7386127875258306,0A2.7386127875258306,2.7386127875258306,0,1,1,-2.7386127875258306,0A2.7386127875258306,2.7386127875258306,0,1,1,2.7386127875258306,0" stroke="#4c78a8" stroke-width="2" opacity="0.7"></path><path aria-label="Instantaneous reproduction number R(t): 0.896749329256; States: MS" role="graphics-symbol" aria-roledescription="point" transform="translate(406.4371087325376,230)" d="M2.7386127875258306,0A2.7386127875258306,2.7386127875258306,0,1,1,-2.7386127875258306,0A2.7386127875258306,2.7386127875258306,0,1,1,2.7386127875258306,0" stroke="#4c78a8" stroke-width="2" opacity="0.7"></path><path aria-label="Instantaneous reproduction number R(t): 0.901206965716; States: ES" role="graphics-symbol" aria-roledescription="point" transform="translate(409.03739666782576,150)" d="M2.7386127875258306,0A2.7386127875258306,2.7386127875258306,0,1,1,-2.7386127875258306,0A2.7386127875258306,2.7386127875258306,0,1,1,2.7386127875258306,0" stroke="#4c78a8" stroke-width="2" opacity="0.7"></path><path aria-label="Instantaneous reproduction number R(t): 0.93032200659; States: GO" role="graphics-symbol" aria-roledescription="point" transform="translate(426.02117051093455,170)" d="M2.7386127875258306,0A2.7386127875258306,2.7386127875258306,0,1,1,-2.7386127875258306,0A2.7386127875258306,2.7386127875258306,0,1,1,2.7386127875258306,0" stroke="#4c78a8" stroke-width="2" opacity="0.7"></path><path aria-label="Instantaneous reproduction number R(t): 0.93251353936; States: RS" role="graphics-symbol" aria-roledescription="point" transform="translate(427.2995646267527,450)" d="M2.7386127875258306,0A2.7386127875258306,2.7386127875258306,0,1,1,-2.7386127875258306,0A2.7386127875258306,2.7386127875258306,0,1,1,2.7386127875258306,0" stroke="#4c78a8" stroke-width="2" opacity="0.7"></path><path aria-label="Instantaneous reproduction number R(t): 0.948262152339; States: PI" role="graphics-symbol" aria-roledescription="point" transform="translate(436.48625553088027,330)" d="M2.7386127875258306,0A2.7386127875258306,2.7386127875258306,0,1,1,-2.7386127875258306,0A2.7386127875258306,2.7386127875258306,0,1,1,2.7386127875258306,0" stroke="#4c78a8" stroke-width="2" opacity="0.7"></path><path aria-label="Instantaneous reproduction number R(t): 1.17066845302; States: CE" role="graphics-symbol" aria-roledescription="point" transform="translate(566.2232642620114,110)" d="M2.7386127875258306,0A2.7386127875258306,2.7386127875258306,0,1,1,-2.7386127875258306,0A2.7386127875258306,2.7386127875258306,0,1,1,2.7386127875258306,0" stroke="#4c78a8" stroke-width="2" opacity="0.7"></path></g><g class="mark-rule role-mark layer_1_marks" role="graphics-object" aria-roledescription="rule mark container"><line aria-label="a: 1" role="graphics-symbol" aria-roledescription="rule mark" transform="translate(466.66666666666674,0)" x2="0" y2="540" stroke="black" stroke-width="0.2"></line><line aria-label="a: 1" role="graphics-symbol" aria-roledescription="rule mark" transform="translate(466.66666666666674,0)" x2="0" y2="540" stroke="black" stroke-width="0.2"></line><line aria-label="a: 1" role="graphics-symbol" aria-roledescription="rule mark" transform="translate(466.66666666666674,0)" x2="0" y2="540" stroke="black" stroke-width="0.2"></line><line aria-label="a: 1" role="graphics-symbol" aria-roledescription="rule mark" transform="translate(466.66666666666674,0)" x2="0" y2="540" stroke="black" stroke-width="0.2"></line><line aria-label="a: 1" role="graphics-symbol" aria-roledescription="rule mark" transform="translate(466.66666666666674,0)" x2="0" y2="540" stroke="black" stroke-width="0.2"></line><line aria-label="a: 1" role="graphics-symbol" aria-roledescription="rule mark" transform="translate(466.66666666666674,0)" x2="0" y2="540" stroke="black" stroke-width="0.2"></line><line aria-label="a: 1" role="graphics-symbol" aria-roledescription="rule mark" transform="translate(466.66666666666674,0)" x2="0" y2="540" stroke="black" stroke-width="0.2"></line><line aria-label="a: 1" role="graphics-symbol" aria-roledescription="rule mark" transform="translate(466.66666666666674,0)" x2="0" y2="540" stroke="black" stroke-width="0.2"></line><line aria-label="a: 1" role="graphics-symbol" aria-roledescription="rule mark" transform="translate(466.66666666666674,0)" x2="0" y2="540" stroke="black" stroke-width="0.2"></line><line aria-label="a: 1" role="graphics-symbol" aria-roledescription="rule mark" transform="translate(466.66666666666674,0)" x2="0" y2="540" stroke="black" stroke-width="0.2"></line><line aria-label="a: 1" role="graphics-symbol" aria-roledescription="rule mark" transform="translate(466.66666666666674,0)" x2="0" y2="540" stroke="black" stroke-width="0.2"></line><line aria-label="a: 1" role="graphics-symbol" aria-roledescription="rule mark" transform="translate(466.66666666666674,0)" x2="0" y2="540" stroke="black" stroke-width="0.2"></line><line aria-label="a: 1" role="graphics-symbol" aria-roledescription="rule mark" transform="translate(466.66666666666674,0)" x2="0" y2="540" stroke="black" stroke-width="0.2"></line><line aria-label="a: 1" role="graphics-symbol" aria-roledescription="rule mark" transform="translate(466.66666666666674,0)" x2="0" y2="540" stroke="black" stroke-width="0.2"></line><line aria-label="a: 1" role="graphics-symbol" aria-roledescription="rule mark" transform="translate(466.66666666666674,0)" x2="0" y2="540" stroke="black" stroke-width="0.2"></line><line aria-label="a: 1" role="graphics-symbol" aria-roledescription="rule mark" transform="translate(466.66666666666674,0)" x2="0" y2="540" stroke="black" stroke-width="0.2"></line><line aria-label="a: 1" role="graphics-symbol" aria-roledescription="rule mark" transform="translate(466.66666666666674,0)" x2="0" y2="540" stroke="black" stroke-width="0.2"></line><line aria-label="a: 1" role="graphics-symbol" aria-roledescription="rule mark" transform="translate(466.66666666666674,0)" x2="0" y2="540" stroke="black" stroke-width="0.2"></line><line aria-label="a: 1" role="graphics-symbol" aria-roledescription="rule mark" transform="translate(466.66666666666674,0)" x2="0" y2="540" stroke="black" stroke-width="0.2"></line><line aria-label="a: 1" role="graphics-symbol" aria-roledescription="rule mark" transform="translate(466.66666666666674,0)" x2="0" y2="540" stroke="black" stroke-width="0.2"></line><line aria-label="a: 1" role="graphics-symbol" aria-roledescription="rule mark" transform="translate(466.66666666666674,0)" x2="0" y2="540" stroke="black" stroke-width="0.2"></line><line aria-label="a: 1" role="graphics-symbol" aria-roledescription="rule mark" transform="translate(466.66666666666674,0)" x2="0" y2="540" stroke="black" stroke-width="0.2"></line><line aria-label="a: 1" role="graphics-symbol" aria-roledescription="rule mark" transform="translate(466.66666666666674,0)" x2="0" y2="540" stroke="black" stroke-width="0.2"></line><line aria-label="a: 1" role="graphics-symbol" aria-roledescription="rule mark" transform="translate(466.66666666666674,0)" x2="0" y2="540" stroke="black" stroke-width="0.2"></line><line aria-label="a: 1" role="graphics-symbol" aria-roledescription="rule mark" transform="translate(466.66666666666674,0)" x2="0" y2="540" stroke="black" stroke-width="0.2"></line><line aria-label="a: 1" role="graphics-symbol" aria-roledescription="rule mark" transform="translate(466.66666666666674,0)" x2="0" y2="540" stroke="black" stroke-width="0.2"></line><line aria-label="a: 1" role="graphics-symbol" aria-roledescription="rule mark" transform="translate(466.66666666666674,0)" x2="0" y2="540" stroke="black" stroke-width="0.2"></line></g><g class="mark-rule role-mark layer_2_marks" role="graphics-object" aria-roledescription="rule mark container"><line aria-label="CI 0.975: 0.256622616448; upper_Quantile.0.025(R): 0.457540087694; index: SC; Quantile.0.975(R): 0.457540087694; Quantile.0.025(R): 0.256622616448" role="graphics-symbol" aria-roledescription="errorbar" transform="translate(33.02985959469969,470)" x2="117.20185822708426" y2="0" stroke="blue" stroke-width="0.6"></line><line aria-label="CI 0.975: 0.481126620407; upper_Quantile.0.025(R): 0.58149816398; index: RJ; Quantile.0.975(R): 0.58149816398; Quantile.0.025(R): 0.481126620407" role="graphics-symbol" aria-roledescription="errorbar" transform="translate(163.99052857060633,370)" x2="58.55006708443622" y2="0" stroke="blue" stroke-width="0.6"></line><line aria-label="CI 0.975: 0.636742541992; upper_Quantile.0.025(R): 0.739078275397; index: PE; Quantile.0.975(R): 0.739078275397; Quantile.0.025(R): 0.636742541992" role="graphics-symbol" aria-roledescription="errorbar" transform="translate(254.76648282843718,310)" x2="59.69584448640427" y2="0" stroke="blue" stroke-width="0.6"></line><line aria-label="CI 0.975: 0.679698531849; upper_Quantile.0.025(R): 0.785067445771; index: AL; Quantile.0.975(R): 0.785067445771; Quantile.0.025(R): 0.679698531849" role="graphics-symbol" aria-roledescription="errorbar" transform="translate(279.8241435785109,30)" x2="61.465199787993924" y2="0" stroke="blue" stroke-width="0.6"></line><line aria-label="CI 0.975: 0.709069685255; upper_Quantile.0.025(R): 0.844658883817; index: AC; Quantile.0.975(R): 0.844658883817; Quantile.0.025(R): 0.709069685255" role="graphics-symbol" aria-roledescription="errorbar" transform="translate(296.95731639883155,10)" x2="79.09369916131982" y2="0" stroke="blue" stroke-width="0.6"></line><line aria-label="CI 0.975: 0.741473907674; upper_Quantile.0.025(R): 0.82154290143; index: BA; Quantile.0.975(R): 0.82154290143; Quantile.0.025(R): 0.741473907674" role="graphics-symbol" aria-roledescription="errorbar" transform="translate(315.85977947677424,90)" x2="46.70691302402753" y2="0" stroke="blue" stroke-width="0.6"></line><line aria-label="CI 0.975: 0.778575026441; upper_Quantile.0.025(R): 0.806743281461; index: SP; Quantile.0.975(R): 0.806743281461; Quantile.0.025(R): 0.778575026441" role="graphics-symbol" aria-roledescription="errorbar" transform="translate(337.5020987575281,510)" x2="16.431482094605542" y2="0" stroke="blue" stroke-width="0.6"></line><line aria-label="CI 0.975: 0.748083196776; upper_Quantile.0.025(R): 0.849529518736; index: AM; Quantile.0.975(R): 0.849529518736; Quantile.0.025(R): 0.748083196776" role="graphics-symbol" aria-roledescription="errorbar" transform="translate(319.7151981190831,50)" x2="59.177021143685124" y2="0" stroke="blue" stroke-width="0.6"></line><line aria-label="CI 0.975: 0.739713272865; upper_Quantile.0.025(R): 0.86852693684; index: SE; Quantile.0.975(R): 0.86852693684; Quantile.0.025(R): 0.739713272865" role="graphics-symbol" aria-roledescription="errorbar" transform="translate(314.8327425045273,490)" x2="75.14130398524009" y2="0" stroke="blue" stroke-width="0.6"></line><line aria-label="CI 0.975: 0.76094034403; upper_Quantile.0.025(R): 0.874166975039; index: AP; Quantile.0.975(R): 0.874166975039; Quantile.0.025(R): 0.76094034403" role="graphics-symbol" aria-roledescription="errorbar" transform="translate(327.2152006842127,70)" x2="66.0488680883322" y2="0" stroke="blue" stroke-width="0.6"></line><line aria-label="CI 0.975: 0.78643442993; upper_Quantile.0.025(R): 0.87195430696; index: PB; Quantile.0.975(R): 0.87195430696; Quantile.0.025(R): 0.78643442993" role="graphics-symbol" aria-roledescription="errorbar" transform="translate(342.0867507927725,290)" x2="49.88659493390861" y2="0" stroke="blue" stroke-width="0.6"></line><line aria-label="CI 0.975: 0.788490056554; upper_Quantile.0.025(R): 0.869887908329; index: RN; Quantile.0.975(R): 0.869887908329; Quantile.0.025(R): 0.788490056554" role="graphics-symbol" aria-roledescription="errorbar" transform="translate(343.28586632327347,390)" x2="47.482080201769804" y2="0" stroke="blue" stroke-width="0.6"></line><line aria-label="CI 0.975: 0.795745755608; upper_Quantile.0.025(R): 0.877720581338; index: TO; Quantile.0.975(R): 0.877720581338; Quantile.0.025(R): 0.795745755608" role="graphics-symbol" aria-roledescription="errorbar" transform="translate(347.5183574381963,530)" x2="47.81864834236694" y2="0" stroke="blue" stroke-width="0.6"></line><line aria-label="CI 0.975: 0.816137805031; upper_Quantile.0.025(R): 0.872908462275; index: PA; Quantile.0.975(R): 0.872908462275; Quantile.0.025(R): 0.816137805031" role="graphics-symbol" aria-roledescription="errorbar" transform="translate(359.41371960124707,270)" x2="33.11621672559562" y2="0" stroke="blue" stroke-width="0.6"></line><line aria-label="CI 0.975: 0.82473639757; upper_Quantile.0.025(R): 0.871399607285; index: MA; Quantile.0.975(R): 0.871399607285; Quantile.0.025(R): 0.82473639757" role="graphics-symbol" aria-roledescription="errorbar" transform="translate(364.4295652488909,190)" x2="27.22020566731709" y2="0" stroke="blue" stroke-width="0.6"></line><line aria-label="CI 0.975: 0.832683525004; upper_Quantile.0.025(R): 0.866601820897; index: MG; Quantile.0.975(R): 0.866601820897; Quantile.0.025(R): 0.832683525004" role="graphics-symbol" aria-roledescription="errorbar" transform="translate(369.06538958561464,210)" x2="19.785672604354886" y2="0" stroke="blue" stroke-width="0.6"></line><line aria-label="CI 0.975: 0.822735387802; upper_Quantile.0.025(R): 0.879842713555; index: PR; Quantile.0.975(R): 0.879842713555; Quantile.0.025(R): 0.822735387802" role="graphics-symbol" aria-roledescription="errorbar" transform="translate(363.2623095509083,350)" x2="33.31260668944907" y2="0" stroke="blue" stroke-width="0.6"></line><line aria-label="CI 0.975: 0.814586394487; upper_Quantile.0.025(R): 0.902418915136; index: MT; Quantile.0.975(R): 0.902418915136; Quantile.0.025(R): 0.814586394487" role="graphics-symbol" aria-roledescription="errorbar" transform="translate(358.5087301176988,250)" x2="51.235637045099566" y2="0" stroke="blue" stroke-width="0.6"></line><line aria-label="CI 0.975: 0.828905686854; upper_Quantile.0.025(R): 0.899675662804; index: DF; Quantile.0.975(R): 0.899675662804; Quantile.0.025(R): 0.828905686854" role="graphics-symbol" aria-roledescription="errorbar" transform="translate(366.861650664578,130)" x2="41.282485971295614" y2="0" stroke="blue" stroke-width="0.6"></line><line aria-label="CI 0.975: 0.823228294542; upper_Quantile.0.025(R): 0.914983952038; index: RR; Quantile.0.975(R): 0.914983952038; Quantile.0.025(R): 0.823228294542" role="graphics-symbol" aria-roledescription="errorbar" transform="translate(363.54983848255506,430)" x2="53.52413353946389" y2="0" stroke="blue" stroke-width="0.6"></line><line aria-label="CI 0.975: 0.835843866996; upper_Quantile.0.025(R): 0.91122905398; index: RO; Quantile.0.975(R): 0.91122905398; Quantile.0.025(R): 0.835843866996" role="graphics-symbol" aria-roledescription="errorbar" transform="translate(370.90892241443834,410)" x2="43.97469240708244" y2="0" stroke="blue" stroke-width="0.6"></line><line aria-label="CI 0.975: 0.862130743211; upper_Quantile.0.025(R): 0.935578731744; index: MS; Quantile.0.975(R): 0.935578731744; Quantile.0.025(R): 0.862130743211" role="graphics-symbol" aria-roledescription="errorbar" transform="translate(386.2429335394806,230)" x2="42.84465997814334" y2="0" stroke="blue" stroke-width="0.6"></line><line aria-label="CI 0.975: 0.869450087824; upper_Quantile.0.025(R): 0.934449720241; index: ES; Quantile.0.975(R): 0.934449720241; Quantile.0.025(R): 0.869450087824" role="graphics-symbol" aria-roledescription="errorbar" transform="translate(390.51255123052596,150)" x2="37.91645224326527" y2="0" stroke="blue" stroke-width="0.6"></line><line aria-label="CI 0.975: 0.906888662537; upper_Quantile.0.025(R): 0.95498109882; index: GO; Quantile.0.975(R): 0.95498109882; Quantile.0.025(R): 0.906888662537" role="graphics-symbol" aria-roledescription="errorbar" transform="translate(412.3517198133646,170)" x2="28.05392116489861" y2="0" stroke="blue" stroke-width="0.6"></line><line aria-label="CI 0.975: 0.902780039733; upper_Quantile.0.025(R): 0.960619229417; index: RS; Quantile.0.975(R): 0.960619229417; Quantile.0.025(R): 0.902780039733" role="graphics-symbol" aria-roledescription="errorbar" transform="translate(409.9550231774453,450)" x2="33.73952731607716" y2="0" stroke="blue" stroke-width="0.6"></line><line aria-label="CI 0.975: 0.917569731454; upper_Quantile.0.025(R): 0.979309468317; index: PI; Quantile.0.975(R): 0.979309468317; Quantile.0.025(R): 0.917569731454" role="graphics-symbol" aria-roledescription="errorbar" transform="translate(418.5823433483704,330)" x2="36.01484650317519" y2="0" stroke="blue" stroke-width="0.6"></line><line aria-label="CI 0.975: 1.05168653168; upper_Quantile.0.025(R): 1.34872922224; index: CE; Quantile.0.975(R): 1.34872922224; Quantile.0.025(R): 1.05168653168" role="graphics-symbol" aria-roledescription="errorbar" transform="translate(496.81714348286914,110)" x2="173.27490282326778" y2="0" stroke="blue" stroke-width="0.6"></line></g><g class="mark-group role-title"><g transform="translate(350,-17.2)"><path class="background" aria-hidden="true" d="M0,0h0v0h0Z" pointer-events="none"></path><g><g class="mark-text role-title-text" role="graphics-symbol" aria-roledescription="title" aria-label="Title text 'Instantaneous reproduction number estimate for all states in Brazil'" pointer-events="none"><text text-anchor="middle" transform="translate(0,10)" font-family="sans-serif" font-size="13px" font-weight="bold" fill="#000" opacity="1">Instantaneous reproduction number estimate for all states in Brazil</text></g></g><path class="foreground" aria-hidden="true" d="" pointer-events="none" display="none"></path></g></g></g><path class="foreground" aria-hidden="true" d="" display="none"></path></g></g></g></svg>