<svg class="marks" width="748" height="600" viewBox="0 0 748 600" version="1.1" xmlns="http://www.w3.org/2000/svg" xmlns:xlink="http://www.w3.org/1999/xlink"><rect width="748" height="600" fill="white"></rect><g fill="none" stroke-miterlimit="10" transform="translate(43,23)"><g class="mark-group role-frame root" role="graphics-object" aria-roledescription="group mark container"><g transform="translate(0,0)"><path class="background" aria-hidden="true" d="M0.5,0.5h700v540h-700Z"></path><g><g class="mark-group role-axis" aria-hidden="true"><g transform="translate(0.5,0.5)"><path class="background" aria-hidden="true" d="M0,0h0v0h0Z" pointer-events="none"></path><g><g class="mark-rule role-axis-grid" pointer-events="none"><line transform="translate(0,10)" x2="700" y2="0" stroke="#ddd" stroke-width="1" opacity="1"></line><line transform="translate(0,30)" x2="700" y2="0" stroke="#ddd" stroke-width="1" opacity="1"></line><line transform="translate(0,50)" x2="700" y2="0" stroke="#ddd" stroke-width="1" opacity="1"></line><line transform="translate(0,70)" x2="700" y2="0" stroke="#ddd" stroke-width="1" opacity="1"></line><line transform="translate(0,90)" x2="700" y2="0" stroke="#ddd" stroke-width="1" opacity="1"></line><line transform="translate(0,110)" x2="700" y2="0" stroke="#ddd" stroke-width="1" opacity="1"></line><line transform="translate(0,130)" x2="700" y2="0" stroke="#ddd" stroke-width="1" opacity="1"></line><line transform="translate(0,150)" x2="700" y2="0" stroke="#ddd" stroke-width="1" opacity="1"></line><line transform="translate(0,170)" x2="700" y2="0" stroke="#ddd" stroke-width="1" opacity="1"></line><line transform="translate(0,190)" x2="700" y2="0" stroke="#ddd" stroke-width="1" opacity="1"></line><line transform="translate(0,210)" x2="700" y2="0" stroke="#ddd" stroke-width="1" opacity="1"></line><line transform="translate(0,230)" x2="700" y2="0" stroke="#ddd" stroke-width="1" opacity="1"></line><line transform="translate(0,250)" x2="700" y2="0" stroke="#ddd" stroke-width="1" opacity="1"></line><line transform="translate(0,270)" x2="700" y2="0" stroke="#ddd" stroke-width="1" opacity="1"></line><line transform="translate(0,290)" x2="700" y2="0" stroke="#ddd" stroke-width="1" opacity="1"></line><line transform="translate(0,310)" x2="700" y2="0" stroke="#ddd" stroke-width="1" opacity="1"></line><line transform="translate(0,330)" x2="700" y2="0" stroke="#ddd" stroke-width="1" opacity="1"></line><line transform="translate(0,350)" x2="700" y2="0" stroke="#ddd" stroke-width="1" opacity="1"></line><line transform="translate(0,370)" x2="700" y2="0" stroke="#ddd" stroke-width="1" opacity="1"></line><line transform="translate(0,390)" x2="700" y2="0" stroke="#ddd" stroke-width="1" opacity="1"></line><line transform="translate(0,410)" x2="700" y2="0" stroke="#ddd" stroke-width="1" opacity="1"></line><line transform="translate(0,430)" x2="700" y2="0" stroke="#ddd" stroke-width="1" opacity="1"></line><line transform="translate(0,450)" x2="700" y2="0" stroke="#ddd" stroke-width="1" opacity="1"></line><line transform="translate(0,470)" x2="700" y2="0" stroke="#ddd" stroke-width="1" opacity="1"></line><line transform="translate(0,490)" x2="700" y2="0" stroke="#ddd" stroke-width="1" opacity="1"></line><line transform="translate(0,510)" x2="700" y2="0" stroke="#ddd" stroke-width="1" opacity="1"></line><line transform="translate(0,530)" x2="700" y2="0" stroke="#ddd" stroke-width="1" opacity="1"></line></g></g><path class="foreground" aria-hidden="true" d="" pointer-events="none" display="none"></path></g></g><g class="mark-group role-axis" role="graphics-symbol" aria-roledescription="axis" aria-label="X-axis titled 'Instantaneous reproduction number R(t), CI 0.975' for a linear scale with values from 0.8 to 1.3"><g transform="translate(0.5,540.5)"><path class="background" aria-hidden="true" d="M0,0h0v0h0Z" pointer-events="none"></path><g><g class="mark-rule role-axis-tick" pointer-events="none"><line transform="translate(14,0)" x2="0" y2="5" stroke="#888" stroke-width="1" opacity="1"></line><line transform="translate(42,0)" x2="0" y2="5" stroke="#888" stroke-width="1" opacity="1"></line><line transform="translate(70,0)" x2="0" y2="5" stroke="#888" stroke-width="1" opacity="1"></line><line transform="translate(98,0)" x2="0" y2="5" stroke="#888" stroke-width="1" opacity="1"></line><line transform="translate(126,0)" x2="0" y2="5" stroke="#888" stroke-width="1" opacity="1"></line><line transform="translate(154,0)" x2="0" y2="5" stroke="#888" stroke-width="1" opacity="1"></line><line transform="translate(182,0)" x2="0" y2="5" stroke="#888" stroke-width="1" opacity="1"></line><line transform="translate(210,0)" x2="0" y2="5" stroke="#888" stroke-width="1" opacity="1"></line><line transform="translate(238,0)" x2="0" y2="5" stroke="#888" stroke-width="1" opacity="1"></line><line transform="translate(266,0)" x2="0" y2="5" stroke="#888" stroke-width="1" opacity="1"></line><line transform="translate(294,0)" x2="0" y2="5" stroke="#888" stroke-width="1" opacity="1"></line><line transform="translate(322,0)" x2="0" y2="5" stroke="#888" stroke-width="1" opacity="1"></line><line transform="translate(350,0)" x2="0" y2="5" stroke="#888" stroke-width="1" opacity="1"></line><line transform="translate(378,0)" x2="0" y2="5" stroke="#888" stroke-width="1" opacity="1"></line><line transform="translate(406,0)" x2="0" y2="5" stroke="#888" stroke-width="1" opacity="1"></line><line transform="translate(434,0)" x2="0" y2="5" stroke="#888" stroke-width="1" opacity="1"></line><line transform="translate(462,0)" x2="0" y2="5" stroke="#888" stroke-width="1" opacity="1"></line><line transform="translate(490,0)" x2="0" y2="5" stroke="#888" stroke-width="1" opacity="1"></line><line transform="translate(518,0)" x2="0" y2="5" stroke="#888" stroke-width="1" opacity="1"></line><line transform="translate(546,0)" x2="0" y2="5" stroke="#888" stroke-width="1" opacity="1"></line><line transform="translate(574,0)" x2="0" y2="5" stroke="#888" stroke-width="1" opacity="1"></line><line transform="translate(602,0)" x2="0" y2="5" stroke="#888" stroke-width="1" opacity="1"></line><line transform="translate(630,0)" x2="0" y2="5" stroke="#888" stroke-width="1" opacity="1"></line><line transform="translate(658,0)" x2="0" y2="5" stroke="#888" stroke-width="1" opacity="1"></line><line transform="translate(686,0)" x2="0" y2="5" stroke="#888" stroke-width="1" opacity="1"></line></g><g class="mark-text role-axis-label" pointer-events="none"><text text-anchor="middle" transform="translate(14.000000000000012,15)" font-family="sans-serif" font-size="10px" fill="#000" opacity="1">0.76</text><text text-anchor="middle" transform="translate(42.000000000000036,15)" font-family="sans-serif" font-size="10px" fill="#000" opacity="1">0.78</text><text text-anchor="middle" transform="translate(70.00000000000006,15)" font-family="sans-serif" font-size="10px" fill="#000" opacity="1">0.80</text><text text-anchor="middle" transform="translate(97.99999999999993,15)" font-family="sans-serif" font-size="10px" fill="#000" opacity="1">0.82</text><text text-anchor="middle" transform="translate(125.99999999999996,15)" font-family="sans-serif" font-size="10px" fill="#000" opacity="1">0.84</text><text text-anchor="middle" transform="translate(153.99999999999997,15)" font-family="sans-serif" font-size="10px" fill="#000" opacity="1">0.86</text><text text-anchor="middle" transform="translate(182,15)" font-family="sans-serif" font-size="10px" fill="#000" opacity="1">0.88</text><text text-anchor="middle" transform="translate(210.00000000000003,15)" font-family="sans-serif" font-size="10px" fill="#000" opacity="1">0.90</text><text text-anchor="middle" transform="translate(238.00000000000006,15)" font-family="sans-serif" font-size="10px" fill="#000" opacity="1">0.92</text><text text-anchor="middle" transform="translate(265.99999999999994,15)" font-family="sans-serif" font-size="10px" fill="#000" opacity="1">0.94</text><text text-anchor="middle" transform="translate(293.99999999999994,15)" font-family="sans-serif" font-size="10px" fill="#000" opacity="1">0.96</text><text text-anchor="middle" transform="translate(322,15)" font-family="sans-serif" font-size="10px" fill="#000" opacity="1">0.98</text><text text-anchor="middle" transform="translate(350,15)" font-family="sans-serif" font-size="10px" fill="#000" opacity="1">1.00</text><text text-anchor="middle" transform="translate(378,15)" font-family="sans-serif" font-size="10px" fill="#000" opacity="1">1.02</text><text text-anchor="middle" transform="translate(406.00000000000006,15)" font-family="sans-serif" font-size="10px" fill="#000" opacity="1">1.04</text><text text-anchor="middle" transform="translate(434.00000000000006,15)" font-family="sans-serif" font-size="10px" fill="#000" opacity="1">1.06</text><text text-anchor="middle" transform="translate(462.0000000000001,15)" font-family="sans-serif" font-size="10px" fill="#000" opacity="1">1.08</text><text text-anchor="middle" transform="translate(490.0000000000001,15)" font-family="sans-serif" font-size="10px" fill="#000" opacity="1">1.10</text><text text-anchor="middle" transform="translate(518.0000000000001,15)" font-family="sans-serif" font-size="10px" fill="#000" opacity="1">1.12</text><text text-anchor="middle" transform="translate(545.9999999999999,15)" font-family="sans-serif" font-size="10px" fill="#000" opacity="1">1.14</text><text text-anchor="middle" transform="translate(573.9999999999999,15)" font-family="sans-serif" font-size="10px" fill="#000" opacity="1">1.16</text><text text-anchor="middle" transform="translate(601.9999999999999,15)" font-family="sans-serif" font-size="10px" fill="#000" opacity="1">1.18</text><text text-anchor="middle" transform="translate(629.9999999999999,15)" font-family="sans-serif" font-size="10px" fill="#000" opacity="1">1.20</text><text text-anchor="middle" transform="translate(658,15)" font-family="sans-serif" font-size="10px" fill="#000" opacity="1">1.22</text><text text-anchor="middle" transform="translate(686,15)" font-family="sans-serif" font-size="10px" fill="#000" opacity="1">1.24</text></g><g class="mark-rule role-axis-domain" pointer-events="none"><line transform="translate(0,0)" x2="700" y2="0" stroke="#888" stroke-width="1" opacity="1"></line></g><g class="mark-text role-axis-title" pointer-events="none"><text text-anchor="middle" transform="translate(350,30)" font-family="sans-serif" font-size="11px" font-weight="bold" fill="#000" opacity="1">Instantaneous reproduction number R(t), CI 0.975</text></g></g><path class="foreground" aria-hidden="true" d="" pointer-events="none" display="none"></path></g></g><g class="mark-group role-axis" role="graphics-symbol" aria-roledescription="axis" aria-label="Y-axis titled 'States' for a discrete scale with 27 values: AC, AL, AM, AP, BA, ending with TO"><g transform="translate(0.5,0.5)"><path class="background" aria-hidden="true" d="M0,0h0v0h0Z" pointer-events="none"></path><g><g class="mark-rule role-axis-tick" pointer-events="none"><line transform="translate(0,10)" x2="-5" y2="0" stroke="#888" stroke-width="1" opacity="1"></line><line transform="translate(0,30)" x2="-5" y2="0" stroke="#888" stroke-width="1" opacity="1"></line><line transform="translate(0,50)" x2="-5" y2="0" stroke="#888" stroke-width="1" opacity="1"></line><line transform="translate(0,70)" x2="-5" y2="0" stroke="#888" stroke-width="1" opacity="1"></line><line transform="translate(0,90)" x2="-5" y2="0" stroke="#888" stroke-width="1" opacity="1"></line><line transform="translate(0,110)" x2="-5" y2="0" stroke="#888" stroke-width="1" opacity="1"></line><line transform="translate(0,130)" x2="-5" y2="0" stroke="#888" stroke-width="1" opacity="1"></line><line transform="translate(0,150)" x2="-5" y2="0" stroke="#888" stroke-width="1" opacity="1"></line><line transform="translate(0,170)" x2="-5" y2="0" stroke="#888" stroke-width="1" opacity="1"></line><line transform="translate(0,190)" x2="-5" y2="0" stroke="#888" stroke-width="1" opacity="1"></line><line transform="translate(0,210)" x2="-5" y2="0" stroke="#888" stroke-width="1" opacity="1"></line><line transform="translate(0,230)" x2="-5" y2="0" stroke="#888" stroke-width="1" opacity="1"></line><line transform="translate(0,250)" x2="-5" y2="0" stroke="#888" stroke-width="1" opacity="1"></line><line transform="translate(0,270)" x2="-5" y2="0" stroke="#888" stroke-width="1" opacity="1"></line><line transform="translate(0,290)" x2="-5" y2="0" stroke="#888" stroke-width="1" opacity="1"></line><line transform="translate(0,310)" x2="-5" y2="0" stroke="#888" stroke-width="1" opacity="1"></line><line transform="translate(0,330)" x2="-5" y2="0" stroke="#888" stroke-width="1" opacity="1"></line><line transform="translate(0,350)" x2="-5" y2="0" stroke="#888" stroke-width="1" opacity="1"></line><line transform="translate(0,370)" x2="-5" y2="0" stroke="#888" stroke-width="1" opacity="1"></line><line transform="translate(0,390)" x2="-5" y2="0" stroke="#888" stroke-width="1" opacity="1"></line><line transform="translate(0,410)" x2="-5" y2="0" stroke="#888" stroke-width="1" opacity="1"></line><line transform="translate(0,430)" x2="-5" y2="0" stroke="#888" stroke-width="1" opacity="1"></line><line transform="translate(0,450)" x2="-5" y2="0" stroke="#888" stroke-width="1" opacity="1"></line><line transform="translate(0,470)" x2="-5" y2="0" stroke="#888" stroke-width="1" opacity="1"></line><line transform="translate(0,490)" x2="-5" y2="0" stroke="#888" stroke-width="1" opacity="1"></line><line transform="translate(0,510)" x2="-5" y2="0" stroke="#888" stroke-width="1" opacity="1"></line><line transform="translate(0,530)" x2="-5" y2="0" stroke="#888" stroke-width="1" opacity="1"></line></g><g class="mark-text role-axis-label" pointer-events="none"><text text-anchor="end" transform="translate(-7,12.5)" font-family="sans-serif" font-size="10px" fill="#000" opacity="1">AC</text><text text-anchor="end" transform="translate(-7,32.5)" font-family="sans-serif" font-size="10px" fill="#000" opacity="1">AL</text><text text-anchor="end" transform="translate(-7,52.5)" font-family="sans-serif" font-size="10px" fill="#000" opacity="1">AM</text><text text-anchor="end" transform="translate(-7,72.5)" font-family="sans-serif" font-size="10px" fill="#000" opacity="1">AP</text><text text-anchor="end" transform="translate(-7,92.5)" font-family="sans-serif" font-size="10px" fill="#000" opacity="1">BA</text><text text-anchor="end" transform="translate(-7,112.5)" font-family="sans-serif" font-size="10px" fill="#000" opacity="1">CE</text><text text-anchor="end" transform="translate(-7,132.5)" font-family="sans-serif" font-size="10px" fill="#000" opacity="1">DF</text><text text-anchor="end" transform="translate(-7,152.5)" font-family="sans-serif" font-size="10px" fill="#000" opacity="1">ES</text><text text-anchor="end" transform="translate(-7,172.5)" font-family="sans-serif" font-size="10px" fill="#000" opacity="1">GO</text><text text-anchor="end" transform="translate(-7,192.5)" font-family="sans-serif" font-size="10px" fill="#000" opacity="1">MA</text><text text-anchor="end" transform="translate(-7,212.5)" font-family="sans-serif" font-size="10px" fill="#000" opacity="1">MG</text><text text-anchor="end" transform="translate(-7,232.5)" font-family="sans-serif" font-size="10px" fill="#000" opacity="1">MS</text><text text-anchor="end" transform="translate(-7,252.5)" font-family="sans-serif" font-size="10px" fill="#000" opacity="1">MT</text><text text-anchor="end" transform="translate(-7,272.5)" font-family="sans-serif" font-size="10px" fill="#000" opacity="1">PA</text><text text-anchor="end" transform="translate(-7,292.5)" font-family="sans-serif" font-size="10px" fill="#000" opacity="1">PB</text><text text-anchor="end" transform="translate(-7,312.5)" font-family="sans-serif" font-size="10px" fill="#000" opacity="1">PE</text><text text-anchor="end" transform="translate(-7,332.5)" font-family="sans-serif" font-size="10px" fill="#000" opacity="1">PI</text><text text-anchor="end" transform="translate(-7,352.5)" font-family="sans-serif" font-size="10px" fill="#000" opacity="1">PR</text><text text-anchor="end" transform="translate(-7,372.5)" font-family="sans-serif" font-size="10px" fill="#000" opacity="1">RJ</text><text text-anchor="end" transform="translate(-7,392.5)" font-family="sans-serif" font-size="10px" fill="#000" opacity="1">RN</text><text text-anchor="end" transform="translate(-7,412.5)" font-family="sans-serif" font-size="10px" fill="#000" opacity="1">RO</text><text text-anchor="end" transform="translate(-7,432.5)" font-family="sans-serif" font-size="10px" fill="#000" opacity="1">RR</text><text text-anchor="end" transform="translate(-7,452.5)" font-family="sans-serif" font-size="10px" fill="#000" opacity="1">RS</text><text text-anchor="end" transform="translate(-7,472.5)" font-family="sans-serif" font-size="10px" fill="#000" opacity="1">SC</text><text text-anchor="end" transform="translate(-7,492.5)" font-family="sans-serif" font-size="10px" fill="#000" opacity="1">SE</text><text text-anchor="end" transform="translate(-7,512.5)" font-family="sans-serif" font-size="10px" fill="#000" opacity="1">SP</text><text text-anchor="end" transform="translate(-7,532.5)" font-family="sans-serif" font-size="10px" fill="#000" opacity="1">TO</text></g><g class="mark-rule role-axis-domain" pointer-events="none"><line transform="translate(0,0)" x2="0" y2="540" stroke="#888" stroke-width="1" opacity="1"></line></g><g class="mark-text role-axis-title" pointer-events="none"><text text-anchor="middle" transform="translate(-27,270) rotate(-90) translate(0,-2)" font-family="sans-serif" font-size="11px" font-weight="bold" fill="#000" opacity="1">States</text></g></g><path class="foreground" aria-hidden="true" d="" pointer-events="none" display="none"></path></g></g><g class="mark-symbol role-mark layer_0_marks" role="graphics-object" aria-roledescription="symbol mark container"><path aria-label="Instantaneous reproduction number R(t): 0.843822636801; States: DF" role="graphics-symbol" aria-roledescription="point" transform="translate(131.35169152162663,130)" d="M2.7386127875258306,0A2.7386127875258306,2.7386127875258306,0,1,1,-2.7386127875258306,0A2.7386127875258306,2.7386127875258306,0,1,1,2.7386127875258306,0" stroke="#4c78a8" stroke-width="2" opacity="0.7"></path><path aria-label="Instantaneous reproduction number R(t): 0.850192709228; States: RO" role="graphics-symbol" aria-roledescription="point" transform="translate(140.26979291953333,410)" d="M2.7386127875258306,0A2.7386127875258306,2.7386127875258306,0,1,1,-2.7386127875258306,0A2.7386127875258306,2.7386127875258306,0,1,1,2.7386127875258306,0" stroke="#4c78a8" stroke-width="2" opacity="0.7"></path><path aria-label="Instantaneous reproduction number R(t): 0.85293720462; States: RJ" role="graphics-symbol" aria-roledescription="point" transform="translate(144.11208646799534,370)" d="M2.7386127875258306,0A2.7386127875258306,2.7386127875258306,0,1,1,-2.7386127875258306,0A2.7386127875258306,2.7386127875258306,0,1,1,2.7386127875258306,0" stroke="#4c78a8" stroke-width="2" opacity="0.7"></path><path aria-label="Instantaneous reproduction number R(t): 0.859813545092; States: RN" role="graphics-symbol" aria-roledescription="point" transform="translate(153.73896312930006,390)" d="M2.7386127875258306,0A2.7386127875258306,2.7386127875258306,0,1,1,-2.7386127875258306,0A2.7386127875258306,2.7386127875258306,0,1,1,2.7386127875258306,0" stroke="#4c78a8" stroke-width="2" opacity="0.7"></path><path aria-label="Instantaneous reproduction number R(t): 0.860936091492; States: AM" role="graphics-symbol" aria-roledescription="point" transform="translate(155.3105280888482,50)" d="M2.7386127875258306,0A2.7386127875258306,2.7386127875258306,0,1,1,-2.7386127875258306,0A2.7386127875258306,2.7386127875258306,0,1,1,2.7386127875258306,0" stroke="#4c78a8" stroke-width="2" opacity="0.7"></path><path aria-label="Instantaneous reproduction number R(t): 0.876897572402; States: GO" role="graphics-symbol" aria-roledescription="point" transform="translate(177.6566013627895,170)" d="M2.7386127875258306,0A2.7386127875258306,2.7386127875258306,0,1,1,-2.7386127875258306,0A2.7386127875258306,2.7386127875258306,0,1,1,2.7386127875258306,0" stroke="#4c78a8" stroke-width="2" opacity="0.7"></path><path aria-label="Instantaneous reproduction number R(t): 0.886362103334; States: ES" role="graphics-symbol" aria-roledescription="point" transform="translate(190.90694466803956,150)" d="M2.7386127875258306,0A2.7386127875258306,2.7386127875258306,0,1,1,-2.7386127875258306,0A2.7386127875258306,2.7386127875258306,0,1,1,2.7386127875258306,0" stroke="#4c78a8" stroke-width="2" opacity="0.7"></path><path aria-label="Instantaneous reproduction number R(t): 0.944940144278; States: PB" role="graphics-symbol" aria-roledescription="point" transform="translate(272.9162019893629,290)" d="M2.7386127875258306,0A2.7386127875258306,2.7386127875258306,0,1,1,-2.7386127875258306,0A2.7386127875258306,2.7386127875258306,0,1,1,2.7386127875258306,0" stroke="#4c78a8" stroke-width="2" opacity="0.7"></path><path aria-label="Instantaneous reproduction number R(t): 0.947941021643; States: BA" role="graphics-symbol" aria-roledescription="point" transform="translate(277.1174303005732,90)" d="M2.7386127875258306,0A2.7386127875258306,2.7386127875258306,0,1,1,-2.7386127875258306,0A2.7386127875258306,2.7386127875258306,0,1,1,2.7386127875258306,0" stroke="#4c78a8" stroke-width="2" opacity="0.7"></path><path aria-label="Instantaneous reproduction number R(t): 0.958321853721; States: MT" role="graphics-symbol" aria-roledescription="point" transform="translate(291.65059520871637,250)" d="M2.7386127875258306,0A2.7386127875258306,2.7386127875258306,0,1,1,-2.7386127875258306,0A2.7386127875258306,2.7386127875258306,0,1,1,2.7386127875258306,0" stroke="#4c78a8" stroke-width="2" opacity="0.7"></path><path aria-label="Instantaneous reproduction number R(t): 0.958498068718; States: AP" role="graphics-symbol" aria-roledescription="point" transform="translate(291.8972962045499,70)" d="M2.7386127875258306,0A2.7386127875258306,2.7386127875258306,0,1,1,-2.7386127875258306,0A2.7386127875258306,2.7386127875258306,0,1,1,2.7386127875258306,0" stroke="#4c78a8" stroke-width="2" opacity="0.7"></path><path aria-label="Instantaneous reproduction number R(t): 0.958654653942; States: CE" role="graphics-symbol" aria-roledescription="point" transform="translate(292.11651551857307,110)" d="M2.7386127875258306,0A2.7386127875258306,2.7386127875258306,0,1,1,-2.7386127875258306,0A2.7386127875258306,2.7386127875258306,0,1,1,2.7386127875258306,0" stroke="#4c78a8" stroke-width="2" opacity="0.7"></path><path aria-label="Instantaneous reproduction number R(t): 0.973446158723; States: MA" role="graphics-symbol" aria-roledescription="point" transform="translate(312.8246222127493,190)" d="M2.7386127875258306,0A2.7386127875258306,2.7386127875258306,0,1,1,-2.7386127875258306,0A2.7386127875258306,2.7386127875258306,0,1,1,2.7386127875258306,0" stroke="#4c78a8" stroke-width="2" opacity="0.7"></path><path aria-label="Instantaneous reproduction number R(t): 0.982937407417; States: AC" role="graphics-symbol" aria-roledescription="point" transform="translate(326.11237038346377,10)" d="M2.7386127875258306,0A2.7386127875258306,2.7386127875258306,0,1,1,-2.7386127875258306,0A2.7386127875258306,2.7386127875258306,0,1,1,2.7386127875258306,0" stroke="#4c78a8" stroke-width="2" opacity="0.7"></path><path aria-label="Instantaneous reproduction number R(t): 0.98484599782; States: PA" role="graphics-symbol" aria-roledescription="point" transform="translate(328.7843969475627,270)" d="M2.7386127875258306,0A2.7386127875258306,2.7386127875258306,0,1,1,-2.7386127875258306,0A2.7386127875258306,2.7386127875258306,0,1,1,2.7386127875258306,0" stroke="#4c78a8" stroke-width="2" opacity="0.7"></path><path aria-label="Instantaneous reproduction number R(t): 0.987159068411; States: AL" role="graphics-symbol" aria-roledescription="point" transform="translate(332.02269577576556,30)" d="M2.7386127875258306,0A2.7386127875258306,2.7386127875258306,0,1,1,-2.7386127875258306,0A2.7386127875258306,2.7386127875258306,0,1,1,2.7386127875258306,0" stroke="#4c78a8" stroke-width="2" opacity="0.7"></path><path aria-label="Instantaneous reproduction number R(t): 0.988654964294; States: PI" role="graphics-symbol" aria-roledescription="point" transform="translate(334.1169500114474,330)" d="M2.7386127875258306,0A2.7386127875258306,2.7386127875258306,0,1,1,-2.7386127875258306,0A2.7386127875258306,2.7386127875258306,0,1,1,2.7386127875258306,0" stroke="#4c78a8" stroke-width="2" opacity="0.7"></path><path aria-label="Instantaneous reproduction number R(t): 0.996597638247; States: PE" role="graphics-symbol" aria-roledescription="point" transform="translate(345.236693545723,310)" d="M2.7386127875258306,0A2.7386127875258306,2.7386127875258306,0,1,1,-2.7386127875258306,0A2.7386127875258306,2.7386127875258306,0,1,1,2.7386127875258306,0" stroke="#4c78a8" stroke-width="2" opacity="0.7"></path><path aria-label="Instantaneous reproduction number R(t): 1.0182232967; States: RS" role="graphics-symbol" aria-roledescription="point" transform="translate(375.5126153800594,450)" d="M2.7386127875258306,0A2.7386127875258306,2.7386127875258306,0,1,1,-2.7386127875258306,0A2.7386127875258306,2.7386127875258306,0,1,1,2.7386127875258306,0" stroke="#4c78a8" stroke-width="2" opacity="0.7"></path><path aria-label="Instantaneous reproduction number R(t): 1.02230182878; States: PR" role="graphics-symbol" aria-roledescription="point" transform="translate(381.22256029064727,350)" d="M2.7386127875258306,0A2.7386127875258306,2.7386127875258306,0,1,1,-2.7386127875258306,0A2.7386127875258306,2.7386127875258306,0,1,1,2.7386127875258306,0" stroke="#4c78a8" stroke-width="2" opacity="0.7"></path><path aria-label="Instantaneous reproduction number R(t): 1.06287778411; States: SP" role="graphics-symbol" aria-roledescription="point" transform="translate(438.02889774709934,510)" d="M2.7386127875258306,0A2.7386127875258306,2.7386127875258306,0,1,1,-2.7386127875258306,0A2.7386127875258306,2.7386127875258306,0,1,1,2.7386127875258306,0" stroke="#4c78a8" stroke-width="2" opacity="0.7"></path><path aria-label="Instantaneous reproduction number R(t): 1.06333464418; States: MG" role="graphics-symbol" aria-roledescription="point" transform="translate(438.6685018475727,210)" d="M2.7386127875258306,0A2.7386127875258306,2.7386127875258306,0,1,1,-2.7386127875258306,0A2.7386127875258306,2.7386127875258306,0,1,1,2.7386127875258306,0" stroke="#4c78a8" stroke-width="2" opacity="0.7"></path><path aria-label="Instantaneous reproduction number R(t): 1.08880280785; States: RR" role="graphics-symbol" aria-roledescription="point" transform="translate(474.32393099453833,430)" d="M2.7386127875258306,0A2.7386127875258306,2.7386127875258306,0,1,1,-2.7386127875258306,0A2.7386127875258306,2.7386127875258306,0,1,1,2.7386127875258306,0" stroke="#4c78a8" stroke-width="2" opacity="0.7"></path><path aria-label="Instantaneous reproduction number R(t): 1.08996087292; States: TO" role="graphics-symbol" aria-roledescription="point" transform="translate(475.94522209198914,530)" d="M2.7386127875258306,0A2.7386127875258306,2.7386127875258306,0,1,1,-2.7386127875258306,0A2.7386127875258306,2.7386127875258306,0,1,1,2.7386127875258306,0" stroke="#4c78a8" stroke-width="2" opacity="0.7"></path><path aria-label="Instantaneous reproduction number R(t): 1.12496372681; States: SC" role="graphics-symbol" aria-roledescription="point" transform="translate(524.9492175346169,470)" d="M2.7386127875258306,0A2.7386127875258306,2.7386127875258306,0,1,1,-2.7386127875258306,0A2.7386127875258306,2.7386127875258306,0,1,1,2.7386127875258306,0" stroke="#4c78a8" stroke-width="2" opacity="0.7"></path><path aria-label="Instantaneous reproduction number R(t): 1.14008241716; States: SE" role="graphics-symbol" aria-roledescription="point" transform="translate(546.115384026769,490)" d="M2.7386127875258306,0A2.7386127875258306,2.7386127875258306,0,1,1,-2.7386127875258306,0A2.7386127875258306,2.7386127875258306,0,1,1,2.7386127875258306,0" stroke="#4c78a8" stroke-width="2" opacity="0.7"></path><path aria-label="Instantaneous reproduction number R(t): 1.1501051541; States: MS" role="graphics-symbol" aria-roledescription="point" transform="translate(560.1472157452412,230)" d="M2.7386127875258306,0A2.7386127875258306,2.7386127875258306,0,1,1,-2.7386127875258306,0A2.7386127875258306,2.7386127875258306,0,1,1,2.7386127875258306,0" stroke="#4c78a8" stroke-width="2" opacity="0.7"></path></g><g class="mark-rule role-mark layer_1_marks" role="graphics-object" aria-roledescription="rule mark container"><line aria-label="a: 1" role="graphics-symbol" aria-roledescription="rule mark" transform="translate(350,0)" x2="0" y2="540" stroke="black" stroke-width="0.2"></line><line aria-label="a: 1" role="graphics-symbol" aria-roledescription="rule mark" transform="translate(350,0)" x2="0" y2="540" stroke="black" stroke-width="0.2"></line><line aria-label="a: 1" role="graphics-symbol" aria-roledescription="rule mark" transform="translate(350,0)" x2="0" y2="540" stroke="black" stroke-width="0.2"></line><line aria-label="a: 1" role="graphics-symbol" aria-roledescription="rule mark" transform="translate(350,0)" x2="0" y2="540" stroke="black" stroke-width="0.2"></line><line aria-label="a: 1" role="graphics-symbol" aria-roledescription="rule mark" transform="translate(350,0)" x2="0" y2="540" stroke="black" stroke-width="0.2"></line><line aria-label="a: 1" role="graphics-symbol" aria-roledescription="rule mark" transform="translate(350,0)" x2="0" y2="540" stroke="black" stroke-width="0.2"></line><line aria-label="a: 1" role="graphics-symbol" aria-roledescription="rule mark" transform="translate(350,0)" x2="0" y2="540" stroke="black" stroke-width="0.2"></line><line aria-label="a: 1" role="graphics-symbol" aria-roledescription="rule mark" transform="translate(350,0)" x2="0" y2="540" stroke="black" stroke-width="0.2"></line><line aria-label="a: 1" role="graphics-symbol" aria-roledescription="rule mark" transform="translate(350,0)" x2="0" y2="540" stroke="black" stroke-width="0.2"></line><line aria-label="a: 1" role="graphics-symbol" aria-roledescription="rule mark" transform="translate(350,0)" x2="0" y2="540" stroke="black" stroke-width="0.2"></line><line aria-label="a: 1" role="graphics-symbol" aria-roledescription="rule mark" transform="translate(350,0)" x2="0" y2="540" stroke="black" stroke-width="0.2"></line><line aria-label="a: 1" role="graphics-symbol" aria-roledescription="rule mark" transform="translate(350,0)" x2="0" y2="540" stroke="black" stroke-width="0.2"></line><line aria-label="a: 1" role="graphics-symbol" aria-roledescription="rule mark" transform="translate(350,0)" x2="0" y2="540" stroke="black" stroke-width="0.2"></line><line aria-label="a: 1" role="graphics-symbol" aria-roledescription="rule mark" transform="translate(350,0)" x2="0" y2="540" stroke="black" stroke-width="0.2"></line><line aria-label="a: 1" role="graphics-symbol" aria-roledescription="rule mark" transform="translate(350,0)" x2="0" y2="540" stroke="black" stroke-width="0.2"></line><line aria-label="a: 1" role="graphics-symbol" aria-roledescription="rule mark" transform="translate(350,0)" x2="0" y2="540" stroke="black" stroke-width="0.2"></line><line aria-label="a: 1" role="graphics-symbol" aria-roledescription="rule mark" transform="translate(350,0)" x2="0" y2="540" stroke="black" stroke-width="0.2"></line><line aria-label="a: 1" role="graphics-symbol" aria-roledescription="rule mark" transform="translate(350,0)" x2="0" y2="540" stroke="black" stroke-width="0.2"></line><line aria-label="a: 1" role="graphics-symbol" aria-roledescription="rule mark" transform="translate(350,0)" x2="0" y2="540" stroke="black" stroke-width="0.2"></line><line aria-label="a: 1" role="graphics-symbol" aria-roledescription="rule mark" transform="translate(350,0)" x2="0" y2="540" stroke="black" stroke-width="0.2"></line><line aria-label="a: 1" role="graphics-symbol" aria-roledescription="rule mark" transform="translate(350,0)" x2="0" y2="540" stroke="black" stroke-width="0.2"></line><line aria-label="a: 1" role="graphics-symbol" aria-roledescription="rule mark" transform="translate(350,0)" x2="0" y2="540" stroke="black" stroke-width="0.2"></line><line aria-label="a: 1" role="graphics-symbol" aria-roledescription="rule mark" transform="translate(350,0)" x2="0" y2="540" stroke="black" stroke-width="0.2"></line><line aria-label="a: 1" role="graphics-symbol" aria-roledescription="rule mark" transform="translate(350,0)" x2="0" y2="540" stroke="black" stroke-width="0.2"></line><line aria-label="a: 1" role="graphics-symbol" aria-roledescription="rule mark" transform="translate(350,0)" x2="0" y2="540" stroke="black" stroke-width="0.2"></line><line aria-label="a: 1" role="graphics-symbol" aria-roledescription="rule mark" transform="translate(350,0)" x2="0" y2="540" stroke="black" stroke-width="0.2"></line><line aria-label="a: 1" role="graphics-symbol" aria-roledescription="rule mark" transform="translate(350,0)" x2="0" y2="540" stroke="black" stroke-width="0.2"></line></g><g class="mark-rule role-mark layer_2_marks" role="graphics-object" aria-roledescription="rule mark container"><line aria-label="CI 0.975: 0.819316373045; upper_Quantile.0.025(R): 0.873236460717; index: DF; Quantile.0.975(R): 0.873236460717; Quantile.0.025(R): 0.819316373045" role="graphics-symbol" aria-roledescription="errorbar" transform="translate(97.04292226345672,130)" x2="75.48812274052563" y2="0" stroke="blue" stroke-width="0.6"></line><line aria-label="CI 0.975: 0.81422030579; upper_Quantile.0.025(R): 0.88968983535; index: RO; Quantile.0.975(R): 0.88968983535; Quantile.0.025(R): 0.81422030579" role="graphics-symbol" aria-roledescription="errorbar" transform="translate(89.90842810665288,410)" x2="105.65734138310981" y2="0" stroke="blue" stroke-width="0.6"></line><line aria-label="CI 0.975: 0.812237083246; upper_Quantile.0.025(R): 0.88919727949; index: RJ; Quantile.0.975(R): 0.88919727949; Quantile.0.025(R): 0.812237083246" role="graphics-symbol" aria-roledescription="errorbar" transform="translate(87.13191654509131,370)" x2="107.74427474026604" y2="0" stroke="blue" stroke-width="0.6"></line><line aria-label="CI 0.975: 0.796860032921; upper_Quantile.0.025(R): 0.932834118623; index: RN; Quantile.0.975(R): 0.932834118623; Quantile.0.025(R): 0.796860032921" role="graphics-symbol" aria-roledescription="errorbar" transform="translate(65.60404608897605,390)" x2="190.36371998280836" y2="0" stroke="blue" stroke-width="0.6"></line><line aria-label="CI 0.975: 0.836862905905; upper_Quantile.0.025(R): 0.886343163556; index: AM; Quantile.0.975(R): 0.886343163556; Quantile.0.025(R): 0.836862905905" role="graphics-symbol" aria-roledescription="errorbar" transform="translate(121.60806826664268,50)" x2="69.27236071228603" y2="0" stroke="blue" stroke-width="0.6"></line><line aria-label="CI 0.975: 0.84910060479; upper_Quantile.0.025(R): 0.903460529804; index: GO; Quantile.0.975(R): 0.903460529804; Quantile.0.025(R): 0.84910060479" role="graphics-symbol" aria-roledescription="errorbar" transform="translate(138.74084670626928,170)" x2="76.10389501869304" y2="0" stroke="blue" stroke-width="0.6"></line><line aria-label="CI 0.975: 0.864944863618; upper_Quantile.0.025(R): 0.908315116368; index: ES; Quantile.0.975(R): 0.908315116368; Quantile.0.025(R): 0.864944863618" role="graphics-symbol" aria-roledescription="errorbar" transform="translate(160.92280906470782,150)" x2="60.71835385089304" y2="0" stroke="blue" stroke-width="0.6"></line><line aria-label="CI 0.975: 0.923580809091; upper_Quantile.0.025(R): 0.966764428084; index: PB; Quantile.0.975(R): 0.966764428084; Quantile.0.025(R): 0.923580809091" role="graphics-symbol" aria-roledescription="errorbar" transform="translate(243.01313272707023,290)" x2="60.457066590643706" y2="0" stroke="blue" stroke-width="0.6"></line><line aria-label="CI 0.975: 0.929975920219; upper_Quantile.0.025(R): 0.965892461401; index: BA; Quantile.0.975(R): 0.965892461401; Quantile.0.025(R): 0.929975920219" role="graphics-symbol" aria-roledescription="errorbar" transform="translate(251.9662883063827,90)" x2="50.2831576556722" y2="0" stroke="blue" stroke-width="0.6"></line><line aria-label="CI 0.975: 0.924538311954; upper_Quantile.0.025(R): 0.992538195251; index: MT; Quantile.0.975(R): 0.992538195251; Quantile.0.025(R): 0.924538311954" role="graphics-symbol" aria-roledescription="errorbar" transform="translate(244.35363673558157,250)" x2="95.19983661540164" y2="0" stroke="blue" stroke-width="0.6"></line><line aria-label="CI 0.975: 0.869857417167; upper_Quantile.0.025(R): 1.03946260128; index: AP; Quantile.0.975(R): 1.03946260128; Quantile.0.025(R): 0.869857417167" role="graphics-symbol" aria-roledescription="errorbar" transform="translate(167.80038403379152,70)" x2="237.44725775970917" y2="0" stroke="blue" stroke-width="0.6"></line><line aria-label="CI 0.975: 0.9396140122; upper_Quantile.0.025(R): 0.977563533413; index: CE; Quantile.0.975(R): 0.977563533413; Quantile.0.025(R): 0.9396140122" role="graphics-symbol" aria-roledescription="errorbar" transform="translate(265.4596170798894,110)" x2="53.12932969890704" y2="0" stroke="blue" stroke-width="0.6"></line><line aria-label="CI 0.975: 0.942782189228; upper_Quantile.0.025(R): 1.00166724878; index: MA; Quantile.0.975(R): 1.00166724878; Quantile.0.025(R): 0.942782189228" role="graphics-symbol" aria-roledescription="errorbar" transform="translate(269.89506491884913,190)" x2="82.43908336944668" y2="0" stroke="blue" stroke-width="0.6"></line><line aria-label="CI 0.975: 0.934079070542; upper_Quantile.0.025(R): 1.03323689615; index: AC; Quantile.0.975(R): 1.03323689615; Quantile.0.025(R): 0.934079070542" role="graphics-symbol" aria-roledescription="errorbar" transform="translate(257.71069875901156,10)" x2="138.82095584648005" y2="0" stroke="blue" stroke-width="0.6"></line><line aria-label="CI 0.975: 0.95914683563; upper_Quantile.0.025(R): 1.01129674406; index: PA; Quantile.0.975(R): 1.01129674406; Quantile.0.025(R): 0.95914683563" role="graphics-symbol" aria-roledescription="errorbar" transform="translate(292.8055698816769,270)" x2="73.00987180280129" y2="0" stroke="blue" stroke-width="0.6"></line><line aria-label="CI 0.975: 0.960737870862; upper_Quantile.0.025(R): 1.01392756578; index: AL; Quantile.0.975(R): 1.01392756578; Quantile.0.025(R): 0.960737870862" role="graphics-symbol" aria-roledescription="errorbar" transform="translate(295.0330192072764,30)" x2="74.46557288145885" y2="0" stroke="blue" stroke-width="0.6"></line><line aria-label="CI 0.975: 0.962908453757; upper_Quantile.0.025(R): 1.0152253811; index: PI; Quantile.0.975(R): 1.0152253811; Quantile.0.025(R): 0.962908453757" role="graphics-symbol" aria-roledescription="errorbar" transform="translate(298.0718352598155,330)" x2="73.243698283762" y2="0" stroke="blue" stroke-width="0.6"></line><line aria-label="CI 0.975: 0.965557351768; upper_Quantile.0.025(R): 1.02705561766; index: PE; Quantile.0.975(R): 1.02705561766; Quantile.0.025(R): 0.965557351768" role="graphics-symbol" aria-roledescription="errorbar" transform="translate(301.7802924751026,310)" x2="86.0975722419771" y2="0" stroke="blue" stroke-width="0.6"></line><line aria-label="CI 0.975: 0.991810442687; upper_Quantile.0.025(R): 1.04592133767; index: RS; Quantile.0.975(R): 1.04592133767; Quantile.0.025(R): 0.991810442687" role="graphics-symbol" aria-roledescription="errorbar" transform="translate(338.53461976160713,450)" x2="75.75525298022058" y2="0" stroke="blue" stroke-width="0.6"></line><line aria-label="CI 0.975: 0.991877557423; upper_Quantile.0.025(R): 1.0557801726; index: PR; Quantile.0.975(R): 1.0557801726; Quantile.0.025(R): 0.991877557423" role="graphics-symbol" aria-roledescription="errorbar" transform="translate(338.62858039232975,350)" x2="89.46366124878875" y2="0" stroke="blue" stroke-width="0.6"></line><line aria-label="CI 0.975: 1.04894600269; upper_Quantile.0.025(R): 1.08122029711; index: SP; Quantile.0.975(R): 1.08122029711; Quantile.0.025(R): 1.04894600269" role="graphics-symbol" aria-roledescription="errorbar" transform="translate(418.524403770601,510)" x2="45.184012179906176" y2="0" stroke="blue" stroke-width="0.6"></line><line aria-label="CI 0.975: 1.03785364569; upper_Quantile.0.025(R): 1.08933388595; index: MG; Quantile.0.975(R): 1.08933388595; Quantile.0.025(R): 1.03785364569" role="graphics-symbol" aria-roledescription="errorbar" transform="translate(402.99510396213543,210)" x2="72.07233637349572" y2="0" stroke="blue" stroke-width="0.6"></line><line aria-label="CI 0.975: 1.02621621436; upper_Quantile.0.025(R): 1.16376660508; index: RR; Quantile.0.975(R): 1.16376660508; Quantile.0.025(R): 1.02621621436" role="graphics-symbol" aria-roledescription="errorbar" transform="translate(386.70270009979527,430)" x2="192.5705470186274" y2="0" stroke="blue" stroke-width="0.6"></line><line aria-label="CI 0.975: 1.03736255501; upper_Quantile.0.025(R): 1.14626604681; index: TO; Quantile.0.975(R): 1.14626604681; Quantile.0.025(R): 1.03736255501" role="graphics-symbol" aria-roledescription="errorbar" transform="translate(402.3075770135938,530)" x2="152.464888513863" y2="0" stroke="blue" stroke-width="0.6"></line><line aria-label="CI 0.975: 1.08921090109; upper_Quantile.0.025(R): 1.16320323033; index: SC; Quantile.0.975(R): 1.16320323033; Quantile.0.025(R): 1.08921090109" role="graphics-symbol" aria-roledescription="errorbar" transform="translate(474.8952615327481,470)" x2="103.5892609267487" y2="0" stroke="blue" stroke-width="0.6"></line><line aria-label="CI 0.975: 1.08975173457; upper_Quantile.0.025(R): 1.18415041444; index: SE; Quantile.0.975(R): 1.18415041444; Quantile.0.025(R): 1.08975173457" role="graphics-symbol" aria-roledescription="errorbar" transform="translate(475.6524283996073,490)" x2="132.15815181329856" y2="0" stroke="blue" stroke-width="0.6"></line><line aria-label="CI 0.975: 1.08448820157; upper_Quantile.0.025(R): 1.22045112732; index: MS; Quantile.0.975(R): 1.22045112732; Quantile.0.025(R): 1.08448820157" role="graphics-symbol" aria-roledescription="errorbar" transform="translate(468.28348219678253,230)" x2="190.34809604958866" y2="0" stroke="blue" stroke-width="0.6"></line></g><g class="mark-group role-title"><g transform="translate(350,-17.2)"><path class="background" aria-hidden="true" d="M0,0h0v0h0Z" pointer-events="none"></path><g><g class="mark-text role-title-text" role="graphics-symbol" aria-roledescription="title" aria-label="Title text 'Instantaneous reproduction number estimate for all states in Brazil'" pointer-events="none"><text text-anchor="middle" transform="translate(0,10)" font-family="sans-serif" font-size="13px" font-weight="bold" fill="#000" opacity="1">Instantaneous reproduction number estimate for all states in Brazil</text></g></g><path class="foreground" aria-hidden="true" d="" pointer-events="none" display="none"></path></g></g></g><path class="foreground" aria-hidden="true" d="" display="none"></path></g></g></g></svg>