<svg class="marks" width="749" height="600" viewBox="0 0 749 600" version="1.1" xmlns="http://www.w3.org/2000/svg" xmlns:xlink="http://www.w3.org/1999/xlink"><rect width="749" height="600" fill="white"></rect><g fill="none" stroke-miterlimit="10" transform="translate(43,23)"><g class="mark-group role-frame root" role="graphics-object" aria-roledescription="group mark container"><g transform="translate(0,0)"><path class="background" aria-hidden="true" d="M0.5,0.5h700v540h-700Z"></path><g><g class="mark-group role-axis" aria-hidden="true"><g transform="translate(0.5,0.5)"><path class="background" aria-hidden="true" d="M0,0h0v0h0Z" pointer-events="none"></path><g><g class="mark-rule role-axis-grid" pointer-events="none"><line transform="translate(0,10)" x2="700" y2="0" stroke="#ddd" stroke-width="1" opacity="1"></line><line transform="translate(0,30)" x2="700" y2="0" stroke="#ddd" stroke-width="1" opacity="1"></line><line transform="translate(0,50)" x2="700" y2="0" stroke="#ddd" stroke-width="1" opacity="1"></line><line transform="translate(0,70)" x2="700" y2="0" stroke="#ddd" stroke-width="1" opacity="1"></line><line transform="translate(0,90)" x2="700" y2="0" stroke="#ddd" stroke-width="1" opacity="1"></line><line transform="translate(0,110)" x2="700" y2="0" stroke="#ddd" stroke-width="1" opacity="1"></line><line transform="translate(0,130)" x2="700" y2="0" stroke="#ddd" stroke-width="1" opacity="1"></line><line transform="translate(0,150)" x2="700" y2="0" stroke="#ddd" stroke-width="1" opacity="1"></line><line transform="translate(0,170)" x2="700" y2="0" stroke="#ddd" stroke-width="1" opacity="1"></line><line transform="translate(0,190)" x2="700" y2="0" stroke="#ddd" stroke-width="1" opacity="1"></line><line transform="translate(0,210)" x2="700" y2="0" stroke="#ddd" stroke-width="1" opacity="1"></line><line transform="translate(0,230)" x2="700" y2="0" stroke="#ddd" stroke-width="1" opacity="1"></line><line transform="translate(0,250)" x2="700" y2="0" stroke="#ddd" stroke-width="1" opacity="1"></line><line transform="translate(0,270)" x2="700" y2="0" stroke="#ddd" stroke-width="1" opacity="1"></line><line transform="translate(0,290)" x2="700" y2="0" stroke="#ddd" stroke-width="1" opacity="1"></line><line transform="translate(0,310)" x2="700" y2="0" stroke="#ddd" stroke-width="1" opacity="1"></line><line transform="translate(0,330)" x2="700" y2="0" stroke="#ddd" stroke-width="1" opacity="1"></line><line transform="translate(0,350)" x2="700" y2="0" stroke="#ddd" stroke-width="1" opacity="1"></line><line transform="translate(0,370)" x2="700" y2="0" stroke="#ddd" stroke-width="1" opacity="1"></line><line transform="translate(0,390)" x2="700" y2="0" stroke="#ddd" stroke-width="1" opacity="1"></line><line transform="translate(0,410)" x2="700" y2="0" stroke="#ddd" stroke-width="1" opacity="1"></line><line transform="translate(0,430)" x2="700" y2="0" stroke="#ddd" stroke-width="1" opacity="1"></line><line transform="translate(0,450)" x2="700" y2="0" stroke="#ddd" stroke-width="1" opacity="1"></line><line transform="translate(0,470)" x2="700" y2="0" stroke="#ddd" stroke-width="1" opacity="1"></line><line transform="translate(0,490)" x2="700" y2="0" stroke="#ddd" stroke-width="1" opacity="1"></line><line transform="translate(0,510)" x2="700" y2="0" stroke="#ddd" stroke-width="1" opacity="1"></line><line transform="translate(0,530)" x2="700" y2="0" stroke="#ddd" stroke-width="1" opacity="1"></line></g></g><path class="foreground" aria-hidden="true" d="" pointer-events="none" display="none"></path></g></g><g class="mark-group role-axis" role="graphics-symbol" aria-roledescription="axis" aria-label="X-axis titled 'Instantaneous reproduction number R(t), CI 0.975' for a linear scale with values from 0.6 to 3.6"><g transform="translate(0.5,540.5)"><path class="background" aria-hidden="true" d="M0,0h0v0h0Z" pointer-events="none"></path><g><g class="mark-rule role-axis-tick" pointer-events="none"><line transform="translate(0,0)" x2="0" y2="5" stroke="#888" stroke-width="1" opacity="1"></line><line transform="translate(47,0)" x2="0" y2="5" stroke="#888" stroke-width="1" opacity="1"></line><line transform="translate(93,0)" x2="0" y2="5" stroke="#888" stroke-width="1" opacity="1"></line><line transform="translate(140,0)" x2="0" y2="5" stroke="#888" stroke-width="1" opacity="1"></line><line transform="translate(187,0)" x2="0" y2="5" stroke="#888" stroke-width="1" opacity="1"></line><line transform="translate(233,0)" x2="0" y2="5" stroke="#888" stroke-width="1" opacity="1"></line><line transform="translate(280,0)" x2="0" y2="5" stroke="#888" stroke-width="1" opacity="1"></line><line transform="translate(327,0)" x2="0" y2="5" stroke="#888" stroke-width="1" opacity="1"></line><line transform="translate(373,0)" x2="0" y2="5" stroke="#888" stroke-width="1" opacity="1"></line><line transform="translate(420,0)" x2="0" y2="5" stroke="#888" stroke-width="1" opacity="1"></line><line transform="translate(467,0)" x2="0" y2="5" stroke="#888" stroke-width="1" opacity="1"></line><line transform="translate(513,0)" x2="0" y2="5" stroke="#888" stroke-width="1" opacity="1"></line><line transform="translate(560,0)" x2="0" y2="5" stroke="#888" stroke-width="1" opacity="1"></line><line transform="translate(607,0)" x2="0" y2="5" stroke="#888" stroke-width="1" opacity="1"></line><line transform="translate(653,0)" x2="0" y2="5" stroke="#888" stroke-width="1" opacity="1"></line><line transform="translate(700,0)" x2="0" y2="5" stroke="#888" stroke-width="1" opacity="1"></line></g><g class="mark-text role-axis-label" pointer-events="none"><text text-anchor="start" transform="translate(0,15)" font-family="sans-serif" font-size="10px" fill="#000" opacity="1">0.6</text><text text-anchor="middle" transform="translate(46.666666666666686,15)" font-family="sans-serif" font-size="10px" fill="#000" opacity="1">0.8</text><text text-anchor="middle" transform="translate(93.33333333333333,15)" font-family="sans-serif" font-size="10px" fill="#000" opacity="1">1.0</text><text text-anchor="middle" transform="translate(140,15)" font-family="sans-serif" font-size="10px" fill="#000" opacity="1">1.2</text><text text-anchor="middle" transform="translate(186.66666666666666,15)" font-family="sans-serif" font-size="10px" fill="#000" opacity="1">1.4</text><text text-anchor="middle" transform="translate(233.33333333333331,15)" font-family="sans-serif" font-size="10px" fill="#000" opacity="1">1.6</text><text text-anchor="middle" transform="translate(280.00000000000006,15)" font-family="sans-serif" font-size="10px" fill="#000" opacity="1">1.8</text><text text-anchor="middle" transform="translate(326.66666666666663,15)" font-family="sans-serif" font-size="10px" fill="#000" opacity="1">2.0</text><text text-anchor="middle" transform="translate(373.3333333333333,15)" font-family="sans-serif" font-size="10px" fill="#000" opacity="1">2.2</text><text text-anchor="middle" transform="translate(420,15)" font-family="sans-serif" font-size="10px" fill="#000" opacity="1">2.4</text><text text-anchor="middle" transform="translate(466.66666666666663,15)" font-family="sans-serif" font-size="10px" fill="#000" opacity="1">2.6</text><text text-anchor="middle" transform="translate(513.3333333333333,15)" font-family="sans-serif" font-size="10px" fill="#000" opacity="1">2.8</text><text text-anchor="middle" transform="translate(560,15)" font-family="sans-serif" font-size="10px" fill="#000" opacity="1">3.0</text><text text-anchor="middle" transform="translate(606.6666666666667,15)" font-family="sans-serif" font-size="10px" fill="#000" opacity="1">3.2</text><text text-anchor="middle" transform="translate(653.3333333333333,15)" font-family="sans-serif" font-size="10px" fill="#000" opacity="1">3.4</text><text text-anchor="end" transform="translate(700,15)" font-family="sans-serif" font-size="10px" fill="#000" opacity="1">3.6</text></g><g class="mark-rule role-axis-domain" pointer-events="none"><line transform="translate(0,0)" x2="700" y2="0" stroke="#888" stroke-width="1" opacity="1"></line></g><g class="mark-text role-axis-title" pointer-events="none"><text text-anchor="middle" transform="translate(350,30)" font-family="sans-serif" font-size="11px" font-weight="bold" fill="#000" opacity="1">Instantaneous reproduction number R(t), CI 0.975</text></g></g><path class="foreground" aria-hidden="true" d="" pointer-events="none" display="none"></path></g></g><g class="mark-group role-axis" role="graphics-symbol" aria-roledescription="axis" aria-label="Y-axis titled 'States' for a discrete scale with 27 values: AC, AL, AM, AP, BA, ending with TO"><g transform="translate(0.5,0.5)"><path class="background" aria-hidden="true" d="M0,0h0v0h0Z" pointer-events="none"></path><g><g class="mark-rule role-axis-tick" pointer-events="none"><line transform="translate(0,10)" x2="-5" y2="0" stroke="#888" stroke-width="1" opacity="1"></line><line transform="translate(0,30)" x2="-5" y2="0" stroke="#888" stroke-width="1" opacity="1"></line><line transform="translate(0,50)" x2="-5" y2="0" stroke="#888" stroke-width="1" opacity="1"></line><line transform="translate(0,70)" x2="-5" y2="0" stroke="#888" stroke-width="1" opacity="1"></line><line transform="translate(0,90)" x2="-5" y2="0" stroke="#888" stroke-width="1" opacity="1"></line><line transform="translate(0,110)" x2="-5" y2="0" stroke="#888" stroke-width="1" opacity="1"></line><line transform="translate(0,130)" x2="-5" y2="0" stroke="#888" stroke-width="1" opacity="1"></line><line transform="translate(0,150)" x2="-5" y2="0" stroke="#888" stroke-width="1" opacity="1"></line><line transform="translate(0,170)" x2="-5" y2="0" stroke="#888" stroke-width="1" opacity="1"></line><line transform="translate(0,190)" x2="-5" y2="0" stroke="#888" stroke-width="1" opacity="1"></line><line transform="translate(0,210)" x2="-5" y2="0" stroke="#888" stroke-width="1" opacity="1"></line><line transform="translate(0,230)" x2="-5" y2="0" stroke="#888" stroke-width="1" opacity="1"></line><line transform="translate(0,250)" x2="-5" y2="0" stroke="#888" stroke-width="1" opacity="1"></line><line transform="translate(0,270)" x2="-5" y2="0" stroke="#888" stroke-width="1" opacity="1"></line><line transform="translate(0,290)" x2="-5" y2="0" stroke="#888" stroke-width="1" opacity="1"></line><line transform="translate(0,310)" x2="-5" y2="0" stroke="#888" stroke-width="1" opacity="1"></line><line transform="translate(0,330)" x2="-5" y2="0" stroke="#888" stroke-width="1" opacity="1"></line><line transform="translate(0,350)" x2="-5" y2="0" stroke="#888" stroke-width="1" opacity="1"></line><line transform="translate(0,370)" x2="-5" y2="0" stroke="#888" stroke-width="1" opacity="1"></line><line transform="translate(0,390)" x2="-5" y2="0" stroke="#888" stroke-width="1" opacity="1"></line><line transform="translate(0,410)" x2="-5" y2="0" stroke="#888" stroke-width="1" opacity="1"></line><line transform="translate(0,430)" x2="-5" y2="0" stroke="#888" stroke-width="1" opacity="1"></line><line transform="translate(0,450)" x2="-5" y2="0" stroke="#888" stroke-width="1" opacity="1"></line><line transform="translate(0,470)" x2="-5" y2="0" stroke="#888" stroke-width="1" opacity="1"></line><line transform="translate(0,490)" x2="-5" y2="0" stroke="#888" stroke-width="1" opacity="1"></line><line transform="translate(0,510)" x2="-5" y2="0" stroke="#888" stroke-width="1" opacity="1"></line><line transform="translate(0,530)" x2="-5" y2="0" stroke="#888" stroke-width="1" opacity="1"></line></g><g class="mark-text role-axis-label" pointer-events="none"><text text-anchor="end" transform="translate(-7,12.5)" font-family="sans-serif" font-size="10px" fill="#000" opacity="1">AC</text><text text-anchor="end" transform="translate(-7,32.5)" font-family="sans-serif" font-size="10px" fill="#000" opacity="1">AL</text><text text-anchor="end" transform="translate(-7,52.5)" font-family="sans-serif" font-size="10px" fill="#000" opacity="1">AM</text><text text-anchor="end" transform="translate(-7,72.5)" font-family="sans-serif" font-size="10px" fill="#000" opacity="1">AP</text><text text-anchor="end" transform="translate(-7,92.5)" font-family="sans-serif" font-size="10px" fill="#000" opacity="1">BA</text><text text-anchor="end" transform="translate(-7,112.5)" font-family="sans-serif" font-size="10px" fill="#000" opacity="1">CE</text><text text-anchor="end" transform="translate(-7,132.5)" font-family="sans-serif" font-size="10px" fill="#000" opacity="1">DF</text><text text-anchor="end" transform="translate(-7,152.5)" font-family="sans-serif" font-size="10px" fill="#000" opacity="1">ES</text><text text-anchor="end" transform="translate(-7,172.5)" font-family="sans-serif" font-size="10px" fill="#000" opacity="1">GO</text><text text-anchor="end" transform="translate(-7,192.5)" font-family="sans-serif" font-size="10px" fill="#000" opacity="1">MA</text><text text-anchor="end" transform="translate(-7,212.5)" font-family="sans-serif" font-size="10px" fill="#000" opacity="1">MG</text><text text-anchor="end" transform="translate(-7,232.5)" font-family="sans-serif" font-size="10px" fill="#000" opacity="1">MS</text><text text-anchor="end" transform="translate(-7,252.5)" font-family="sans-serif" font-size="10px" fill="#000" opacity="1">MT</text><text text-anchor="end" transform="translate(-7,272.5)" font-family="sans-serif" font-size="10px" fill="#000" opacity="1">PA</text><text text-anchor="end" transform="translate(-7,292.5)" font-family="sans-serif" font-size="10px" fill="#000" opacity="1">PB</text><text text-anchor="end" transform="translate(-7,312.5)" font-family="sans-serif" font-size="10px" fill="#000" opacity="1">PE</text><text text-anchor="end" transform="translate(-7,332.5)" font-family="sans-serif" font-size="10px" fill="#000" opacity="1">PI</text><text text-anchor="end" transform="translate(-7,352.5)" font-family="sans-serif" font-size="10px" fill="#000" opacity="1">PR</text><text text-anchor="end" transform="translate(-7,372.5)" font-family="sans-serif" font-size="10px" fill="#000" opacity="1">RJ</text><text text-anchor="end" transform="translate(-7,392.5)" font-family="sans-serif" font-size="10px" fill="#000" opacity="1">RN</text><text text-anchor="end" transform="translate(-7,412.5)" font-family="sans-serif" font-size="10px" fill="#000" opacity="1">RO</text><text text-anchor="end" transform="translate(-7,432.5)" font-family="sans-serif" font-size="10px" fill="#000" opacity="1">RR</text><text text-anchor="end" transform="translate(-7,452.5)" font-family="sans-serif" font-size="10px" fill="#000" opacity="1">RS</text><text text-anchor="end" transform="translate(-7,472.5)" font-family="sans-serif" font-size="10px" fill="#000" opacity="1">SC</text><text text-anchor="end" transform="translate(-7,492.5)" font-family="sans-serif" font-size="10px" fill="#000" opacity="1">SE</text><text text-anchor="end" transform="translate(-7,512.5)" font-family="sans-serif" font-size="10px" fill="#000" opacity="1">SP</text><text text-anchor="end" transform="translate(-7,532.5)" font-family="sans-serif" font-size="10px" fill="#000" opacity="1">TO</text></g><g class="mark-rule role-axis-domain" pointer-events="none"><line transform="translate(0,0)" x2="0" y2="540" stroke="#888" stroke-width="1" opacity="1"></line></g><g class="mark-text role-axis-title" pointer-events="none"><text text-anchor="middle" transform="translate(-27,270) rotate(-90) translate(0,-2)" font-family="sans-serif" font-size="11px" font-weight="bold" fill="#000" opacity="1">States</text></g></g><path class="foreground" aria-hidden="true" d="" pointer-events="none" display="none"></path></g></g><g class="mark-symbol role-mark layer_0_marks" role="graphics-object" aria-roledescription="symbol mark container"><path aria-label="Instantaneous reproduction number R(t): 0.704778871672; States: SE" role="graphics-symbol" aria-roledescription="point" transform="translate(24.44840339008677,490)" d="M2.7386127875258306,0A2.7386127875258306,2.7386127875258306,0,1,1,-2.7386127875258306,0A2.7386127875258306,2.7386127875258306,0,1,1,2.7386127875258306,0" stroke="#4c78a8" stroke-width="2" opacity="0.7"></path><path aria-label="Instantaneous reproduction number R(t): 0.801832016393; States: MA" role="graphics-symbol" aria-roledescription="point" transform="translate(47.094137158339386,190)" d="M2.7386127875258306,0A2.7386127875258306,2.7386127875258306,0,1,1,-2.7386127875258306,0A2.7386127875258306,2.7386127875258306,0,1,1,2.7386127875258306,0" stroke="#4c78a8" stroke-width="2" opacity="0.7"></path><path aria-label="Instantaneous reproduction number R(t): 0.968741348176; States: AL" role="graphics-symbol" aria-roledescription="point" transform="translate(86.03964790782527,30)" d="M2.7386127875258306,0A2.7386127875258306,2.7386127875258306,0,1,1,-2.7386127875258306,0A2.7386127875258306,2.7386127875258306,0,1,1,2.7386127875258306,0" stroke="#4c78a8" stroke-width="2" opacity="0.7"></path><path aria-label="Instantaneous reproduction number R(t): 0.982772023033; States: AC" role="graphics-symbol" aria-roledescription="point" transform="translate(89.31347204100558,10)" d="M2.7386127875258306,0A2.7386127875258306,2.7386127875258306,0,1,1,-2.7386127875258306,0A2.7386127875258306,2.7386127875258306,0,1,1,2.7386127875258306,0" stroke="#4c78a8" stroke-width="2" opacity="0.7"></path><path aria-label="Instantaneous reproduction number R(t): 0.988495697169; States: CE" role="graphics-symbol" aria-roledescription="point" transform="translate(90.64899600609151,110)" d="M2.7386127875258306,0A2.7386127875258306,2.7386127875258306,0,1,1,-2.7386127875258306,0A2.7386127875258306,2.7386127875258306,0,1,1,2.7386127875258306,0" stroke="#4c78a8" stroke-width="2" opacity="0.7"></path><path aria-label="Instantaneous reproduction number R(t): 0.989571373373; States: PB" role="graphics-symbol" aria-roledescription="point" transform="translate(90.899987120299,290)" d="M2.7386127875258306,0A2.7386127875258306,2.7386127875258306,0,1,1,-2.7386127875258306,0A2.7386127875258306,2.7386127875258306,0,1,1,2.7386127875258306,0" stroke="#4c78a8" stroke-width="2" opacity="0.7"></path><path aria-label="Instantaneous reproduction number R(t): 1.02915651374; States: ES" role="graphics-symbol" aria-roledescription="point" transform="translate(100.13651987349037,150)" d="M2.7386127875258306,0A2.7386127875258306,2.7386127875258306,0,1,1,-2.7386127875258306,0A2.7386127875258306,2.7386127875258306,0,1,1,2.7386127875258306,0" stroke="#4c78a8" stroke-width="2" opacity="0.7"></path><path aria-label="Instantaneous reproduction number R(t): 1.0437189865; States: AM" role="graphics-symbol" aria-roledescription="point" transform="translate(103.53443018370339,50)" d="M2.7386127875258306,0A2.7386127875258306,2.7386127875258306,0,1,1,-2.7386127875258306,0A2.7386127875258306,2.7386127875258306,0,1,1,2.7386127875258306,0" stroke="#4c78a8" stroke-width="2" opacity="0.7"></path><path aria-label="Instantaneous reproduction number R(t): 1.0618036558; States: PE" role="graphics-symbol" aria-roledescription="point" transform="translate(107.75418635217484,310)" d="M2.7386127875258306,0A2.7386127875258306,2.7386127875258306,0,1,1,-2.7386127875258306,0A2.7386127875258306,2.7386127875258306,0,1,1,2.7386127875258306,0" stroke="#4c78a8" stroke-width="2" opacity="0.7"></path><path aria-label="Instantaneous reproduction number R(t): 1.0707791094; States: GO" role="graphics-symbol" aria-roledescription="point" transform="translate(109.84845886082081,170)" d="M2.7386127875258306,0A2.7386127875258306,2.7386127875258306,0,1,1,-2.7386127875258306,0A2.7386127875258306,2.7386127875258306,0,1,1,2.7386127875258306,0" stroke="#4c78a8" stroke-width="2" opacity="0.7"></path><path aria-label="Instantaneous reproduction number R(t): 1.09265084278; States: DF" role="graphics-symbol" aria-roledescription="point" transform="translate(114.95186331543455,130)" d="M2.7386127875258306,0A2.7386127875258306,2.7386127875258306,0,1,1,-2.7386127875258306,0A2.7386127875258306,2.7386127875258306,0,1,1,2.7386127875258306,0" stroke="#4c78a8" stroke-width="2" opacity="0.7"></path><path aria-label="Instantaneous reproduction number R(t): 1.09439072733; States: RJ" role="graphics-symbol" aria-roledescription="point" transform="translate(115.35783637676772,370)" d="M2.7386127875258306,0A2.7386127875258306,2.7386127875258306,0,1,1,-2.7386127875258306,0A2.7386127875258306,2.7386127875258306,0,1,1,2.7386127875258306,0" stroke="#4c78a8" stroke-width="2" opacity="0.7"></path><path aria-label="Instantaneous reproduction number R(t): 1.1206561159; States: RO" role="graphics-symbol" aria-roledescription="point" transform="translate(121.48642704273398,410)" d="M2.7386127875258306,0A2.7386127875258306,2.7386127875258306,0,1,1,-2.7386127875258306,0A2.7386127875258306,2.7386127875258306,0,1,1,2.7386127875258306,0" stroke="#4c78a8" stroke-width="2" opacity="0.7"></path><path aria-label="Instantaneous reproduction number R(t): 1.1497931825; States: TO" role="graphics-symbol" aria-roledescription="point" transform="translate(128.28507591716712,530)" d="M2.7386127875258306,0A2.7386127875258306,2.7386127875258306,0,1,1,-2.7386127875258306,0A2.7386127875258306,2.7386127875258306,0,1,1,2.7386127875258306,0" stroke="#4c78a8" stroke-width="2" opacity="0.7"></path><path aria-label="Instantaneous reproduction number R(t): 1.18789327132; States: PA" role="graphics-symbol" aria-roledescription="point" transform="translate(137.1750966409698,270)" d="M2.7386127875258306,0A2.7386127875258306,2.7386127875258306,0,1,1,-2.7386127875258306,0A2.7386127875258306,2.7386127875258306,0,1,1,2.7386127875258306,0" stroke="#4c78a8" stroke-width="2" opacity="0.7"></path><path aria-label="Instantaneous reproduction number R(t): 1.19642851405; States: BA" role="graphics-symbol" aria-roledescription="point" transform="translate(139.16665327870336,90)" d="M2.7386127875258306,0A2.7386127875258306,2.7386127875258306,0,1,1,-2.7386127875258306,0A2.7386127875258306,2.7386127875258306,0,1,1,2.7386127875258306,0" stroke="#4c78a8" stroke-width="2" opacity="0.7"></path><path aria-label="Instantaneous reproduction number R(t): 1.19825219563; States: RS" role="graphics-symbol" aria-roledescription="point" transform="translate(139.59217897926627,450)" d="M2.7386127875258306,0A2.7386127875258306,2.7386127875258306,0,1,1,-2.7386127875258306,0A2.7386127875258306,2.7386127875258306,0,1,1,2.7386127875258306,0" stroke="#4c78a8" stroke-width="2" opacity="0.7"></path><path aria-label="Instantaneous reproduction number R(t): 1.20811774622; States: SP" role="graphics-symbol" aria-roledescription="point" transform="translate(141.89414078369262,510)" d="M2.7386127875258306,0A2.7386127875258306,2.7386127875258306,0,1,1,-2.7386127875258306,0A2.7386127875258306,2.7386127875258306,0,1,1,2.7386127875258306,0" stroke="#4c78a8" stroke-width="2" opacity="0.7"></path><path aria-label="Instantaneous reproduction number R(t): 1.23714374713; States: MG" role="graphics-symbol" aria-roledescription="point" transform="translate(148.66687432950866,210)" d="M2.7386127875258306,0A2.7386127875258306,2.7386127875258306,0,1,1,-2.7386127875258306,0A2.7386127875258306,2.7386127875258306,0,1,1,2.7386127875258306,0" stroke="#4c78a8" stroke-width="2" opacity="0.7"></path><path aria-label="Instantaneous reproduction number R(t): 1.24303918914; States: MS" role="graphics-symbol" aria-roledescription="point" transform="translate(150.04247746523424,230)" d="M2.7386127875258306,0A2.7386127875258306,2.7386127875258306,0,1,1,-2.7386127875258306,0A2.7386127875258306,2.7386127875258306,0,1,1,2.7386127875258306,0" stroke="#4c78a8" stroke-width="2" opacity="0.7"></path><path aria-label="Instantaneous reproduction number R(t): 1.28466754956; States: PI" role="graphics-symbol" aria-roledescription="point" transform="translate(159.75576156361365,330)" d="M2.7386127875258306,0A2.7386127875258306,2.7386127875258306,0,1,1,-2.7386127875258306,0A2.7386127875258306,2.7386127875258306,0,1,1,2.7386127875258306,0" stroke="#4c78a8" stroke-width="2" opacity="0.7"></path><path aria-label="Instantaneous reproduction number R(t): 1.37847076736; States: MT" role="graphics-symbol" aria-roledescription="point" transform="translate(181.64317905119063,250)" d="M2.7386127875258306,0A2.7386127875258306,2.7386127875258306,0,1,1,-2.7386127875258306,0A2.7386127875258306,2.7386127875258306,0,1,1,2.7386127875258306,0" stroke="#4c78a8" stroke-width="2" opacity="0.7"></path><path aria-label="Instantaneous reproduction number R(t): 1.37918301839; States: PR" role="graphics-symbol" aria-roledescription="point" transform="translate(181.8093709565346,350)" d="M2.7386127875258306,0A2.7386127875258306,2.7386127875258306,0,1,1,-2.7386127875258306,0A2.7386127875258306,2.7386127875258306,0,1,1,2.7386127875258306,0" stroke="#4c78a8" stroke-width="2" opacity="0.7"></path><path aria-label="Instantaneous reproduction number R(t): 1.49990495303; States: RN" role="graphics-symbol" aria-roledescription="point" transform="translate(209.97782237407338,390)" d="M2.7386127875258306,0A2.7386127875258306,2.7386127875258306,0,1,1,-2.7386127875258306,0A2.7386127875258306,2.7386127875258306,0,1,1,2.7386127875258306,0" stroke="#4c78a8" stroke-width="2" opacity="0.7"></path><path aria-label="Instantaneous reproduction number R(t): 1.55108311969; States: AP" role="graphics-symbol" aria-roledescription="point" transform="translate(221.91939459398552,70)" d="M2.7386127875258306,0A2.7386127875258306,2.7386127875258306,0,1,1,-2.7386127875258306,0A2.7386127875258306,2.7386127875258306,0,1,1,2.7386127875258306,0" stroke="#4c78a8" stroke-width="2" opacity="0.7"></path><path aria-label="Instantaneous reproduction number R(t): 1.72515590995; States: SC" role="graphics-symbol" aria-roledescription="point" transform="translate(262.5363789881766,470)" d="M2.7386127875258306,0A2.7386127875258306,2.7386127875258306,0,1,1,-2.7386127875258306,0A2.7386127875258306,2.7386127875258306,0,1,1,2.7386127875258306,0" stroke="#4c78a8" stroke-width="2" opacity="0.7"></path><path aria-label="Instantaneous reproduction number R(t): 2.78459041779; States: RR" role="graphics-symbol" aria-roledescription="point" transform="translate(509.73776415053965,430)" d="M2.7386127875258306,0A2.7386127875258306,2.7386127875258306,0,1,1,-2.7386127875258306,0A2.7386127875258306,2.7386127875258306,0,1,1,2.7386127875258306,0" stroke="#4c78a8" stroke-width="2" opacity="0.7"></path></g><g class="mark-rule role-mark layer_1_marks" role="graphics-object" aria-roledescription="rule mark container"><line aria-label="a: 1" role="graphics-symbol" aria-roledescription="rule mark" transform="translate(93.33333333333333,0)" x2="0" y2="540" stroke="black" stroke-width="0.2"></line><line aria-label="a: 1" role="graphics-symbol" aria-roledescription="rule mark" transform="translate(93.33333333333333,0)" x2="0" y2="540" stroke="black" stroke-width="0.2"></line><line aria-label="a: 1" role="graphics-symbol" aria-roledescription="rule mark" transform="translate(93.33333333333333,0)" x2="0" y2="540" stroke="black" stroke-width="0.2"></line><line aria-label="a: 1" role="graphics-symbol" aria-roledescription="rule mark" transform="translate(93.33333333333333,0)" x2="0" y2="540" stroke="black" stroke-width="0.2"></line><line aria-label="a: 1" role="graphics-symbol" aria-roledescription="rule mark" transform="translate(93.33333333333333,0)" x2="0" y2="540" stroke="black" stroke-width="0.2"></line><line aria-label="a: 1" role="graphics-symbol" aria-roledescription="rule mark" transform="translate(93.33333333333333,0)" x2="0" y2="540" stroke="black" stroke-width="0.2"></line><line aria-label="a: 1" role="graphics-symbol" aria-roledescription="rule mark" transform="translate(93.33333333333333,0)" x2="0" y2="540" stroke="black" stroke-width="0.2"></line><line aria-label="a: 1" role="graphics-symbol" aria-roledescription="rule mark" transform="translate(93.33333333333333,0)" x2="0" y2="540" stroke="black" stroke-width="0.2"></line><line aria-label="a: 1" role="graphics-symbol" aria-roledescription="rule mark" transform="translate(93.33333333333333,0)" x2="0" y2="540" stroke="black" stroke-width="0.2"></line><line aria-label="a: 1" role="graphics-symbol" aria-roledescription="rule mark" transform="translate(93.33333333333333,0)" x2="0" y2="540" stroke="black" stroke-width="0.2"></line><line aria-label="a: 1" role="graphics-symbol" aria-roledescription="rule mark" transform="translate(93.33333333333333,0)" x2="0" y2="540" stroke="black" stroke-width="0.2"></line><line aria-label="a: 1" role="graphics-symbol" aria-roledescription="rule mark" transform="translate(93.33333333333333,0)" x2="0" y2="540" stroke="black" stroke-width="0.2"></line><line aria-label="a: 1" role="graphics-symbol" aria-roledescription="rule mark" transform="translate(93.33333333333333,0)" x2="0" y2="540" stroke="black" stroke-width="0.2"></line><line aria-label="a: 1" role="graphics-symbol" aria-roledescription="rule mark" transform="translate(93.33333333333333,0)" x2="0" y2="540" stroke="black" stroke-width="0.2"></line><line aria-label="a: 1" role="graphics-symbol" aria-roledescription="rule mark" transform="translate(93.33333333333333,0)" x2="0" y2="540" stroke="black" stroke-width="0.2"></line><line aria-label="a: 1" role="graphics-symbol" aria-roledescription="rule mark" transform="translate(93.33333333333333,0)" x2="0" y2="540" stroke="black" stroke-width="0.2"></line><line aria-label="a: 1" role="graphics-symbol" aria-roledescription="rule mark" transform="translate(93.33333333333333,0)" x2="0" y2="540" stroke="black" stroke-width="0.2"></line><line aria-label="a: 1" role="graphics-symbol" aria-roledescription="rule mark" transform="translate(93.33333333333333,0)" x2="0" y2="540" stroke="black" stroke-width="0.2"></line><line aria-label="a: 1" role="graphics-symbol" aria-roledescription="rule mark" transform="translate(93.33333333333333,0)" x2="0" y2="540" stroke="black" stroke-width="0.2"></line><line aria-label="a: 1" role="graphics-symbol" aria-roledescription="rule mark" transform="translate(93.33333333333333,0)" x2="0" y2="540" stroke="black" stroke-width="0.2"></line><line aria-label="a: 1" role="graphics-symbol" aria-roledescription="rule mark" transform="translate(93.33333333333333,0)" x2="0" y2="540" stroke="black" stroke-width="0.2"></line><line aria-label="a: 1" role="graphics-symbol" aria-roledescription="rule mark" transform="translate(93.33333333333333,0)" x2="0" y2="540" stroke="black" stroke-width="0.2"></line><line aria-label="a: 1" role="graphics-symbol" aria-roledescription="rule mark" transform="translate(93.33333333333333,0)" x2="0" y2="540" stroke="black" stroke-width="0.2"></line><line aria-label="a: 1" role="graphics-symbol" aria-roledescription="rule mark" transform="translate(93.33333333333333,0)" x2="0" y2="540" stroke="black" stroke-width="0.2"></line><line aria-label="a: 1" role="graphics-symbol" aria-roledescription="rule mark" transform="translate(93.33333333333333,0)" x2="0" y2="540" stroke="black" stroke-width="0.2"></line><line aria-label="a: 1" role="graphics-symbol" aria-roledescription="rule mark" transform="translate(93.33333333333333,0)" x2="0" y2="540" stroke="black" stroke-width="0.2"></line><line aria-label="a: 1" role="graphics-symbol" aria-roledescription="rule mark" transform="translate(93.33333333333333,0)" x2="0" y2="540" stroke="black" stroke-width="0.2"></line></g><g class="mark-rule role-mark layer_2_marks" role="graphics-object" aria-roledescription="rule mark container"><line aria-label="CI 0.975: 0.614144861919; upper_Quantile.0.025(R): 0.807045792157; index: SE; Quantile.0.975(R): 0.807045792157; Quantile.0.025(R): 0.614144861919" role="graphics-symbol" aria-roledescription="errorbar" transform="translate(3.300467781042386,490)" x2="45.010217055501684" y2="0" stroke="blue" stroke-width="0.6"></line><line aria-label="CI 0.975: 0.772225263096; upper_Quantile.0.025(R): 0.834625207961; index: MA; Quantile.0.975(R): 0.834625207961; Quantile.0.025(R): 0.772225263096" role="graphics-symbol" aria-roledescription="errorbar" transform="translate(40.18589472236413,190)" x2="14.55998713520151" y2="0" stroke="blue" stroke-width="0.6"></line><line aria-label="CI 0.975: 0.941638574712; upper_Quantile.0.025(R): 0.996246971977; index: AL; Quantile.0.975(R): 0.996246971977; Quantile.0.025(R): 0.941638574712" role="graphics-symbol" aria-roledescription="errorbar" transform="translate(79.71566743273459,30)" x2="12.741959361814978" y2="0" stroke="blue" stroke-width="0.6"></line><line aria-label="CI 0.975: 0.930891503811; upper_Quantile.0.025(R): 1.0367147411; index: AC; Quantile.0.975(R): 1.0367147411; Quantile.0.025(R): 0.930891503811" role="graphics-symbol" aria-roledescription="errorbar" transform="translate(77.20801755589825,10)" x2="24.69208869976096" y2="0" stroke="blue" stroke-width="0.6"></line><line aria-label="CI 0.975: 0.957608400947; upper_Quantile.0.025(R): 1.02486105324; index: CE; Quantile.0.975(R): 1.02486105324; Quantile.0.025(R): 0.957608400947" role="graphics-symbol" aria-roledescription="errorbar" transform="translate(83.44196022091674,110)" x2="15.692285535491365" y2="0" stroke="blue" stroke-width="0.6"></line><line aria-label="CI 0.975: 0.957069681573; upper_Quantile.0.025(R): 1.02597551233; index: PB; Quantile.0.975(R): 1.02597551233; Quantile.0.025(R): 0.957069681573" role="graphics-symbol" aria-roledescription="errorbar" transform="translate(83.3162590338137,290)" x2="16.07802717706994" y2="0" stroke="blue" stroke-width="0.6"></line><line aria-label="CI 0.975: 0.995865201032; upper_Quantile.0.025(R): 1.06211897976; index: ES; Quantile.0.975(R): 1.06211897976; Quantile.0.025(R): 0.995865201032" role="graphics-symbol" aria-roledescription="errorbar" transform="translate(92.36854690749824,150)" x2="15.459215035388127" y2="0" stroke="blue" stroke-width="0.6"></line><line aria-label="CI 0.975: 1.01179249007; upper_Quantile.0.025(R): 1.07491288152; index: AM; Quantile.0.975(R): 1.07491288152; Quantile.0.025(R): 1.01179249007" role="graphics-symbol" aria-roledescription="errorbar" transform="translate(96.08491434951668,50)" x2="14.728091339063383" y2="0" stroke="blue" stroke-width="0.6"></line><line aria-label="CI 0.975: 1.01574482184; upper_Quantile.0.025(R): 1.12043781998; index: PE; Quantile.0.975(R): 1.12043781998; Quantile.0.025(R): 1.01574482184" role="graphics-symbol" aria-roledescription="errorbar" transform="translate(97.00712509572925,310)" x2="24.428366231949454" y2="0" stroke="blue" stroke-width="0.6"></line><line aria-label="CI 0.975: 0.991759270983; upper_Quantile.0.025(R): 1.14690604532; index: GO; Quantile.0.975(R): 1.14690604532; Quantile.0.025(R): 0.991759270983" role="graphics-symbol" aria-roledescription="errorbar" transform="translate(91.41049656268551,170)" x2="36.20091401290736" y2="0" stroke="blue" stroke-width="0.6"></line><line aria-label="CI 0.975: 1.04009045536; upper_Quantile.0.025(R): 1.15763803596; index: DF; Quantile.0.975(R): 1.15763803596; Quantile.0.025(R): 1.04009045536" role="graphics-symbol" aria-roledescription="errorbar" transform="translate(102.6877729165631,130)" x2="27.42776880791216" y2="0" stroke="blue" stroke-width="0.6"></line><line aria-label="CI 0.975: 1.03286628181; upper_Quantile.0.025(R): 1.1727803804; index: RJ; Quantile.0.975(R): 1.1727803804; Quantile.0.025(R): 1.03286628181" role="graphics-symbol" aria-roledescription="errorbar" transform="translate(101.00213242259365,370)" x2="32.6466230036353" y2="0" stroke="blue" stroke-width="0.6"></line><line aria-label="CI 0.975: 1.08229115753; upper_Quantile.0.025(R): 1.16175404868; index: RO; Quantile.0.975(R): 1.16175404868; Quantile.0.025(R): 1.08229115753" role="graphics-symbol" aria-roledescription="errorbar" transform="translate(112.53460342358258,410)" x2="18.54134126879211" y2="0" stroke="blue" stroke-width="0.6"></line><line aria-label="CI 0.975: 1.08236557356; upper_Quantile.0.025(R): 1.21989050166; index: TO; Quantile.0.975(R): 1.21989050166; Quantile.0.025(R): 1.08236557356" role="graphics-symbol" aria-roledescription="errorbar" transform="translate(112.55196716400827,530)" x2="32.08914989042252" y2="0" stroke="blue" stroke-width="0.6"></line><line aria-label="CI 0.975: 1.10880062116; upper_Quantile.0.025(R): 1.27553519498; index: PA; Quantile.0.975(R): 1.27553519498; Quantile.0.025(R): 1.10880062116" role="graphics-symbol" aria-roledescription="errorbar" transform="translate(118.72014493821067,270)" x2="38.90473389055171" y2="0" stroke="blue" stroke-width="0.6"></line><line aria-label="CI 0.975: 1.15981630877; upper_Quantile.0.025(R): 1.24205576796; index: BA; Quantile.0.975(R): 1.24205576796; Quantile.0.025(R): 1.15981630877" role="graphics-symbol" aria-roledescription="errorbar" transform="translate(130.62380537952896,90)" x2="19.189207145367703" y2="0" stroke="blue" stroke-width="0.6"></line><line aria-label="CI 0.975: 1.13925376783; upper_Quantile.0.025(R): 1.26065598743; index: RS; Quantile.0.975(R): 1.26065598743; Quantile.0.025(R): 1.13925376783" role="graphics-symbol" aria-roledescription="errorbar" transform="translate(125.82587916064784,450)" x2="28.327184573749662" y2="0" stroke="blue" stroke-width="0.6"></line><line aria-label="CI 0.975: 1.17992482606; upper_Quantile.0.025(R): 1.23359411973; index: SP; Quantile.0.975(R): 1.23359411973; Quantile.0.025(R): 1.17992482606" role="graphics-symbol" aria-roledescription="errorbar" transform="translate(135.31579274617366,510)" x2="12.522835189807807" y2="0" stroke="blue" stroke-width="0.6"></line><line aria-label="CI 0.975: 1.16293958479; upper_Quantile.0.025(R): 1.30022313865; index: MG; Quantile.0.975(R): 1.30022313865; Quantile.0.025(R): 1.16293958479" role="graphics-symbol" aria-roledescription="errorbar" transform="translate(131.35256978508198,210)" x2="32.03282923367385" y2="0" stroke="blue" stroke-width="0.6"></line><line aria-label="CI 0.975: 1.14986041992; upper_Quantile.0.025(R): 1.34057015495; index: MS; Quantile.0.975(R): 1.34057015495; Quantile.0.025(R): 1.14986041992" role="graphics-symbol" aria-roledescription="errorbar" transform="translate(128.30076464907637,230)" x2="44.498938171542335" y2="0" stroke="blue" stroke-width="0.6"></line><line aria-label="CI 0.975: 1.19838533498; upper_Quantile.0.025(R): 1.38146456381; index: PI; Quantile.0.975(R): 1.38146456381; Quantile.0.025(R): 1.19838533498" role="graphics-symbol" aria-roledescription="errorbar" transform="translate(139.6232448288851,330)" x2="42.718486726336636" y2="0" stroke="blue" stroke-width="0.6"></line><line aria-label="CI 0.975: 1.23550892154; upper_Quantile.0.025(R): 1.54661602927; index: MT; Quantile.0.975(R): 1.54661602927; Quantile.0.025(R): 1.23550892154" role="graphics-symbol" aria-roledescription="errorbar" transform="translate(148.28541502571275,250)" x2="72.59165847039671" y2="0" stroke="blue" stroke-width="0.6"></line><line aria-label="CI 0.975: 1.26175316239; upper_Quantile.0.025(R): 1.53936484661; index: PR; Quantile.0.975(R): 1.53936484661; Quantile.0.025(R): 1.26175316239" role="graphics-symbol" aria-roledescription="errorbar" transform="translate(154.40907122462608,350)" x2="64.77605965078146" y2="0" stroke="blue" stroke-width="0.6"></line><line aria-label="CI 0.975: 1.3783027909; upper_Quantile.0.025(R): 1.6929396644; index: RN; Quantile.0.975(R): 1.6929396644; Quantile.0.025(R): 1.3783027909" role="graphics-symbol" aria-roledescription="errorbar" transform="translate(181.6039845437891,390)" x2="73.41527048402762" y2="0" stroke="blue" stroke-width="0.6"></line><line aria-label="CI 0.975: 1.29922025679; upper_Quantile.0.025(R): 1.82836093535; index: AP; Quantile.0.975(R): 1.82836093535; Quantile.0.025(R): 1.29922025679" role="graphics-symbol" aria-roledescription="errorbar" transform="translate(163.15139325043515,70)" x2="123.46615833175707" y2="0" stroke="blue" stroke-width="0.6"></line><line aria-label="CI 0.975: 1.53341099264; upper_Quantile.0.025(R): 1.95267654438; index: SC; Quantile.0.975(R): 1.95267654438; Quantile.0.025(R): 1.53341099264" role="graphics-symbol" aria-roledescription="errorbar" transform="translate(217.79589828313166,470)" x2="97.82862873783236" y2="0" stroke="blue" stroke-width="0.6"></line><line aria-label="CI 0.975: 1.98892354441; upper_Quantile.0.025(R): 3.48995705297; index: RR; Quantile.0.975(R): 3.48995705297; Quantile.0.025(R): 1.98892354441" role="graphics-symbol" aria-roledescription="errorbar" transform="translate(324.0821603616231,430)" x2="350.24115199762025" y2="0" stroke="blue" stroke-width="0.6"></line></g><g class="mark-group role-title"><g transform="translate(350,-17.2)"><path class="background" aria-hidden="true" d="M0,0h0v0h0Z" pointer-events="none"></path><g><g class="mark-text role-title-text" role="graphics-symbol" aria-roledescription="title" aria-label="Title text 'Instantaneous reproduction number estimate for all states in Brazil'" pointer-events="none"><text text-anchor="middle" transform="translate(0,10)" font-family="sans-serif" font-size="13px" font-weight="bold" fill="#000" opacity="1">Instantaneous reproduction number estimate for all states in Brazil</text></g></g><path class="foreground" aria-hidden="true" d="" pointer-events="none" display="none"></path></g></g></g><path class="foreground" aria-hidden="true" d="" display="none"></path></g></g></g></svg>