<svg class="marks" width="749" height="600" viewBox="0 0 749 600" version="1.1" xmlns="http://www.w3.org/2000/svg" xmlns:xlink="http://www.w3.org/1999/xlink"><rect width="749" height="600" fill="white"></rect><g fill="none" stroke-miterlimit="10" transform="translate(43,23)"><g class="mark-group role-frame root" role="graphics-object" aria-roledescription="group mark container"><g transform="translate(0,0)"><path class="background" aria-hidden="true" d="M0.5,0.5h700v540h-700Z"></path><g><g class="mark-group role-axis" aria-hidden="true"><g transform="translate(0.5,0.5)"><path class="background" aria-hidden="true" d="M0,0h0v0h0Z" pointer-events="none"></path><g><g class="mark-rule role-axis-grid" pointer-events="none"><line transform="translate(0,10)" x2="700" y2="0" stroke="#ddd" stroke-width="1" opacity="1"></line><line transform="translate(0,30)" x2="700" y2="0" stroke="#ddd" stroke-width="1" opacity="1"></line><line transform="translate(0,50)" x2="700" y2="0" stroke="#ddd" stroke-width="1" opacity="1"></line><line transform="translate(0,70)" x2="700" y2="0" stroke="#ddd" stroke-width="1" opacity="1"></line><line transform="translate(0,90)" x2="700" y2="0" stroke="#ddd" stroke-width="1" opacity="1"></line><line transform="translate(0,110)" x2="700" y2="0" stroke="#ddd" stroke-width="1" opacity="1"></line><line transform="translate(0,130)" x2="700" y2="0" stroke="#ddd" stroke-width="1" opacity="1"></line><line transform="translate(0,150)" x2="700" y2="0" stroke="#ddd" stroke-width="1" opacity="1"></line><line transform="translate(0,170)" x2="700" y2="0" stroke="#ddd" stroke-width="1" opacity="1"></line><line transform="translate(0,190)" x2="700" y2="0" stroke="#ddd" stroke-width="1" opacity="1"></line><line transform="translate(0,210)" x2="700" y2="0" stroke="#ddd" stroke-width="1" opacity="1"></line><line transform="translate(0,230)" x2="700" y2="0" stroke="#ddd" stroke-width="1" opacity="1"></line><line transform="translate(0,250)" x2="700" y2="0" stroke="#ddd" stroke-width="1" opacity="1"></line><line transform="translate(0,270)" x2="700" y2="0" stroke="#ddd" stroke-width="1" opacity="1"></line><line transform="translate(0,290)" x2="700" y2="0" stroke="#ddd" stroke-width="1" opacity="1"></line><line transform="translate(0,310)" x2="700" y2="0" stroke="#ddd" stroke-width="1" opacity="1"></line><line transform="translate(0,330)" x2="700" y2="0" stroke="#ddd" stroke-width="1" opacity="1"></line><line transform="translate(0,350)" x2="700" y2="0" stroke="#ddd" stroke-width="1" opacity="1"></line><line transform="translate(0,370)" x2="700" y2="0" stroke="#ddd" stroke-width="1" opacity="1"></line><line transform="translate(0,390)" x2="700" y2="0" stroke="#ddd" stroke-width="1" opacity="1"></line><line transform="translate(0,410)" x2="700" y2="0" stroke="#ddd" stroke-width="1" opacity="1"></line><line transform="translate(0,430)" x2="700" y2="0" stroke="#ddd" stroke-width="1" opacity="1"></line><line transform="translate(0,450)" x2="700" y2="0" stroke="#ddd" stroke-width="1" opacity="1"></line><line transform="translate(0,470)" x2="700" y2="0" stroke="#ddd" stroke-width="1" opacity="1"></line><line transform="translate(0,490)" x2="700" y2="0" stroke="#ddd" stroke-width="1" opacity="1"></line><line transform="translate(0,510)" x2="700" y2="0" stroke="#ddd" stroke-width="1" opacity="1"></line><line transform="translate(0,530)" x2="700" y2="0" stroke="#ddd" stroke-width="1" opacity="1"></line></g></g><path class="foreground" aria-hidden="true" d="" pointer-events="none" display="none"></path></g></g><g class="mark-group role-axis" role="graphics-symbol" aria-roledescription="axis" aria-label="X-axis titled 'Instantaneous reproduction number R(t), CI 0.975' for a linear scale with values from 0.8 to 1.4"><g transform="translate(0.5,540.5)"><path class="background" aria-hidden="true" d="M0,0h0v0h0Z" pointer-events="none"></path><g><g class="mark-rule role-axis-tick" pointer-events="none"><line transform="translate(0,0)" x2="0" y2="5" stroke="#888" stroke-width="1" opacity="1"></line><line transform="translate(58,0)" x2="0" y2="5" stroke="#888" stroke-width="1" opacity="1"></line><line transform="translate(117,0)" x2="0" y2="5" stroke="#888" stroke-width="1" opacity="1"></line><line transform="translate(175,0)" x2="0" y2="5" stroke="#888" stroke-width="1" opacity="1"></line><line transform="translate(233,0)" x2="0" y2="5" stroke="#888" stroke-width="1" opacity="1"></line><line transform="translate(292,0)" x2="0" y2="5" stroke="#888" stroke-width="1" opacity="1"></line><line transform="translate(350,0)" x2="0" y2="5" stroke="#888" stroke-width="1" opacity="1"></line><line transform="translate(408,0)" x2="0" y2="5" stroke="#888" stroke-width="1" opacity="1"></line><line transform="translate(467,0)" x2="0" y2="5" stroke="#888" stroke-width="1" opacity="1"></line><line transform="translate(525,0)" x2="0" y2="5" stroke="#888" stroke-width="1" opacity="1"></line><line transform="translate(583,0)" x2="0" y2="5" stroke="#888" stroke-width="1" opacity="1"></line><line transform="translate(642,0)" x2="0" y2="5" stroke="#888" stroke-width="1" opacity="1"></line><line transform="translate(700,0)" x2="0" y2="5" stroke="#888" stroke-width="1" opacity="1"></line></g><g class="mark-text role-axis-label" pointer-events="none"><text text-anchor="start" transform="translate(0,15)" font-family="sans-serif" font-size="10px" fill="#000" opacity="1">0.75</text><text text-anchor="middle" transform="translate(58.33333333333338,15)" font-family="sans-serif" font-size="10px" fill="#000" opacity="1">0.80</text><text text-anchor="middle" transform="translate(116.66666666666661,15)" font-family="sans-serif" font-size="10px" fill="#000" opacity="1">0.85</text><text text-anchor="middle" transform="translate(175,15)" font-family="sans-serif" font-size="10px" fill="#000" opacity="1">0.90</text><text text-anchor="middle" transform="translate(233.33333333333323,15)" font-family="sans-serif" font-size="10px" fill="#000" opacity="1">0.95</text><text text-anchor="middle" transform="translate(291.66666666666663,15)" font-family="sans-serif" font-size="10px" fill="#000" opacity="1">1.00</text><text text-anchor="middle" transform="translate(350,15)" font-family="sans-serif" font-size="10px" fill="#000" opacity="1">1.05</text><text text-anchor="middle" transform="translate(408.33333333333337,15)" font-family="sans-serif" font-size="10px" fill="#000" opacity="1">1.10</text><text text-anchor="middle" transform="translate(466.66666666666646,15)" font-family="sans-serif" font-size="10px" fill="#000" opacity="1">1.15</text><text text-anchor="middle" transform="translate(524.9999999999999,15)" font-family="sans-serif" font-size="10px" fill="#000" opacity="1">1.20</text><text text-anchor="middle" transform="translate(583.3333333333333,15)" font-family="sans-serif" font-size="10px" fill="#000" opacity="1">1.25</text><text text-anchor="middle" transform="translate(641.6666666666666,15)" font-family="sans-serif" font-size="10px" fill="#000" opacity="1">1.30</text><text text-anchor="end" transform="translate(700,15)" font-family="sans-serif" font-size="10px" fill="#000" opacity="1">1.35</text></g><g class="mark-rule role-axis-domain" pointer-events="none"><line transform="translate(0,0)" x2="700" y2="0" stroke="#888" stroke-width="1" opacity="1"></line></g><g class="mark-text role-axis-title" pointer-events="none"><text text-anchor="middle" transform="translate(350,30)" font-family="sans-serif" font-size="11px" font-weight="bold" fill="#000" opacity="1">Instantaneous reproduction number R(t), CI 0.975</text></g></g><path class="foreground" aria-hidden="true" d="" pointer-events="none" display="none"></path></g></g><g class="mark-group role-axis" role="graphics-symbol" aria-roledescription="axis" aria-label="Y-axis titled 'States' for a discrete scale with 27 values: AC, AL, AM, AP, BA, ending with TO"><g transform="translate(0.5,0.5)"><path class="background" aria-hidden="true" d="M0,0h0v0h0Z" pointer-events="none"></path><g><g class="mark-rule role-axis-tick" pointer-events="none"><line transform="translate(0,10)" x2="-5" y2="0" stroke="#888" stroke-width="1" opacity="1"></line><line transform="translate(0,30)" x2="-5" y2="0" stroke="#888" stroke-width="1" opacity="1"></line><line transform="translate(0,50)" x2="-5" y2="0" stroke="#888" stroke-width="1" opacity="1"></line><line transform="translate(0,70)" x2="-5" y2="0" stroke="#888" stroke-width="1" opacity="1"></line><line transform="translate(0,90)" x2="-5" y2="0" stroke="#888" stroke-width="1" opacity="1"></line><line transform="translate(0,110)" x2="-5" y2="0" stroke="#888" stroke-width="1" opacity="1"></line><line transform="translate(0,130)" x2="-5" y2="0" stroke="#888" stroke-width="1" opacity="1"></line><line transform="translate(0,150)" x2="-5" y2="0" stroke="#888" stroke-width="1" opacity="1"></line><line transform="translate(0,170)" x2="-5" y2="0" stroke="#888" stroke-width="1" opacity="1"></line><line transform="translate(0,190)" x2="-5" y2="0" stroke="#888" stroke-width="1" opacity="1"></line><line transform="translate(0,210)" x2="-5" y2="0" stroke="#888" stroke-width="1" opacity="1"></line><line transform="translate(0,230)" x2="-5" y2="0" stroke="#888" stroke-width="1" opacity="1"></line><line transform="translate(0,250)" x2="-5" y2="0" stroke="#888" stroke-width="1" opacity="1"></line><line transform="translate(0,270)" x2="-5" y2="0" stroke="#888" stroke-width="1" opacity="1"></line><line transform="translate(0,290)" x2="-5" y2="0" stroke="#888" stroke-width="1" opacity="1"></line><line transform="translate(0,310)" x2="-5" y2="0" stroke="#888" stroke-width="1" opacity="1"></line><line transform="translate(0,330)" x2="-5" y2="0" stroke="#888" stroke-width="1" opacity="1"></line><line transform="translate(0,350)" x2="-5" y2="0" stroke="#888" stroke-width="1" opacity="1"></line><line transform="translate(0,370)" x2="-5" y2="0" stroke="#888" stroke-width="1" opacity="1"></line><line transform="translate(0,390)" x2="-5" y2="0" stroke="#888" stroke-width="1" opacity="1"></line><line transform="translate(0,410)" x2="-5" y2="0" stroke="#888" stroke-width="1" opacity="1"></line><line transform="translate(0,430)" x2="-5" y2="0" stroke="#888" stroke-width="1" opacity="1"></line><line transform="translate(0,450)" x2="-5" y2="0" stroke="#888" stroke-width="1" opacity="1"></line><line transform="translate(0,470)" x2="-5" y2="0" stroke="#888" stroke-width="1" opacity="1"></line><line transform="translate(0,490)" x2="-5" y2="0" stroke="#888" stroke-width="1" opacity="1"></line><line transform="translate(0,510)" x2="-5" y2="0" stroke="#888" stroke-width="1" opacity="1"></line><line transform="translate(0,530)" x2="-5" y2="0" stroke="#888" stroke-width="1" opacity="1"></line></g><g class="mark-text role-axis-label" pointer-events="none"><text text-anchor="end" transform="translate(-7,12.5)" font-family="sans-serif" font-size="10px" fill="#000" opacity="1">AC</text><text text-anchor="end" transform="translate(-7,32.5)" font-family="sans-serif" font-size="10px" fill="#000" opacity="1">AL</text><text text-anchor="end" transform="translate(-7,52.5)" font-family="sans-serif" font-size="10px" fill="#000" opacity="1">AM</text><text text-anchor="end" transform="translate(-7,72.5)" font-family="sans-serif" font-size="10px" fill="#000" opacity="1">AP</text><text text-anchor="end" transform="translate(-7,92.5)" font-family="sans-serif" font-size="10px" fill="#000" opacity="1">BA</text><text text-anchor="end" transform="translate(-7,112.5)" font-family="sans-serif" font-size="10px" fill="#000" opacity="1">CE</text><text text-anchor="end" transform="translate(-7,132.5)" font-family="sans-serif" font-size="10px" fill="#000" opacity="1">DF</text><text text-anchor="end" transform="translate(-7,152.5)" font-family="sans-serif" font-size="10px" fill="#000" opacity="1">ES</text><text text-anchor="end" transform="translate(-7,172.5)" font-family="sans-serif" font-size="10px" fill="#000" opacity="1">GO</text><text text-anchor="end" transform="translate(-7,192.5)" font-family="sans-serif" font-size="10px" fill="#000" opacity="1">MA</text><text text-anchor="end" transform="translate(-7,212.5)" font-family="sans-serif" font-size="10px" fill="#000" opacity="1">MG</text><text text-anchor="end" transform="translate(-7,232.5)" font-family="sans-serif" font-size="10px" fill="#000" opacity="1">MS</text><text text-anchor="end" transform="translate(-7,252.5)" font-family="sans-serif" font-size="10px" fill="#000" opacity="1">MT</text><text text-anchor="end" transform="translate(-7,272.5)" font-family="sans-serif" font-size="10px" fill="#000" opacity="1">PA</text><text text-anchor="end" transform="translate(-7,292.5)" font-family="sans-serif" font-size="10px" fill="#000" opacity="1">PB</text><text text-anchor="end" transform="translate(-7,312.5)" font-family="sans-serif" font-size="10px" fill="#000" opacity="1">PE</text><text text-anchor="end" transform="translate(-7,332.5)" font-family="sans-serif" font-size="10px" fill="#000" opacity="1">PI</text><text text-anchor="end" transform="translate(-7,352.5)" font-family="sans-serif" font-size="10px" fill="#000" opacity="1">PR</text><text text-anchor="end" transform="translate(-7,372.5)" font-family="sans-serif" font-size="10px" fill="#000" opacity="1">RJ</text><text text-anchor="end" transform="translate(-7,392.5)" font-family="sans-serif" font-size="10px" fill="#000" opacity="1">RN</text><text text-anchor="end" transform="translate(-7,412.5)" font-family="sans-serif" font-size="10px" fill="#000" opacity="1">RO</text><text text-anchor="end" transform="translate(-7,432.5)" font-family="sans-serif" font-size="10px" fill="#000" opacity="1">RR</text><text text-anchor="end" transform="translate(-7,452.5)" font-family="sans-serif" font-size="10px" fill="#000" opacity="1">RS</text><text text-anchor="end" transform="translate(-7,472.5)" font-family="sans-serif" font-size="10px" fill="#000" opacity="1">SC</text><text text-anchor="end" transform="translate(-7,492.5)" font-family="sans-serif" font-size="10px" fill="#000" opacity="1">SE</text><text text-anchor="end" transform="translate(-7,512.5)" font-family="sans-serif" font-size="10px" fill="#000" opacity="1">SP</text><text text-anchor="end" transform="translate(-7,532.5)" font-family="sans-serif" font-size="10px" fill="#000" opacity="1">TO</text></g><g class="mark-rule role-axis-domain" pointer-events="none"><line transform="translate(0,0)" x2="0" y2="540" stroke="#888" stroke-width="1" opacity="1"></line></g><g class="mark-text role-axis-title" pointer-events="none"><text text-anchor="middle" transform="translate(-27,270) rotate(-90) translate(0,-2)" font-family="sans-serif" font-size="11px" font-weight="bold" fill="#000" opacity="1">States</text></g></g><path class="foreground" aria-hidden="true" d="" pointer-events="none" display="none"></path></g></g><g class="mark-symbol role-mark layer_0_marks" role="graphics-object" aria-roledescription="symbol mark container"><path aria-label="Instantaneous reproduction number R(t): 0.812434095498; States: RJ" role="graphics-symbol" aria-roledescription="point" transform="translate(72.83977808079332,370)" d="M2.7386127875258306,0A2.7386127875258306,2.7386127875258306,0,1,1,-2.7386127875258306,0A2.7386127875258306,2.7386127875258306,0,1,1,2.7386127875258306,0" stroke="#4c78a8" stroke-width="2" opacity="0.7"></path><path aria-label="Instantaneous reproduction number R(t): 0.817134000939; States: RN" role="graphics-symbol" aria-roledescription="point" transform="translate(78.32300109509083,390)" d="M2.7386127875258306,0A2.7386127875258306,2.7386127875258306,0,1,1,-2.7386127875258306,0A2.7386127875258306,2.7386127875258306,0,1,1,2.7386127875258306,0" stroke="#4c78a8" stroke-width="2" opacity="0.7"></path><path aria-label="Instantaneous reproduction number R(t): 0.826207328227; States: ES" role="graphics-symbol" aria-roledescription="point" transform="translate(88.90854959825401,150)" d="M2.7386127875258306,0A2.7386127875258306,2.7386127875258306,0,1,1,-2.7386127875258306,0A2.7386127875258306,2.7386127875258306,0,1,1,2.7386127875258306,0" stroke="#4c78a8" stroke-width="2" opacity="0.7"></path><path aria-label="Instantaneous reproduction number R(t): 0.8392032069; States: RO" role="graphics-symbol" aria-roledescription="point" transform="translate(104.07040804984022,410)" d="M2.7386127875258306,0A2.7386127875258306,2.7386127875258306,0,1,1,-2.7386127875258306,0A2.7386127875258306,2.7386127875258306,0,1,1,2.7386127875258306,0" stroke="#4c78a8" stroke-width="2" opacity="0.7"></path><path aria-label="Instantaneous reproduction number R(t): 0.841396476442; States: GO" role="graphics-symbol" aria-roledescription="point" transform="translate(106.62922251610044,170)" d="M2.7386127875258306,0A2.7386127875258306,2.7386127875258306,0,1,1,-2.7386127875258306,0A2.7386127875258306,2.7386127875258306,0,1,1,2.7386127875258306,0" stroke="#4c78a8" stroke-width="2" opacity="0.7"></path><path aria-label="Instantaneous reproduction number R(t): 0.849187346894; States: CE" role="graphics-symbol" aria-roledescription="point" transform="translate(115.71857137602608,110)" d="M2.7386127875258306,0A2.7386127875258306,2.7386127875258306,0,1,1,-2.7386127875258306,0A2.7386127875258306,2.7386127875258306,0,1,1,2.7386127875258306,0" stroke="#4c78a8" stroke-width="2" opacity="0.7"></path><path aria-label="Instantaneous reproduction number R(t): 0.873160431667; States: DF" role="graphics-symbol" aria-roledescription="point" transform="translate(143.68717027831195,130)" d="M2.7386127875258306,0A2.7386127875258306,2.7386127875258306,0,1,1,-2.7386127875258306,0A2.7386127875258306,2.7386127875258306,0,1,1,2.7386127875258306,0" stroke="#4c78a8" stroke-width="2" opacity="0.7"></path><path aria-label="Instantaneous reproduction number R(t): 0.90207842411; States: MT" role="graphics-symbol" aria-roledescription="point" transform="translate(177.42482812886897,250)" d="M2.7386127875258306,0A2.7386127875258306,2.7386127875258306,0,1,1,-2.7386127875258306,0A2.7386127875258306,2.7386127875258306,0,1,1,2.7386127875258306,0" stroke="#4c78a8" stroke-width="2" opacity="0.7"></path><path aria-label="Instantaneous reproduction number R(t): 0.918144063687; States: AM" role="graphics-symbol" aria-roledescription="point" transform="translate(196.1680743013804,50)" d="M2.7386127875258306,0A2.7386127875258306,2.7386127875258306,0,1,1,-2.7386127875258306,0A2.7386127875258306,2.7386127875258306,0,1,1,2.7386127875258306,0" stroke="#4c78a8" stroke-width="2" opacity="0.7"></path><path aria-label="Instantaneous reproduction number R(t): 0.923906415518; States: BA" role="graphics-symbol" aria-roledescription="point" transform="translate(202.89081810448346,90)" d="M2.7386127875258306,0A2.7386127875258306,2.7386127875258306,0,1,1,-2.7386127875258306,0A2.7386127875258306,2.7386127875258306,0,1,1,2.7386127875258306,0" stroke="#4c78a8" stroke-width="2" opacity="0.7"></path><path aria-label="Instantaneous reproduction number R(t): 0.940034473061; States: RS" role="graphics-symbol" aria-roledescription="point" transform="translate(221.7068852374022,450)" d="M2.7386127875258306,0A2.7386127875258306,2.7386127875258306,0,1,1,-2.7386127875258306,0A2.7386127875258306,2.7386127875258306,0,1,1,2.7386127875258306,0" stroke="#4c78a8" stroke-width="2" opacity="0.7"></path><path aria-label="Instantaneous reproduction number R(t): 0.943170988408; States: PB" role="graphics-symbol" aria-roledescription="point" transform="translate(225.36615314227618,290)" d="M2.7386127875258306,0A2.7386127875258306,2.7386127875258306,0,1,1,-2.7386127875258306,0A2.7386127875258306,2.7386127875258306,0,1,1,2.7386127875258306,0" stroke="#4c78a8" stroke-width="2" opacity="0.7"></path><path aria-label="Instantaneous reproduction number R(t): 0.962016829781; States: AC" role="graphics-symbol" aria-roledescription="point" transform="translate(247.3529680782312,10)" d="M2.7386127875258306,0A2.7386127875258306,2.7386127875258306,0,1,1,-2.7386127875258306,0A2.7386127875258306,2.7386127875258306,0,1,1,2.7386127875258306,0" stroke="#4c78a8" stroke-width="2" opacity="0.7"></path><path aria-label="Instantaneous reproduction number R(t): 0.96899352925; States: PA" role="graphics-symbol" aria-roledescription="point" transform="translate(255.4924507912509,270)" d="M2.7386127875258306,0A2.7386127875258306,2.7386127875258306,0,1,1,-2.7386127875258306,0A2.7386127875258306,2.7386127875258306,0,1,1,2.7386127875258306,0" stroke="#4c78a8" stroke-width="2" opacity="0.7"></path><path aria-label="Instantaneous reproduction number R(t): 0.987206668437; States: PE" role="graphics-symbol" aria-roledescription="point" transform="translate(276.741113176558,310)" d="M2.7386127875258306,0A2.7386127875258306,2.7386127875258306,0,1,1,-2.7386127875258306,0A2.7386127875258306,2.7386127875258306,0,1,1,2.7386127875258306,0" stroke="#4c78a8" stroke-width="2" opacity="0.7"></path><path aria-label="Instantaneous reproduction number R(t): 0.996331701175; States: MA" role="graphics-symbol" aria-roledescription="point" transform="translate(287.386984703834,190)" d="M2.7386127875258306,0A2.7386127875258306,2.7386127875258306,0,1,1,-2.7386127875258306,0A2.7386127875258306,2.7386127875258306,0,1,1,2.7386127875258306,0" stroke="#4c78a8" stroke-width="2" opacity="0.7"></path><path aria-label="Instantaneous reproduction number R(t): 0.9978032416; States: AL" role="graphics-symbol" aria-roledescription="point" transform="translate(289.1037818671161,30)" d="M2.7386127875258306,0A2.7386127875258306,2.7386127875258306,0,1,1,-2.7386127875258306,0A2.7386127875258306,2.7386127875258306,0,1,1,2.7386127875258306,0" stroke="#4c78a8" stroke-width="2" opacity="0.7"></path><path aria-label="Instantaneous reproduction number R(t): 1.01322030494; States: SP" role="graphics-symbol" aria-roledescription="point" transform="translate(307.09035576290836,510)" d="M2.7386127875258306,0A2.7386127875258306,2.7386127875258306,0,1,1,-2.7386127875258306,0A2.7386127875258306,2.7386127875258306,0,1,1,2.7386127875258306,0" stroke="#4c78a8" stroke-width="2" opacity="0.7"></path><path aria-label="Instantaneous reproduction number R(t): 1.01767102336; States: TO" role="graphics-symbol" aria-roledescription="point" transform="translate(312.2828605866945,530)" d="M2.7386127875258306,0A2.7386127875258306,2.7386127875258306,0,1,1,-2.7386127875258306,0A2.7386127875258306,2.7386127875258306,0,1,1,2.7386127875258306,0" stroke="#4c78a8" stroke-width="2" opacity="0.7"></path><path aria-label="Instantaneous reproduction number R(t): 1.04377108185; States: PI" role="graphics-symbol" aria-roledescription="point" transform="translate(342.73292882074514,330)" d="M2.7386127875258306,0A2.7386127875258306,2.7386127875258306,0,1,1,-2.7386127875258306,0A2.7386127875258306,2.7386127875258306,0,1,1,2.7386127875258306,0" stroke="#4c78a8" stroke-width="2" opacity="0.7"></path><path aria-label="Instantaneous reproduction number R(t): 1.05226650667; States: PR" role="graphics-symbol" aria-roledescription="point" transform="translate(352.6442577845083,350)" d="M2.7386127875258306,0A2.7386127875258306,2.7386127875258306,0,1,1,-2.7386127875258306,0A2.7386127875258306,2.7386127875258306,0,1,1,2.7386127875258306,0" stroke="#4c78a8" stroke-width="2" opacity="0.7"></path><path aria-label="Instantaneous reproduction number R(t): 1.0636909768; States: MG" role="graphics-symbol" aria-roledescription="point" transform="translate(365.9728062674368,210)" d="M2.7386127875258306,0A2.7386127875258306,2.7386127875258306,0,1,1,-2.7386127875258306,0A2.7386127875258306,2.7386127875258306,0,1,1,2.7386127875258306,0" stroke="#4c78a8" stroke-width="2" opacity="0.7"></path><path aria-label="Instantaneous reproduction number R(t): 1.1223342476; States: SE" role="graphics-symbol" aria-roledescription="point" transform="translate(434.3899555299198,490)" d="M2.7386127875258306,0A2.7386127875258306,2.7386127875258306,0,1,1,-2.7386127875258306,0A2.7386127875258306,2.7386127875258306,0,1,1,2.7386127875258306,0" stroke="#4c78a8" stroke-width="2" opacity="0.7"></path><path aria-label="Instantaneous reproduction number R(t): 1.14844281731; States: SC" role="graphics-symbol" aria-roledescription="point" transform="translate(464.8499535300633,470)" d="M2.7386127875258306,0A2.7386127875258306,2.7386127875258306,0,1,1,-2.7386127875258306,0A2.7386127875258306,2.7386127875258306,0,1,1,2.7386127875258306,0" stroke="#4c78a8" stroke-width="2" opacity="0.7"></path><path aria-label="Instantaneous reproduction number R(t): 1.15476787463; States: AP" role="graphics-symbol" aria-roledescription="point" transform="translate(472.2291870738208,70)" d="M2.7386127875258306,0A2.7386127875258306,2.7386127875258306,0,1,1,-2.7386127875258306,0A2.7386127875258306,2.7386127875258306,0,1,1,2.7386127875258306,0" stroke="#4c78a8" stroke-width="2" opacity="0.7"></path><path aria-label="Instantaneous reproduction number R(t): 1.22389230051; States: MS" role="graphics-symbol" aria-roledescription="point" transform="translate(552.8743505986017,230)" d="M2.7386127875258306,0A2.7386127875258306,2.7386127875258306,0,1,1,-2.7386127875258306,0A2.7386127875258306,2.7386127875258306,0,1,1,2.7386127875258306,0" stroke="#4c78a8" stroke-width="2" opacity="0.7"></path><path aria-label="Instantaneous reproduction number R(t): 1.23686351979; States: RR" role="graphics-symbol" aria-roledescription="point" transform="translate(568.0074397516032,430)" d="M2.7386127875258306,0A2.7386127875258306,2.7386127875258306,0,1,1,-2.7386127875258306,0A2.7386127875258306,2.7386127875258306,0,1,1,2.7386127875258306,0" stroke="#4c78a8" stroke-width="2" opacity="0.7"></path></g><g class="mark-rule role-mark layer_1_marks" role="graphics-object" aria-roledescription="rule mark container"><line aria-label="a: 1" role="graphics-symbol" aria-roledescription="rule mark" transform="translate(291.66666666666663,0)" x2="0" y2="540" stroke="black" stroke-width="0.2"></line><line aria-label="a: 1" role="graphics-symbol" aria-roledescription="rule mark" transform="translate(291.66666666666663,0)" x2="0" y2="540" stroke="black" stroke-width="0.2"></line><line aria-label="a: 1" role="graphics-symbol" aria-roledescription="rule mark" transform="translate(291.66666666666663,0)" x2="0" y2="540" stroke="black" stroke-width="0.2"></line><line aria-label="a: 1" role="graphics-symbol" aria-roledescription="rule mark" transform="translate(291.66666666666663,0)" x2="0" y2="540" stroke="black" stroke-width="0.2"></line><line aria-label="a: 1" role="graphics-symbol" aria-roledescription="rule mark" transform="translate(291.66666666666663,0)" x2="0" y2="540" stroke="black" stroke-width="0.2"></line><line aria-label="a: 1" role="graphics-symbol" aria-roledescription="rule mark" transform="translate(291.66666666666663,0)" x2="0" y2="540" stroke="black" stroke-width="0.2"></line><line aria-label="a: 1" role="graphics-symbol" aria-roledescription="rule mark" transform="translate(291.66666666666663,0)" x2="0" y2="540" stroke="black" stroke-width="0.2"></line><line aria-label="a: 1" role="graphics-symbol" aria-roledescription="rule mark" transform="translate(291.66666666666663,0)" x2="0" y2="540" stroke="black" stroke-width="0.2"></line><line aria-label="a: 1" role="graphics-symbol" aria-roledescription="rule mark" transform="translate(291.66666666666663,0)" x2="0" y2="540" stroke="black" stroke-width="0.2"></line><line aria-label="a: 1" role="graphics-symbol" aria-roledescription="rule mark" transform="translate(291.66666666666663,0)" x2="0" y2="540" stroke="black" stroke-width="0.2"></line><line aria-label="a: 1" role="graphics-symbol" aria-roledescription="rule mark" transform="translate(291.66666666666663,0)" x2="0" y2="540" stroke="black" stroke-width="0.2"></line><line aria-label="a: 1" role="graphics-symbol" aria-roledescription="rule mark" transform="translate(291.66666666666663,0)" x2="0" y2="540" stroke="black" stroke-width="0.2"></line><line aria-label="a: 1" role="graphics-symbol" aria-roledescription="rule mark" transform="translate(291.66666666666663,0)" x2="0" y2="540" stroke="black" stroke-width="0.2"></line><line aria-label="a: 1" role="graphics-symbol" aria-roledescription="rule mark" transform="translate(291.66666666666663,0)" x2="0" y2="540" stroke="black" stroke-width="0.2"></line><line aria-label="a: 1" role="graphics-symbol" aria-roledescription="rule mark" transform="translate(291.66666666666663,0)" x2="0" y2="540" stroke="black" stroke-width="0.2"></line><line aria-label="a: 1" role="graphics-symbol" aria-roledescription="rule mark" transform="translate(291.66666666666663,0)" x2="0" y2="540" stroke="black" stroke-width="0.2"></line><line aria-label="a: 1" role="graphics-symbol" aria-roledescription="rule mark" transform="translate(291.66666666666663,0)" x2="0" y2="540" stroke="black" stroke-width="0.2"></line><line aria-label="a: 1" role="graphics-symbol" aria-roledescription="rule mark" transform="translate(291.66666666666663,0)" x2="0" y2="540" stroke="black" stroke-width="0.2"></line><line aria-label="a: 1" role="graphics-symbol" aria-roledescription="rule mark" transform="translate(291.66666666666663,0)" x2="0" y2="540" stroke="black" stroke-width="0.2"></line><line aria-label="a: 1" role="graphics-symbol" aria-roledescription="rule mark" transform="translate(291.66666666666663,0)" x2="0" y2="540" stroke="black" stroke-width="0.2"></line><line aria-label="a: 1" role="graphics-symbol" aria-roledescription="rule mark" transform="translate(291.66666666666663,0)" x2="0" y2="540" stroke="black" stroke-width="0.2"></line><line aria-label="a: 1" role="graphics-symbol" aria-roledescription="rule mark" transform="translate(291.66666666666663,0)" x2="0" y2="540" stroke="black" stroke-width="0.2"></line><line aria-label="a: 1" role="graphics-symbol" aria-roledescription="rule mark" transform="translate(291.66666666666663,0)" x2="0" y2="540" stroke="black" stroke-width="0.2"></line><line aria-label="a: 1" role="graphics-symbol" aria-roledescription="rule mark" transform="translate(291.66666666666663,0)" x2="0" y2="540" stroke="black" stroke-width="0.2"></line><line aria-label="a: 1" role="graphics-symbol" aria-roledescription="rule mark" transform="translate(291.66666666666663,0)" x2="0" y2="540" stroke="black" stroke-width="0.2"></line><line aria-label="a: 1" role="graphics-symbol" aria-roledescription="rule mark" transform="translate(291.66666666666663,0)" x2="0" y2="540" stroke="black" stroke-width="0.2"></line><line aria-label="a: 1" role="graphics-symbol" aria-roledescription="rule mark" transform="translate(291.66666666666663,0)" x2="0" y2="540" stroke="black" stroke-width="0.2"></line></g><g class="mark-rule role-mark layer_2_marks" role="graphics-object" aria-roledescription="rule mark container"><line aria-label="CI 0.975: 0.779574797356; upper_Quantile.0.025(R): 0.843322321763; index: RJ; Quantile.0.975(R): 0.843322321763; Quantile.0.025(R): 0.779574797356" role="graphics-symbol" aria-roledescription="errorbar" transform="translate(34.50393024876341,370)" x2="74.37211180773383" y2="0" stroke="blue" stroke-width="0.6"></line><line aria-label="CI 0.975: 0.761556727261; upper_Quantile.0.025(R): 0.872806341162; index: RN; Quantile.0.975(R): 0.872806341162; Quantile.0.025(R): 0.761556727261" role="graphics-symbol" aria-roledescription="errorbar" transform="translate(13.48284847171895,390)" x2="129.7912162171249" y2="0" stroke="blue" stroke-width="0.6"></line><line aria-label="CI 0.975: 0.80111549839; upper_Quantile.0.025(R): 0.855887443581; index: ES; Quantile.0.975(R): 0.855887443581; Quantile.0.025(R): 0.80111549839" role="graphics-symbol" aria-roledescription="errorbar" transform="translate(59.63474812114954,150)" x2="63.90060272350988" y2="0" stroke="blue" stroke-width="0.6"></line><line aria-label="CI 0.975: 0.797251740163; upper_Quantile.0.025(R): 0.884983623906; index: RO; Quantile.0.975(R): 0.884983623906; Quantile.0.025(R): 0.797251740163" role="graphics-symbol" aria-roledescription="errorbar" transform="translate(55.127030189720486,410)" x2="102.35386436763521" y2="0" stroke="blue" stroke-width="0.6"></line><line aria-label="CI 0.975: 0.80940544442; upper_Quantile.0.025(R): 0.878657616553; index: GO; Quantile.0.975(R): 0.878657616553; Quantile.0.025(R): 0.80940544442" role="graphics-symbol" aria-roledescription="errorbar" transform="translate(69.30635182350346,170)" x2="80.7942008212543" y2="0" stroke="blue" stroke-width="0.6"></line><line aria-label="CI 0.975: 0.829751122387; upper_Quantile.0.025(R): 0.869485227546; index: CE; Quantile.0.975(R): 0.869485227546; Quantile.0.025(R): 0.829751122387" role="graphics-symbol" aria-roledescription="errorbar" transform="translate(93.0429761182327,110)" x2="46.356456019267625" y2="0" stroke="blue" stroke-width="0.6"></line><line aria-label="CI 0.975: 0.838145015176; upper_Quantile.0.025(R): 0.915862013448; index: DF; Quantile.0.975(R): 0.915862013448; Quantile.0.025(R): 0.838145015176" role="graphics-symbol" aria-roledescription="errorbar" transform="translate(102.83585103921992,130)" x2="90.66983131649029" y2="0" stroke="blue" stroke-width="0.6"></line><line aria-label="CI 0.975: 0.870114800255; upper_Quantile.0.025(R): 0.935434219698; index: MT; Quantile.0.975(R): 0.935434219698; Quantile.0.025(R): 0.870114800255" role="graphics-symbol" aria-roledescription="errorbar" transform="translate(140.1339336307841,250)" x2="76.20598935023636" y2="0" stroke="blue" stroke-width="0.6"></line><line aria-label="CI 0.975: 0.888104152053; upper_Quantile.0.025(R): 0.954410338916; index: AM; Quantile.0.975(R): 0.954410338916; Quantile.0.025(R): 0.888104152053" role="graphics-symbol" aria-roledescription="errorbar" transform="translate(161.1215107289564,50)" x2="77.35721800613601" y2="0" stroke="blue" stroke-width="0.6"></line><line aria-label="CI 0.975: 0.906318901626; upper_Quantile.0.025(R): 0.941933119417; index: BA; Quantile.0.975(R): 0.941933119417; Quantile.0.025(R): 0.906318901626" role="graphics-symbol" aria-roledescription="errorbar" transform="translate(182.37205189650626,90)" x2="41.54992075660479" y2="0" stroke="blue" stroke-width="0.6"></line><line aria-label="CI 0.975: 0.915431663458; upper_Quantile.0.025(R): 0.965684353673; index: RS; Quantile.0.975(R): 0.965684353673; Quantile.0.025(R): 0.915431663458" role="graphics-symbol" aria-roledescription="errorbar" transform="translate(193.0036073673191,450)" x2="58.62813858470591" y2="0" stroke="blue" stroke-width="0.6"></line><line aria-label="CI 0.975: 0.919776243013; upper_Quantile.0.025(R): 0.967635618814; index: PB; Quantile.0.975(R): 0.967635618814; Quantile.0.025(R): 0.919776243013" role="graphics-symbol" aria-roledescription="errorbar" transform="translate(198.07228351506558,290)" x2="55.83593843440465" y2="0" stroke="blue" stroke-width="0.6"></line><line aria-label="CI 0.975: 0.913976159689; upper_Quantile.0.025(R): 1.01122966061; index: AC; Quantile.0.975(R): 1.01122966061; Quantile.0.025(R): 0.913976159689" role="graphics-symbol" aria-roledescription="errorbar" transform="translate(191.30551963735553,10)" x2="113.46241773583915" y2="0" stroke="blue" stroke-width="0.6"></line><line aria-label="CI 0.975: 0.946991076313; upper_Quantile.0.025(R): 0.991539351442; index: PA; Quantile.0.975(R): 0.991539351442; Quantile.0.025(R): 0.946991076313" role="graphics-symbol" aria-roledescription="errorbar" transform="translate(229.82292236558882,270)" x2="51.97298764998274" y2="0" stroke="blue" stroke-width="0.6"></line><line aria-label="CI 0.975: 0.95709594533; upper_Quantile.0.025(R): 1.01619821706; index: PE; Quantile.0.975(R): 1.01619821706; Quantile.0.025(R): 0.95709594533" role="graphics-symbol" aria-roledescription="errorbar" transform="translate(241.61193621841915,310)" x2="68.95265035363497" y2="0" stroke="blue" stroke-width="0.6"></line><line aria-label="CI 0.975: 0.971763570023; upper_Quantile.0.025(R): 1.02172836796; index: MA; Quantile.0.975(R): 1.02172836796; Quantile.0.025(R): 0.971763570023" role="graphics-symbol" aria-roledescription="errorbar" transform="translate(258.7241650268923,190)" x2="58.29226425611495" y2="0" stroke="blue" stroke-width="0.6"></line><line aria-label="CI 0.975: 0.971624750133; upper_Quantile.0.025(R): 1.02434048937; index: AL; Quantile.0.975(R): 1.02434048937; Quantile.0.025(R): 0.971624750133" role="graphics-symbol" aria-roledescription="errorbar" transform="translate(258.5622084886884,30)" x2="61.50169577302432" y2="0" stroke="blue" stroke-width="0.6"></line><line aria-label="CI 0.975: 0.997257027715; upper_Quantile.0.025(R): 1.03002676582; index: SP; Quantile.0.975(R): 1.03002676582; Quantile.0.025(R): 0.997257027715" role="graphics-symbol" aria-roledescription="errorbar" transform="translate(288.46653233466884,510)" x2="38.23136112347851" y2="0" stroke="blue" stroke-width="0.6"></line><line aria-label="CI 0.975: 0.970878079062; upper_Quantile.0.025(R): 1.06699931739; index: TO; Quantile.0.975(R): 1.06699931739; Quantile.0.025(R): 0.970878079062" role="graphics-symbol" aria-roledescription="errorbar" transform="translate(257.6910922388063,530)" x2="112.14144471357992" y2="0" stroke="blue" stroke-width="0.6"></line><line aria-label="CI 0.975: 1.01719209615; upper_Quantile.0.025(R): 1.07119826509; index: PI; Quantile.0.975(R): 1.07119826509; Quantile.0.025(R): 1.01719209615" role="graphics-symbol" aria-roledescription="errorbar" transform="translate(311.72411217460416,330)" x2="63.007197099145515" y2="0" stroke="blue" stroke-width="0.6"></line><line aria-label="CI 0.975: 1.02677255763; upper_Quantile.0.025(R): 1.08010154474; index: PR; Quantile.0.975(R): 1.08010154474; Quantile.0.025(R): 1.02677255763" role="graphics-symbol" aria-roledescription="errorbar" transform="translate(322.9013172326858,350)" x2="62.217151634277" y2="0" stroke="blue" stroke-width="0.6"></line><line aria-label="CI 0.975: 1.04063429343; upper_Quantile.0.025(R): 1.08768657453; index: MG; Quantile.0.975(R): 1.08768657453; Quantile.0.025(R): 1.04063429343" role="graphics-symbol" aria-roledescription="errorbar" transform="translate(339.07334233881517,210)" x2="54.89432795034122" y2="0" stroke="blue" stroke-width="0.6"></line><line aria-label="CI 0.975: 1.07612909615; upper_Quantile.0.025(R): 1.17121250324; index: SE; Quantile.0.975(R): 1.17121250324; Quantile.0.025(R): 1.07612909615" role="graphics-symbol" aria-roledescription="errorbar" transform="translate(380.4839455123671,490)" x2="110.93064159966553" y2="0" stroke="blue" stroke-width="0.6"></line><line aria-label="CI 0.975: 1.11444755979; upper_Quantile.0.025(R): 1.18675497869; index: SC; Quantile.0.975(R): 1.18675497869; Quantile.0.025(R): 1.11444755979" role="graphics-symbol" aria-roledescription="errorbar" transform="translate(425.1888197533276,470)" x2="84.35865538063291" y2="0" stroke="blue" stroke-width="0.6"></line><line aria-label="CI 0.975: 1.05323961713; upper_Quantile.0.025(R): 1.24282201605; index: AP; Quantile.0.975(R): 1.24282201605; Quantile.0.025(R): 1.05323961713" role="graphics-symbol" aria-roledescription="errorbar" transform="translate(353.7795533196835,70)" x2="221.1794654082288" y2="0" stroke="blue" stroke-width="0.6"></line><line aria-label="CI 0.975: 1.160627253; upper_Quantile.0.025(R): 1.29343439837; index: MS; Quantile.0.975(R): 1.29343439837; Quantile.0.025(R): 1.160627253" role="graphics-symbol" aria-roledescription="errorbar" transform="translate(479.0651285002695,230)" x2="154.94166959661078" y2="0" stroke="blue" stroke-width="0.6"></line><line aria-label="CI 0.975: 1.16980850078; upper_Quantile.0.025(R): 1.32282591584; index: RR; Quantile.0.975(R): 1.32282591584; Quantile.0.025(R): 1.16980850078" role="graphics-symbol" aria-roledescription="errorbar" transform="translate(489.7765842466169,430)" x2="178.5203175626064" y2="0" stroke="blue" stroke-width="0.6"></line></g><g class="mark-group role-title"><g transform="translate(350,-17.2)"><path class="background" aria-hidden="true" d="M0,0h0v0h0Z" pointer-events="none"></path><g><g class="mark-text role-title-text" role="graphics-symbol" aria-roledescription="title" aria-label="Title text 'Instantaneous reproduction number estimate for all states in Brazil'" pointer-events="none"><text text-anchor="middle" transform="translate(0,10)" font-family="sans-serif" font-size="13px" font-weight="bold" fill="#000" opacity="1">Instantaneous reproduction number estimate for all states in Brazil</text></g></g><path class="foreground" aria-hidden="true" d="" pointer-events="none" display="none"></path></g></g></g><path class="foreground" aria-hidden="true" d="" display="none"></path></g></g></g></svg>