<svg class="marks" width="749" height="600" viewBox="0 0 749 600" version="1.1" xmlns="http://www.w3.org/2000/svg" xmlns:xlink="http://www.w3.org/1999/xlink"><rect width="749" height="600" fill="white"></rect><g fill="none" stroke-miterlimit="10" transform="translate(43,23)"><g class="mark-group role-frame root" role="graphics-object" aria-roledescription="group mark container"><g transform="translate(0,0)"><path class="background" aria-hidden="true" d="M0.5,0.5h700v540h-700Z"></path><g><g class="mark-group role-axis" aria-hidden="true"><g transform="translate(0.5,0.5)"><path class="background" aria-hidden="true" d="M0,0h0v0h0Z" pointer-events="none"></path><g><g class="mark-rule role-axis-grid" pointer-events="none"><line transform="translate(0,10)" x2="700" y2="0" stroke="#ddd" stroke-width="1" opacity="1"></line><line transform="translate(0,30)" x2="700" y2="0" stroke="#ddd" stroke-width="1" opacity="1"></line><line transform="translate(0,50)" x2="700" y2="0" stroke="#ddd" stroke-width="1" opacity="1"></line><line transform="translate(0,70)" x2="700" y2="0" stroke="#ddd" stroke-width="1" opacity="1"></line><line transform="translate(0,90)" x2="700" y2="0" stroke="#ddd" stroke-width="1" opacity="1"></line><line transform="translate(0,110)" x2="700" y2="0" stroke="#ddd" stroke-width="1" opacity="1"></line><line transform="translate(0,130)" x2="700" y2="0" stroke="#ddd" stroke-width="1" opacity="1"></line><line transform="translate(0,150)" x2="700" y2="0" stroke="#ddd" stroke-width="1" opacity="1"></line><line transform="translate(0,170)" x2="700" y2="0" stroke="#ddd" stroke-width="1" opacity="1"></line><line transform="translate(0,190)" x2="700" y2="0" stroke="#ddd" stroke-width="1" opacity="1"></line><line transform="translate(0,210)" x2="700" y2="0" stroke="#ddd" stroke-width="1" opacity="1"></line><line transform="translate(0,230)" x2="700" y2="0" stroke="#ddd" stroke-width="1" opacity="1"></line><line transform="translate(0,250)" x2="700" y2="0" stroke="#ddd" stroke-width="1" opacity="1"></line><line transform="translate(0,270)" x2="700" y2="0" stroke="#ddd" stroke-width="1" opacity="1"></line><line transform="translate(0,290)" x2="700" y2="0" stroke="#ddd" stroke-width="1" opacity="1"></line><line transform="translate(0,310)" x2="700" y2="0" stroke="#ddd" stroke-width="1" opacity="1"></line><line transform="translate(0,330)" x2="700" y2="0" stroke="#ddd" stroke-width="1" opacity="1"></line><line transform="translate(0,350)" x2="700" y2="0" stroke="#ddd" stroke-width="1" opacity="1"></line><line transform="translate(0,370)" x2="700" y2="0" stroke="#ddd" stroke-width="1" opacity="1"></line><line transform="translate(0,390)" x2="700" y2="0" stroke="#ddd" stroke-width="1" opacity="1"></line><line transform="translate(0,410)" x2="700" y2="0" stroke="#ddd" stroke-width="1" opacity="1"></line><line transform="translate(0,430)" x2="700" y2="0" stroke="#ddd" stroke-width="1" opacity="1"></line><line transform="translate(0,450)" x2="700" y2="0" stroke="#ddd" stroke-width="1" opacity="1"></line><line transform="translate(0,470)" x2="700" y2="0" stroke="#ddd" stroke-width="1" opacity="1"></line><line transform="translate(0,490)" x2="700" y2="0" stroke="#ddd" stroke-width="1" opacity="1"></line><line transform="translate(0,510)" x2="700" y2="0" stroke="#ddd" stroke-width="1" opacity="1"></line><line transform="translate(0,530)" x2="700" y2="0" stroke="#ddd" stroke-width="1" opacity="1"></line></g></g><path class="foreground" aria-hidden="true" d="" pointer-events="none" display="none"></path></g></g><g class="mark-group role-axis" role="graphics-symbol" aria-roledescription="axis" aria-label="X-axis titled 'Instantaneous reproduction number R(t), CI 0.975' for a linear scale with values from 0.4 to 1.7"><g transform="translate(0.5,540.5)"><path class="background" aria-hidden="true" d="M0,0h0v0h0Z" pointer-events="none"></path><g><g class="mark-rule role-axis-tick" pointer-events="none"><line transform="translate(0,0)" x2="0" y2="5" stroke="#888" stroke-width="1" opacity="1"></line><line transform="translate(54,0)" x2="0" y2="5" stroke="#888" stroke-width="1" opacity="1"></line><line transform="translate(108,0)" x2="0" y2="5" stroke="#888" stroke-width="1" opacity="1"></line><line transform="translate(162,0)" x2="0" y2="5" stroke="#888" stroke-width="1" opacity="1"></line><line transform="translate(215,0)" x2="0" y2="5" stroke="#888" stroke-width="1" opacity="1"></line><line transform="translate(269,0)" x2="0" y2="5" stroke="#888" stroke-width="1" opacity="1"></line><line transform="translate(323,0)" x2="0" y2="5" stroke="#888" stroke-width="1" opacity="1"></line><line transform="translate(377,0)" x2="0" y2="5" stroke="#888" stroke-width="1" opacity="1"></line><line transform="translate(431,0)" x2="0" y2="5" stroke="#888" stroke-width="1" opacity="1"></line><line transform="translate(485,0)" x2="0" y2="5" stroke="#888" stroke-width="1" opacity="1"></line><line transform="translate(538,0)" x2="0" y2="5" stroke="#888" stroke-width="1" opacity="1"></line><line transform="translate(592,0)" x2="0" y2="5" stroke="#888" stroke-width="1" opacity="1"></line><line transform="translate(646,0)" x2="0" y2="5" stroke="#888" stroke-width="1" opacity="1"></line><line transform="translate(700,0)" x2="0" y2="5" stroke="#888" stroke-width="1" opacity="1"></line></g><g class="mark-text role-axis-label" pointer-events="none"><text text-anchor="start" transform="translate(0,15)" font-family="sans-serif" font-size="10px" fill="#000" opacity="1">0.4</text><text text-anchor="middle" transform="translate(53.84615384615384,15)" font-family="sans-serif" font-size="10px" fill="#000" opacity="1">0.5</text><text text-anchor="middle" transform="translate(107.69230769230768,15)" font-family="sans-serif" font-size="10px" fill="#000" opacity="1">0.6</text><text text-anchor="middle" transform="translate(161.53846153846152,15)" font-family="sans-serif" font-size="10px" fill="#000" opacity="1">0.7</text><text text-anchor="middle" transform="translate(215.38461538461544,15)" font-family="sans-serif" font-size="10px" fill="#000" opacity="1">0.8</text><text text-anchor="middle" transform="translate(269.2307692307693,15)" font-family="sans-serif" font-size="10px" fill="#000" opacity="1">0.9</text><text text-anchor="middle" transform="translate(323.0769230769231,15)" font-family="sans-serif" font-size="10px" fill="#000" opacity="1">1.0</text><text text-anchor="middle" transform="translate(376.92307692307696,15)" font-family="sans-serif" font-size="10px" fill="#000" opacity="1">1.1</text><text text-anchor="middle" transform="translate(430.7692307692308,15)" font-family="sans-serif" font-size="10px" fill="#000" opacity="1">1.2</text><text text-anchor="middle" transform="translate(484.6153846153847,15)" font-family="sans-serif" font-size="10px" fill="#000" opacity="1">1.3</text><text text-anchor="middle" transform="translate(538.4615384615385,15)" font-family="sans-serif" font-size="10px" fill="#000" opacity="1">1.4</text><text text-anchor="middle" transform="translate(592.3076923076925,15)" font-family="sans-serif" font-size="10px" fill="#000" opacity="1">1.5</text><text text-anchor="middle" transform="translate(646.1538461538463,15)" font-family="sans-serif" font-size="10px" fill="#000" opacity="1">1.6</text><text text-anchor="end" transform="translate(700,15)" font-family="sans-serif" font-size="10px" fill="#000" opacity="1">1.7</text></g><g class="mark-rule role-axis-domain" pointer-events="none"><line transform="translate(0,0)" x2="700" y2="0" stroke="#888" stroke-width="1" opacity="1"></line></g><g class="mark-text role-axis-title" pointer-events="none"><text text-anchor="middle" transform="translate(350,30)" font-family="sans-serif" font-size="11px" font-weight="bold" fill="#000" opacity="1">Instantaneous reproduction number R(t), CI 0.975</text></g></g><path class="foreground" aria-hidden="true" d="" pointer-events="none" display="none"></path></g></g><g class="mark-group role-axis" role="graphics-symbol" aria-roledescription="axis" aria-label="Y-axis titled 'States' for a discrete scale with 27 values: AC, AL, AM, AP, BA, ending with TO"><g transform="translate(0.5,0.5)"><path class="background" aria-hidden="true" d="M0,0h0v0h0Z" pointer-events="none"></path><g><g class="mark-rule role-axis-tick" pointer-events="none"><line transform="translate(0,10)" x2="-5" y2="0" stroke="#888" stroke-width="1" opacity="1"></line><line transform="translate(0,30)" x2="-5" y2="0" stroke="#888" stroke-width="1" opacity="1"></line><line transform="translate(0,50)" x2="-5" y2="0" stroke="#888" stroke-width="1" opacity="1"></line><line transform="translate(0,70)" x2="-5" y2="0" stroke="#888" stroke-width="1" opacity="1"></line><line transform="translate(0,90)" x2="-5" y2="0" stroke="#888" stroke-width="1" opacity="1"></line><line transform="translate(0,110)" x2="-5" y2="0" stroke="#888" stroke-width="1" opacity="1"></line><line transform="translate(0,130)" x2="-5" y2="0" stroke="#888" stroke-width="1" opacity="1"></line><line transform="translate(0,150)" x2="-5" y2="0" stroke="#888" stroke-width="1" opacity="1"></line><line transform="translate(0,170)" x2="-5" y2="0" stroke="#888" stroke-width="1" opacity="1"></line><line transform="translate(0,190)" x2="-5" y2="0" stroke="#888" stroke-width="1" opacity="1"></line><line transform="translate(0,210)" x2="-5" y2="0" stroke="#888" stroke-width="1" opacity="1"></line><line transform="translate(0,230)" x2="-5" y2="0" stroke="#888" stroke-width="1" opacity="1"></line><line transform="translate(0,250)" x2="-5" y2="0" stroke="#888" stroke-width="1" opacity="1"></line><line transform="translate(0,270)" x2="-5" y2="0" stroke="#888" stroke-width="1" opacity="1"></line><line transform="translate(0,290)" x2="-5" y2="0" stroke="#888" stroke-width="1" opacity="1"></line><line transform="translate(0,310)" x2="-5" y2="0" stroke="#888" stroke-width="1" opacity="1"></line><line transform="translate(0,330)" x2="-5" y2="0" stroke="#888" stroke-width="1" opacity="1"></line><line transform="translate(0,350)" x2="-5" y2="0" stroke="#888" stroke-width="1" opacity="1"></line><line transform="translate(0,370)" x2="-5" y2="0" stroke="#888" stroke-width="1" opacity="1"></line><line transform="translate(0,390)" x2="-5" y2="0" stroke="#888" stroke-width="1" opacity="1"></line><line transform="translate(0,410)" x2="-5" y2="0" stroke="#888" stroke-width="1" opacity="1"></line><line transform="translate(0,430)" x2="-5" y2="0" stroke="#888" stroke-width="1" opacity="1"></line><line transform="translate(0,450)" x2="-5" y2="0" stroke="#888" stroke-width="1" opacity="1"></line><line transform="translate(0,470)" x2="-5" y2="0" stroke="#888" stroke-width="1" opacity="1"></line><line transform="translate(0,490)" x2="-5" y2="0" stroke="#888" stroke-width="1" opacity="1"></line><line transform="translate(0,510)" x2="-5" y2="0" stroke="#888" stroke-width="1" opacity="1"></line><line transform="translate(0,530)" x2="-5" y2="0" stroke="#888" stroke-width="1" opacity="1"></line></g><g class="mark-text role-axis-label" pointer-events="none"><text text-anchor="end" transform="translate(-7,12.5)" font-family="sans-serif" font-size="10px" fill="#000" opacity="1">AC</text><text text-anchor="end" transform="translate(-7,32.5)" font-family="sans-serif" font-size="10px" fill="#000" opacity="1">AL</text><text text-anchor="end" transform="translate(-7,52.5)" font-family="sans-serif" font-size="10px" fill="#000" opacity="1">AM</text><text text-anchor="end" transform="translate(-7,72.5)" font-family="sans-serif" font-size="10px" fill="#000" opacity="1">AP</text><text text-anchor="end" transform="translate(-7,92.5)" font-family="sans-serif" font-size="10px" fill="#000" opacity="1">BA</text><text text-anchor="end" transform="translate(-7,112.5)" font-family="sans-serif" font-size="10px" fill="#000" opacity="1">CE</text><text text-anchor="end" transform="translate(-7,132.5)" font-family="sans-serif" font-size="10px" fill="#000" opacity="1">DF</text><text text-anchor="end" transform="translate(-7,152.5)" font-family="sans-serif" font-size="10px" fill="#000" opacity="1">ES</text><text text-anchor="end" transform="translate(-7,172.5)" font-family="sans-serif" font-size="10px" fill="#000" opacity="1">GO</text><text text-anchor="end" transform="translate(-7,192.5)" font-family="sans-serif" font-size="10px" fill="#000" opacity="1">MA</text><text text-anchor="end" transform="translate(-7,212.5)" font-family="sans-serif" font-size="10px" fill="#000" opacity="1">MG</text><text text-anchor="end" transform="translate(-7,232.5)" font-family="sans-serif" font-size="10px" fill="#000" opacity="1">MS</text><text text-anchor="end" transform="translate(-7,252.5)" font-family="sans-serif" font-size="10px" fill="#000" opacity="1">MT</text><text text-anchor="end" transform="translate(-7,272.5)" font-family="sans-serif" font-size="10px" fill="#000" opacity="1">PA</text><text text-anchor="end" transform="translate(-7,292.5)" font-family="sans-serif" font-size="10px" fill="#000" opacity="1">PB</text><text text-anchor="end" transform="translate(-7,312.5)" font-family="sans-serif" font-size="10px" fill="#000" opacity="1">PE</text><text text-anchor="end" transform="translate(-7,332.5)" font-family="sans-serif" font-size="10px" fill="#000" opacity="1">PI</text><text text-anchor="end" transform="translate(-7,352.5)" font-family="sans-serif" font-size="10px" fill="#000" opacity="1">PR</text><text text-anchor="end" transform="translate(-7,372.5)" font-family="sans-serif" font-size="10px" fill="#000" opacity="1">RJ</text><text text-anchor="end" transform="translate(-7,392.5)" font-family="sans-serif" font-size="10px" fill="#000" opacity="1">RN</text><text text-anchor="end" transform="translate(-7,412.5)" font-family="sans-serif" font-size="10px" fill="#000" opacity="1">RO</text><text text-anchor="end" transform="translate(-7,432.5)" font-family="sans-serif" font-size="10px" fill="#000" opacity="1">RR</text><text text-anchor="end" transform="translate(-7,452.5)" font-family="sans-serif" font-size="10px" fill="#000" opacity="1">RS</text><text text-anchor="end" transform="translate(-7,472.5)" font-family="sans-serif" font-size="10px" fill="#000" opacity="1">SC</text><text text-anchor="end" transform="translate(-7,492.5)" font-family="sans-serif" font-size="10px" fill="#000" opacity="1">SE</text><text text-anchor="end" transform="translate(-7,512.5)" font-family="sans-serif" font-size="10px" fill="#000" opacity="1">SP</text><text text-anchor="end" transform="translate(-7,532.5)" font-family="sans-serif" font-size="10px" fill="#000" opacity="1">TO</text></g><g class="mark-rule role-axis-domain" pointer-events="none"><line transform="translate(0,0)" x2="0" y2="540" stroke="#888" stroke-width="1" opacity="1"></line></g><g class="mark-text role-axis-title" pointer-events="none"><text text-anchor="middle" transform="translate(-27,270) rotate(-90) translate(0,-2)" font-family="sans-serif" font-size="11px" font-weight="bold" fill="#000" opacity="1">States</text></g></g><path class="foreground" aria-hidden="true" d="" pointer-events="none" display="none"></path></g></g><g class="mark-symbol role-mark layer_0_marks" role="graphics-object" aria-roledescription="symbol mark container"><path aria-label="Instantaneous reproduction number R(t): 0.523255870706; States: AP" role="graphics-symbol" aria-roledescription="point" transform="translate(66.36854576482847,70)" d="M2.7386127875258306,0A2.7386127875258306,2.7386127875258306,0,1,1,-2.7386127875258306,0A2.7386127875258306,2.7386127875258306,0,1,1,2.7386127875258306,0" stroke="#4c78a8" stroke-width="2" opacity="0.7"></path><path aria-label="Instantaneous reproduction number R(t): 0.882674755929; States: PA" role="graphics-symbol" aria-roledescription="point" transform="translate(259.90179165396466,270)" d="M2.7386127875258306,0A2.7386127875258306,2.7386127875258306,0,1,1,-2.7386127875258306,0A2.7386127875258306,2.7386127875258306,0,1,1,2.7386127875258306,0" stroke="#4c78a8" stroke-width="2" opacity="0.7"></path><path aria-label="Instantaneous reproduction number R(t): 0.885663172065; States: RO" role="graphics-symbol" aria-roledescription="point" transform="translate(261.5109388043426,410)" d="M2.7386127875258306,0A2.7386127875258306,2.7386127875258306,0,1,1,-2.7386127875258306,0A2.7386127875258306,2.7386127875258306,0,1,1,2.7386127875258306,0" stroke="#4c78a8" stroke-width="2" opacity="0.7"></path><path aria-label="Instantaneous reproduction number R(t): 0.896324367879; States: RJ" role="graphics-symbol" aria-roledescription="point" transform="translate(267.2515827041523,370)" d="M2.7386127875258306,0A2.7386127875258306,2.7386127875258306,0,1,1,-2.7386127875258306,0A2.7386127875258306,2.7386127875258306,0,1,1,2.7386127875258306,0" stroke="#4c78a8" stroke-width="2" opacity="0.7"></path><path aria-label="Instantaneous reproduction number R(t): 0.917460829537; States: SP" role="graphics-symbol" aria-roledescription="point" transform="translate(278.63275436612173,510)" d="M2.7386127875258306,0A2.7386127875258306,2.7386127875258306,0,1,1,-2.7386127875258306,0A2.7386127875258306,2.7386127875258306,0,1,1,2.7386127875258306,0" stroke="#4c78a8" stroke-width="2" opacity="0.7"></path><path aria-label="Instantaneous reproduction number R(t): 0.933319414253; States: BA" role="graphics-symbol" aria-roledescription="point" transform="translate(287.17199228984896,90)" d="M2.7386127875258306,0A2.7386127875258306,2.7386127875258306,0,1,1,-2.7386127875258306,0A2.7386127875258306,2.7386127875258306,0,1,1,2.7386127875258306,0" stroke="#4c78a8" stroke-width="2" opacity="0.7"></path><path aria-label="Instantaneous reproduction number R(t): 0.966216865946; States: AC" role="graphics-symbol" aria-roledescription="point" transform="translate(304.8860047399062,10)" d="M2.7386127875258306,0A2.7386127875258306,2.7386127875258306,0,1,1,-2.7386127875258306,0A2.7386127875258306,2.7386127875258306,0,1,1,2.7386127875258306,0" stroke="#4c78a8" stroke-width="2" opacity="0.7"></path><path aria-label="Instantaneous reproduction number R(t): 0.989228132574; States: PB" role="graphics-symbol" aria-roledescription="point" transform="translate(317.27668677071546,290)" d="M2.7386127875258306,0A2.7386127875258306,2.7386127875258306,0,1,1,-2.7386127875258306,0A2.7386127875258306,2.7386127875258306,0,1,1,2.7386127875258306,0" stroke="#4c78a8" stroke-width="2" opacity="0.7"></path><path aria-label="Instantaneous reproduction number R(t): 1.00573973894; States: AL" role="graphics-symbol" aria-roledescription="point" transform="translate(326.1675517378935,30)" d="M2.7386127875258306,0A2.7386127875258306,2.7386127875258306,0,1,1,-2.7386127875258306,0A2.7386127875258306,2.7386127875258306,0,1,1,2.7386127875258306,0" stroke="#4c78a8" stroke-width="2" opacity="0.7"></path><path aria-label="Instantaneous reproduction number R(t): 1.03220763471; States: MG" role="graphics-symbol" aria-roledescription="point" transform="translate(340.41949561386735,210)" d="M2.7386127875258306,0A2.7386127875258306,2.7386127875258306,0,1,1,-2.7386127875258306,0A2.7386127875258306,2.7386127875258306,0,1,1,2.7386127875258306,0" stroke="#4c78a8" stroke-width="2" opacity="0.7"></path><path aria-label="Instantaneous reproduction number R(t): 1.04380645755; States: DF" role="graphics-symbol" aria-roledescription="point" transform="translate(346.66501560604274,130)" d="M2.7386127875258306,0A2.7386127875258306,2.7386127875258306,0,1,1,-2.7386127875258306,0A2.7386127875258306,2.7386127875258306,0,1,1,2.7386127875258306,0" stroke="#4c78a8" stroke-width="2" opacity="0.7"></path><path aria-label="Instantaneous reproduction number R(t): 1.05084280697; States: GO" role="graphics-symbol" aria-roledescription="point" transform="translate(350.4538191372868,170)" d="M2.7386127875258306,0A2.7386127875258306,2.7386127875258306,0,1,1,-2.7386127875258306,0A2.7386127875258306,2.7386127875258306,0,1,1,2.7386127875258306,0" stroke="#4c78a8" stroke-width="2" opacity="0.7"></path><path aria-label="Instantaneous reproduction number R(t): 1.05216509619; States: CE" role="graphics-symbol" aria-roledescription="point" transform="translate(351.1658210278459,110)" d="M2.7386127875258306,0A2.7386127875258306,2.7386127875258306,0,1,1,-2.7386127875258306,0A2.7386127875258306,2.7386127875258306,0,1,1,2.7386127875258306,0" stroke="#4c78a8" stroke-width="2" opacity="0.7"></path><path aria-label="Instantaneous reproduction number R(t): 1.05339745503; States: PE" role="graphics-symbol" aria-roledescription="point" transform="translate(351.82939886089827,310)" d="M2.7386127875258306,0A2.7386127875258306,2.7386127875258306,0,1,1,-2.7386127875258306,0A2.7386127875258306,2.7386127875258306,0,1,1,2.7386127875258306,0" stroke="#4c78a8" stroke-width="2" opacity="0.7"></path><path aria-label="Instantaneous reproduction number R(t): 1.12358510783; States: MS" role="graphics-symbol" aria-roledescription="point" transform="translate(389.6227503726477,230)" d="M2.7386127875258306,0A2.7386127875258306,2.7386127875258306,0,1,1,-2.7386127875258306,0A2.7386127875258306,2.7386127875258306,0,1,1,2.7386127875258306,0" stroke="#4c78a8" stroke-width="2" opacity="0.7"></path><path aria-label="Instantaneous reproduction number R(t): 1.12717487555; States: RS" role="graphics-symbol" aria-roledescription="point" transform="translate(391.55570222188055,450)" d="M2.7386127875258306,0A2.7386127875258306,2.7386127875258306,0,1,1,-2.7386127875258306,0A2.7386127875258306,2.7386127875258306,0,1,1,2.7386127875258306,0" stroke="#4c78a8" stroke-width="2" opacity="0.7"></path><path aria-label="Instantaneous reproduction number R(t): 1.12793649952; States: AM" role="graphics-symbol" aria-roledescription="point" transform="translate(391.9658074352779,50)" d="M2.7386127875258306,0A2.7386127875258306,2.7386127875258306,0,1,1,-2.7386127875258306,0A2.7386127875258306,2.7386127875258306,0,1,1,2.7386127875258306,0" stroke="#4c78a8" stroke-width="2" opacity="0.7"></path><path aria-label="Instantaneous reproduction number R(t): 1.14108621191; States: RR" role="graphics-symbol" aria-roledescription="point" transform="translate(399.0464217954388,430)" d="M2.7386127875258306,0A2.7386127875258306,2.7386127875258306,0,1,1,-2.7386127875258306,0A2.7386127875258306,2.7386127875258306,0,1,1,2.7386127875258306,0" stroke="#4c78a8" stroke-width="2" opacity="0.7"></path><path aria-label="Instantaneous reproduction number R(t): 1.15787462446; States: MA" role="graphics-symbol" aria-roledescription="point" transform="translate(408.08633624985595,190)" d="M2.7386127875258306,0A2.7386127875258306,2.7386127875258306,0,1,1,-2.7386127875258306,0A2.7386127875258306,2.7386127875258306,0,1,1,2.7386127875258306,0" stroke="#4c78a8" stroke-width="2" opacity="0.7"></path><path aria-label="Instantaneous reproduction number R(t): 1.15877365297; States: RN" role="graphics-symbol" aria-roledescription="point" transform="translate(408.5704285199286,390)" d="M2.7386127875258306,0A2.7386127875258306,2.7386127875258306,0,1,1,-2.7386127875258306,0A2.7386127875258306,2.7386127875258306,0,1,1,2.7386127875258306,0" stroke="#4c78a8" stroke-width="2" opacity="0.7"></path><path aria-label="Instantaneous reproduction number R(t): 1.1873445806; States: ES" role="graphics-symbol" aria-roledescription="point" transform="translate(423.95477416812713,150)" d="M2.7386127875258306,0A2.7386127875258306,2.7386127875258306,0,1,1,-2.7386127875258306,0A2.7386127875258306,2.7386127875258306,0,1,1,2.7386127875258306,0" stroke="#4c78a8" stroke-width="2" opacity="0.7"></path><path aria-label="Instantaneous reproduction number R(t): 1.20918875505; States: TO" role="graphics-symbol" aria-roledescription="point" transform="translate(435.7170219485347,530)" d="M2.7386127875258306,0A2.7386127875258306,2.7386127875258306,0,1,1,-2.7386127875258306,0A2.7386127875258306,2.7386127875258306,0,1,1,2.7386127875258306,0" stroke="#4c78a8" stroke-width="2" opacity="0.7"></path><path aria-label="Instantaneous reproduction number R(t): 1.2167557227; States: SE" role="graphics-symbol" aria-roledescription="point" transform="translate(439.791542990515,490)" d="M2.7386127875258306,0A2.7386127875258306,2.7386127875258306,0,1,1,-2.7386127875258306,0A2.7386127875258306,2.7386127875258306,0,1,1,2.7386127875258306,0" stroke="#4c78a8" stroke-width="2" opacity="0.7"></path><path aria-label="Instantaneous reproduction number R(t): 1.23036021647; States: SC" role="graphics-symbol" aria-roledescription="point" transform="translate(447.11703963501816,470)" d="M2.7386127875258306,0A2.7386127875258306,2.7386127875258306,0,1,1,-2.7386127875258306,0A2.7386127875258306,2.7386127875258306,0,1,1,2.7386127875258306,0" stroke="#4c78a8" stroke-width="2" opacity="0.7"></path><path aria-label="Instantaneous reproduction number R(t): 1.24112940217; States: MT" role="graphics-symbol" aria-roledescription="point" transform="translate(452.91583193980364,250)" d="M2.7386127875258306,0A2.7386127875258306,2.7386127875258306,0,1,1,-2.7386127875258306,0A2.7386127875258306,2.7386127875258306,0,1,1,2.7386127875258306,0" stroke="#4c78a8" stroke-width="2" opacity="0.7"></path><path aria-label="Instantaneous reproduction number R(t): 1.27231433117; States: PI" role="graphics-symbol" aria-roledescription="point" transform="translate(469.7077167834356,330)" d="M2.7386127875258306,0A2.7386127875258306,2.7386127875258306,0,1,1,-2.7386127875258306,0A2.7386127875258306,2.7386127875258306,0,1,1,2.7386127875258306,0" stroke="#4c78a8" stroke-width="2" opacity="0.7"></path><path aria-label="Instantaneous reproduction number R(t): 1.53392074602; States: PR" role="graphics-symbol" aria-roledescription="point" transform="translate(610.5727093971929,350)" d="M2.7386127875258306,0A2.7386127875258306,2.7386127875258306,0,1,1,-2.7386127875258306,0A2.7386127875258306,2.7386127875258306,0,1,1,2.7386127875258306,0" stroke="#4c78a8" stroke-width="2" opacity="0.7"></path></g><g class="mark-rule role-mark layer_1_marks" role="graphics-object" aria-roledescription="rule mark container"><line aria-label="a: 1" role="graphics-symbol" aria-roledescription="rule mark" transform="translate(323.0769230769231,0)" x2="0" y2="540" stroke="black" stroke-width="0.2"></line><line aria-label="a: 1" role="graphics-symbol" aria-roledescription="rule mark" transform="translate(323.0769230769231,0)" x2="0" y2="540" stroke="black" stroke-width="0.2"></line><line aria-label="a: 1" role="graphics-symbol" aria-roledescription="rule mark" transform="translate(323.0769230769231,0)" x2="0" y2="540" stroke="black" stroke-width="0.2"></line><line aria-label="a: 1" role="graphics-symbol" aria-roledescription="rule mark" transform="translate(323.0769230769231,0)" x2="0" y2="540" stroke="black" stroke-width="0.2"></line><line aria-label="a: 1" role="graphics-symbol" aria-roledescription="rule mark" transform="translate(323.0769230769231,0)" x2="0" y2="540" stroke="black" stroke-width="0.2"></line><line aria-label="a: 1" role="graphics-symbol" aria-roledescription="rule mark" transform="translate(323.0769230769231,0)" x2="0" y2="540" stroke="black" stroke-width="0.2"></line><line aria-label="a: 1" role="graphics-symbol" aria-roledescription="rule mark" transform="translate(323.0769230769231,0)" x2="0" y2="540" stroke="black" stroke-width="0.2"></line><line aria-label="a: 1" role="graphics-symbol" aria-roledescription="rule mark" transform="translate(323.0769230769231,0)" x2="0" y2="540" stroke="black" stroke-width="0.2"></line><line aria-label="a: 1" role="graphics-symbol" aria-roledescription="rule mark" transform="translate(323.0769230769231,0)" x2="0" y2="540" stroke="black" stroke-width="0.2"></line><line aria-label="a: 1" role="graphics-symbol" aria-roledescription="rule mark" transform="translate(323.0769230769231,0)" x2="0" y2="540" stroke="black" stroke-width="0.2"></line><line aria-label="a: 1" role="graphics-symbol" aria-roledescription="rule mark" transform="translate(323.0769230769231,0)" x2="0" y2="540" stroke="black" stroke-width="0.2"></line><line aria-label="a: 1" role="graphics-symbol" aria-roledescription="rule mark" transform="translate(323.0769230769231,0)" x2="0" y2="540" stroke="black" stroke-width="0.2"></line><line aria-label="a: 1" role="graphics-symbol" aria-roledescription="rule mark" transform="translate(323.0769230769231,0)" x2="0" y2="540" stroke="black" stroke-width="0.2"></line><line aria-label="a: 1" role="graphics-symbol" aria-roledescription="rule mark" transform="translate(323.0769230769231,0)" x2="0" y2="540" stroke="black" stroke-width="0.2"></line><line aria-label="a: 1" role="graphics-symbol" aria-roledescription="rule mark" transform="translate(323.0769230769231,0)" x2="0" y2="540" stroke="black" stroke-width="0.2"></line><line aria-label="a: 1" role="graphics-symbol" aria-roledescription="rule mark" transform="translate(323.0769230769231,0)" x2="0" y2="540" stroke="black" stroke-width="0.2"></line><line aria-label="a: 1" role="graphics-symbol" aria-roledescription="rule mark" transform="translate(323.0769230769231,0)" x2="0" y2="540" stroke="black" stroke-width="0.2"></line><line aria-label="a: 1" role="graphics-symbol" aria-roledescription="rule mark" transform="translate(323.0769230769231,0)" x2="0" y2="540" stroke="black" stroke-width="0.2"></line><line aria-label="a: 1" role="graphics-symbol" aria-roledescription="rule mark" transform="translate(323.0769230769231,0)" x2="0" y2="540" stroke="black" stroke-width="0.2"></line><line aria-label="a: 1" role="graphics-symbol" aria-roledescription="rule mark" transform="translate(323.0769230769231,0)" x2="0" y2="540" stroke="black" stroke-width="0.2"></line><line aria-label="a: 1" role="graphics-symbol" aria-roledescription="rule mark" transform="translate(323.0769230769231,0)" x2="0" y2="540" stroke="black" stroke-width="0.2"></line><line aria-label="a: 1" role="graphics-symbol" aria-roledescription="rule mark" transform="translate(323.0769230769231,0)" x2="0" y2="540" stroke="black" stroke-width="0.2"></line><line aria-label="a: 1" role="graphics-symbol" aria-roledescription="rule mark" transform="translate(323.0769230769231,0)" x2="0" y2="540" stroke="black" stroke-width="0.2"></line><line aria-label="a: 1" role="graphics-symbol" aria-roledescription="rule mark" transform="translate(323.0769230769231,0)" x2="0" y2="540" stroke="black" stroke-width="0.2"></line><line aria-label="a: 1" role="graphics-symbol" aria-roledescription="rule mark" transform="translate(323.0769230769231,0)" x2="0" y2="540" stroke="black" stroke-width="0.2"></line><line aria-label="a: 1" role="graphics-symbol" aria-roledescription="rule mark" transform="translate(323.0769230769231,0)" x2="0" y2="540" stroke="black" stroke-width="0.2"></line><line aria-label="a: 1" role="graphics-symbol" aria-roledescription="rule mark" transform="translate(323.0769230769231,0)" x2="0" y2="540" stroke="black" stroke-width="0.2"></line></g><g class="mark-rule role-mark layer_2_marks" role="graphics-object" aria-roledescription="rule mark container"><line aria-label="CI 0.975: 0.400589551499; upper_Quantile.0.025(R): 0.648537994693; index: AP; Quantile.0.975(R): 0.648537994693; Quantile.0.025(R): 0.400589551499" role="graphics-symbol" aria-roledescription="errorbar" transform="translate(0.31745080736710174,70)" x2="133.51070018111332" y2="0" stroke="blue" stroke-width="0.6"></line><line aria-label="CI 0.975: 0.849515492134; upper_Quantile.0.025(R): 0.913667670652; index: PA; Quantile.0.975(R): 0.913667670652; Quantile.0.025(R): 0.849515492134" role="graphics-symbol" aria-roledescription="errorbar" transform="translate(242.04680345667887,270)" x2="34.54348074077464" y2="0" stroke="blue" stroke-width="0.6"></line><line aria-label="CI 0.975: 0.821456077812; upper_Quantile.0.025(R): 0.976957626855; index: RO; Quantile.0.975(R): 0.976957626855; Quantile.0.025(R): 0.821456077812" role="graphics-symbol" aria-roledescription="errorbar" transform="translate(226.93788805241024,410)" x2="83.73160333097661" y2="0" stroke="blue" stroke-width="0.6"></line><line aria-label="CI 0.975: 0.832288583166; upper_Quantile.0.025(R): 0.961989892103; index: RJ; Quantile.0.975(R): 0.961989892103; Quantile.0.025(R): 0.832288583166" role="graphics-symbol" aria-roledescription="errorbar" transform="translate(232.77077555118964,370)" x2="69.83916635067615" y2="0" stroke="blue" stroke-width="0.6"></line><line aria-label="CI 0.975: 0.902111222799; upper_Quantile.0.025(R): 0.933906954217; index: SP; Quantile.0.975(R): 0.933906954217; Quantile.0.025(R): 0.902111222799" role="graphics-symbol" aria-roledescription="errorbar" transform="translate(270.3675815069469,510)" x2="17.120778456063192" y2="0" stroke="blue" stroke-width="0.6"></line><line aria-label="CI 0.975: 0.874239812784; upper_Quantile.0.025(R): 1.00332810205; index: BA; Quantile.0.975(R): 1.00332810205; Quantile.0.025(R): 0.874239812784" role="graphics-symbol" aria-roledescription="errorbar" transform="translate(255.35989919125518,90)" x2="69.50907883529021" y2="0" stroke="blue" stroke-width="0.6"></line><line aria-label="CI 0.975: 0.918175847677; upper_Quantile.0.025(R): 1.01567585743; index: AC; Quantile.0.975(R): 1.01567585743; Quantile.0.025(R): 0.918175847677" role="graphics-symbol" aria-roledescription="errorbar" transform="translate(279.0177641340019,10)" x2="52.50000525017725" y2="0" stroke="blue" stroke-width="0.6"></line><line aria-label="CI 0.975: 0.965602573269; upper_Quantile.0.025(R): 1.01541955304; index: PB; Quantile.0.975(R): 1.01541955304; Quantile.0.025(R): 0.965602573269" role="graphics-symbol" aria-roledescription="errorbar" transform="translate(304.555231760386,290)" x2="26.824527567319137" y2="0" stroke="blue" stroke-width="0.6"></line><line aria-label="CI 0.975: 0.97183170742; upper_Quantile.0.025(R): 1.03907837262; index: AL; Quantile.0.975(R): 1.03907837262; Quantile.0.025(R): 0.97183170742" role="graphics-symbol" aria-roledescription="errorbar" transform="translate(307.90938091856515,30)" x2="36.209742799284925" y2="0" stroke="blue" stroke-width="0.6"></line><line aria-label="CI 0.975: 0.969548900737; upper_Quantile.0.025(R): 1.09112031966; index: MG; Quantile.0.975(R): 1.09112031966; Quantile.0.025(R): 0.969548900737" role="graphics-symbol" aria-roledescription="errorbar" transform="translate(306.6801773197402,210)" x2="65.46153326497029" y2="0" stroke="blue" stroke-width="0.6"></line><line aria-label="CI 0.975: 1.00592805683; upper_Quantile.0.025(R): 1.08482687895; index: DF; Quantile.0.975(R): 1.08482687895; Quantile.0.025(R): 1.00592805683" role="graphics-symbol" aria-roledescription="errorbar" transform="translate(326.2689536777258,130)" x2="42.48398114249164" y2="0" stroke="blue" stroke-width="0.6"></line><line aria-label="CI 0.975: 1.01617393241; upper_Quantile.0.025(R): 1.10326739903; index: GO; Quantile.0.975(R): 1.10326739903; Quantile.0.025(R): 1.01617393241" role="graphics-symbol" aria-roledescription="errorbar" transform="translate(331.7859636034041,170)" x2="46.89648202836861" y2="0" stroke="blue" stroke-width="0.6"></line><line aria-label="CI 0.975: 1.02871283069; upper_Quantile.0.025(R): 1.07749702002; index: CE; Quantile.0.975(R): 1.07749702002; Quantile.0.025(R): 1.02871283069" role="graphics-symbol" aria-roledescription="errorbar" transform="translate(338.5376780649954,110)" x2="26.268409639522645" y2="0" stroke="blue" stroke-width="0.6"></line><line aria-label="CI 0.975: 1.02319266603; upper_Quantile.0.025(R): 1.0825005549; index: PE; Quantile.0.975(R): 1.0825005549; Quantile.0.025(R): 1.02319266603" role="graphics-symbol" aria-roledescription="errorbar" transform="translate(335.56528171085887,310)" x2="31.93501708230798" y2="0" stroke="blue" stroke-width="0.6"></line><line aria-label="CI 0.975: 1.07091403815; upper_Quantile.0.025(R): 1.17722210289; index: MS; Quantile.0.975(R): 1.17722210289; Quantile.0.025(R): 1.07091403815" role="graphics-symbol" aria-roledescription="errorbar" transform="translate(361.26140515592493,230)" x2="57.24280409345778" y2="0" stroke="blue" stroke-width="0.6"></line><line aria-label="CI 0.975: 1.08930968611; upper_Quantile.0.025(R): 1.16841267307; index: RS; Quantile.0.975(R): 1.16841267307; Quantile.0.025(R): 1.08930968611" role="graphics-symbol" aria-roledescription="errorbar" transform="translate(371.1667540616663,450)" x2="42.593916053911244" y2="0" stroke="blue" stroke-width="0.6"></line><line aria-label="CI 0.975: 1.0948688726; upper_Quantile.0.025(R): 1.16314787968; index: AM; Quantile.0.975(R): 1.16314787968; Quantile.0.025(R): 1.0948688726" role="graphics-symbol" aria-roledescription="errorbar" transform="translate(374.16016217017403,50)" x2="36.76561919391315" y2="0" stroke="blue" stroke-width="0.6"></line><line aria-label="CI 0.975: 1.09160623712; upper_Quantile.0.025(R): 1.20197634912; index: RR; Quantile.0.975(R): 1.20197634912; Quantile.0.025(R): 1.09160623712" role="graphics-symbol" aria-roledescription="errorbar" transform="translate(372.40335845086327,430)" x2="59.43006030532098" y2="0" stroke="blue" stroke-width="0.6"></line><line aria-label="CI 0.975: 1.05461602; upper_Quantile.0.025(R): 1.25817667891; index: MA; Quantile.0.975(R): 1.25817667891; Quantile.0.025(R): 1.05461602" role="graphics-symbol" aria-roledescription="errorbar" transform="translate(352.48554922981606,190)" x2="109.60958556810846" y2="0" stroke="blue" stroke-width="0.6"></line><line aria-label="CI 0.975: 1.07842964233; upper_Quantile.0.025(R): 1.26037567521; index: RN; Quantile.0.975(R): 1.26037567521; Quantile.0.025(R): 1.07842964233" role="graphics-symbol" aria-roledescription="errorbar" transform="translate(365.30826894613983,390)" x2="97.97094078416637" y2="0" stroke="blue" stroke-width="0.6"></line><line aria-label="CI 0.975: 1.14534765171; upper_Quantile.0.025(R): 1.23514260898; index: ES; Quantile.0.975(R): 1.23514260898; Quantile.0.025(R): 1.14534765171" role="graphics-symbol" aria-roledescription="errorbar" transform="translate(401.341043230152,150)" x2="48.35113083558065" y2="0" stroke="blue" stroke-width="0.6"></line><line aria-label="CI 0.975: 1.14612686483; upper_Quantile.0.025(R): 1.27732313303; index: TO; Quantile.0.975(R): 1.27732313303; Quantile.0.025(R): 1.14612686483" role="graphics-symbol" aria-roledescription="errorbar" transform="translate(401.76061952376,530)" x2="70.6441444161336" y2="0" stroke="blue" stroke-width="0.6"></line><line aria-label="CI 0.975: 1.15592325134; upper_Quantile.0.025(R): 1.27811516038; index: SE; Quantile.0.975(R): 1.27811516038; Quantile.0.025(R): 1.15592325134" role="graphics-symbol" aria-roledescription="errorbar" transform="translate(407.035596876576,490)" x2="65.79564332730439" y2="0" stroke="blue" stroke-width="0.6"></line><line aria-label="CI 0.975: 1.18985491566; upper_Quantile.0.025(R): 1.28089657642; index: SC; Quantile.0.975(R): 1.28089657642; Quantile.0.025(R): 1.18985491566" role="graphics-symbol" aria-roledescription="errorbar" transform="translate(425.3064930481072,470)" x2="49.02243271598576" y2="0" stroke="blue" stroke-width="0.6"></line><line aria-label="CI 0.975: 1.18650001052; upper_Quantile.0.025(R): 1.29556555574; index: MT; Quantile.0.975(R): 1.29556555574; Quantile.0.025(R): 1.18650001052" role="graphics-symbol" aria-roledescription="errorbar" transform="translate(423.50000566532805,250)" x2="58.72760127425539" y2="0" stroke="blue" stroke-width="0.6"></line><line aria-label="CI 0.975: 1.19784969904; upper_Quantile.0.025(R): 1.34560211832; index: PI; Quantile.0.975(R): 1.34560211832; Quantile.0.025(R): 1.19784969904" role="graphics-symbol" aria-roledescription="errorbar" transform="translate(429.6113764046467,330)" x2="79.55899499782709" y2="0" stroke="blue" stroke-width="0.6"></line><line aria-label="CI 0.975: 1.39156981646; upper_Quantile.0.025(R): 1.66943033093; index: PR; Quantile.0.975(R): 1.66943033093; Quantile.0.025(R): 1.39156981646" role="graphics-symbol" aria-roledescription="errorbar" transform="translate(533.9222088619566,350)" x2="149.61720009875626" y2="0" stroke="blue" stroke-width="0.6"></line></g><g class="mark-group role-title"><g transform="translate(350,-17.2)"><path class="background" aria-hidden="true" d="M0,0h0v0h0Z" pointer-events="none"></path><g><g class="mark-text role-title-text" role="graphics-symbol" aria-roledescription="title" aria-label="Title text 'Instantaneous reproduction number estimate for all states in Brazil'" pointer-events="none"><text text-anchor="middle" transform="translate(0,10)" font-family="sans-serif" font-size="13px" font-weight="bold" fill="#000" opacity="1">Instantaneous reproduction number estimate for all states in Brazil</text></g></g><path class="foreground" aria-hidden="true" d="" pointer-events="none" display="none"></path></g></g></g><path class="foreground" aria-hidden="true" d="" display="none"></path></g></g></g></svg>