<svg class="marks" width="749" height="600" viewBox="0 0 749 600" version="1.1" xmlns="http://www.w3.org/2000/svg" xmlns:xlink="http://www.w3.org/1999/xlink"><rect width="749" height="600" fill="white"></rect><g fill="none" stroke-miterlimit="10" transform="translate(43,23)"><g class="mark-group role-frame root" role="graphics-object" aria-roledescription="group mark container"><g transform="translate(0,0)"><path class="background" aria-hidden="true" d="M0.5,0.5h700v540h-700Z"></path><g><g class="mark-group role-axis" aria-hidden="true"><g transform="translate(0.5,0.5)"><path class="background" aria-hidden="true" d="M0,0h0v0h0Z" pointer-events="none"></path><g><g class="mark-rule role-axis-grid" pointer-events="none"><line transform="translate(0,10)" x2="700" y2="0" stroke="#ddd" stroke-width="1" opacity="1"></line><line transform="translate(0,30)" x2="700" y2="0" stroke="#ddd" stroke-width="1" opacity="1"></line><line transform="translate(0,50)" x2="700" y2="0" stroke="#ddd" stroke-width="1" opacity="1"></line><line transform="translate(0,70)" x2="700" y2="0" stroke="#ddd" stroke-width="1" opacity="1"></line><line transform="translate(0,90)" x2="700" y2="0" stroke="#ddd" stroke-width="1" opacity="1"></line><line transform="translate(0,110)" x2="700" y2="0" stroke="#ddd" stroke-width="1" opacity="1"></line><line transform="translate(0,130)" x2="700" y2="0" stroke="#ddd" stroke-width="1" opacity="1"></line><line transform="translate(0,150)" x2="700" y2="0" stroke="#ddd" stroke-width="1" opacity="1"></line><line transform="translate(0,170)" x2="700" y2="0" stroke="#ddd" stroke-width="1" opacity="1"></line><line transform="translate(0,190)" x2="700" y2="0" stroke="#ddd" stroke-width="1" opacity="1"></line><line transform="translate(0,210)" x2="700" y2="0" stroke="#ddd" stroke-width="1" opacity="1"></line><line transform="translate(0,230)" x2="700" y2="0" stroke="#ddd" stroke-width="1" opacity="1"></line><line transform="translate(0,250)" x2="700" y2="0" stroke="#ddd" stroke-width="1" opacity="1"></line><line transform="translate(0,270)" x2="700" y2="0" stroke="#ddd" stroke-width="1" opacity="1"></line><line transform="translate(0,290)" x2="700" y2="0" stroke="#ddd" stroke-width="1" opacity="1"></line><line transform="translate(0,310)" x2="700" y2="0" stroke="#ddd" stroke-width="1" opacity="1"></line><line transform="translate(0,330)" x2="700" y2="0" stroke="#ddd" stroke-width="1" opacity="1"></line><line transform="translate(0,350)" x2="700" y2="0" stroke="#ddd" stroke-width="1" opacity="1"></line><line transform="translate(0,370)" x2="700" y2="0" stroke="#ddd" stroke-width="1" opacity="1"></line><line transform="translate(0,390)" x2="700" y2="0" stroke="#ddd" stroke-width="1" opacity="1"></line><line transform="translate(0,410)" x2="700" y2="0" stroke="#ddd" stroke-width="1" opacity="1"></line><line transform="translate(0,430)" x2="700" y2="0" stroke="#ddd" stroke-width="1" opacity="1"></line><line transform="translate(0,450)" x2="700" y2="0" stroke="#ddd" stroke-width="1" opacity="1"></line><line transform="translate(0,470)" x2="700" y2="0" stroke="#ddd" stroke-width="1" opacity="1"></line><line transform="translate(0,490)" x2="700" y2="0" stroke="#ddd" stroke-width="1" opacity="1"></line><line transform="translate(0,510)" x2="700" y2="0" stroke="#ddd" stroke-width="1" opacity="1"></line><line transform="translate(0,530)" x2="700" y2="0" stroke="#ddd" stroke-width="1" opacity="1"></line></g></g><path class="foreground" aria-hidden="true" d="" pointer-events="none" display="none"></path></g></g><g class="mark-group role-axis" role="graphics-symbol" aria-roledescription="axis" aria-label="X-axis titled 'Instantaneous reproduction number R(t), CI 0.975' for a linear scale with values from 0.8 to 1.6"><g transform="translate(0.5,540.5)"><path class="background" aria-hidden="true" d="M0,0h0v0h0Z" pointer-events="none"></path><g><g class="mark-rule role-axis-tick" pointer-events="none"><line transform="translate(0,0)" x2="0" y2="5" stroke="#888" stroke-width="1" opacity="1"></line><line transform="translate(44,0)" x2="0" y2="5" stroke="#888" stroke-width="1" opacity="1"></line><line transform="translate(87,0)" x2="0" y2="5" stroke="#888" stroke-width="1" opacity="1"></line><line transform="translate(131,0)" x2="0" y2="5" stroke="#888" stroke-width="1" opacity="1"></line><line transform="translate(175,0)" x2="0" y2="5" stroke="#888" stroke-width="1" opacity="1"></line><line transform="translate(219,0)" x2="0" y2="5" stroke="#888" stroke-width="1" opacity="1"></line><line transform="translate(263,0)" x2="0" y2="5" stroke="#888" stroke-width="1" opacity="1"></line><line transform="translate(306,0)" x2="0" y2="5" stroke="#888" stroke-width="1" opacity="1"></line><line transform="translate(350,0)" x2="0" y2="5" stroke="#888" stroke-width="1" opacity="1"></line><line transform="translate(394,0)" x2="0" y2="5" stroke="#888" stroke-width="1" opacity="1"></line><line transform="translate(438,0)" x2="0" y2="5" stroke="#888" stroke-width="1" opacity="1"></line><line transform="translate(481,0)" x2="0" y2="5" stroke="#888" stroke-width="1" opacity="1"></line><line transform="translate(525,0)" x2="0" y2="5" stroke="#888" stroke-width="1" opacity="1"></line><line transform="translate(569,0)" x2="0" y2="5" stroke="#888" stroke-width="1" opacity="1"></line><line transform="translate(612,0)" x2="0" y2="5" stroke="#888" stroke-width="1" opacity="1"></line><line transform="translate(656,0)" x2="0" y2="5" stroke="#888" stroke-width="1" opacity="1"></line><line transform="translate(700,0)" x2="0" y2="5" stroke="#888" stroke-width="1" opacity="1"></line></g><g class="mark-text role-axis-label" pointer-events="none"><text text-anchor="start" transform="translate(0,15)" font-family="sans-serif" font-size="10px" fill="#000" opacity="1">0.80</text><text text-anchor="middle" transform="translate(43.74999999999994,15)" font-family="sans-serif" font-size="10px" fill="#000" opacity="1">0.85</text><text text-anchor="middle" transform="translate(87.49999999999999,15)" font-family="sans-serif" font-size="10px" fill="#000" opacity="1">0.90</text><text text-anchor="middle" transform="translate(131.24999999999991,15)" font-family="sans-serif" font-size="10px" fill="#000" opacity="1">0.95</text><text text-anchor="middle" transform="translate(174.99999999999997,15)" font-family="sans-serif" font-size="10px" fill="#000" opacity="1">1.00</text><text text-anchor="middle" transform="translate(218.75,15)" font-family="sans-serif" font-size="10px" fill="#000" opacity="1">1.05</text><text text-anchor="middle" transform="translate(262.50000000000006,15)" font-family="sans-serif" font-size="10px" fill="#000" opacity="1">1.10</text><text text-anchor="middle" transform="translate(306.2499999999999,15)" font-family="sans-serif" font-size="10px" fill="#000" opacity="1">1.15</text><text text-anchor="middle" transform="translate(349.99999999999994,15)" font-family="sans-serif" font-size="10px" fill="#000" opacity="1">1.20</text><text text-anchor="middle" transform="translate(393.74999999999994,15)" font-family="sans-serif" font-size="10px" fill="#000" opacity="1">1.25</text><text text-anchor="middle" transform="translate(437.5,15)" font-family="sans-serif" font-size="10px" fill="#000" opacity="1">1.30</text><text text-anchor="middle" transform="translate(481.25,15)" font-family="sans-serif" font-size="10px" fill="#000" opacity="1">1.35</text><text text-anchor="middle" transform="translate(524.9999999999999,15)" font-family="sans-serif" font-size="10px" fill="#000" opacity="1">1.40</text><text text-anchor="middle" transform="translate(568.7499999999999,15)" font-family="sans-serif" font-size="10px" fill="#000" opacity="1">1.45</text><text text-anchor="middle" transform="translate(612.4999999999999,15)" font-family="sans-serif" font-size="10px" fill="#000" opacity="1">1.50</text><text text-anchor="middle" transform="translate(656.25,15)" font-family="sans-serif" font-size="10px" fill="#000" opacity="1">1.55</text><text text-anchor="end" transform="translate(700,15)" font-family="sans-serif" font-size="10px" fill="#000" opacity="1">1.60</text></g><g class="mark-rule role-axis-domain" pointer-events="none"><line transform="translate(0,0)" x2="700" y2="0" stroke="#888" stroke-width="1" opacity="1"></line></g><g class="mark-text role-axis-title" pointer-events="none"><text text-anchor="middle" transform="translate(350,30)" font-family="sans-serif" font-size="11px" font-weight="bold" fill="#000" opacity="1">Instantaneous reproduction number R(t), CI 0.975</text></g></g><path class="foreground" aria-hidden="true" d="" pointer-events="none" display="none"></path></g></g><g class="mark-group role-axis" role="graphics-symbol" aria-roledescription="axis" aria-label="Y-axis titled 'States' for a discrete scale with 27 values: AC, AL, AM, AP, BA, ending with TO"><g transform="translate(0.5,0.5)"><path class="background" aria-hidden="true" d="M0,0h0v0h0Z" pointer-events="none"></path><g><g class="mark-rule role-axis-tick" pointer-events="none"><line transform="translate(0,10)" x2="-5" y2="0" stroke="#888" stroke-width="1" opacity="1"></line><line transform="translate(0,30)" x2="-5" y2="0" stroke="#888" stroke-width="1" opacity="1"></line><line transform="translate(0,50)" x2="-5" y2="0" stroke="#888" stroke-width="1" opacity="1"></line><line transform="translate(0,70)" x2="-5" y2="0" stroke="#888" stroke-width="1" opacity="1"></line><line transform="translate(0,90)" x2="-5" y2="0" stroke="#888" stroke-width="1" opacity="1"></line><line transform="translate(0,110)" x2="-5" y2="0" stroke="#888" stroke-width="1" opacity="1"></line><line transform="translate(0,130)" x2="-5" y2="0" stroke="#888" stroke-width="1" opacity="1"></line><line transform="translate(0,150)" x2="-5" y2="0" stroke="#888" stroke-width="1" opacity="1"></line><line transform="translate(0,170)" x2="-5" y2="0" stroke="#888" stroke-width="1" opacity="1"></line><line transform="translate(0,190)" x2="-5" y2="0" stroke="#888" stroke-width="1" opacity="1"></line><line transform="translate(0,210)" x2="-5" y2="0" stroke="#888" stroke-width="1" opacity="1"></line><line transform="translate(0,230)" x2="-5" y2="0" stroke="#888" stroke-width="1" opacity="1"></line><line transform="translate(0,250)" x2="-5" y2="0" stroke="#888" stroke-width="1" opacity="1"></line><line transform="translate(0,270)" x2="-5" y2="0" stroke="#888" stroke-width="1" opacity="1"></line><line transform="translate(0,290)" x2="-5" y2="0" stroke="#888" stroke-width="1" opacity="1"></line><line transform="translate(0,310)" x2="-5" y2="0" stroke="#888" stroke-width="1" opacity="1"></line><line transform="translate(0,330)" x2="-5" y2="0" stroke="#888" stroke-width="1" opacity="1"></line><line transform="translate(0,350)" x2="-5" y2="0" stroke="#888" stroke-width="1" opacity="1"></line><line transform="translate(0,370)" x2="-5" y2="0" stroke="#888" stroke-width="1" opacity="1"></line><line transform="translate(0,390)" x2="-5" y2="0" stroke="#888" stroke-width="1" opacity="1"></line><line transform="translate(0,410)" x2="-5" y2="0" stroke="#888" stroke-width="1" opacity="1"></line><line transform="translate(0,430)" x2="-5" y2="0" stroke="#888" stroke-width="1" opacity="1"></line><line transform="translate(0,450)" x2="-5" y2="0" stroke="#888" stroke-width="1" opacity="1"></line><line transform="translate(0,470)" x2="-5" y2="0" stroke="#888" stroke-width="1" opacity="1"></line><line transform="translate(0,490)" x2="-5" y2="0" stroke="#888" stroke-width="1" opacity="1"></line><line transform="translate(0,510)" x2="-5" y2="0" stroke="#888" stroke-width="1" opacity="1"></line><line transform="translate(0,530)" x2="-5" y2="0" stroke="#888" stroke-width="1" opacity="1"></line></g><g class="mark-text role-axis-label" pointer-events="none"><text text-anchor="end" transform="translate(-7,12.5)" font-family="sans-serif" font-size="10px" fill="#000" opacity="1">AC</text><text text-anchor="end" transform="translate(-7,32.5)" font-family="sans-serif" font-size="10px" fill="#000" opacity="1">AL</text><text text-anchor="end" transform="translate(-7,52.5)" font-family="sans-serif" font-size="10px" fill="#000" opacity="1">AM</text><text text-anchor="end" transform="translate(-7,72.5)" font-family="sans-serif" font-size="10px" fill="#000" opacity="1">AP</text><text text-anchor="end" transform="translate(-7,92.5)" font-family="sans-serif" font-size="10px" fill="#000" opacity="1">BA</text><text text-anchor="end" transform="translate(-7,112.5)" font-family="sans-serif" font-size="10px" fill="#000" opacity="1">CE</text><text text-anchor="end" transform="translate(-7,132.5)" font-family="sans-serif" font-size="10px" fill="#000" opacity="1">DF</text><text text-anchor="end" transform="translate(-7,152.5)" font-family="sans-serif" font-size="10px" fill="#000" opacity="1">ES</text><text text-anchor="end" transform="translate(-7,172.5)" font-family="sans-serif" font-size="10px" fill="#000" opacity="1">GO</text><text text-anchor="end" transform="translate(-7,192.5)" font-family="sans-serif" font-size="10px" fill="#000" opacity="1">MA</text><text text-anchor="end" transform="translate(-7,212.5)" font-family="sans-serif" font-size="10px" fill="#000" opacity="1">MG</text><text text-anchor="end" transform="translate(-7,232.5)" font-family="sans-serif" font-size="10px" fill="#000" opacity="1">MS</text><text text-anchor="end" transform="translate(-7,252.5)" font-family="sans-serif" font-size="10px" fill="#000" opacity="1">MT</text><text text-anchor="end" transform="translate(-7,272.5)" font-family="sans-serif" font-size="10px" fill="#000" opacity="1">PA</text><text text-anchor="end" transform="translate(-7,292.5)" font-family="sans-serif" font-size="10px" fill="#000" opacity="1">PB</text><text text-anchor="end" transform="translate(-7,312.5)" font-family="sans-serif" font-size="10px" fill="#000" opacity="1">PE</text><text text-anchor="end" transform="translate(-7,332.5)" font-family="sans-serif" font-size="10px" fill="#000" opacity="1">PI</text><text text-anchor="end" transform="translate(-7,352.5)" font-family="sans-serif" font-size="10px" fill="#000" opacity="1">PR</text><text text-anchor="end" transform="translate(-7,372.5)" font-family="sans-serif" font-size="10px" fill="#000" opacity="1">RJ</text><text text-anchor="end" transform="translate(-7,392.5)" font-family="sans-serif" font-size="10px" fill="#000" opacity="1">RN</text><text text-anchor="end" transform="translate(-7,412.5)" font-family="sans-serif" font-size="10px" fill="#000" opacity="1">RO</text><text text-anchor="end" transform="translate(-7,432.5)" font-family="sans-serif" font-size="10px" fill="#000" opacity="1">RR</text><text text-anchor="end" transform="translate(-7,452.5)" font-family="sans-serif" font-size="10px" fill="#000" opacity="1">RS</text><text text-anchor="end" transform="translate(-7,472.5)" font-family="sans-serif" font-size="10px" fill="#000" opacity="1">SC</text><text text-anchor="end" transform="translate(-7,492.5)" font-family="sans-serif" font-size="10px" fill="#000" opacity="1">SE</text><text text-anchor="end" transform="translate(-7,512.5)" font-family="sans-serif" font-size="10px" fill="#000" opacity="1">SP</text><text text-anchor="end" transform="translate(-7,532.5)" font-family="sans-serif" font-size="10px" fill="#000" opacity="1">TO</text></g><g class="mark-rule role-axis-domain" pointer-events="none"><line transform="translate(0,0)" x2="0" y2="540" stroke="#888" stroke-width="1" opacity="1"></line></g><g class="mark-text role-axis-title" pointer-events="none"><text text-anchor="middle" transform="translate(-27,270) rotate(-90) translate(0,-2)" font-family="sans-serif" font-size="11px" font-weight="bold" fill="#000" opacity="1">States</text></g></g><path class="foreground" aria-hidden="true" d="" pointer-events="none" display="none"></path></g></g><g class="mark-symbol role-mark layer_0_marks" role="graphics-object" aria-roledescription="symbol mark container"><path aria-label="Instantaneous reproduction number R(t): 0.868505369684; States: AM" role="graphics-symbol" aria-roledescription="point" transform="translate(59.9421984736362,50)" d="M2.7386127875258306,0A2.7386127875258306,2.7386127875258306,0,1,1,-2.7386127875258306,0A2.7386127875258306,2.7386127875258306,0,1,1,2.7386127875258306,0" stroke="#4c78a8" stroke-width="2" opacity="0.7"></path><path aria-label="Instantaneous reproduction number R(t): 0.87544379079; States: CE" role="graphics-symbol" aria-roledescription="point" transform="translate(66.0133169410005,110)" d="M2.7386127875258306,0A2.7386127875258306,2.7386127875258306,0,1,1,-2.7386127875258306,0A2.7386127875258306,2.7386127875258306,0,1,1,2.7386127875258306,0" stroke="#4c78a8" stroke-width="2" opacity="0.7"></path><path aria-label="Instantaneous reproduction number R(t): 0.894792449128; States: BA" role="graphics-symbol" aria-roledescription="point" transform="translate(82.94339298707791,90)" d="M2.7386127875258306,0A2.7386127875258306,2.7386127875258306,0,1,1,-2.7386127875258306,0A2.7386127875258306,2.7386127875258306,0,1,1,2.7386127875258306,0" stroke="#4c78a8" stroke-width="2" opacity="0.7"></path><path aria-label="Instantaneous reproduction number R(t): 0.914040361037; States: PE" role="graphics-symbol" aria-roledescription="point" transform="translate(99.78531590704995,310)" d="M2.7386127875258306,0A2.7386127875258306,2.7386127875258306,0,1,1,-2.7386127875258306,0A2.7386127875258306,2.7386127875258306,0,1,1,2.7386127875258306,0" stroke="#4c78a8" stroke-width="2" opacity="0.7"></path><path aria-label="Instantaneous reproduction number R(t): 0.93865543783; States: RS" role="graphics-symbol" aria-roledescription="point" transform="translate(121.32350810131597,450)" d="M2.7386127875258306,0A2.7386127875258306,2.7386127875258306,0,1,1,-2.7386127875258306,0A2.7386127875258306,2.7386127875258306,0,1,1,2.7386127875258306,0" stroke="#4c78a8" stroke-width="2" opacity="0.7"></path><path aria-label="Instantaneous reproduction number R(t): 0.940728203818; States: PA" role="graphics-symbol" aria-roledescription="point" transform="translate(123.13717834084831,270)" d="M2.7386127875258306,0A2.7386127875258306,2.7386127875258306,0,1,1,-2.7386127875258306,0A2.7386127875258306,2.7386127875258306,0,1,1,2.7386127875258306,0" stroke="#4c78a8" stroke-width="2" opacity="0.7"></path><path aria-label="Instantaneous reproduction number R(t): 0.953860162227; States: SC" role="graphics-symbol" aria-roledescription="point" transform="translate(134.6276419484232,470)" d="M2.7386127875258306,0A2.7386127875258306,2.7386127875258306,0,1,1,-2.7386127875258306,0A2.7386127875258306,2.7386127875258306,0,1,1,2.7386127875258306,0" stroke="#4c78a8" stroke-width="2" opacity="0.7"></path><path aria-label="Instantaneous reproduction number R(t): 0.966006863869; States: RR" role="graphics-symbol" aria-roledescription="point" transform="translate(145.25600588493774,430)" d="M2.7386127875258306,0A2.7386127875258306,2.7386127875258306,0,1,1,-2.7386127875258306,0A2.7386127875258306,2.7386127875258306,0,1,1,2.7386127875258306,0" stroke="#4c78a8" stroke-width="2" opacity="0.7"></path><path aria-label="Instantaneous reproduction number R(t): 0.976017327652; States: AP" role="graphics-symbol" aria-roledescription="point" transform="translate(154.01516169588047,70)" d="M2.7386127875258306,0A2.7386127875258306,2.7386127875258306,0,1,1,-2.7386127875258306,0A2.7386127875258306,2.7386127875258306,0,1,1,2.7386127875258306,0" stroke="#4c78a8" stroke-width="2" opacity="0.7"></path><path aria-label="Instantaneous reproduction number R(t): 0.980488564948; States: RJ" role="graphics-symbol" aria-roledescription="point" transform="translate(157.92749432922676,370)" d="M2.7386127875258306,0A2.7386127875258306,2.7386127875258306,0,1,1,-2.7386127875258306,0A2.7386127875258306,2.7386127875258306,0,1,1,2.7386127875258306,0" stroke="#4c78a8" stroke-width="2" opacity="0.7"></path><path aria-label="Instantaneous reproduction number R(t): 1.01310589719; States: TO" role="graphics-symbol" aria-roledescription="point" transform="translate(186.4676600434835,530)" d="M2.7386127875258306,0A2.7386127875258306,2.7386127875258306,0,1,1,-2.7386127875258306,0A2.7386127875258306,2.7386127875258306,0,1,1,2.7386127875258306,0" stroke="#4c78a8" stroke-width="2" opacity="0.7"></path><path aria-label="Instantaneous reproduction number R(t): 1.02491444674; States: MA" role="graphics-symbol" aria-roledescription="point" transform="translate(196.80014089360134,190)" d="M2.7386127875258306,0A2.7386127875258306,2.7386127875258306,0,1,1,-2.7386127875258306,0A2.7386127875258306,2.7386127875258306,0,1,1,2.7386127875258306,0" stroke="#4c78a8" stroke-width="2" opacity="0.7"></path><path aria-label="Instantaneous reproduction number R(t): 1.02602218068; States: SP" role="graphics-symbol" aria-roledescription="point" transform="translate(197.7694080937515,510)" d="M2.7386127875258306,0A2.7386127875258306,2.7386127875258306,0,1,1,-2.7386127875258306,0A2.7386127875258306,2.7386127875258306,0,1,1,2.7386127875258306,0" stroke="#4c78a8" stroke-width="2" opacity="0.7"></path><path aria-label="Instantaneous reproduction number R(t): 1.09944993279; States: PR" role="graphics-symbol" aria-roledescription="point" transform="translate(262.01869119392614,350)" d="M2.7386127875258306,0A2.7386127875258306,2.7386127875258306,0,1,1,-2.7386127875258306,0A2.7386127875258306,2.7386127875258306,0,1,1,2.7386127875258306,0" stroke="#4c78a8" stroke-width="2" opacity="0.7"></path><path aria-label="Instantaneous reproduction number R(t): 1.10740811011; States: AC" role="graphics-symbol" aria-roledescription="point" transform="translate(268.9820963487382,10)" d="M2.7386127875258306,0A2.7386127875258306,2.7386127875258306,0,1,1,-2.7386127875258306,0A2.7386127875258306,2.7386127875258306,0,1,1,2.7386127875258306,0" stroke="#4c78a8" stroke-width="2" opacity="0.7"></path><path aria-label="Instantaneous reproduction number R(t): 1.11455496717; States: PI" role="graphics-symbol" aria-roledescription="point" transform="translate(275.2355962728639,330)" d="M2.7386127875258306,0A2.7386127875258306,2.7386127875258306,0,1,1,-2.7386127875258306,0A2.7386127875258306,2.7386127875258306,0,1,1,2.7386127875258306,0" stroke="#4c78a8" stroke-width="2" opacity="0.7"></path><path aria-label="Instantaneous reproduction number R(t): 1.1206374639; States: PB" role="graphics-symbol" aria-roledescription="point" transform="translate(280.5577809108734,290)" d="M2.7386127875258306,0A2.7386127875258306,2.7386127875258306,0,1,1,-2.7386127875258306,0A2.7386127875258306,2.7386127875258306,0,1,1,2.7386127875258306,0" stroke="#4c78a8" stroke-width="2" opacity="0.7"></path><path aria-label="Instantaneous reproduction number R(t): 1.14332402194; States: AL" role="graphics-symbol" aria-roledescription="point" transform="translate(300.4085191946902,30)" d="M2.7386127875258306,0A2.7386127875258306,2.7386127875258306,0,1,1,-2.7386127875258306,0A2.7386127875258306,2.7386127875258306,0,1,1,2.7386127875258306,0" stroke="#4c78a8" stroke-width="2" opacity="0.7"></path><path aria-label="Instantaneous reproduction number R(t): 1.14850677102; States: GO" role="graphics-symbol" aria-roledescription="point" transform="translate(304.9434246398321,170)" d="M2.7386127875258306,0A2.7386127875258306,2.7386127875258306,0,1,1,-2.7386127875258306,0A2.7386127875258306,2.7386127875258306,0,1,1,2.7386127875258306,0" stroke="#4c78a8" stroke-width="2" opacity="0.7"></path><path aria-label="Instantaneous reproduction number R(t): 1.1492619972; States: DF" role="graphics-symbol" aria-roledescription="point" transform="translate(305.60424755232134,130)" d="M2.7386127875258306,0A2.7386127875258306,2.7386127875258306,0,1,1,-2.7386127875258306,0A2.7386127875258306,2.7386127875258306,0,1,1,2.7386127875258306,0" stroke="#4c78a8" stroke-width="2" opacity="0.7"></path><path aria-label="Instantaneous reproduction number R(t): 1.16669782492; States: ES" role="graphics-symbol" aria-roledescription="point" transform="translate(320.86059680204966,150)" d="M2.7386127875258306,0A2.7386127875258306,2.7386127875258306,0,1,1,-2.7386127875258306,0A2.7386127875258306,2.7386127875258306,0,1,1,2.7386127875258306,0" stroke="#4c78a8" stroke-width="2" opacity="0.7"></path><path aria-label="Instantaneous reproduction number R(t): 1.22119740903; States: MG" role="graphics-symbol" aria-roledescription="point" transform="translate(368.5477329044963,210)" d="M2.7386127875258306,0A2.7386127875258306,2.7386127875258306,0,1,1,-2.7386127875258306,0A2.7386127875258306,2.7386127875258306,0,1,1,2.7386127875258306,0" stroke="#4c78a8" stroke-width="2" opacity="0.7"></path><path aria-label="Instantaneous reproduction number R(t): 1.24430919934; States: SE" role="graphics-symbol" aria-roledescription="point" transform="translate(388.7705494257154,490)" d="M2.7386127875258306,0A2.7386127875258306,2.7386127875258306,0,1,1,-2.7386127875258306,0A2.7386127875258306,2.7386127875258306,0,1,1,2.7386127875258306,0" stroke="#4c78a8" stroke-width="2" opacity="0.7"></path><path aria-label="Instantaneous reproduction number R(t): 1.25705667389; States: MT" role="graphics-symbol" aria-roledescription="point" transform="translate(399.9245896580983,250)" d="M2.7386127875258306,0A2.7386127875258306,2.7386127875258306,0,1,1,-2.7386127875258306,0A2.7386127875258306,2.7386127875258306,0,1,1,2.7386127875258306,0" stroke="#4c78a8" stroke-width="2" opacity="0.7"></path><path aria-label="Instantaneous reproduction number R(t): 1.34400132068; States: RO" role="graphics-symbol" aria-roledescription="point" transform="translate(476.0011555938036,410)" d="M2.7386127875258306,0A2.7386127875258306,2.7386127875258306,0,1,1,-2.7386127875258306,0A2.7386127875258306,2.7386127875258306,0,1,1,2.7386127875258306,0" stroke="#4c78a8" stroke-width="2" opacity="0.7"></path><path aria-label="Instantaneous reproduction number R(t): 1.34455881775; States: MS" role="graphics-symbol" aria-roledescription="point" transform="translate(476.48896553236926,230)" d="M2.7386127875258306,0A2.7386127875258306,2.7386127875258306,0,1,1,-2.7386127875258306,0A2.7386127875258306,2.7386127875258306,0,1,1,2.7386127875258306,0" stroke="#4c78a8" stroke-width="2" opacity="0.7"></path><path aria-label="Instantaneous reproduction number R(t): 1.47786618529; States: RN" role="graphics-symbol" aria-roledescription="point" transform="translate(593.1329121288971,390)" d="M2.7386127875258306,0A2.7386127875258306,2.7386127875258306,0,1,1,-2.7386127875258306,0A2.7386127875258306,2.7386127875258306,0,1,1,2.7386127875258306,0" stroke="#4c78a8" stroke-width="2" opacity="0.7"></path></g><g class="mark-rule role-mark layer_1_marks" role="graphics-object" aria-roledescription="rule mark container"><line aria-label="a: 1" role="graphics-symbol" aria-roledescription="rule mark" transform="translate(174.99999999999997,0)" x2="0" y2="540" stroke="black" stroke-width="0.2"></line><line aria-label="a: 1" role="graphics-symbol" aria-roledescription="rule mark" transform="translate(174.99999999999997,0)" x2="0" y2="540" stroke="black" stroke-width="0.2"></line><line aria-label="a: 1" role="graphics-symbol" aria-roledescription="rule mark" transform="translate(174.99999999999997,0)" x2="0" y2="540" stroke="black" stroke-width="0.2"></line><line aria-label="a: 1" role="graphics-symbol" aria-roledescription="rule mark" transform="translate(174.99999999999997,0)" x2="0" y2="540" stroke="black" stroke-width="0.2"></line><line aria-label="a: 1" role="graphics-symbol" aria-roledescription="rule mark" transform="translate(174.99999999999997,0)" x2="0" y2="540" stroke="black" stroke-width="0.2"></line><line aria-label="a: 1" role="graphics-symbol" aria-roledescription="rule mark" transform="translate(174.99999999999997,0)" x2="0" y2="540" stroke="black" stroke-width="0.2"></line><line aria-label="a: 1" role="graphics-symbol" aria-roledescription="rule mark" transform="translate(174.99999999999997,0)" x2="0" y2="540" stroke="black" stroke-width="0.2"></line><line aria-label="a: 1" role="graphics-symbol" aria-roledescription="rule mark" transform="translate(174.99999999999997,0)" x2="0" y2="540" stroke="black" stroke-width="0.2"></line><line aria-label="a: 1" role="graphics-symbol" aria-roledescription="rule mark" transform="translate(174.99999999999997,0)" x2="0" y2="540" stroke="black" stroke-width="0.2"></line><line aria-label="a: 1" role="graphics-symbol" aria-roledescription="rule mark" transform="translate(174.99999999999997,0)" x2="0" y2="540" stroke="black" stroke-width="0.2"></line><line aria-label="a: 1" role="graphics-symbol" aria-roledescription="rule mark" transform="translate(174.99999999999997,0)" x2="0" y2="540" stroke="black" stroke-width="0.2"></line><line aria-label="a: 1" role="graphics-symbol" aria-roledescription="rule mark" transform="translate(174.99999999999997,0)" x2="0" y2="540" stroke="black" stroke-width="0.2"></line><line aria-label="a: 1" role="graphics-symbol" aria-roledescription="rule mark" transform="translate(174.99999999999997,0)" x2="0" y2="540" stroke="black" stroke-width="0.2"></line><line aria-label="a: 1" role="graphics-symbol" aria-roledescription="rule mark" transform="translate(174.99999999999997,0)" x2="0" y2="540" stroke="black" stroke-width="0.2"></line><line aria-label="a: 1" role="graphics-symbol" aria-roledescription="rule mark" transform="translate(174.99999999999997,0)" x2="0" y2="540" stroke="black" stroke-width="0.2"></line><line aria-label="a: 1" role="graphics-symbol" aria-roledescription="rule mark" transform="translate(174.99999999999997,0)" x2="0" y2="540" stroke="black" stroke-width="0.2"></line><line aria-label="a: 1" role="graphics-symbol" aria-roledescription="rule mark" transform="translate(174.99999999999997,0)" x2="0" y2="540" stroke="black" stroke-width="0.2"></line><line aria-label="a: 1" role="graphics-symbol" aria-roledescription="rule mark" transform="translate(174.99999999999997,0)" x2="0" y2="540" stroke="black" stroke-width="0.2"></line><line aria-label="a: 1" role="graphics-symbol" aria-roledescription="rule mark" transform="translate(174.99999999999997,0)" x2="0" y2="540" stroke="black" stroke-width="0.2"></line><line aria-label="a: 1" role="graphics-symbol" aria-roledescription="rule mark" transform="translate(174.99999999999997,0)" x2="0" y2="540" stroke="black" stroke-width="0.2"></line><line aria-label="a: 1" role="graphics-symbol" aria-roledescription="rule mark" transform="translate(174.99999999999997,0)" x2="0" y2="540" stroke="black" stroke-width="0.2"></line><line aria-label="a: 1" role="graphics-symbol" aria-roledescription="rule mark" transform="translate(174.99999999999997,0)" x2="0" y2="540" stroke="black" stroke-width="0.2"></line><line aria-label="a: 1" role="graphics-symbol" aria-roledescription="rule mark" transform="translate(174.99999999999997,0)" x2="0" y2="540" stroke="black" stroke-width="0.2"></line><line aria-label="a: 1" role="graphics-symbol" aria-roledescription="rule mark" transform="translate(174.99999999999997,0)" x2="0" y2="540" stroke="black" stroke-width="0.2"></line><line aria-label="a: 1" role="graphics-symbol" aria-roledescription="rule mark" transform="translate(174.99999999999997,0)" x2="0" y2="540" stroke="black" stroke-width="0.2"></line><line aria-label="a: 1" role="graphics-symbol" aria-roledescription="rule mark" transform="translate(174.99999999999997,0)" x2="0" y2="540" stroke="black" stroke-width="0.2"></line><line aria-label="a: 1" role="graphics-symbol" aria-roledescription="rule mark" transform="translate(174.99999999999997,0)" x2="0" y2="540" stroke="black" stroke-width="0.2"></line></g><g class="mark-rule role-mark layer_2_marks" role="graphics-object" aria-roledescription="rule mark container"><line aria-label="CI 0.975: 0.83299713134; upper_Quantile.0.025(R): 0.903558599539; index: AM; Quantile.0.975(R): 0.903558599539; Quantile.0.025(R): 0.83299713134" role="graphics-symbol" aria-roledescription="errorbar" transform="translate(28.872489922874237,50)" x2="61.74128467348015" y2="0" stroke="blue" stroke-width="0.6"></line><line aria-label="CI 0.975: 0.816121010457; upper_Quantile.0.025(R): 0.92940592673; index: CE; Quantile.0.975(R): 0.92940592673; Quantile.0.025(R): 0.816121010457" role="graphics-symbol" aria-roledescription="errorbar" transform="translate(14.105884150286588,110)" x2="99.12430173847804" y2="0" stroke="blue" stroke-width="0.6"></line><line aria-label="CI 0.975: 0.855772562123; upper_Quantile.0.025(R): 0.942174105176; index: BA; Quantile.0.975(R): 0.942174105176; Quantile.0.025(R): 0.855772562123" role="graphics-symbol" aria-roledescription="errorbar" transform="translate(48.800991857790606,90)" x2="75.6013501714655" y2="0" stroke="blue" stroke-width="0.6"></line><line aria-label="CI 0.975: 0.878574940484; upper_Quantile.0.025(R): 0.949327509245; index: PE; Quantile.0.975(R): 0.949327509245; Quantile.0.025(R): 0.878574940484" role="graphics-symbol" aria-roledescription="errorbar" transform="translate(68.75307292392631,310)" x2="61.90849766569761" y2="0" stroke="blue" stroke-width="0.6"></line><line aria-label="CI 0.975: 0.899761219263; upper_Quantile.0.025(R): 0.977840908396; index: RS; Quantile.0.975(R): 0.977840908396; Quantile.0.025(R): 0.899761219263" role="graphics-symbol" aria-roledescription="errorbar" transform="translate(87.29106685551258,450)" x2="68.31972799121093" y2="0" stroke="blue" stroke-width="0.6"></line><line aria-label="CI 0.975: 0.908698301382; upper_Quantile.0.025(R): 0.971874093407; index: PA; Quantile.0.975(R): 0.971874093407; Quantile.0.025(R): 0.908698301382" role="graphics-symbol" aria-roledescription="errorbar" transform="translate(95.11101370945991,270)" x2="55.27881802175804" y2="0" stroke="blue" stroke-width="0.6"></line><line aria-label="CI 0.975: 0.914880804147; upper_Quantile.0.025(R): 0.993599313826; index: SC; Quantile.0.975(R): 0.993599313826; Quantile.0.025(R): 0.914880804147" role="graphics-symbol" aria-roledescription="errorbar" transform="translate(100.52070362841116,470)" x2="68.87869596929954" y2="0" stroke="blue" stroke-width="0.6"></line><line aria-label="CI 0.975: 0.900767451571; upper_Quantile.0.025(R): 1.03893817647; index: RR; Quantile.0.975(R): 1.03893817647; Quantile.0.025(R): 0.900767451571" role="graphics-symbol" aria-roledescription="errorbar" transform="translate(88.17152012440883,430)" x2="120.89938428432265" y2="0" stroke="blue" stroke-width="0.6"></line><line aria-label="CI 0.975: 0.942488145484; upper_Quantile.0.025(R): 1.01035980084; index: AP; Quantile.0.975(R): 1.01035980084; Quantile.0.025(R): 0.942488145484" role="graphics-symbol" aria-roledescription="errorbar" transform="translate(124.67712729879241,70)" x2="59.38769843189908" y2="0" stroke="blue" stroke-width="0.6"></line><line aria-label="CI 0.975: 0.963075778943; upper_Quantile.0.025(R): 1.00001183204; index: RJ; Quantile.0.975(R): 1.00001183204; Quantile.0.025(R): 0.963075778943" role="graphics-symbol" aria-roledescription="errorbar" transform="translate(142.6913065747024,370)" x2="32.319046457259475" y2="0" stroke="blue" stroke-width="0.6"></line><line aria-label="CI 0.975: 0.962053291567; upper_Quantile.0.025(R): 1.06521496331; index: TO; Quantile.0.975(R): 1.06521496331; Quantile.0.025(R): 0.962053291567" role="graphics-symbol" aria-roledescription="errorbar" transform="translate(141.79663012119047,530)" x2="90.2664627719735" y2="0" stroke="blue" stroke-width="0.6"></line><line aria-label="CI 0.975: 0.986390533842; upper_Quantile.0.025(R): 1.07209773363; index: MA; Quantile.0.975(R): 1.07209773363; Quantile.0.025(R): 0.986390533842" role="graphics-symbol" aria-roledescription="errorbar" transform="translate(163.09171711193594,190)" x2="74.99379981033493" y2="0" stroke="blue" stroke-width="0.6"></line><line aria-label="CI 0.975: 1.00794189648; upper_Quantile.0.025(R): 1.04822238009; index: SP; Quantile.0.975(R): 1.04822238009; Quantile.0.025(R): 1.00794189648" role="graphics-symbol" aria-roledescription="errorbar" transform="translate(181.94915941932325,510)" x2="35.245423163552346" y2="0" stroke="blue" stroke-width="0.6"></line><line aria-label="CI 0.975: 1.0282655779; upper_Quantile.0.025(R): 1.17074429744; index: PR; Quantile.0.975(R): 1.17074429744; Quantile.0.025(R): 1.0282655779" role="graphics-symbol" aria-roledescription="errorbar" transform="translate(199.73238066009569,350)" x2="124.6688795983604" y2="0" stroke="blue" stroke-width="0.6"></line><line aria-label="CI 0.975: 1.02573746675; upper_Quantile.0.025(R): 1.2136310899; index: AC; Quantile.0.975(R): 1.2136310899; Quantile.0.025(R): 1.02573746675" role="graphics-symbol" aria-roledescription="errorbar" transform="translate(197.52028340302368,10)" x2="164.40692025873412" y2="0" stroke="blue" stroke-width="0.6"></line><line aria-label="CI 0.975: 1.05022352034; upper_Quantile.0.025(R): 1.18309492741; index: PI; Quantile.0.975(R): 1.18309492741; Quantile.0.025(R): 1.05022352034" role="graphics-symbol" aria-roledescription="errorbar" transform="translate(218.94558029969048,330)" x2="116.2624811848514" y2="0" stroke="blue" stroke-width="0.6"></line><line aria-label="CI 0.975: 1.07156732852; upper_Quantile.0.025(R): 1.17099900663; index: PB; Quantile.0.975(R): 1.17099900663; Quantile.0.025(R): 1.07156732852" role="graphics-symbol" aria-roledescription="errorbar" transform="translate(237.6214124572518,290)" x2="87.00271834009877" y2="0" stroke="blue" stroke-width="0.6"></line><line aria-label="CI 0.975: 1.09422554214; upper_Quantile.0.025(R): 1.19392874246; index: AL; Quantile.0.975(R): 1.19392874246; Quantile.0.025(R): 1.09422554214" role="graphics-symbol" aria-roledescription="errorbar" transform="translate(257.4473493763517,30)" x2="87.2403002751094" y2="0" stroke="blue" stroke-width="0.6"></line><line aria-label="CI 0.975: 1.05741090135; upper_Quantile.0.025(R): 1.23709690028; index: GO; Quantile.0.975(R): 1.23709690028; Quantile.0.025(R): 1.05741090135" role="graphics-symbol" aria-roledescription="errorbar" transform="translate(225.23453868543993,170)" x2="157.22524906111886" y2="0" stroke="blue" stroke-width="0.6"></line><line aria-label="CI 0.975: 1.07129042573; upper_Quantile.0.025(R): 1.23160166989; index: DF; Quantile.0.975(R): 1.23160166989; Quantile.0.025(R): 1.07129042573" role="graphics-symbol" aria-roledescription="errorbar" transform="translate(237.37912251647137,130)" x2="140.27233863721895" y2="0" stroke="blue" stroke-width="0.6"></line><line aria-label="CI 0.975: 1.0885987889; upper_Quantile.0.025(R): 1.25536186493; index: ES; Quantile.0.975(R): 1.25536186493; Quantile.0.025(R): 1.0885987889" role="graphics-symbol" aria-roledescription="errorbar" transform="translate(252.52394028565416,150)" x2="145.91769152408065" y2="0" stroke="blue" stroke-width="0.6"></line><line aria-label="CI 0.975: 1.16953154906; upper_Quantile.0.025(R): 1.27623937879; index: MG; Quantile.0.975(R): 1.27623937879; Quantile.0.025(R): 1.16953154906" role="graphics-symbol" aria-roledescription="errorbar" transform="translate(323.3401054243589,210)" x2="93.36935102020186" y2="0" stroke="blue" stroke-width="0.6"></line><line aria-label="CI 0.975: 1.16018975545; upper_Quantile.0.025(R): 1.32884800914; index: SE; Quantile.0.975(R): 1.32884800914; Quantile.0.025(R): 1.16018975545" role="graphics-symbol" aria-roledescription="errorbar" transform="translate(315.16603602260506,490)" x2="147.57597197317864" y2="0" stroke="blue" stroke-width="0.6"></line><line aria-label="CI 0.975: 1.14998770234; upper_Quantile.0.025(R): 1.37051979708; index: MT; Quantile.0.975(R): 1.37051979708; Quantile.0.025(R): 1.14998770234" role="graphics-symbol" aria-roledescription="errorbar" transform="translate(306.2392395513341,250)" x2="192.9655828933436" y2="0" stroke="blue" stroke-width="0.6"></line><line aria-label="CI 0.975: 1.21979273661; upper_Quantile.0.025(R): 1.49873576037; index: RO; Quantile.0.975(R): 1.49873576037; Quantile.0.025(R): 1.21979273661" role="graphics-symbol" aria-roledescription="errorbar" transform="translate(367.318644534437,410)" x2="244.07514579051679" y2="0" stroke="blue" stroke-width="0.6"></line><line aria-label="CI 0.975: 1.23467633675; upper_Quantile.0.025(R): 1.45877864346; index: MS; Quantile.0.975(R): 1.45877864346; Quantile.0.025(R): 1.23467633675" role="graphics-symbol" aria-roledescription="errorbar" transform="translate(380.34179465566064,230)" x2="196.08951837014666" y2="0" stroke="blue" stroke-width="0.6"></line><line aria-label="CI 0.975: 1.35469362628; upper_Quantile.0.025(R): 1.55617650302; index: RN; Quantile.0.975(R): 1.55617650302; Quantile.0.025(R): 1.35469362628" role="graphics-symbol" aria-roledescription="errorbar" transform="translate(485.3569229910811,390)" x2="176.2975171554018" y2="0" stroke="blue" stroke-width="0.6"></line></g><g class="mark-group role-title"><g transform="translate(350,-17.2)"><path class="background" aria-hidden="true" d="M0,0h0v0h0Z" pointer-events="none"></path><g><g class="mark-text role-title-text" role="graphics-symbol" aria-roledescription="title" aria-label="Title text 'Instantaneous reproduction number estimate for all states in Brazil'" pointer-events="none"><text text-anchor="middle" transform="translate(0,10)" font-family="sans-serif" font-size="13px" font-weight="bold" fill="#000" opacity="1">Instantaneous reproduction number estimate for all states in Brazil</text></g></g><path class="foreground" aria-hidden="true" d="" pointer-events="none" display="none"></path></g></g></g><path class="foreground" aria-hidden="true" d="" display="none"></path></g></g></g></svg>