<svg class="marks" width="749" height="600" viewBox="0 0 749 600" version="1.1" xmlns="http://www.w3.org/2000/svg" xmlns:xlink="http://www.w3.org/1999/xlink"><rect width="749" height="600" fill="white"></rect><g fill="none" stroke-miterlimit="10" transform="translate(43,23)"><g class="mark-group role-frame root" role="graphics-object" aria-roledescription="group mark container"><g transform="translate(0,0)"><path class="background" aria-hidden="true" d="M0.5,0.5h700v540h-700Z"></path><g><g class="mark-group role-axis" aria-hidden="true"><g transform="translate(0.5,0.5)"><path class="background" aria-hidden="true" d="M0,0h0v0h0Z" pointer-events="none"></path><g><g class="mark-rule role-axis-grid" pointer-events="none"><line transform="translate(0,10)" x2="700" y2="0" stroke="#ddd" stroke-width="1" opacity="1"></line><line transform="translate(0,30)" x2="700" y2="0" stroke="#ddd" stroke-width="1" opacity="1"></line><line transform="translate(0,50)" x2="700" y2="0" stroke="#ddd" stroke-width="1" opacity="1"></line><line transform="translate(0,70)" x2="700" y2="0" stroke="#ddd" stroke-width="1" opacity="1"></line><line transform="translate(0,90)" x2="700" y2="0" stroke="#ddd" stroke-width="1" opacity="1"></line><line transform="translate(0,110)" x2="700" y2="0" stroke="#ddd" stroke-width="1" opacity="1"></line><line transform="translate(0,130)" x2="700" y2="0" stroke="#ddd" stroke-width="1" opacity="1"></line><line transform="translate(0,150)" x2="700" y2="0" stroke="#ddd" stroke-width="1" opacity="1"></line><line transform="translate(0,170)" x2="700" y2="0" stroke="#ddd" stroke-width="1" opacity="1"></line><line transform="translate(0,190)" x2="700" y2="0" stroke="#ddd" stroke-width="1" opacity="1"></line><line transform="translate(0,210)" x2="700" y2="0" stroke="#ddd" stroke-width="1" opacity="1"></line><line transform="translate(0,230)" x2="700" y2="0" stroke="#ddd" stroke-width="1" opacity="1"></line><line transform="translate(0,250)" x2="700" y2="0" stroke="#ddd" stroke-width="1" opacity="1"></line><line transform="translate(0,270)" x2="700" y2="0" stroke="#ddd" stroke-width="1" opacity="1"></line><line transform="translate(0,290)" x2="700" y2="0" stroke="#ddd" stroke-width="1" opacity="1"></line><line transform="translate(0,310)" x2="700" y2="0" stroke="#ddd" stroke-width="1" opacity="1"></line><line transform="translate(0,330)" x2="700" y2="0" stroke="#ddd" stroke-width="1" opacity="1"></line><line transform="translate(0,350)" x2="700" y2="0" stroke="#ddd" stroke-width="1" opacity="1"></line><line transform="translate(0,370)" x2="700" y2="0" stroke="#ddd" stroke-width="1" opacity="1"></line><line transform="translate(0,390)" x2="700" y2="0" stroke="#ddd" stroke-width="1" opacity="1"></line><line transform="translate(0,410)" x2="700" y2="0" stroke="#ddd" stroke-width="1" opacity="1"></line><line transform="translate(0,430)" x2="700" y2="0" stroke="#ddd" stroke-width="1" opacity="1"></line><line transform="translate(0,450)" x2="700" y2="0" stroke="#ddd" stroke-width="1" opacity="1"></line><line transform="translate(0,470)" x2="700" y2="0" stroke="#ddd" stroke-width="1" opacity="1"></line><line transform="translate(0,490)" x2="700" y2="0" stroke="#ddd" stroke-width="1" opacity="1"></line><line transform="translate(0,510)" x2="700" y2="0" stroke="#ddd" stroke-width="1" opacity="1"></line><line transform="translate(0,530)" x2="700" y2="0" stroke="#ddd" stroke-width="1" opacity="1"></line></g></g><path class="foreground" aria-hidden="true" d="" pointer-events="none" display="none"></path></g></g><g class="mark-group role-axis" role="graphics-symbol" aria-roledescription="axis" aria-label="X-axis titled 'Instantaneous reproduction number R(t), CI 0.975' for a linear scale with values from 0.6 to 1.8"><g transform="translate(0.5,540.5)"><path class="background" aria-hidden="true" d="M0,0h0v0h0Z" pointer-events="none"></path><g><g class="mark-rule role-axis-tick" pointer-events="none"><line transform="translate(0,0)" x2="0" y2="5" stroke="#888" stroke-width="1" opacity="1"></line><line transform="translate(29,0)" x2="0" y2="5" stroke="#888" stroke-width="1" opacity="1"></line><line transform="translate(58,0)" x2="0" y2="5" stroke="#888" stroke-width="1" opacity="1"></line><line transform="translate(88,0)" x2="0" y2="5" stroke="#888" stroke-width="1" opacity="1"></line><line transform="translate(117,0)" x2="0" y2="5" stroke="#888" stroke-width="1" opacity="1"></line><line transform="translate(146,0)" x2="0" y2="5" stroke="#888" stroke-width="1" opacity="1"></line><line transform="translate(175,0)" x2="0" y2="5" stroke="#888" stroke-width="1" opacity="1"></line><line transform="translate(204,0)" x2="0" y2="5" stroke="#888" stroke-width="1" opacity="1"></line><line transform="translate(233,0)" x2="0" y2="5" stroke="#888" stroke-width="1" opacity="1"></line><line transform="translate(263,0)" x2="0" y2="5" stroke="#888" stroke-width="1" opacity="1"></line><line transform="translate(292,0)" x2="0" y2="5" stroke="#888" stroke-width="1" opacity="1"></line><line transform="translate(321,0)" x2="0" y2="5" stroke="#888" stroke-width="1" opacity="1"></line><line transform="translate(350,0)" x2="0" y2="5" stroke="#888" stroke-width="1" opacity="1"></line><line transform="translate(379,0)" x2="0" y2="5" stroke="#888" stroke-width="1" opacity="1"></line><line transform="translate(408,0)" x2="0" y2="5" stroke="#888" stroke-width="1" opacity="1"></line><line transform="translate(438,0)" x2="0" y2="5" stroke="#888" stroke-width="1" opacity="1"></line><line transform="translate(467,0)" x2="0" y2="5" stroke="#888" stroke-width="1" opacity="1"></line><line transform="translate(496,0)" x2="0" y2="5" stroke="#888" stroke-width="1" opacity="1"></line><line transform="translate(525,0)" x2="0" y2="5" stroke="#888" stroke-width="1" opacity="1"></line><line transform="translate(554,0)" x2="0" y2="5" stroke="#888" stroke-width="1" opacity="1"></line><line transform="translate(583,0)" x2="0" y2="5" stroke="#888" stroke-width="1" opacity="1"></line><line transform="translate(612,0)" x2="0" y2="5" stroke="#888" stroke-width="1" opacity="1"></line><line transform="translate(642,0)" x2="0" y2="5" stroke="#888" stroke-width="1" opacity="1"></line><line transform="translate(671,0)" x2="0" y2="5" stroke="#888" stroke-width="1" opacity="1"></line><line transform="translate(700,0)" x2="0" y2="5" stroke="#888" stroke-width="1" opacity="1"></line></g><g class="mark-text role-axis-label" pointer-events="none"><text text-anchor="start" transform="translate(0,15)" font-family="sans-serif" font-size="10px" fill="#000" opacity="1">0.60</text><text text-anchor="middle" transform="translate(29.16666666666669,15)" font-family="sans-serif" font-size="10px" fill="#000" opacity="0">0.65</text><text text-anchor="middle" transform="translate(58.33333333333331,15)" font-family="sans-serif" font-size="10px" fill="#000" opacity="1">0.70</text><text text-anchor="middle" transform="translate(87.5,15)" font-family="sans-serif" font-size="10px" fill="#000" opacity="0">0.75</text><text text-anchor="middle" transform="translate(116.66666666666669,15)" font-family="sans-serif" font-size="10px" fill="#000" opacity="1">0.80</text><text text-anchor="middle" transform="translate(145.83333333333331,15)" font-family="sans-serif" font-size="10px" fill="#000" opacity="0">0.85</text><text text-anchor="middle" transform="translate(175,15)" font-family="sans-serif" font-size="10px" fill="#000" opacity="1">0.90</text><text text-anchor="middle" transform="translate(204.16666666666663,15)" font-family="sans-serif" font-size="10px" fill="#000" opacity="0">0.95</text><text text-anchor="middle" transform="translate(233.33333333333331,15)" font-family="sans-serif" font-size="10px" fill="#000" opacity="1">1.00</text><text text-anchor="middle" transform="translate(262.5,15)" font-family="sans-serif" font-size="10px" fill="#000" opacity="0">1.05</text><text text-anchor="middle" transform="translate(291.6666666666667,15)" font-family="sans-serif" font-size="10px" fill="#000" opacity="1">1.10</text><text text-anchor="middle" transform="translate(320.83333333333326,15)" font-family="sans-serif" font-size="10px" fill="#000" opacity="0">1.15</text><text text-anchor="middle" transform="translate(349.99999999999994,15)" font-family="sans-serif" font-size="10px" fill="#000" opacity="1">1.20</text><text text-anchor="middle" transform="translate(379.16666666666663,15)" font-family="sans-serif" font-size="10px" fill="#000" opacity="0">1.25</text><text text-anchor="middle" transform="translate(408.33333333333326,15)" font-family="sans-serif" font-size="10px" fill="#000" opacity="1">1.30</text><text text-anchor="middle" transform="translate(437.5,15)" font-family="sans-serif" font-size="10px" fill="#000" opacity="0">1.35</text><text text-anchor="middle" transform="translate(466.6666666666666,15)" font-family="sans-serif" font-size="10px" fill="#000" opacity="1">1.40</text><text text-anchor="middle" transform="translate(495.83333333333326,15)" font-family="sans-serif" font-size="10px" fill="#000" opacity="0">1.45</text><text text-anchor="middle" transform="translate(524.9999999999999,15)" font-family="sans-serif" font-size="10px" fill="#000" opacity="1">1.50</text><text text-anchor="middle" transform="translate(554.1666666666666,15)" font-family="sans-serif" font-size="10px" fill="#000" opacity="0">1.55</text><text text-anchor="middle" transform="translate(583.3333333333333,15)" font-family="sans-serif" font-size="10px" fill="#000" opacity="1">1.60</text><text text-anchor="middle" transform="translate(612.4999999999999,15)" font-family="sans-serif" font-size="10px" fill="#000" opacity="0">1.65</text><text text-anchor="middle" transform="translate(641.6666666666666,15)" font-family="sans-serif" font-size="10px" fill="#000" opacity="1">1.70</text><text text-anchor="middle" transform="translate(670.8333333333333,15)" font-family="sans-serif" font-size="10px" fill="#000" opacity="0">1.75</text><text text-anchor="end" transform="translate(700,15)" font-family="sans-serif" font-size="10px" fill="#000" opacity="1">1.80</text></g><g class="mark-rule role-axis-domain" pointer-events="none"><line transform="translate(0,0)" x2="700" y2="0" stroke="#888" stroke-width="1" opacity="1"></line></g><g class="mark-text role-axis-title" pointer-events="none"><text text-anchor="middle" transform="translate(350,30)" font-family="sans-serif" font-size="11px" font-weight="bold" fill="#000" opacity="1">Instantaneous reproduction number R(t), CI 0.975</text></g></g><path class="foreground" aria-hidden="true" d="" pointer-events="none" display="none"></path></g></g><g class="mark-group role-axis" role="graphics-symbol" aria-roledescription="axis" aria-label="Y-axis titled 'States' for a discrete scale with 27 values: AC, AL, AM, AP, BA, ending with TO"><g transform="translate(0.5,0.5)"><path class="background" aria-hidden="true" d="M0,0h0v0h0Z" pointer-events="none"></path><g><g class="mark-rule role-axis-tick" pointer-events="none"><line transform="translate(0,10)" x2="-5" y2="0" stroke="#888" stroke-width="1" opacity="1"></line><line transform="translate(0,30)" x2="-5" y2="0" stroke="#888" stroke-width="1" opacity="1"></line><line transform="translate(0,50)" x2="-5" y2="0" stroke="#888" stroke-width="1" opacity="1"></line><line transform="translate(0,70)" x2="-5" y2="0" stroke="#888" stroke-width="1" opacity="1"></line><line transform="translate(0,90)" x2="-5" y2="0" stroke="#888" stroke-width="1" opacity="1"></line><line transform="translate(0,110)" x2="-5" y2="0" stroke="#888" stroke-width="1" opacity="1"></line><line transform="translate(0,130)" x2="-5" y2="0" stroke="#888" stroke-width="1" opacity="1"></line><line transform="translate(0,150)" x2="-5" y2="0" stroke="#888" stroke-width="1" opacity="1"></line><line transform="translate(0,170)" x2="-5" y2="0" stroke="#888" stroke-width="1" opacity="1"></line><line transform="translate(0,190)" x2="-5" y2="0" stroke="#888" stroke-width="1" opacity="1"></line><line transform="translate(0,210)" x2="-5" y2="0" stroke="#888" stroke-width="1" opacity="1"></line><line transform="translate(0,230)" x2="-5" y2="0" stroke="#888" stroke-width="1" opacity="1"></line><line transform="translate(0,250)" x2="-5" y2="0" stroke="#888" stroke-width="1" opacity="1"></line><line transform="translate(0,270)" x2="-5" y2="0" stroke="#888" stroke-width="1" opacity="1"></line><line transform="translate(0,290)" x2="-5" y2="0" stroke="#888" stroke-width="1" opacity="1"></line><line transform="translate(0,310)" x2="-5" y2="0" stroke="#888" stroke-width="1" opacity="1"></line><line transform="translate(0,330)" x2="-5" y2="0" stroke="#888" stroke-width="1" opacity="1"></line><line transform="translate(0,350)" x2="-5" y2="0" stroke="#888" stroke-width="1" opacity="1"></line><line transform="translate(0,370)" x2="-5" y2="0" stroke="#888" stroke-width="1" opacity="1"></line><line transform="translate(0,390)" x2="-5" y2="0" stroke="#888" stroke-width="1" opacity="1"></line><line transform="translate(0,410)" x2="-5" y2="0" stroke="#888" stroke-width="1" opacity="1"></line><line transform="translate(0,430)" x2="-5" y2="0" stroke="#888" stroke-width="1" opacity="1"></line><line transform="translate(0,450)" x2="-5" y2="0" stroke="#888" stroke-width="1" opacity="1"></line><line transform="translate(0,470)" x2="-5" y2="0" stroke="#888" stroke-width="1" opacity="1"></line><line transform="translate(0,490)" x2="-5" y2="0" stroke="#888" stroke-width="1" opacity="1"></line><line transform="translate(0,510)" x2="-5" y2="0" stroke="#888" stroke-width="1" opacity="1"></line><line transform="translate(0,530)" x2="-5" y2="0" stroke="#888" stroke-width="1" opacity="1"></line></g><g class="mark-text role-axis-label" pointer-events="none"><text text-anchor="end" transform="translate(-7,12.5)" font-family="sans-serif" font-size="10px" fill="#000" opacity="1">AC</text><text text-anchor="end" transform="translate(-7,32.5)" font-family="sans-serif" font-size="10px" fill="#000" opacity="1">AL</text><text text-anchor="end" transform="translate(-7,52.5)" font-family="sans-serif" font-size="10px" fill="#000" opacity="1">AM</text><text text-anchor="end" transform="translate(-7,72.5)" font-family="sans-serif" font-size="10px" fill="#000" opacity="1">AP</text><text text-anchor="end" transform="translate(-7,92.5)" font-family="sans-serif" font-size="10px" fill="#000" opacity="1">BA</text><text text-anchor="end" transform="translate(-7,112.5)" font-family="sans-serif" font-size="10px" fill="#000" opacity="1">CE</text><text text-anchor="end" transform="translate(-7,132.5)" font-family="sans-serif" font-size="10px" fill="#000" opacity="1">DF</text><text text-anchor="end" transform="translate(-7,152.5)" font-family="sans-serif" font-size="10px" fill="#000" opacity="1">ES</text><text text-anchor="end" transform="translate(-7,172.5)" font-family="sans-serif" font-size="10px" fill="#000" opacity="1">GO</text><text text-anchor="end" transform="translate(-7,192.5)" font-family="sans-serif" font-size="10px" fill="#000" opacity="1">MA</text><text text-anchor="end" transform="translate(-7,212.5)" font-family="sans-serif" font-size="10px" fill="#000" opacity="1">MG</text><text text-anchor="end" transform="translate(-7,232.5)" font-family="sans-serif" font-size="10px" fill="#000" opacity="1">MS</text><text text-anchor="end" transform="translate(-7,252.5)" font-family="sans-serif" font-size="10px" fill="#000" opacity="1">MT</text><text text-anchor="end" transform="translate(-7,272.5)" font-family="sans-serif" font-size="10px" fill="#000" opacity="1">PA</text><text text-anchor="end" transform="translate(-7,292.5)" font-family="sans-serif" font-size="10px" fill="#000" opacity="1">PB</text><text text-anchor="end" transform="translate(-7,312.5)" font-family="sans-serif" font-size="10px" fill="#000" opacity="1">PE</text><text text-anchor="end" transform="translate(-7,332.5)" font-family="sans-serif" font-size="10px" fill="#000" opacity="1">PI</text><text text-anchor="end" transform="translate(-7,352.5)" font-family="sans-serif" font-size="10px" fill="#000" opacity="1">PR</text><text text-anchor="end" transform="translate(-7,372.5)" font-family="sans-serif" font-size="10px" fill="#000" opacity="1">RJ</text><text text-anchor="end" transform="translate(-7,392.5)" font-family="sans-serif" font-size="10px" fill="#000" opacity="1">RN</text><text text-anchor="end" transform="translate(-7,412.5)" font-family="sans-serif" font-size="10px" fill="#000" opacity="1">RO</text><text text-anchor="end" transform="translate(-7,432.5)" font-family="sans-serif" font-size="10px" fill="#000" opacity="1">RR</text><text text-anchor="end" transform="translate(-7,452.5)" font-family="sans-serif" font-size="10px" fill="#000" opacity="1">RS</text><text text-anchor="end" transform="translate(-7,472.5)" font-family="sans-serif" font-size="10px" fill="#000" opacity="1">SC</text><text text-anchor="end" transform="translate(-7,492.5)" font-family="sans-serif" font-size="10px" fill="#000" opacity="1">SE</text><text text-anchor="end" transform="translate(-7,512.5)" font-family="sans-serif" font-size="10px" fill="#000" opacity="1">SP</text><text text-anchor="end" transform="translate(-7,532.5)" font-family="sans-serif" font-size="10px" fill="#000" opacity="1">TO</text></g><g class="mark-rule role-axis-domain" pointer-events="none"><line transform="translate(0,0)" x2="0" y2="540" stroke="#888" stroke-width="1" opacity="1"></line></g><g class="mark-text role-axis-title" pointer-events="none"><text text-anchor="middle" transform="translate(-27,270) rotate(-90) translate(0,-2)" font-family="sans-serif" font-size="11px" font-weight="bold" fill="#000" opacity="1">States</text></g></g><path class="foreground" aria-hidden="true" d="" pointer-events="none" display="none"></path></g></g><g class="mark-symbol role-mark layer_0_marks" role="graphics-object" aria-roledescription="symbol mark container"><path aria-label="Instantaneous reproduction number R(t): 0.649426021244; States: CE" role="graphics-symbol" aria-roledescription="point" transform="translate(28.83184572558019,110)" d="M2.7386127875258306,0A2.7386127875258306,2.7386127875258306,0,1,1,-2.7386127875258306,0A2.7386127875258306,2.7386127875258306,0,1,1,2.7386127875258306,0" stroke="#4c78a8" stroke-width="2" opacity="0.7"></path><path aria-label="Instantaneous reproduction number R(t): 0.836414134744; States: BA" role="graphics-symbol" aria-roledescription="point" transform="translate(137.90824526741412,90)" d="M2.7386127875258306,0A2.7386127875258306,2.7386127875258306,0,1,1,-2.7386127875258306,0A2.7386127875258306,2.7386127875258306,0,1,1,2.7386127875258306,0" stroke="#4c78a8" stroke-width="2" opacity="0.7"></path><path aria-label="Instantaneous reproduction number R(t): 0.85202302444; States: SE" role="graphics-symbol" aria-roledescription="point" transform="translate(147.01343092328327,490)" d="M2.7386127875258306,0A2.7386127875258306,2.7386127875258306,0,1,1,-2.7386127875258306,0A2.7386127875258306,2.7386127875258306,0,1,1,2.7386127875258306,0" stroke="#4c78a8" stroke-width="2" opacity="0.7"></path><path aria-label="Instantaneous reproduction number R(t): 0.883522714148; States: RS" role="graphics-symbol" aria-roledescription="point" transform="translate(165.38824991971458,450)" d="M2.7386127875258306,0A2.7386127875258306,2.7386127875258306,0,1,1,-2.7386127875258306,0A2.7386127875258306,2.7386127875258306,0,1,1,2.7386127875258306,0" stroke="#4c78a8" stroke-width="2" opacity="0.7"></path><path aria-label="Instantaneous reproduction number R(t): 0.923915150235; States: PE" role="graphics-symbol" aria-roledescription="point" transform="translate(188.95050430373195,310)" d="M2.7386127875258306,0A2.7386127875258306,2.7386127875258306,0,1,1,-2.7386127875258306,0A2.7386127875258306,2.7386127875258306,0,1,1,2.7386127875258306,0" stroke="#4c78a8" stroke-width="2" opacity="0.7"></path><path aria-label="Instantaneous reproduction number R(t): 0.963684271089; States: RR" role="graphics-symbol" aria-roledescription="point" transform="translate(212.14915813514554,430)" d="M2.7386127875258306,0A2.7386127875258306,2.7386127875258306,0,1,1,-2.7386127875258306,0A2.7386127875258306,2.7386127875258306,0,1,1,2.7386127875258306,0" stroke="#4c78a8" stroke-width="2" opacity="0.7"></path><path aria-label="Instantaneous reproduction number R(t): 0.981102207946; States: RJ" role="graphics-symbol" aria-roledescription="point" transform="translate(222.30962130207305,370)" d="M2.7386127875258306,0A2.7386127875258306,2.7386127875258306,0,1,1,-2.7386127875258306,0A2.7386127875258306,2.7386127875258306,0,1,1,2.7386127875258306,0" stroke="#4c78a8" stroke-width="2" opacity="0.7"></path><path aria-label="Instantaneous reproduction number R(t): 1.02781678288; States: SP" role="graphics-symbol" aria-roledescription="point" transform="translate(249.5597900132758,510)" d="M2.7386127875258306,0A2.7386127875258306,2.7386127875258306,0,1,1,-2.7386127875258306,0A2.7386127875258306,2.7386127875258306,0,1,1,2.7386127875258306,0" stroke="#4c78a8" stroke-width="2" opacity="0.7"></path><path aria-label="Instantaneous reproduction number R(t): 1.10128184776; States: SC" role="graphics-symbol" aria-roledescription="point" transform="translate(292.4144111926025,470)" d="M2.7386127875258306,0A2.7386127875258306,2.7386127875258306,0,1,1,-2.7386127875258306,0A2.7386127875258306,2.7386127875258306,0,1,1,2.7386127875258306,0" stroke="#4c78a8" stroke-width="2" opacity="0.7"></path><path aria-label="Instantaneous reproduction number R(t): 1.11512188769; States: AM" role="graphics-symbol" aria-roledescription="point" transform="translate(300.48776781753304,50)" d="M2.7386127875258306,0A2.7386127875258306,2.7386127875258306,0,1,1,-2.7386127875258306,0A2.7386127875258306,2.7386127875258306,0,1,1,2.7386127875258306,0" stroke="#4c78a8" stroke-width="2" opacity="0.7"></path><path aria-label="Instantaneous reproduction number R(t): 1.11828815221; States: ES" role="graphics-symbol" aria-roledescription="point" transform="translate(302.33475545569155,150)" d="M2.7386127875258306,0A2.7386127875258306,2.7386127875258306,0,1,1,-2.7386127875258306,0A2.7386127875258306,2.7386127875258306,0,1,1,2.7386127875258306,0" stroke="#4c78a8" stroke-width="2" opacity="0.7"></path><path aria-label="Instantaneous reproduction number R(t): 1.15936189586; States: TO" role="graphics-symbol" aria-roledescription="point" transform="translate(326.29443925181823,530)" d="M2.7386127875258306,0A2.7386127875258306,2.7386127875258306,0,1,1,-2.7386127875258306,0A2.7386127875258306,2.7386127875258306,0,1,1,2.7386127875258306,0" stroke="#4c78a8" stroke-width="2" opacity="0.7"></path><path aria-label="Instantaneous reproduction number R(t): 1.18533050062; States: PI" role="graphics-symbol" aria-roledescription="point" transform="translate(341.4427920290779,330)" d="M2.7386127875258306,0A2.7386127875258306,2.7386127875258306,0,1,1,-2.7386127875258306,0A2.7386127875258306,2.7386127875258306,0,1,1,2.7386127875258306,0" stroke="#4c78a8" stroke-width="2" opacity="0.7"></path><path aria-label="Instantaneous reproduction number R(t): 1.19148279129; States: GO" role="graphics-symbol" aria-roledescription="point" transform="translate(345.0316282505797,170)" d="M2.7386127875258306,0A2.7386127875258306,2.7386127875258306,0,1,1,-2.7386127875258306,0A2.7386127875258306,2.7386127875258306,0,1,1,2.7386127875258306,0" stroke="#4c78a8" stroke-width="2" opacity="0.7"></path><path aria-label="Instantaneous reproduction number R(t): 1.21504085895; States: RN" role="graphics-symbol" aria-roledescription="point" transform="translate(358.7738343898714,390)" d="M2.7386127875258306,0A2.7386127875258306,2.7386127875258306,0,1,1,-2.7386127875258306,0A2.7386127875258306,2.7386127875258306,0,1,1,2.7386127875258306,0" stroke="#4c78a8" stroke-width="2" opacity="0.7"></path><path aria-label="Instantaneous reproduction number R(t): 1.2343797669; States: DF" role="graphics-symbol" aria-roledescription="point" transform="translate(370.0548640237682,130)" d="M2.7386127875258306,0A2.7386127875258306,2.7386127875258306,0,1,1,-2.7386127875258306,0A2.7386127875258306,2.7386127875258306,0,1,1,2.7386127875258306,0" stroke="#4c78a8" stroke-width="2" opacity="0.7"></path><path aria-label="Instantaneous reproduction number R(t): 1.29035303115; States: RO" role="graphics-symbol" aria-roledescription="point" transform="translate(402.70593483932277,410)" d="M2.7386127875258306,0A2.7386127875258306,2.7386127875258306,0,1,1,-2.7386127875258306,0A2.7386127875258306,2.7386127875258306,0,1,1,2.7386127875258306,0" stroke="#4c78a8" stroke-width="2" opacity="0.7"></path><path aria-label="Instantaneous reproduction number R(t): 1.35728089524; States: PA" role="graphics-symbol" aria-roledescription="point" transform="translate(441.74718889152064,270)" d="M2.7386127875258306,0A2.7386127875258306,2.7386127875258306,0,1,1,-2.7386127875258306,0A2.7386127875258306,2.7386127875258306,0,1,1,2.7386127875258306,0" stroke="#4c78a8" stroke-width="2" opacity="0.7"></path><path aria-label="Instantaneous reproduction number R(t): 1.36925832584; States: PR" role="graphics-symbol" aria-roledescription="point" transform="translate(448.73402340928084,350)" d="M2.7386127875258306,0A2.7386127875258306,2.7386127875258306,0,1,1,-2.7386127875258306,0A2.7386127875258306,2.7386127875258306,0,1,1,2.7386127875258306,0" stroke="#4c78a8" stroke-width="2" opacity="0.7"></path><path aria-label="Instantaneous reproduction number R(t): 1.42245246759; States: AC" role="graphics-symbol" aria-roledescription="point" transform="translate(479.7639394288573,10)" d="M2.7386127875258306,0A2.7386127875258306,2.7386127875258306,0,1,1,-2.7386127875258306,0A2.7386127875258306,2.7386127875258306,0,1,1,2.7386127875258306,0" stroke="#4c78a8" stroke-width="2" opacity="0.7"></path><path aria-label="Instantaneous reproduction number R(t): 1.42636135446; States: PB" role="graphics-symbol" aria-roledescription="point" transform="translate(482.04412343356637,290)" d="M2.7386127875258306,0A2.7386127875258306,2.7386127875258306,0,1,1,-2.7386127875258306,0A2.7386127875258306,2.7386127875258306,0,1,1,2.7386127875258306,0" stroke="#4c78a8" stroke-width="2" opacity="0.7"></path><path aria-label="Instantaneous reproduction number R(t): 1.453545219; States: MG" role="graphics-symbol" aria-roledescription="point" transform="translate(497.9013777493643,210)" d="M2.7386127875258306,0A2.7386127875258306,2.7386127875258306,0,1,1,-2.7386127875258306,0A2.7386127875258306,2.7386127875258306,0,1,1,2.7386127875258306,0" stroke="#4c78a8" stroke-width="2" opacity="0.7"></path><path aria-label="Instantaneous reproduction number R(t): 1.46907757155; States: AL" role="graphics-symbol" aria-roledescription="point" transform="translate(506.9619167399958,30)" d="M2.7386127875258306,0A2.7386127875258306,2.7386127875258306,0,1,1,-2.7386127875258306,0A2.7386127875258306,2.7386127875258306,0,1,1,2.7386127875258306,0" stroke="#4c78a8" stroke-width="2" opacity="0.7"></path><path aria-label="Instantaneous reproduction number R(t): 1.4800233688; States: AP" role="graphics-symbol" aria-roledescription="point" transform="translate(513.3469651356992,70)" d="M2.7386127875258306,0A2.7386127875258306,2.7386127875258306,0,1,1,-2.7386127875258306,0A2.7386127875258306,2.7386127875258306,0,1,1,2.7386127875258306,0" stroke="#4c78a8" stroke-width="2" opacity="0.7"></path><path aria-label="Instantaneous reproduction number R(t): 1.49304346924; States: MA" role="graphics-symbol" aria-roledescription="point" transform="translate(520.9420237250845,190)" d="M2.7386127875258306,0A2.7386127875258306,2.7386127875258306,0,1,1,-2.7386127875258306,0A2.7386127875258306,2.7386127875258306,0,1,1,2.7386127875258306,0" stroke="#4c78a8" stroke-width="2" opacity="0.7"></path><path aria-label="Instantaneous reproduction number R(t): 1.50038319689; States: MS" role="graphics-symbol" aria-roledescription="point" transform="translate(525.2235315215404,230)" d="M2.7386127875258306,0A2.7386127875258306,2.7386127875258306,0,1,1,-2.7386127875258306,0A2.7386127875258306,2.7386127875258306,0,1,1,2.7386127875258306,0" stroke="#4c78a8" stroke-width="2" opacity="0.7"></path><path aria-label="Instantaneous reproduction number R(t): 1.61302179084; States: MT" role="graphics-symbol" aria-roledescription="point" transform="translate(590.9293779912801,250)" d="M2.7386127875258306,0A2.7386127875258306,2.7386127875258306,0,1,1,-2.7386127875258306,0A2.7386127875258306,2.7386127875258306,0,1,1,2.7386127875258306,0" stroke="#4c78a8" stroke-width="2" opacity="0.7"></path></g><g class="mark-rule role-mark layer_1_marks" role="graphics-object" aria-roledescription="rule mark container"><line aria-label="a: 1" role="graphics-symbol" aria-roledescription="rule mark" transform="translate(233.33333333333331,0)" x2="0" y2="540" stroke="black" stroke-width="0.2"></line><line aria-label="a: 1" role="graphics-symbol" aria-roledescription="rule mark" transform="translate(233.33333333333331,0)" x2="0" y2="540" stroke="black" stroke-width="0.2"></line><line aria-label="a: 1" role="graphics-symbol" aria-roledescription="rule mark" transform="translate(233.33333333333331,0)" x2="0" y2="540" stroke="black" stroke-width="0.2"></line><line aria-label="a: 1" role="graphics-symbol" aria-roledescription="rule mark" transform="translate(233.33333333333331,0)" x2="0" y2="540" stroke="black" stroke-width="0.2"></line><line aria-label="a: 1" role="graphics-symbol" aria-roledescription="rule mark" transform="translate(233.33333333333331,0)" x2="0" y2="540" stroke="black" stroke-width="0.2"></line><line aria-label="a: 1" role="graphics-symbol" aria-roledescription="rule mark" transform="translate(233.33333333333331,0)" x2="0" y2="540" stroke="black" stroke-width="0.2"></line><line aria-label="a: 1" role="graphics-symbol" aria-roledescription="rule mark" transform="translate(233.33333333333331,0)" x2="0" y2="540" stroke="black" stroke-width="0.2"></line><line aria-label="a: 1" role="graphics-symbol" aria-roledescription="rule mark" transform="translate(233.33333333333331,0)" x2="0" y2="540" stroke="black" stroke-width="0.2"></line><line aria-label="a: 1" role="graphics-symbol" aria-roledescription="rule mark" transform="translate(233.33333333333331,0)" x2="0" y2="540" stroke="black" stroke-width="0.2"></line><line aria-label="a: 1" role="graphics-symbol" aria-roledescription="rule mark" transform="translate(233.33333333333331,0)" x2="0" y2="540" stroke="black" stroke-width="0.2"></line><line aria-label="a: 1" role="graphics-symbol" aria-roledescription="rule mark" transform="translate(233.33333333333331,0)" x2="0" y2="540" stroke="black" stroke-width="0.2"></line><line aria-label="a: 1" role="graphics-symbol" aria-roledescription="rule mark" transform="translate(233.33333333333331,0)" x2="0" y2="540" stroke="black" stroke-width="0.2"></line><line aria-label="a: 1" role="graphics-symbol" aria-roledescription="rule mark" transform="translate(233.33333333333331,0)" x2="0" y2="540" stroke="black" stroke-width="0.2"></line><line aria-label="a: 1" role="graphics-symbol" aria-roledescription="rule mark" transform="translate(233.33333333333331,0)" x2="0" y2="540" stroke="black" stroke-width="0.2"></line><line aria-label="a: 1" role="graphics-symbol" aria-roledescription="rule mark" transform="translate(233.33333333333331,0)" x2="0" y2="540" stroke="black" stroke-width="0.2"></line><line aria-label="a: 1" role="graphics-symbol" aria-roledescription="rule mark" transform="translate(233.33333333333331,0)" x2="0" y2="540" stroke="black" stroke-width="0.2"></line><line aria-label="a: 1" role="graphics-symbol" aria-roledescription="rule mark" transform="translate(233.33333333333331,0)" x2="0" y2="540" stroke="black" stroke-width="0.2"></line><line aria-label="a: 1" role="graphics-symbol" aria-roledescription="rule mark" transform="translate(233.33333333333331,0)" x2="0" y2="540" stroke="black" stroke-width="0.2"></line><line aria-label="a: 1" role="graphics-symbol" aria-roledescription="rule mark" transform="translate(233.33333333333331,0)" x2="0" y2="540" stroke="black" stroke-width="0.2"></line><line aria-label="a: 1" role="graphics-symbol" aria-roledescription="rule mark" transform="translate(233.33333333333331,0)" x2="0" y2="540" stroke="black" stroke-width="0.2"></line><line aria-label="a: 1" role="graphics-symbol" aria-roledescription="rule mark" transform="translate(233.33333333333331,0)" x2="0" y2="540" stroke="black" stroke-width="0.2"></line><line aria-label="a: 1" role="graphics-symbol" aria-roledescription="rule mark" transform="translate(233.33333333333331,0)" x2="0" y2="540" stroke="black" stroke-width="0.2"></line><line aria-label="a: 1" role="graphics-symbol" aria-roledescription="rule mark" transform="translate(233.33333333333331,0)" x2="0" y2="540" stroke="black" stroke-width="0.2"></line><line aria-label="a: 1" role="graphics-symbol" aria-roledescription="rule mark" transform="translate(233.33333333333331,0)" x2="0" y2="540" stroke="black" stroke-width="0.2"></line><line aria-label="a: 1" role="graphics-symbol" aria-roledescription="rule mark" transform="translate(233.33333333333331,0)" x2="0" y2="540" stroke="black" stroke-width="0.2"></line><line aria-label="a: 1" role="graphics-symbol" aria-roledescription="rule mark" transform="translate(233.33333333333331,0)" x2="0" y2="540" stroke="black" stroke-width="0.2"></line><line aria-label="a: 1" role="graphics-symbol" aria-roledescription="rule mark" transform="translate(233.33333333333331,0)" x2="0" y2="540" stroke="black" stroke-width="0.2"></line></g><g class="mark-rule role-mark layer_2_marks" role="graphics-object" aria-roledescription="rule mark container"><line aria-label="CI 0.975: 0.612185035234; upper_Quantile.0.025(R): 0.691087488846; index: CE; Quantile.0.975(R): 0.691087488846; Quantile.0.025(R): 0.612185035234" role="graphics-symbol" aria-roledescription="errorbar" transform="translate(7.107937219814193,110)" x2="46.02643127339432" y2="0" stroke="blue" stroke-width="0.6"></line><line aria-label="CI 0.975: 0.782458638385; upper_Quantile.0.025(R): 0.889628462239; index: BA; Quantile.0.975(R): 0.889628462239; Quantile.0.025(R): 0.782458638385" role="graphics-symbol" aria-roledescription="errorbar" transform="translate(106.43420572445255,90)" x2="62.51573058188602" y2="0" stroke="blue" stroke-width="0.6"></line><line aria-label="CI 0.975: 0.797007245516; upper_Quantile.0.025(R): 0.911734201725; index: SE; Quantile.0.975(R): 0.911734201725; Quantile.0.025(R): 0.797007245516" role="graphics-symbol" aria-roledescription="errorbar" transform="translate(114.92089321759295,490)" x2="66.92405778865987" y2="0" stroke="blue" stroke-width="0.6"></line><line aria-label="CI 0.975: 0.798731098088; upper_Quantile.0.025(R): 0.980662006585; index: RS; Quantile.0.975(R): 0.980662006585; Quantile.0.025(R): 0.798731098088" role="graphics-symbol" aria-roledescription="errorbar" transform="translate(115.92647388443262,450)" x2="106.1263632900422" y2="0" stroke="blue" stroke-width="0.6"></line><line aria-label="CI 0.975: 0.883043377957; upper_Quantile.0.025(R): 0.96608916932; index: PE; Quantile.0.975(R): 0.96608916932; Quantile.0.025(R): 0.883043377957" role="graphics-symbol" aria-roledescription="errorbar" transform="translate(165.1086371417888,310)" x2="48.44337829462407" y2="0" stroke="blue" stroke-width="0.6"></line><line aria-label="CI 0.975: 0.883476628833; upper_Quantile.0.025(R): 1.04792268873; index: RR; Quantile.0.975(R): 1.04792268873; Quantile.0.025(R): 0.883476628833" role="graphics-symbol" aria-roledescription="errorbar" transform="translate(165.36136681946755,430)" x2="95.92686827275219" y2="0" stroke="blue" stroke-width="0.6"></line><line aria-label="CI 0.975: 0.920512772539; upper_Quantile.0.025(R): 1.04133670825; index: RJ; Quantile.0.975(R): 1.04133670825; Quantile.0.025(R): 0.920512772539" role="graphics-symbol" aria-roledescription="errorbar" transform="translate(186.96578398083807,370)" x2="70.48062916722427" y2="0" stroke="blue" stroke-width="0.6"></line><line aria-label="CI 0.975: 1.00103108971; upper_Quantile.0.025(R): 1.05607858288; index: SP; Quantile.0.975(R): 1.05607858288; Quantile.0.025(R): 1.00103108971" role="graphics-symbol" aria-roledescription="errorbar" transform="translate(233.93480232981904,510)" x2="32.11103768070586" y2="0" stroke="blue" stroke-width="0.6"></line><line aria-label="CI 0.975: 1.03881041587; upper_Quantile.0.025(R): 1.16386577224; index: SC; Quantile.0.975(R): 1.16386577224; Quantile.0.025(R): 1.03881041587" role="graphics-symbol" aria-roledescription="errorbar" transform="translate(255.97274259139206,470)" x2="72.94895788479059" y2="0" stroke="blue" stroke-width="0.6"></line><line aria-label="CI 0.975: 1.0718578875; upper_Quantile.0.025(R): 1.1603424825; index: AM; Quantile.0.975(R): 1.1603424825; Quantile.0.025(R): 1.0718578875" role="graphics-symbol" aria-roledescription="errorbar" transform="translate(275.2504343772672,50)" x2="51.61601374602492" y2="0" stroke="blue" stroke-width="0.6"></line><line aria-label="CI 0.975: 1.06064449266; upper_Quantile.0.025(R): 1.1785172775; index: ES; Quantile.0.975(R): 1.1785172775; Quantile.0.025(R): 1.06064449266" role="graphics-symbol" aria-roledescription="errorbar" transform="translate(268.70928738562236,150)" x2="68.75912449065453" y2="0" stroke="blue" stroke-width="0.6"></line><line aria-label="CI 0.975: 1.0632140454; upper_Quantile.0.025(R): 1.26613652108; index: TO; Quantile.0.975(R): 1.26613652108; Quantile.0.025(R): 1.0632140454" role="graphics-symbol" aria-roledescription="errorbar" transform="translate(270.2081931484738,530)" x2="118.37144414527626" y2="0" stroke="blue" stroke-width="0.6"></line><line aria-label="CI 0.975: 1.10511866818; upper_Quantile.0.025(R): 1.2694650735; index: PI; Quantile.0.975(R): 1.2694650735; Quantile.0.025(R): 1.10511866818" role="graphics-symbol" aria-roledescription="errorbar" transform="translate(294.6525564385437,330)" x2="95.86873643584806" y2="0" stroke="blue" stroke-width="0.6"></line><line aria-label="CI 0.975: 1.10527075816; upper_Quantile.0.025(R): 1.28335648389; index: GO; Quantile.0.975(R): 1.28335648389; Quantile.0.025(R): 1.10527075816" role="graphics-symbol" aria-roledescription="errorbar" transform="translate(294.7412755923331,170)" x2="103.88334001284858" y2="0" stroke="blue" stroke-width="0.6"></line><line aria-label="CI 0.975: 1.12387930237; upper_Quantile.0.025(R): 1.30381632748; index: RN; Quantile.0.975(R): 1.30381632748; Quantile.0.025(R): 1.12387930237" role="graphics-symbol" aria-roledescription="errorbar" transform="translate(305.59625971308867,390)" x2="104.96326464877296" y2="0" stroke="blue" stroke-width="0.6"></line><line aria-label="CI 0.975: 1.16723209319; upper_Quantile.0.025(R): 1.30596955546; index: DF; Quantile.0.975(R): 1.30596955546; Quantile.0.025(R): 1.16723209319" role="graphics-symbol" aria-roledescription="errorbar" transform="translate(330.8853876965977,130)" x2="80.93018631902999" y2="0" stroke="blue" stroke-width="0.6"></line><line aria-label="CI 0.975: 1.18247888959; upper_Quantile.0.025(R): 1.41340108051; index: RO; Quantile.0.975(R): 1.41340108051; Quantile.0.025(R): 1.18247888959" role="graphics-symbol" aria-roledescription="errorbar" transform="translate(339.77935226152397,410)" x2="134.70461136662317" y2="0" stroke="blue" stroke-width="0.6"></line><line aria-label="CI 0.975: 1.2496235962; upper_Quantile.0.025(R): 1.45993202395; index: PA; Quantile.0.975(R): 1.45993202395; Quantile.0.025(R): 1.2496235962" role="graphics-symbol" aria-roledescription="errorbar" transform="translate(378.947097781168,270)" x2="122.67991618866898" y2="0" stroke="blue" stroke-width="0.6"></line><line aria-label="CI 0.975: 1.22598369751; upper_Quantile.0.025(R): 1.52498346786; index: PR; Quantile.0.975(R): 1.52498346786; Quantile.0.025(R): 1.22598369751" role="graphics-symbol" aria-roledescription="errorbar" transform="translate(365.15715687913445,350)" x2="174.4165327055129" y2="0" stroke="blue" stroke-width="0.6"></line><line aria-label="CI 0.975: 1.24852853851; upper_Quantile.0.025(R): 1.65484721944; index: AC; Quantile.0.975(R): 1.65484721944; Quantile.0.025(R): 1.24852853851" role="graphics-symbol" aria-roledescription="errorbar" transform="translate(378.30831413299893,10)" x2="237.01923054188194" y2="0" stroke="blue" stroke-width="0.6"></line><line aria-label="CI 0.975: 1.34440506994; upper_Quantile.0.025(R): 1.51450279874; index: PB; Quantile.0.975(R): 1.51450279874; Quantile.0.025(R): 1.34440506994" role="graphics-symbol" aria-roledescription="errorbar" transform="translate(434.2362908011343,290)" x2="99.22367513201067" y2="0" stroke="blue" stroke-width="0.6"></line><line aria-label="CI 0.975: 1.30776744936; upper_Quantile.0.025(R): 1.60205156835; index: MG; Quantile.0.975(R): 1.60205156835; Quantile.0.025(R): 1.30776744936" role="graphics-symbol" aria-roledescription="errorbar" transform="translate(412.8643454618185,210)" x2="171.6657360748427" y2="0" stroke="blue" stroke-width="0.6"></line><line aria-label="CI 0.975: 1.33277123004; upper_Quantile.0.025(R): 1.62155304111; index: AL; Quantile.0.975(R): 1.62155304111; Quantile.0.025(R): 1.33277123004" role="graphics-symbol" aria-roledescription="errorbar" transform="translate(427.4498841880839,30)" x2="168.45605645758206" y2="0" stroke="blue" stroke-width="0.6"></line><line aria-label="CI 0.975: 1.33835389544; upper_Quantile.0.025(R): 1.6499194275; index: AP; Quantile.0.975(R): 1.6499194275; Quantile.0.025(R): 1.33835389544" role="graphics-symbol" aria-roledescription="errorbar" transform="translate(430.70643900810506,70)" x2="181.74656036448818" y2="0" stroke="blue" stroke-width="0.6"></line><line aria-label="CI 0.975: 1.3342326625; upper_Quantile.0.025(R): 1.6795969518; index: MA; Quantile.0.975(R): 1.6795969518; Quantile.0.025(R): 1.3342326625" role="graphics-symbol" aria-roledescription="errorbar" transform="translate(428.302386460267,190)" x2="201.46250209099622" y2="0" stroke="blue" stroke-width="0.6"></line><line aria-label="CI 0.975: 1.29847308177; upper_Quantile.0.025(R): 1.71948404406; index: MS; Quantile.0.975(R): 1.71948404406; Quantile.0.025(R): 1.29847308177" role="graphics-symbol" aria-roledescription="errorbar" transform="translate(407.44263103385674,230)" x2="245.58972800031165" y2="0" stroke="blue" stroke-width="0.6"></line><line aria-label="CI 0.975: 1.44314365718; upper_Quantile.0.025(R): 1.78921331393; index: MT; Quantile.0.975(R): 1.78921331393; Quantile.0.025(R): 1.44314365718" role="graphics-symbol" aria-roledescription="errorbar" transform="translate(491.83380002359297,250)" x2="201.8739664337703" y2="0" stroke="blue" stroke-width="0.6"></line></g><g class="mark-group role-title"><g transform="translate(350,-17.2)"><path class="background" aria-hidden="true" d="M0,0h0v0h0Z" pointer-events="none"></path><g><g class="mark-text role-title-text" role="graphics-symbol" aria-roledescription="title" aria-label="Title text 'Instantaneous reproduction number estimate for all states in Brazil'" pointer-events="none"><text text-anchor="middle" transform="translate(0,10)" font-family="sans-serif" font-size="13px" font-weight="bold" fill="#000" opacity="1">Instantaneous reproduction number estimate for all states in Brazil</text></g></g><path class="foreground" aria-hidden="true" d="" pointer-events="none" display="none"></path></g></g></g><path class="foreground" aria-hidden="true" d="" display="none"></path></g></g></g></svg>