<svg class="marks" width="749" height="600" viewBox="0 0 749 600" version="1.1" xmlns="http://www.w3.org/2000/svg" xmlns:xlink="http://www.w3.org/1999/xlink"><rect width="749" height="600" fill="white"></rect><g fill="none" stroke-miterlimit="10" transform="translate(43,23)"><g class="mark-group role-frame root" role="graphics-object" aria-roledescription="group mark container"><g transform="translate(0,0)"><path class="background" aria-hidden="true" d="M0.5,0.5h700v540h-700Z"></path><g><g class="mark-group role-axis" aria-hidden="true"><g transform="translate(0.5,0.5)"><path class="background" aria-hidden="true" d="M0,0h0v0h0Z" pointer-events="none"></path><g><g class="mark-rule role-axis-grid" pointer-events="none"><line transform="translate(0,10)" x2="700" y2="0" stroke="#ddd" stroke-width="1" opacity="1"></line><line transform="translate(0,30)" x2="700" y2="0" stroke="#ddd" stroke-width="1" opacity="1"></line><line transform="translate(0,50)" x2="700" y2="0" stroke="#ddd" stroke-width="1" opacity="1"></line><line transform="translate(0,70)" x2="700" y2="0" stroke="#ddd" stroke-width="1" opacity="1"></line><line transform="translate(0,90)" x2="700" y2="0" stroke="#ddd" stroke-width="1" opacity="1"></line><line transform="translate(0,110)" x2="700" y2="0" stroke="#ddd" stroke-width="1" opacity="1"></line><line transform="translate(0,130)" x2="700" y2="0" stroke="#ddd" stroke-width="1" opacity="1"></line><line transform="translate(0,150)" x2="700" y2="0" stroke="#ddd" stroke-width="1" opacity="1"></line><line transform="translate(0,170)" x2="700" y2="0" stroke="#ddd" stroke-width="1" opacity="1"></line><line transform="translate(0,190)" x2="700" y2="0" stroke="#ddd" stroke-width="1" opacity="1"></line><line transform="translate(0,210)" x2="700" y2="0" stroke="#ddd" stroke-width="1" opacity="1"></line><line transform="translate(0,230)" x2="700" y2="0" stroke="#ddd" stroke-width="1" opacity="1"></line><line transform="translate(0,250)" x2="700" y2="0" stroke="#ddd" stroke-width="1" opacity="1"></line><line transform="translate(0,270)" x2="700" y2="0" stroke="#ddd" stroke-width="1" opacity="1"></line><line transform="translate(0,290)" x2="700" y2="0" stroke="#ddd" stroke-width="1" opacity="1"></line><line transform="translate(0,310)" x2="700" y2="0" stroke="#ddd" stroke-width="1" opacity="1"></line><line transform="translate(0,330)" x2="700" y2="0" stroke="#ddd" stroke-width="1" opacity="1"></line><line transform="translate(0,350)" x2="700" y2="0" stroke="#ddd" stroke-width="1" opacity="1"></line><line transform="translate(0,370)" x2="700" y2="0" stroke="#ddd" stroke-width="1" opacity="1"></line><line transform="translate(0,390)" x2="700" y2="0" stroke="#ddd" stroke-width="1" opacity="1"></line><line transform="translate(0,410)" x2="700" y2="0" stroke="#ddd" stroke-width="1" opacity="1"></line><line transform="translate(0,430)" x2="700" y2="0" stroke="#ddd" stroke-width="1" opacity="1"></line><line transform="translate(0,450)" x2="700" y2="0" stroke="#ddd" stroke-width="1" opacity="1"></line><line transform="translate(0,470)" x2="700" y2="0" stroke="#ddd" stroke-width="1" opacity="1"></line><line transform="translate(0,490)" x2="700" y2="0" stroke="#ddd" stroke-width="1" opacity="1"></line><line transform="translate(0,510)" x2="700" y2="0" stroke="#ddd" stroke-width="1" opacity="1"></line><line transform="translate(0,530)" x2="700" y2="0" stroke="#ddd" stroke-width="1" opacity="1"></line></g></g><path class="foreground" aria-hidden="true" d="" pointer-events="none" display="none"></path></g></g><g class="mark-group role-axis" role="graphics-symbol" aria-roledescription="axis" aria-label="X-axis titled 'Instantaneous reproduction number R(t), CI 0.975' for a linear scale with values from 0.3 to 1.4"><g transform="translate(0.5,540.5)"><path class="background" aria-hidden="true" d="M0,0h0v0h0Z" pointer-events="none"></path><g><g class="mark-rule role-axis-tick" pointer-events="none"><line transform="translate(0,0)" x2="0" y2="5" stroke="#888" stroke-width="1" opacity="1"></line><line transform="translate(32,0)" x2="0" y2="5" stroke="#888" stroke-width="1" opacity="1"></line><line transform="translate(64,0)" x2="0" y2="5" stroke="#888" stroke-width="1" opacity="1"></line><line transform="translate(95,0)" x2="0" y2="5" stroke="#888" stroke-width="1" opacity="1"></line><line transform="translate(127,0)" x2="0" y2="5" stroke="#888" stroke-width="1" opacity="1"></line><line transform="translate(159,0)" x2="0" y2="5" stroke="#888" stroke-width="1" opacity="1"></line><line transform="translate(191,0)" x2="0" y2="5" stroke="#888" stroke-width="1" opacity="1"></line><line transform="translate(223,0)" x2="0" y2="5" stroke="#888" stroke-width="1" opacity="1"></line><line transform="translate(255,0)" x2="0" y2="5" stroke="#888" stroke-width="1" opacity="1"></line><line transform="translate(286,0)" x2="0" y2="5" stroke="#888" stroke-width="1" opacity="1"></line><line transform="translate(318,0)" x2="0" y2="5" stroke="#888" stroke-width="1" opacity="1"></line><line transform="translate(350,0)" x2="0" y2="5" stroke="#888" stroke-width="1" opacity="1"></line><line transform="translate(382,0)" x2="0" y2="5" stroke="#888" stroke-width="1" opacity="1"></line><line transform="translate(414,0)" x2="0" y2="5" stroke="#888" stroke-width="1" opacity="1"></line><line transform="translate(445,0)" x2="0" y2="5" stroke="#888" stroke-width="1" opacity="1"></line><line transform="translate(477,0)" x2="0" y2="5" stroke="#888" stroke-width="1" opacity="1"></line><line transform="translate(509,0)" x2="0" y2="5" stroke="#888" stroke-width="1" opacity="1"></line><line transform="translate(541,0)" x2="0" y2="5" stroke="#888" stroke-width="1" opacity="1"></line><line transform="translate(573,0)" x2="0" y2="5" stroke="#888" stroke-width="1" opacity="1"></line><line transform="translate(605,0)" x2="0" y2="5" stroke="#888" stroke-width="1" opacity="1"></line><line transform="translate(636,0)" x2="0" y2="5" stroke="#888" stroke-width="1" opacity="1"></line><line transform="translate(668,0)" x2="0" y2="5" stroke="#888" stroke-width="1" opacity="1"></line><line transform="translate(700,0)" x2="0" y2="5" stroke="#888" stroke-width="1" opacity="1"></line></g><g class="mark-text role-axis-label" pointer-events="none"><text text-anchor="start" transform="translate(0,15)" font-family="sans-serif" font-size="10px" fill="#000" opacity="1">0.30</text><text text-anchor="middle" transform="translate(31.818181818181813,15)" font-family="sans-serif" font-size="10px" fill="#000" opacity="1">0.35</text><text text-anchor="middle" transform="translate(63.63636363636367,15)" font-family="sans-serif" font-size="10px" fill="#000" opacity="1">0.40</text><text text-anchor="middle" transform="translate(95.45454545454548,15)" font-family="sans-serif" font-size="10px" fill="#000" opacity="1">0.45</text><text text-anchor="middle" transform="translate(127.2727272727273,15)" font-family="sans-serif" font-size="10px" fill="#000" opacity="1">0.50</text><text text-anchor="middle" transform="translate(159.09090909090915,15)" font-family="sans-serif" font-size="10px" fill="#000" opacity="1">0.55</text><text text-anchor="middle" transform="translate(190.90909090909093,15)" font-family="sans-serif" font-size="10px" fill="#000" opacity="1">0.60</text><text text-anchor="middle" transform="translate(222.72727272727278,15)" font-family="sans-serif" font-size="10px" fill="#000" opacity="1">0.65</text><text text-anchor="middle" transform="translate(254.54545454545456,15)" font-family="sans-serif" font-size="10px" fill="#000" opacity="1">0.70</text><text text-anchor="middle" transform="translate(286.36363636363643,15)" font-family="sans-serif" font-size="10px" fill="#000" opacity="1">0.75</text><text text-anchor="middle" transform="translate(318.1818181818182,15)" font-family="sans-serif" font-size="10px" fill="#000" opacity="1">0.80</text><text text-anchor="middle" transform="translate(350.00000000000006,15)" font-family="sans-serif" font-size="10px" fill="#000" opacity="1">0.85</text><text text-anchor="middle" transform="translate(381.8181818181819,15)" font-family="sans-serif" font-size="10px" fill="#000" opacity="1">0.90</text><text text-anchor="middle" transform="translate(413.6363636363637,15)" font-family="sans-serif" font-size="10px" fill="#000" opacity="1">0.95</text><text text-anchor="middle" transform="translate(445.45454545454544,15)" font-family="sans-serif" font-size="10px" fill="#000" opacity="1">1.00</text><text text-anchor="middle" transform="translate(477.2727272727273,15)" font-family="sans-serif" font-size="10px" fill="#000" opacity="1">1.05</text><text text-anchor="middle" transform="translate(509.0909090909092,15)" font-family="sans-serif" font-size="10px" fill="#000" opacity="1">1.10</text><text text-anchor="middle" transform="translate(540.9090909090909,15)" font-family="sans-serif" font-size="10px" fill="#000" opacity="1">1.15</text><text text-anchor="middle" transform="translate(572.7272727272727,15)" font-family="sans-serif" font-size="10px" fill="#000" opacity="1">1.20</text><text text-anchor="middle" transform="translate(604.5454545454545,15)" font-family="sans-serif" font-size="10px" fill="#000" opacity="1">1.25</text><text text-anchor="middle" transform="translate(636.3636363636364,15)" font-family="sans-serif" font-size="10px" fill="#000" opacity="1">1.30</text><text text-anchor="middle" transform="translate(668.1818181818182,15)" font-family="sans-serif" font-size="10px" fill="#000" opacity="1">1.35</text><text text-anchor="end" transform="translate(700,15)" font-family="sans-serif" font-size="10px" fill="#000" opacity="1">1.40</text></g><g class="mark-rule role-axis-domain" pointer-events="none"><line transform="translate(0,0)" x2="700" y2="0" stroke="#888" stroke-width="1" opacity="1"></line></g><g class="mark-text role-axis-title" pointer-events="none"><text text-anchor="middle" transform="translate(350,30)" font-family="sans-serif" font-size="11px" font-weight="bold" fill="#000" opacity="1">Instantaneous reproduction number R(t), CI 0.975</text></g></g><path class="foreground" aria-hidden="true" d="" pointer-events="none" display="none"></path></g></g><g class="mark-group role-axis" role="graphics-symbol" aria-roledescription="axis" aria-label="Y-axis titled 'States' for a discrete scale with 27 values: AC, AL, AM, AP, BA, ending with TO"><g transform="translate(0.5,0.5)"><path class="background" aria-hidden="true" d="M0,0h0v0h0Z" pointer-events="none"></path><g><g class="mark-rule role-axis-tick" pointer-events="none"><line transform="translate(0,10)" x2="-5" y2="0" stroke="#888" stroke-width="1" opacity="1"></line><line transform="translate(0,30)" x2="-5" y2="0" stroke="#888" stroke-width="1" opacity="1"></line><line transform="translate(0,50)" x2="-5" y2="0" stroke="#888" stroke-width="1" opacity="1"></line><line transform="translate(0,70)" x2="-5" y2="0" stroke="#888" stroke-width="1" opacity="1"></line><line transform="translate(0,90)" x2="-5" y2="0" stroke="#888" stroke-width="1" opacity="1"></line><line transform="translate(0,110)" x2="-5" y2="0" stroke="#888" stroke-width="1" opacity="1"></line><line transform="translate(0,130)" x2="-5" y2="0" stroke="#888" stroke-width="1" opacity="1"></line><line transform="translate(0,150)" x2="-5" y2="0" stroke="#888" stroke-width="1" opacity="1"></line><line transform="translate(0,170)" x2="-5" y2="0" stroke="#888" stroke-width="1" opacity="1"></line><line transform="translate(0,190)" x2="-5" y2="0" stroke="#888" stroke-width="1" opacity="1"></line><line transform="translate(0,210)" x2="-5" y2="0" stroke="#888" stroke-width="1" opacity="1"></line><line transform="translate(0,230)" x2="-5" y2="0" stroke="#888" stroke-width="1" opacity="1"></line><line transform="translate(0,250)" x2="-5" y2="0" stroke="#888" stroke-width="1" opacity="1"></line><line transform="translate(0,270)" x2="-5" y2="0" stroke="#888" stroke-width="1" opacity="1"></line><line transform="translate(0,290)" x2="-5" y2="0" stroke="#888" stroke-width="1" opacity="1"></line><line transform="translate(0,310)" x2="-5" y2="0" stroke="#888" stroke-width="1" opacity="1"></line><line transform="translate(0,330)" x2="-5" y2="0" stroke="#888" stroke-width="1" opacity="1"></line><line transform="translate(0,350)" x2="-5" y2="0" stroke="#888" stroke-width="1" opacity="1"></line><line transform="translate(0,370)" x2="-5" y2="0" stroke="#888" stroke-width="1" opacity="1"></line><line transform="translate(0,390)" x2="-5" y2="0" stroke="#888" stroke-width="1" opacity="1"></line><line transform="translate(0,410)" x2="-5" y2="0" stroke="#888" stroke-width="1" opacity="1"></line><line transform="translate(0,430)" x2="-5" y2="0" stroke="#888" stroke-width="1" opacity="1"></line><line transform="translate(0,450)" x2="-5" y2="0" stroke="#888" stroke-width="1" opacity="1"></line><line transform="translate(0,470)" x2="-5" y2="0" stroke="#888" stroke-width="1" opacity="1"></line><line transform="translate(0,490)" x2="-5" y2="0" stroke="#888" stroke-width="1" opacity="1"></line><line transform="translate(0,510)" x2="-5" y2="0" stroke="#888" stroke-width="1" opacity="1"></line><line transform="translate(0,530)" x2="-5" y2="0" stroke="#888" stroke-width="1" opacity="1"></line></g><g class="mark-text role-axis-label" pointer-events="none"><text text-anchor="end" transform="translate(-7,12.5)" font-family="sans-serif" font-size="10px" fill="#000" opacity="1">AC</text><text text-anchor="end" transform="translate(-7,32.5)" font-family="sans-serif" font-size="10px" fill="#000" opacity="1">AL</text><text text-anchor="end" transform="translate(-7,52.5)" font-family="sans-serif" font-size="10px" fill="#000" opacity="1">AM</text><text text-anchor="end" transform="translate(-7,72.5)" font-family="sans-serif" font-size="10px" fill="#000" opacity="1">AP</text><text text-anchor="end" transform="translate(-7,92.5)" font-family="sans-serif" font-size="10px" fill="#000" opacity="1">BA</text><text text-anchor="end" transform="translate(-7,112.5)" font-family="sans-serif" font-size="10px" fill="#000" opacity="1">CE</text><text text-anchor="end" transform="translate(-7,132.5)" font-family="sans-serif" font-size="10px" fill="#000" opacity="1">DF</text><text text-anchor="end" transform="translate(-7,152.5)" font-family="sans-serif" font-size="10px" fill="#000" opacity="1">ES</text><text text-anchor="end" transform="translate(-7,172.5)" font-family="sans-serif" font-size="10px" fill="#000" opacity="1">GO</text><text text-anchor="end" transform="translate(-7,192.5)" font-family="sans-serif" font-size="10px" fill="#000" opacity="1">MA</text><text text-anchor="end" transform="translate(-7,212.5)" font-family="sans-serif" font-size="10px" fill="#000" opacity="1">MG</text><text text-anchor="end" transform="translate(-7,232.5)" font-family="sans-serif" font-size="10px" fill="#000" opacity="1">MS</text><text text-anchor="end" transform="translate(-7,252.5)" font-family="sans-serif" font-size="10px" fill="#000" opacity="1">MT</text><text text-anchor="end" transform="translate(-7,272.5)" font-family="sans-serif" font-size="10px" fill="#000" opacity="1">PA</text><text text-anchor="end" transform="translate(-7,292.5)" font-family="sans-serif" font-size="10px" fill="#000" opacity="1">PB</text><text text-anchor="end" transform="translate(-7,312.5)" font-family="sans-serif" font-size="10px" fill="#000" opacity="1">PE</text><text text-anchor="end" transform="translate(-7,332.5)" font-family="sans-serif" font-size="10px" fill="#000" opacity="1">PI</text><text text-anchor="end" transform="translate(-7,352.5)" font-family="sans-serif" font-size="10px" fill="#000" opacity="1">PR</text><text text-anchor="end" transform="translate(-7,372.5)" font-family="sans-serif" font-size="10px" fill="#000" opacity="1">RJ</text><text text-anchor="end" transform="translate(-7,392.5)" font-family="sans-serif" font-size="10px" fill="#000" opacity="1">RN</text><text text-anchor="end" transform="translate(-7,412.5)" font-family="sans-serif" font-size="10px" fill="#000" opacity="1">RO</text><text text-anchor="end" transform="translate(-7,432.5)" font-family="sans-serif" font-size="10px" fill="#000" opacity="1">RR</text><text text-anchor="end" transform="translate(-7,452.5)" font-family="sans-serif" font-size="10px" fill="#000" opacity="1">RS</text><text text-anchor="end" transform="translate(-7,472.5)" font-family="sans-serif" font-size="10px" fill="#000" opacity="1">SC</text><text text-anchor="end" transform="translate(-7,492.5)" font-family="sans-serif" font-size="10px" fill="#000" opacity="1">SE</text><text text-anchor="end" transform="translate(-7,512.5)" font-family="sans-serif" font-size="10px" fill="#000" opacity="1">SP</text><text text-anchor="end" transform="translate(-7,532.5)" font-family="sans-serif" font-size="10px" fill="#000" opacity="1">TO</text></g><g class="mark-rule role-axis-domain" pointer-events="none"><line transform="translate(0,0)" x2="0" y2="540" stroke="#888" stroke-width="1" opacity="1"></line></g><g class="mark-text role-axis-title" pointer-events="none"><text text-anchor="middle" transform="translate(-27,270) rotate(-90) translate(0,-2)" font-family="sans-serif" font-size="11px" font-weight="bold" fill="#000" opacity="1">States</text></g></g><path class="foreground" aria-hidden="true" d="" pointer-events="none" display="none"></path></g></g><g class="mark-symbol role-mark layer_0_marks" role="graphics-object" aria-roledescription="symbol mark container"><path aria-label="Instantaneous reproduction number R(t): 0.424095524273; States: RN" role="graphics-symbol" aria-roledescription="point" transform="translate(78.96987908296381,390)" d="M2.7386127875258306,0A2.7386127875258306,2.7386127875258306,0,1,1,-2.7386127875258306,0A2.7386127875258306,2.7386127875258306,0,1,1,2.7386127875258306,0" stroke="#4c78a8" stroke-width="2" opacity="0.7"></path><path aria-label="Instantaneous reproduction number R(t): 0.839160136748; States: AL" role="graphics-symbol" aria-roledescription="point" transform="translate(343.1019052034971,30)" d="M2.7386127875258306,0A2.7386127875258306,2.7386127875258306,0,1,1,-2.7386127875258306,0A2.7386127875258306,2.7386127875258306,0,1,1,2.7386127875258306,0" stroke="#4c78a8" stroke-width="2" opacity="0.7"></path><path aria-label="Instantaneous reproduction number R(t): 0.848165133304; States: MT" role="graphics-symbol" aria-roledescription="point" transform="translate(348.8323575569159,250)" d="M2.7386127875258306,0A2.7386127875258306,2.7386127875258306,0,1,1,-2.7386127875258306,0A2.7386127875258306,2.7386127875258306,0,1,1,2.7386127875258306,0" stroke="#4c78a8" stroke-width="2" opacity="0.7"></path><path aria-label="Instantaneous reproduction number R(t): 0.865063439314; States: SE" role="graphics-symbol" aria-roledescription="point" transform="translate(359.5858250179371,490)" d="M2.7386127875258306,0A2.7386127875258306,2.7386127875258306,0,1,1,-2.7386127875258306,0A2.7386127875258306,2.7386127875258306,0,1,1,2.7386127875258306,0" stroke="#4c78a8" stroke-width="2" opacity="0.7"></path><path aria-label="Instantaneous reproduction number R(t): 0.870425341527; States: CE" role="graphics-symbol" aria-roledescription="point" transform="translate(362.9979446082297,110)" d="M2.7386127875258306,0A2.7386127875258306,2.7386127875258306,0,1,1,-2.7386127875258306,0A2.7386127875258306,2.7386127875258306,0,1,1,2.7386127875258306,0" stroke="#4c78a8" stroke-width="2" opacity="0.7"></path><path aria-label="Instantaneous reproduction number R(t): 0.879415988678; States: RR" role="graphics-symbol" aria-roledescription="point" transform="translate(368.7192655221544,430)" d="M2.7386127875258306,0A2.7386127875258306,2.7386127875258306,0,1,1,-2.7386127875258306,0A2.7386127875258306,2.7386127875258306,0,1,1,2.7386127875258306,0" stroke="#4c78a8" stroke-width="2" opacity="0.7"></path><path aria-label="Instantaneous reproduction number R(t): 0.904420249233; States: SP" role="graphics-symbol" aria-roledescription="point" transform="translate(384.6310676940291,510)" d="M2.7386127875258306,0A2.7386127875258306,2.7386127875258306,0,1,1,-2.7386127875258306,0A2.7386127875258306,2.7386127875258306,0,1,1,2.7386127875258306,0" stroke="#4c78a8" stroke-width="2" opacity="0.7"></path><path aria-label="Instantaneous reproduction number R(t): 0.911141874865; States: SC" role="graphics-symbol" aria-roledescription="point" transform="translate(388.9084658229473,470)" d="M2.7386127875258306,0A2.7386127875258306,2.7386127875258306,0,1,1,-2.7386127875258306,0A2.7386127875258306,2.7386127875258306,0,1,1,2.7386127875258306,0" stroke="#4c78a8" stroke-width="2" opacity="0.7"></path><path aria-label="Instantaneous reproduction number R(t): 0.912282166278; States: PR" role="graphics-symbol" aria-roledescription="point" transform="translate(389.63410581333085,350)" d="M2.7386127875258306,0A2.7386127875258306,2.7386127875258306,0,1,1,-2.7386127875258306,0A2.7386127875258306,2.7386127875258306,0,1,1,2.7386127875258306,0" stroke="#4c78a8" stroke-width="2" opacity="0.7"></path><path aria-label="Instantaneous reproduction number R(t): 0.934130730037; States: ES" role="graphics-symbol" aria-roledescription="point" transform="translate(403.5377372965508,150)" d="M2.7386127875258306,0A2.7386127875258306,2.7386127875258306,0,1,1,-2.7386127875258306,0A2.7386127875258306,2.7386127875258306,0,1,1,2.7386127875258306,0" stroke="#4c78a8" stroke-width="2" opacity="0.7"></path><path aria-label="Instantaneous reproduction number R(t): 0.937842682243; States: RO" role="graphics-symbol" aria-roledescription="point" transform="translate(405.89988870027486,410)" d="M2.7386127875258306,0A2.7386127875258306,2.7386127875258306,0,1,1,-2.7386127875258306,0A2.7386127875258306,2.7386127875258306,0,1,1,2.7386127875258306,0" stroke="#4c78a8" stroke-width="2" opacity="0.7"></path><path aria-label="Instantaneous reproduction number R(t): 0.939301078878; States: PI" role="graphics-symbol" aria-roledescription="point" transform="translate(406.82795928620567,330)" d="M2.7386127875258306,0A2.7386127875258306,2.7386127875258306,0,1,1,-2.7386127875258306,0A2.7386127875258306,2.7386127875258306,0,1,1,2.7386127875258306,0" stroke="#4c78a8" stroke-width="2" opacity="0.7"></path><path aria-label="Instantaneous reproduction number R(t): 0.942687357067; States: BA" role="graphics-symbol" aria-roledescription="point" transform="translate(408.98286358818734,90)" d="M2.7386127875258306,0A2.7386127875258306,2.7386127875258306,0,1,1,-2.7386127875258306,0A2.7386127875258306,2.7386127875258306,0,1,1,2.7386127875258306,0" stroke="#4c78a8" stroke-width="2" opacity="0.7"></path><path aria-label="Instantaneous reproduction number R(t): 0.951020689401; States: PB" role="graphics-symbol" aria-roledescription="point" transform="translate(414.2858932554814,290)" d="M2.7386127875258306,0A2.7386127875258306,2.7386127875258306,0,1,1,-2.7386127875258306,0A2.7386127875258306,2.7386127875258306,0,1,1,2.7386127875258306,0" stroke="#4c78a8" stroke-width="2" opacity="0.7"></path><path aria-label="Instantaneous reproduction number R(t): 0.954487025374; States: DF" role="graphics-symbol" aria-roledescription="point" transform="translate(416.4917434196504,130)" d="M2.7386127875258306,0A2.7386127875258306,2.7386127875258306,0,1,1,-2.7386127875258306,0A2.7386127875258306,2.7386127875258306,0,1,1,2.7386127875258306,0" stroke="#4c78a8" stroke-width="2" opacity="0.7"></path><path aria-label="Instantaneous reproduction number R(t): 0.956130174468; States: AM" role="graphics-symbol" aria-roledescription="point" transform="translate(417.53738375209315,50)" d="M2.7386127875258306,0A2.7386127875258306,2.7386127875258306,0,1,1,-2.7386127875258306,0A2.7386127875258306,2.7386127875258306,0,1,1,2.7386127875258306,0" stroke="#4c78a8" stroke-width="2" opacity="0.7"></path><path aria-label="Instantaneous reproduction number R(t): 0.982737220732; States: GO" role="graphics-symbol" aria-roledescription="point" transform="translate(434.4691404659455,170)" d="M2.7386127875258306,0A2.7386127875258306,2.7386127875258306,0,1,1,-2.7386127875258306,0A2.7386127875258306,2.7386127875258306,0,1,1,2.7386127875258306,0" stroke="#4c78a8" stroke-width="2" opacity="0.7"></path><path aria-label="Instantaneous reproduction number R(t): 0.985511851482; States: PA" role="graphics-symbol" aria-roledescription="point" transform="translate(436.23481457932854,270)" d="M2.7386127875258306,0A2.7386127875258306,2.7386127875258306,0,1,1,-2.7386127875258306,0A2.7386127875258306,2.7386127875258306,0,1,1,2.7386127875258306,0" stroke="#4c78a8" stroke-width="2" opacity="0.7"></path><path aria-label="Instantaneous reproduction number R(t): 0.989026294926; States: MG" role="graphics-symbol" aria-roledescription="point" transform="translate(438.47127858955355,210)" d="M2.7386127875258306,0A2.7386127875258306,2.7386127875258306,0,1,1,-2.7386127875258306,0A2.7386127875258306,2.7386127875258306,0,1,1,2.7386127875258306,0" stroke="#4c78a8" stroke-width="2" opacity="0.7"></path><path aria-label="Instantaneous reproduction number R(t): 0.993799702584; States: RS" role="graphics-symbol" aria-roledescription="point" transform="translate(441.50890164454535,450)" d="M2.7386127875258306,0A2.7386127875258306,2.7386127875258306,0,1,1,-2.7386127875258306,0A2.7386127875258306,2.7386127875258306,0,1,1,2.7386127875258306,0" stroke="#4c78a8" stroke-width="2" opacity="0.7"></path><path aria-label="Instantaneous reproduction number R(t): 1.02997145861; States: PE" role="graphics-symbol" aria-roledescription="point" transform="translate(464.5272918431201,310)" d="M2.7386127875258306,0A2.7386127875258306,2.7386127875258306,0,1,1,-2.7386127875258306,0A2.7386127875258306,2.7386127875258306,0,1,1,2.7386127875258306,0" stroke="#4c78a8" stroke-width="2" opacity="0.7"></path><path aria-label="Instantaneous reproduction number R(t): 1.03535295789; States: MA" role="graphics-symbol" aria-roledescription="point" transform="translate(467.95188229094987,190)" d="M2.7386127875258306,0A2.7386127875258306,2.7386127875258306,0,1,1,-2.7386127875258306,0A2.7386127875258306,2.7386127875258306,0,1,1,2.7386127875258306,0" stroke="#4c78a8" stroke-width="2" opacity="0.7"></path><path aria-label="Instantaneous reproduction number R(t): 1.04251136913; States: AP" role="graphics-symbol" aria-roledescription="point" transform="translate(472.50723489991964,70)" d="M2.7386127875258306,0A2.7386127875258306,2.7386127875258306,0,1,1,-2.7386127875258306,0A2.7386127875258306,2.7386127875258306,0,1,1,2.7386127875258306,0" stroke="#4c78a8" stroke-width="2" opacity="0.7"></path><path aria-label="Instantaneous reproduction number R(t): 1.06826403861; States: MS" role="graphics-symbol" aria-roledescription="point" transform="translate(488.89529729854047,230)" d="M2.7386127875258306,0A2.7386127875258306,2.7386127875258306,0,1,1,-2.7386127875258306,0A2.7386127875258306,2.7386127875258306,0,1,1,2.7386127875258306,0" stroke="#4c78a8" stroke-width="2" opacity="0.7"></path><path aria-label="Instantaneous reproduction number R(t): 1.07586403104; States: AC" role="graphics-symbol" aria-roledescription="point" transform="translate(493.7316561193684,10)" d="M2.7386127875258306,0A2.7386127875258306,2.7386127875258306,0,1,1,-2.7386127875258306,0A2.7386127875258306,2.7386127875258306,0,1,1,2.7386127875258306,0" stroke="#4c78a8" stroke-width="2" opacity="0.7"></path><path aria-label="Instantaneous reproduction number R(t): 1.13712687882; States: TO" role="graphics-symbol" aria-roledescription="point" transform="translate(532.7171047060683,530)" d="M2.7386127875258306,0A2.7386127875258306,2.7386127875258306,0,1,1,-2.7386127875258306,0A2.7386127875258306,2.7386127875258306,0,1,1,2.7386127875258306,0" stroke="#4c78a8" stroke-width="2" opacity="0.7"></path><path aria-label="Instantaneous reproduction number R(t): 1.24937304439; States: RJ" role="graphics-symbol" aria-roledescription="point" transform="translate(604.1464827963829,370)" d="M2.7386127875258306,0A2.7386127875258306,2.7386127875258306,0,1,1,-2.7386127875258306,0A2.7386127875258306,2.7386127875258306,0,1,1,2.7386127875258306,0" stroke="#4c78a8" stroke-width="2" opacity="0.7"></path></g><g class="mark-rule role-mark layer_1_marks" role="graphics-object" aria-roledescription="rule mark container"><line aria-label="a: 1" role="graphics-symbol" aria-roledescription="rule mark" transform="translate(445.45454545454544,0)" x2="0" y2="540" stroke="black" stroke-width="0.2"></line><line aria-label="a: 1" role="graphics-symbol" aria-roledescription="rule mark" transform="translate(445.45454545454544,0)" x2="0" y2="540" stroke="black" stroke-width="0.2"></line><line aria-label="a: 1" role="graphics-symbol" aria-roledescription="rule mark" transform="translate(445.45454545454544,0)" x2="0" y2="540" stroke="black" stroke-width="0.2"></line><line aria-label="a: 1" role="graphics-symbol" aria-roledescription="rule mark" transform="translate(445.45454545454544,0)" x2="0" y2="540" stroke="black" stroke-width="0.2"></line><line aria-label="a: 1" role="graphics-symbol" aria-roledescription="rule mark" transform="translate(445.45454545454544,0)" x2="0" y2="540" stroke="black" stroke-width="0.2"></line><line aria-label="a: 1" role="graphics-symbol" aria-roledescription="rule mark" transform="translate(445.45454545454544,0)" x2="0" y2="540" stroke="black" stroke-width="0.2"></line><line aria-label="a: 1" role="graphics-symbol" aria-roledescription="rule mark" transform="translate(445.45454545454544,0)" x2="0" y2="540" stroke="black" stroke-width="0.2"></line><line aria-label="a: 1" role="graphics-symbol" aria-roledescription="rule mark" transform="translate(445.45454545454544,0)" x2="0" y2="540" stroke="black" stroke-width="0.2"></line><line aria-label="a: 1" role="graphics-symbol" aria-roledescription="rule mark" transform="translate(445.45454545454544,0)" x2="0" y2="540" stroke="black" stroke-width="0.2"></line><line aria-label="a: 1" role="graphics-symbol" aria-roledescription="rule mark" transform="translate(445.45454545454544,0)" x2="0" y2="540" stroke="black" stroke-width="0.2"></line><line aria-label="a: 1" role="graphics-symbol" aria-roledescription="rule mark" transform="translate(445.45454545454544,0)" x2="0" y2="540" stroke="black" stroke-width="0.2"></line><line aria-label="a: 1" role="graphics-symbol" aria-roledescription="rule mark" transform="translate(445.45454545454544,0)" x2="0" y2="540" stroke="black" stroke-width="0.2"></line><line aria-label="a: 1" role="graphics-symbol" aria-roledescription="rule mark" transform="translate(445.45454545454544,0)" x2="0" y2="540" stroke="black" stroke-width="0.2"></line><line aria-label="a: 1" role="graphics-symbol" aria-roledescription="rule mark" transform="translate(445.45454545454544,0)" x2="0" y2="540" stroke="black" stroke-width="0.2"></line><line aria-label="a: 1" role="graphics-symbol" aria-roledescription="rule mark" transform="translate(445.45454545454544,0)" x2="0" y2="540" stroke="black" stroke-width="0.2"></line><line aria-label="a: 1" role="graphics-symbol" aria-roledescription="rule mark" transform="translate(445.45454545454544,0)" x2="0" y2="540" stroke="black" stroke-width="0.2"></line><line aria-label="a: 1" role="graphics-symbol" aria-roledescription="rule mark" transform="translate(445.45454545454544,0)" x2="0" y2="540" stroke="black" stroke-width="0.2"></line><line aria-label="a: 1" role="graphics-symbol" aria-roledescription="rule mark" transform="translate(445.45454545454544,0)" x2="0" y2="540" stroke="black" stroke-width="0.2"></line><line aria-label="a: 1" role="graphics-symbol" aria-roledescription="rule mark" transform="translate(445.45454545454544,0)" x2="0" y2="540" stroke="black" stroke-width="0.2"></line><line aria-label="a: 1" role="graphics-symbol" aria-roledescription="rule mark" transform="translate(445.45454545454544,0)" x2="0" y2="540" stroke="black" stroke-width="0.2"></line><line aria-label="a: 1" role="graphics-symbol" aria-roledescription="rule mark" transform="translate(445.45454545454544,0)" x2="0" y2="540" stroke="black" stroke-width="0.2"></line><line aria-label="a: 1" role="graphics-symbol" aria-roledescription="rule mark" transform="translate(445.45454545454544,0)" x2="0" y2="540" stroke="black" stroke-width="0.2"></line><line aria-label="a: 1" role="graphics-symbol" aria-roledescription="rule mark" transform="translate(445.45454545454544,0)" x2="0" y2="540" stroke="black" stroke-width="0.2"></line><line aria-label="a: 1" role="graphics-symbol" aria-roledescription="rule mark" transform="translate(445.45454545454544,0)" x2="0" y2="540" stroke="black" stroke-width="0.2"></line><line aria-label="a: 1" role="graphics-symbol" aria-roledescription="rule mark" transform="translate(445.45454545454544,0)" x2="0" y2="540" stroke="black" stroke-width="0.2"></line><line aria-label="a: 1" role="graphics-symbol" aria-roledescription="rule mark" transform="translate(445.45454545454544,0)" x2="0" y2="540" stroke="black" stroke-width="0.2"></line><line aria-label="a: 1" role="graphics-symbol" aria-roledescription="rule mark" transform="translate(445.45454545454544,0)" x2="0" y2="540" stroke="black" stroke-width="0.2"></line></g><g class="mark-rule role-mark layer_2_marks" role="graphics-object" aria-roledescription="rule mark container"><line aria-label="CI 0.975: 0.391996712921; upper_Quantile.0.025(R): 0.471128580236; index: RN; Quantile.0.975(R): 0.471128580236; Quantile.0.025(R): 0.391996712921" role="graphics-symbol" aria-roledescription="errorbar" transform="translate(58.543362768105354,390)" x2="50.356642836521445" y2="0" stroke="blue" stroke-width="0.6"></line><line aria-label="CI 0.975: 0.802395372197; upper_Quantile.0.025(R): 0.877064129955; index: AL; Quantile.0.975(R): 0.877064129955; Quantile.0.025(R): 0.802395372197" role="graphics-symbol" aria-roledescription="errorbar" transform="translate(319.706145943646,30)" x2="47.51648220925034" y2="0" stroke="blue" stroke-width="0.6"></line><line aria-label="CI 0.975: 0.817436838807; upper_Quantile.0.025(R): 0.884229508914; index: MT; Quantile.0.975(R): 0.884229508914; Quantile.0.025(R): 0.817436838807" role="graphics-symbol" aria-roledescription="errorbar" transform="translate(329.27798833156913,250)" x2="42.504426431595164" y2="0" stroke="blue" stroke-width="0.6"></line><line aria-label="CI 0.975: 0.811699057626; upper_Quantile.0.025(R): 0.919495782139; index: SE; Quantile.0.975(R): 0.919495782139; Quantile.0.025(R): 0.811699057626" role="graphics-symbol" aria-roledescription="errorbar" transform="translate(325.62667303472864,490)" x2="68.59791559924423" y2="0" stroke="blue" stroke-width="0.6"></line><line aria-label="CI 0.975: 0.831434113992; upper_Quantile.0.025(R): 0.910051447214; index: CE; Quantile.0.975(R): 0.910051447214; Quantile.0.025(R): 0.831434113992" role="graphics-symbol" aria-roledescription="errorbar" transform="translate(338.1853452676597,110)" x2="50.02921205053963" y2="0" stroke="blue" stroke-width="0.6"></line><line aria-label="CI 0.975: 0.844976763288; upper_Quantile.0.025(R): 0.914625485452; index: RR; Quantile.0.975(R): 0.914625485452; Quantile.0.025(R): 0.844976763288" role="graphics-symbol" aria-roledescription="errorbar" transform="translate(346.80339481934294,430)" x2="44.32191410490674" y2="0" stroke="blue" stroke-width="0.6"></line><line aria-label="CI 0.975: 0.894061009687; upper_Quantile.0.025(R): 0.913759983898; index: SP; Quantile.0.975(R): 0.913759983898; Quantile.0.025(R): 0.894061009687" role="graphics-symbol" aria-roledescription="errorbar" transform="translate(378.03882434653013,510)" x2="12.535710861241796" y2="0" stroke="blue" stroke-width="0.6"></line><line aria-label="CI 0.975: 0.880201503074; upper_Quantile.0.025(R): 0.940381703031; index: SC; Quantile.0.975(R): 0.940381703031; Quantile.0.025(R): 0.880201503074" role="graphics-symbol" aria-roledescription="errorbar" transform="translate(369.21913831996,470)" x2="38.29649088162438" y2="0" stroke="blue" stroke-width="0.6"></line><line aria-label="CI 0.975: 0.886652953779; upper_Quantile.0.025(R): 0.939834153479; index: PR; Quantile.0.975(R): 0.939834153479; Quantile.0.025(R): 0.886652953779" role="graphics-symbol" aria-roledescription="errorbar" transform="translate(373.3246069505466,350)" x2="33.84258162706686" y2="0" stroke="blue" stroke-width="0.6"></line><line aria-label="CI 0.975: 0.905064133447; upper_Quantile.0.025(R): 0.963036297943; index: ES; Quantile.0.975(R): 0.963036297943; Quantile.0.025(R): 0.905064133447" role="graphics-symbol" aria-roledescription="errorbar" transform="translate(385.04081219378014,150)" x2="36.89137740607697" y2="0" stroke="blue" stroke-width="0.6"></line><line aria-label="CI 0.975: 0.901091767692; upper_Quantile.0.025(R): 0.976801595563; index: RO; Quantile.0.975(R): 0.976801595563; Quantile.0.025(R): 0.901091767692" role="graphics-symbol" aria-roledescription="errorbar" transform="translate(382.5129430765785,410)" x2="48.1789813728912" y2="0" stroke="blue" stroke-width="0.6"></line><line aria-label="CI 0.975: 0.905380678079; upper_Quantile.0.025(R): 0.97119418824; index: PI; Quantile.0.975(R): 0.97119418824; Quantile.0.025(R): 0.905380678079" role="graphics-symbol" aria-roledescription="errorbar" transform="translate(385.2422496868244,330)" x2="41.881324647510496" y2="0" stroke="blue" stroke-width="0.6"></line><line aria-label="CI 0.975: 0.928814581243; upper_Quantile.0.025(R): 0.957157100295; index: BA; Quantile.0.975(R): 0.957157100295; Quantile.0.025(R): 0.928814581243" role="graphics-symbol" aria-roledescription="errorbar" transform="translate(400.15473351838745,90)" x2="18.036148487719572" y2="0" stroke="blue" stroke-width="0.6"></line><line aria-label="CI 0.975: 0.922235840971; upper_Quantile.0.025(R): 0.979240927073; index: PB; Quantile.0.975(R): 0.979240927073; Quantile.0.025(R): 0.922235840971" role="graphics-symbol" aria-roledescription="errorbar" transform="translate(395.9682624358201,290)" x2="36.27596388334155" y2="0" stroke="blue" stroke-width="0.6"></line><line aria-label="CI 0.975: 0.93478028817; upper_Quantile.0.025(R): 0.975172497242; index: DF; Quantile.0.975(R): 0.975172497242; Quantile.0.025(R): 0.93478028817" role="graphics-symbol" aria-roledescription="errorbar" transform="translate(403.9510924720363,130)" x2="25.704133045915" y2="0" stroke="blue" stroke-width="0.6"></line><line aria-label="CI 0.975: 0.927740079939; upper_Quantile.0.025(R): 0.985290265603; index: AM; Quantile.0.975(R): 0.985290265603; Quantile.0.025(R): 0.927740079939" role="graphics-symbol" aria-roledescription="errorbar" transform="translate(399.4709599610187,50)" x2="36.62284542267497" y2="0" stroke="blue" stroke-width="0.6"></line><line aria-label="CI 0.975: 0.962159968179; upper_Quantile.0.025(R): 1.00498720231; index: GO; Quantile.0.975(R): 1.00498720231; Quantile.0.025(R): 0.962159968179" role="graphics-symbol" aria-roledescription="errorbar" transform="translate(421.3745252050956,170)" x2="27.253694445786323" y2="0" stroke="blue" stroke-width="0.6"></line><line aria-label="CI 0.975: 0.959874500653; upper_Quantile.0.025(R): 1.0083267826; index: PA; Quantile.0.975(R): 1.0083267826; Quantile.0.025(R): 0.959874500653" role="graphics-symbol" aria-roledescription="errorbar" transform="translate(419.92013677940594,270)" x2="30.83327032675794" y2="0" stroke="blue" stroke-width="0.6"></line><line aria-label="CI 0.975: 0.974320654112; upper_Quantile.0.025(R): 1.00338012077; index: MG; Quantile.0.975(R): 1.00338012077; Quantile.0.025(R): 0.974320654112" role="graphics-symbol" aria-roledescription="errorbar" transform="translate(429.11314352606394,210)" x2="18.49238787447854" y2="0" stroke="blue" stroke-width="0.6"></line><line aria-label="CI 0.975: 0.97074971117; upper_Quantile.0.025(R): 1.01633306519; index: RS; Quantile.0.975(R): 1.01633306519; Quantile.0.025(R): 0.97074971117" role="graphics-symbol" aria-roledescription="errorbar" transform="translate(426.8407252902654,450)" x2="29.0075889211779" y2="0" stroke="blue" stroke-width="0.6"></line><line aria-label="CI 0.975: 1.00111358831; upper_Quantile.0.025(R): 1.0606322696; index: PE; Quantile.0.975(R): 1.0606322696; Quantile.0.025(R): 1.00111358831" role="graphics-symbol" aria-roledescription="errorbar" transform="translate(446.1631925625896,310)" x2="37.875524456144376" y2="0" stroke="blue" stroke-width="0.6"></line><line aria-label="CI 0.975: 1.00447515242; upper_Quantile.0.025(R): 1.06876752292; index: MA; Quantile.0.975(R): 1.06876752292; Quantile.0.025(R): 1.00447515242" role="graphics-symbol" aria-roledescription="errorbar" transform="translate(448.30236972420573,190)" x2="40.913326676612996" y2="0" stroke="blue" stroke-width="0.6"></line><line aria-label="CI 0.975: 0.985204214406; upper_Quantile.0.025(R): 1.10139993542; index: AP; Quantile.0.975(R): 1.10139993542; Quantile.0.025(R): 0.985204214406" role="graphics-symbol" aria-roledescription="errorbar" transform="translate(436.0390455311635,70)" x2="73.94273155437043" y2="0" stroke="blue" stroke-width="0.6"></line><line aria-label="CI 0.975: 1.03503401841; upper_Quantile.0.025(R): 1.10270246759; index: MS; Quantile.0.975(R): 1.10270246759; Quantile.0.025(R): 1.03503401841" role="graphics-symbol" aria-roledescription="errorbar" transform="translate(467.7489208065742,230)" x2="43.06174038788458" y2="0" stroke="blue" stroke-width="0.6"></line><line aria-label="CI 0.975: 1.00000052311; upper_Quantile.0.025(R): 1.15719862512; index: AC; Quantile.0.975(R): 1.15719862512; Quantile.0.025(R): 1.00000052311" role="graphics-symbol" aria-roledescription="errorbar" transform="translate(445.45487834317123,10)" x2="100.03515582111402" y2="0" stroke="blue" stroke-width="0.6"></line><line aria-label="CI 0.975: 1.09789703115; upper_Quantile.0.025(R): 1.17519588802; index: TO; Quantile.0.975(R): 1.17519588802; Quantile.0.025(R): 1.09789703115" role="graphics-symbol" aria-roledescription="errorbar" transform="translate(507.75265618662144,530)" x2="49.19018164609423" y2="0" stroke="blue" stroke-width="0.6"></line><line aria-label="CI 0.975: 1.17948392622; upper_Quantile.0.025(R): 1.30313005725; index: RJ; Quantile.0.975(R): 1.30313005725; Quantile.0.025(R): 1.17948392622" role="graphics-symbol" aria-roledescription="errorbar" transform="translate(559.6715894150867,370)" x2="78.68390156112935" y2="0" stroke="blue" stroke-width="0.6"></line></g><g class="mark-group role-title"><g transform="translate(350,-17.2)"><path class="background" aria-hidden="true" d="M0,0h0v0h0Z" pointer-events="none"></path><g><g class="mark-text role-title-text" role="graphics-symbol" aria-roledescription="title" aria-label="Title text 'Instantaneous reproduction number estimate for all states in Brazil'" pointer-events="none"><text text-anchor="middle" transform="translate(0,10)" font-family="sans-serif" font-size="13px" font-weight="bold" fill="#000" opacity="1">Instantaneous reproduction number estimate for all states in Brazil</text></g></g><path class="foreground" aria-hidden="true" d="" pointer-events="none" display="none"></path></g></g></g><path class="foreground" aria-hidden="true" d="" display="none"></path></g></g></g></svg>