<svg class="marks" width="749" height="600" viewBox="0 0 749 600" version="1.1" xmlns="http://www.w3.org/2000/svg" xmlns:xlink="http://www.w3.org/1999/xlink"><rect width="749" height="600" fill="white"></rect><g fill="none" stroke-miterlimit="10" transform="translate(43,23)"><g class="mark-group role-frame root" role="graphics-object" aria-roledescription="group mark container"><g transform="translate(0,0)"><path class="background" aria-hidden="true" d="M0.5,0.5h700v540h-700Z"></path><g><g class="mark-group role-axis" aria-hidden="true"><g transform="translate(0.5,0.5)"><path class="background" aria-hidden="true" d="M0,0h0v0h0Z" pointer-events="none"></path><g><g class="mark-rule role-axis-grid" pointer-events="none"><line transform="translate(0,10)" x2="700" y2="0" stroke="#ddd" stroke-width="1" opacity="1"></line><line transform="translate(0,30)" x2="700" y2="0" stroke="#ddd" stroke-width="1" opacity="1"></line><line transform="translate(0,50)" x2="700" y2="0" stroke="#ddd" stroke-width="1" opacity="1"></line><line transform="translate(0,70)" x2="700" y2="0" stroke="#ddd" stroke-width="1" opacity="1"></line><line transform="translate(0,90)" x2="700" y2="0" stroke="#ddd" stroke-width="1" opacity="1"></line><line transform="translate(0,110)" x2="700" y2="0" stroke="#ddd" stroke-width="1" opacity="1"></line><line transform="translate(0,130)" x2="700" y2="0" stroke="#ddd" stroke-width="1" opacity="1"></line><line transform="translate(0,150)" x2="700" y2="0" stroke="#ddd" stroke-width="1" opacity="1"></line><line transform="translate(0,170)" x2="700" y2="0" stroke="#ddd" stroke-width="1" opacity="1"></line><line transform="translate(0,190)" x2="700" y2="0" stroke="#ddd" stroke-width="1" opacity="1"></line><line transform="translate(0,210)" x2="700" y2="0" stroke="#ddd" stroke-width="1" opacity="1"></line><line transform="translate(0,230)" x2="700" y2="0" stroke="#ddd" stroke-width="1" opacity="1"></line><line transform="translate(0,250)" x2="700" y2="0" stroke="#ddd" stroke-width="1" opacity="1"></line><line transform="translate(0,270)" x2="700" y2="0" stroke="#ddd" stroke-width="1" opacity="1"></line><line transform="translate(0,290)" x2="700" y2="0" stroke="#ddd" stroke-width="1" opacity="1"></line><line transform="translate(0,310)" x2="700" y2="0" stroke="#ddd" stroke-width="1" opacity="1"></line><line transform="translate(0,330)" x2="700" y2="0" stroke="#ddd" stroke-width="1" opacity="1"></line><line transform="translate(0,350)" x2="700" y2="0" stroke="#ddd" stroke-width="1" opacity="1"></line><line transform="translate(0,370)" x2="700" y2="0" stroke="#ddd" stroke-width="1" opacity="1"></line><line transform="translate(0,390)" x2="700" y2="0" stroke="#ddd" stroke-width="1" opacity="1"></line><line transform="translate(0,410)" x2="700" y2="0" stroke="#ddd" stroke-width="1" opacity="1"></line><line transform="translate(0,430)" x2="700" y2="0" stroke="#ddd" stroke-width="1" opacity="1"></line><line transform="translate(0,450)" x2="700" y2="0" stroke="#ddd" stroke-width="1" opacity="1"></line><line transform="translate(0,470)" x2="700" y2="0" stroke="#ddd" stroke-width="1" opacity="1"></line><line transform="translate(0,490)" x2="700" y2="0" stroke="#ddd" stroke-width="1" opacity="1"></line><line transform="translate(0,510)" x2="700" y2="0" stroke="#ddd" stroke-width="1" opacity="1"></line><line transform="translate(0,530)" x2="700" y2="0" stroke="#ddd" stroke-width="1" opacity="1"></line></g></g><path class="foreground" aria-hidden="true" d="" pointer-events="none" display="none"></path></g></g><g class="mark-group role-axis" role="graphics-symbol" aria-roledescription="axis" aria-label="X-axis titled 'Instantaneous reproduction number R(t), CI 0.975' for a linear scale with values from 0.3 to 1.6"><g transform="translate(0.5,540.5)"><path class="background" aria-hidden="true" d="M0,0h0v0h0Z" pointer-events="none"></path><g><g class="mark-rule role-axis-tick" pointer-events="none"><line transform="translate(0,0)" x2="0" y2="5" stroke="#888" stroke-width="1" opacity="1"></line><line transform="translate(54,0)" x2="0" y2="5" stroke="#888" stroke-width="1" opacity="1"></line><line transform="translate(108,0)" x2="0" y2="5" stroke="#888" stroke-width="1" opacity="1"></line><line transform="translate(162,0)" x2="0" y2="5" stroke="#888" stroke-width="1" opacity="1"></line><line transform="translate(215,0)" x2="0" y2="5" stroke="#888" stroke-width="1" opacity="1"></line><line transform="translate(269,0)" x2="0" y2="5" stroke="#888" stroke-width="1" opacity="1"></line><line transform="translate(323,0)" x2="0" y2="5" stroke="#888" stroke-width="1" opacity="1"></line><line transform="translate(377,0)" x2="0" y2="5" stroke="#888" stroke-width="1" opacity="1"></line><line transform="translate(431,0)" x2="0" y2="5" stroke="#888" stroke-width="1" opacity="1"></line><line transform="translate(485,0)" x2="0" y2="5" stroke="#888" stroke-width="1" opacity="1"></line><line transform="translate(538,0)" x2="0" y2="5" stroke="#888" stroke-width="1" opacity="1"></line><line transform="translate(592,0)" x2="0" y2="5" stroke="#888" stroke-width="1" opacity="1"></line><line transform="translate(646,0)" x2="0" y2="5" stroke="#888" stroke-width="1" opacity="1"></line><line transform="translate(700,0)" x2="0" y2="5" stroke="#888" stroke-width="1" opacity="1"></line></g><g class="mark-text role-axis-label" pointer-events="none"><text text-anchor="start" transform="translate(0,15)" font-family="sans-serif" font-size="10px" fill="#000" opacity="1">0.3</text><text text-anchor="middle" transform="translate(53.84615384615386,15)" font-family="sans-serif" font-size="10px" fill="#000" opacity="1">0.4</text><text text-anchor="middle" transform="translate(107.6923076923077,15)" font-family="sans-serif" font-size="10px" fill="#000" opacity="1">0.5</text><text text-anchor="middle" transform="translate(161.53846153846152,15)" font-family="sans-serif" font-size="10px" fill="#000" opacity="1">0.6</text><text text-anchor="middle" transform="translate(215.38461538461536,15)" font-family="sans-serif" font-size="10px" fill="#000" opacity="1">0.7</text><text text-anchor="middle" transform="translate(269.2307692307692,15)" font-family="sans-serif" font-size="10px" fill="#000" opacity="1">0.8</text><text text-anchor="middle" transform="translate(323.0769230769231,15)" font-family="sans-serif" font-size="10px" fill="#000" opacity="1">0.9</text><text text-anchor="middle" transform="translate(376.9230769230769,15)" font-family="sans-serif" font-size="10px" fill="#000" opacity="1">1.0</text><text text-anchor="middle" transform="translate(430.7692307692308,15)" font-family="sans-serif" font-size="10px" fill="#000" opacity="1">1.1</text><text text-anchor="middle" transform="translate(484.6153846153845,15)" font-family="sans-serif" font-size="10px" fill="#000" opacity="1">1.2</text><text text-anchor="middle" transform="translate(538.4615384615385,15)" font-family="sans-serif" font-size="10px" fill="#000" opacity="1">1.3</text><text text-anchor="middle" transform="translate(592.3076923076923,15)" font-family="sans-serif" font-size="10px" fill="#000" opacity="1">1.4</text><text text-anchor="middle" transform="translate(646.1538461538461,15)" font-family="sans-serif" font-size="10px" fill="#000" opacity="1">1.5</text><text text-anchor="end" transform="translate(700,15)" font-family="sans-serif" font-size="10px" fill="#000" opacity="1">1.6</text></g><g class="mark-rule role-axis-domain" pointer-events="none"><line transform="translate(0,0)" x2="700" y2="0" stroke="#888" stroke-width="1" opacity="1"></line></g><g class="mark-text role-axis-title" pointer-events="none"><text text-anchor="middle" transform="translate(350,30)" font-family="sans-serif" font-size="11px" font-weight="bold" fill="#000" opacity="1">Instantaneous reproduction number R(t), CI 0.975</text></g></g><path class="foreground" aria-hidden="true" d="" pointer-events="none" display="none"></path></g></g><g class="mark-group role-axis" role="graphics-symbol" aria-roledescription="axis" aria-label="Y-axis titled 'States' for a discrete scale with 27 values: AC, AL, AM, AP, BA, ending with TO"><g transform="translate(0.5,0.5)"><path class="background" aria-hidden="true" d="M0,0h0v0h0Z" pointer-events="none"></path><g><g class="mark-rule role-axis-tick" pointer-events="none"><line transform="translate(0,10)" x2="-5" y2="0" stroke="#888" stroke-width="1" opacity="1"></line><line transform="translate(0,30)" x2="-5" y2="0" stroke="#888" stroke-width="1" opacity="1"></line><line transform="translate(0,50)" x2="-5" y2="0" stroke="#888" stroke-width="1" opacity="1"></line><line transform="translate(0,70)" x2="-5" y2="0" stroke="#888" stroke-width="1" opacity="1"></line><line transform="translate(0,90)" x2="-5" y2="0" stroke="#888" stroke-width="1" opacity="1"></line><line transform="translate(0,110)" x2="-5" y2="0" stroke="#888" stroke-width="1" opacity="1"></line><line transform="translate(0,130)" x2="-5" y2="0" stroke="#888" stroke-width="1" opacity="1"></line><line transform="translate(0,150)" x2="-5" y2="0" stroke="#888" stroke-width="1" opacity="1"></line><line transform="translate(0,170)" x2="-5" y2="0" stroke="#888" stroke-width="1" opacity="1"></line><line transform="translate(0,190)" x2="-5" y2="0" stroke="#888" stroke-width="1" opacity="1"></line><line transform="translate(0,210)" x2="-5" y2="0" stroke="#888" stroke-width="1" opacity="1"></line><line transform="translate(0,230)" x2="-5" y2="0" stroke="#888" stroke-width="1" opacity="1"></line><line transform="translate(0,250)" x2="-5" y2="0" stroke="#888" stroke-width="1" opacity="1"></line><line transform="translate(0,270)" x2="-5" y2="0" stroke="#888" stroke-width="1" opacity="1"></line><line transform="translate(0,290)" x2="-5" y2="0" stroke="#888" stroke-width="1" opacity="1"></line><line transform="translate(0,310)" x2="-5" y2="0" stroke="#888" stroke-width="1" opacity="1"></line><line transform="translate(0,330)" x2="-5" y2="0" stroke="#888" stroke-width="1" opacity="1"></line><line transform="translate(0,350)" x2="-5" y2="0" stroke="#888" stroke-width="1" opacity="1"></line><line transform="translate(0,370)" x2="-5" y2="0" stroke="#888" stroke-width="1" opacity="1"></line><line transform="translate(0,390)" x2="-5" y2="0" stroke="#888" stroke-width="1" opacity="1"></line><line transform="translate(0,410)" x2="-5" y2="0" stroke="#888" stroke-width="1" opacity="1"></line><line transform="translate(0,430)" x2="-5" y2="0" stroke="#888" stroke-width="1" opacity="1"></line><line transform="translate(0,450)" x2="-5" y2="0" stroke="#888" stroke-width="1" opacity="1"></line><line transform="translate(0,470)" x2="-5" y2="0" stroke="#888" stroke-width="1" opacity="1"></line><line transform="translate(0,490)" x2="-5" y2="0" stroke="#888" stroke-width="1" opacity="1"></line><line transform="translate(0,510)" x2="-5" y2="0" stroke="#888" stroke-width="1" opacity="1"></line><line transform="translate(0,530)" x2="-5" y2="0" stroke="#888" stroke-width="1" opacity="1"></line></g><g class="mark-text role-axis-label" pointer-events="none"><text text-anchor="end" transform="translate(-7,12.5)" font-family="sans-serif" font-size="10px" fill="#000" opacity="1">AC</text><text text-anchor="end" transform="translate(-7,32.5)" font-family="sans-serif" font-size="10px" fill="#000" opacity="1">AL</text><text text-anchor="end" transform="translate(-7,52.5)" font-family="sans-serif" font-size="10px" fill="#000" opacity="1">AM</text><text text-anchor="end" transform="translate(-7,72.5)" font-family="sans-serif" font-size="10px" fill="#000" opacity="1">AP</text><text text-anchor="end" transform="translate(-7,92.5)" font-family="sans-serif" font-size="10px" fill="#000" opacity="1">BA</text><text text-anchor="end" transform="translate(-7,112.5)" font-family="sans-serif" font-size="10px" fill="#000" opacity="1">CE</text><text text-anchor="end" transform="translate(-7,132.5)" font-family="sans-serif" font-size="10px" fill="#000" opacity="1">DF</text><text text-anchor="end" transform="translate(-7,152.5)" font-family="sans-serif" font-size="10px" fill="#000" opacity="1">ES</text><text text-anchor="end" transform="translate(-7,172.5)" font-family="sans-serif" font-size="10px" fill="#000" opacity="1">GO</text><text text-anchor="end" transform="translate(-7,192.5)" font-family="sans-serif" font-size="10px" fill="#000" opacity="1">MA</text><text text-anchor="end" transform="translate(-7,212.5)" font-family="sans-serif" font-size="10px" fill="#000" opacity="1">MG</text><text text-anchor="end" transform="translate(-7,232.5)" font-family="sans-serif" font-size="10px" fill="#000" opacity="1">MS</text><text text-anchor="end" transform="translate(-7,252.5)" font-family="sans-serif" font-size="10px" fill="#000" opacity="1">MT</text><text text-anchor="end" transform="translate(-7,272.5)" font-family="sans-serif" font-size="10px" fill="#000" opacity="1">PA</text><text text-anchor="end" transform="translate(-7,292.5)" font-family="sans-serif" font-size="10px" fill="#000" opacity="1">PB</text><text text-anchor="end" transform="translate(-7,312.5)" font-family="sans-serif" font-size="10px" fill="#000" opacity="1">PE</text><text text-anchor="end" transform="translate(-7,332.5)" font-family="sans-serif" font-size="10px" fill="#000" opacity="1">PI</text><text text-anchor="end" transform="translate(-7,352.5)" font-family="sans-serif" font-size="10px" fill="#000" opacity="1">PR</text><text text-anchor="end" transform="translate(-7,372.5)" font-family="sans-serif" font-size="10px" fill="#000" opacity="1">RJ</text><text text-anchor="end" transform="translate(-7,392.5)" font-family="sans-serif" font-size="10px" fill="#000" opacity="1">RN</text><text text-anchor="end" transform="translate(-7,412.5)" font-family="sans-serif" font-size="10px" fill="#000" opacity="1">RO</text><text text-anchor="end" transform="translate(-7,432.5)" font-family="sans-serif" font-size="10px" fill="#000" opacity="1">RR</text><text text-anchor="end" transform="translate(-7,452.5)" font-family="sans-serif" font-size="10px" fill="#000" opacity="1">RS</text><text text-anchor="end" transform="translate(-7,472.5)" font-family="sans-serif" font-size="10px" fill="#000" opacity="1">SC</text><text text-anchor="end" transform="translate(-7,492.5)" font-family="sans-serif" font-size="10px" fill="#000" opacity="1">SE</text><text text-anchor="end" transform="translate(-7,512.5)" font-family="sans-serif" font-size="10px" fill="#000" opacity="1">SP</text><text text-anchor="end" transform="translate(-7,532.5)" font-family="sans-serif" font-size="10px" fill="#000" opacity="1">TO</text></g><g class="mark-rule role-axis-domain" pointer-events="none"><line transform="translate(0,0)" x2="0" y2="540" stroke="#888" stroke-width="1" opacity="1"></line></g><g class="mark-text role-axis-title" pointer-events="none"><text text-anchor="middle" transform="translate(-27,270) rotate(-90) translate(0,-2)" font-family="sans-serif" font-size="11px" font-weight="bold" fill="#000" opacity="1">States</text></g></g><path class="foreground" aria-hidden="true" d="" pointer-events="none" display="none"></path></g></g><g class="mark-symbol role-mark layer_0_marks" role="graphics-object" aria-roledescription="symbol mark container"><path aria-label="Instantaneous reproduction number R(t): 0.522776920541; States: CE" role="graphics-symbol" aria-roledescription="point" transform="translate(119.9568033684892,110)" d="M2.7386127875258306,0A2.7386127875258306,2.7386127875258306,0,1,1,-2.7386127875258306,0A2.7386127875258306,2.7386127875258306,0,1,1,2.7386127875258306,0" stroke="#4c78a8" stroke-width="2" opacity="0.7"></path><path aria-label="Instantaneous reproduction number R(t): 0.767842912055; States: SC" role="graphics-symbol" aria-roledescription="point" transform="translate(251.91541418336166,470)" d="M2.7386127875258306,0A2.7386127875258306,2.7386127875258306,0,1,1,-2.7386127875258306,0A2.7386127875258306,2.7386127875258306,0,1,1,2.7386127875258306,0" stroke="#4c78a8" stroke-width="2" opacity="0.7"></path><path aria-label="Instantaneous reproduction number R(t): 0.842767627431; States: AP" role="graphics-symbol" aria-roledescription="point" transform="translate(292.2594916937421,70)" d="M2.7386127875258306,0A2.7386127875258306,2.7386127875258306,0,1,1,-2.7386127875258306,0A2.7386127875258306,2.7386127875258306,0,1,1,2.7386127875258306,0" stroke="#4c78a8" stroke-width="2" opacity="0.7"></path><path aria-label="Instantaneous reproduction number R(t): 0.870442291524; States: MA" role="graphics-symbol" aria-roledescription="point" transform="translate(307.16123389733434,190)" d="M2.7386127875258306,0A2.7386127875258306,2.7386127875258306,0,1,1,-2.7386127875258306,0A2.7386127875258306,2.7386127875258306,0,1,1,2.7386127875258306,0" stroke="#4c78a8" stroke-width="2" opacity="0.7"></path><path aria-label="Instantaneous reproduction number R(t): 0.904245562563; States: DF" role="graphics-symbol" aria-roledescription="point" transform="translate(325.3629952264056,130)" d="M2.7386127875258306,0A2.7386127875258306,2.7386127875258306,0,1,1,-2.7386127875258306,0A2.7386127875258306,2.7386127875258306,0,1,1,2.7386127875258306,0" stroke="#4c78a8" stroke-width="2" opacity="0.7"></path><path aria-label="Instantaneous reproduction number R(t): 0.938264809575; States: PR" role="graphics-symbol" aria-roledescription="point" transform="translate(343.6810513093561,350)" d="M2.7386127875258306,0A2.7386127875258306,2.7386127875258306,0,1,1,-2.7386127875258306,0A2.7386127875258306,2.7386127875258306,0,1,1,2.7386127875258306,0" stroke="#4c78a8" stroke-width="2" opacity="0.7"></path><path aria-label="Instantaneous reproduction number R(t): 0.970877109867; States: TO" role="graphics-symbol" aria-roledescription="point" transform="translate(361.2415206976055,530)" d="M2.7386127875258306,0A2.7386127875258306,2.7386127875258306,0,1,1,-2.7386127875258306,0A2.7386127875258306,2.7386127875258306,0,1,1,2.7386127875258306,0" stroke="#4c78a8" stroke-width="2" opacity="0.7"></path><path aria-label="Instantaneous reproduction number R(t): 0.989757610365; States: RO" role="graphics-symbol" aria-roledescription="point" transform="translate(371.40794404293814,410)" d="M2.7386127875258306,0A2.7386127875258306,2.7386127875258306,0,1,1,-2.7386127875258306,0A2.7386127875258306,2.7386127875258306,0,1,1,2.7386127875258306,0" stroke="#4c78a8" stroke-width="2" opacity="0.7"></path><path aria-label="Instantaneous reproduction number R(t): 0.992663080358; States: ES" role="graphics-symbol" aria-roledescription="point" transform="translate(372.9724278849965,150)" d="M2.7386127875258306,0A2.7386127875258306,2.7386127875258306,0,1,1,-2.7386127875258306,0A2.7386127875258306,2.7386127875258306,0,1,1,2.7386127875258306,0" stroke="#4c78a8" stroke-width="2" opacity="0.7"></path><path aria-label="Instantaneous reproduction number R(t): 1.00588770439; States: SE" role="graphics-symbol" aria-roledescription="point" transform="translate(380.0933792863462,490)" d="M2.7386127875258306,0A2.7386127875258306,2.7386127875258306,0,1,1,-2.7386127875258306,0A2.7386127875258306,2.7386127875258306,0,1,1,2.7386127875258306,0" stroke="#4c78a8" stroke-width="2" opacity="0.7"></path><path aria-label="Instantaneous reproduction number R(t): 1.01394197327; States: BA" role="graphics-symbol" aria-roledescription="point" transform="translate(384.4302932993693,90)" d="M2.7386127875258306,0A2.7386127875258306,2.7386127875258306,0,1,1,-2.7386127875258306,0A2.7386127875258306,2.7386127875258306,0,1,1,2.7386127875258306,0" stroke="#4c78a8" stroke-width="2" opacity="0.7"></path><path aria-label="Instantaneous reproduction number R(t): 1.01919759095; States: PI" role="graphics-symbol" aria-roledescription="point" transform="translate(387.26024128134554,330)" d="M2.7386127875258306,0A2.7386127875258306,2.7386127875258306,0,1,1,-2.7386127875258306,0A2.7386127875258306,2.7386127875258306,0,1,1,2.7386127875258306,0" stroke="#4c78a8" stroke-width="2" opacity="0.7"></path><path aria-label="Instantaneous reproduction number R(t): 1.05083711708; States: MG" role="graphics-symbol" aria-roledescription="point" transform="translate(404.2969091955563,210)" d="M2.7386127875258306,0A2.7386127875258306,2.7386127875258306,0,1,1,-2.7386127875258306,0A2.7386127875258306,2.7386127875258306,0,1,1,2.7386127875258306,0" stroke="#4c78a8" stroke-width="2" opacity="0.7"></path><path aria-label="Instantaneous reproduction number R(t): 1.05466087267; States: SP" role="graphics-symbol" aria-roledescription="point" transform="translate(406.35585451484866,510)" d="M2.7386127875258306,0A2.7386127875258306,2.7386127875258306,0,1,1,-2.7386127875258306,0A2.7386127875258306,2.7386127875258306,0,1,1,2.7386127875258306,0" stroke="#4c78a8" stroke-width="2" opacity="0.7"></path><path aria-label="Instantaneous reproduction number R(t): 1.05486740302; States: RR" role="graphics-symbol" aria-roledescription="point" transform="translate(406.4670631669834,430)" d="M2.7386127875258306,0A2.7386127875258306,2.7386127875258306,0,1,1,-2.7386127875258306,0A2.7386127875258306,2.7386127875258306,0,1,1,2.7386127875258306,0" stroke="#4c78a8" stroke-width="2" opacity="0.7"></path><path aria-label="Instantaneous reproduction number R(t): 1.05801350378; States: PE" role="graphics-symbol" aria-roledescription="point" transform="translate(408.1611174207634,310)" d="M2.7386127875258306,0A2.7386127875258306,2.7386127875258306,0,1,1,-2.7386127875258306,0A2.7386127875258306,2.7386127875258306,0,1,1,2.7386127875258306,0" stroke="#4c78a8" stroke-width="2" opacity="0.7"></path><path aria-label="Instantaneous reproduction number R(t): 1.06481668969; States: PA" role="graphics-symbol" aria-roledescription="point" transform="translate(411.82437137403014,270)" d="M2.7386127875258306,0A2.7386127875258306,2.7386127875258306,0,1,1,-2.7386127875258306,0A2.7386127875258306,2.7386127875258306,0,1,1,2.7386127875258306,0" stroke="#4c78a8" stroke-width="2" opacity="0.7"></path><path aria-label="Instantaneous reproduction number R(t): 1.06844492476; States: RN" role="graphics-symbol" aria-roledescription="point" transform="translate(413.77803641088053,390)" d="M2.7386127875258306,0A2.7386127875258306,2.7386127875258306,0,1,1,-2.7386127875258306,0A2.7386127875258306,2.7386127875258306,0,1,1,2.7386127875258306,0" stroke="#4c78a8" stroke-width="2" opacity="0.7"></path><path aria-label="Instantaneous reproduction number R(t): 1.07248120899; States: AL" role="graphics-symbol" aria-roledescription="point" transform="translate(415.951420224396,30)" d="M2.7386127875258306,0A2.7386127875258306,2.7386127875258306,0,1,1,-2.7386127875258306,0A2.7386127875258306,2.7386127875258306,0,1,1,2.7386127875258306,0" stroke="#4c78a8" stroke-width="2" opacity="0.7"></path><path aria-label="Instantaneous reproduction number R(t): 1.07591018124; States: AC" role="graphics-symbol" aria-roledescription="point" transform="translate(417.797789899244,10)" d="M2.7386127875258306,0A2.7386127875258306,2.7386127875258306,0,1,1,-2.7386127875258306,0A2.7386127875258306,2.7386127875258306,0,1,1,2.7386127875258306,0" stroke="#4c78a8" stroke-width="2" opacity="0.7"></path><path aria-label="Instantaneous reproduction number R(t): 1.07892075674; States: RS" role="graphics-symbol" aria-roledescription="point" transform="translate(419.4188690120208,450)" d="M2.7386127875258306,0A2.7386127875258306,2.7386127875258306,0,1,1,-2.7386127875258306,0A2.7386127875258306,2.7386127875258306,0,1,1,2.7386127875258306,0" stroke="#4c78a8" stroke-width="2" opacity="0.7"></path><path aria-label="Instantaneous reproduction number R(t): 1.12584574434; States: MT" role="graphics-symbol" aria-roledescription="point" transform="translate(444.68617002759754,250)" d="M2.7386127875258306,0A2.7386127875258306,2.7386127875258306,0,1,1,-2.7386127875258306,0A2.7386127875258306,2.7386127875258306,0,1,1,2.7386127875258306,0" stroke="#4c78a8" stroke-width="2" opacity="0.7"></path><path aria-label="Instantaneous reproduction number R(t): 1.1346329162; States: MS" role="graphics-symbol" aria-roledescription="point" transform="translate(449.41772410728174,230)" d="M2.7386127875258306,0A2.7386127875258306,2.7386127875258306,0,1,1,-2.7386127875258306,0A2.7386127875258306,2.7386127875258306,0,1,1,2.7386127875258306,0" stroke="#4c78a8" stroke-width="2" opacity="0.7"></path><path aria-label="Instantaneous reproduction number R(t): 1.1659252372; States: AM" role="graphics-symbol" aria-roledescription="point" transform="translate(466.2674354170265,50)" d="M2.7386127875258306,0A2.7386127875258306,2.7386127875258306,0,1,1,-2.7386127875258306,0A2.7386127875258306,2.7386127875258306,0,1,1,2.7386127875258306,0" stroke="#4c78a8" stroke-width="2" opacity="0.7"></path><path aria-label="Instantaneous reproduction number R(t): 1.19243107584; States: PB" role="graphics-symbol" aria-roledescription="point" transform="translate(480.53981006939694,290)" d="M2.7386127875258306,0A2.7386127875258306,2.7386127875258306,0,1,1,-2.7386127875258306,0A2.7386127875258306,2.7386127875258306,0,1,1,2.7386127875258306,0" stroke="#4c78a8" stroke-width="2" opacity="0.7"></path><path aria-label="Instantaneous reproduction number R(t): 1.33700174644; States: GO" role="graphics-symbol" aria-roledescription="point" transform="translate(558.3855557775488,170)" d="M2.7386127875258306,0A2.7386127875258306,2.7386127875258306,0,1,1,-2.7386127875258306,0A2.7386127875258306,2.7386127875258306,0,1,1,2.7386127875258306,0" stroke="#4c78a8" stroke-width="2" opacity="0.7"></path><path aria-label="Instantaneous reproduction number R(t): 1.37108848327; States: RJ" role="graphics-symbol" aria-roledescription="point" transform="translate(576.7399525315797,370)" d="M2.7386127875258306,0A2.7386127875258306,2.7386127875258306,0,1,1,-2.7386127875258306,0A2.7386127875258306,2.7386127875258306,0,1,1,2.7386127875258306,0" stroke="#4c78a8" stroke-width="2" opacity="0.7"></path></g><g class="mark-rule role-mark layer_1_marks" role="graphics-object" aria-roledescription="rule mark container"><line aria-label="a: 1" role="graphics-symbol" aria-roledescription="rule mark" transform="translate(376.9230769230769,0)" x2="0" y2="540" stroke="black" stroke-width="0.2"></line><line aria-label="a: 1" role="graphics-symbol" aria-roledescription="rule mark" transform="translate(376.9230769230769,0)" x2="0" y2="540" stroke="black" stroke-width="0.2"></line><line aria-label="a: 1" role="graphics-symbol" aria-roledescription="rule mark" transform="translate(376.9230769230769,0)" x2="0" y2="540" stroke="black" stroke-width="0.2"></line><line aria-label="a: 1" role="graphics-symbol" aria-roledescription="rule mark" transform="translate(376.9230769230769,0)" x2="0" y2="540" stroke="black" stroke-width="0.2"></line><line aria-label="a: 1" role="graphics-symbol" aria-roledescription="rule mark" transform="translate(376.9230769230769,0)" x2="0" y2="540" stroke="black" stroke-width="0.2"></line><line aria-label="a: 1" role="graphics-symbol" aria-roledescription="rule mark" transform="translate(376.9230769230769,0)" x2="0" y2="540" stroke="black" stroke-width="0.2"></line><line aria-label="a: 1" role="graphics-symbol" aria-roledescription="rule mark" transform="translate(376.9230769230769,0)" x2="0" y2="540" stroke="black" stroke-width="0.2"></line><line aria-label="a: 1" role="graphics-symbol" aria-roledescription="rule mark" transform="translate(376.9230769230769,0)" x2="0" y2="540" stroke="black" stroke-width="0.2"></line><line aria-label="a: 1" role="graphics-symbol" aria-roledescription="rule mark" transform="translate(376.9230769230769,0)" x2="0" y2="540" stroke="black" stroke-width="0.2"></line><line aria-label="a: 1" role="graphics-symbol" aria-roledescription="rule mark" transform="translate(376.9230769230769,0)" x2="0" y2="540" stroke="black" stroke-width="0.2"></line><line aria-label="a: 1" role="graphics-symbol" aria-roledescription="rule mark" transform="translate(376.9230769230769,0)" x2="0" y2="540" stroke="black" stroke-width="0.2"></line><line aria-label="a: 1" role="graphics-symbol" aria-roledescription="rule mark" transform="translate(376.9230769230769,0)" x2="0" y2="540" stroke="black" stroke-width="0.2"></line><line aria-label="a: 1" role="graphics-symbol" aria-roledescription="rule mark" transform="translate(376.9230769230769,0)" x2="0" y2="540" stroke="black" stroke-width="0.2"></line><line aria-label="a: 1" role="graphics-symbol" aria-roledescription="rule mark" transform="translate(376.9230769230769,0)" x2="0" y2="540" stroke="black" stroke-width="0.2"></line><line aria-label="a: 1" role="graphics-symbol" aria-roledescription="rule mark" transform="translate(376.9230769230769,0)" x2="0" y2="540" stroke="black" stroke-width="0.2"></line><line aria-label="a: 1" role="graphics-symbol" aria-roledescription="rule mark" transform="translate(376.9230769230769,0)" x2="0" y2="540" stroke="black" stroke-width="0.2"></line><line aria-label="a: 1" role="graphics-symbol" aria-roledescription="rule mark" transform="translate(376.9230769230769,0)" x2="0" y2="540" stroke="black" stroke-width="0.2"></line><line aria-label="a: 1" role="graphics-symbol" aria-roledescription="rule mark" transform="translate(376.9230769230769,0)" x2="0" y2="540" stroke="black" stroke-width="0.2"></line><line aria-label="a: 1" role="graphics-symbol" aria-roledescription="rule mark" transform="translate(376.9230769230769,0)" x2="0" y2="540" stroke="black" stroke-width="0.2"></line><line aria-label="a: 1" role="graphics-symbol" aria-roledescription="rule mark" transform="translate(376.9230769230769,0)" x2="0" y2="540" stroke="black" stroke-width="0.2"></line><line aria-label="a: 1" role="graphics-symbol" aria-roledescription="rule mark" transform="translate(376.9230769230769,0)" x2="0" y2="540" stroke="black" stroke-width="0.2"></line><line aria-label="a: 1" role="graphics-symbol" aria-roledescription="rule mark" transform="translate(376.9230769230769,0)" x2="0" y2="540" stroke="black" stroke-width="0.2"></line><line aria-label="a: 1" role="graphics-symbol" aria-roledescription="rule mark" transform="translate(376.9230769230769,0)" x2="0" y2="540" stroke="black" stroke-width="0.2"></line><line aria-label="a: 1" role="graphics-symbol" aria-roledescription="rule mark" transform="translate(376.9230769230769,0)" x2="0" y2="540" stroke="black" stroke-width="0.2"></line><line aria-label="a: 1" role="graphics-symbol" aria-roledescription="rule mark" transform="translate(376.9230769230769,0)" x2="0" y2="540" stroke="black" stroke-width="0.2"></line><line aria-label="a: 1" role="graphics-symbol" aria-roledescription="rule mark" transform="translate(376.9230769230769,0)" x2="0" y2="540" stroke="black" stroke-width="0.2"></line><line aria-label="a: 1" role="graphics-symbol" aria-roledescription="rule mark" transform="translate(376.9230769230769,0)" x2="0" y2="540" stroke="black" stroke-width="0.2"></line></g><g class="mark-rule role-mark layer_2_marks" role="graphics-object" aria-roledescription="rule mark container"><line aria-label="CI 0.975: 0.374587877697; upper_Quantile.0.025(R): 0.683715983731; index: CE; Quantile.0.975(R): 0.683715983731; Quantile.0.025(R): 0.374587877697" role="graphics-symbol" aria-roledescription="errorbar" transform="translate(40.1627033750673,110)" x2="166.4535955572048" y2="0" stroke="blue" stroke-width="0.6"></line><line aria-label="CI 0.975: 0.635877761055; upper_Quantile.0.025(R): 0.917800916578; index: SC; Quantile.0.975(R): 0.917800916578; Quantile.0.025(R): 0.635877761055" role="graphics-symbol" aria-roledescription="errorbar" transform="translate(180.85725595289009,470)" x2="151.80477605085318" y2="0" stroke="blue" stroke-width="0.6"></line><line aria-label="CI 0.975: 0.76081942085; upper_Quantile.0.025(R): 0.926464957322; index: AP; Quantile.0.975(R): 0.926464957322; Quantile.0.025(R): 0.76081942085" role="graphics-symbol" aria-roledescription="errorbar" transform="translate(248.13353430404615,70)" x2="89.19375040761119" y2="0" stroke="blue" stroke-width="0.6"></line><line aria-label="CI 0.975: 0.81446081851; upper_Quantile.0.025(R): 0.926763634688; index: MA; Quantile.0.975(R): 0.926763634688; Quantile.0.025(R): 0.81446081851" role="graphics-symbol" aria-roledescription="errorbar" transform="translate(277.01736381284206,190)" x2="60.47074717299364" y2="0" stroke="blue" stroke-width="0.6"></line><line aria-label="CI 0.975: 0.867307879554; upper_Quantile.0.025(R): 0.94240593772; index: DF; Quantile.0.975(R): 0.94240593772; Quantile.0.025(R): 0.867307879554" role="graphics-symbol" aria-roledescription="errorbar" transform="translate(305.47347360585417,130)" x2="40.43741593581211" y2="0" stroke="blue" stroke-width="0.6"></line><line aria-label="CI 0.975: 0.91591349339; upper_Quantile.0.025(R): 0.961010520926; index: PR; Quantile.0.975(R): 0.961010520926; Quantile.0.025(R): 0.91591349339" role="graphics-symbol" aria-roledescription="errorbar" transform="translate(331.64572720991936,350)" x2="24.28301482693064" y2="0" stroke="blue" stroke-width="0.6"></line><line aria-label="CI 0.975: 0.926943948592; upper_Quantile.0.025(R): 1.01765487305; index: TO; Quantile.0.975(R): 1.01765487305; Quantile.0.025(R): 0.926943948592" role="graphics-symbol" aria-roledescription="errorbar" transform="translate(337.5852030882234,530)" x2="48.844343938455665" y2="0" stroke="blue" stroke-width="0.6"></line><line aria-label="CI 0.975: 0.933019338875; upper_Quantile.0.025(R): 1.04377515564; index: RO; Quantile.0.975(R): 1.04377515564; Quantile.0.025(R): 0.933019338875" role="graphics-symbol" aria-roledescription="errorbar" transform="translate(340.85656708667943,410)" x2="59.63774748805611" y2="0" stroke="blue" stroke-width="0.6"></line><line aria-label="CI 0.975: 0.957078642799; upper_Quantile.0.025(R): 1.02967119797; index: ES; Quantile.0.975(R): 1.02967119797; Quantile.0.025(R): 0.957078642799" role="graphics-symbol" aria-roledescription="errorbar" transform="translate(353.81157689161574,150)" x2="39.0882989376513" y2="0" stroke="blue" stroke-width="0.6"></line><line aria-label="CI 0.975: 0.940633798052; upper_Quantile.0.025(R): 1.07284923606; index: SE; Quantile.0.975(R): 1.07284923606; Quantile.0.025(R): 0.940633798052" role="graphics-symbol" aria-roledescription="errorbar" transform="translate(344.95666048950727,490)" x2="71.19292815997716" y2="0" stroke="blue" stroke-width="0.6"></line><line aria-label="CI 0.975: 0.966339273831; upper_Quantile.0.025(R): 1.0633267118; index: BA; Quantile.0.975(R): 1.0633267118; Quantile.0.025(R): 0.966339273831" role="graphics-symbol" aria-roledescription="errorbar" transform="translate(358.7980705241745,90)" x2="52.22400505991402" y2="0" stroke="blue" stroke-width="0.6"></line><line aria-label="CI 0.975: 0.984645381614; upper_Quantile.0.025(R): 1.05468246709; index: PI; Quantile.0.975(R): 1.05468246709; Quantile.0.025(R): 0.984645381614" role="graphics-symbol" aria-roledescription="errorbar" transform="translate(368.65520548457334,330)" x2="37.7122767939926" y2="0" stroke="blue" stroke-width="0.6"></line><line aria-label="CI 0.975: 1.03319204162; upper_Quantile.0.025(R): 1.0682328931; index: MG; Quantile.0.975(R): 1.0682328931; Quantile.0.025(R): 1.03319204162" role="graphics-symbol" aria-roledescription="errorbar" transform="translate(394.7957147202737,210)" x2="18.86815079538144" y2="0" stroke="blue" stroke-width="0.6"></line><line aria-label="CI 0.975: 1.0095310924; upper_Quantile.0.025(R): 1.09869165325; index: SP; Quantile.0.975(R): 1.09869165325; Quantile.0.025(R): 1.0095310924" role="graphics-symbol" aria-roledescription="errorbar" transform="translate(382.05520359765393,510)" x2="48.0095327660905" y2="0" stroke="blue" stroke-width="0.6"></line><line aria-label="CI 0.975: 0.990004476463; upper_Quantile.0.025(R): 1.12279710548; index: RR; Quantile.0.975(R): 1.12279710548; Quantile.0.025(R): 0.990004476463" role="graphics-symbol" aria-roledescription="errorbar" transform="translate(371.5408719415819,430)" x2="71.50372331530252" y2="0" stroke="blue" stroke-width="0.6"></line><line aria-label="CI 0.975: 0.990137361937; upper_Quantile.0.025(R): 1.12461171785; index: PE; Quantile.0.975(R): 1.12461171785; Quantile.0.025(R): 0.990137361937" role="graphics-symbol" aria-roledescription="errorbar" transform="translate(371.61242565814734,310)" x2="72.4092685668997" y2="0" stroke="blue" stroke-width="0.6"></line><line aria-label="CI 0.975: 1.02282329911; upper_Quantile.0.025(R): 1.10831131122; index: PA; Quantile.0.975(R): 1.10831131122; Quantile.0.025(R): 1.02282329911" role="graphics-symbol" aria-roledescription="errorbar" transform="translate(389.212545672571,270)" x2="46.03200652295186" y2="0" stroke="blue" stroke-width="0.6"></line><line aria-label="CI 0.975: 0.997575852393; upper_Quantile.0.025(R): 1.14125602867; index: RN; Quantile.0.975(R): 1.14125602867; Quantile.0.025(R): 0.997575852393" role="graphics-symbol" aria-roledescription="errorbar" transform="translate(375.6177666730305,390)" x2="77.36624876617782" y2="0" stroke="blue" stroke-width="0.6"></line><line aria-label="CI 0.975: 1.00180474596; upper_Quantile.0.025(R): 1.14421623501; index: AL; Quantile.0.975(R): 1.14421623501; Quantile.0.025(R): 1.00180474596" role="graphics-symbol" aria-roledescription="errorbar" transform="translate(377.89486320860595,30)" x2="76.68310949052756" y2="0" stroke="blue" stroke-width="0.6"></line><line aria-label="CI 0.975: 1.00026971413; upper_Quantile.0.025(R): 1.15385434704; index: AC; Quantile.0.975(R): 1.15385434704; Quantile.0.025(R): 1.00026971413" role="graphics-symbol" aria-roledescription="errorbar" transform="translate(377.06830761076174,10)" x2="82.69941771698308" y2="0" stroke="blue" stroke-width="0.6"></line><line aria-label="CI 0.975: 1.00944705692; upper_Quantile.0.025(R): 1.13517643342; index: RS; Quantile.0.975(R): 1.13517643342; Quantile.0.025(R): 1.00944705692" role="graphics-symbol" aria-roledescription="errorbar" transform="translate(382.0099537278778,450)" x2="67.70043349711818" y2="0" stroke="blue" stroke-width="0.6"></line><line aria-label="CI 0.975: 1.08164775063; upper_Quantile.0.025(R): 1.1676855791; index: MT; Quantile.0.975(R): 1.1676855791; Quantile.0.025(R): 1.08164775063" role="graphics-symbol" aria-roledescription="errorbar" transform="translate(420.88725033790223,250)" x2="46.32806148424493" y2="0" stroke="blue" stroke-width="0.6"></line><line aria-label="CI 0.975: 1.09672952808; upper_Quantile.0.025(R): 1.18416952407; index: MS; Quantile.0.975(R): 1.18416952407; Quantile.0.025(R): 1.09672952808" role="graphics-symbol" aria-roledescription="errorbar" transform="translate(429.0082074272761,230)" x2="47.08307476397698" y2="0" stroke="blue" stroke-width="0.6"></line><line aria-label="CI 0.975: 1.11845449085; upper_Quantile.0.025(R): 1.21588558535; index: AM; Quantile.0.975(R): 1.21588558535; Quantile.0.025(R): 1.11845449085" role="graphics-symbol" aria-roledescription="errorbar" transform="translate(440.70626430556575,50)" x2="52.462897034212745" y2="0" stroke="blue" stroke-width="0.6"></line><line aria-label="CI 0.975: 1.14374137138; upper_Quantile.0.025(R): 1.24300406719; index: PB; Quantile.0.975(R): 1.24300406719; Quantile.0.025(R): 1.14374137138" role="graphics-symbol" aria-roledescription="errorbar" transform="translate(454.3222768964448,290)" x2="53.4491438957665" y2="0" stroke="blue" stroke-width="0.6"></line><line aria-label="CI 0.975: 1.29279602386; upper_Quantile.0.025(R): 1.3674326616; index: GO; Quantile.0.975(R): 1.3674326616; Quantile.0.025(R): 1.29279602386" role="graphics-symbol" aria-roledescription="errorbar" transform="translate(534.5824743860836,170)" x2="40.1889587818996" y2="0" stroke="blue" stroke-width="0.6"></line><line aria-label="CI 0.975: 1.22831164184; upper_Quantile.0.025(R): 1.54583123899; index: RJ; Quantile.0.975(R): 1.54583123899; Quantile.0.025(R): 1.22831164184" role="graphics-symbol" aria-roledescription="errorbar" transform="translate(499.86011483711,370)" x2="170.97209077466334" y2="0" stroke="blue" stroke-width="0.6"></line></g><g class="mark-group role-title"><g transform="translate(350,-17.2)"><path class="background" aria-hidden="true" d="M0,0h0v0h0Z" pointer-events="none"></path><g><g class="mark-text role-title-text" role="graphics-symbol" aria-roledescription="title" aria-label="Title text 'Instantaneous reproduction number estimate for all states in Brazil'" pointer-events="none"><text text-anchor="middle" transform="translate(0,10)" font-family="sans-serif" font-size="13px" font-weight="bold" fill="#000" opacity="1">Instantaneous reproduction number estimate for all states in Brazil</text></g></g><path class="foreground" aria-hidden="true" d="" pointer-events="none" display="none"></path></g></g></g><path class="foreground" aria-hidden="true" d="" display="none"></path></g></g></g></svg>