<svg class="marks" width="749" height="600" viewBox="0 0 749 600" version="1.1" xmlns="http://www.w3.org/2000/svg" xmlns:xlink="http://www.w3.org/1999/xlink"><rect width="749" height="600" fill="white"></rect><g fill="none" stroke-miterlimit="10" transform="translate(43,23)"><g class="mark-group role-frame root" role="graphics-object" aria-roledescription="group mark container"><g transform="translate(0,0)"><path class="background" aria-hidden="true" d="M0.5,0.5h700v540h-700Z"></path><g><g class="mark-group role-axis" aria-hidden="true"><g transform="translate(0.5,0.5)"><path class="background" aria-hidden="true" d="M0,0h0v0h0Z" pointer-events="none"></path><g><g class="mark-rule role-axis-grid" pointer-events="none"><line transform="translate(0,10)" x2="700" y2="0" stroke="#ddd" stroke-width="1" opacity="1"></line><line transform="translate(0,30)" x2="700" y2="0" stroke="#ddd" stroke-width="1" opacity="1"></line><line transform="translate(0,50)" x2="700" y2="0" stroke="#ddd" stroke-width="1" opacity="1"></line><line transform="translate(0,70)" x2="700" y2="0" stroke="#ddd" stroke-width="1" opacity="1"></line><line transform="translate(0,90)" x2="700" y2="0" stroke="#ddd" stroke-width="1" opacity="1"></line><line transform="translate(0,110)" x2="700" y2="0" stroke="#ddd" stroke-width="1" opacity="1"></line><line transform="translate(0,130)" x2="700" y2="0" stroke="#ddd" stroke-width="1" opacity="1"></line><line transform="translate(0,150)" x2="700" y2="0" stroke="#ddd" stroke-width="1" opacity="1"></line><line transform="translate(0,170)" x2="700" y2="0" stroke="#ddd" stroke-width="1" opacity="1"></line><line transform="translate(0,190)" x2="700" y2="0" stroke="#ddd" stroke-width="1" opacity="1"></line><line transform="translate(0,210)" x2="700" y2="0" stroke="#ddd" stroke-width="1" opacity="1"></line><line transform="translate(0,230)" x2="700" y2="0" stroke="#ddd" stroke-width="1" opacity="1"></line><line transform="translate(0,250)" x2="700" y2="0" stroke="#ddd" stroke-width="1" opacity="1"></line><line transform="translate(0,270)" x2="700" y2="0" stroke="#ddd" stroke-width="1" opacity="1"></line><line transform="translate(0,290)" x2="700" y2="0" stroke="#ddd" stroke-width="1" opacity="1"></line><line transform="translate(0,310)" x2="700" y2="0" stroke="#ddd" stroke-width="1" opacity="1"></line><line transform="translate(0,330)" x2="700" y2="0" stroke="#ddd" stroke-width="1" opacity="1"></line><line transform="translate(0,350)" x2="700" y2="0" stroke="#ddd" stroke-width="1" opacity="1"></line><line transform="translate(0,370)" x2="700" y2="0" stroke="#ddd" stroke-width="1" opacity="1"></line><line transform="translate(0,390)" x2="700" y2="0" stroke="#ddd" stroke-width="1" opacity="1"></line><line transform="translate(0,410)" x2="700" y2="0" stroke="#ddd" stroke-width="1" opacity="1"></line><line transform="translate(0,430)" x2="700" y2="0" stroke="#ddd" stroke-width="1" opacity="1"></line><line transform="translate(0,450)" x2="700" y2="0" stroke="#ddd" stroke-width="1" opacity="1"></line><line transform="translate(0,470)" x2="700" y2="0" stroke="#ddd" stroke-width="1" opacity="1"></line><line transform="translate(0,490)" x2="700" y2="0" stroke="#ddd" stroke-width="1" opacity="1"></line><line transform="translate(0,510)" x2="700" y2="0" stroke="#ddd" stroke-width="1" opacity="1"></line><line transform="translate(0,530)" x2="700" y2="0" stroke="#ddd" stroke-width="1" opacity="1"></line></g></g><path class="foreground" aria-hidden="true" d="" pointer-events="none" display="none"></path></g></g><g class="mark-group role-axis" role="graphics-symbol" aria-roledescription="axis" aria-label="X-axis titled 'Instantaneous reproduction number R(t), CI 0.975' for a linear scale with values from 0.7 to 1.3"><g transform="translate(0.5,540.5)"><path class="background" aria-hidden="true" d="M0,0h0v0h0Z" pointer-events="none"></path><g><g class="mark-rule role-axis-tick" pointer-events="none"><line transform="translate(0,0)" x2="0" y2="5" stroke="#888" stroke-width="1" opacity="1"></line><line transform="translate(54,0)" x2="0" y2="5" stroke="#888" stroke-width="1" opacity="1"></line><line transform="translate(108,0)" x2="0" y2="5" stroke="#888" stroke-width="1" opacity="1"></line><line transform="translate(162,0)" x2="0" y2="5" stroke="#888" stroke-width="1" opacity="1"></line><line transform="translate(215,0)" x2="0" y2="5" stroke="#888" stroke-width="1" opacity="1"></line><line transform="translate(269,0)" x2="0" y2="5" stroke="#888" stroke-width="1" opacity="1"></line><line transform="translate(323,0)" x2="0" y2="5" stroke="#888" stroke-width="1" opacity="1"></line><line transform="translate(377,0)" x2="0" y2="5" stroke="#888" stroke-width="1" opacity="1"></line><line transform="translate(431,0)" x2="0" y2="5" stroke="#888" stroke-width="1" opacity="1"></line><line transform="translate(485,0)" x2="0" y2="5" stroke="#888" stroke-width="1" opacity="1"></line><line transform="translate(538,0)" x2="0" y2="5" stroke="#888" stroke-width="1" opacity="1"></line><line transform="translate(592,0)" x2="0" y2="5" stroke="#888" stroke-width="1" opacity="1"></line><line transform="translate(646,0)" x2="0" y2="5" stroke="#888" stroke-width="1" opacity="1"></line><line transform="translate(700,0)" x2="0" y2="5" stroke="#888" stroke-width="1" opacity="1"></line></g><g class="mark-text role-axis-label" pointer-events="none"><text text-anchor="start" transform="translate(0,15)" font-family="sans-serif" font-size="10px" fill="#000" opacity="1">0.65</text><text text-anchor="middle" transform="translate(53.84615384615377,15)" font-family="sans-serif" font-size="10px" fill="#000" opacity="1">0.70</text><text text-anchor="middle" transform="translate(107.69230769230766,15)" font-family="sans-serif" font-size="10px" fill="#000" opacity="1">0.75</text><text text-anchor="middle" transform="translate(161.53846153846155,15)" font-family="sans-serif" font-size="10px" fill="#000" opacity="1">0.80</text><text text-anchor="middle" transform="translate(215.38461538461533,15)" font-family="sans-serif" font-size="10px" fill="#000" opacity="1">0.85</text><text text-anchor="middle" transform="translate(269.2307692307692,15)" font-family="sans-serif" font-size="10px" fill="#000" opacity="1">0.90</text><text text-anchor="middle" transform="translate(323.076923076923,15)" font-family="sans-serif" font-size="10px" fill="#000" opacity="1">0.95</text><text text-anchor="middle" transform="translate(376.9230769230769,15)" font-family="sans-serif" font-size="10px" fill="#000" opacity="1">1.00</text><text text-anchor="middle" transform="translate(430.7692307692308,15)" font-family="sans-serif" font-size="10px" fill="#000" opacity="1">1.05</text><text text-anchor="middle" transform="translate(484.6153846153847,15)" font-family="sans-serif" font-size="10px" fill="#000" opacity="1">1.10</text><text text-anchor="middle" transform="translate(538.4615384615383,15)" font-family="sans-serif" font-size="10px" fill="#000" opacity="1">1.15</text><text text-anchor="middle" transform="translate(592.3076923076923,15)" font-family="sans-serif" font-size="10px" fill="#000" opacity="1">1.20</text><text text-anchor="middle" transform="translate(646.1538461538461,15)" font-family="sans-serif" font-size="10px" fill="#000" opacity="1">1.25</text><text text-anchor="end" transform="translate(700,15)" font-family="sans-serif" font-size="10px" fill="#000" opacity="1">1.30</text></g><g class="mark-rule role-axis-domain" pointer-events="none"><line transform="translate(0,0)" x2="700" y2="0" stroke="#888" stroke-width="1" opacity="1"></line></g><g class="mark-text role-axis-title" pointer-events="none"><text text-anchor="middle" transform="translate(350,30)" font-family="sans-serif" font-size="11px" font-weight="bold" fill="#000" opacity="1">Instantaneous reproduction number R(t), CI 0.975</text></g></g><path class="foreground" aria-hidden="true" d="" pointer-events="none" display="none"></path></g></g><g class="mark-group role-axis" role="graphics-symbol" aria-roledescription="axis" aria-label="Y-axis titled 'States' for a discrete scale with 27 values: AC, AL, AM, AP, BA, ending with TO"><g transform="translate(0.5,0.5)"><path class="background" aria-hidden="true" d="M0,0h0v0h0Z" pointer-events="none"></path><g><g class="mark-rule role-axis-tick" pointer-events="none"><line transform="translate(0,10)" x2="-5" y2="0" stroke="#888" stroke-width="1" opacity="1"></line><line transform="translate(0,30)" x2="-5" y2="0" stroke="#888" stroke-width="1" opacity="1"></line><line transform="translate(0,50)" x2="-5" y2="0" stroke="#888" stroke-width="1" opacity="1"></line><line transform="translate(0,70)" x2="-5" y2="0" stroke="#888" stroke-width="1" opacity="1"></line><line transform="translate(0,90)" x2="-5" y2="0" stroke="#888" stroke-width="1" opacity="1"></line><line transform="translate(0,110)" x2="-5" y2="0" stroke="#888" stroke-width="1" opacity="1"></line><line transform="translate(0,130)" x2="-5" y2="0" stroke="#888" stroke-width="1" opacity="1"></line><line transform="translate(0,150)" x2="-5" y2="0" stroke="#888" stroke-width="1" opacity="1"></line><line transform="translate(0,170)" x2="-5" y2="0" stroke="#888" stroke-width="1" opacity="1"></line><line transform="translate(0,190)" x2="-5" y2="0" stroke="#888" stroke-width="1" opacity="1"></line><line transform="translate(0,210)" x2="-5" y2="0" stroke="#888" stroke-width="1" opacity="1"></line><line transform="translate(0,230)" x2="-5" y2="0" stroke="#888" stroke-width="1" opacity="1"></line><line transform="translate(0,250)" x2="-5" y2="0" stroke="#888" stroke-width="1" opacity="1"></line><line transform="translate(0,270)" x2="-5" y2="0" stroke="#888" stroke-width="1" opacity="1"></line><line transform="translate(0,290)" x2="-5" y2="0" stroke="#888" stroke-width="1" opacity="1"></line><line transform="translate(0,310)" x2="-5" y2="0" stroke="#888" stroke-width="1" opacity="1"></line><line transform="translate(0,330)" x2="-5" y2="0" stroke="#888" stroke-width="1" opacity="1"></line><line transform="translate(0,350)" x2="-5" y2="0" stroke="#888" stroke-width="1" opacity="1"></line><line transform="translate(0,370)" x2="-5" y2="0" stroke="#888" stroke-width="1" opacity="1"></line><line transform="translate(0,390)" x2="-5" y2="0" stroke="#888" stroke-width="1" opacity="1"></line><line transform="translate(0,410)" x2="-5" y2="0" stroke="#888" stroke-width="1" opacity="1"></line><line transform="translate(0,430)" x2="-5" y2="0" stroke="#888" stroke-width="1" opacity="1"></line><line transform="translate(0,450)" x2="-5" y2="0" stroke="#888" stroke-width="1" opacity="1"></line><line transform="translate(0,470)" x2="-5" y2="0" stroke="#888" stroke-width="1" opacity="1"></line><line transform="translate(0,490)" x2="-5" y2="0" stroke="#888" stroke-width="1" opacity="1"></line><line transform="translate(0,510)" x2="-5" y2="0" stroke="#888" stroke-width="1" opacity="1"></line><line transform="translate(0,530)" x2="-5" y2="0" stroke="#888" stroke-width="1" opacity="1"></line></g><g class="mark-text role-axis-label" pointer-events="none"><text text-anchor="end" transform="translate(-7,12.5)" font-family="sans-serif" font-size="10px" fill="#000" opacity="1">AC</text><text text-anchor="end" transform="translate(-7,32.5)" font-family="sans-serif" font-size="10px" fill="#000" opacity="1">AL</text><text text-anchor="end" transform="translate(-7,52.5)" font-family="sans-serif" font-size="10px" fill="#000" opacity="1">AM</text><text text-anchor="end" transform="translate(-7,72.5)" font-family="sans-serif" font-size="10px" fill="#000" opacity="1">AP</text><text text-anchor="end" transform="translate(-7,92.5)" font-family="sans-serif" font-size="10px" fill="#000" opacity="1">BA</text><text text-anchor="end" transform="translate(-7,112.5)" font-family="sans-serif" font-size="10px" fill="#000" opacity="1">CE</text><text text-anchor="end" transform="translate(-7,132.5)" font-family="sans-serif" font-size="10px" fill="#000" opacity="1">DF</text><text text-anchor="end" transform="translate(-7,152.5)" font-family="sans-serif" font-size="10px" fill="#000" opacity="1">ES</text><text text-anchor="end" transform="translate(-7,172.5)" font-family="sans-serif" font-size="10px" fill="#000" opacity="1">GO</text><text text-anchor="end" transform="translate(-7,192.5)" font-family="sans-serif" font-size="10px" fill="#000" opacity="1">MA</text><text text-anchor="end" transform="translate(-7,212.5)" font-family="sans-serif" font-size="10px" fill="#000" opacity="1">MG</text><text text-anchor="end" transform="translate(-7,232.5)" font-family="sans-serif" font-size="10px" fill="#000" opacity="1">MS</text><text text-anchor="end" transform="translate(-7,252.5)" font-family="sans-serif" font-size="10px" fill="#000" opacity="1">MT</text><text text-anchor="end" transform="translate(-7,272.5)" font-family="sans-serif" font-size="10px" fill="#000" opacity="1">PA</text><text text-anchor="end" transform="translate(-7,292.5)" font-family="sans-serif" font-size="10px" fill="#000" opacity="1">PB</text><text text-anchor="end" transform="translate(-7,312.5)" font-family="sans-serif" font-size="10px" fill="#000" opacity="1">PE</text><text text-anchor="end" transform="translate(-7,332.5)" font-family="sans-serif" font-size="10px" fill="#000" opacity="1">PI</text><text text-anchor="end" transform="translate(-7,352.5)" font-family="sans-serif" font-size="10px" fill="#000" opacity="1">PR</text><text text-anchor="end" transform="translate(-7,372.5)" font-family="sans-serif" font-size="10px" fill="#000" opacity="1">RJ</text><text text-anchor="end" transform="translate(-7,392.5)" font-family="sans-serif" font-size="10px" fill="#000" opacity="1">RN</text><text text-anchor="end" transform="translate(-7,412.5)" font-family="sans-serif" font-size="10px" fill="#000" opacity="1">RO</text><text text-anchor="end" transform="translate(-7,432.5)" font-family="sans-serif" font-size="10px" fill="#000" opacity="1">RR</text><text text-anchor="end" transform="translate(-7,452.5)" font-family="sans-serif" font-size="10px" fill="#000" opacity="1">RS</text><text text-anchor="end" transform="translate(-7,472.5)" font-family="sans-serif" font-size="10px" fill="#000" opacity="1">SC</text><text text-anchor="end" transform="translate(-7,492.5)" font-family="sans-serif" font-size="10px" fill="#000" opacity="1">SE</text><text text-anchor="end" transform="translate(-7,512.5)" font-family="sans-serif" font-size="10px" fill="#000" opacity="1">SP</text><text text-anchor="end" transform="translate(-7,532.5)" font-family="sans-serif" font-size="10px" fill="#000" opacity="1">TO</text></g><g class="mark-rule role-axis-domain" pointer-events="none"><line transform="translate(0,0)" x2="0" y2="540" stroke="#888" stroke-width="1" opacity="1"></line></g><g class="mark-text role-axis-title" pointer-events="none"><text text-anchor="middle" transform="translate(-27,270) rotate(-90) translate(0,-2)" font-family="sans-serif" font-size="11px" font-weight="bold" fill="#000" opacity="1">States</text></g></g><path class="foreground" aria-hidden="true" d="" pointer-events="none" display="none"></path></g></g><g class="mark-symbol role-mark layer_0_marks" role="graphics-object" aria-roledescription="symbol mark container"><path aria-label="Instantaneous reproduction number R(t): 0.723491566881; States: SE" role="graphics-symbol" aria-roledescription="point" transform="translate(79.14476433348386,490)" d="M2.7386127875258306,0A2.7386127875258306,2.7386127875258306,0,1,1,-2.7386127875258306,0A2.7386127875258306,2.7386127875258306,0,1,1,2.7386127875258306,0" stroke="#4c78a8" stroke-width="2" opacity="0.7"></path><path aria-label="Instantaneous reproduction number R(t): 0.824553246944; States: CE" role="graphics-symbol" aria-roledescription="point" transform="translate(187.98041978546556,110)" d="M2.7386127875258306,0A2.7386127875258306,2.7386127875258306,0,1,1,-2.7386127875258306,0A2.7386127875258306,2.7386127875258306,0,1,1,2.7386127875258306,0" stroke="#4c78a8" stroke-width="2" opacity="0.7"></path><path aria-label="Instantaneous reproduction number R(t): 0.851510380568; States: PE" role="graphics-symbol" aria-roledescription="point" transform="translate(217.01117907299363,310)" d="M2.7386127875258306,0A2.7386127875258306,2.7386127875258306,0,1,1,-2.7386127875258306,0A2.7386127875258306,2.7386127875258306,0,1,1,2.7386127875258306,0" stroke="#4c78a8" stroke-width="2" opacity="0.7"></path><path aria-label="Instantaneous reproduction number R(t): 0.859733551225; States: PB" role="graphics-symbol" aria-roledescription="point" transform="translate(225.866901319149,290)" d="M2.7386127875258306,0A2.7386127875258306,2.7386127875258306,0,1,1,-2.7386127875258306,0A2.7386127875258306,2.7386127875258306,0,1,1,2.7386127875258306,0" stroke="#4c78a8" stroke-width="2" opacity="0.7"></path><path aria-label="Instantaneous reproduction number R(t): 0.886104584033; States: AM" role="graphics-symbol" aria-roledescription="point" transform="translate(254.26647511259142,50)" d="M2.7386127875258306,0A2.7386127875258306,2.7386127875258306,0,1,1,-2.7386127875258306,0A2.7386127875258306,2.7386127875258306,0,1,1,2.7386127875258306,0" stroke="#4c78a8" stroke-width="2" opacity="0.7"></path><path aria-label="Instantaneous reproduction number R(t): 0.923432641576; States: RJ" role="graphics-symbol" aria-roledescription="point" transform="translate(294.46592169704456,370)" d="M2.7386127875258306,0A2.7386127875258306,2.7386127875258306,0,1,1,-2.7386127875258306,0A2.7386127875258306,2.7386127875258306,0,1,1,2.7386127875258306,0" stroke="#4c78a8" stroke-width="2" opacity="0.7"></path><path aria-label="Instantaneous reproduction number R(t): 0.92727309056; States: SP" role="graphics-symbol" aria-roledescription="point" transform="translate(298.60178983397975,510)" d="M2.7386127875258306,0A2.7386127875258306,2.7386127875258306,0,1,1,-2.7386127875258306,0A2.7386127875258306,2.7386127875258306,0,1,1,2.7386127875258306,0" stroke="#4c78a8" stroke-width="2" opacity="0.7"></path><path aria-label="Instantaneous reproduction number R(t): 0.94950800174; States: ES" role="graphics-symbol" aria-roledescription="point" transform="translate(322.54707879688027,150)" d="M2.7386127875258306,0A2.7386127875258306,2.7386127875258306,0,1,1,-2.7386127875258306,0A2.7386127875258306,2.7386127875258306,0,1,1,2.7386127875258306,0" stroke="#4c78a8" stroke-width="2" opacity="0.7"></path><path aria-label="Instantaneous reproduction number R(t): 0.962726079895; States: MT" role="graphics-symbol" aria-roledescription="point" transform="translate(336.78193219458825,250)" d="M2.7386127875258306,0A2.7386127875258306,2.7386127875258306,0,1,1,-2.7386127875258306,0A2.7386127875258306,2.7386127875258306,0,1,1,2.7386127875258306,0" stroke="#4c78a8" stroke-width="2" opacity="0.7"></path><path aria-label="Instantaneous reproduction number R(t): 0.966674837175; States: SC" role="graphics-symbol" aria-roledescription="point" transform="translate(341.03444003435544,470)" d="M2.7386127875258306,0A2.7386127875258306,2.7386127875258306,0,1,1,-2.7386127875258306,0A2.7386127875258306,2.7386127875258306,0,1,1,2.7386127875258306,0" stroke="#4c78a8" stroke-width="2" opacity="0.7"></path><path aria-label="Instantaneous reproduction number R(t): 0.966954474579; States: BA" role="graphics-symbol" aria-roledescription="point" transform="translate(341.33558800767264,90)" d="M2.7386127875258306,0A2.7386127875258306,2.7386127875258306,0,1,1,-2.7386127875258306,0A2.7386127875258306,2.7386127875258306,0,1,1,2.7386127875258306,0" stroke="#4c78a8" stroke-width="2" opacity="0.7"></path><path aria-label="Instantaneous reproduction number R(t): 0.972679247393; States: MG" role="graphics-symbol" aria-roledescription="point" transform="translate(347.5007279613146,210)" d="M2.7386127875258306,0A2.7386127875258306,2.7386127875258306,0,1,1,-2.7386127875258306,0A2.7386127875258306,2.7386127875258306,0,1,1,2.7386127875258306,0" stroke="#4c78a8" stroke-width="2" opacity="0.7"></path><path aria-label="Instantaneous reproduction number R(t): 0.974495740621; States: AL" role="graphics-symbol" aria-roledescription="point" transform="translate(349.4569514384427,30)" d="M2.7386127875258306,0A2.7386127875258306,2.7386127875258306,0,1,1,-2.7386127875258306,0A2.7386127875258306,2.7386127875258306,0,1,1,2.7386127875258306,0" stroke="#4c78a8" stroke-width="2" opacity="0.7"></path><path aria-label="Instantaneous reproduction number R(t): 0.988284369114; States: MA" role="graphics-symbol" aria-roledescription="point" transform="translate(364.30624366093264,190)" d="M2.7386127875258306,0A2.7386127875258306,2.7386127875258306,0,1,1,-2.7386127875258306,0A2.7386127875258306,2.7386127875258306,0,1,1,2.7386127875258306,0" stroke="#4c78a8" stroke-width="2" opacity="0.7"></path><path aria-label="Instantaneous reproduction number R(t): 0.989575186908; States: DF" role="graphics-symbol" aria-roledescription="point" transform="translate(365.6963551318036,130)" d="M2.7386127875258306,0A2.7386127875258306,2.7386127875258306,0,1,1,-2.7386127875258306,0A2.7386127875258306,2.7386127875258306,0,1,1,2.7386127875258306,0" stroke="#4c78a8" stroke-width="2" opacity="0.7"></path><path aria-label="Instantaneous reproduction number R(t): 0.990266835324; States: RO" role="graphics-symbol" aria-roledescription="point" transform="translate(366.44120727200095,410)" d="M2.7386127875258306,0A2.7386127875258306,2.7386127875258306,0,1,1,-2.7386127875258306,0A2.7386127875258306,2.7386127875258306,0,1,1,2.7386127875258306,0" stroke="#4c78a8" stroke-width="2" opacity="0.7"></path><path aria-label="Instantaneous reproduction number R(t): 0.995939586026; States: PI" role="graphics-symbol" aria-roledescription="point" transform="translate(372.55032341259044,330)" d="M2.7386127875258306,0A2.7386127875258306,2.7386127875258306,0,1,1,-2.7386127875258306,0A2.7386127875258306,2.7386127875258306,0,1,1,2.7386127875258306,0" stroke="#4c78a8" stroke-width="2" opacity="0.7"></path><path aria-label="Instantaneous reproduction number R(t): 1.00581778442; States: MS" role="graphics-symbol" aria-roledescription="point" transform="translate(383.18838322457555,230)" d="M2.7386127875258306,0A2.7386127875258306,2.7386127875258306,0,1,1,-2.7386127875258306,0A2.7386127875258306,2.7386127875258306,0,1,1,2.7386127875258306,0" stroke="#4c78a8" stroke-width="2" opacity="0.7"></path><path aria-label="Instantaneous reproduction number R(t): 1.03027011825; States: RN" role="graphics-symbol" aria-roledescription="point" transform="translate(409.52166580256426,390)" d="M2.7386127875258306,0A2.7386127875258306,2.7386127875258306,0,1,1,-2.7386127875258306,0A2.7386127875258306,2.7386127875258306,0,1,1,2.7386127875258306,0" stroke="#4c78a8" stroke-width="2" opacity="0.7"></path><path aria-label="Instantaneous reproduction number R(t): 1.03389224161; States: RR" role="graphics-symbol" aria-roledescription="point" transform="translate(413.4224140410377,430)" d="M2.7386127875258306,0A2.7386127875258306,2.7386127875258306,0,1,1,-2.7386127875258306,0A2.7386127875258306,2.7386127875258306,0,1,1,2.7386127875258306,0" stroke="#4c78a8" stroke-width="2" opacity="0.7"></path><path aria-label="Instantaneous reproduction number R(t): 1.03854438135; States: AP" role="graphics-symbol" aria-roledescription="point" transform="translate(418.4324106798505,70)" d="M2.7386127875258306,0A2.7386127875258306,2.7386127875258306,0,1,1,-2.7386127875258306,0A2.7386127875258306,2.7386127875258306,0,1,1,2.7386127875258306,0" stroke="#4c78a8" stroke-width="2" opacity="0.7"></path><path aria-label="Instantaneous reproduction number R(t): 1.06008081805; States: GO" role="graphics-symbol" aria-roledescription="point" transform="translate(441.6254963660192,170)" d="M2.7386127875258306,0A2.7386127875258306,2.7386127875258306,0,1,1,-2.7386127875258306,0A2.7386127875258306,2.7386127875258306,0,1,1,2.7386127875258306,0" stroke="#4c78a8" stroke-width="2" opacity="0.7"></path><path aria-label="Instantaneous reproduction number R(t): 1.0939486061; States: RS" role="graphics-symbol" aria-roledescription="point" transform="translate(478.0984988812965,450)" d="M2.7386127875258306,0A2.7386127875258306,2.7386127875258306,0,1,1,-2.7386127875258306,0A2.7386127875258306,2.7386127875258306,0,1,1,2.7386127875258306,0" stroke="#4c78a8" stroke-width="2" opacity="0.7"></path><path aria-label="Instantaneous reproduction number R(t): 1.09462412211; States: PR" role="graphics-symbol" aria-roledescription="point" transform="translate(478.8259776595476,350)" d="M2.7386127875258306,0A2.7386127875258306,2.7386127875258306,0,1,1,-2.7386127875258306,0A2.7386127875258306,2.7386127875258306,0,1,1,2.7386127875258306,0" stroke="#4c78a8" stroke-width="2" opacity="0.7"></path><path aria-label="Instantaneous reproduction number R(t): 1.11358074517; States: PA" role="graphics-symbol" aria-roledescription="point" transform="translate(499.24080249204536,270)" d="M2.7386127875258306,0A2.7386127875258306,2.7386127875258306,0,1,1,-2.7386127875258306,0A2.7386127875258306,2.7386127875258306,0,1,1,2.7386127875258306,0" stroke="#4c78a8" stroke-width="2" opacity="0.7"></path><path aria-label="Instantaneous reproduction number R(t): 1.13465080764; States: TO" role="graphics-symbol" aria-roledescription="point" transform="translate(521.9316389995176,530)" d="M2.7386127875258306,0A2.7386127875258306,2.7386127875258306,0,1,1,-2.7386127875258306,0A2.7386127875258306,2.7386127875258306,0,1,1,2.7386127875258306,0" stroke="#4c78a8" stroke-width="2" opacity="0.7"></path><path aria-label="Instantaneous reproduction number R(t): 1.19096049309; States: AC" role="graphics-symbol" aria-roledescription="point" transform="translate(582.5728387112024,10)" d="M2.7386127875258306,0A2.7386127875258306,2.7386127875258306,0,1,1,-2.7386127875258306,0A2.7386127875258306,2.7386127875258306,0,1,1,2.7386127875258306,0" stroke="#4c78a8" stroke-width="2" opacity="0.7"></path></g><g class="mark-rule role-mark layer_1_marks" role="graphics-object" aria-roledescription="rule mark container"><line aria-label="a: 1" role="graphics-symbol" aria-roledescription="rule mark" transform="translate(376.9230769230769,0)" x2="0" y2="540" stroke="black" stroke-width="0.2"></line><line aria-label="a: 1" role="graphics-symbol" aria-roledescription="rule mark" transform="translate(376.9230769230769,0)" x2="0" y2="540" stroke="black" stroke-width="0.2"></line><line aria-label="a: 1" role="graphics-symbol" aria-roledescription="rule mark" transform="translate(376.9230769230769,0)" x2="0" y2="540" stroke="black" stroke-width="0.2"></line><line aria-label="a: 1" role="graphics-symbol" aria-roledescription="rule mark" transform="translate(376.9230769230769,0)" x2="0" y2="540" stroke="black" stroke-width="0.2"></line><line aria-label="a: 1" role="graphics-symbol" aria-roledescription="rule mark" transform="translate(376.9230769230769,0)" x2="0" y2="540" stroke="black" stroke-width="0.2"></line><line aria-label="a: 1" role="graphics-symbol" aria-roledescription="rule mark" transform="translate(376.9230769230769,0)" x2="0" y2="540" stroke="black" stroke-width="0.2"></line><line aria-label="a: 1" role="graphics-symbol" aria-roledescription="rule mark" transform="translate(376.9230769230769,0)" x2="0" y2="540" stroke="black" stroke-width="0.2"></line><line aria-label="a: 1" role="graphics-symbol" aria-roledescription="rule mark" transform="translate(376.9230769230769,0)" x2="0" y2="540" stroke="black" stroke-width="0.2"></line><line aria-label="a: 1" role="graphics-symbol" aria-roledescription="rule mark" transform="translate(376.9230769230769,0)" x2="0" y2="540" stroke="black" stroke-width="0.2"></line><line aria-label="a: 1" role="graphics-symbol" aria-roledescription="rule mark" transform="translate(376.9230769230769,0)" x2="0" y2="540" stroke="black" stroke-width="0.2"></line><line aria-label="a: 1" role="graphics-symbol" aria-roledescription="rule mark" transform="translate(376.9230769230769,0)" x2="0" y2="540" stroke="black" stroke-width="0.2"></line><line aria-label="a: 1" role="graphics-symbol" aria-roledescription="rule mark" transform="translate(376.9230769230769,0)" x2="0" y2="540" stroke="black" stroke-width="0.2"></line><line aria-label="a: 1" role="graphics-symbol" aria-roledescription="rule mark" transform="translate(376.9230769230769,0)" x2="0" y2="540" stroke="black" stroke-width="0.2"></line><line aria-label="a: 1" role="graphics-symbol" aria-roledescription="rule mark" transform="translate(376.9230769230769,0)" x2="0" y2="540" stroke="black" stroke-width="0.2"></line><line aria-label="a: 1" role="graphics-symbol" aria-roledescription="rule mark" transform="translate(376.9230769230769,0)" x2="0" y2="540" stroke="black" stroke-width="0.2"></line><line aria-label="a: 1" role="graphics-symbol" aria-roledescription="rule mark" transform="translate(376.9230769230769,0)" x2="0" y2="540" stroke="black" stroke-width="0.2"></line><line aria-label="a: 1" role="graphics-symbol" aria-roledescription="rule mark" transform="translate(376.9230769230769,0)" x2="0" y2="540" stroke="black" stroke-width="0.2"></line><line aria-label="a: 1" role="graphics-symbol" aria-roledescription="rule mark" transform="translate(376.9230769230769,0)" x2="0" y2="540" stroke="black" stroke-width="0.2"></line><line aria-label="a: 1" role="graphics-symbol" aria-roledescription="rule mark" transform="translate(376.9230769230769,0)" x2="0" y2="540" stroke="black" stroke-width="0.2"></line><line aria-label="a: 1" role="graphics-symbol" aria-roledescription="rule mark" transform="translate(376.9230769230769,0)" x2="0" y2="540" stroke="black" stroke-width="0.2"></line><line aria-label="a: 1" role="graphics-symbol" aria-roledescription="rule mark" transform="translate(376.9230769230769,0)" x2="0" y2="540" stroke="black" stroke-width="0.2"></line><line aria-label="a: 1" role="graphics-symbol" aria-roledescription="rule mark" transform="translate(376.9230769230769,0)" x2="0" y2="540" stroke="black" stroke-width="0.2"></line><line aria-label="a: 1" role="graphics-symbol" aria-roledescription="rule mark" transform="translate(376.9230769230769,0)" x2="0" y2="540" stroke="black" stroke-width="0.2"></line><line aria-label="a: 1" role="graphics-symbol" aria-roledescription="rule mark" transform="translate(376.9230769230769,0)" x2="0" y2="540" stroke="black" stroke-width="0.2"></line><line aria-label="a: 1" role="graphics-symbol" aria-roledescription="rule mark" transform="translate(376.9230769230769,0)" x2="0" y2="540" stroke="black" stroke-width="0.2"></line><line aria-label="a: 1" role="graphics-symbol" aria-roledescription="rule mark" transform="translate(376.9230769230769,0)" x2="0" y2="540" stroke="black" stroke-width="0.2"></line><line aria-label="a: 1" role="graphics-symbol" aria-roledescription="rule mark" transform="translate(376.9230769230769,0)" x2="0" y2="540" stroke="black" stroke-width="0.2"></line></g><g class="mark-rule role-mark layer_2_marks" role="graphics-object" aria-roledescription="rule mark container"><line aria-label="CI 0.975: 0.67719376178; upper_Quantile.0.025(R): 0.778377068028; index: SE; Quantile.0.975(R): 0.778377068028; Quantile.0.025(R): 0.67719376178" role="graphics-symbol" aria-roledescription="errorbar" transform="translate(29.28558960973113,490)" x2="108.96663749704804" y2="0" stroke="blue" stroke-width="0.6"></line><line aria-label="CI 0.975: 0.793377928263; upper_Quantile.0.025(R): 0.864946369178; index: CE; Quantile.0.975(R): 0.864946369178; Quantile.0.025(R): 0.793377928263" role="graphics-symbol" aria-roledescription="errorbar" transform="translate(154.40699966792639,110)" x2="77.07370560036355" y2="0" stroke="blue" stroke-width="0.6"></line><line aria-label="CI 0.975: 0.819619461308; upper_Quantile.0.025(R): 0.884370652648; index: PE; Quantile.0.975(R): 0.884370652648; Quantile.0.025(R): 0.819619461308" role="graphics-symbol" aria-roledescription="errorbar" transform="translate(182.66711217801677,310)" x2="69.73205221171136" y2="0" stroke="blue" stroke-width="0.6"></line><line aria-label="CI 0.975: 0.82806429172; upper_Quantile.0.025(R): 0.892308407149; index: PB; Quantile.0.975(R): 0.892308407149; Quantile.0.025(R): 0.82806429172" role="graphics-symbol" aria-roledescription="errorbar" transform="translate(191.76154492955544,290)" x2="69.18597046152433" y2="0" stroke="blue" stroke-width="0.6"></line><line aria-label="CI 0.975: 0.852756609506; upper_Quantile.0.025(R): 0.920232600887; index: AM; Quantile.0.975(R): 0.920232600887; Quantile.0.025(R): 0.852756609506" role="graphics-symbol" aria-roledescription="errorbar" transform="translate(218.35327177590088,50)" x2="72.66645225620297" y2="0" stroke="blue" stroke-width="0.6"></line><line aria-label="CI 0.975: 0.873026393466; upper_Quantile.0.025(R): 0.975438635187; index: RJ; Quantile.0.975(R): 0.975438635187; Quantile.0.025(R): 0.873026393466" role="graphics-symbol" aria-roledescription="errorbar" transform="translate(240.18226988689355,370)" x2="110.2901064682357" y2="0" stroke="blue" stroke-width="0.6"></line><line aria-label="CI 0.975: 0.905814264733; upper_Quantile.0.025(R): 0.945814647106; index: SP; Quantile.0.975(R): 0.945814647106; Quantile.0.025(R): 0.905814264733" role="graphics-symbol" aria-roledescription="errorbar" transform="translate(275.4922850972097,510)" x2="43.0773348632614" y2="0" stroke="blue" stroke-width="0.6"></line><line aria-label="CI 0.975: 0.922497994469; upper_Quantile.0.025(R): 0.97681508244; index: ES; Quantile.0.975(R): 0.97681508244; Quantile.0.025(R): 0.922497994469" role="graphics-symbol" aria-roledescription="errorbar" transform="translate(293.4593786592167,150)" x2="58.49532550689281" y2="0" stroke="blue" stroke-width="0.6"></line><line aria-label="CI 0.975: 0.942259749321; upper_Quantile.0.025(R): 0.98373978365; index: MT; Quantile.0.975(R): 0.98373978365; Quantile.0.025(R): 0.942259749321" role="graphics-symbol" aria-roledescription="errorbar" transform="translate(314.7412684996754,250)" x2="44.670806200018035" y2="0" stroke="blue" stroke-width="0.6"></line><line aria-label="CI 0.975: 0.939109274303; upper_Quantile.0.025(R): 0.995542067556; index: SC; Quantile.0.975(R): 0.995542067556; Quantile.0.025(R): 0.939109274303" role="graphics-symbol" aria-roledescription="errorbar" transform="translate(311.3484492498838,470)" x2="60.77377734882327" y2="0" stroke="blue" stroke-width="0.6"></line><line aria-label="CI 0.975: 0.945568384289; upper_Quantile.0.025(R): 0.986047093216; index: BA; Quantile.0.975(R): 0.986047093216; Quantile.0.025(R): 0.945568384289" role="graphics-symbol" aria-roledescription="errorbar" transform="translate(318.30441384958255,90)" x2="43.592455767541196" y2="0" stroke="blue" stroke-width="0.6"></line><line aria-label="CI 0.975: 0.954882533877; upper_Quantile.0.025(R): 0.989109504672; index: MG; Quantile.0.975(R): 0.989109504672; Quantile.0.025(R): 0.954882533877" role="graphics-symbol" aria-roledescription="errorbar" transform="translate(328.33503648316116,210)" x2="36.85981470190171" y2="0" stroke="blue" stroke-width="0.6"></line><line aria-label="CI 0.975: 0.941857299572; upper_Quantile.0.025(R): 1.00812128865; index: AL; Quantile.0.975(R): 1.00812128865; Quantile.0.025(R): 0.941857299572" role="graphics-symbol" aria-roledescription="errorbar" transform="translate(314.3078610775321,30)" x2="71.3612190079644" y2="0" stroke="blue" stroke-width="0.6"></line><line aria-label="CI 0.975: 0.965869616531; upper_Quantile.0.025(R): 1.01091518002; index: MA; Quantile.0.975(R): 1.01091518002; Quantile.0.025(R): 0.965869616531" role="graphics-symbol" aria-roledescription="errorbar" transform="translate(340.1672793408299,190)" x2="48.510606836455" y2="0" stroke="blue" stroke-width="0.6"></line><line aria-label="CI 0.975: 0.968152187521; upper_Quantile.0.025(R): 1.00989429581; index: DF; Quantile.0.975(R): 1.00989429581; Quantile.0.025(R): 0.968152187521" role="graphics-symbol" aria-roledescription="errorbar" transform="translate(342.6254327153313,130)" x2="44.953039699924204" y2="0" stroke="blue" stroke-width="0.6"></line><line aria-label="CI 0.975: 0.950717306455; upper_Quantile.0.025(R): 1.03749921685; index: RO; Quantile.0.975(R): 1.03749921685; Quantile.0.025(R): 0.950717306455" role="graphics-symbol" aria-roledescription="errorbar" transform="translate(323.8494069512066,410)" x2="93.45744196843145" y2="0" stroke="blue" stroke-width="0.6"></line><line aria-label="CI 0.975: 0.971338991627; upper_Quantile.0.025(R): 1.02037942173; index: PI; Quantile.0.975(R): 1.02037942173; Quantile.0.025(R): 0.971338991627" role="graphics-symbol" aria-roledescription="errorbar" transform="translate(346.05737559821904,330)" x2="52.81277087498478" y2="0" stroke="blue" stroke-width="0.6"></line><line aria-label="CI 0.975: 0.972178144883; upper_Quantile.0.025(R): 1.04084598053; index: MS; Quantile.0.975(R): 1.04084598053; Quantile.0.025(R): 0.972178144883" role="graphics-symbol" aria-roledescription="errorbar" transform="translate(346.9610791047375,230)" x2="73.94997685304702" y2="0" stroke="blue" stroke-width="0.6"></line><line aria-label="CI 0.975: 0.994742905118; upper_Quantile.0.025(R): 1.06865284823; index: RN; Quantile.0.975(R): 1.06865284823; Quantile.0.025(R): 0.994742905118" role="graphics-symbol" aria-roledescription="errorbar" transform="translate(371.26159012667944,390)" x2="79.59532335415577" y2="0" stroke="blue" stroke-width="0.6"></line><line aria-label="CI 0.975: 0.983868942956; upper_Quantile.0.025(R): 1.0826516875; index: RR; Quantile.0.975(R): 1.0826516875; Quantile.0.025(R): 0.983868942956" role="graphics-symbol" aria-roledescription="errorbar" transform="translate(359.551169337052,430)" x2="106.38141720672871" y2="0" stroke="blue" stroke-width="0.6"></line><line aria-label="CI 0.975: 0.982854484856; upper_Quantile.0.025(R): 1.09563962584; index: AP; Quantile.0.975(R): 1.09563962584; Quantile.0.025(R): 0.982854484856" role="graphics-symbol" aria-roledescription="errorbar" transform="translate(358.45867599845894,70)" x2="121.46092105925828" y2="0" stroke="blue" stroke-width="0.6"></line><line aria-label="CI 0.975: 0.997922695796; upper_Quantile.0.025(R): 1.11171220363; index: GO; Quantile.0.975(R): 1.11171220363; Quantile.0.025(R): 0.997922695796" role="graphics-symbol" aria-roledescription="errorbar" transform="translate(374.68598008747955,170)" x2="122.54254689495036" y2="0" stroke="blue" stroke-width="0.6"></line><line aria-label="CI 0.975: 1.07097602538; upper_Quantile.0.025(R): 1.1164461332; index: RS; Quantile.0.975(R): 1.1164461332; Quantile.0.025(R): 1.07097602538" role="graphics-symbol" aria-roledescription="errorbar" transform="translate(453.35879656702434,450)" x2="48.96780841909049" y2="0" stroke="blue" stroke-width="0.6"></line><line aria-label="CI 0.975: 1.04667544501; upper_Quantile.0.025(R): 1.14193536066; index: PR; Quantile.0.975(R): 1.14193536066; Quantile.0.025(R): 1.04667544501" role="graphics-symbol" aria-roledescription="errorbar" transform="translate(427.18894077529757,350)" x2="102.58760147509958" y2="0" stroke="blue" stroke-width="0.6"></line><line aria-label="CI 0.975: 1.07236983629; upper_Quantile.0.025(R): 1.15926229988; index: PA; Quantile.0.975(R): 1.15926229988; Quantile.0.025(R): 1.07236983629" role="graphics-symbol" aria-roledescription="errorbar" transform="translate(454.85982369781027,270)" x2="93.57649924806526" y2="0" stroke="blue" stroke-width="0.6"></line><line aria-label="CI 0.975: 1.0966112601; upper_Quantile.0.025(R): 1.17506822179; index: TO; Quantile.0.975(R): 1.17506822179; Quantile.0.025(R): 1.0966112601" role="graphics-symbol" aria-roledescription="errorbar" transform="translate(480.9659724165579,530)" x2="84.4921125919414" y2="0" stroke="blue" stroke-width="0.6"></line><line aria-label="CI 0.975: 1.10246242218; upper_Quantile.0.025(R): 1.28497278275; index: AC; Quantile.0.975(R): 1.28497278275; Quantile.0.025(R): 1.10246242218" role="graphics-symbol" aria-roledescription="errorbar" transform="translate(487.2672238831842,10)" x2="196.54961908022722" y2="0" stroke="blue" stroke-width="0.6"></line></g><g class="mark-group role-title"><g transform="translate(350,-17.2)"><path class="background" aria-hidden="true" d="M0,0h0v0h0Z" pointer-events="none"></path><g><g class="mark-text role-title-text" role="graphics-symbol" aria-roledescription="title" aria-label="Title text 'Instantaneous reproduction number estimate for all states in Brazil'" pointer-events="none"><text text-anchor="middle" transform="translate(0,10)" font-family="sans-serif" font-size="13px" font-weight="bold" fill="#000" opacity="1">Instantaneous reproduction number estimate for all states in Brazil</text></g></g><path class="foreground" aria-hidden="true" d="" pointer-events="none" display="none"></path></g></g></g><path class="foreground" aria-hidden="true" d="" display="none"></path></g></g></g></svg>