<svg class="marks" width="749" height="600" viewBox="0 0 749 600" version="1.1" xmlns="http://www.w3.org/2000/svg" xmlns:xlink="http://www.w3.org/1999/xlink"><rect width="749" height="600" fill="white"></rect><g fill="none" stroke-miterlimit="10" transform="translate(43,23)"><g class="mark-group role-frame root" role="graphics-object" aria-roledescription="group mark container"><g transform="translate(0,0)"><path class="background" aria-hidden="true" d="M0.5,0.5h700v540h-700Z"></path><g><g class="mark-group role-axis" aria-hidden="true"><g transform="translate(0.5,0.5)"><path class="background" aria-hidden="true" d="M0,0h0v0h0Z" pointer-events="none"></path><g><g class="mark-rule role-axis-grid" pointer-events="none"><line transform="translate(0,10)" x2="700" y2="0" stroke="#ddd" stroke-width="1" opacity="1"></line><line transform="translate(0,30)" x2="700" y2="0" stroke="#ddd" stroke-width="1" opacity="1"></line><line transform="translate(0,50)" x2="700" y2="0" stroke="#ddd" stroke-width="1" opacity="1"></line><line transform="translate(0,70)" x2="700" y2="0" stroke="#ddd" stroke-width="1" opacity="1"></line><line transform="translate(0,90)" x2="700" y2="0" stroke="#ddd" stroke-width="1" opacity="1"></line><line transform="translate(0,110)" x2="700" y2="0" stroke="#ddd" stroke-width="1" opacity="1"></line><line transform="translate(0,130)" x2="700" y2="0" stroke="#ddd" stroke-width="1" opacity="1"></line><line transform="translate(0,150)" x2="700" y2="0" stroke="#ddd" stroke-width="1" opacity="1"></line><line transform="translate(0,170)" x2="700" y2="0" stroke="#ddd" stroke-width="1" opacity="1"></line><line transform="translate(0,190)" x2="700" y2="0" stroke="#ddd" stroke-width="1" opacity="1"></line><line transform="translate(0,210)" x2="700" y2="0" stroke="#ddd" stroke-width="1" opacity="1"></line><line transform="translate(0,230)" x2="700" y2="0" stroke="#ddd" stroke-width="1" opacity="1"></line><line transform="translate(0,250)" x2="700" y2="0" stroke="#ddd" stroke-width="1" opacity="1"></line><line transform="translate(0,270)" x2="700" y2="0" stroke="#ddd" stroke-width="1" opacity="1"></line><line transform="translate(0,290)" x2="700" y2="0" stroke="#ddd" stroke-width="1" opacity="1"></line><line transform="translate(0,310)" x2="700" y2="0" stroke="#ddd" stroke-width="1" opacity="1"></line><line transform="translate(0,330)" x2="700" y2="0" stroke="#ddd" stroke-width="1" opacity="1"></line><line transform="translate(0,350)" x2="700" y2="0" stroke="#ddd" stroke-width="1" opacity="1"></line><line transform="translate(0,370)" x2="700" y2="0" stroke="#ddd" stroke-width="1" opacity="1"></line><line transform="translate(0,390)" x2="700" y2="0" stroke="#ddd" stroke-width="1" opacity="1"></line><line transform="translate(0,410)" x2="700" y2="0" stroke="#ddd" stroke-width="1" opacity="1"></line><line transform="translate(0,430)" x2="700" y2="0" stroke="#ddd" stroke-width="1" opacity="1"></line><line transform="translate(0,450)" x2="700" y2="0" stroke="#ddd" stroke-width="1" opacity="1"></line><line transform="translate(0,470)" x2="700" y2="0" stroke="#ddd" stroke-width="1" opacity="1"></line><line transform="translate(0,490)" x2="700" y2="0" stroke="#ddd" stroke-width="1" opacity="1"></line><line transform="translate(0,510)" x2="700" y2="0" stroke="#ddd" stroke-width="1" opacity="1"></line><line transform="translate(0,530)" x2="700" y2="0" stroke="#ddd" stroke-width="1" opacity="1"></line></g></g><path class="foreground" aria-hidden="true" d="" pointer-events="none" display="none"></path></g></g><g class="mark-group role-axis" role="graphics-symbol" aria-roledescription="axis" aria-label="X-axis titled 'Instantaneous reproduction number R(t), CI 0.975' for a linear scale with values from 0.8 to 1.8"><g transform="translate(0.5,540.5)"><path class="background" aria-hidden="true" d="M0,0h0v0h0Z" pointer-events="none"></path><g><g class="mark-rule role-axis-tick" pointer-events="none"><line transform="translate(0,0)" x2="0" y2="5" stroke="#888" stroke-width="1" opacity="1"></line><line transform="translate(35,0)" x2="0" y2="5" stroke="#888" stroke-width="1" opacity="1"></line><line transform="translate(70,0)" x2="0" y2="5" stroke="#888" stroke-width="1" opacity="1"></line><line transform="translate(105,0)" x2="0" y2="5" stroke="#888" stroke-width="1" opacity="1"></line><line transform="translate(140,0)" x2="0" y2="5" stroke="#888" stroke-width="1" opacity="1"></line><line transform="translate(175,0)" x2="0" y2="5" stroke="#888" stroke-width="1" opacity="1"></line><line transform="translate(210,0)" x2="0" y2="5" stroke="#888" stroke-width="1" opacity="1"></line><line transform="translate(245,0)" x2="0" y2="5" stroke="#888" stroke-width="1" opacity="1"></line><line transform="translate(280,0)" x2="0" y2="5" stroke="#888" stroke-width="1" opacity="1"></line><line transform="translate(315,0)" x2="0" y2="5" stroke="#888" stroke-width="1" opacity="1"></line><line transform="translate(350,0)" x2="0" y2="5" stroke="#888" stroke-width="1" opacity="1"></line><line transform="translate(385,0)" x2="0" y2="5" stroke="#888" stroke-width="1" opacity="1"></line><line transform="translate(420,0)" x2="0" y2="5" stroke="#888" stroke-width="1" opacity="1"></line><line transform="translate(455,0)" x2="0" y2="5" stroke="#888" stroke-width="1" opacity="1"></line><line transform="translate(490,0)" x2="0" y2="5" stroke="#888" stroke-width="1" opacity="1"></line><line transform="translate(525,0)" x2="0" y2="5" stroke="#888" stroke-width="1" opacity="1"></line><line transform="translate(560,0)" x2="0" y2="5" stroke="#888" stroke-width="1" opacity="1"></line><line transform="translate(595,0)" x2="0" y2="5" stroke="#888" stroke-width="1" opacity="1"></line><line transform="translate(630,0)" x2="0" y2="5" stroke="#888" stroke-width="1" opacity="1"></line><line transform="translate(665,0)" x2="0" y2="5" stroke="#888" stroke-width="1" opacity="1"></line><line transform="translate(700,0)" x2="0" y2="5" stroke="#888" stroke-width="1" opacity="1"></line></g><g class="mark-text role-axis-label" pointer-events="none"><text text-anchor="start" transform="translate(0,15)" font-family="sans-serif" font-size="10px" fill="#000" opacity="1">0.80</text><text text-anchor="middle" transform="translate(34.99999999999995,15)" font-family="sans-serif" font-size="10px" fill="#000" opacity="1">0.85</text><text text-anchor="middle" transform="translate(69.99999999999999,15)" font-family="sans-serif" font-size="10px" fill="#000" opacity="1">0.90</text><text text-anchor="middle" transform="translate(104.99999999999994,15)" font-family="sans-serif" font-size="10px" fill="#000" opacity="1">0.95</text><text text-anchor="middle" transform="translate(139.99999999999997,15)" font-family="sans-serif" font-size="10px" fill="#000" opacity="1">1.00</text><text text-anchor="middle" transform="translate(175,15)" font-family="sans-serif" font-size="10px" fill="#000" opacity="1">1.05</text><text text-anchor="middle" transform="translate(210.00000000000003,15)" font-family="sans-serif" font-size="10px" fill="#000" opacity="1">1.10</text><text text-anchor="middle" transform="translate(244.99999999999991,15)" font-family="sans-serif" font-size="10px" fill="#000" opacity="1">1.15</text><text text-anchor="middle" transform="translate(279.99999999999994,15)" font-family="sans-serif" font-size="10px" fill="#000" opacity="1">1.20</text><text text-anchor="middle" transform="translate(314.99999999999994,15)" font-family="sans-serif" font-size="10px" fill="#000" opacity="1">1.25</text><text text-anchor="middle" transform="translate(350,15)" font-family="sans-serif" font-size="10px" fill="#000" opacity="1">1.30</text><text text-anchor="middle" transform="translate(385.00000000000006,15)" font-family="sans-serif" font-size="10px" fill="#000" opacity="1">1.35</text><text text-anchor="middle" transform="translate(419.9999999999999,15)" font-family="sans-serif" font-size="10px" fill="#000" opacity="1">1.40</text><text text-anchor="middle" transform="translate(454.99999999999994,15)" font-family="sans-serif" font-size="10px" fill="#000" opacity="1">1.45</text><text text-anchor="middle" transform="translate(489.99999999999994,15)" font-family="sans-serif" font-size="10px" fill="#000" opacity="1">1.50</text><text text-anchor="middle" transform="translate(525,15)" font-family="sans-serif" font-size="10px" fill="#000" opacity="1">1.55</text><text text-anchor="middle" transform="translate(560,15)" font-family="sans-serif" font-size="10px" fill="#000" opacity="1">1.60</text><text text-anchor="middle" transform="translate(594.9999999999999,15)" font-family="sans-serif" font-size="10px" fill="#000" opacity="1">1.65</text><text text-anchor="middle" transform="translate(629.9999999999999,15)" font-family="sans-serif" font-size="10px" fill="#000" opacity="1">1.70</text><text text-anchor="middle" transform="translate(665,15)" font-family="sans-serif" font-size="10px" fill="#000" opacity="1">1.75</text><text text-anchor="end" transform="translate(700,15)" font-family="sans-serif" font-size="10px" fill="#000" opacity="1">1.80</text></g><g class="mark-rule role-axis-domain" pointer-events="none"><line transform="translate(0,0)" x2="700" y2="0" stroke="#888" stroke-width="1" opacity="1"></line></g><g class="mark-text role-axis-title" pointer-events="none"><text text-anchor="middle" transform="translate(350,30)" font-family="sans-serif" font-size="11px" font-weight="bold" fill="#000" opacity="1">Instantaneous reproduction number R(t), CI 0.975</text></g></g><path class="foreground" aria-hidden="true" d="" pointer-events="none" display="none"></path></g></g><g class="mark-group role-axis" role="graphics-symbol" aria-roledescription="axis" aria-label="Y-axis titled 'States' for a discrete scale with 27 values: AC, AL, AM, AP, BA, ending with TO"><g transform="translate(0.5,0.5)"><path class="background" aria-hidden="true" d="M0,0h0v0h0Z" pointer-events="none"></path><g><g class="mark-rule role-axis-tick" pointer-events="none"><line transform="translate(0,10)" x2="-5" y2="0" stroke="#888" stroke-width="1" opacity="1"></line><line transform="translate(0,30)" x2="-5" y2="0" stroke="#888" stroke-width="1" opacity="1"></line><line transform="translate(0,50)" x2="-5" y2="0" stroke="#888" stroke-width="1" opacity="1"></line><line transform="translate(0,70)" x2="-5" y2="0" stroke="#888" stroke-width="1" opacity="1"></line><line transform="translate(0,90)" x2="-5" y2="0" stroke="#888" stroke-width="1" opacity="1"></line><line transform="translate(0,110)" x2="-5" y2="0" stroke="#888" stroke-width="1" opacity="1"></line><line transform="translate(0,130)" x2="-5" y2="0" stroke="#888" stroke-width="1" opacity="1"></line><line transform="translate(0,150)" x2="-5" y2="0" stroke="#888" stroke-width="1" opacity="1"></line><line transform="translate(0,170)" x2="-5" y2="0" stroke="#888" stroke-width="1" opacity="1"></line><line transform="translate(0,190)" x2="-5" y2="0" stroke="#888" stroke-width="1" opacity="1"></line><line transform="translate(0,210)" x2="-5" y2="0" stroke="#888" stroke-width="1" opacity="1"></line><line transform="translate(0,230)" x2="-5" y2="0" stroke="#888" stroke-width="1" opacity="1"></line><line transform="translate(0,250)" x2="-5" y2="0" stroke="#888" stroke-width="1" opacity="1"></line><line transform="translate(0,270)" x2="-5" y2="0" stroke="#888" stroke-width="1" opacity="1"></line><line transform="translate(0,290)" x2="-5" y2="0" stroke="#888" stroke-width="1" opacity="1"></line><line transform="translate(0,310)" x2="-5" y2="0" stroke="#888" stroke-width="1" opacity="1"></line><line transform="translate(0,330)" x2="-5" y2="0" stroke="#888" stroke-width="1" opacity="1"></line><line transform="translate(0,350)" x2="-5" y2="0" stroke="#888" stroke-width="1" opacity="1"></line><line transform="translate(0,370)" x2="-5" y2="0" stroke="#888" stroke-width="1" opacity="1"></line><line transform="translate(0,390)" x2="-5" y2="0" stroke="#888" stroke-width="1" opacity="1"></line><line transform="translate(0,410)" x2="-5" y2="0" stroke="#888" stroke-width="1" opacity="1"></line><line transform="translate(0,430)" x2="-5" y2="0" stroke="#888" stroke-width="1" opacity="1"></line><line transform="translate(0,450)" x2="-5" y2="0" stroke="#888" stroke-width="1" opacity="1"></line><line transform="translate(0,470)" x2="-5" y2="0" stroke="#888" stroke-width="1" opacity="1"></line><line transform="translate(0,490)" x2="-5" y2="0" stroke="#888" stroke-width="1" opacity="1"></line><line transform="translate(0,510)" x2="-5" y2="0" stroke="#888" stroke-width="1" opacity="1"></line><line transform="translate(0,530)" x2="-5" y2="0" stroke="#888" stroke-width="1" opacity="1"></line></g><g class="mark-text role-axis-label" pointer-events="none"><text text-anchor="end" transform="translate(-7,12.5)" font-family="sans-serif" font-size="10px" fill="#000" opacity="1">AC</text><text text-anchor="end" transform="translate(-7,32.5)" font-family="sans-serif" font-size="10px" fill="#000" opacity="1">AL</text><text text-anchor="end" transform="translate(-7,52.5)" font-family="sans-serif" font-size="10px" fill="#000" opacity="1">AM</text><text text-anchor="end" transform="translate(-7,72.5)" font-family="sans-serif" font-size="10px" fill="#000" opacity="1">AP</text><text text-anchor="end" transform="translate(-7,92.5)" font-family="sans-serif" font-size="10px" fill="#000" opacity="1">BA</text><text text-anchor="end" transform="translate(-7,112.5)" font-family="sans-serif" font-size="10px" fill="#000" opacity="1">CE</text><text text-anchor="end" transform="translate(-7,132.5)" font-family="sans-serif" font-size="10px" fill="#000" opacity="1">DF</text><text text-anchor="end" transform="translate(-7,152.5)" font-family="sans-serif" font-size="10px" fill="#000" opacity="1">ES</text><text text-anchor="end" transform="translate(-7,172.5)" font-family="sans-serif" font-size="10px" fill="#000" opacity="1">GO</text><text text-anchor="end" transform="translate(-7,192.5)" font-family="sans-serif" font-size="10px" fill="#000" opacity="1">MA</text><text text-anchor="end" transform="translate(-7,212.5)" font-family="sans-serif" font-size="10px" fill="#000" opacity="1">MG</text><text text-anchor="end" transform="translate(-7,232.5)" font-family="sans-serif" font-size="10px" fill="#000" opacity="1">MS</text><text text-anchor="end" transform="translate(-7,252.5)" font-family="sans-serif" font-size="10px" fill="#000" opacity="1">MT</text><text text-anchor="end" transform="translate(-7,272.5)" font-family="sans-serif" font-size="10px" fill="#000" opacity="1">PA</text><text text-anchor="end" transform="translate(-7,292.5)" font-family="sans-serif" font-size="10px" fill="#000" opacity="1">PB</text><text text-anchor="end" transform="translate(-7,312.5)" font-family="sans-serif" font-size="10px" fill="#000" opacity="1">PE</text><text text-anchor="end" transform="translate(-7,332.5)" font-family="sans-serif" font-size="10px" fill="#000" opacity="1">PI</text><text text-anchor="end" transform="translate(-7,352.5)" font-family="sans-serif" font-size="10px" fill="#000" opacity="1">PR</text><text text-anchor="end" transform="translate(-7,372.5)" font-family="sans-serif" font-size="10px" fill="#000" opacity="1">RJ</text><text text-anchor="end" transform="translate(-7,392.5)" font-family="sans-serif" font-size="10px" fill="#000" opacity="1">RN</text><text text-anchor="end" transform="translate(-7,412.5)" font-family="sans-serif" font-size="10px" fill="#000" opacity="1">RO</text><text text-anchor="end" transform="translate(-7,432.5)" font-family="sans-serif" font-size="10px" fill="#000" opacity="1">RR</text><text text-anchor="end" transform="translate(-7,452.5)" font-family="sans-serif" font-size="10px" fill="#000" opacity="1">RS</text><text text-anchor="end" transform="translate(-7,472.5)" font-family="sans-serif" font-size="10px" fill="#000" opacity="1">SC</text><text text-anchor="end" transform="translate(-7,492.5)" font-family="sans-serif" font-size="10px" fill="#000" opacity="1">SE</text><text text-anchor="end" transform="translate(-7,512.5)" font-family="sans-serif" font-size="10px" fill="#000" opacity="1">SP</text><text text-anchor="end" transform="translate(-7,532.5)" font-family="sans-serif" font-size="10px" fill="#000" opacity="1">TO</text></g><g class="mark-rule role-axis-domain" pointer-events="none"><line transform="translate(0,0)" x2="0" y2="540" stroke="#888" stroke-width="1" opacity="1"></line></g><g class="mark-text role-axis-title" pointer-events="none"><text text-anchor="middle" transform="translate(-27,270) rotate(-90) translate(0,-2)" font-family="sans-serif" font-size="11px" font-weight="bold" fill="#000" opacity="1">States</text></g></g><path class="foreground" aria-hidden="true" d="" pointer-events="none" display="none"></path></g></g><g class="mark-symbol role-mark layer_0_marks" role="graphics-object" aria-roledescription="symbol mark container"><path aria-label="Instantaneous reproduction number R(t): 0.889782235273; States: PE" role="graphics-symbol" aria-roledescription="point" transform="translate(62.84756469099112,310)" d="M2.7386127875258306,0A2.7386127875258306,2.7386127875258306,0,1,1,-2.7386127875258306,0A2.7386127875258306,2.7386127875258306,0,1,1,2.7386127875258306,0" stroke="#4c78a8" stroke-width="2" opacity="0.7"></path><path aria-label="Instantaneous reproduction number R(t): 0.895627379325; States: RN" role="graphics-symbol" aria-roledescription="point" transform="translate(66.93916552779827,390)" d="M2.7386127875258306,0A2.7386127875258306,2.7386127875258306,0,1,1,-2.7386127875258306,0A2.7386127875258306,2.7386127875258306,0,1,1,2.7386127875258306,0" stroke="#4c78a8" stroke-width="2" opacity="0.7"></path><path aria-label="Instantaneous reproduction number R(t): 0.906850444339; States: CE" role="graphics-symbol" aria-roledescription="point" transform="translate(74.79531103739912,110)" d="M2.7386127875258306,0A2.7386127875258306,2.7386127875258306,0,1,1,-2.7386127875258306,0A2.7386127875258306,2.7386127875258306,0,1,1,2.7386127875258306,0" stroke="#4c78a8" stroke-width="2" opacity="0.7"></path><path aria-label="Instantaneous reproduction number R(t): 0.942956516515; States: AM" role="graphics-symbol" aria-roledescription="point" transform="translate(100.0695615603656,50)" d="M2.7386127875258306,0A2.7386127875258306,2.7386127875258306,0,1,1,-2.7386127875258306,0A2.7386127875258306,2.7386127875258306,0,1,1,2.7386127875258306,0" stroke="#4c78a8" stroke-width="2" opacity="0.7"></path><path aria-label="Instantaneous reproduction number R(t): 1.01777102829; States: RJ" role="graphics-symbol" aria-roledescription="point" transform="translate(152.43971980031884,370)" d="M2.7386127875258306,0A2.7386127875258306,2.7386127875258306,0,1,1,-2.7386127875258306,0A2.7386127875258306,2.7386127875258306,0,1,1,2.7386127875258306,0" stroke="#4c78a8" stroke-width="2" opacity="0.7"></path><path aria-label="Instantaneous reproduction number R(t): 1.01904856459; States: SP" role="graphics-symbol" aria-roledescription="point" transform="translate(153.33399521417132,510)" d="M2.7386127875258306,0A2.7386127875258306,2.7386127875258306,0,1,1,-2.7386127875258306,0A2.7386127875258306,2.7386127875258306,0,1,1,2.7386127875258306,0" stroke="#4c78a8" stroke-width="2" opacity="0.7"></path><path aria-label="Instantaneous reproduction number R(t): 1.01978485291; States: TO" role="graphics-symbol" aria-roledescription="point" transform="translate(153.84939703665336,530)" d="M2.7386127875258306,0A2.7386127875258306,2.7386127875258306,0,1,1,-2.7386127875258306,0A2.7386127875258306,2.7386127875258306,0,1,1,2.7386127875258306,0" stroke="#4c78a8" stroke-width="2" opacity="0.7"></path><path aria-label="Instantaneous reproduction number R(t): 1.02624749936; States: AP" role="graphics-symbol" aria-roledescription="point" transform="translate(158.3732495487242,70)" d="M2.7386127875258306,0A2.7386127875258306,2.7386127875258306,0,1,1,-2.7386127875258306,0A2.7386127875258306,2.7386127875258306,0,1,1,2.7386127875258306,0" stroke="#4c78a8" stroke-width="2" opacity="0.7"></path><path aria-label="Instantaneous reproduction number R(t): 1.06425872263; States: SC" role="graphics-symbol" aria-roledescription="point" transform="translate(184.98110583843768,470)" d="M2.7386127875258306,0A2.7386127875258306,2.7386127875258306,0,1,1,-2.7386127875258306,0A2.7386127875258306,2.7386127875258306,0,1,1,2.7386127875258306,0" stroke="#4c78a8" stroke-width="2" opacity="0.7"></path><path aria-label="Instantaneous reproduction number R(t): 1.10067139039; States: RS" role="graphics-symbol" aria-roledescription="point" transform="translate(210.46997327602594,450)" d="M2.7386127875258306,0A2.7386127875258306,2.7386127875258306,0,1,1,-2.7386127875258306,0A2.7386127875258306,2.7386127875258306,0,1,1,2.7386127875258306,0" stroke="#4c78a8" stroke-width="2" opacity="0.7"></path><path aria-label="Instantaneous reproduction number R(t): 1.11632815442; States: PA" role="graphics-symbol" aria-roledescription="point" transform="translate(221.4297080935877,270)" d="M2.7386127875258306,0A2.7386127875258306,2.7386127875258306,0,1,1,-2.7386127875258306,0A2.7386127875258306,2.7386127875258306,0,1,1,2.7386127875258306,0" stroke="#4c78a8" stroke-width="2" opacity="0.7"></path><path aria-label="Instantaneous reproduction number R(t): 1.14707325528; States: AL" role="graphics-symbol" aria-roledescription="point" transform="translate(242.95127869498347,30)" d="M2.7386127875258306,0A2.7386127875258306,2.7386127875258306,0,1,1,-2.7386127875258306,0A2.7386127875258306,2.7386127875258306,0,1,1,2.7386127875258306,0" stroke="#4c78a8" stroke-width="2" opacity="0.7"></path><path aria-label="Instantaneous reproduction number R(t): 1.1620333748; States: MS" role="graphics-symbol" aria-roledescription="point" transform="translate(253.4233623585641,230)" d="M2.7386127875258306,0A2.7386127875258306,2.7386127875258306,0,1,1,-2.7386127875258306,0A2.7386127875258306,2.7386127875258306,0,1,1,2.7386127875258306,0" stroke="#4c78a8" stroke-width="2" opacity="0.7"></path><path aria-label="Instantaneous reproduction number R(t): 1.16504299211; States: PI" role="graphics-symbol" aria-roledescription="point" transform="translate(255.53009447785038,330)" d="M2.7386127875258306,0A2.7386127875258306,2.7386127875258306,0,1,1,-2.7386127875258306,0A2.7386127875258306,2.7386127875258306,0,1,1,2.7386127875258306,0" stroke="#4c78a8" stroke-width="2" opacity="0.7"></path><path aria-label="Instantaneous reproduction number R(t): 1.16789953255; States: MA" role="graphics-symbol" aria-roledescription="point" transform="translate(257.5296727843432,190)" d="M2.7386127875258306,0A2.7386127875258306,2.7386127875258306,0,1,1,-2.7386127875258306,0A2.7386127875258306,2.7386127875258306,0,1,1,2.7386127875258306,0" stroke="#4c78a8" stroke-width="2" opacity="0.7"></path><path aria-label="Instantaneous reproduction number R(t): 1.17049220414; States: MG" role="graphics-symbol" aria-roledescription="point" transform="translate(259.34454289709265,210)" d="M2.7386127875258306,0A2.7386127875258306,2.7386127875258306,0,1,1,-2.7386127875258306,0A2.7386127875258306,2.7386127875258306,0,1,1,2.7386127875258306,0" stroke="#4c78a8" stroke-width="2" opacity="0.7"></path><path aria-label="Instantaneous reproduction number R(t): 1.17987144555; States: PR" role="graphics-symbol" aria-roledescription="point" transform="translate(265.9100118838561,350)" d="M2.7386127875258306,0A2.7386127875258306,2.7386127875258306,0,1,1,-2.7386127875258306,0A2.7386127875258306,2.7386127875258306,0,1,1,2.7386127875258306,0" stroke="#4c78a8" stroke-width="2" opacity="0.7"></path><path aria-label="Instantaneous reproduction number R(t): 1.19328716221; States: BA" role="graphics-symbol" aria-roledescription="point" transform="translate(275.3010135457973,90)" d="M2.7386127875258306,0A2.7386127875258306,2.7386127875258306,0,1,1,-2.7386127875258306,0A2.7386127875258306,2.7386127875258306,0,1,1,2.7386127875258306,0" stroke="#4c78a8" stroke-width="2" opacity="0.7"></path><path aria-label="Instantaneous reproduction number R(t): 1.20382376059; States: SE" role="graphics-symbol" aria-roledescription="point" transform="translate(282.6766324135301,490)" d="M2.7386127875258306,0A2.7386127875258306,2.7386127875258306,0,1,1,-2.7386127875258306,0A2.7386127875258306,2.7386127875258306,0,1,1,2.7386127875258306,0" stroke="#4c78a8" stroke-width="2" opacity="0.7"></path><path aria-label="Instantaneous reproduction number R(t): 1.20573357073; States: PB" role="graphics-symbol" aria-roledescription="point" transform="translate(284.0134995124855,290)" d="M2.7386127875258306,0A2.7386127875258306,2.7386127875258306,0,1,1,-2.7386127875258306,0A2.7386127875258306,2.7386127875258306,0,1,1,2.7386127875258306,0" stroke="#4c78a8" stroke-width="2" opacity="0.7"></path><path aria-label="Instantaneous reproduction number R(t): 1.22859265174; States: AC" role="graphics-symbol" aria-roledescription="point" transform="translate(300.01485621972796,10)" d="M2.7386127875258306,0A2.7386127875258306,2.7386127875258306,0,1,1,-2.7386127875258306,0A2.7386127875258306,2.7386127875258306,0,1,1,2.7386127875258306,0" stroke="#4c78a8" stroke-width="2" opacity="0.7"></path><path aria-label="Instantaneous reproduction number R(t): 1.25519469973; States: RR" role="graphics-symbol" aria-roledescription="point" transform="translate(318.63628981106905,430)" d="M2.7386127875258306,0A2.7386127875258306,2.7386127875258306,0,1,1,-2.7386127875258306,0A2.7386127875258306,2.7386127875258306,0,1,1,2.7386127875258306,0" stroke="#4c78a8" stroke-width="2" opacity="0.7"></path><path aria-label="Instantaneous reproduction number R(t): 1.32737225584; States: MT" role="graphics-symbol" aria-roledescription="point" transform="translate(369.16057908458083,250)" d="M2.7386127875258306,0A2.7386127875258306,2.7386127875258306,0,1,1,-2.7386127875258306,0A2.7386127875258306,2.7386127875258306,0,1,1,2.7386127875258306,0" stroke="#4c78a8" stroke-width="2" opacity="0.7"></path><path aria-label="Instantaneous reproduction number R(t): 1.33858655333; States: GO" role="graphics-symbol" aria-roledescription="point" transform="translate(377.01058733297555,170)" d="M2.7386127875258306,0A2.7386127875258306,2.7386127875258306,0,1,1,-2.7386127875258306,0A2.7386127875258306,2.7386127875258306,0,1,1,2.7386127875258306,0" stroke="#4c78a8" stroke-width="2" opacity="0.7"></path><path aria-label="Instantaneous reproduction number R(t): 1.33960544377; States: ES" role="graphics-symbol" aria-roledescription="point" transform="translate(377.7238106381328,150)" d="M2.7386127875258306,0A2.7386127875258306,2.7386127875258306,0,1,1,-2.7386127875258306,0A2.7386127875258306,2.7386127875258306,0,1,1,2.7386127875258306,0" stroke="#4c78a8" stroke-width="2" opacity="0.7"></path><path aria-label="Instantaneous reproduction number R(t): 1.34269609404; States: DF" role="graphics-symbol" aria-roledescription="point" transform="translate(379.8872658295121,130)" d="M2.7386127875258306,0A2.7386127875258306,2.7386127875258306,0,1,1,-2.7386127875258306,0A2.7386127875258306,2.7386127875258306,0,1,1,2.7386127875258306,0" stroke="#4c78a8" stroke-width="2" opacity="0.7"></path><path aria-label="Instantaneous reproduction number R(t): 1.51886613336; States: RO" role="graphics-symbol" aria-roledescription="point" transform="translate(503.20629334976314,410)" d="M2.7386127875258306,0A2.7386127875258306,2.7386127875258306,0,1,1,-2.7386127875258306,0A2.7386127875258306,2.7386127875258306,0,1,1,2.7386127875258306,0" stroke="#4c78a8" stroke-width="2" opacity="0.7"></path></g><g class="mark-rule role-mark layer_1_marks" role="graphics-object" aria-roledescription="rule mark container"><line aria-label="a: 1" role="graphics-symbol" aria-roledescription="rule mark" transform="translate(139.99999999999997,0)" x2="0" y2="540" stroke="black" stroke-width="0.2"></line><line aria-label="a: 1" role="graphics-symbol" aria-roledescription="rule mark" transform="translate(139.99999999999997,0)" x2="0" y2="540" stroke="black" stroke-width="0.2"></line><line aria-label="a: 1" role="graphics-symbol" aria-roledescription="rule mark" transform="translate(139.99999999999997,0)" x2="0" y2="540" stroke="black" stroke-width="0.2"></line><line aria-label="a: 1" role="graphics-symbol" aria-roledescription="rule mark" transform="translate(139.99999999999997,0)" x2="0" y2="540" stroke="black" stroke-width="0.2"></line><line aria-label="a: 1" role="graphics-symbol" aria-roledescription="rule mark" transform="translate(139.99999999999997,0)" x2="0" y2="540" stroke="black" stroke-width="0.2"></line><line aria-label="a: 1" role="graphics-symbol" aria-roledescription="rule mark" transform="translate(139.99999999999997,0)" x2="0" y2="540" stroke="black" stroke-width="0.2"></line><line aria-label="a: 1" role="graphics-symbol" aria-roledescription="rule mark" transform="translate(139.99999999999997,0)" x2="0" y2="540" stroke="black" stroke-width="0.2"></line><line aria-label="a: 1" role="graphics-symbol" aria-roledescription="rule mark" transform="translate(139.99999999999997,0)" x2="0" y2="540" stroke="black" stroke-width="0.2"></line><line aria-label="a: 1" role="graphics-symbol" aria-roledescription="rule mark" transform="translate(139.99999999999997,0)" x2="0" y2="540" stroke="black" stroke-width="0.2"></line><line aria-label="a: 1" role="graphics-symbol" aria-roledescription="rule mark" transform="translate(139.99999999999997,0)" x2="0" y2="540" stroke="black" stroke-width="0.2"></line><line aria-label="a: 1" role="graphics-symbol" aria-roledescription="rule mark" transform="translate(139.99999999999997,0)" x2="0" y2="540" stroke="black" stroke-width="0.2"></line><line aria-label="a: 1" role="graphics-symbol" aria-roledescription="rule mark" transform="translate(139.99999999999997,0)" x2="0" y2="540" stroke="black" stroke-width="0.2"></line><line aria-label="a: 1" role="graphics-symbol" aria-roledescription="rule mark" transform="translate(139.99999999999997,0)" x2="0" y2="540" stroke="black" stroke-width="0.2"></line><line aria-label="a: 1" role="graphics-symbol" aria-roledescription="rule mark" transform="translate(139.99999999999997,0)" x2="0" y2="540" stroke="black" stroke-width="0.2"></line><line aria-label="a: 1" role="graphics-symbol" aria-roledescription="rule mark" transform="translate(139.99999999999997,0)" x2="0" y2="540" stroke="black" stroke-width="0.2"></line><line aria-label="a: 1" role="graphics-symbol" aria-roledescription="rule mark" transform="translate(139.99999999999997,0)" x2="0" y2="540" stroke="black" stroke-width="0.2"></line><line aria-label="a: 1" role="graphics-symbol" aria-roledescription="rule mark" transform="translate(139.99999999999997,0)" x2="0" y2="540" stroke="black" stroke-width="0.2"></line><line aria-label="a: 1" role="graphics-symbol" aria-roledescription="rule mark" transform="translate(139.99999999999997,0)" x2="0" y2="540" stroke="black" stroke-width="0.2"></line><line aria-label="a: 1" role="graphics-symbol" aria-roledescription="rule mark" transform="translate(139.99999999999997,0)" x2="0" y2="540" stroke="black" stroke-width="0.2"></line><line aria-label="a: 1" role="graphics-symbol" aria-roledescription="rule mark" transform="translate(139.99999999999997,0)" x2="0" y2="540" stroke="black" stroke-width="0.2"></line><line aria-label="a: 1" role="graphics-symbol" aria-roledescription="rule mark" transform="translate(139.99999999999997,0)" x2="0" y2="540" stroke="black" stroke-width="0.2"></line><line aria-label="a: 1" role="graphics-symbol" aria-roledescription="rule mark" transform="translate(139.99999999999997,0)" x2="0" y2="540" stroke="black" stroke-width="0.2"></line><line aria-label="a: 1" role="graphics-symbol" aria-roledescription="rule mark" transform="translate(139.99999999999997,0)" x2="0" y2="540" stroke="black" stroke-width="0.2"></line><line aria-label="a: 1" role="graphics-symbol" aria-roledescription="rule mark" transform="translate(139.99999999999997,0)" x2="0" y2="540" stroke="black" stroke-width="0.2"></line><line aria-label="a: 1" role="graphics-symbol" aria-roledescription="rule mark" transform="translate(139.99999999999997,0)" x2="0" y2="540" stroke="black" stroke-width="0.2"></line><line aria-label="a: 1" role="graphics-symbol" aria-roledescription="rule mark" transform="translate(139.99999999999997,0)" x2="0" y2="540" stroke="black" stroke-width="0.2"></line><line aria-label="a: 1" role="graphics-symbol" aria-roledescription="rule mark" transform="translate(139.99999999999997,0)" x2="0" y2="540" stroke="black" stroke-width="0.2"></line></g><g class="mark-rule role-mark layer_2_marks" role="graphics-object" aria-roledescription="rule mark container"><line aria-label="CI 0.975: 0.85232682871; upper_Quantile.0.025(R): 0.929511634599; index: PE; Quantile.0.975(R): 0.929511634599; Quantile.0.025(R): 0.85232682871" role="graphics-symbol" aria-roledescription="errorbar" transform="translate(36.628780097279424,310)" x2="54.02936412182314" y2="0" stroke="blue" stroke-width="0.6"></line><line aria-label="CI 0.975: 0.843774591276; upper_Quantile.0.025(R): 0.938038018414; index: RN; Quantile.0.975(R): 0.938038018414; Quantile.0.025(R): 0.843774591276" role="graphics-symbol" aria-roledescription="errorbar" transform="translate(30.642213893442182,390)" x2="65.9843989965353" y2="0" stroke="blue" stroke-width="0.6"></line><line aria-label="CI 0.975: 0.824734851646; upper_Quantile.0.025(R): 0.975711244971; index: CE; Quantile.0.975(R): 0.975711244971; Quantile.0.025(R): 0.824734851646" role="graphics-symbol" aria-roledescription="errorbar" transform="translate(17.314396151919663,110)" x2="105.6834753277441" y2="0" stroke="blue" stroke-width="0.6"></line><line aria-label="CI 0.975: 0.884293955336; upper_Quantile.0.025(R): 0.994658743046; index: AM; Quantile.0.975(R): 0.994658743046; Quantile.0.025(R): 0.884293955336" role="graphics-symbol" aria-roledescription="errorbar" transform="translate(59.005768735254506,50)" x2="77.25535139685554" y2="0" stroke="blue" stroke-width="0.6"></line><line aria-label="CI 0.975: 0.994942016105; upper_Quantile.0.025(R): 1.04043173694; index: RJ; Quantile.0.975(R): 1.04043173694; Quantile.0.025(R): 0.994942016105" role="graphics-symbol" aria-roledescription="errorbar" transform="translate(136.45941127361576,370)" x2="31.842804581282138" y2="0" stroke="blue" stroke-width="0.6"></line><line aria-label="CI 0.975: 0.99270824335; upper_Quantile.0.025(R): 1.04889818319; index: SP; Quantile.0.975(R): 1.04889818319; Quantile.0.025(R): 0.99270824335" role="graphics-symbol" aria-roledescription="errorbar" transform="translate(134.89577034505146,510)" x2="39.33295789092483" y2="0" stroke="blue" stroke-width="0.6"></line><line aria-label="CI 0.975: 0.965258493467; upper_Quantile.0.025(R): 1.07450443607; index: TO; Quantile.0.975(R): 1.07450443607; Quantile.0.025(R): 0.965258493467" role="graphics-symbol" aria-roledescription="errorbar" transform="translate(115.68094542670194,530)" x2="76.47215982441485" y2="0" stroke="blue" stroke-width="0.6"></line><line aria-label="CI 0.975: 0.9830720404; upper_Quantile.0.025(R): 1.07205337838; index: AP; Quantile.0.975(R): 1.07205337838; Quantile.0.025(R): 0.9830720404" role="graphics-symbol" aria-roledescription="errorbar" transform="translate(128.15042827990513,70)" x2="62.28693658880627" y2="0" stroke="blue" stroke-width="0.6"></line><line aria-label="CI 0.975: 1.01431085429; upper_Quantile.0.025(R): 1.11257471667; index: SC; Quantile.0.975(R): 1.11257471667; Quantile.0.025(R): 1.01431085429" role="graphics-symbol" aria-roledescription="errorbar" transform="translate(150.01759800464063,470)" x2="68.78470366738898" y2="0" stroke="blue" stroke-width="0.6"></line><line aria-label="CI 0.975: 1.05730916465; upper_Quantile.0.025(R): 1.14427569614; index: RS; Quantile.0.975(R): 1.14427569614; Quantile.0.025(R): 1.05730916465" role="graphics-symbol" aria-roledescription="errorbar" transform="translate(180.1164152568957,450)" x2="60.876572043148514" y2="0" stroke="blue" stroke-width="0.6"></line><line aria-label="CI 0.975: 1.05964399699; upper_Quantile.0.025(R): 1.18408353386; index: PA; Quantile.0.975(R): 1.18408353386; Quantile.0.025(R): 1.05964399699" role="graphics-symbol" aria-roledescription="errorbar" transform="translate(181.75079789201718,270)" x2="87.10767581155139" y2="0" stroke="blue" stroke-width="0.6"></line><line aria-label="CI 0.975: 1.10048200557; upper_Quantile.0.025(R): 1.2016769766; index: AL; Quantile.0.975(R): 1.2016769766; Quantile.0.025(R): 1.10048200557" role="graphics-symbol" aria-roledescription="errorbar" transform="translate(210.3374038972989,30)" x2="70.83647972004033" y2="0" stroke="blue" stroke-width="0.6"></line><line aria-label="CI 0.975: 1.06207164449; upper_Quantile.0.025(R): 1.26837322461; index: MS; Quantile.0.975(R): 1.26837322461; Quantile.0.025(R): 1.06207164449" role="graphics-symbol" aria-roledescription="errorbar" transform="translate(183.450151139811,230)" x2="144.41110608506216" y2="0" stroke="blue" stroke-width="0.6"></line><line aria-label="CI 0.975: 1.08305696207; upper_Quantile.0.025(R): 1.25285080995; index: PI; Quantile.0.975(R): 1.25285080995; Quantile.0.025(R): 1.08305696207" role="graphics-symbol" aria-roledescription="errorbar" transform="translate(198.13987345145355,330)" x2="118.85569351539758" y2="0" stroke="blue" stroke-width="0.6"></line><line aria-label="CI 0.975: 1.11470404449; upper_Quantile.0.025(R): 1.21128189381; index: MA; Quantile.0.975(R): 1.21128189381; Quantile.0.025(R): 1.11470404449" role="graphics-symbol" aria-roledescription="errorbar" transform="translate(220.29283114026146,190)" x2="67.60449452719058" y2="0" stroke="blue" stroke-width="0.6"></line><line aria-label="CI 0.975: 1.10832725597; upper_Quantile.0.025(R): 1.23827116755; index: MG; Quantile.0.975(R): 1.23827116755; Quantile.0.025(R): 1.10832725597" role="graphics-symbol" aria-roledescription="errorbar" transform="translate(215.82907917697852,210)" x2="90.96073810653289" y2="0" stroke="blue" stroke-width="0.6"></line><line aria-label="CI 0.975: 1.10839759409; upper_Quantile.0.025(R): 1.25593138881; index: PR; Quantile.0.975(R): 1.25593138881; Quantile.0.025(R): 1.10839759409" role="graphics-symbol" aria-roledescription="errorbar" transform="translate(215.87831586102206,350)" x2="103.27365630705745" y2="0" stroke="blue" stroke-width="0.6"></line><line aria-label="CI 0.975: 1.11811269871; upper_Quantile.0.025(R): 1.2717019385; index: BA; Quantile.0.975(R): 1.2717019385; Quantile.0.025(R): 1.11811269871" role="graphics-symbol" aria-roledescription="errorbar" transform="translate(222.6788891000137,90)" x2="107.51246785019447" y2="0" stroke="blue" stroke-width="0.6"></line><line aria-label="CI 0.975: 1.12315141448; upper_Quantile.0.025(R): 1.29149541681; index: SE; Quantile.0.975(R): 1.29149541681; Quantile.0.025(R): 1.12315141448" role="graphics-symbol" aria-roledescription="errorbar" transform="translate(226.20599013353615,490)" x2="117.84080163390627" y2="0" stroke="blue" stroke-width="0.6"></line><line aria-label="CI 0.975: 1.15200557501; upper_Quantile.0.025(R): 1.26491646272; index: PB; Quantile.0.975(R): 1.26491646272; Quantile.0.025(R): 1.15200557501" role="graphics-symbol" aria-roledescription="errorbar" transform="translate(246.4039025068284,290)" x2="79.03762139745805" y2="0" stroke="blue" stroke-width="0.6"></line><line aria-label="CI 0.975: 1.13757537509; upper_Quantile.0.025(R): 1.33319474631; index: AC; Quantile.0.975(R): 1.33319474631; Quantile.0.025(R): 1.13757537509" role="graphics-symbol" aria-roledescription="errorbar" transform="translate(236.30276256134118,10)" x2="136.9335598574856" y2="0" stroke="blue" stroke-width="0.6"></line><line aria-label="CI 0.975: 1.14636617256; upper_Quantile.0.025(R): 1.38246982328; index: RR; Quantile.0.975(R): 1.38246982328; Quantile.0.025(R): 1.14636617256" role="graphics-symbol" aria-roledescription="errorbar" transform="translate(242.4563207942746,430)" x2="165.2725555014447" y2="0" stroke="blue" stroke-width="0.6"></line><line aria-label="CI 0.975: 1.21924327121; upper_Quantile.0.025(R): 1.44499664703; index: MT; Quantile.0.975(R): 1.44499664703; Quantile.0.025(R): 1.21924327121" role="graphics-symbol" aria-roledescription="errorbar" transform="translate(293.4702898458439,250)" x2="158.02736307574605" y2="0" stroke="blue" stroke-width="0.6"></line><line aria-label="CI 0.975: 1.25245138184; upper_Quantile.0.025(R): 1.43041652038; index: GO; Quantile.0.975(R): 1.43041652038; Quantile.0.025(R): 1.25245138184" role="graphics-symbol" aria-roledescription="errorbar" transform="translate(316.7159672847165,170)" x2="124.57559697887001" y2="0" stroke="blue" stroke-width="0.6"></line><line aria-label="CI 0.975: 1.22795761053; upper_Quantile.0.025(R): 1.45963591297; index: ES; Quantile.0.975(R): 1.45963591297; Quantile.0.025(R): 1.22795761053" role="graphics-symbol" aria-roledescription="errorbar" transform="translate(299.570327374231,150)" x2="162.1748117016677" y2="0" stroke="blue" stroke-width="0.6"></line><line aria-label="CI 0.975: 1.24245644066; upper_Quantile.0.025(R): 1.46043369459; index: DF; Quantile.0.975(R): 1.46043369459; Quantile.0.025(R): 1.24245644066" role="graphics-symbol" aria-roledescription="errorbar" transform="translate(309.71950846110565,130)" x2="152.5840777535663" y2="0" stroke="blue" stroke-width="0.6"></line><line aria-label="CI 0.975: 1.35170669444; upper_Quantile.0.025(R): 1.72885783987; index: RO; Quantile.0.975(R): 1.72885783987; Quantile.0.025(R): 1.35170669444" role="graphics-symbol" aria-roledescription="errorbar" transform="translate(386.1946861068501,410)" x2="264.00580179974816" y2="0" stroke="blue" stroke-width="0.6"></line></g><g class="mark-group role-title"><g transform="translate(350,-17.2)"><path class="background" aria-hidden="true" d="M0,0h0v0h0Z" pointer-events="none"></path><g><g class="mark-text role-title-text" role="graphics-symbol" aria-roledescription="title" aria-label="Title text 'Instantaneous reproduction number estimate for all states in Brazil'" pointer-events="none"><text text-anchor="middle" transform="translate(0,10)" font-family="sans-serif" font-size="13px" font-weight="bold" fill="#000" opacity="1">Instantaneous reproduction number estimate for all states in Brazil</text></g></g><path class="foreground" aria-hidden="true" d="" pointer-events="none" display="none"></path></g></g></g><path class="foreground" aria-hidden="true" d="" display="none"></path></g></g></g></svg>