<svg class="marks" width="749" height="600" viewBox="0 0 749 600" version="1.1" xmlns="http://www.w3.org/2000/svg" xmlns:xlink="http://www.w3.org/1999/xlink"><rect width="749" height="600" fill="white"></rect><g fill="none" stroke-miterlimit="10" transform="translate(43,23)"><g class="mark-group role-frame root" role="graphics-object" aria-roledescription="group mark container"><g transform="translate(0,0)"><path class="background" aria-hidden="true" d="M0.5,0.5h700v540h-700Z"></path><g><g class="mark-group role-axis" aria-hidden="true"><g transform="translate(0.5,0.5)"><path class="background" aria-hidden="true" d="M0,0h0v0h0Z" pointer-events="none"></path><g><g class="mark-rule role-axis-grid" pointer-events="none"><line transform="translate(0,10)" x2="700" y2="0" stroke="#ddd" stroke-width="1" opacity="1"></line><line transform="translate(0,30)" x2="700" y2="0" stroke="#ddd" stroke-width="1" opacity="1"></line><line transform="translate(0,50)" x2="700" y2="0" stroke="#ddd" stroke-width="1" opacity="1"></line><line transform="translate(0,70)" x2="700" y2="0" stroke="#ddd" stroke-width="1" opacity="1"></line><line transform="translate(0,90)" x2="700" y2="0" stroke="#ddd" stroke-width="1" opacity="1"></line><line transform="translate(0,110)" x2="700" y2="0" stroke="#ddd" stroke-width="1" opacity="1"></line><line transform="translate(0,130)" x2="700" y2="0" stroke="#ddd" stroke-width="1" opacity="1"></line><line transform="translate(0,150)" x2="700" y2="0" stroke="#ddd" stroke-width="1" opacity="1"></line><line transform="translate(0,170)" x2="700" y2="0" stroke="#ddd" stroke-width="1" opacity="1"></line><line transform="translate(0,190)" x2="700" y2="0" stroke="#ddd" stroke-width="1" opacity="1"></line><line transform="translate(0,210)" x2="700" y2="0" stroke="#ddd" stroke-width="1" opacity="1"></line><line transform="translate(0,230)" x2="700" y2="0" stroke="#ddd" stroke-width="1" opacity="1"></line><line transform="translate(0,250)" x2="700" y2="0" stroke="#ddd" stroke-width="1" opacity="1"></line><line transform="translate(0,270)" x2="700" y2="0" stroke="#ddd" stroke-width="1" opacity="1"></line><line transform="translate(0,290)" x2="700" y2="0" stroke="#ddd" stroke-width="1" opacity="1"></line><line transform="translate(0,310)" x2="700" y2="0" stroke="#ddd" stroke-width="1" opacity="1"></line><line transform="translate(0,330)" x2="700" y2="0" stroke="#ddd" stroke-width="1" opacity="1"></line><line transform="translate(0,350)" x2="700" y2="0" stroke="#ddd" stroke-width="1" opacity="1"></line><line transform="translate(0,370)" x2="700" y2="0" stroke="#ddd" stroke-width="1" opacity="1"></line><line transform="translate(0,390)" x2="700" y2="0" stroke="#ddd" stroke-width="1" opacity="1"></line><line transform="translate(0,410)" x2="700" y2="0" stroke="#ddd" stroke-width="1" opacity="1"></line><line transform="translate(0,430)" x2="700" y2="0" stroke="#ddd" stroke-width="1" opacity="1"></line><line transform="translate(0,450)" x2="700" y2="0" stroke="#ddd" stroke-width="1" opacity="1"></line><line transform="translate(0,470)" x2="700" y2="0" stroke="#ddd" stroke-width="1" opacity="1"></line><line transform="translate(0,490)" x2="700" y2="0" stroke="#ddd" stroke-width="1" opacity="1"></line><line transform="translate(0,510)" x2="700" y2="0" stroke="#ddd" stroke-width="1" opacity="1"></line><line transform="translate(0,530)" x2="700" y2="0" stroke="#ddd" stroke-width="1" opacity="1"></line></g></g><path class="foreground" aria-hidden="true" d="" pointer-events="none" display="none"></path></g></g><g class="mark-group role-axis" role="graphics-symbol" aria-roledescription="axis" aria-label="X-axis titled 'Instantaneous reproduction number R(t), CI 0.975' for a linear scale with values from 0.6 to 1.5"><g transform="translate(0.5,540.5)"><path class="background" aria-hidden="true" d="M0,0h0v0h0Z" pointer-events="none"></path><g><g class="mark-rule role-axis-tick" pointer-events="none"><line transform="translate(0,0)" x2="0" y2="5" stroke="#888" stroke-width="1" opacity="1"></line><line transform="translate(39,0)" x2="0" y2="5" stroke="#888" stroke-width="1" opacity="1"></line><line transform="translate(78,0)" x2="0" y2="5" stroke="#888" stroke-width="1" opacity="1"></line><line transform="translate(117,0)" x2="0" y2="5" stroke="#888" stroke-width="1" opacity="1"></line><line transform="translate(156,0)" x2="0" y2="5" stroke="#888" stroke-width="1" opacity="1"></line><line transform="translate(194,0)" x2="0" y2="5" stroke="#888" stroke-width="1" opacity="1"></line><line transform="translate(233,0)" x2="0" y2="5" stroke="#888" stroke-width="1" opacity="1"></line><line transform="translate(272,0)" x2="0" y2="5" stroke="#888" stroke-width="1" opacity="1"></line><line transform="translate(311,0)" x2="0" y2="5" stroke="#888" stroke-width="1" opacity="1"></line><line transform="translate(350,0)" x2="0" y2="5" stroke="#888" stroke-width="1" opacity="1"></line><line transform="translate(389,0)" x2="0" y2="5" stroke="#888" stroke-width="1" opacity="1"></line><line transform="translate(428,0)" x2="0" y2="5" stroke="#888" stroke-width="1" opacity="1"></line><line transform="translate(467,0)" x2="0" y2="5" stroke="#888" stroke-width="1" opacity="1"></line><line transform="translate(506,0)" x2="0" y2="5" stroke="#888" stroke-width="1" opacity="1"></line><line transform="translate(544,0)" x2="0" y2="5" stroke="#888" stroke-width="1" opacity="1"></line><line transform="translate(583,0)" x2="0" y2="5" stroke="#888" stroke-width="1" opacity="1"></line><line transform="translate(622,0)" x2="0" y2="5" stroke="#888" stroke-width="1" opacity="1"></line><line transform="translate(661,0)" x2="0" y2="5" stroke="#888" stroke-width="1" opacity="1"></line><line transform="translate(700,0)" x2="0" y2="5" stroke="#888" stroke-width="1" opacity="1"></line></g><g class="mark-text role-axis-label" pointer-events="none"><text text-anchor="start" transform="translate(0,15)" font-family="sans-serif" font-size="10px" fill="#000" opacity="1">0.60</text><text text-anchor="middle" transform="translate(38.88888888888892,15)" font-family="sans-serif" font-size="10px" fill="#000" opacity="1">0.65</text><text text-anchor="middle" transform="translate(77.77777777777776,15)" font-family="sans-serif" font-size="10px" fill="#000" opacity="1">0.70</text><text text-anchor="middle" transform="translate(116.66666666666669,15)" font-family="sans-serif" font-size="10px" fill="#000" opacity="1">0.75</text><text text-anchor="middle" transform="translate(155.5555555555556,15)" font-family="sans-serif" font-size="10px" fill="#000" opacity="1">0.80</text><text text-anchor="middle" transform="translate(194.44444444444446,15)" font-family="sans-serif" font-size="10px" fill="#000" opacity="1">0.85</text><text text-anchor="middle" transform="translate(233.33333333333337,15)" font-family="sans-serif" font-size="10px" fill="#000" opacity="1">0.90</text><text text-anchor="middle" transform="translate(272.2222222222222,15)" font-family="sans-serif" font-size="10px" fill="#000" opacity="1">0.95</text><text text-anchor="middle" transform="translate(311.11111111111114,15)" font-family="sans-serif" font-size="10px" fill="#000" opacity="1">1.00</text><text text-anchor="middle" transform="translate(350.00000000000006,15)" font-family="sans-serif" font-size="10px" fill="#000" opacity="1">1.05</text><text text-anchor="middle" transform="translate(388.88888888888897,15)" font-family="sans-serif" font-size="10px" fill="#000" opacity="1">1.10</text><text text-anchor="middle" transform="translate(427.7777777777777,15)" font-family="sans-serif" font-size="10px" fill="#000" opacity="1">1.15</text><text text-anchor="middle" transform="translate(466.66666666666663,15)" font-family="sans-serif" font-size="10px" fill="#000" opacity="1">1.20</text><text text-anchor="middle" transform="translate(505.55555555555554,15)" font-family="sans-serif" font-size="10px" fill="#000" opacity="1">1.25</text><text text-anchor="middle" transform="translate(544.4444444444445,15)" font-family="sans-serif" font-size="10px" fill="#000" opacity="1">1.30</text><text text-anchor="middle" transform="translate(583.3333333333335,15)" font-family="sans-serif" font-size="10px" fill="#000" opacity="1">1.35</text><text text-anchor="middle" transform="translate(622.2222222222222,15)" font-family="sans-serif" font-size="10px" fill="#000" opacity="1">1.40</text><text text-anchor="middle" transform="translate(661.1111111111111,15)" font-family="sans-serif" font-size="10px" fill="#000" opacity="1">1.45</text><text text-anchor="end" transform="translate(700,15)" font-family="sans-serif" font-size="10px" fill="#000" opacity="1">1.50</text></g><g class="mark-rule role-axis-domain" pointer-events="none"><line transform="translate(0,0)" x2="700" y2="0" stroke="#888" stroke-width="1" opacity="1"></line></g><g class="mark-text role-axis-title" pointer-events="none"><text text-anchor="middle" transform="translate(350,30)" font-family="sans-serif" font-size="11px" font-weight="bold" fill="#000" opacity="1">Instantaneous reproduction number R(t), CI 0.975</text></g></g><path class="foreground" aria-hidden="true" d="" pointer-events="none" display="none"></path></g></g><g class="mark-group role-axis" role="graphics-symbol" aria-roledescription="axis" aria-label="Y-axis titled 'States' for a discrete scale with 27 values: AC, AL, AM, AP, BA, ending with TO"><g transform="translate(0.5,0.5)"><path class="background" aria-hidden="true" d="M0,0h0v0h0Z" pointer-events="none"></path><g><g class="mark-rule role-axis-tick" pointer-events="none"><line transform="translate(0,10)" x2="-5" y2="0" stroke="#888" stroke-width="1" opacity="1"></line><line transform="translate(0,30)" x2="-5" y2="0" stroke="#888" stroke-width="1" opacity="1"></line><line transform="translate(0,50)" x2="-5" y2="0" stroke="#888" stroke-width="1" opacity="1"></line><line transform="translate(0,70)" x2="-5" y2="0" stroke="#888" stroke-width="1" opacity="1"></line><line transform="translate(0,90)" x2="-5" y2="0" stroke="#888" stroke-width="1" opacity="1"></line><line transform="translate(0,110)" x2="-5" y2="0" stroke="#888" stroke-width="1" opacity="1"></line><line transform="translate(0,130)" x2="-5" y2="0" stroke="#888" stroke-width="1" opacity="1"></line><line transform="translate(0,150)" x2="-5" y2="0" stroke="#888" stroke-width="1" opacity="1"></line><line transform="translate(0,170)" x2="-5" y2="0" stroke="#888" stroke-width="1" opacity="1"></line><line transform="translate(0,190)" x2="-5" y2="0" stroke="#888" stroke-width="1" opacity="1"></line><line transform="translate(0,210)" x2="-5" y2="0" stroke="#888" stroke-width="1" opacity="1"></line><line transform="translate(0,230)" x2="-5" y2="0" stroke="#888" stroke-width="1" opacity="1"></line><line transform="translate(0,250)" x2="-5" y2="0" stroke="#888" stroke-width="1" opacity="1"></line><line transform="translate(0,270)" x2="-5" y2="0" stroke="#888" stroke-width="1" opacity="1"></line><line transform="translate(0,290)" x2="-5" y2="0" stroke="#888" stroke-width="1" opacity="1"></line><line transform="translate(0,310)" x2="-5" y2="0" stroke="#888" stroke-width="1" opacity="1"></line><line transform="translate(0,330)" x2="-5" y2="0" stroke="#888" stroke-width="1" opacity="1"></line><line transform="translate(0,350)" x2="-5" y2="0" stroke="#888" stroke-width="1" opacity="1"></line><line transform="translate(0,370)" x2="-5" y2="0" stroke="#888" stroke-width="1" opacity="1"></line><line transform="translate(0,390)" x2="-5" y2="0" stroke="#888" stroke-width="1" opacity="1"></line><line transform="translate(0,410)" x2="-5" y2="0" stroke="#888" stroke-width="1" opacity="1"></line><line transform="translate(0,430)" x2="-5" y2="0" stroke="#888" stroke-width="1" opacity="1"></line><line transform="translate(0,450)" x2="-5" y2="0" stroke="#888" stroke-width="1" opacity="1"></line><line transform="translate(0,470)" x2="-5" y2="0" stroke="#888" stroke-width="1" opacity="1"></line><line transform="translate(0,490)" x2="-5" y2="0" stroke="#888" stroke-width="1" opacity="1"></line><line transform="translate(0,510)" x2="-5" y2="0" stroke="#888" stroke-width="1" opacity="1"></line><line transform="translate(0,530)" x2="-5" y2="0" stroke="#888" stroke-width="1" opacity="1"></line></g><g class="mark-text role-axis-label" pointer-events="none"><text text-anchor="end" transform="translate(-7,12.5)" font-family="sans-serif" font-size="10px" fill="#000" opacity="1">AC</text><text text-anchor="end" transform="translate(-7,32.5)" font-family="sans-serif" font-size="10px" fill="#000" opacity="1">AL</text><text text-anchor="end" transform="translate(-7,52.5)" font-family="sans-serif" font-size="10px" fill="#000" opacity="1">AM</text><text text-anchor="end" transform="translate(-7,72.5)" font-family="sans-serif" font-size="10px" fill="#000" opacity="1">AP</text><text text-anchor="end" transform="translate(-7,92.5)" font-family="sans-serif" font-size="10px" fill="#000" opacity="1">BA</text><text text-anchor="end" transform="translate(-7,112.5)" font-family="sans-serif" font-size="10px" fill="#000" opacity="1">CE</text><text text-anchor="end" transform="translate(-7,132.5)" font-family="sans-serif" font-size="10px" fill="#000" opacity="1">DF</text><text text-anchor="end" transform="translate(-7,152.5)" font-family="sans-serif" font-size="10px" fill="#000" opacity="1">ES</text><text text-anchor="end" transform="translate(-7,172.5)" font-family="sans-serif" font-size="10px" fill="#000" opacity="1">GO</text><text text-anchor="end" transform="translate(-7,192.5)" font-family="sans-serif" font-size="10px" fill="#000" opacity="1">MA</text><text text-anchor="end" transform="translate(-7,212.5)" font-family="sans-serif" font-size="10px" fill="#000" opacity="1">MG</text><text text-anchor="end" transform="translate(-7,232.5)" font-family="sans-serif" font-size="10px" fill="#000" opacity="1">MS</text><text text-anchor="end" transform="translate(-7,252.5)" font-family="sans-serif" font-size="10px" fill="#000" opacity="1">MT</text><text text-anchor="end" transform="translate(-7,272.5)" font-family="sans-serif" font-size="10px" fill="#000" opacity="1">PA</text><text text-anchor="end" transform="translate(-7,292.5)" font-family="sans-serif" font-size="10px" fill="#000" opacity="1">PB</text><text text-anchor="end" transform="translate(-7,312.5)" font-family="sans-serif" font-size="10px" fill="#000" opacity="1">PE</text><text text-anchor="end" transform="translate(-7,332.5)" font-family="sans-serif" font-size="10px" fill="#000" opacity="1">PI</text><text text-anchor="end" transform="translate(-7,352.5)" font-family="sans-serif" font-size="10px" fill="#000" opacity="1">PR</text><text text-anchor="end" transform="translate(-7,372.5)" font-family="sans-serif" font-size="10px" fill="#000" opacity="1">RJ</text><text text-anchor="end" transform="translate(-7,392.5)" font-family="sans-serif" font-size="10px" fill="#000" opacity="1">RN</text><text text-anchor="end" transform="translate(-7,412.5)" font-family="sans-serif" font-size="10px" fill="#000" opacity="1">RO</text><text text-anchor="end" transform="translate(-7,432.5)" font-family="sans-serif" font-size="10px" fill="#000" opacity="1">RR</text><text text-anchor="end" transform="translate(-7,452.5)" font-family="sans-serif" font-size="10px" fill="#000" opacity="1">RS</text><text text-anchor="end" transform="translate(-7,472.5)" font-family="sans-serif" font-size="10px" fill="#000" opacity="1">SC</text><text text-anchor="end" transform="translate(-7,492.5)" font-family="sans-serif" font-size="10px" fill="#000" opacity="1">SE</text><text text-anchor="end" transform="translate(-7,512.5)" font-family="sans-serif" font-size="10px" fill="#000" opacity="1">SP</text><text text-anchor="end" transform="translate(-7,532.5)" font-family="sans-serif" font-size="10px" fill="#000" opacity="1">TO</text></g><g class="mark-rule role-axis-domain" pointer-events="none"><line transform="translate(0,0)" x2="0" y2="540" stroke="#888" stroke-width="1" opacity="1"></line></g><g class="mark-text role-axis-title" pointer-events="none"><text text-anchor="middle" transform="translate(-27,270) rotate(-90) translate(0,-2)" font-family="sans-serif" font-size="11px" font-weight="bold" fill="#000" opacity="1">States</text></g></g><path class="foreground" aria-hidden="true" d="" pointer-events="none" display="none"></path></g></g><g class="mark-symbol role-mark layer_0_marks" role="graphics-object" aria-roledescription="symbol mark container"><path aria-label="Instantaneous reproduction number R(t): 0.698016534892; States: AC" role="graphics-symbol" aria-roledescription="point" transform="translate(76.23508269371828,10)" d="M2.7386127875258306,0A2.7386127875258306,2.7386127875258306,0,1,1,-2.7386127875258306,0A2.7386127875258306,2.7386127875258306,0,1,1,2.7386127875258306,0" stroke="#4c78a8" stroke-width="2" opacity="0.7"></path><path aria-label="Instantaneous reproduction number R(t): 0.808329537641; States: SE" role="graphics-symbol" aria-roledescription="point" transform="translate(162.0340848320369,490)" d="M2.7386127875258306,0A2.7386127875258306,2.7386127875258306,0,1,1,-2.7386127875258306,0A2.7386127875258306,2.7386127875258306,0,1,1,2.7386127875258306,0" stroke="#4c78a8" stroke-width="2" opacity="0.7"></path><path aria-label="Instantaneous reproduction number R(t): 0.837263423244; States: AP" role="graphics-symbol" aria-roledescription="point" transform="translate(184.53821807870082,70)" d="M2.7386127875258306,0A2.7386127875258306,2.7386127875258306,0,1,1,-2.7386127875258306,0A2.7386127875258306,2.7386127875258306,0,1,1,2.7386127875258306,0" stroke="#4c78a8" stroke-width="2" opacity="0.7"></path><path aria-label="Instantaneous reproduction number R(t): 0.885708131525; States: MA" role="graphics-symbol" aria-roledescription="point" transform="translate(222.21743563029673,190)" d="M2.7386127875258306,0A2.7386127875258306,2.7386127875258306,0,1,1,-2.7386127875258306,0A2.7386127875258306,2.7386127875258306,0,1,1,2.7386127875258306,0" stroke="#4c78a8" stroke-width="2" opacity="0.7"></path><path aria-label="Instantaneous reproduction number R(t): 0.898642727687; States: CE" role="graphics-symbol" aria-roledescription="point" transform="translate(232.27767708993844,110)" d="M2.7386127875258306,0A2.7386127875258306,2.7386127875258306,0,1,1,-2.7386127875258306,0A2.7386127875258306,2.7386127875258306,0,1,1,2.7386127875258306,0" stroke="#4c78a8" stroke-width="2" opacity="0.7"></path><path aria-label="Instantaneous reproduction number R(t): 0.921064964934; States: TO" role="graphics-symbol" aria-roledescription="point" transform="translate(249.71719494897246,530)" d="M2.7386127875258306,0A2.7386127875258306,2.7386127875258306,0,1,1,-2.7386127875258306,0A2.7386127875258306,2.7386127875258306,0,1,1,2.7386127875258306,0" stroke="#4c78a8" stroke-width="2" opacity="0.7"></path><path aria-label="Instantaneous reproduction number R(t): 0.921469919114; States: PB" role="graphics-symbol" aria-roledescription="point" transform="translate(250.03215931066597,290)" d="M2.7386127875258306,0A2.7386127875258306,2.7386127875258306,0,1,1,-2.7386127875258306,0A2.7386127875258306,2.7386127875258306,0,1,1,2.7386127875258306,0" stroke="#4c78a8" stroke-width="2" opacity="0.7"></path><path aria-label="Instantaneous reproduction number R(t): 0.922344023533; States: SC" role="graphics-symbol" aria-roledescription="point" transform="translate(250.7120183033832,470)" d="M2.7386127875258306,0A2.7386127875258306,2.7386127875258306,0,1,1,-2.7386127875258306,0A2.7386127875258306,2.7386127875258306,0,1,1,2.7386127875258306,0" stroke="#4c78a8" stroke-width="2" opacity="0.7"></path><path aria-label="Instantaneous reproduction number R(t): 0.924653890081; States: RO" role="graphics-symbol" aria-roledescription="point" transform="translate(252.50858117427535,410)" d="M2.7386127875258306,0A2.7386127875258306,2.7386127875258306,0,1,1,-2.7386127875258306,0A2.7386127875258306,2.7386127875258306,0,1,1,2.7386127875258306,0" stroke="#4c78a8" stroke-width="2" opacity="0.7"></path><path aria-label="Instantaneous reproduction number R(t): 0.945461074335; States: PI" role="graphics-symbol" aria-roledescription="point" transform="translate(268.69194670490594,330)" d="M2.7386127875258306,0A2.7386127875258306,2.7386127875258306,0,1,1,-2.7386127875258306,0A2.7386127875258306,2.7386127875258306,0,1,1,2.7386127875258306,0" stroke="#4c78a8" stroke-width="2" opacity="0.7"></path><path aria-label="Instantaneous reproduction number R(t): 0.962996193863; States: AL" role="graphics-symbol" aria-roledescription="point" transform="translate(282.3303730043672,30)" d="M2.7386127875258306,0A2.7386127875258306,2.7386127875258306,0,1,1,-2.7386127875258306,0A2.7386127875258306,2.7386127875258306,0,1,1,2.7386127875258306,0" stroke="#4c78a8" stroke-width="2" opacity="0.7"></path><path aria-label="Instantaneous reproduction number R(t): 0.969148225986; States: AM" role="graphics-symbol" aria-roledescription="point" transform="translate(287.1152868781987,50)" d="M2.7386127875258306,0A2.7386127875258306,2.7386127875258306,0,1,1,-2.7386127875258306,0A2.7386127875258306,2.7386127875258306,0,1,1,2.7386127875258306,0" stroke="#4c78a8" stroke-width="2" opacity="0.7"></path><path aria-label="Instantaneous reproduction number R(t): 0.969878653597; States: DF" role="graphics-symbol" aria-roledescription="point" transform="translate(287.6833972419957,130)" d="M2.7386127875258306,0A2.7386127875258306,2.7386127875258306,0,1,1,-2.7386127875258306,0A2.7386127875258306,2.7386127875258306,0,1,1,2.7386127875258306,0" stroke="#4c78a8" stroke-width="2" opacity="0.7"></path><path aria-label="Instantaneous reproduction number R(t): 0.979747508854; States: PE" role="graphics-symbol" aria-roledescription="point" transform="translate(295.3591735534828,310)" d="M2.7386127875258306,0A2.7386127875258306,2.7386127875258306,0,1,1,-2.7386127875258306,0A2.7386127875258306,2.7386127875258306,0,1,1,2.7386127875258306,0" stroke="#4c78a8" stroke-width="2" opacity="0.7"></path><path aria-label="Instantaneous reproduction number R(t): 0.986789714394; States: RR" role="graphics-symbol" aria-roledescription="point" transform="translate(300.83644452889877,430)" d="M2.7386127875258306,0A2.7386127875258306,2.7386127875258306,0,1,1,-2.7386127875258306,0A2.7386127875258306,2.7386127875258306,0,1,1,2.7386127875258306,0" stroke="#4c78a8" stroke-width="2" opacity="0.7"></path><path aria-label="Instantaneous reproduction number R(t): 0.996002079393; States: PR" role="graphics-symbol" aria-roledescription="point" transform="translate(308.0016173056779,350)" d="M2.7386127875258306,0A2.7386127875258306,2.7386127875258306,0,1,1,-2.7386127875258306,0A2.7386127875258306,2.7386127875258306,0,1,1,2.7386127875258306,0" stroke="#4c78a8" stroke-width="2" opacity="0.7"></path><path aria-label="Instantaneous reproduction number R(t): 1.01463158572; States: PA" role="graphics-symbol" aria-roledescription="point" transform="translate(322.49123334035716,270)" d="M2.7386127875258306,0A2.7386127875258306,2.7386127875258306,0,1,1,-2.7386127875258306,0A2.7386127875258306,2.7386127875258306,0,1,1,2.7386127875258306,0" stroke="#4c78a8" stroke-width="2" opacity="0.7"></path><path aria-label="Instantaneous reproduction number R(t): 1.02689413699; States: BA" role="graphics-symbol" aria-roledescription="point" transform="translate(332.0287732112194,90)" d="M2.7386127875258306,0A2.7386127875258306,2.7386127875258306,0,1,1,-2.7386127875258306,0A2.7386127875258306,2.7386127875258306,0,1,1,2.7386127875258306,0" stroke="#4c78a8" stroke-width="2" opacity="0.7"></path><path aria-label="Instantaneous reproduction number R(t): 1.051688693; States: MT" role="graphics-symbol" aria-roledescription="point" transform="translate(351.3134278850354,250)" d="M2.7386127875258306,0A2.7386127875258306,2.7386127875258306,0,1,1,-2.7386127875258306,0A2.7386127875258306,2.7386127875258306,0,1,1,2.7386127875258306,0" stroke="#4c78a8" stroke-width="2" opacity="0.7"></path><path aria-label="Instantaneous reproduction number R(t): 1.07031865239; States: MG" role="graphics-symbol" aria-roledescription="point" transform="translate(365.8033963022593,210)" d="M2.7386127875258306,0A2.7386127875258306,2.7386127875258306,0,1,1,-2.7386127875258306,0A2.7386127875258306,2.7386127875258306,0,1,1,2.7386127875258306,0" stroke="#4c78a8" stroke-width="2" opacity="0.7"></path><path aria-label="Instantaneous reproduction number R(t): 1.07653233584; States: RS" role="graphics-symbol" aria-roledescription="point" transform="translate(370.63626120925545,450)" d="M2.7386127875258306,0A2.7386127875258306,2.7386127875258306,0,1,1,-2.7386127875258306,0A2.7386127875258306,2.7386127875258306,0,1,1,2.7386127875258306,0" stroke="#4c78a8" stroke-width="2" opacity="0.7"></path><path aria-label="Instantaneous reproduction number R(t): 1.08559770458; States: MS" role="graphics-symbol" aria-roledescription="point" transform="translate(377.68710356037866,230)" d="M2.7386127875258306,0A2.7386127875258306,2.7386127875258306,0,1,1,-2.7386127875258306,0A2.7386127875258306,2.7386127875258306,0,1,1,2.7386127875258306,0" stroke="#4c78a8" stroke-width="2" opacity="0.7"></path><path aria-label="Instantaneous reproduction number R(t): 1.09932457349; States: GO" role="graphics-symbol" aria-roledescription="point" transform="translate(388.36355715954784,170)" d="M2.7386127875258306,0A2.7386127875258306,2.7386127875258306,0,1,1,-2.7386127875258306,0A2.7386127875258306,2.7386127875258306,0,1,1,2.7386127875258306,0" stroke="#4c78a8" stroke-width="2" opacity="0.7"></path><path aria-label="Instantaneous reproduction number R(t): 1.0999630387; States: SP" role="graphics-symbol" aria-roledescription="point" transform="translate(388.86014121447994,510)" d="M2.7386127875258306,0A2.7386127875258306,2.7386127875258306,0,1,1,-2.7386127875258306,0A2.7386127875258306,2.7386127875258306,0,1,1,2.7386127875258306,0" stroke="#4c78a8" stroke-width="2" opacity="0.7"></path><path aria-label="Instantaneous reproduction number R(t): 1.11749910355; States: ES" role="graphics-symbol" aria-roledescription="point" transform="translate(402.49930275783356,150)" d="M2.7386127875258306,0A2.7386127875258306,2.7386127875258306,0,1,1,-2.7386127875258306,0A2.7386127875258306,2.7386127875258306,0,1,1,2.7386127875258306,0" stroke="#4c78a8" stroke-width="2" opacity="0.7"></path><path aria-label="Instantaneous reproduction number R(t): 1.19278119873; States: RJ" role="graphics-symbol" aria-roledescription="point" transform="translate(461.0520434544061,370)" d="M2.7386127875258306,0A2.7386127875258306,2.7386127875258306,0,1,1,-2.7386127875258306,0A2.7386127875258306,2.7386127875258306,0,1,1,2.7386127875258306,0" stroke="#4c78a8" stroke-width="2" opacity="0.7"></path><path aria-label="Instantaneous reproduction number R(t): 1.33184776975; States: RN" role="graphics-symbol" aria-roledescription="point" transform="translate(569.2149320268833,390)" d="M2.7386127875258306,0A2.7386127875258306,2.7386127875258306,0,1,1,-2.7386127875258306,0A2.7386127875258306,2.7386127875258306,0,1,1,2.7386127875258306,0" stroke="#4c78a8" stroke-width="2" opacity="0.7"></path></g><g class="mark-rule role-mark layer_1_marks" role="graphics-object" aria-roledescription="rule mark container"><line aria-label="a: 1" role="graphics-symbol" aria-roledescription="rule mark" transform="translate(311.11111111111114,0)" x2="0" y2="540" stroke="black" stroke-width="0.2"></line><line aria-label="a: 1" role="graphics-symbol" aria-roledescription="rule mark" transform="translate(311.11111111111114,0)" x2="0" y2="540" stroke="black" stroke-width="0.2"></line><line aria-label="a: 1" role="graphics-symbol" aria-roledescription="rule mark" transform="translate(311.11111111111114,0)" x2="0" y2="540" stroke="black" stroke-width="0.2"></line><line aria-label="a: 1" role="graphics-symbol" aria-roledescription="rule mark" transform="translate(311.11111111111114,0)" x2="0" y2="540" stroke="black" stroke-width="0.2"></line><line aria-label="a: 1" role="graphics-symbol" aria-roledescription="rule mark" transform="translate(311.11111111111114,0)" x2="0" y2="540" stroke="black" stroke-width="0.2"></line><line aria-label="a: 1" role="graphics-symbol" aria-roledescription="rule mark" transform="translate(311.11111111111114,0)" x2="0" y2="540" stroke="black" stroke-width="0.2"></line><line aria-label="a: 1" role="graphics-symbol" aria-roledescription="rule mark" transform="translate(311.11111111111114,0)" x2="0" y2="540" stroke="black" stroke-width="0.2"></line><line aria-label="a: 1" role="graphics-symbol" aria-roledescription="rule mark" transform="translate(311.11111111111114,0)" x2="0" y2="540" stroke="black" stroke-width="0.2"></line><line aria-label="a: 1" role="graphics-symbol" aria-roledescription="rule mark" transform="translate(311.11111111111114,0)" x2="0" y2="540" stroke="black" stroke-width="0.2"></line><line aria-label="a: 1" role="graphics-symbol" aria-roledescription="rule mark" transform="translate(311.11111111111114,0)" x2="0" y2="540" stroke="black" stroke-width="0.2"></line><line aria-label="a: 1" role="graphics-symbol" aria-roledescription="rule mark" transform="translate(311.11111111111114,0)" x2="0" y2="540" stroke="black" stroke-width="0.2"></line><line aria-label="a: 1" role="graphics-symbol" aria-roledescription="rule mark" transform="translate(311.11111111111114,0)" x2="0" y2="540" stroke="black" stroke-width="0.2"></line><line aria-label="a: 1" role="graphics-symbol" aria-roledescription="rule mark" transform="translate(311.11111111111114,0)" x2="0" y2="540" stroke="black" stroke-width="0.2"></line><line aria-label="a: 1" role="graphics-symbol" aria-roledescription="rule mark" transform="translate(311.11111111111114,0)" x2="0" y2="540" stroke="black" stroke-width="0.2"></line><line aria-label="a: 1" role="graphics-symbol" aria-roledescription="rule mark" transform="translate(311.11111111111114,0)" x2="0" y2="540" stroke="black" stroke-width="0.2"></line><line aria-label="a: 1" role="graphics-symbol" aria-roledescription="rule mark" transform="translate(311.11111111111114,0)" x2="0" y2="540" stroke="black" stroke-width="0.2"></line><line aria-label="a: 1" role="graphics-symbol" aria-roledescription="rule mark" transform="translate(311.11111111111114,0)" x2="0" y2="540" stroke="black" stroke-width="0.2"></line><line aria-label="a: 1" role="graphics-symbol" aria-roledescription="rule mark" transform="translate(311.11111111111114,0)" x2="0" y2="540" stroke="black" stroke-width="0.2"></line><line aria-label="a: 1" role="graphics-symbol" aria-roledescription="rule mark" transform="translate(311.11111111111114,0)" x2="0" y2="540" stroke="black" stroke-width="0.2"></line><line aria-label="a: 1" role="graphics-symbol" aria-roledescription="rule mark" transform="translate(311.11111111111114,0)" x2="0" y2="540" stroke="black" stroke-width="0.2"></line><line aria-label="a: 1" role="graphics-symbol" aria-roledescription="rule mark" transform="translate(311.11111111111114,0)" x2="0" y2="540" stroke="black" stroke-width="0.2"></line><line aria-label="a: 1" role="graphics-symbol" aria-roledescription="rule mark" transform="translate(311.11111111111114,0)" x2="0" y2="540" stroke="black" stroke-width="0.2"></line><line aria-label="a: 1" role="graphics-symbol" aria-roledescription="rule mark" transform="translate(311.11111111111114,0)" x2="0" y2="540" stroke="black" stroke-width="0.2"></line><line aria-label="a: 1" role="graphics-symbol" aria-roledescription="rule mark" transform="translate(311.11111111111114,0)" x2="0" y2="540" stroke="black" stroke-width="0.2"></line><line aria-label="a: 1" role="graphics-symbol" aria-roledescription="rule mark" transform="translate(311.11111111111114,0)" x2="0" y2="540" stroke="black" stroke-width="0.2"></line><line aria-label="a: 1" role="graphics-symbol" aria-roledescription="rule mark" transform="translate(311.11111111111114,0)" x2="0" y2="540" stroke="black" stroke-width="0.2"></line><line aria-label="a: 1" role="graphics-symbol" aria-roledescription="rule mark" transform="translate(311.11111111111114,0)" x2="0" y2="540" stroke="black" stroke-width="0.2"></line></g><g class="mark-rule role-mark layer_2_marks" role="graphics-object" aria-roledescription="rule mark container"><line aria-label="CI 0.975: 0.613135970095; upper_Quantile.0.025(R): 0.803329730643; index: AC; Quantile.0.975(R): 0.803329730643; Quantile.0.025(R): 0.613135970095" role="graphics-symbol" aria-roledescription="errorbar" transform="translate(10.216865629216223,10)" x2="147.92848042663158" y2="0" stroke="blue" stroke-width="0.6"></line><line aria-label="CI 0.975: 0.754895780139; upper_Quantile.0.025(R): 0.862715149476; index: SE; Quantile.0.975(R): 0.862715149476; Quantile.0.025(R): 0.754895780139" role="graphics-symbol" aria-roledescription="errorbar" transform="translate(120.47449566359651,490)" x2="83.85950948414586" y2="0" stroke="blue" stroke-width="0.6"></line><line aria-label="CI 0.975: 0.790260064807; upper_Quantile.0.025(R): 0.886378869888; index: AP; Quantile.0.975(R): 0.886378869888; Quantile.0.025(R): 0.790260064807" role="graphics-symbol" aria-roledescription="errorbar" transform="translate(147.98005040563802,70)" x2="74.75907061798324" y2="0" stroke="blue" stroke-width="0.6"></line><line aria-label="CI 0.975: 0.864732637466; upper_Quantile.0.025(R): 0.907036620574; index: MA; Quantile.0.975(R): 0.907036620574; Quantile.0.025(R): 0.864732637466" role="graphics-symbol" aria-roledescription="errorbar" transform="translate(205.90316247390686,190)" x2="32.903097972813015" y2="0" stroke="blue" stroke-width="0.6"></line><line aria-label="CI 0.975: 0.869661815482; upper_Quantile.0.025(R): 0.928215587007; index: CE; Quantile.0.975(R): 0.928215587007; Quantile.0.025(R): 0.869661815482" role="graphics-symbol" aria-roledescription="errorbar" transform="translate(209.73696759721696,110)" x2="45.541822296833004" y2="0" stroke="blue" stroke-width="0.6"></line><line aria-label="CI 0.975: 0.89262420778; upper_Quantile.0.025(R): 0.950651606802; index: TO; Quantile.0.975(R): 0.950651606802; Quantile.0.025(R): 0.89262420778" role="graphics-symbol" aria-roledescription="errorbar" transform="translate(227.59660605118802,530)" x2="45.132421461503895" y2="0" stroke="blue" stroke-width="0.6"></line><line aria-label="CI 0.975: 0.88495871087; upper_Quantile.0.025(R): 0.958847012207; index: PB; Quantile.0.975(R): 0.958847012207; Quantile.0.025(R): 0.88495871087" role="graphics-symbol" aria-roledescription="errorbar" transform="translate(221.63455289859996,290)" x2="57.46867881793105" y2="0" stroke="blue" stroke-width="0.6"></line><line aria-label="CI 0.975: 0.904490093648; upper_Quantile.0.025(R): 0.942591867516; index: SC; Quantile.0.975(R): 0.942591867516; Quantile.0.025(R): 0.904490093648" role="graphics-symbol" aria-roledescription="errorbar" transform="translate(236.82562839283003,470)" x2="29.63471300880849" y2="0" stroke="blue" stroke-width="0.6"></line><line aria-label="CI 0.975: 0.895036461201; upper_Quantile.0.025(R): 0.954941280832; index: RO; Quantile.0.975(R): 0.954941280832; Quantile.0.025(R): 0.895036461201" role="graphics-symbol" aria-roledescription="errorbar" transform="translate(229.47280315637343,410)" x2="46.592637490417616" y2="0" stroke="blue" stroke-width="0.6"></line><line aria-label="CI 0.975: 0.908928173798; upper_Quantile.0.025(R): 0.975076293021; index: PI; Quantile.0.975(R): 0.975076293021; Quantile.0.025(R): 0.908928173798" role="graphics-symbol" aria-roledescription="errorbar" transform="translate(240.27746850920494,330)" x2="51.448537173719956" y2="0" stroke="blue" stroke-width="0.6"></line><line aria-label="CI 0.975: 0.930420150087; upper_Quantile.0.025(R): 0.994546111742; index: AL; Quantile.0.975(R): 0.994546111742; Quantile.0.025(R): 0.930420150087" role="graphics-symbol" aria-roledescription="errorbar" transform="translate(256.99345006798603,30)" x2="49.875747953534415" y2="0" stroke="blue" stroke-width="0.6"></line><line aria-label="CI 0.975: 0.938017602907; upper_Quantile.0.025(R): 1.00032279465; index: AM; Quantile.0.975(R): 1.00032279465; Quantile.0.025(R): 0.938017602907" role="graphics-symbol" aria-roledescription="errorbar" transform="translate(262.90258003903114,50)" x2="48.45959357661468" y2="0" stroke="blue" stroke-width="0.6"></line><line aria-label="CI 0.975: 0.952985523023; upper_Quantile.0.025(R): 0.987208466539; index: DF; Quantile.0.975(R): 0.987208466539; Quantile.0.025(R): 0.952985523023" role="graphics-symbol" aria-roledescription="errorbar" transform="translate(274.5442956842373,130)" x2="26.617844956835427" y2="0" stroke="blue" stroke-width="0.6"></line><line aria-label="CI 0.975: 0.939577662366; upper_Quantile.0.025(R): 1.01881228186; index: PE; Quantile.0.975(R): 1.01881228186; Quantile.0.025(R): 0.939577662366" role="graphics-symbol" aria-roledescription="errorbar" transform="translate(264.1159596178572,310)" x2="61.62692627386639" y2="0" stroke="blue" stroke-width="0.6"></line><line aria-label="CI 0.975: 0.949595988469; upper_Quantile.0.025(R): 1.02608166117; index: RR; Quantile.0.975(R): 1.02608166117; Quantile.0.025(R): 0.949595988469" role="graphics-symbol" aria-roledescription="errorbar" transform="translate(271.9079910316926,430)" x2="59.48885654768077" y2="0" stroke="blue" stroke-width="0.6"></line><line aria-label="CI 0.975: 0.974509972178; upper_Quantile.0.025(R): 1.02021301058; index: PR; Quantile.0.975(R): 1.02021301058; Quantile.0.025(R): 0.974509972178" role="graphics-symbol" aria-roledescription="errorbar" transform="translate(291.28553391605044,350)" x2="35.54680764538671" y2="0" stroke="blue" stroke-width="0.6"></line><line aria-label="CI 0.975: 0.977838338568; upper_Quantile.0.025(R): 1.05956732136; index: PA; Quantile.0.975(R): 1.05956732136; Quantile.0.025(R): 0.977838338568" role="graphics-symbol" aria-roledescription="errorbar" transform="translate(293.87426333104173,270)" x2="63.56698661856649" y2="0" stroke="blue" stroke-width="0.6"></line><line aria-label="CI 0.975: 1.00892354409; upper_Quantile.0.025(R): 1.04579912965; index: BA; Quantile.0.975(R): 1.04579912965; Quantile.0.025(R): 1.00892354409" role="graphics-symbol" aria-roledescription="errorbar" transform="translate(318.0516453999644,90)" x2="28.68101099543975" y2="0" stroke="blue" stroke-width="0.6"></line><line aria-label="CI 0.975: 1.02771610468; upper_Quantile.0.025(R): 1.07629836076; index: MT; Quantile.0.975(R): 1.07629836076; Quantile.0.025(R): 1.02771610468" role="graphics-symbol" aria-roledescription="errorbar" transform="translate(332.66808142069215,250)" x2="37.78619917066379" y2="0" stroke="blue" stroke-width="0.6"></line><line aria-label="CI 0.975: 1.05389787152; upper_Quantile.0.025(R): 1.08719773284; index: MG; Quantile.0.975(R): 1.08719773284; Quantile.0.025(R): 1.05389787152" role="graphics-symbol" aria-roledescription="errorbar" transform="translate(353.03167785026153,210)" x2="25.899892137706615" y2="0" stroke="blue" stroke-width="0.6"></line><line aria-label="CI 0.975: 1.04688531685; upper_Quantile.0.025(R): 1.10683866; index: RS; Quantile.0.975(R): 1.10683866; Quantile.0.025(R): 1.04688531685" role="graphics-symbol" aria-roledescription="errorbar" transform="translate(347.5774686641533,450)" x2="46.63037800307552" y2="0" stroke="blue" stroke-width="0.6"></line><line aria-label="CI 0.975: 1.05630929369; upper_Quantile.0.025(R): 1.11532612819; index: MS; Quantile.0.975(R): 1.11532612819; Quantile.0.025(R): 1.05630929369" role="graphics-symbol" aria-roledescription="errorbar" transform="translate(354.90722842718884,230)" x2="45.90198239100221" y2="0" stroke="blue" stroke-width="0.6"></line><line aria-label="CI 0.975: 1.05751244911; upper_Quantile.0.025(R): 1.1469198615; index: GO; Quantile.0.975(R): 1.1469198615; Quantile.0.025(R): 1.05751244911" role="graphics-symbol" aria-roledescription="errorbar" transform="translate(355.8430159753187,170)" x2="69.53909852528705" y2="0" stroke="blue" stroke-width="0.6"></line><line aria-label="CI 0.975: 1.08169473347; upper_Quantile.0.025(R): 1.11561938923; index: SP; Quantile.0.975(R): 1.11561938923; Quantile.0.025(R): 1.08169473347" role="graphics-symbol" aria-roledescription="errorbar" transform="translate(374.65145936561447,510)" x2="26.38584336921332" y2="0" stroke="blue" stroke-width="0.6"></line><line aria-label="CI 0.975: 1.0620771975; upper_Quantile.0.025(R): 1.17639974251; index: ES; Quantile.0.975(R): 1.17639974251; Quantile.0.025(R): 1.0620771975" role="graphics-symbol" aria-roledescription="errorbar" transform="translate(359.39337583155367,150)" x2="88.91753501136378" y2="0" stroke="blue" stroke-width="0.6"></line><line aria-label="CI 0.975: 1.13113301901; upper_Quantile.0.025(R): 1.26998875554; index: RJ; Quantile.0.975(R): 1.26998875554; Quantile.0.025(R): 1.13113301901" role="graphics-symbol" aria-roledescription="errorbar" transform="translate(413.1034592267648,370)" x2="107.99890619299572" y2="0" stroke="blue" stroke-width="0.6"></line><line aria-label="CI 0.975: 1.18469954128; upper_Quantile.0.025(R): 1.44393271982; index: RN; Quantile.0.975(R): 1.44393271982; Quantile.0.025(R): 1.18469954128" role="graphics-symbol" aria-roledescription="errorbar" transform="translate(454.76630988677283,390)" x2="201.62580552782066" y2="0" stroke="blue" stroke-width="0.6"></line></g><g class="mark-group role-title"><g transform="translate(350,-17.2)"><path class="background" aria-hidden="true" d="M0,0h0v0h0Z" pointer-events="none"></path><g><g class="mark-text role-title-text" role="graphics-symbol" aria-roledescription="title" aria-label="Title text 'Instantaneous reproduction number estimate for all states in Brazil'" pointer-events="none"><text text-anchor="middle" transform="translate(0,10)" font-family="sans-serif" font-size="13px" font-weight="bold" fill="#000" opacity="1">Instantaneous reproduction number estimate for all states in Brazil</text></g></g><path class="foreground" aria-hidden="true" d="" pointer-events="none" display="none"></path></g></g></g><path class="foreground" aria-hidden="true" d="" display="none"></path></g></g></g></svg>