<svg class="marks" width="997" height="599" viewBox="0 0 997 599" version="1.1" xmlns="http://www.w3.org/2000/svg" xmlns:xlink="http://www.w3.org/1999/xlink"><rect width="997" height="599" fill="white"></rect><g fill="none" stroke-miterlimit="10" transform="translate(179,22)"><g class="mark-group role-frame root" role="graphics-object" aria-roledescription="group mark container"><g transform="translate(0,0)"><path class="background" aria-hidden="true" d="M0.5,0.5h700v540h-700Z"></path><g><g class="mark-group role-axis" aria-hidden="true"><g transform="translate(0.5,0.5)"><path class="background" aria-hidden="true" d="M0,0h0v0h0Z" pointer-events="none"></path><g><g class="mark-rule role-axis-grid" pointer-events="none"><line transform="translate(0,10)" x2="700" y2="0" stroke="#ddd" stroke-width="1" opacity="1"></line><line transform="translate(0,30)" x2="700" y2="0" stroke="#ddd" stroke-width="1" opacity="1"></line><line transform="translate(0,50)" x2="700" y2="0" stroke="#ddd" stroke-width="1" opacity="1"></line><line transform="translate(0,70)" x2="700" y2="0" stroke="#ddd" stroke-width="1" opacity="1"></line><line transform="translate(0,90)" x2="700" y2="0" stroke="#ddd" stroke-width="1" opacity="1"></line><line transform="translate(0,110)" x2="700" y2="0" stroke="#ddd" stroke-width="1" opacity="1"></line><line transform="translate(0,130)" x2="700" y2="0" stroke="#ddd" stroke-width="1" opacity="1"></line><line transform="translate(0,150)" x2="700" y2="0" stroke="#ddd" stroke-width="1" opacity="1"></line><line transform="translate(0,170)" x2="700" y2="0" stroke="#ddd" stroke-width="1" opacity="1"></line><line transform="translate(0,190)" x2="700" y2="0" stroke="#ddd" stroke-width="1" opacity="1"></line><line transform="translate(0,210)" x2="700" y2="0" stroke="#ddd" stroke-width="1" opacity="1"></line><line transform="translate(0,230)" x2="700" y2="0" stroke="#ddd" stroke-width="1" opacity="1"></line><line transform="translate(0,250)" x2="700" y2="0" stroke="#ddd" stroke-width="1" opacity="1"></line><line transform="translate(0,270)" x2="700" y2="0" stroke="#ddd" stroke-width="1" opacity="1"></line><line transform="translate(0,290)" x2="700" y2="0" stroke="#ddd" stroke-width="1" opacity="1"></line><line transform="translate(0,310)" x2="700" y2="0" stroke="#ddd" stroke-width="1" opacity="1"></line><line transform="translate(0,330)" x2="700" y2="0" stroke="#ddd" stroke-width="1" opacity="1"></line><line transform="translate(0,350)" x2="700" y2="0" stroke="#ddd" stroke-width="1" opacity="1"></line><line transform="translate(0,370)" x2="700" y2="0" stroke="#ddd" stroke-width="1" opacity="1"></line><line transform="translate(0,390)" x2="700" y2="0" stroke="#ddd" stroke-width="1" opacity="1"></line><line transform="translate(0,410)" x2="700" y2="0" stroke="#ddd" stroke-width="1" opacity="1"></line><line transform="translate(0,430)" x2="700" y2="0" stroke="#ddd" stroke-width="1" opacity="1"></line><line transform="translate(0,450)" x2="700" y2="0" stroke="#ddd" stroke-width="1" opacity="1"></line><line transform="translate(0,470)" x2="700" y2="0" stroke="#ddd" stroke-width="1" opacity="1"></line><line transform="translate(0,490)" x2="700" y2="0" stroke="#ddd" stroke-width="1" opacity="1"></line><line transform="translate(0,510)" x2="700" y2="0" stroke="#ddd" stroke-width="1" opacity="1"></line><line transform="translate(0,530)" x2="700" y2="0" stroke="#ddd" stroke-width="1" opacity="1"></line></g></g><path class="foreground" aria-hidden="true" d="" pointer-events="none" display="none"></path></g></g><g class="mark-group role-axis" role="graphics-symbol" aria-roledescription="axis" aria-label="X-axis titled 'Weighted percentage w/ COVID-like illness, CI 0.95' for a linear scale with values from -2 to 16"><g transform="translate(0.5,540.5)"><path class="background" aria-hidden="true" d="M0,0h0v0h0Z" pointer-events="none"></path><g><g class="mark-rule role-axis-tick" pointer-events="none"><line transform="translate(0,0)" x2="0" y2="5" stroke="#888" stroke-width="1" opacity="1"></line><line transform="translate(39,0)" x2="0" y2="5" stroke="#888" stroke-width="1" opacity="1"></line><line transform="translate(78,0)" x2="0" y2="5" stroke="#888" stroke-width="1" opacity="1"></line><line transform="translate(117,0)" x2="0" y2="5" stroke="#888" stroke-width="1" opacity="1"></line><line transform="translate(156,0)" x2="0" y2="5" stroke="#888" stroke-width="1" opacity="1"></line><line transform="translate(194,0)" x2="0" y2="5" stroke="#888" stroke-width="1" opacity="1"></line><line transform="translate(233,0)" x2="0" y2="5" stroke="#888" stroke-width="1" opacity="1"></line><line transform="translate(272,0)" x2="0" y2="5" stroke="#888" stroke-width="1" opacity="1"></line><line transform="translate(311,0)" x2="0" y2="5" stroke="#888" stroke-width="1" opacity="1"></line><line transform="translate(350,0)" x2="0" y2="5" stroke="#888" stroke-width="1" opacity="1"></line><line transform="translate(389,0)" x2="0" y2="5" stroke="#888" stroke-width="1" opacity="1"></line><line transform="translate(428,0)" x2="0" y2="5" stroke="#888" stroke-width="1" opacity="1"></line><line transform="translate(467,0)" x2="0" y2="5" stroke="#888" stroke-width="1" opacity="1"></line><line transform="translate(506,0)" x2="0" y2="5" stroke="#888" stroke-width="1" opacity="1"></line><line transform="translate(544,0)" x2="0" y2="5" stroke="#888" stroke-width="1" opacity="1"></line><line transform="translate(583,0)" x2="0" y2="5" stroke="#888" stroke-width="1" opacity="1"></line><line transform="translate(622,0)" x2="0" y2="5" stroke="#888" stroke-width="1" opacity="1"></line><line transform="translate(661,0)" x2="0" y2="5" stroke="#888" stroke-width="1" opacity="1"></line><line transform="translate(700,0)" x2="0" y2="5" stroke="#888" stroke-width="1" opacity="1"></line></g><g class="mark-text role-axis-label" pointer-events="none"><text text-anchor="start" transform="translate(0,15)" font-family="sans-serif" font-size="10px" fill="#000" opacity="1">-2</text><text text-anchor="middle" transform="translate(38.888888888888886,15)" font-family="sans-serif" font-size="10px" fill="#000" opacity="1">-1</text><text text-anchor="middle" transform="translate(77.77777777777777,15)" font-family="sans-serif" font-size="10px" fill="#000" opacity="1">0</text><text text-anchor="middle" transform="translate(116.66666666666666,15)" font-family="sans-serif" font-size="10px" fill="#000" opacity="1">1</text><text text-anchor="middle" transform="translate(155.55555555555554,15)" font-family="sans-serif" font-size="10px" fill="#000" opacity="1">2</text><text text-anchor="middle" transform="translate(194.44444444444446,15)" font-family="sans-serif" font-size="10px" fill="#000" opacity="1">3</text><text text-anchor="middle" transform="translate(233.33333333333331,15)" font-family="sans-serif" font-size="10px" fill="#000" opacity="1">4</text><text text-anchor="middle" transform="translate(272.22222222222223,15)" font-family="sans-serif" font-size="10px" fill="#000" opacity="1">5</text><text text-anchor="middle" transform="translate(311.1111111111111,15)" font-family="sans-serif" font-size="10px" fill="#000" opacity="1">6</text><text text-anchor="middle" transform="translate(350,15)" font-family="sans-serif" font-size="10px" fill="#000" opacity="1">7</text><text text-anchor="middle" transform="translate(388.8888888888889,15)" font-family="sans-serif" font-size="10px" fill="#000" opacity="1">8</text><text text-anchor="middle" transform="translate(427.7777777777778,15)" font-family="sans-serif" font-size="10px" fill="#000" opacity="1">9</text><text text-anchor="middle" transform="translate(466.66666666666663,15)" font-family="sans-serif" font-size="10px" fill="#000" opacity="1">10</text><text text-anchor="middle" transform="translate(505.55555555555554,15)" font-family="sans-serif" font-size="10px" fill="#000" opacity="1">11</text><text text-anchor="middle" transform="translate(544.4444444444445,15)" font-family="sans-serif" font-size="10px" fill="#000" opacity="1">12</text><text text-anchor="middle" transform="translate(583.3333333333334,15)" font-family="sans-serif" font-size="10px" fill="#000" opacity="1">13</text><text text-anchor="middle" transform="translate(622.2222222222222,15)" font-family="sans-serif" font-size="10px" fill="#000" opacity="1">14</text><text text-anchor="middle" transform="translate(661.1111111111111,15)" font-family="sans-serif" font-size="10px" fill="#000" opacity="1">15</text><text text-anchor="end" transform="translate(700,15)" font-family="sans-serif" font-size="10px" fill="#000" opacity="1">16</text></g><g class="mark-rule role-axis-domain" pointer-events="none"><line transform="translate(0,0)" x2="700" y2="0" stroke="#888" stroke-width="1" opacity="1"></line></g><g class="mark-text role-axis-title" pointer-events="none"><text text-anchor="middle" transform="translate(350,30)" font-family="sans-serif" font-size="11px" font-weight="bold" fill="#000" opacity="1">Weighted percentage w/ COVID-like illness, CI 0.95</text></g></g><path class="foreground" aria-hidden="true" d="" pointer-events="none" display="none"></path></g></g><g class="mark-group role-axis" role="graphics-symbol" aria-roledescription="axis" aria-label="Y-axis titled 'States' for a discrete scale with 27 values: Acre, Alagoas, Amapá, Amazonas, Bahia, ending with Tocantins"><g transform="translate(0.5,0.5)"><path class="background" aria-hidden="true" d="M0,0h0v0h0Z" pointer-events="none"></path><g><g class="mark-rule role-axis-tick" pointer-events="none"><line transform="translate(0,10)" x2="-5" y2="0" stroke="#888" stroke-width="1" opacity="1"></line><line transform="translate(0,30)" x2="-5" y2="0" stroke="#888" stroke-width="1" opacity="1"></line><line transform="translate(0,50)" x2="-5" y2="0" stroke="#888" stroke-width="1" opacity="1"></line><line transform="translate(0,70)" x2="-5" y2="0" stroke="#888" stroke-width="1" opacity="1"></line><line transform="translate(0,90)" x2="-5" y2="0" stroke="#888" stroke-width="1" opacity="1"></line><line transform="translate(0,110)" x2="-5" y2="0" stroke="#888" stroke-width="1" opacity="1"></line><line transform="translate(0,130)" x2="-5" y2="0" stroke="#888" stroke-width="1" opacity="1"></line><line transform="translate(0,150)" x2="-5" y2="0" stroke="#888" stroke-width="1" opacity="1"></line><line transform="translate(0,170)" x2="-5" y2="0" stroke="#888" stroke-width="1" opacity="1"></line><line transform="translate(0,190)" x2="-5" y2="0" stroke="#888" stroke-width="1" opacity="1"></line><line transform="translate(0,210)" x2="-5" y2="0" stroke="#888" stroke-width="1" opacity="1"></line><line transform="translate(0,230)" x2="-5" y2="0" stroke="#888" stroke-width="1" opacity="1"></line><line transform="translate(0,250)" x2="-5" y2="0" stroke="#888" stroke-width="1" opacity="1"></line><line transform="translate(0,270)" x2="-5" y2="0" stroke="#888" stroke-width="1" opacity="1"></line><line transform="translate(0,290)" x2="-5" y2="0" stroke="#888" stroke-width="1" opacity="1"></line><line transform="translate(0,310)" x2="-5" y2="0" stroke="#888" stroke-width="1" opacity="1"></line><line transform="translate(0,330)" x2="-5" y2="0" stroke="#888" stroke-width="1" opacity="1"></line><line transform="translate(0,350)" x2="-5" y2="0" stroke="#888" stroke-width="1" opacity="1"></line><line transform="translate(0,370)" x2="-5" y2="0" stroke="#888" stroke-width="1" opacity="1"></line><line transform="translate(0,390)" x2="-5" y2="0" stroke="#888" stroke-width="1" opacity="1"></line><line transform="translate(0,410)" x2="-5" y2="0" stroke="#888" stroke-width="1" opacity="1"></line><line transform="translate(0,430)" x2="-5" y2="0" stroke="#888" stroke-width="1" opacity="1"></line><line transform="translate(0,450)" x2="-5" y2="0" stroke="#888" stroke-width="1" opacity="1"></line><line transform="translate(0,470)" x2="-5" y2="0" stroke="#888" stroke-width="1" opacity="1"></line><line transform="translate(0,490)" x2="-5" y2="0" stroke="#888" stroke-width="1" opacity="1"></line><line transform="translate(0,510)" x2="-5" y2="0" stroke="#888" stroke-width="1" opacity="1"></line><line transform="translate(0,530)" x2="-5" y2="0" stroke="#888" stroke-width="1" opacity="1"></line></g><g class="mark-text role-axis-label" pointer-events="none"><text text-anchor="end" transform="translate(-7,12.5)" font-family="sans-serif" font-size="10px" fill="#000" opacity="1">Acre</text><text text-anchor="end" transform="translate(-7,32.5)" font-family="sans-serif" font-size="10px" fill="#000" opacity="1">Alagoas</text><text text-anchor="end" transform="translate(-7,52.5)" font-family="sans-serif" font-size="10px" fill="#000" opacity="1">Amapá</text><text text-anchor="end" transform="translate(-7,72.5)" font-family="sans-serif" font-size="10px" fill="#000" opacity="1">Amazonas</text><text text-anchor="end" transform="translate(-7,92.5)" font-family="sans-serif" font-size="10px" fill="#000" opacity="1">Bahia</text><text text-anchor="end" transform="translate(-7,112.5)" font-family="sans-serif" font-size="10px" fill="#000" opacity="1">Ceará</text><text text-anchor="end" transform="translate(-7,132.5)" font-family="sans-serif" font-size="10px" fill="#000" opacity="1">Distrito Federal</text><text text-anchor="end" transform="translate(-7,152.5)" font-family="sans-serif" font-size="10px" fill="#000" opacity="1">Espírito Santo</text><text text-anchor="end" transform="translate(-7,172.5)" font-family="sans-serif" font-size="10px" fill="#000" opacity="1">Goiás</text><text text-anchor="end" transform="translate(-7,192.5)" font-family="sans-serif" font-size="10px" fill="#000" opacity="1">Maranhão</text><text text-anchor="end" transform="translate(-7,212.5)" font-family="sans-serif" font-size="10px" fill="#000" opacity="1">Mato Grosso</text><text text-anchor="end" transform="translate(-7,232.5)" font-family="sans-serif" font-size="10px" fill="#000" opacity="1">Mato Grosso do Sul</text><text text-anchor="end" transform="translate(-7,252.5)" font-family="sans-serif" font-size="10px" fill="#000" opacity="1">Minas Gerais</text><text text-anchor="end" transform="translate(-7,272.5)" font-family="sans-serif" font-size="10px" fill="#000" opacity="1">Paraná</text><text text-anchor="end" transform="translate(-7,292.5)" font-family="sans-serif" font-size="10px" fill="#000" opacity="1">Paraíba</text><text text-anchor="end" transform="translate(-7,312.5)" font-family="sans-serif" font-size="10px" fill="#000" opacity="1">Pará</text><text text-anchor="end" transform="translate(-7,332.5)" font-family="sans-serif" font-size="10px" fill="#000" opacity="1">Pernambuco</text><text text-anchor="end" transform="translate(-7,352.5)" font-family="sans-serif" font-size="10px" fill="#000" opacity="1">Piauí</text><text text-anchor="end" transform="translate(-7,372.5)" font-family="sans-serif" font-size="10px" fill="#000" opacity="1">Rio Grande do Norte</text><text text-anchor="end" transform="translate(-7,392.5)" font-family="sans-serif" font-size="10px" fill="#000" opacity="1">Rio Grande do Sul</text><text text-anchor="end" transform="translate(-7,412.5)" font-family="sans-serif" font-size="10px" fill="#000" opacity="1">Rio de Janeiro</text><text text-anchor="end" transform="translate(-7,432.5)" font-family="sans-serif" font-size="10px" fill="#000" opacity="1">Rondônia</text><text text-anchor="end" transform="translate(-7,452.5)" font-family="sans-serif" font-size="10px" fill="#000" opacity="1">Roraima</text><text text-anchor="end" transform="translate(-7,472.5)" font-family="sans-serif" font-size="10px" fill="#000" opacity="1">Santa Catarina</text><text text-anchor="end" transform="translate(-7,492.5)" font-family="sans-serif" font-size="10px" fill="#000" opacity="1">Sergipe</text><text text-anchor="end" transform="translate(-7,512.5)" font-family="sans-serif" font-size="10px" fill="#000" opacity="1">São Paulo</text><text text-anchor="end" transform="translate(-7,532.5)" font-family="sans-serif" font-size="10px" fill="#000" opacity="1">Tocantins</text></g><g class="mark-rule role-axis-domain" pointer-events="none"><line transform="translate(0,0)" x2="0" y2="540" stroke="#888" stroke-width="1" opacity="1"></line></g><g class="mark-text role-axis-title" pointer-events="none"><text text-anchor="middle" transform="translate(-163,270) rotate(-90) translate(0,-2)" font-family="sans-serif" font-size="11px" font-weight="bold" fill="#000" opacity="1">States</text></g></g><path class="foreground" aria-hidden="true" d="" pointer-events="none" display="none"></path></g></g><g class="mark-symbol role-mark layer_0_marks" role="graphics-object" aria-roledescription="symbol mark container"><path aria-label="Weighted percentage w/ COVID-like illness: 8.0533; States: Rondônia" role="graphics-symbol" aria-roledescription="point" transform="translate(390.96166666666664,430)" d="M2.7386127875258306,0A2.7386127875258306,2.7386127875258306,0,1,1,-2.7386127875258306,0A2.7386127875258306,2.7386127875258306,0,1,1,2.7386127875258306,0" stroke="#4c78a8" stroke-width="2" opacity="0.7"></path><path aria-label="Weighted percentage w/ COVID-like illness: 7.5218; States: Acre" role="graphics-symbol" aria-roledescription="point" transform="translate(370.29222222222216,10)" d="M2.7386127875258306,0A2.7386127875258306,2.7386127875258306,0,1,1,-2.7386127875258306,0A2.7386127875258306,2.7386127875258306,0,1,1,2.7386127875258306,0" stroke="#4c78a8" stroke-width="2" opacity="0.7"></path><path aria-label="Weighted percentage w/ COVID-like illness: 7.1773; States: Roraima" role="graphics-symbol" aria-roledescription="point" transform="translate(356.89500000000004,450)" d="M2.7386127875258306,0A2.7386127875258306,2.7386127875258306,0,1,1,-2.7386127875258306,0A2.7386127875258306,2.7386127875258306,0,1,1,2.7386127875258306,0" stroke="#4c78a8" stroke-width="2" opacity="0.7"></path><path aria-label="Weighted percentage w/ COVID-like illness: 6.7946; States: Amapá" role="graphics-symbol" aria-roledescription="point" transform="translate(342.01222222222225,50)" d="M2.7386127875258306,0A2.7386127875258306,2.7386127875258306,0,1,1,-2.7386127875258306,0A2.7386127875258306,2.7386127875258306,0,1,1,2.7386127875258306,0" stroke="#4c78a8" stroke-width="2" opacity="0.7"></path><path aria-label="Weighted percentage w/ COVID-like illness: 4.651; States: Pará" role="graphics-symbol" aria-roledescription="point" transform="translate(258.65000000000003,310)" d="M2.7386127875258306,0A2.7386127875258306,2.7386127875258306,0,1,1,-2.7386127875258306,0A2.7386127875258306,2.7386127875258306,0,1,1,2.7386127875258306,0" stroke="#4c78a8" stroke-width="2" opacity="0.7"></path><path aria-label="Weighted percentage w/ COVID-like illness: 4.1419; States: Mato Grosso" role="graphics-symbol" aria-roledescription="point" transform="translate(238.85166666666666,210)" d="M2.7386127875258306,0A2.7386127875258306,2.7386127875258306,0,1,1,-2.7386127875258306,0A2.7386127875258306,2.7386127875258306,0,1,1,2.7386127875258306,0" stroke="#4c78a8" stroke-width="2" opacity="0.7"></path><path aria-label="Weighted percentage w/ COVID-like illness: 3.9837; States: Rio Grande do Norte" role="graphics-symbol" aria-roledescription="point" transform="translate(232.69944444444442,370)" d="M2.7386127875258306,0A2.7386127875258306,2.7386127875258306,0,1,1,-2.7386127875258306,0A2.7386127875258306,2.7386127875258306,0,1,1,2.7386127875258306,0" stroke="#4c78a8" stroke-width="2" opacity="0.7"></path><path aria-label="Weighted percentage w/ COVID-like illness: 3.4824; States: Paraíba" role="graphics-symbol" aria-roledescription="point" transform="translate(213.20444444444445,290)" d="M2.7386127875258306,0A2.7386127875258306,2.7386127875258306,0,1,1,-2.7386127875258306,0A2.7386127875258306,2.7386127875258306,0,1,1,2.7386127875258306,0" stroke="#4c78a8" stroke-width="2" opacity="0.7"></path><path aria-label="Weighted percentage w/ COVID-like illness: 3.3761; States: Distrito Federal" role="graphics-symbol" aria-roledescription="point" transform="translate(209.07055555555556,130)" d="M2.7386127875258306,0A2.7386127875258306,2.7386127875258306,0,1,1,-2.7386127875258306,0A2.7386127875258306,2.7386127875258306,0,1,1,2.7386127875258306,0" stroke="#4c78a8" stroke-width="2" opacity="0.7"></path><path aria-label="Weighted percentage w/ COVID-like illness: 3.3072; States: Amazonas" role="graphics-symbol" aria-roledescription="point" transform="translate(206.39111111111112,70)" d="M2.7386127875258306,0A2.7386127875258306,2.7386127875258306,0,1,1,-2.7386127875258306,0A2.7386127875258306,2.7386127875258306,0,1,1,2.7386127875258306,0" stroke="#4c78a8" stroke-width="2" opacity="0.7"></path><path aria-label="Weighted percentage w/ COVID-like illness: 2.9534; States: Alagoas" role="graphics-symbol" aria-roledescription="point" transform="translate(192.63222222222225,30)" d="M2.7386127875258306,0A2.7386127875258306,2.7386127875258306,0,1,1,-2.7386127875258306,0A2.7386127875258306,2.7386127875258306,0,1,1,2.7386127875258306,0" stroke="#4c78a8" stroke-width="2" opacity="0.7"></path><path aria-label="Weighted percentage w/ COVID-like illness: 2.9027; States: Tocantins" role="graphics-symbol" aria-roledescription="point" transform="translate(190.66055555555556,530)" d="M2.7386127875258306,0A2.7386127875258306,2.7386127875258306,0,1,1,-2.7386127875258306,0A2.7386127875258306,2.7386127875258306,0,1,1,2.7386127875258306,0" stroke="#4c78a8" stroke-width="2" opacity="0.7"></path><path aria-label="Weighted percentage w/ COVID-like illness: 2.8985; States: Ceará" role="graphics-symbol" aria-roledescription="point" transform="translate(190.49722222222226,110)" d="M2.7386127875258306,0A2.7386127875258306,2.7386127875258306,0,1,1,-2.7386127875258306,0A2.7386127875258306,2.7386127875258306,0,1,1,2.7386127875258306,0" stroke="#4c78a8" stroke-width="2" opacity="0.7"></path><path aria-label="Weighted percentage w/ COVID-like illness: 2.7132; States: Espírito Santo" role="graphics-symbol" aria-roledescription="point" transform="translate(183.29111111111115,150)" d="M2.7386127875258306,0A2.7386127875258306,2.7386127875258306,0,1,1,-2.7386127875258306,0A2.7386127875258306,2.7386127875258306,0,1,1,2.7386127875258306,0" stroke="#4c78a8" stroke-width="2" opacity="0.7"></path><path aria-label="Weighted percentage w/ COVID-like illness: 2.4713; States: Maranhão" role="graphics-symbol" aria-roledescription="point" transform="translate(173.88388888888886,190)" d="M2.7386127875258306,0A2.7386127875258306,2.7386127875258306,0,1,1,-2.7386127875258306,0A2.7386127875258306,2.7386127875258306,0,1,1,2.7386127875258306,0" stroke="#4c78a8" stroke-width="2" opacity="0.7"></path><path aria-label="Weighted percentage w/ COVID-like illness: 2.4548; States: Santa Catarina" role="graphics-symbol" aria-roledescription="point" transform="translate(173.24222222222224,470)" d="M2.7386127875258306,0A2.7386127875258306,2.7386127875258306,0,1,1,-2.7386127875258306,0A2.7386127875258306,2.7386127875258306,0,1,1,2.7386127875258306,0" stroke="#4c78a8" stroke-width="2" opacity="0.7"></path><path aria-label="Weighted percentage w/ COVID-like illness: 2.3235; States: Mato Grosso do Sul" role="graphics-symbol" aria-roledescription="point" transform="translate(168.1361111111111,230)" d="M2.7386127875258306,0A2.7386127875258306,2.7386127875258306,0,1,1,-2.7386127875258306,0A2.7386127875258306,2.7386127875258306,0,1,1,2.7386127875258306,0" stroke="#4c78a8" stroke-width="2" opacity="0.7"></path><path aria-label="Weighted percentage w/ COVID-like illness: 2.3013; States: Bahia" role="graphics-symbol" aria-roledescription="point" transform="translate(167.27277777777775,90)" d="M2.7386127875258306,0A2.7386127875258306,2.7386127875258306,0,1,1,-2.7386127875258306,0A2.7386127875258306,2.7386127875258306,0,1,1,2.7386127875258306,0" stroke="#4c78a8" stroke-width="2" opacity="0.7"></path><path aria-label="Weighted percentage w/ COVID-like illness: 2.151; States: Piauí" role="graphics-symbol" aria-roledescription="point" transform="translate(161.42777777777778,350)" d="M2.7386127875258306,0A2.7386127875258306,2.7386127875258306,0,1,1,-2.7386127875258306,0A2.7386127875258306,2.7386127875258306,0,1,1,2.7386127875258306,0" stroke="#4c78a8" stroke-width="2" opacity="0.7"></path><path aria-label="Weighted percentage w/ COVID-like illness: 2.1216; States: Rio de Janeiro" role="graphics-symbol" aria-roledescription="point" transform="translate(160.28444444444443,410)" d="M2.7386127875258306,0A2.7386127875258306,2.7386127875258306,0,1,1,-2.7386127875258306,0A2.7386127875258306,2.7386127875258306,0,1,1,2.7386127875258306,0" stroke="#4c78a8" stroke-width="2" opacity="0.7"></path><path aria-label="Weighted percentage w/ COVID-like illness: 1.8175; States: Goiás" role="graphics-symbol" aria-roledescription="point" transform="translate(148.45833333333331,170)" d="M2.7386127875258306,0A2.7386127875258306,2.7386127875258306,0,1,1,-2.7386127875258306,0A2.7386127875258306,2.7386127875258306,0,1,1,2.7386127875258306,0" stroke="#4c78a8" stroke-width="2" opacity="0.7"></path><path aria-label="Weighted percentage w/ COVID-like illness: 1.6092; States: São Paulo" role="graphics-symbol" aria-roledescription="point" transform="translate(140.35777777777778,510)" d="M2.7386127875258306,0A2.7386127875258306,2.7386127875258306,0,1,1,-2.7386127875258306,0A2.7386127875258306,2.7386127875258306,0,1,1,2.7386127875258306,0" stroke="#4c78a8" stroke-width="2" opacity="0.7"></path><path aria-label="Weighted percentage w/ COVID-like illness: 1.3785; States: Minas Gerais" role="graphics-symbol" aria-roledescription="point" transform="translate(131.38611111111112,250)" d="M2.7386127875258306,0A2.7386127875258306,2.7386127875258306,0,1,1,-2.7386127875258306,0A2.7386127875258306,2.7386127875258306,0,1,1,2.7386127875258306,0" stroke="#4c78a8" stroke-width="2" opacity="0.7"></path><path aria-label="Weighted percentage w/ COVID-like illness: 1.2711; States: Rio Grande do Sul" role="graphics-symbol" aria-roledescription="point" transform="translate(127.20944444444446,390)" d="M2.7386127875258306,0A2.7386127875258306,2.7386127875258306,0,1,1,-2.7386127875258306,0A2.7386127875258306,2.7386127875258306,0,1,1,2.7386127875258306,0" stroke="#4c78a8" stroke-width="2" opacity="0.7"></path><path aria-label="Weighted percentage w/ COVID-like illness: 1.1665; States: Pernambuco" role="graphics-symbol" aria-roledescription="point" transform="translate(123.14166666666667,330)" d="M2.7386127875258306,0A2.7386127875258306,2.7386127875258306,0,1,1,-2.7386127875258306,0A2.7386127875258306,2.7386127875258306,0,1,1,2.7386127875258306,0" stroke="#4c78a8" stroke-width="2" opacity="0.7"></path><path aria-label="Weighted percentage w/ COVID-like illness: 1.0351; States: Paraná" role="graphics-symbol" aria-roledescription="point" transform="translate(118.03166666666667,270)" d="M2.7386127875258306,0A2.7386127875258306,2.7386127875258306,0,1,1,-2.7386127875258306,0A2.7386127875258306,2.7386127875258306,0,1,1,2.7386127875258306,0" stroke="#4c78a8" stroke-width="2" opacity="0.7"></path><path aria-label="Weighted percentage w/ COVID-like illness: 0.8197; States: Sergipe" role="graphics-symbol" aria-roledescription="point" transform="translate(109.655,490)" d="M2.7386127875258306,0A2.7386127875258306,2.7386127875258306,0,1,1,-2.7386127875258306,0A2.7386127875258306,2.7386127875258306,0,1,1,2.7386127875258306,0" stroke="#4c78a8" stroke-width="2" opacity="0.7"></path></g><g class="mark-rule role-mark layer_1_marks" role="graphics-object" aria-roledescription="rule mark container"><line aria-label="CI 0.95: 3.358708; upper_percent_cli_lower: 12.747892; region: Rondônia; percent_cli_upper: 12.747892; percent_cli_lower: 3.358708" role="graphics-symbol" aria-roledescription="errorbar" transform="translate(208.39419999999998,430)" x2="365.1349333333334" y2="0" stroke="blue" stroke-width="0.6"></line><line aria-label="CI 0.95: 0.651216; upper_percent_cli_lower: 14.392384; region: Acre; percent_cli_upper: 14.392384; percent_cli_lower: 0.651216" role="graphics-symbol" aria-roledescription="errorbar" transform="translate(103.1028444444444,10)" x2="534.3787555555556" y2="0" stroke="blue" stroke-width="0.6"></line><line aria-label="CI 0.95: 1.20126; upper_percent_cli_lower: 13.15334; region: Roraima; percent_cli_upper: 13.15334; percent_cli_lower: 1.20126" role="graphics-symbol" aria-roledescription="errorbar" transform="translate(124.49344444444446,450)" x2="464.8031111111111" y2="0" stroke="blue" stroke-width="0.6"></line><line aria-label="CI 0.95: 1.1204; upper_percent_cli_lower: 12.4688; region: Amapá; percent_cli_upper: 12.4688; percent_cli_lower: 1.1204" role="graphics-symbol" aria-roledescription="errorbar" transform="translate(121.34888888888892,50)" x2="441.3266666666666" y2="0" stroke="blue" stroke-width="0.6"></line><line aria-label="CI 0.95: 2.393668; upper_percent_cli_lower: 6.908332; region: Pará; percent_cli_upper: 6.908332; percent_cli_lower: 2.393668" role="graphics-symbol" aria-roledescription="errorbar" transform="translate(170.86486666666664,310)" x2="175.57026666666675" y2="0" stroke="blue" stroke-width="0.6"></line><line aria-label="CI 0.95: 1.976296; upper_percent_cli_lower: 6.307504; region: Mato Grosso; percent_cli_upper: 6.307504; percent_cli_lower: 1.976296" role="graphics-symbol" aria-roledescription="errorbar" transform="translate(154.63373333333334,210)" x2="168.43586666666664" y2="0" stroke="blue" stroke-width="0.6"></line><line aria-label="CI 0.95: 1.36612; upper_percent_cli_lower: 6.60128; region: Rio Grande do Norte; percent_cli_upper: 6.60128; percent_cli_lower: 1.36612" role="graphics-symbol" aria-roledescription="errorbar" transform="translate(130.90466666666666,370)" x2="203.5895555555555" y2="0" stroke="blue" stroke-width="0.6"></line><line aria-label="CI 0.95: 1.08728; upper_percent_cli_lower: 5.87752; region: Paraíba; percent_cli_upper: 5.87752; percent_cli_lower: 1.08728" role="graphics-symbol" aria-roledescription="errorbar" transform="translate(120.0608888888889,290)" x2="186.28711111111107" y2="0" stroke="blue" stroke-width="0.6"></line><line aria-label="CI 0.95: 1.339464; upper_percent_cli_lower: 5.412736; region: Distrito Federal; percent_cli_upper: 5.412736; percent_cli_lower: 1.339464" role="graphics-symbol" aria-roledescription="errorbar" transform="translate(129.86804444444445,130)" x2="158.40502222222224" y2="0" stroke="blue" stroke-width="0.6"></line><line aria-label="CI 0.95: 0.563592; upper_percent_cli_lower: 6.050808; region: Amazonas; percent_cli_upper: 6.050808; percent_cli_lower: 0.563592" role="graphics-symbol" aria-roledescription="errorbar" transform="translate(99.69524444444443,70)" x2="213.39173333333338" y2="0" stroke="blue" stroke-width="0.6"></line><line aria-label="CI 0.95: 0.112772; upper_percent_cli_lower: 5.794028; region: Alagoas; percent_cli_upper: 5.794028; percent_cli_lower: 0.112772" role="graphics-symbol" aria-roledescription="errorbar" transform="translate(82.16335555555554,30)" x2="220.9377333333333" y2="0" stroke="blue" stroke-width="0.6"></line><line aria-label="CI 0.95: -1.41028; upper_percent_cli_lower: 7.21568; region: Tocantins; percent_cli_upper: 7.21568; percent_cli_lower: -1.41028" role="graphics-symbol" aria-roledescription="errorbar" transform="translate(22.93355555555555,530)" x2="335.454" y2="0" stroke="blue" stroke-width="0.6"></line><line aria-label="CI 0.95: 1.261508; upper_percent_cli_lower: 4.535492; region: Ceará; percent_cli_upper: 4.535492; percent_cli_lower: 1.261508" role="graphics-symbol" aria-roledescription="errorbar" transform="translate(126.83642222222224,110)" x2="127.32159999999996" y2="0" stroke="blue" stroke-width="0.6"></line><line aria-label="CI 0.95: 0.700476; upper_percent_cli_lower: 4.725924; region: Espírito Santo; percent_cli_upper: 4.725924; percent_cli_lower: 0.700476" role="graphics-symbol" aria-roledescription="errorbar" transform="translate(105.01851111111112,150)" x2="156.54519999999997" y2="0" stroke="blue" stroke-width="0.6"></line><line aria-label="CI 0.95: 0.379; upper_percent_cli_lower: 4.5636; region: Maranhão; percent_cli_upper: 4.5636; percent_cli_lower: 0.379" role="graphics-symbol" aria-roledescription="errorbar" transform="translate(92.51666666666665,190)" x2="162.73444444444442" y2="0" stroke="blue" stroke-width="0.6"></line><line aria-label="CI 0.95: 1.090052; upper_percent_cli_lower: 3.819548; region: Santa Catarina; percent_cli_upper: 3.819548; percent_cli_lower: 1.090052" role="graphics-symbol" aria-roledescription="errorbar" transform="translate(120.16868888888888,470)" x2="106.14706666666663" y2="0" stroke="blue" stroke-width="0.6"></line><line aria-label="CI 0.95: 0.465812; upper_percent_cli_lower: 4.181188; region: Mato Grosso do Sul; percent_cli_upper: 4.181188; percent_cli_lower: 0.465812" role="graphics-symbol" aria-roledescription="errorbar" transform="translate(95.89268888888887,230)" x2="144.48684444444447" y2="0" stroke="blue" stroke-width="0.6"></line><line aria-label="CI 0.95: 0.873048; upper_percent_cli_lower: 3.729552; region: Bahia; percent_cli_upper: 3.729552; percent_cli_lower: 0.873048" role="graphics-symbol" aria-roledescription="errorbar" transform="translate(111.72964444444445,90)" x2="111.08626666666667" y2="0" stroke="blue" stroke-width="0.6"></line><line aria-label="CI 0.95: -0.202568; upper_percent_cli_lower: 4.504568; region: Piauí; percent_cli_upper: 4.504568; percent_cli_lower: -0.202568" role="graphics-symbol" aria-roledescription="errorbar" transform="translate(69.90013333333334,350)" x2="183.05528888888892" y2="0" stroke="blue" stroke-width="0.6"></line><line aria-label="CI 0.95: 1.18864; upper_percent_cli_lower: 3.05456; region: Rio de Janeiro; percent_cli_upper: 3.05456; percent_cli_lower: 1.18864" role="graphics-symbol" aria-roledescription="errorbar" transform="translate(124.00266666666667,410)" x2="72.56355555555555" y2="0" stroke="blue" stroke-width="0.6"></line><line aria-label="CI 0.95: 0.508808; upper_percent_cli_lower: 3.126192; region: Goiás; percent_cli_upper: 3.126192; percent_cli_lower: 0.508808" role="graphics-symbol" aria-roledescription="errorbar" transform="translate(97.56475555555556,170)" x2="101.78715555555553" y2="0" stroke="blue" stroke-width="0.6"></line><line aria-label="CI 0.95: 1.171336; upper_percent_cli_lower: 2.047064; region: São Paulo; percent_cli_upper: 2.047064; percent_cli_lower: 1.171336" role="graphics-symbol" aria-roledescription="errorbar" transform="translate(123.32973333333334,510)" x2="34.056088888888866" y2="0" stroke="blue" stroke-width="0.6"></line><line aria-label="CI 0.95: 0.675448; upper_percent_cli_lower: 2.081552; region: Minas Gerais; percent_cli_upper: 2.081552; percent_cli_lower: 0.675448" role="graphics-symbol" aria-roledescription="errorbar" transform="translate(104.04520000000001,250)" x2="54.68182222222221" y2="0" stroke="blue" stroke-width="0.6"></line><line aria-label="CI 0.95: 0.527672; upper_percent_cli_lower: 2.014528; region: Rio Grande do Sul; percent_cli_upper: 2.014528; percent_cli_lower: 0.527672" role="graphics-symbol" aria-roledescription="errorbar" transform="translate(98.29835555555556,390)" x2="57.822177777777796" y2="0" stroke="blue" stroke-width="0.6"></line><line aria-label="CI 0.95: 0.053612; upper_percent_cli_lower: 2.279388; region: Pernambuco; percent_cli_upper: 2.279388; percent_cli_lower: 0.053612" role="graphics-symbol" aria-roledescription="errorbar" transform="translate(79.8626888888889,330)" x2="86.55795555555554" y2="0" stroke="blue" stroke-width="0.6"></line><line aria-label="CI 0.95: 0.377128; upper_percent_cli_lower: 1.693072; region: Paraná; percent_cli_upper: 1.693072; percent_cli_lower: 0.377128" role="graphics-symbol" aria-roledescription="errorbar" transform="translate(92.44386666666666,270)" x2="51.17559999999999" y2="0" stroke="blue" stroke-width="0.6"></line><line aria-label="CI 0.95: -0.76986; upper_percent_cli_lower: 2.40926; region: Sergipe; percent_cli_upper: 2.40926; percent_cli_lower: -0.76986" role="graphics-symbol" aria-roledescription="errorbar" transform="translate(47.83877777777778,490)" x2="123.63244444444442" y2="0" stroke="blue" stroke-width="0.6"></line></g><g class="mark-group role-title"><g transform="translate(350,-17)"><path class="background" aria-hidden="true" d="M0,0h0v0h0Z" pointer-events="none"></path><g><g class="mark-text role-title-text" role="graphics-symbol" aria-roledescription="title" aria-label="Title text 'Facebook COVID-like illness symptom survey (last available date) for all states in Brazil'" pointer-events="none"><text text-anchor="middle" transform="translate(0,10)" font-family="sans-serif" font-size="13px" font-weight="bold" fill="#000" opacity="1">Facebook COVID-like illness symptom survey (last available date) for all states in Brazil</text></g></g><path class="foreground" aria-hidden="true" d="" pointer-events="none" display="none"></path></g></g></g><path class="foreground" aria-hidden="true" d="" display="none"></path></g></g></g></svg>