<svg class="marks" width="829" height="599" viewBox="0 0 829 599" version="1.1" xmlns="http://www.w3.org/2000/svg" xmlns:xlink="http://www.w3.org/1999/xlink"><rect width="829" height="599" fill="white"></rect><g fill="none" stroke-miterlimit="10" transform="translate(123,22)"><g class="mark-group role-frame root" role="graphics-object" aria-roledescription="group mark container"><g transform="translate(0,0)"><path class="background" aria-hidden="true" d="M0.5,0.5h700v540h-700Z"></path><g><g class="mark-group role-axis" aria-hidden="true"><g transform="translate(0.5,0.5)"><path class="background" aria-hidden="true" d="M0,0h0v0h0Z" pointer-events="none"></path><g><g class="mark-rule role-axis-grid" pointer-events="none"><line transform="translate(0,10)" x2="700" y2="0" stroke="#ddd" stroke-width="1" opacity="1"></line><line transform="translate(0,30)" x2="700" y2="0" stroke="#ddd" stroke-width="1" opacity="1"></line><line transform="translate(0,50)" x2="700" y2="0" stroke="#ddd" stroke-width="1" opacity="1"></line><line transform="translate(0,70)" x2="700" y2="0" stroke="#ddd" stroke-width="1" opacity="1"></line><line transform="translate(0,90)" x2="700" y2="0" stroke="#ddd" stroke-width="1" opacity="1"></line><line transform="translate(0,110)" x2="700" y2="0" stroke="#ddd" stroke-width="1" opacity="1"></line><line transform="translate(0,130)" x2="700" y2="0" stroke="#ddd" stroke-width="1" opacity="1"></line><line transform="translate(0,150)" x2="700" y2="0" stroke="#ddd" stroke-width="1" opacity="1"></line><line transform="translate(0,170)" x2="700" y2="0" stroke="#ddd" stroke-width="1" opacity="1"></line><line transform="translate(0,190)" x2="700" y2="0" stroke="#ddd" stroke-width="1" opacity="1"></line><line transform="translate(0,210)" x2="700" y2="0" stroke="#ddd" stroke-width="1" opacity="1"></line><line transform="translate(0,230)" x2="700" y2="0" stroke="#ddd" stroke-width="1" opacity="1"></line><line transform="translate(0,250)" x2="700" y2="0" stroke="#ddd" stroke-width="1" opacity="1"></line><line transform="translate(0,270)" x2="700" y2="0" stroke="#ddd" stroke-width="1" opacity="1"></line><line transform="translate(0,290)" x2="700" y2="0" stroke="#ddd" stroke-width="1" opacity="1"></line><line transform="translate(0,310)" x2="700" y2="0" stroke="#ddd" stroke-width="1" opacity="1"></line><line transform="translate(0,330)" x2="700" y2="0" stroke="#ddd" stroke-width="1" opacity="1"></line><line transform="translate(0,350)" x2="700" y2="0" stroke="#ddd" stroke-width="1" opacity="1"></line><line transform="translate(0,370)" x2="700" y2="0" stroke="#ddd" stroke-width="1" opacity="1"></line><line transform="translate(0,390)" x2="700" y2="0" stroke="#ddd" stroke-width="1" opacity="1"></line><line transform="translate(0,410)" x2="700" y2="0" stroke="#ddd" stroke-width="1" opacity="1"></line><line transform="translate(0,430)" x2="700" y2="0" stroke="#ddd" stroke-width="1" opacity="1"></line><line transform="translate(0,450)" x2="700" y2="0" stroke="#ddd" stroke-width="1" opacity="1"></line><line transform="translate(0,470)" x2="700" y2="0" stroke="#ddd" stroke-width="1" opacity="1"></line><line transform="translate(0,490)" x2="700" y2="0" stroke="#ddd" stroke-width="1" opacity="1"></line><line transform="translate(0,510)" x2="700" y2="0" stroke="#ddd" stroke-width="1" opacity="1"></line><line transform="translate(0,530)" x2="700" y2="0" stroke="#ddd" stroke-width="1" opacity="1"></line></g></g><path class="foreground" aria-hidden="true" d="" pointer-events="none" display="none"></path></g></g><g class="mark-group role-axis" role="graphics-symbol" aria-roledescription="axis" aria-label="X-axis titled 'Weighted percentage w/ COVID-like illness, CI 0.95' for a linear scale with values from -2 to 18"><g transform="translate(0.5,540.5)"><path class="background" aria-hidden="true" d="M0,0h0v0h0Z" pointer-events="none"></path><g><g class="mark-rule role-axis-tick" pointer-events="none"><line transform="translate(0,0)" x2="0" y2="5" stroke="#888" stroke-width="1" opacity="1"></line><line transform="translate(35,0)" x2="0" y2="5" stroke="#888" stroke-width="1" opacity="1"></line><line transform="translate(70,0)" x2="0" y2="5" stroke="#888" stroke-width="1" opacity="1"></line><line transform="translate(105,0)" x2="0" y2="5" stroke="#888" stroke-width="1" opacity="1"></line><line transform="translate(140,0)" x2="0" y2="5" stroke="#888" stroke-width="1" opacity="1"></line><line transform="translate(175,0)" x2="0" y2="5" stroke="#888" stroke-width="1" opacity="1"></line><line transform="translate(210,0)" x2="0" y2="5" stroke="#888" stroke-width="1" opacity="1"></line><line transform="translate(245,0)" x2="0" y2="5" stroke="#888" stroke-width="1" opacity="1"></line><line transform="translate(280,0)" x2="0" y2="5" stroke="#888" stroke-width="1" opacity="1"></line><line transform="translate(315,0)" x2="0" y2="5" stroke="#888" stroke-width="1" opacity="1"></line><line transform="translate(350,0)" x2="0" y2="5" stroke="#888" stroke-width="1" opacity="1"></line><line transform="translate(385,0)" x2="0" y2="5" stroke="#888" stroke-width="1" opacity="1"></line><line transform="translate(420,0)" x2="0" y2="5" stroke="#888" stroke-width="1" opacity="1"></line><line transform="translate(455,0)" x2="0" y2="5" stroke="#888" stroke-width="1" opacity="1"></line><line transform="translate(490,0)" x2="0" y2="5" stroke="#888" stroke-width="1" opacity="1"></line><line transform="translate(525,0)" x2="0" y2="5" stroke="#888" stroke-width="1" opacity="1"></line><line transform="translate(560,0)" x2="0" y2="5" stroke="#888" stroke-width="1" opacity="1"></line><line transform="translate(595,0)" x2="0" y2="5" stroke="#888" stroke-width="1" opacity="1"></line><line transform="translate(630,0)" x2="0" y2="5" stroke="#888" stroke-width="1" opacity="1"></line><line transform="translate(665,0)" x2="0" y2="5" stroke="#888" stroke-width="1" opacity="1"></line><line transform="translate(700,0)" x2="0" y2="5" stroke="#888" stroke-width="1" opacity="1"></line></g><g class="mark-text role-axis-label" pointer-events="none"><text text-anchor="start" transform="translate(0,15)" font-family="sans-serif" font-size="10px" fill="#000" opacity="1">-2</text><text text-anchor="middle" transform="translate(35,15)" font-family="sans-serif" font-size="10px" fill="#000" opacity="1">-1</text><text text-anchor="middle" transform="translate(70,15)" font-family="sans-serif" font-size="10px" fill="#000" opacity="1">0</text><text text-anchor="middle" transform="translate(105,15)" font-family="sans-serif" font-size="10px" fill="#000" opacity="1">1</text><text text-anchor="middle" transform="translate(140,15)" font-family="sans-serif" font-size="10px" fill="#000" opacity="1">2</text><text text-anchor="middle" transform="translate(175,15)" font-family="sans-serif" font-size="10px" fill="#000" opacity="1">3</text><text text-anchor="middle" transform="translate(210,15)" font-family="sans-serif" font-size="10px" fill="#000" opacity="1">4</text><text text-anchor="middle" transform="translate(244.99999999999997,15)" font-family="sans-serif" font-size="10px" fill="#000" opacity="1">5</text><text text-anchor="middle" transform="translate(280,15)" font-family="sans-serif" font-size="10px" fill="#000" opacity="1">6</text><text text-anchor="middle" transform="translate(315,15)" font-family="sans-serif" font-size="10px" fill="#000" opacity="1">7</text><text text-anchor="middle" transform="translate(350,15)" font-family="sans-serif" font-size="10px" fill="#000" opacity="1">8</text><text text-anchor="middle" transform="translate(385.00000000000006,15)" font-family="sans-serif" font-size="10px" fill="#000" opacity="1">9</text><text text-anchor="middle" transform="translate(420,15)" font-family="sans-serif" font-size="10px" fill="#000" opacity="1">10</text><text text-anchor="middle" transform="translate(455,15)" font-family="sans-serif" font-size="10px" fill="#000" opacity="1">11</text><text text-anchor="middle" transform="translate(489.99999999999994,15)" font-family="sans-serif" font-size="10px" fill="#000" opacity="1">12</text><text text-anchor="middle" transform="translate(525,15)" font-family="sans-serif" font-size="10px" fill="#000" opacity="1">13</text><text text-anchor="middle" transform="translate(560,15)" font-family="sans-serif" font-size="10px" fill="#000" opacity="1">14</text><text text-anchor="middle" transform="translate(595,15)" font-family="sans-serif" font-size="10px" fill="#000" opacity="1">15</text><text text-anchor="middle" transform="translate(630,15)" font-family="sans-serif" font-size="10px" fill="#000" opacity="1">16</text><text text-anchor="middle" transform="translate(665,15)" font-family="sans-serif" font-size="10px" fill="#000" opacity="1">17</text><text text-anchor="end" transform="translate(700,15)" font-family="sans-serif" font-size="10px" fill="#000" opacity="1">18</text></g><g class="mark-rule role-axis-domain" pointer-events="none"><line transform="translate(0,0)" x2="700" y2="0" stroke="#888" stroke-width="1" opacity="1"></line></g><g class="mark-text role-axis-title" pointer-events="none"><text text-anchor="middle" transform="translate(350,30)" font-family="sans-serif" font-size="11px" font-weight="bold" fill="#000" opacity="1">Weighted percentage w/ COVID-like illness, CI 0.95</text></g></g><path class="foreground" aria-hidden="true" d="" pointer-events="none" display="none"></path></g></g><g class="mark-group role-axis" role="graphics-symbol" aria-roledescription="axis" aria-label="Y-axis titled 'States' for a discrete scale with 27 values: Acre, Alagoas, Amapá, Amazonas, Bahia, ending with Tocantins"><g transform="translate(0.5,0.5)"><path class="background" aria-hidden="true" d="M0,0h0v0h0Z" pointer-events="none"></path><g><g class="mark-rule role-axis-tick" pointer-events="none"><line transform="translate(0,10)" x2="-5" y2="0" stroke="#888" stroke-width="1" opacity="1"></line><line transform="translate(0,30)" x2="-5" y2="0" stroke="#888" stroke-width="1" opacity="1"></line><line transform="translate(0,50)" x2="-5" y2="0" stroke="#888" stroke-width="1" opacity="1"></line><line transform="translate(0,70)" x2="-5" y2="0" stroke="#888" stroke-width="1" opacity="1"></line><line transform="translate(0,90)" x2="-5" y2="0" stroke="#888" stroke-width="1" opacity="1"></line><line transform="translate(0,110)" x2="-5" y2="0" stroke="#888" stroke-width="1" opacity="1"></line><line transform="translate(0,130)" x2="-5" y2="0" stroke="#888" stroke-width="1" opacity="1"></line><line transform="translate(0,150)" x2="-5" y2="0" stroke="#888" stroke-width="1" opacity="1"></line><line transform="translate(0,170)" x2="-5" y2="0" stroke="#888" stroke-width="1" opacity="1"></line><line transform="translate(0,190)" x2="-5" y2="0" stroke="#888" stroke-width="1" opacity="1"></line><line transform="translate(0,210)" x2="-5" y2="0" stroke="#888" stroke-width="1" opacity="1"></line><line transform="translate(0,230)" x2="-5" y2="0" stroke="#888" stroke-width="1" opacity="1"></line><line transform="translate(0,250)" x2="-5" y2="0" stroke="#888" stroke-width="1" opacity="1"></line><line transform="translate(0,270)" x2="-5" y2="0" stroke="#888" stroke-width="1" opacity="1"></line><line transform="translate(0,290)" x2="-5" y2="0" stroke="#888" stroke-width="1" opacity="1"></line><line transform="translate(0,310)" x2="-5" y2="0" stroke="#888" stroke-width="1" opacity="1"></line><line transform="translate(0,330)" x2="-5" y2="0" stroke="#888" stroke-width="1" opacity="1"></line><line transform="translate(0,350)" x2="-5" y2="0" stroke="#888" stroke-width="1" opacity="1"></line><line transform="translate(0,370)" x2="-5" y2="0" stroke="#888" stroke-width="1" opacity="1"></line><line transform="translate(0,390)" x2="-5" y2="0" stroke="#888" stroke-width="1" opacity="1"></line><line transform="translate(0,410)" x2="-5" y2="0" stroke="#888" stroke-width="1" opacity="1"></line><line transform="translate(0,430)" x2="-5" y2="0" stroke="#888" stroke-width="1" opacity="1"></line><line transform="translate(0,450)" x2="-5" y2="0" stroke="#888" stroke-width="1" opacity="1"></line><line transform="translate(0,470)" x2="-5" y2="0" stroke="#888" stroke-width="1" opacity="1"></line><line transform="translate(0,490)" x2="-5" y2="0" stroke="#888" stroke-width="1" opacity="1"></line><line transform="translate(0,510)" x2="-5" y2="0" stroke="#888" stroke-width="1" opacity="1"></line><line transform="translate(0,530)" x2="-5" y2="0" stroke="#888" stroke-width="1" opacity="1"></line></g><g class="mark-text role-axis-label" pointer-events="none"><text text-anchor="end" transform="translate(-7,12.5)" font-family="sans-serif" font-size="10px" fill="#000" opacity="1">Acre</text><text text-anchor="end" transform="translate(-7,32.5)" font-family="sans-serif" font-size="10px" fill="#000" opacity="1">Alagoas</text><text text-anchor="end" transform="translate(-7,52.5)" font-family="sans-serif" font-size="10px" fill="#000" opacity="1">Amapá</text><text text-anchor="end" transform="translate(-7,72.5)" font-family="sans-serif" font-size="10px" fill="#000" opacity="1">Amazonas</text><text text-anchor="end" transform="translate(-7,92.5)" font-family="sans-serif" font-size="10px" fill="#000" opacity="1">Bahia</text><text text-anchor="end" transform="translate(-7,112.5)" font-family="sans-serif" font-size="10px" fill="#000" opacity="1">Ceará</text><text text-anchor="end" transform="translate(-7,132.5)" font-family="sans-serif" font-size="10px" fill="#000" opacity="1">Distrito Federal</text><text text-anchor="end" transform="translate(-7,152.5)" font-family="sans-serif" font-size="10px" fill="#000" opacity="1">Espírito Santo</text><text text-anchor="end" transform="translate(-7,172.5)" font-family="sans-serif" font-size="10px" fill="#000" opacity="1">Goiás</text><text text-anchor="end" transform="translate(-7,192.5)" font-family="sans-serif" font-size="10px" fill="#000" opacity="1">Maranhão</text><text text-anchor="end" transform="translate(-7,212.5)" font-family="sans-serif" font-size="10px" fill="#000" opacity="1">Mato Grosso</text><text text-anchor="end" transform="translate(-7,232.5)" font-family="sans-serif" font-size="10px" fill="#000" opacity="1">Mato Grosso do Sul</text><text text-anchor="end" transform="translate(-7,252.5)" font-family="sans-serif" font-size="10px" fill="#000" opacity="1">Minas Gerais</text><text text-anchor="end" transform="translate(-7,272.5)" font-family="sans-serif" font-size="10px" fill="#000" opacity="1">Paraná</text><text text-anchor="end" transform="translate(-7,292.5)" font-family="sans-serif" font-size="10px" fill="#000" opacity="1">Paraíba</text><text text-anchor="end" transform="translate(-7,312.5)" font-family="sans-serif" font-size="10px" fill="#000" opacity="1">Pará</text><text text-anchor="end" transform="translate(-7,332.5)" font-family="sans-serif" font-size="10px" fill="#000" opacity="1">Pernambuco</text><text text-anchor="end" transform="translate(-7,352.5)" font-family="sans-serif" font-size="10px" fill="#000" opacity="1">Piauí</text><text text-anchor="end" transform="translate(-7,372.5)" font-family="sans-serif" font-size="10px" fill="#000" opacity="1">Rio Grande do Norte</text><text text-anchor="end" transform="translate(-7,392.5)" font-family="sans-serif" font-size="10px" fill="#000" opacity="1">Rio Grande do Sul</text><text text-anchor="end" transform="translate(-7,412.5)" font-family="sans-serif" font-size="10px" fill="#000" opacity="1">Rio de Janeiro</text><text text-anchor="end" transform="translate(-7,432.5)" font-family="sans-serif" font-size="10px" fill="#000" opacity="1">Rondônia</text><text text-anchor="end" transform="translate(-7,452.5)" font-family="sans-serif" font-size="10px" fill="#000" opacity="1">Roraima</text><text text-anchor="end" transform="translate(-7,472.5)" font-family="sans-serif" font-size="10px" fill="#000" opacity="1">Santa Catarina</text><text text-anchor="end" transform="translate(-7,492.5)" font-family="sans-serif" font-size="10px" fill="#000" opacity="1">Sergipe</text><text text-anchor="end" transform="translate(-7,512.5)" font-family="sans-serif" font-size="10px" fill="#000" opacity="1">São Paulo</text><text text-anchor="end" transform="translate(-7,532.5)" font-family="sans-serif" font-size="10px" fill="#000" opacity="1">Tocantins</text></g><g class="mark-rule role-axis-domain" pointer-events="none"><line transform="translate(0,0)" x2="0" y2="540" stroke="#888" stroke-width="1" opacity="1"></line></g><g class="mark-text role-axis-title" pointer-events="none"><text text-anchor="middle" transform="translate(-107,270) rotate(-90) translate(0,-2)" font-family="sans-serif" font-size="11px" font-weight="bold" fill="#000" opacity="1">States</text></g></g><path class="foreground" aria-hidden="true" d="" pointer-events="none" display="none"></path></g></g><g class="mark-symbol role-mark layer_0_marks" role="graphics-object" aria-roledescription="symbol mark container"><path aria-label="Weighted percentage w/ COVID-like illness: 9.6705; States: Acre" role="graphics-symbol" aria-roledescription="point" transform="translate(408.46750000000003,10)" d="M2.7386127875258306,0A2.7386127875258306,2.7386127875258306,0,1,1,-2.7386127875258306,0A2.7386127875258306,2.7386127875258306,0,1,1,2.7386127875258306,0" stroke="#4c78a8" stroke-width="2" opacity="0.7"></path><path aria-label="Weighted percentage w/ COVID-like illness: 7.1727; States: Roraima" role="graphics-symbol" aria-roledescription="point" transform="translate(321.04449999999997,450)" d="M2.7386127875258306,0A2.7386127875258306,2.7386127875258306,0,1,1,-2.7386127875258306,0A2.7386127875258306,2.7386127875258306,0,1,1,2.7386127875258306,0" stroke="#4c78a8" stroke-width="2" opacity="0.7"></path><path aria-label="Weighted percentage w/ COVID-like illness: 6.8274; States: Rondônia" role="graphics-symbol" aria-roledescription="point" transform="translate(308.959,430)" d="M2.7386127875258306,0A2.7386127875258306,2.7386127875258306,0,1,1,-2.7386127875258306,0A2.7386127875258306,2.7386127875258306,0,1,1,2.7386127875258306,0" stroke="#4c78a8" stroke-width="2" opacity="0.7"></path><path aria-label="Weighted percentage w/ COVID-like illness: 6.1632; States: Tocantins" role="graphics-symbol" aria-roledescription="point" transform="translate(285.712,530)" d="M2.7386127875258306,0A2.7386127875258306,2.7386127875258306,0,1,1,-2.7386127875258306,0A2.7386127875258306,2.7386127875258306,0,1,1,2.7386127875258306,0" stroke="#4c78a8" stroke-width="2" opacity="0.7"></path><path aria-label="Weighted percentage w/ COVID-like illness: 4.5563; States: Amapá" role="graphics-symbol" aria-roledescription="point" transform="translate(229.47050000000002,50)" d="M2.7386127875258306,0A2.7386127875258306,2.7386127875258306,0,1,1,-2.7386127875258306,0A2.7386127875258306,2.7386127875258306,0,1,1,2.7386127875258306,0" stroke="#4c78a8" stroke-width="2" opacity="0.7"></path><path aria-label="Weighted percentage w/ COVID-like illness: 4.2901; States: Amazonas" role="graphics-symbol" aria-roledescription="point" transform="translate(220.15349999999998,70)" d="M2.7386127875258306,0A2.7386127875258306,2.7386127875258306,0,1,1,-2.7386127875258306,0A2.7386127875258306,2.7386127875258306,0,1,1,2.7386127875258306,0" stroke="#4c78a8" stroke-width="2" opacity="0.7"></path><path aria-label="Weighted percentage w/ COVID-like illness: 3.6561; States: Pará" role="graphics-symbol" aria-roledescription="point" transform="translate(197.9635,310)" d="M2.7386127875258306,0A2.7386127875258306,2.7386127875258306,0,1,1,-2.7386127875258306,0A2.7386127875258306,2.7386127875258306,0,1,1,2.7386127875258306,0" stroke="#4c78a8" stroke-width="2" opacity="0.7"></path><path aria-label="Weighted percentage w/ COVID-like illness: 3.396; States: Goiás" role="graphics-symbol" aria-roledescription="point" transform="translate(188.85999999999999,170)" d="M2.7386127875258306,0A2.7386127875258306,2.7386127875258306,0,1,1,-2.7386127875258306,0A2.7386127875258306,2.7386127875258306,0,1,1,2.7386127875258306,0" stroke="#4c78a8" stroke-width="2" opacity="0.7"></path><path aria-label="Weighted percentage w/ COVID-like illness: 3.1614; States: Sergipe" role="graphics-symbol" aria-roledescription="point" transform="translate(180.649,490)" d="M2.7386127875258306,0A2.7386127875258306,2.7386127875258306,0,1,1,-2.7386127875258306,0A2.7386127875258306,2.7386127875258306,0,1,1,2.7386127875258306,0" stroke="#4c78a8" stroke-width="2" opacity="0.7"></path><path aria-label="Weighted percentage w/ COVID-like illness: 2.9006; States: Pernambuco" role="graphics-symbol" aria-roledescription="point" transform="translate(171.521,330)" d="M2.7386127875258306,0A2.7386127875258306,2.7386127875258306,0,1,1,-2.7386127875258306,0A2.7386127875258306,2.7386127875258306,0,1,1,2.7386127875258306,0" stroke="#4c78a8" stroke-width="2" opacity="0.7"></path><path aria-label="Weighted percentage w/ COVID-like illness: 2.7171; States: Maranhão" role="graphics-symbol" aria-roledescription="point" transform="translate(165.0985,190)" d="M2.7386127875258306,0A2.7386127875258306,2.7386127875258306,0,1,1,-2.7386127875258306,0A2.7386127875258306,2.7386127875258306,0,1,1,2.7386127875258306,0" stroke="#4c78a8" stroke-width="2" opacity="0.7"></path><path aria-label="Weighted percentage w/ COVID-like illness: 2.6852; States: Espírito Santo" role="graphics-symbol" aria-roledescription="point" transform="translate(163.982,150)" d="M2.7386127875258306,0A2.7386127875258306,2.7386127875258306,0,1,1,-2.7386127875258306,0A2.7386127875258306,2.7386127875258306,0,1,1,2.7386127875258306,0" stroke="#4c78a8" stroke-width="2" opacity="0.7"></path><path aria-label="Weighted percentage w/ COVID-like illness: 2.6004; States: Rio Grande do Norte" role="graphics-symbol" aria-roledescription="point" transform="translate(161.014,370)" d="M2.7386127875258306,0A2.7386127875258306,2.7386127875258306,0,1,1,-2.7386127875258306,0A2.7386127875258306,2.7386127875258306,0,1,1,2.7386127875258306,0" stroke="#4c78a8" stroke-width="2" opacity="0.7"></path><path aria-label="Weighted percentage w/ COVID-like illness: 2.5739; States: Distrito Federal" role="graphics-symbol" aria-roledescription="point" transform="translate(160.0865,130)" d="M2.7386127875258306,0A2.7386127875258306,2.7386127875258306,0,1,1,-2.7386127875258306,0A2.7386127875258306,2.7386127875258306,0,1,1,2.7386127875258306,0" stroke="#4c78a8" stroke-width="2" opacity="0.7"></path><path aria-label="Weighted percentage w/ COVID-like illness: 1.9417; States: Rio de Janeiro" role="graphics-symbol" aria-roledescription="point" transform="translate(137.95950000000002,410)" d="M2.7386127875258306,0A2.7386127875258306,2.7386127875258306,0,1,1,-2.7386127875258306,0A2.7386127875258306,2.7386127875258306,0,1,1,2.7386127875258306,0" stroke="#4c78a8" stroke-width="2" opacity="0.7"></path><path aria-label="Weighted percentage w/ COVID-like illness: 1.7303; States: Mato Grosso" role="graphics-symbol" aria-roledescription="point" transform="translate(130.5605,210)" d="M2.7386127875258306,0A2.7386127875258306,2.7386127875258306,0,1,1,-2.7386127875258306,0A2.7386127875258306,2.7386127875258306,0,1,1,2.7386127875258306,0" stroke="#4c78a8" stroke-width="2" opacity="0.7"></path><path aria-label="Weighted percentage w/ COVID-like illness: 1.7093; States: Piauí" role="graphics-symbol" aria-roledescription="point" transform="translate(129.8255,350)" d="M2.7386127875258306,0A2.7386127875258306,2.7386127875258306,0,1,1,-2.7386127875258306,0A2.7386127875258306,2.7386127875258306,0,1,1,2.7386127875258306,0" stroke="#4c78a8" stroke-width="2" opacity="0.7"></path><path aria-label="Weighted percentage w/ COVID-like illness: 1.6704; States: Paraíba" role="graphics-symbol" aria-roledescription="point" transform="translate(128.464,290)" d="M2.7386127875258306,0A2.7386127875258306,2.7386127875258306,0,1,1,-2.7386127875258306,0A2.7386127875258306,2.7386127875258306,0,1,1,2.7386127875258306,0" stroke="#4c78a8" stroke-width="2" opacity="0.7"></path><path aria-label="Weighted percentage w/ COVID-like illness: 1.6626; States: Rio Grande do Sul" role="graphics-symbol" aria-roledescription="point" transform="translate(128.191,390)" d="M2.7386127875258306,0A2.7386127875258306,2.7386127875258306,0,1,1,-2.7386127875258306,0A2.7386127875258306,2.7386127875258306,0,1,1,2.7386127875258306,0" stroke="#4c78a8" stroke-width="2" opacity="0.7"></path><path aria-label="Weighted percentage w/ COVID-like illness: 1.2582; States: Santa Catarina" role="graphics-symbol" aria-roledescription="point" transform="translate(114.037,470)" d="M2.7386127875258306,0A2.7386127875258306,2.7386127875258306,0,1,1,-2.7386127875258306,0A2.7386127875258306,2.7386127875258306,0,1,1,2.7386127875258306,0" stroke="#4c78a8" stroke-width="2" opacity="0.7"></path><path aria-label="Weighted percentage w/ COVID-like illness: 1.2129; States: Ceará" role="graphics-symbol" aria-roledescription="point" transform="translate(112.45149999999998,110)" d="M2.7386127875258306,0A2.7386127875258306,2.7386127875258306,0,1,1,-2.7386127875258306,0A2.7386127875258306,2.7386127875258306,0,1,1,2.7386127875258306,0" stroke="#4c78a8" stroke-width="2" opacity="0.7"></path><path aria-label="Weighted percentage w/ COVID-like illness: 0.9819; States: Mato Grosso do Sul" role="graphics-symbol" aria-roledescription="point" transform="translate(104.3665,230)" d="M2.7386127875258306,0A2.7386127875258306,2.7386127875258306,0,1,1,-2.7386127875258306,0A2.7386127875258306,2.7386127875258306,0,1,1,2.7386127875258306,0" stroke="#4c78a8" stroke-width="2" opacity="0.7"></path><path aria-label="Weighted percentage w/ COVID-like illness: 0.7639; States: Paraná" role="graphics-symbol" aria-roledescription="point" transform="translate(96.7365,270)" d="M2.7386127875258306,0A2.7386127875258306,2.7386127875258306,0,1,1,-2.7386127875258306,0A2.7386127875258306,2.7386127875258306,0,1,1,2.7386127875258306,0" stroke="#4c78a8" stroke-width="2" opacity="0.7"></path><path aria-label="Weighted percentage w/ COVID-like illness: 0.668; States: Minas Gerais" role="graphics-symbol" aria-roledescription="point" transform="translate(93.38000000000001,250)" d="M2.7386127875258306,0A2.7386127875258306,2.7386127875258306,0,1,1,-2.7386127875258306,0A2.7386127875258306,2.7386127875258306,0,1,1,2.7386127875258306,0" stroke="#4c78a8" stroke-width="2" opacity="0.7"></path><path aria-label="Weighted percentage w/ COVID-like illness: 0.6649; States: Alagoas" role="graphics-symbol" aria-roledescription="point" transform="translate(93.2715,30)" d="M2.7386127875258306,0A2.7386127875258306,2.7386127875258306,0,1,1,-2.7386127875258306,0A2.7386127875258306,2.7386127875258306,0,1,1,2.7386127875258306,0" stroke="#4c78a8" stroke-width="2" opacity="0.7"></path><path aria-label="Weighted percentage w/ COVID-like illness: 0.5989; States: São Paulo" role="graphics-symbol" aria-roledescription="point" transform="translate(90.9615,510)" d="M2.7386127875258306,0A2.7386127875258306,2.7386127875258306,0,1,1,-2.7386127875258306,0A2.7386127875258306,2.7386127875258306,0,1,1,2.7386127875258306,0" stroke="#4c78a8" stroke-width="2" opacity="0.7"></path><path aria-label="Weighted percentage w/ COVID-like illness: 0.1444; States: Bahia" role="graphics-symbol" aria-roledescription="point" transform="translate(75.054,90)" d="M2.7386127875258306,0A2.7386127875258306,2.7386127875258306,0,1,1,-2.7386127875258306,0A2.7386127875258306,2.7386127875258306,0,1,1,2.7386127875258306,0" stroke="#4c78a8" stroke-width="2" opacity="0.7"></path></g><g class="mark-rule role-mark layer_1_marks" role="graphics-object" aria-roledescription="rule mark container"><line aria-label="CI 0.95: 1.971228; upper_percent_cli_lower: 17.369772; region: Acre; percent_cli_upper: 17.369772; percent_cli_lower: 1.971228" role="graphics-symbol" aria-roledescription="errorbar" transform="translate(138.99298000000005,10)" x2="538.94904" y2="0" stroke="blue" stroke-width="0.6"></line><line aria-label="CI 0.95: 1.198424; upper_percent_cli_lower: 13.146976; region: Roraima; percent_cli_upper: 13.146976; percent_cli_lower: 1.198424" role="graphics-symbol" aria-roledescription="errorbar" transform="translate(111.94484000000001,450)" x2="418.19931999999994" y2="0" stroke="blue" stroke-width="0.6"></line><line aria-label="CI 0.95: 1.52756; upper_percent_cli_lower: 12.12724; region: Rondônia; percent_cli_upper: 12.12724; percent_cli_lower: 1.52756" role="graphics-symbol" aria-roledescription="errorbar" transform="translate(123.4646,430)" x2="370.9888" y2="0" stroke="blue" stroke-width="0.6"></line><line aria-label="CI 0.95: 0.88884; upper_percent_cli_lower: 11.43756; region: Tocantins; percent_cli_upper: 11.43756; percent_cli_lower: 0.88884" role="graphics-symbol" aria-roledescription="errorbar" transform="translate(101.1094,530)" x2="369.2052" y2="0" stroke="blue" stroke-width="0.6"></line><line aria-label="CI 0.95: -0.21042; upper_percent_cli_lower: 9.32302; region: Amapá; percent_cli_upper: 9.32302; percent_cli_lower: -0.21042" role="graphics-symbol" aria-roledescription="errorbar" transform="translate(62.6353,50)" x2="333.6704" y2="0" stroke="blue" stroke-width="0.6"></line><line aria-label="CI 0.95: 1.05806; upper_percent_cli_lower: 7.52214; region: Amazonas; percent_cli_upper: 7.52214; percent_cli_lower: 1.05806" role="graphics-symbol" aria-roledescription="errorbar" transform="translate(107.03210000000001,70)" x2="226.2428" y2="0" stroke="blue" stroke-width="0.6"></line><line aria-label="CI 0.95: 0.245308; upper_percent_cli_lower: 7.066892; region: Pará; percent_cli_upper: 7.066892; percent_cli_lower: 0.245308" role="graphics-symbol" aria-roledescription="errorbar" transform="translate(78.58578000000001,310)" x2="238.75543999999996" y2="0" stroke="blue" stroke-width="0.6"></line><line aria-label="CI 0.95: 0.931104; upper_percent_cli_lower: 5.860896; region: Goiás; percent_cli_upper: 5.860896; percent_cli_lower: 0.931104" role="graphics-symbol" aria-roledescription="errorbar" transform="translate(102.58863999999998,170)" x2="172.54272000000003" y2="0" stroke="blue" stroke-width="0.6"></line><line aria-label="CI 0.95: -0.62336; upper_percent_cli_lower: 6.94616; region: Sergipe; percent_cli_upper: 6.94616; percent_cli_lower: -0.62336" role="graphics-symbol" aria-roledescription="errorbar" transform="translate(48.1824,490)" x2="264.93320000000006" y2="0" stroke="blue" stroke-width="0.6"></line><line aria-label="CI 0.95: 0.440016; upper_percent_cli_lower: 5.361184; region: Pernambuco; percent_cli_upper: 5.361184; percent_cli_lower: 0.440016" role="graphics-symbol" aria-roledescription="errorbar" transform="translate(85.40056000000001,330)" x2="172.24087999999998" y2="0" stroke="blue" stroke-width="0.6"></line><line aria-label="CI 0.95: -0.42772; upper_percent_cli_lower: 5.86192; region: Maranhão; percent_cli_upper: 5.86192; percent_cli_lower: -0.42772" role="graphics-symbol" aria-roledescription="errorbar" transform="translate(55.029799999999994,190)" x2="220.13739999999999" y2="0" stroke="blue" stroke-width="0.6"></line><line aria-label="CI 0.95: 0.091728; upper_percent_cli_lower: 5.278672; region: Espírito Santo; percent_cli_upper: 5.278672; percent_cli_lower: 0.091728" role="graphics-symbol" aria-roledescription="errorbar" transform="translate(73.21048,150)" x2="181.54304000000002" y2="0" stroke="blue" stroke-width="0.6"></line><line aria-label="CI 0.95: -0.060104; upper_percent_cli_lower: 5.260904; region: Rio Grande do Norte; percent_cli_upper: 5.260904; percent_cli_lower: -0.060104" role="graphics-symbol" aria-roledescription="errorbar" transform="translate(67.89636000000002,370)" x2="186.23528" y2="0" stroke="blue" stroke-width="0.6"></line><line aria-label="CI 0.95: -0.373156; upper_percent_cli_lower: 5.520956; region: Distrito Federal; percent_cli_upper: 5.520956; percent_cli_lower: -0.373156" role="graphics-symbol" aria-roledescription="errorbar" transform="translate(56.93954,130)" x2="206.29392000000004" y2="0" stroke="blue" stroke-width="0.6"></line><line aria-label="CI 0.95: 0.506196; upper_percent_cli_lower: 3.377204; region: Rio de Janeiro; percent_cli_upper: 3.377204; percent_cli_lower: 0.506196" role="graphics-symbol" aria-roledescription="errorbar" transform="translate(87.71686,410)" x2="100.48528000000005" y2="0" stroke="blue" stroke-width="0.6"></line><line aria-label="CI 0.95: -0.390812; upper_percent_cli_lower: 3.851412; region: Mato Grosso; percent_cli_upper: 3.851412; percent_cli_lower: -0.390812" role="graphics-symbol" aria-roledescription="errorbar" transform="translate(56.32157999999999,210)" x2="148.47784000000001" y2="0" stroke="blue" stroke-width="0.6"></line><line aria-label="CI 0.95: -1.293812; upper_percent_cli_lower: 4.712412; region: Piauí; percent_cli_upper: 4.712412; percent_cli_lower: -1.293812" role="graphics-symbol" aria-roledescription="errorbar" transform="translate(24.716579999999993,350)" x2="210.21784000000005" y2="0" stroke="blue" stroke-width="0.6"></line><line aria-label="CI 0.95: -0.758236; upper_percent_cli_lower: 4.099036; region: Paraíba; percent_cli_upper: 4.099036; percent_cli_lower: -0.758236" role="graphics-symbol" aria-roledescription="errorbar" transform="translate(43.46174000000001,290)" x2="170.00451999999999" y2="0" stroke="blue" stroke-width="0.6"></line><line aria-label="CI 0.95: 0.285896; upper_percent_cli_lower: 3.039304; region: Rio Grande do Sul; percent_cli_upper: 3.039304; percent_cli_lower: 0.285896" role="graphics-symbol" aria-roledescription="errorbar" transform="translate(80.00635999999999,390)" x2="96.36928000000002" y2="0" stroke="blue" stroke-width="0.6"></line><line aria-label="CI 0.95: -0.150648; upper_percent_cli_lower: 2.667048; region: Santa Catarina; percent_cli_upper: 2.667048; percent_cli_lower: -0.150648" role="graphics-symbol" aria-roledescription="errorbar" transform="translate(64.72731999999999,470)" x2="98.61935999999997" y2="0" stroke="blue" stroke-width="0.6"></line><line aria-label="CI 0.95: -0.438596; upper_percent_cli_lower: 2.864396; region: Ceará; percent_cli_upper: 2.864396; percent_cli_lower: -0.438596" role="graphics-symbol" aria-roledescription="errorbar" transform="translate(54.64914,110)" x2="115.60471999999997" y2="0" stroke="blue" stroke-width="0.6"></line><line aria-label="CI 0.95: -0.59982; upper_percent_cli_lower: 2.56362; region: Mato Grosso do Sul; percent_cli_upper: 2.56362; percent_cli_lower: -0.59982" role="graphics-symbol" aria-roledescription="errorbar" transform="translate(49.0063,230)" x2="110.72040000000001" y2="0" stroke="blue" stroke-width="0.6"></line><line aria-label="CI 0.95: -0.250204; upper_percent_cli_lower: 1.778004; region: Paraná; percent_cli_upper: 1.778004; percent_cli_lower: -0.250204" role="graphics-symbol" aria-roledescription="errorbar" transform="translate(61.24286000000001,270)" x2="70.98728" y2="0" stroke="blue" stroke-width="0.6"></line><line aria-label="CI 0.95: -0.226544; upper_percent_cli_lower: 1.562544; region: Minas Gerais; percent_cli_upper: 1.562544; percent_cli_lower: -0.226544" role="graphics-symbol" aria-roledescription="errorbar" transform="translate(62.07096,250)" x2="62.61807999999999" y2="0" stroke="blue" stroke-width="0.6"></line><line aria-label="CI 0.95: -1.094004; upper_percent_cli_lower: 2.423804; region: Alagoas; percent_cli_upper: 2.423804; percent_cli_lower: -1.094004" role="graphics-symbol" aria-roledescription="errorbar" transform="translate(31.709860000000017,30)" x2="123.12327999999997" y2="0" stroke="blue" stroke-width="0.6"></line><line aria-label="CI 0.95: 0.16476; upper_percent_cli_lower: 1.03304; region: São Paulo; percent_cli_upper: 1.03304; percent_cli_lower: 0.16476" role="graphics-symbol" aria-roledescription="errorbar" transform="translate(75.76660000000001,510)" x2="30.38979999999998" y2="0" stroke="blue" stroke-width="0.6"></line><line aria-label="CI 0.95: -0.436936; upper_percent_cli_lower: 0.725736; region: Bahia; percent_cli_upper: 0.725736; percent_cli_lower: -0.436936" role="graphics-symbol" aria-roledescription="errorbar" transform="translate(54.707240000000006,90)" x2="40.693519999999985" y2="0" stroke="blue" stroke-width="0.6"></line></g><g class="mark-group role-title"><g transform="translate(350,-17)"><path class="background" aria-hidden="true" d="M0,0h0v0h0Z" pointer-events="none"></path><g><g class="mark-text role-title-text" role="graphics-symbol" aria-roledescription="title" aria-label="Title text 'Facebook COVID-like illness symptom survey (last available date) for all states in Brazil'" pointer-events="none"><text text-anchor="middle" transform="translate(0,10)" font-family="sans-serif" font-size="13px" font-weight="bold" fill="#000" opacity="1">Facebook COVID-like illness symptom survey (last available date) for all states in Brazil</text></g></g><path class="foreground" aria-hidden="true" d="" pointer-events="none" display="none"></path></g></g></g><path class="foreground" aria-hidden="true" d="" display="none"></path></g></g></g></svg>