<svg class="marks" width="569" height="359" viewBox="0 0 569 359" version="1.1" xmlns="http://www.w3.org/2000/svg" xmlns:xlink="http://www.w3.org/1999/xlink"><rect width="569" height="359" style="fill: white;"></rect><defs><linearGradient id="gradient_1" x1="0" x2="0" y1="1" y2="0"><stop offset="0" stop-color="rgb(254, 224, 135)"></stop><stop offset="0.1" stop-color="rgb(254, 209, 111)"></stop><stop offset="0.2" stop-color="rgb(254, 189, 89)"></stop><stop offset="0.3" stop-color="rgb(254, 168, 73)"></stop><stop offset="0.4" stop-color="rgb(253, 144, 62)"></stop><stop offset="0.5" stop-color="rgb(252, 115, 53)"></stop><stop offset="0.6" stop-color="rgb(249, 82, 43)"></stop><stop offset="0.7" stop-color="rgb(238, 52, 35)"></stop><stop offset="0.8" stop-color="rgb(222, 27, 32)"></stop><stop offset="0.9" stop-color="rgb(202, 11, 34)"></stop><stop offset="1" stop-color="rgb(175, 2, 37)"></stop></linearGradient></defs><g transform="translate(59,22)"><g class="mark-group role-frame root"><g transform="translate(0,0)"><path class="background" d="M0.5,0.5h400v300h-400Z" style="fill: none; stroke: #ddd;"></path><g><g class="mark-group role-axis"><g transform="translate(0.5,0.5)"><path class="background" d="M0,0h0v0h0Z" style="pointer-events: none; fill: none;"></path><g><g class="mark-rule role-axis-grid" style="pointer-events: none;"><line transform="translate(0,273)" x2="400" y2="0" style="fill: none; stroke: #ddd; stroke-width: 1; opacity: 1;"></line><line transform="translate(0,209)" x2="400" y2="0" style="fill: none; stroke: #ddd; stroke-width: 1; opacity: 1;"></line><line transform="translate(0,145)" x2="400" y2="0" style="fill: none; stroke: #ddd; stroke-width: 1; opacity: 1;"></line><line transform="translate(0,82)" x2="400" y2="0" style="fill: none; stroke: #ddd; stroke-width: 1; opacity: 1;"></line><line transform="translate(0,18)" x2="400" y2="0" style="fill: none; stroke: #ddd; stroke-width: 1; opacity: 1;"></line></g></g><path class="foreground" d="" style="pointer-events: none; display: none; fill: none;"></path></g></g><g class="mark-group role-axis"><g transform="translate(0.5,300.5)"><path class="background" d="M0,0h0v0h0Z" style="pointer-events: none; fill: none;"></path><g><g class="mark-rule role-axis-tick" style="pointer-events: none;"><line transform="translate(0,0)" x2="0" y2="5" style="fill: none; stroke: #888; stroke-width: 1; opacity: 1;"></line><line transform="translate(21,0)" x2="0" y2="5" style="fill: none; stroke: #888; stroke-width: 1; opacity: 1;"></line><line transform="translate(42,0)" x2="0" y2="5" style="fill: none; stroke: #888; stroke-width: 1; opacity: 1;"></line><line transform="translate(63,0)" x2="0" y2="5" style="fill: none; stroke: #888; stroke-width: 1; opacity: 1;"></line><line transform="translate(84,0)" x2="0" y2="5" style="fill: none; stroke: #888; stroke-width: 1; opacity: 1;"></line><line transform="translate(105,0)" x2="0" y2="5" style="fill: none; stroke: #888; stroke-width: 1; opacity: 1;"></line><line transform="translate(126,0)" x2="0" y2="5" style="fill: none; stroke: #888; stroke-width: 1; opacity: 1;"></line><line transform="translate(147,0)" x2="0" y2="5" style="fill: none; stroke: #888; stroke-width: 1; opacity: 1;"></line><line transform="translate(168,0)" x2="0" y2="5" style="fill: none; stroke: #888; stroke-width: 1; opacity: 1;"></line><line transform="translate(189,0)" x2="0" y2="5" style="fill: none; stroke: #888; stroke-width: 1; opacity: 1;"></line><line transform="translate(211,0)" x2="0" y2="5" style="fill: none; stroke: #888; stroke-width: 1; opacity: 1;"></line><line transform="translate(232,0)" x2="0" y2="5" style="fill: none; stroke: #888; stroke-width: 1; opacity: 1;"></line><line transform="translate(253,0)" x2="0" y2="5" style="fill: none; stroke: #888; stroke-width: 1; opacity: 1;"></line><line transform="translate(274,0)" x2="0" y2="5" style="fill: none; stroke: #888; stroke-width: 1; opacity: 1;"></line><line transform="translate(295,0)" x2="0" y2="5" style="fill: none; stroke: #888; stroke-width: 1; opacity: 1;"></line><line transform="translate(316,0)" x2="0" y2="5" style="fill: none; stroke: #888; stroke-width: 1; opacity: 1;"></line><line transform="translate(337,0)" x2="0" y2="5" style="fill: none; stroke: #888; stroke-width: 1; opacity: 1;"></line><line transform="translate(358,0)" x2="0" y2="5" style="fill: none; stroke: #888; stroke-width: 1; opacity: 1;"></line><line transform="translate(379,0)" x2="0" y2="5" style="fill: none; stroke: #888; stroke-width: 1; opacity: 1;"></line><line transform="translate(400,0)" x2="0" y2="5" style="fill: none; stroke: #888; stroke-width: 1; opacity: 1;"></line></g><g class="mark-text role-axis-label" style="pointer-events: none;"><text text-anchor="start" transform="translate(0,15)" style="font-family: sans-serif; font-size: 10px; fill: #000; opacity: 1;">0</text><text text-anchor="middle" transform="translate(21.052631578947366,15)" style="font-family: sans-serif; font-size: 10px; fill: #000; opacity: 1;">5</text><text text-anchor="middle" transform="translate(42.10526315789473,15)" style="font-family: sans-serif; font-size: 10px; fill: #000; opacity: 1;">10</text><text text-anchor="middle" transform="translate(63.1578947368421,15)" style="font-family: sans-serif; font-size: 10px; fill: #000; opacity: 1;">15</text><text text-anchor="middle" transform="translate(84.21052631578947,15)" style="font-family: sans-serif; font-size: 10px; fill: #000; opacity: 1;">20</text><text text-anchor="middle" transform="translate(105.26315789473684,15)" style="font-family: sans-serif; font-size: 10px; fill: #000; opacity: 1;">25</text><text text-anchor="middle" transform="translate(126.3157894736842,15)" style="font-family: sans-serif; font-size: 10px; fill: #000; opacity: 1;">30</text><text text-anchor="middle" transform="translate(147.36842105263156,15)" style="font-family: sans-serif; font-size: 10px; fill: #000; opacity: 1;">35</text><text text-anchor="middle" transform="translate(168.42105263157893,15)" style="font-family: sans-serif; font-size: 10px; fill: #000; opacity: 1;">40</text><text text-anchor="middle" transform="translate(189.4736842105263,15)" style="font-family: sans-serif; font-size: 10px; fill: #000; opacity: 1;">45</text><text text-anchor="middle" transform="translate(210.52631578947367,15)" style="font-family: sans-serif; font-size: 10px; fill: #000; opacity: 1;">50</text><text text-anchor="middle" transform="translate(231.57894736842107,15)" style="font-family: sans-serif; font-size: 10px; fill: #000; opacity: 1;">55</text><text text-anchor="middle" transform="translate(252.6315789473684,15)" style="font-family: sans-serif; font-size: 10px; fill: #000; opacity: 1;">60</text><text text-anchor="middle" transform="translate(273.6842105263158,15)" style="font-family: sans-serif; font-size: 10px; fill: #000; opacity: 1;">65</text><text text-anchor="middle" transform="translate(294.7368421052631,15)" style="font-family: sans-serif; font-size: 10px; fill: #000; opacity: 1;">70</text><text text-anchor="middle" transform="translate(315.7894736842105,15)" style="font-family: sans-serif; font-size: 10px; fill: #000; opacity: 1;">75</text><text text-anchor="middle" transform="translate(336.84210526315786,15)" style="font-family: sans-serif; font-size: 10px; fill: #000; opacity: 1;">80</text><text text-anchor="middle" transform="translate(357.89473684210526,15)" style="font-family: sans-serif; font-size: 10px; fill: #000; opacity: 1;">85</text><text text-anchor="middle" transform="translate(378.9473684210526,15)" style="font-family: sans-serif; font-size: 10px; fill: #000; opacity: 1;">90</text><text text-anchor="end" transform="translate(400,15)" style="font-family: sans-serif; font-size: 10px; fill: #000; opacity: 1;">95</text></g><g class="mark-rule role-axis-domain" style="pointer-events: none;"><line transform="translate(0,0)" x2="400" y2="0" style="fill: none; stroke: #888; stroke-width: 1; opacity: 1;"></line></g><g class="mark-text role-axis-title" style="pointer-events: none;"><text text-anchor="middle" transform="translate(200,30)" style="font-family: sans-serif; font-size: 11px; font-weight: bold; fill: #000; opacity: 1;">Age (binned)</text></g></g><path class="foreground" d="" style="pointer-events: none; display: none; fill: none;"></path></g></g><g class="mark-group role-axis"><g transform="translate(0.5,0.5)"><path class="background" d="M0,0h0v0h0Z" style="pointer-events: none; fill: none;"></path><g><g class="mark-rule role-axis-tick" style="pointer-events: none;"><line transform="translate(0,273)" x2="-5" y2="0" style="fill: none; stroke: #888; stroke-width: 1; opacity: 1;"></line><line transform="translate(0,209)" x2="-5" y2="0" style="fill: none; stroke: #888; stroke-width: 1; opacity: 1;"></line><line transform="translate(0,145)" x2="-5" y2="0" style="fill: none; stroke: #888; stroke-width: 1; opacity: 1;"></line><line transform="translate(0,82)" x2="-5" y2="0" style="fill: none; stroke: #888; stroke-width: 1; opacity: 1;"></line><line transform="translate(0,18)" x2="-5" y2="0" style="fill: none; stroke: #888; stroke-width: 1; opacity: 1;"></line></g><g class="mark-text role-axis-label" style="pointer-events: none;"><text text-anchor="end" transform="translate(-7,275.69279393173196)" style="font-family: sans-serif; font-size: 10px; fill: #000; opacity: 1;">Mar 11</text><text text-anchor="end" transform="translate(-7,211.97597977243996)" style="font-family: sans-serif; font-size: 10px; fill: #000; opacity: 1;">Mar 18</text><text text-anchor="end" transform="translate(-7,148.2591656131479)" style="font-family: sans-serif; font-size: 10px; fill: #000; opacity: 1;">Mar 25</text><text text-anchor="end" transform="translate(-7,84.92161820480406)" style="font-family: sans-serif; font-size: 10px; fill: #000; opacity: 1;">Apr 01</text><text text-anchor="end" transform="translate(-7,21.204804045512024)" style="font-family: sans-serif; font-size: 10px; fill: #000; opacity: 1;">Apr 08</text></g><g class="mark-rule role-axis-domain" style="pointer-events: none;"><line transform="translate(0,300)" x2="0" y2="-300" style="fill: none; stroke: #888; stroke-width: 1; opacity: 1;"></line></g><g class="mark-text role-axis-title" style="pointer-events: none;"><text text-anchor="middle" transform="translate(-42.123046875,150) rotate(-90) translate(0,-2)" style="font-family: sans-serif; font-size: 11px; font-weight: bold; fill: #000; opacity: 1;">Date of Notification</text></g></g><path class="foreground" d="" style="pointer-events: none; display: none; fill: none;"></path></g></g><g class="mark-rect role-mark marks"><path d="M127.3157894736842,291.897597977244h20.052631578947356v8.102402022755996h-20.052631578947356Z" style="fill: rgb(254, 224, 135);"></path><path d="M211.52631578947367,282.79519595448795h20.0526315789474v8.102402022756053h-20.0526315789474Z" style="fill: rgb(254, 224, 135);"></path><path d="M274.6842105263158,264.59039190897596h20.05263157894734v8.102402022755996h-20.05263157894734Z" style="fill: rgb(254, 224, 135);"></path><path d="M232.57894736842107,264.59039190897596h20.05263157894734v8.102402022755996h-20.05263157894734Z" style="fill: rgb(254, 224, 135);"></path><path d="M64.15789473684211,255.48798988622h20.052631578947356v8.102402022755967h-20.052631578947356Z" style="fill: rgb(254, 224, 135);"></path><path d="M106.26315789473684,255.48798988622h20.05263157894737v8.102402022755967h-20.05263157894737Z" style="fill: rgb(254, 224, 135);"></path><path d="M274.6842105263158,255.48798988622h20.05263157894734v8.102402022755967h-20.05263157894734Z" style="fill: rgb(254, 224, 135);"></path><path d="M232.57894736842107,246.38558786346397h20.05263157894734v8.102402022756024h-20.05263157894734Z" style="fill: rgb(254, 224, 135);"></path><path d="M148.36842105263156,237.28318584070797h20.05263157894737v8.102402022755996h-20.05263157894737Z" style="fill: rgb(254, 224, 135);"></path><path d="M274.6842105263158,237.28318584070797h20.05263157894734v8.102402022755996h-20.05263157894734Z" style="fill: rgb(254, 224, 135);"></path><path d="M127.3157894736842,237.28318584070797h20.052631578947356v8.102402022755996h-20.052631578947356Z" style="fill: rgb(254, 224, 135);"></path><path d="M211.52631578947367,237.28318584070797h20.0526315789474v8.102402022755996h-20.0526315789474Z" style="fill: rgb(254, 189, 89);"></path><path d="M232.57894736842107,237.28318584070797h20.05263157894734v8.102402022755996h-20.05263157894734Z" style="fill: rgb(254, 224, 135);"></path><path d="M169.42105263157893,228.18078381795198h20.05263157894737v8.102402022755996h-20.05263157894737Z" style="fill: rgb(254, 224, 135);"></path><path d="M274.6842105263158,228.18078381795198h20.05263157894734v8.102402022755996h-20.05263157894734Z" style="fill: rgb(254, 224, 135);"></path><path d="M295.7368421052631,228.18078381795198h20.0526315789474v8.102402022755996h-20.0526315789474Z" style="fill: rgb(254, 224, 135);"></path><path d="M127.3157894736842,228.18078381795198h20.052631578947356v8.102402022755996h-20.052631578947356Z" style="fill: rgb(254, 224, 135);"></path><path d="M85.21052631578947,164.4639696586599h20.05263157894737v8.102402022756053h-20.05263157894737Z" style="fill: rgb(254, 189, 89);"></path><path d="M295.7368421052631,219.07838179519595h20.0526315789474v8.102402022756024h-20.0526315789474Z" style="fill: rgb(254, 189, 89);"></path><path d="M148.36842105263156,219.07838179519595h20.05263157894737v8.102402022756024h-20.05263157894737Z" style="fill: rgb(253, 144, 62);"></path><path d="M169.42105263157893,219.07838179519595h20.05263157894737v8.102402022756024h-20.05263157894737Z" style="fill: rgb(254, 224, 135);"></path><path d="M22.052631578947366,219.07838179519595h20.052631578947366v8.102402022756024h-20.052631578947366Z" style="fill: rgb(254, 224, 135);"></path><path d="M274.6842105263158,219.07838179519595h20.05263157894734v8.102402022756024h-20.05263157894734Z" style="fill: rgb(253, 144, 62);"></path><path d="M190.4736842105263,219.07838179519595h20.05263157894737v8.102402022756024h-20.05263157894737Z" style="fill: rgb(254, 224, 135);"></path><path d="M253.6315789473684,219.07838179519595h20.05263157894737v8.102402022756024h-20.05263157894737Z" style="fill: rgb(254, 224, 135);"></path><path d="M106.26315789473684,219.07838179519595h20.05263157894737v8.102402022756024h-20.05263157894737Z" style="fill: rgb(254, 224, 135);"></path><path d="M211.52631578947367,219.07838179519595h20.0526315789474v8.102402022756024h-20.0526315789474Z" style="fill: rgb(254, 224, 135);"></path><path d="M127.3157894736842,219.07838179519595h20.052631578947356v8.102402022756024h-20.052631578947356Z" style="fill: rgb(254, 224, 135);"></path><path d="M232.57894736842107,219.07838179519595h20.05263157894734v8.102402022756024h-20.05263157894734Z" style="fill: rgb(254, 224, 135);"></path><path d="M148.36842105263156,209.97597977243996h20.05263157894737v8.102402022755996h-20.05263157894737Z" style="fill: rgb(254, 224, 135);"></path><path d="M274.6842105263158,209.97597977243996h20.05263157894734v8.102402022755996h-20.05263157894734Z" style="fill: rgb(254, 189, 89);"></path><path d="M295.7368421052631,209.97597977243996h20.0526315789474v8.102402022755996h-20.0526315789474Z" style="fill: rgb(254, 224, 135);"></path><path d="M85.21052631578947,209.97597977243996h20.05263157894737v8.102402022755996h-20.05263157894737Z" style="fill: rgb(254, 189, 89);"></path><path d="M190.4736842105263,209.97597977243996h20.05263157894737v8.102402022755996h-20.05263157894737Z" style="fill: rgb(254, 189, 89);"></path><path d="M169.42105263157893,209.97597977243996h20.05263157894737v8.102402022755996h-20.05263157894737Z" style="fill: rgb(254, 224, 135);"></path><path d="M232.57894736842107,209.97597977243996h20.05263157894734v8.102402022755996h-20.05263157894734Z" style="fill: rgb(254, 189, 89);"></path><path d="M190.4736842105263,200.87357774968396h20.05263157894737v8.102402022755996h-20.05263157894737Z" style="fill: rgb(254, 224, 135);"></path><path d="M211.52631578947367,200.87357774968396h20.0526315789474v8.102402022755996h-20.0526315789474Z" style="fill: rgb(254, 224, 135);"></path><path d="M274.6842105263158,200.87357774968396h20.05263157894734v8.102402022755996h-20.05263157894734Z" style="fill: rgb(254, 189, 89);"></path><path d="M295.7368421052631,200.87357774968396h20.0526315789474v8.102402022755996h-20.0526315789474Z" style="fill: rgb(254, 224, 135);"></path><path d="M106.26315789473684,200.87357774968396h20.05263157894737v8.102402022755996h-20.05263157894737Z" style="fill: rgb(254, 189, 89);"></path><path d="M337.84210526315786,200.87357774968396h20.0526315789474v8.102402022755996h-20.0526315789474Z" style="fill: rgb(254, 224, 135);"></path><path d="M127.3157894736842,200.87357774968396h20.052631578947356v8.102402022755996h-20.052631578947356Z" style="fill: rgb(254, 189, 89);"></path><path d="M316.7894736842105,200.87357774968396h20.05263157894734v8.102402022755996h-20.05263157894734Z" style="fill: rgb(254, 224, 135);"></path><path d="M64.15789473684211,191.77117572692794h20.052631578947356v8.102402022756024h-20.052631578947356Z" style="fill: rgb(254, 224, 135);"></path><path d="M274.6842105263158,191.77117572692794h20.05263157894734v8.102402022756024h-20.05263157894734Z" style="fill: rgb(254, 189, 89);"></path><path d="M106.26315789473684,191.77117572692794h20.05263157894737v8.102402022756024h-20.05263157894737Z" style="fill: rgb(254, 189, 89);"></path><path d="M232.57894736842107,191.77117572692794h20.05263157894734v8.102402022756024h-20.05263157894734Z" style="fill: rgb(254, 224, 135);"></path><path d="M274.6842105263158,182.66877370417194h20.05263157894734v8.102402022755996h-20.05263157894734Z" style="fill: rgb(254, 224, 135);"></path><path d="M337.84210526315786,182.66877370417194h20.0526315789474v8.102402022755996h-20.0526315789474Z" style="fill: rgb(254, 189, 89);"></path><path d="M232.57894736842107,182.66877370417194h20.05263157894734v8.102402022755996h-20.05263157894734Z" style="fill: rgb(254, 189, 89);"></path><path d="M169.42105263157893,182.66877370417194h20.05263157894737v8.102402022755996h-20.05263157894737Z" style="fill: rgb(254, 189, 89);"></path><path d="M148.36842105263156,182.66877370417194h20.05263157894737v8.102402022755996h-20.05263157894737Z" style="fill: rgb(253, 144, 62);"></path><path d="M106.26315789473684,182.66877370417194h20.05263157894737v8.102402022755996h-20.05263157894737Z" style="fill: rgb(254, 224, 135);"></path><path d="M64.15789473684211,182.66877370417194h20.052631578947356v8.102402022755996h-20.052631578947356Z" style="fill: rgb(254, 224, 135);"></path><path d="M211.52631578947367,173.56637168141594h20.0526315789474v8.102402022755996h-20.0526315789474Z" style="fill: rgb(254, 224, 135);"></path><path d="M295.7368421052631,173.56637168141594h20.0526315789474v8.102402022755996h-20.0526315789474Z" style="fill: rgb(254, 224, 135);"></path><path d="M253.6315789473684,164.4639696586599h20.05263157894737v8.102402022756053h-20.05263157894737Z" style="fill: rgb(254, 224, 135);"></path><path d="M232.57894736842107,164.4639696586599h20.05263157894734v8.102402022756053h-20.05263157894734Z" style="fill: rgb(254, 224, 135);"></path><path d="M127.3157894736842,164.4639696586599h20.052631578947356v8.102402022756053h-20.052631578947356Z" style="fill: rgb(254, 189, 89);"></path><path d="M169.42105263157893,164.4639696586599h20.05263157894737v8.102402022756053h-20.05263157894737Z" style="fill: rgb(254, 224, 135);"></path><path d="M190.4736842105263,164.4639696586599h20.05263157894737v8.102402022756053h-20.05263157894737Z" style="fill: rgb(254, 224, 135);"></path><path d="M127.3157894736842,155.36156763590395h20.052631578947356v8.102402022755939h-20.052631578947356Z" style="fill: rgb(253, 144, 62);"></path><path d="M106.26315789473684,155.36156763590395h20.05263157894737v8.102402022755939h-20.05263157894737Z" style="fill: rgb(254, 189, 89);"></path><path d="M211.52631578947367,155.36156763590395h20.0526315789474v8.102402022755939h-20.0526315789474Z" style="fill: rgb(254, 189, 89);"></path><path d="M316.7894736842105,155.36156763590395h20.05263157894734v8.102402022755939h-20.05263157894734Z" style="fill: rgb(254, 224, 135);"></path><path d="M169.42105263157893,155.36156763590395h20.05263157894737v8.102402022755939h-20.05263157894737Z" style="fill: rgb(254, 224, 135);"></path><path d="M190.4736842105263,155.36156763590395h20.05263157894737v8.102402022755939h-20.05263157894737Z" style="fill: rgb(254, 189, 89);"></path><path d="M64.15789473684211,155.36156763590395h20.052631578947356v8.102402022755939h-20.052631578947356Z" style="fill: rgb(254, 224, 135);"></path><path d="M85.21052631578947,155.36156763590395h20.05263157894737v8.102402022755939h-20.05263157894737Z" style="fill: rgb(254, 224, 135);"></path><path d="M148.36842105263156,155.36156763590395h20.05263157894737v8.102402022755939h-20.05263157894737Z" style="fill: rgb(254, 224, 135);"></path><path d="M232.57894736842107,155.36156763590395h20.05263157894734v8.102402022755939h-20.05263157894734Z" style="fill: rgb(254, 224, 135);"></path><path d="M379.9473684210526,146.2591656131479h20.0526315789474v8.102402022756053h-20.0526315789474Z" style="fill: rgb(254, 224, 135);"></path><path d="M253.6315789473684,146.2591656131479h20.05263157894737v8.102402022756053h-20.05263157894737Z" style="fill: rgb(254, 189, 89);"></path><path d="M316.7894736842105,146.2591656131479h20.05263157894734v8.102402022756053h-20.05263157894734Z" style="fill: rgb(254, 224, 135);"></path><path d="M148.36842105263156,146.2591656131479h20.05263157894737v8.102402022756053h-20.05263157894737Z" style="fill: rgb(249, 82, 43);"></path><path d="M358.89473684210526,146.2591656131479h20.05263157894734v8.102402022756053h-20.05263157894734Z" style="fill: rgb(254, 224, 135);"></path><path d="M127.3157894736842,146.2591656131479h20.052631578947356v8.102402022756053h-20.052631578947356Z" style="fill: rgb(254, 224, 135);"></path><path d="M232.57894736842107,137.53603034134005h20.05263157894734v7.723135271807848h-20.05263157894734Z" style="fill: rgb(254, 224, 135);"></path><path d="M211.52631578947367,137.53603034134005h20.0526315789474v7.723135271807848h-20.0526315789474Z" style="fill: rgb(254, 224, 135);"></path><path d="M295.7368421052631,137.53603034134005h20.0526315789474v7.723135271807848h-20.0526315789474Z" style="fill: rgb(249, 82, 43);"></path><path d="M253.6315789473684,137.53603034134005h20.05263157894737v7.723135271807848h-20.05263157894737Z" style="fill: rgb(253, 144, 62);"></path><path d="M316.7894736842105,137.53603034134005h20.05263157894734v7.723135271807848h-20.05263157894734Z" style="fill: rgb(254, 224, 135);"></path><path d="M274.6842105263158,137.53603034134005h20.05263157894734v7.723135271807848h-20.05263157894734Z" style="fill: rgb(254, 189, 89);"></path><path d="M190.4736842105263,137.53603034134005h20.05263157894737v7.723135271807848h-20.05263157894737Z" style="fill: rgb(254, 224, 135);"></path><path d="M127.3157894736842,137.53603034134005h20.052631578947356v7.723135271807848h-20.052631578947356Z" style="fill: rgb(254, 224, 135);"></path><path d="M169.42105263157893,137.53603034134005h20.05263157894737v7.723135271807848h-20.05263157894737Z" style="fill: rgb(254, 224, 135);"></path><path d="M253.6315789473684,128.43362831858406h20.05263157894737v8.102402022755996h-20.05263157894737Z" style="fill: rgb(254, 189, 89);"></path><path d="M169.42105263157893,128.43362831858406h20.05263157894737v8.102402022755996h-20.05263157894737Z" style="fill: rgb(254, 224, 135);"></path><path d="M274.6842105263158,128.43362831858406h20.05263157894734v8.102402022755996h-20.05263157894734Z" style="fill: rgb(254, 224, 135);"></path><path d="M148.36842105263156,128.43362831858406h20.05263157894737v8.102402022755996h-20.05263157894737Z" style="fill: rgb(254, 224, 135);"></path><path d="M127.3157894736842,128.43362831858406h20.052631578947356v8.102402022755996h-20.052631578947356Z" style="fill: rgb(254, 224, 135);"></path><path d="M190.4736842105263,119.33122629582807h20.05263157894737v8.102402022755996h-20.05263157894737Z" style="fill: rgb(249, 82, 43);"></path><path d="M127.3157894736842,119.33122629582807h20.052631578947356v8.102402022755996h-20.052631578947356Z" style="fill: rgb(254, 189, 89);"></path><path d="M106.26315789473684,119.33122629582807h20.05263157894737v8.102402022755996h-20.05263157894737Z" style="fill: rgb(254, 189, 89);"></path><path d="M148.36842105263156,119.33122629582807h20.05263157894737v8.102402022755996h-20.05263157894737Z" style="fill: rgb(254, 224, 135);"></path><path d="M211.52631578947367,119.33122629582807h20.0526315789474v8.102402022755996h-20.0526315789474Z" style="fill: rgb(254, 224, 135);"></path><path d="M295.7368421052631,119.33122629582807h20.0526315789474v8.102402022755996h-20.0526315789474Z" style="fill: rgb(254, 224, 135);"></path><path d="M316.7894736842105,119.33122629582807h20.05263157894734v8.102402022755996h-20.05263157894734Z" style="fill: rgb(254, 189, 89);"></path><path d="M232.57894736842107,110.22882427307205h20.05263157894734v8.102402022756024h-20.05263157894734Z" style="fill: rgb(254, 224, 135);"></path><path d="M127.3157894736842,110.22882427307205h20.052631578947356v8.102402022756024h-20.052631578947356Z" style="fill: rgb(254, 224, 135);"></path><path d="M253.6315789473684,101.12642225031605h20.05263157894737v8.102402022755996h-20.05263157894737Z" style="fill: rgb(254, 189, 89);"></path><path d="M337.84210526315786,101.12642225031605h20.0526315789474v8.102402022755996h-20.0526315789474Z" style="fill: rgb(254, 224, 135);"></path><path d="M316.7894736842105,101.12642225031605h20.05263157894734v8.102402022755996h-20.05263157894734Z" style="fill: rgb(253, 144, 62);"></path><path d="M274.6842105263158,101.12642225031605h20.05263157894734v8.102402022755996h-20.05263157894734Z" style="fill: rgb(254, 224, 135);"></path><path d="M190.4736842105263,101.12642225031605h20.05263157894737v8.102402022755996h-20.05263157894737Z" style="fill: rgb(254, 224, 135);"></path><path d="M169.42105263157893,101.12642225031605h20.05263157894737v8.102402022755996h-20.05263157894737Z" style="fill: rgb(254, 224, 135);"></path><path d="M211.52631578947367,101.12642225031605h20.0526315789474v8.102402022755996h-20.0526315789474Z" style="fill: rgb(254, 224, 135);"></path><path d="M232.57894736842107,101.12642225031605h20.05263157894734v8.102402022755996h-20.05263157894734Z" style="fill: rgb(254, 224, 135);"></path><path d="M337.84210526315786,119.33122629582807h20.0526315789474v8.102402022755996h-20.0526315789474Z" style="fill: rgb(254, 224, 135);"></path><path d="M295.7368421052631,101.12642225031605h20.0526315789474v8.102402022755996h-20.0526315789474Z" style="fill: rgb(254, 224, 135);"></path><path d="M85.21052631578947,101.12642225031605h20.05263157894737v8.102402022755996h-20.05263157894737Z" style="fill: rgb(254, 224, 135);"></path><path d="M211.52631578947367,92.02402022756006h20.0526315789474v8.102402022755996h-20.0526315789474Z" style="fill: rgb(254, 189, 89);"></path><path d="M253.6315789473684,92.02402022756006h20.05263157894737v8.102402022755996h-20.05263157894737Z" style="fill: rgb(254, 189, 89);"></path><path d="M148.36842105263156,92.02402022756006h20.05263157894737v8.102402022755996h-20.05263157894737Z" style="fill: rgb(254, 189, 89);"></path><path d="M169.42105263157893,92.02402022756006h20.05263157894737v8.102402022755996h-20.05263157894737Z" style="fill: rgb(254, 189, 89);"></path><path d="M379.9473684210526,92.02402022756006h20.0526315789474v8.102402022755996h-20.0526315789474Z" style="fill: rgb(254, 224, 135);"></path><path d="M190.4736842105263,92.02402022756006h20.05263157894737v8.102402022755996h-20.05263157894737Z" style="fill: rgb(254, 189, 89);"></path><path d="M274.6842105263158,92.02402022756006h20.05263157894734v8.102402022755996h-20.05263157894734Z" style="fill: rgb(249, 82, 43);"></path><path d="M337.84210526315786,92.02402022756006h20.0526315789474v8.102402022755996h-20.0526315789474Z" style="fill: rgb(254, 224, 135);"></path><path d="M232.57894736842107,92.02402022756006h20.05263157894734v8.102402022755996h-20.05263157894734Z" style="fill: rgb(254, 224, 135);"></path><path d="M295.7368421052631,92.02402022756006h20.0526315789474v8.102402022755996h-20.0526315789474Z" style="fill: rgb(254, 224, 135);"></path><path d="M274.6842105263158,82.92161820480406h20.05263157894734v8.102402022755996h-20.05263157894734Z" style="fill: rgb(253, 144, 62);"></path><path d="M148.36842105263156,82.92161820480406h20.05263157894737v8.102402022755996h-20.05263157894737Z" style="fill: rgb(175, 2, 37);"></path><path d="M253.6315789473684,82.92161820480406h20.05263157894737v8.102402022755996h-20.05263157894737Z" style="fill: rgb(249, 82, 43);"></path><path d="M211.52631578947367,82.92161820480406h20.0526315789474v8.102402022755996h-20.0526315789474Z" style="fill: rgb(254, 189, 89);"></path><path d="M190.4736842105263,82.92161820480406h20.05263157894737v8.102402022755996h-20.05263157894737Z" style="fill: rgb(249, 82, 43);"></path><path d="M106.26315789473684,82.92161820480406h20.05263157894737v8.102402022755996h-20.05263157894737Z" style="fill: rgb(249, 82, 43);"></path><path d="M127.3157894736842,82.92161820480406h20.052631578947356v8.102402022755996h-20.052631578947356Z" style="fill: rgb(254, 189, 89);"></path><path d="M85.21052631578947,82.92161820480406h20.05263157894737v8.102402022755996h-20.05263157894737Z" style="fill: rgb(254, 189, 89);"></path><path d="M169.42105263157893,82.92161820480406h20.05263157894737v8.102402022755996h-20.05263157894737Z" style="fill: rgb(254, 224, 135);"></path><path d="M253.6315789473684,73.81921618204802h20.05263157894737v8.102402022756038h-20.05263157894737Z" style="fill: rgb(253, 144, 62);"></path><path d="M295.7368421052631,82.92161820480406h20.0526315789474v8.102402022755996h-20.0526315789474Z" style="fill: rgb(253, 144, 62);"></path><path d="M337.84210526315786,73.81921618204802h20.0526315789474v8.102402022756038h-20.0526315789474Z" style="fill: rgb(254, 224, 135);"></path><path d="M232.57894736842107,73.81921618204802h20.05263157894734v8.102402022756038h-20.05263157894734Z" style="fill: rgb(254, 224, 135);"></path><path d="M316.7894736842105,82.92161820480406h20.05263157894734v8.102402022755996h-20.05263157894734Z" style="fill: rgb(254, 224, 135);"></path><path d="M127.3157894736842,101.12642225031605h20.052631578947356v8.102402022755996h-20.052631578947356Z" style="fill: rgb(254, 224, 135);"></path><path d="M148.36842105263156,19.204804045512024h20.05263157894737v8.102402022755996h-20.05263157894737Z" style="fill: rgb(254, 189, 89);"></path><path d="M316.7894736842105,73.81921618204802h20.05263157894734v8.102402022756038h-20.05263157894734Z" style="fill: rgb(254, 224, 135);"></path><path d="M148.36842105263156,73.81921618204802h20.05263157894737v8.102402022756038h-20.05263157894737Z" style="fill: rgb(254, 224, 135);"></path><path d="M274.6842105263158,64.71681415929203h20.05263157894734v8.102402022755996h-20.05263157894734Z" style="fill: rgb(254, 189, 89);"></path><path d="M211.52631578947367,64.71681415929203h20.0526315789474v8.102402022755996h-20.0526315789474Z" style="fill: rgb(253, 144, 62);"></path><path d="M106.26315789473684,73.81921618204802h20.05263157894737v8.102402022756038h-20.05263157894737Z" style="fill: rgb(254, 189, 89);"></path><path d="M85.21052631578947,64.71681415929203h20.05263157894737v8.102402022755996h-20.05263157894737Z" style="fill: rgb(254, 224, 135);"></path><path d="M127.3157894736842,64.71681415929203h20.052631578947356v8.102402022755996h-20.052631578947356Z" style="fill: rgb(254, 224, 135);"></path><path d="M106.26315789473684,64.71681415929203h20.05263157894737v8.102402022755996h-20.05263157894737Z" style="fill: rgb(254, 189, 89);"></path><path d="M232.57894736842107,64.71681415929203h20.05263157894734v8.102402022755996h-20.05263157894734Z" style="fill: rgb(249, 82, 43);"></path><path d="M253.6315789473684,64.71681415929203h20.05263157894737v8.102402022755996h-20.05263157894737Z" style="fill: rgb(254, 224, 135);"></path><path d="M190.4736842105263,64.71681415929203h20.05263157894737v8.102402022755996h-20.05263157894737Z" style="fill: rgb(249, 82, 43);"></path><path d="M169.42105263157893,64.71681415929203h20.05263157894737v8.102402022755996h-20.05263157894737Z" style="fill: rgb(253, 144, 62);"></path><path d="M295.7368421052631,64.71681415929203h20.0526315789474v8.102402022755996h-20.0526315789474Z" style="fill: rgb(254, 189, 89);"></path><path d="M211.52631578947367,146.2591656131479h20.0526315789474v8.102402022756053h-20.0526315789474Z" style="fill: rgb(254, 224, 135);"></path><path d="M127.3157894736842,92.02402022756006h20.052631578947356v8.102402022755996h-20.052631578947356Z" style="fill: rgb(254, 224, 135);"></path><path d="M169.42105263157893,119.33122629582807h20.05263157894737v8.102402022755996h-20.05263157894737Z" style="fill: rgb(254, 224, 135);"></path><path d="M148.36842105263156,137.53603034134005h20.05263157894737v7.723135271807848h-20.05263157894737Z" style="fill: rgb(254, 224, 135);"></path><path d="M316.7894736842105,64.71681415929203h20.05263157894734v8.102402022755996h-20.05263157894734Z" style="fill: rgb(254, 224, 135);"></path><path d="M169.42105263157893,55.61441213653604h20.05263157894737v8.102402022755996h-20.05263157894737Z" style="fill: rgb(254, 224, 135);"></path><path d="M253.6315789473684,55.61441213653604h20.05263157894737v8.102402022755996h-20.05263157894737Z" style="fill: rgb(254, 224, 135);"></path><path d="M211.52631578947367,73.81921618204802h20.0526315789474v8.102402022756038h-20.0526315789474Z" style="fill: rgb(254, 224, 135);"></path><path d="M232.57894736842107,82.92161820480406h20.05263157894734v8.102402022755996h-20.05263157894734Z" style="fill: rgb(254, 224, 135);"></path><path d="M190.4736842105263,55.61441213653604h20.05263157894737v8.102402022755996h-20.05263157894737Z" style="fill: rgb(254, 189, 89);"></path><path d="M295.7368421052631,155.36156763590395h20.0526315789474v8.102402022755939h-20.0526315789474Z" style="fill: rgb(254, 224, 135);"></path><path d="M127.3157894736842,55.61441213653604h20.052631578947356v8.102402022755996h-20.052631578947356Z" style="fill: rgb(254, 224, 135);"></path><path d="M148.36842105263156,55.61441213653604h20.05263157894737v8.102402022755996h-20.05263157894737Z" style="fill: rgb(254, 224, 135);"></path><path d="M85.21052631578947,55.61441213653604h20.05263157894737v8.102402022755996h-20.05263157894737Z" style="fill: rgb(254, 224, 135);"></path><path d="M211.52631578947367,55.61441213653604h20.0526315789474v8.102402022755996h-20.0526315789474Z" style="fill: rgb(254, 224, 135);"></path><path d="M148.36842105263156,37.40960809102401h20.05263157894737v8.102402022755996h-20.05263157894737Z" style="fill: rgb(254, 224, 135);"></path><path d="M358.89473684210526,101.12642225031605h20.05263157894734v8.102402022755996h-20.05263157894734Z" style="fill: rgb(254, 224, 135);"></path><path d="M148.36842105263156,64.71681415929203h20.05263157894737v8.102402022755996h-20.05263157894737Z" style="fill: rgb(254, 224, 135);"></path><path d="M211.52631578947367,28.30720606826802h20.0526315789474v8.102402022755992h-20.0526315789474Z" style="fill: rgb(254, 189, 89);"></path><path d="M232.57894736842107,28.30720606826802h20.05263157894734v8.102402022755992h-20.05263157894734Z" style="fill: rgb(254, 224, 135);"></path><path d="M295.7368421052631,28.30720606826802h20.0526315789474v8.102402022755992h-20.0526315789474Z" style="fill: rgb(249, 82, 43);"></path><path d="M169.42105263157893,28.30720606826802h20.05263157894737v8.102402022755992h-20.05263157894737Z" style="fill: rgb(254, 224, 135);"></path><path d="M148.36842105263156,28.30720606826802h20.05263157894737v8.102402022755992h-20.05263157894737Z" style="fill: rgb(254, 189, 89);"></path><path d="M190.4736842105263,28.30720606826802h20.05263157894737v8.102402022755992h-20.05263157894737Z" style="fill: rgb(254, 224, 135);"></path><path d="M85.21052631578947,46.51201011378001h20.05263157894737v8.102402022756031h-20.05263157894737Z" style="fill: rgb(254, 224, 135);"></path><path d="M274.6842105263158,55.61441213653604h20.05263157894734v8.102402022755996h-20.05263157894734Z" style="fill: rgb(254, 224, 135);"></path><path d="M274.6842105263158,19.204804045512024h20.05263157894734v8.102402022755996h-20.05263157894734Z" style="fill: rgb(254, 224, 135);"></path><path d="M253.6315789473684,19.204804045512024h20.05263157894737v8.102402022755996h-20.05263157894737Z" style="fill: rgb(254, 224, 135);"></path><path d="M232.57894736842107,10.102402022755996h20.05263157894734v8.102402022756028h-20.05263157894734Z" style="fill: rgb(254, 224, 135);"></path><path d="M148.36842105263156,10.102402022755996h20.05263157894737v8.102402022756028h-20.05263157894737Z" style="fill: rgb(253, 144, 62);"></path><path d="M274.6842105263158,10.102402022755996h20.05263157894734v8.102402022756028h-20.05263157894734Z" style="fill: rgb(253, 144, 62);"></path><path d="M169.42105263157893,10.102402022755996h20.05263157894737v8.102402022756028h-20.05263157894737Z" style="fill: rgb(254, 224, 135);"></path><path d="M106.26315789473684,10.102402022755996h20.05263157894737v8.102402022756028h-20.05263157894737Z" style="fill: rgb(254, 224, 135);"></path><path d="M211.52631578947367,10.102402022755996h20.0526315789474v8.102402022756028h-20.0526315789474Z" style="fill: rgb(254, 224, 135);"></path><path d="M295.7368421052631,10.102402022755996h20.0526315789474v8.102402022756028h-20.0526315789474Z" style="fill: rgb(254, 189, 89);"></path><path d="M274.6842105263158,46.51201011378001h20.05263157894734v8.102402022756031h-20.05263157894734Z" style="fill: rgb(254, 224, 135);"></path><path d="M274.6842105263158,119.33122629582807h20.05263157894734v8.102402022755996h-20.05263157894734Z" style="fill: rgb(254, 224, 135);"></path><path d="M295.7368421052631,1h20.0526315789474v8.102402022755996h-20.0526315789474Z" style="fill: rgb(254, 224, 135);"></path><path d="M127.3157894736842,1h20.052631578947356v8.102402022755996h-20.052631578947356Z" style="fill: rgb(254, 224, 135);"></path><path d="M1,1h20.052631578947366v8.102402022755996h-20.052631578947366Z" style="fill: rgb(254, 224, 135);"></path><path d="M358.89473684210526,37.40960809102401h20.05263157894734v8.102402022755996h-20.05263157894734Z" style="fill: rgb(254, 224, 135);"></path><path d="M85.21052631578947,28.30720606826802h20.05263157894737v8.102402022755992h-20.05263157894737Z" style="fill: rgb(254, 224, 135);"></path><path d="M253.6315789473684,1h20.05263157894737v8.102402022755996h-20.05263157894737Z" style="fill: rgb(254, 224, 135);"></path><path d="M232.57894736842107,1h20.05263157894734v8.102402022755996h-20.05263157894734Z" style="fill: rgb(254, 224, 135);"></path><path d="M169.42105263157893,1h20.05263157894737v8.102402022755996h-20.05263157894737Z" style="fill: rgb(254, 224, 135);"></path><path d="M316.7894736842105,128.43362831858406h20.05263157894734v8.102402022755996h-20.05263157894734Z" style="fill: rgb(254, 224, 135);"></path><path d="M106.26315789473684,28.30720606826802h20.05263157894737v8.102402022755992h-20.05263157894737Z" style="fill: rgb(254, 224, 135);"></path></g><g class="mark-group role-legend"><g transform="translate(418,0)"><path class="background" d="M0,0h87v216h-87Z" style="pointer-events: none; fill: none;"></path><g><g class="mark-group role-legend-entry"><g transform="translate(0,16)"><path class="background" d="M0,0h0v0h0Z" style="pointer-events: none; fill: none;"></path><g><g class="mark-rect role-legend-gradient" style="pointer-events: none;"><path d="M0,0h16v200h-16Z" style="fill: url(#gradient_1); stroke: #ddd; stroke-width: 0; opacity: 1;"></path></g><g class="mark-text role-legend-label" style="pointer-events: none;"><text text-anchor="start" transform="translate(18,198)" style="font-family: sans-serif; font-size: 10px; fill: #000; opacity: 1;">1</text><text text-anchor="start" transform="translate(18,163)" style="font-family: sans-serif; font-size: 10px; fill: #000; opacity: 1;">2</text><text text-anchor="start" transform="translate(18,123)" style="font-family: sans-serif; font-size: 10px; fill: #000; opacity: 1;">3</text><text text-anchor="start" transform="translate(18,83)" style="font-family: sans-serif; font-size: 10px; fill: #000; opacity: 1;">4</text><text text-anchor="start" transform="translate(18,42.99999999999999)" style="font-family: sans-serif; font-size: 10px; fill: #000; opacity: 1;">5</text><text text-anchor="start" transform="translate(18,8)" style="font-family: sans-serif; font-size: 10px; fill: #000; opacity: 1;">6</text></g></g><path class="foreground" d="" style="pointer-events: none; display: none; fill: none;"></path></g></g><g class="mark-text role-legend-title" style="pointer-events: none;"><text text-anchor="start" transform="translate(0,9)" style="font-family: sans-serif; font-size: 11px; font-weight: bold; fill: #000; opacity: 1;">Number Infected</text></g></g><path class="foreground" d="" style="pointer-events: none; display: none; fill: none;"></path></g></g><g class="mark-group role-title"><g transform="translate(200,-17)"><path class="background" d="M0,0h0v0h0Z" style="pointer-events: none; fill: none;"></path><g><g class="mark-text role-title-text" style="pointer-events: none;"><text text-anchor="middle" transform="translate(0,10)" style="font-family: sans-serif; font-size: 13px; font-weight: bold; fill: #000; opacity: 1;">Infections by Age and Date of Notification / Porto Alegre/RS/Brazil</text></g></g><path class="foreground" d="" style="pointer-events: none; display: none; fill: none;"></path></g></g></g><path class="foreground" d="" style="display: none; fill: none;"></path></g></g></g></svg>