<svg class="marks" width="997" height="599" viewBox="0 0 997 599" version="1.1" xmlns="http://www.w3.org/2000/svg" xmlns:xlink="http://www.w3.org/1999/xlink"><rect width="997" height="599" fill="white"></rect><g fill="none" stroke-miterlimit="10" transform="translate(179,22)"><g class="mark-group role-frame root" role="graphics-object" aria-roledescription="group mark container"><g transform="translate(0,0)"><path class="background" aria-hidden="true" d="M0.5,0.5h700v540h-700Z"></path><g><g class="mark-group role-axis" aria-hidden="true"><g transform="translate(0.5,0.5)"><path class="background" aria-hidden="true" d="M0,0h0v0h0Z" pointer-events="none"></path><g><g class="mark-rule role-axis-grid" pointer-events="none"><line transform="translate(0,10)" x2="700" y2="0" stroke="#ddd" stroke-width="1" opacity="1"></line><line transform="translate(0,30)" x2="700" y2="0" stroke="#ddd" stroke-width="1" opacity="1"></line><line transform="translate(0,50)" x2="700" y2="0" stroke="#ddd" stroke-width="1" opacity="1"></line><line transform="translate(0,70)" x2="700" y2="0" stroke="#ddd" stroke-width="1" opacity="1"></line><line transform="translate(0,90)" x2="700" y2="0" stroke="#ddd" stroke-width="1" opacity="1"></line><line transform="translate(0,110)" x2="700" y2="0" stroke="#ddd" stroke-width="1" opacity="1"></line><line transform="translate(0,130)" x2="700" y2="0" stroke="#ddd" stroke-width="1" opacity="1"></line><line transform="translate(0,150)" x2="700" y2="0" stroke="#ddd" stroke-width="1" opacity="1"></line><line transform="translate(0,170)" x2="700" y2="0" stroke="#ddd" stroke-width="1" opacity="1"></line><line transform="translate(0,190)" x2="700" y2="0" stroke="#ddd" stroke-width="1" opacity="1"></line><line transform="translate(0,210)" x2="700" y2="0" stroke="#ddd" stroke-width="1" opacity="1"></line><line transform="translate(0,230)" x2="700" y2="0" stroke="#ddd" stroke-width="1" opacity="1"></line><line transform="translate(0,250)" x2="700" y2="0" stroke="#ddd" stroke-width="1" opacity="1"></line><line transform="translate(0,270)" x2="700" y2="0" stroke="#ddd" stroke-width="1" opacity="1"></line><line transform="translate(0,290)" x2="700" y2="0" stroke="#ddd" stroke-width="1" opacity="1"></line><line transform="translate(0,310)" x2="700" y2="0" stroke="#ddd" stroke-width="1" opacity="1"></line><line transform="translate(0,330)" x2="700" y2="0" stroke="#ddd" stroke-width="1" opacity="1"></line><line transform="translate(0,350)" x2="700" y2="0" stroke="#ddd" stroke-width="1" opacity="1"></line><line transform="translate(0,370)" x2="700" y2="0" stroke="#ddd" stroke-width="1" opacity="1"></line><line transform="translate(0,390)" x2="700" y2="0" stroke="#ddd" stroke-width="1" opacity="1"></line><line transform="translate(0,410)" x2="700" y2="0" stroke="#ddd" stroke-width="1" opacity="1"></line><line transform="translate(0,430)" x2="700" y2="0" stroke="#ddd" stroke-width="1" opacity="1"></line><line transform="translate(0,450)" x2="700" y2="0" stroke="#ddd" stroke-width="1" opacity="1"></line><line transform="translate(0,470)" x2="700" y2="0" stroke="#ddd" stroke-width="1" opacity="1"></line><line transform="translate(0,490)" x2="700" y2="0" stroke="#ddd" stroke-width="1" opacity="1"></line><line transform="translate(0,510)" x2="700" y2="0" stroke="#ddd" stroke-width="1" opacity="1"></line><line transform="translate(0,530)" x2="700" y2="0" stroke="#ddd" stroke-width="1" opacity="1"></line></g></g><path class="foreground" aria-hidden="true" d="" pointer-events="none" display="none"></path></g></g><g class="mark-group role-axis" role="graphics-symbol" aria-roledescription="axis" aria-label="X-axis titled 'Weighted percentage w/ COVID-like illness, CI 0.95' for a linear scale with values from -2 to 18"><g transform="translate(0.5,540.5)"><path class="background" aria-hidden="true" d="M0,0h0v0h0Z" pointer-events="none"></path><g><g class="mark-rule role-axis-tick" pointer-events="none"><line transform="translate(0,0)" x2="0" y2="5" stroke="#888" stroke-width="1" opacity="1"></line><line transform="translate(35,0)" x2="0" y2="5" stroke="#888" stroke-width="1" opacity="1"></line><line transform="translate(70,0)" x2="0" y2="5" stroke="#888" stroke-width="1" opacity="1"></line><line transform="translate(105,0)" x2="0" y2="5" stroke="#888" stroke-width="1" opacity="1"></line><line transform="translate(140,0)" x2="0" y2="5" stroke="#888" stroke-width="1" opacity="1"></line><line transform="translate(175,0)" x2="0" y2="5" stroke="#888" stroke-width="1" opacity="1"></line><line transform="translate(210,0)" x2="0" y2="5" stroke="#888" stroke-width="1" opacity="1"></line><line transform="translate(245,0)" x2="0" y2="5" stroke="#888" stroke-width="1" opacity="1"></line><line transform="translate(280,0)" x2="0" y2="5" stroke="#888" stroke-width="1" opacity="1"></line><line transform="translate(315,0)" x2="0" y2="5" stroke="#888" stroke-width="1" opacity="1"></line><line transform="translate(350,0)" x2="0" y2="5" stroke="#888" stroke-width="1" opacity="1"></line><line transform="translate(385,0)" x2="0" y2="5" stroke="#888" stroke-width="1" opacity="1"></line><line transform="translate(420,0)" x2="0" y2="5" stroke="#888" stroke-width="1" opacity="1"></line><line transform="translate(455,0)" x2="0" y2="5" stroke="#888" stroke-width="1" opacity="1"></line><line transform="translate(490,0)" x2="0" y2="5" stroke="#888" stroke-width="1" opacity="1"></line><line transform="translate(525,0)" x2="0" y2="5" stroke="#888" stroke-width="1" opacity="1"></line><line transform="translate(560,0)" x2="0" y2="5" stroke="#888" stroke-width="1" opacity="1"></line><line transform="translate(595,0)" x2="0" y2="5" stroke="#888" stroke-width="1" opacity="1"></line><line transform="translate(630,0)" x2="0" y2="5" stroke="#888" stroke-width="1" opacity="1"></line><line transform="translate(665,0)" x2="0" y2="5" stroke="#888" stroke-width="1" opacity="1"></line><line transform="translate(700,0)" x2="0" y2="5" stroke="#888" stroke-width="1" opacity="1"></line></g><g class="mark-text role-axis-label" pointer-events="none"><text text-anchor="start" transform="translate(0,15)" font-family="sans-serif" font-size="10px" fill="#000" opacity="1">-2</text><text text-anchor="middle" transform="translate(35,15)" font-family="sans-serif" font-size="10px" fill="#000" opacity="1">-1</text><text text-anchor="middle" transform="translate(70,15)" font-family="sans-serif" font-size="10px" fill="#000" opacity="1">0</text><text text-anchor="middle" transform="translate(105,15)" font-family="sans-serif" font-size="10px" fill="#000" opacity="1">1</text><text text-anchor="middle" transform="translate(140,15)" font-family="sans-serif" font-size="10px" fill="#000" opacity="1">2</text><text text-anchor="middle" transform="translate(175,15)" font-family="sans-serif" font-size="10px" fill="#000" opacity="1">3</text><text text-anchor="middle" transform="translate(210,15)" font-family="sans-serif" font-size="10px" fill="#000" opacity="1">4</text><text text-anchor="middle" transform="translate(244.99999999999997,15)" font-family="sans-serif" font-size="10px" fill="#000" opacity="1">5</text><text text-anchor="middle" transform="translate(280,15)" font-family="sans-serif" font-size="10px" fill="#000" opacity="1">6</text><text text-anchor="middle" transform="translate(315,15)" font-family="sans-serif" font-size="10px" fill="#000" opacity="1">7</text><text text-anchor="middle" transform="translate(350,15)" font-family="sans-serif" font-size="10px" fill="#000" opacity="1">8</text><text text-anchor="middle" transform="translate(385.00000000000006,15)" font-family="sans-serif" font-size="10px" fill="#000" opacity="1">9</text><text text-anchor="middle" transform="translate(420,15)" font-family="sans-serif" font-size="10px" fill="#000" opacity="1">10</text><text text-anchor="middle" transform="translate(455,15)" font-family="sans-serif" font-size="10px" fill="#000" opacity="1">11</text><text text-anchor="middle" transform="translate(489.99999999999994,15)" font-family="sans-serif" font-size="10px" fill="#000" opacity="1">12</text><text text-anchor="middle" transform="translate(525,15)" font-family="sans-serif" font-size="10px" fill="#000" opacity="1">13</text><text text-anchor="middle" transform="translate(560,15)" font-family="sans-serif" font-size="10px" fill="#000" opacity="1">14</text><text text-anchor="middle" transform="translate(595,15)" font-family="sans-serif" font-size="10px" fill="#000" opacity="1">15</text><text text-anchor="middle" transform="translate(630,15)" font-family="sans-serif" font-size="10px" fill="#000" opacity="1">16</text><text text-anchor="middle" transform="translate(665,15)" font-family="sans-serif" font-size="10px" fill="#000" opacity="1">17</text><text text-anchor="end" transform="translate(700,15)" font-family="sans-serif" font-size="10px" fill="#000" opacity="1">18</text></g><g class="mark-rule role-axis-domain" pointer-events="none"><line transform="translate(0,0)" x2="700" y2="0" stroke="#888" stroke-width="1" opacity="1"></line></g><g class="mark-text role-axis-title" pointer-events="none"><text text-anchor="middle" transform="translate(350,30)" font-family="sans-serif" font-size="11px" font-weight="bold" fill="#000" opacity="1">Weighted percentage w/ COVID-like illness, CI 0.95</text></g></g><path class="foreground" aria-hidden="true" d="" pointer-events="none" display="none"></path></g></g><g class="mark-group role-axis" role="graphics-symbol" aria-roledescription="axis" aria-label="Y-axis titled 'States' for a discrete scale with 27 values: Acre, Alagoas, Amapá, Amazonas, Bahia, ending with Tocantins"><g transform="translate(0.5,0.5)"><path class="background" aria-hidden="true" d="M0,0h0v0h0Z" pointer-events="none"></path><g><g class="mark-rule role-axis-tick" pointer-events="none"><line transform="translate(0,10)" x2="-5" y2="0" stroke="#888" stroke-width="1" opacity="1"></line><line transform="translate(0,30)" x2="-5" y2="0" stroke="#888" stroke-width="1" opacity="1"></line><line transform="translate(0,50)" x2="-5" y2="0" stroke="#888" stroke-width="1" opacity="1"></line><line transform="translate(0,70)" x2="-5" y2="0" stroke="#888" stroke-width="1" opacity="1"></line><line transform="translate(0,90)" x2="-5" y2="0" stroke="#888" stroke-width="1" opacity="1"></line><line transform="translate(0,110)" x2="-5" y2="0" stroke="#888" stroke-width="1" opacity="1"></line><line transform="translate(0,130)" x2="-5" y2="0" stroke="#888" stroke-width="1" opacity="1"></line><line transform="translate(0,150)" x2="-5" y2="0" stroke="#888" stroke-width="1" opacity="1"></line><line transform="translate(0,170)" x2="-5" y2="0" stroke="#888" stroke-width="1" opacity="1"></line><line transform="translate(0,190)" x2="-5" y2="0" stroke="#888" stroke-width="1" opacity="1"></line><line transform="translate(0,210)" x2="-5" y2="0" stroke="#888" stroke-width="1" opacity="1"></line><line transform="translate(0,230)" x2="-5" y2="0" stroke="#888" stroke-width="1" opacity="1"></line><line transform="translate(0,250)" x2="-5" y2="0" stroke="#888" stroke-width="1" opacity="1"></line><line transform="translate(0,270)" x2="-5" y2="0" stroke="#888" stroke-width="1" opacity="1"></line><line transform="translate(0,290)" x2="-5" y2="0" stroke="#888" stroke-width="1" opacity="1"></line><line transform="translate(0,310)" x2="-5" y2="0" stroke="#888" stroke-width="1" opacity="1"></line><line transform="translate(0,330)" x2="-5" y2="0" stroke="#888" stroke-width="1" opacity="1"></line><line transform="translate(0,350)" x2="-5" y2="0" stroke="#888" stroke-width="1" opacity="1"></line><line transform="translate(0,370)" x2="-5" y2="0" stroke="#888" stroke-width="1" opacity="1"></line><line transform="translate(0,390)" x2="-5" y2="0" stroke="#888" stroke-width="1" opacity="1"></line><line transform="translate(0,410)" x2="-5" y2="0" stroke="#888" stroke-width="1" opacity="1"></line><line transform="translate(0,430)" x2="-5" y2="0" stroke="#888" stroke-width="1" opacity="1"></line><line transform="translate(0,450)" x2="-5" y2="0" stroke="#888" stroke-width="1" opacity="1"></line><line transform="translate(0,470)" x2="-5" y2="0" stroke="#888" stroke-width="1" opacity="1"></line><line transform="translate(0,490)" x2="-5" y2="0" stroke="#888" stroke-width="1" opacity="1"></line><line transform="translate(0,510)" x2="-5" y2="0" stroke="#888" stroke-width="1" opacity="1"></line><line transform="translate(0,530)" x2="-5" y2="0" stroke="#888" stroke-width="1" opacity="1"></line></g><g class="mark-text role-axis-label" pointer-events="none"><text text-anchor="end" transform="translate(-7,12.5)" font-family="sans-serif" font-size="10px" fill="#000" opacity="1">Acre</text><text text-anchor="end" transform="translate(-7,32.5)" font-family="sans-serif" font-size="10px" fill="#000" opacity="1">Alagoas</text><text text-anchor="end" transform="translate(-7,52.5)" font-family="sans-serif" font-size="10px" fill="#000" opacity="1">Amapá</text><text text-anchor="end" transform="translate(-7,72.5)" font-family="sans-serif" font-size="10px" fill="#000" opacity="1">Amazonas</text><text text-anchor="end" transform="translate(-7,92.5)" font-family="sans-serif" font-size="10px" fill="#000" opacity="1">Bahia</text><text text-anchor="end" transform="translate(-7,112.5)" font-family="sans-serif" font-size="10px" fill="#000" opacity="1">Ceará</text><text text-anchor="end" transform="translate(-7,132.5)" font-family="sans-serif" font-size="10px" fill="#000" opacity="1">Distrito Federal</text><text text-anchor="end" transform="translate(-7,152.5)" font-family="sans-serif" font-size="10px" fill="#000" opacity="1">Espírito Santo</text><text text-anchor="end" transform="translate(-7,172.5)" font-family="sans-serif" font-size="10px" fill="#000" opacity="1">Goiás</text><text text-anchor="end" transform="translate(-7,192.5)" font-family="sans-serif" font-size="10px" fill="#000" opacity="1">Maranhão</text><text text-anchor="end" transform="translate(-7,212.5)" font-family="sans-serif" font-size="10px" fill="#000" opacity="1">Mato Grosso</text><text text-anchor="end" transform="translate(-7,232.5)" font-family="sans-serif" font-size="10px" fill="#000" opacity="1">Mato Grosso do Sul</text><text text-anchor="end" transform="translate(-7,252.5)" font-family="sans-serif" font-size="10px" fill="#000" opacity="1">Minas Gerais</text><text text-anchor="end" transform="translate(-7,272.5)" font-family="sans-serif" font-size="10px" fill="#000" opacity="1">Paraná</text><text text-anchor="end" transform="translate(-7,292.5)" font-family="sans-serif" font-size="10px" fill="#000" opacity="1">Paraíba</text><text text-anchor="end" transform="translate(-7,312.5)" font-family="sans-serif" font-size="10px" fill="#000" opacity="1">Pará</text><text text-anchor="end" transform="translate(-7,332.5)" font-family="sans-serif" font-size="10px" fill="#000" opacity="1">Pernambuco</text><text text-anchor="end" transform="translate(-7,352.5)" font-family="sans-serif" font-size="10px" fill="#000" opacity="1">Piauí</text><text text-anchor="end" transform="translate(-7,372.5)" font-family="sans-serif" font-size="10px" fill="#000" opacity="1">Rio Grande do Norte</text><text text-anchor="end" transform="translate(-7,392.5)" font-family="sans-serif" font-size="10px" fill="#000" opacity="1">Rio Grande do Sul</text><text text-anchor="end" transform="translate(-7,412.5)" font-family="sans-serif" font-size="10px" fill="#000" opacity="1">Rio de Janeiro</text><text text-anchor="end" transform="translate(-7,432.5)" font-family="sans-serif" font-size="10px" fill="#000" opacity="1">Rondônia</text><text text-anchor="end" transform="translate(-7,452.5)" font-family="sans-serif" font-size="10px" fill="#000" opacity="1">Roraima</text><text text-anchor="end" transform="translate(-7,472.5)" font-family="sans-serif" font-size="10px" fill="#000" opacity="1">Santa Catarina</text><text text-anchor="end" transform="translate(-7,492.5)" font-family="sans-serif" font-size="10px" fill="#000" opacity="1">Sergipe</text><text text-anchor="end" transform="translate(-7,512.5)" font-family="sans-serif" font-size="10px" fill="#000" opacity="1">São Paulo</text><text text-anchor="end" transform="translate(-7,532.5)" font-family="sans-serif" font-size="10px" fill="#000" opacity="1">Tocantins</text></g><g class="mark-rule role-axis-domain" pointer-events="none"><line transform="translate(0,0)" x2="0" y2="540" stroke="#888" stroke-width="1" opacity="1"></line></g><g class="mark-text role-axis-title" pointer-events="none"><text text-anchor="middle" transform="translate(-163,270) rotate(-90) translate(0,-2)" font-family="sans-serif" font-size="11px" font-weight="bold" fill="#000" opacity="1">States</text></g></g><path class="foreground" aria-hidden="true" d="" pointer-events="none" display="none"></path></g></g><g class="mark-symbol role-mark layer_0_marks" role="graphics-object" aria-roledescription="symbol mark container"><path aria-label="Weighted percentage w/ COVID-like illness: 9.6705; States: Acre" role="graphics-symbol" aria-roledescription="point" transform="translate(408.46750000000003,10)" d="M2.7386127875258306,0A2.7386127875258306,2.7386127875258306,0,1,1,-2.7386127875258306,0A2.7386127875258306,2.7386127875258306,0,1,1,2.7386127875258306,0" stroke="#4c78a8" stroke-width="2" opacity="0.7"></path><path aria-label="Weighted percentage w/ COVID-like illness: 7.1727; States: Roraima" role="graphics-symbol" aria-roledescription="point" transform="translate(321.04449999999997,450)" d="M2.7386127875258306,0A2.7386127875258306,2.7386127875258306,0,1,1,-2.7386127875258306,0A2.7386127875258306,2.7386127875258306,0,1,1,2.7386127875258306,0" stroke="#4c78a8" stroke-width="2" opacity="0.7"></path><path aria-label="Weighted percentage w/ COVID-like illness: 6.1632; States: Tocantins" role="graphics-symbol" aria-roledescription="point" transform="translate(285.712,530)" d="M2.7386127875258306,0A2.7386127875258306,2.7386127875258306,0,1,1,-2.7386127875258306,0A2.7386127875258306,2.7386127875258306,0,1,1,2.7386127875258306,0" stroke="#4c78a8" stroke-width="2" opacity="0.7"></path><path aria-label="Weighted percentage w/ COVID-like illness: 4.8591; States: Pernambuco" role="graphics-symbol" aria-roledescription="point" transform="translate(240.0685,330)" d="M2.7386127875258306,0A2.7386127875258306,2.7386127875258306,0,1,1,-2.7386127875258306,0A2.7386127875258306,2.7386127875258306,0,1,1,2.7386127875258306,0" stroke="#4c78a8" stroke-width="2" opacity="0.7"></path><path aria-label="Weighted percentage w/ COVID-like illness: 4.5563; States: Amapá" role="graphics-symbol" aria-roledescription="point" transform="translate(229.47050000000002,50)" d="M2.7386127875258306,0A2.7386127875258306,2.7386127875258306,0,1,1,-2.7386127875258306,0A2.7386127875258306,2.7386127875258306,0,1,1,2.7386127875258306,0" stroke="#4c78a8" stroke-width="2" opacity="0.7"></path><path aria-label="Weighted percentage w/ COVID-like illness: 4.0071; States: Espírito Santo" role="graphics-symbol" aria-roledescription="point" transform="translate(210.24850000000004,150)" d="M2.7386127875258306,0A2.7386127875258306,2.7386127875258306,0,1,1,-2.7386127875258306,0A2.7386127875258306,2.7386127875258306,0,1,1,2.7386127875258306,0" stroke="#4c78a8" stroke-width="2" opacity="0.7"></path><path aria-label="Weighted percentage w/ COVID-like illness: 3.4084; States: Pará" role="graphics-symbol" aria-roledescription="point" transform="translate(189.29399999999998,310)" d="M2.7386127875258306,0A2.7386127875258306,2.7386127875258306,0,1,1,-2.7386127875258306,0A2.7386127875258306,2.7386127875258306,0,1,1,2.7386127875258306,0" stroke="#4c78a8" stroke-width="2" opacity="0.7"></path><path aria-label="Weighted percentage w/ COVID-like illness: 3.3982; States: Maranhão" role="graphics-symbol" aria-roledescription="point" transform="translate(188.93699999999998,190)" d="M2.7386127875258306,0A2.7386127875258306,2.7386127875258306,0,1,1,-2.7386127875258306,0A2.7386127875258306,2.7386127875258306,0,1,1,2.7386127875258306,0" stroke="#4c78a8" stroke-width="2" opacity="0.7"></path><path aria-label="Weighted percentage w/ COVID-like illness: 3.3348; States: Amazonas" role="graphics-symbol" aria-roledescription="point" transform="translate(186.71800000000002,70)" d="M2.7386127875258306,0A2.7386127875258306,2.7386127875258306,0,1,1,-2.7386127875258306,0A2.7386127875258306,2.7386127875258306,0,1,1,2.7386127875258306,0" stroke="#4c78a8" stroke-width="2" opacity="0.7"></path><path aria-label="Weighted percentage w/ COVID-like illness: 3.2599; States: Goiás" role="graphics-symbol" aria-roledescription="point" transform="translate(184.0965,170)" d="M2.7386127875258306,0A2.7386127875258306,2.7386127875258306,0,1,1,-2.7386127875258306,0A2.7386127875258306,2.7386127875258306,0,1,1,2.7386127875258306,0" stroke="#4c78a8" stroke-width="2" opacity="0.7"></path><path aria-label="Weighted percentage w/ COVID-like illness: 3.1614; States: Sergipe" role="graphics-symbol" aria-roledescription="point" transform="translate(180.649,490)" d="M2.7386127875258306,0A2.7386127875258306,2.7386127875258306,0,1,1,-2.7386127875258306,0A2.7386127875258306,2.7386127875258306,0,1,1,2.7386127875258306,0" stroke="#4c78a8" stroke-width="2" opacity="0.7"></path><path aria-label="Weighted percentage w/ COVID-like illness: 2.5108; States: Rio Grande do Norte" role="graphics-symbol" aria-roledescription="point" transform="translate(157.878,370)" d="M2.7386127875258306,0A2.7386127875258306,2.7386127875258306,0,1,1,-2.7386127875258306,0A2.7386127875258306,2.7386127875258306,0,1,1,2.7386127875258306,0" stroke="#4c78a8" stroke-width="2" opacity="0.7"></path><path aria-label="Weighted percentage w/ COVID-like illness: 2.3966; States: Rio de Janeiro" role="graphics-symbol" aria-roledescription="point" transform="translate(153.88100000000003,410)" d="M2.7386127875258306,0A2.7386127875258306,2.7386127875258306,0,1,1,-2.7386127875258306,0A2.7386127875258306,2.7386127875258306,0,1,1,2.7386127875258306,0" stroke="#4c78a8" stroke-width="2" opacity="0.7"></path><path aria-label="Weighted percentage w/ COVID-like illness: 2.2815; States: Rondônia" role="graphics-symbol" aria-roledescription="point" transform="translate(149.85249999999996,430)" d="M2.7386127875258306,0A2.7386127875258306,2.7386127875258306,0,1,1,-2.7386127875258306,0A2.7386127875258306,2.7386127875258306,0,1,1,2.7386127875258306,0" stroke="#4c78a8" stroke-width="2" opacity="0.7"></path><path aria-label="Weighted percentage w/ COVID-like illness: 1.7221; States: Paraíba" role="graphics-symbol" aria-roledescription="point" transform="translate(130.2735,290)" d="M2.7386127875258306,0A2.7386127875258306,2.7386127875258306,0,1,1,-2.7386127875258306,0A2.7386127875258306,2.7386127875258306,0,1,1,2.7386127875258306,0" stroke="#4c78a8" stroke-width="2" opacity="0.7"></path><path aria-label="Weighted percentage w/ COVID-like illness: 1.6361; States: Alagoas" role="graphics-symbol" aria-roledescription="point" transform="translate(127.2635,30)" d="M2.7386127875258306,0A2.7386127875258306,2.7386127875258306,0,1,1,-2.7386127875258306,0A2.7386127875258306,2.7386127875258306,0,1,1,2.7386127875258306,0" stroke="#4c78a8" stroke-width="2" opacity="0.7"></path><path aria-label="Weighted percentage w/ COVID-like illness: 1.4966; States: Mato Grosso" role="graphics-symbol" aria-roledescription="point" transform="translate(122.38099999999999,210)" d="M2.7386127875258306,0A2.7386127875258306,2.7386127875258306,0,1,1,-2.7386127875258306,0A2.7386127875258306,2.7386127875258306,0,1,1,2.7386127875258306,0" stroke="#4c78a8" stroke-width="2" opacity="0.7"></path><path aria-label="Weighted percentage w/ COVID-like illness: 1.4829; States: Piauí" role="graphics-symbol" aria-roledescription="point" transform="translate(121.9015,350)" d="M2.7386127875258306,0A2.7386127875258306,2.7386127875258306,0,1,1,-2.7386127875258306,0A2.7386127875258306,2.7386127875258306,0,1,1,2.7386127875258306,0" stroke="#4c78a8" stroke-width="2" opacity="0.7"></path><path aria-label="Weighted percentage w/ COVID-like illness: 1.437; States: Distrito Federal" role="graphics-symbol" aria-roledescription="point" transform="translate(120.295,130)" d="M2.7386127875258306,0A2.7386127875258306,2.7386127875258306,0,1,1,-2.7386127875258306,0A2.7386127875258306,2.7386127875258306,0,1,1,2.7386127875258306,0" stroke="#4c78a8" stroke-width="2" opacity="0.7"></path><path aria-label="Weighted percentage w/ COVID-like illness: 1.4241; States: Ceará" role="graphics-symbol" aria-roledescription="point" transform="translate(119.84349999999999,110)" d="M2.7386127875258306,0A2.7386127875258306,2.7386127875258306,0,1,1,-2.7386127875258306,0A2.7386127875258306,2.7386127875258306,0,1,1,2.7386127875258306,0" stroke="#4c78a8" stroke-width="2" opacity="0.7"></path><path aria-label="Weighted percentage w/ COVID-like illness: 1.307; States: Rio Grande do Sul" role="graphics-symbol" aria-roledescription="point" transform="translate(115.745,390)" d="M2.7386127875258306,0A2.7386127875258306,2.7386127875258306,0,1,1,-2.7386127875258306,0A2.7386127875258306,2.7386127875258306,0,1,1,2.7386127875258306,0" stroke="#4c78a8" stroke-width="2" opacity="0.7"></path><path aria-label="Weighted percentage w/ COVID-like illness: 1.1934; States: Minas Gerais" role="graphics-symbol" aria-roledescription="point" transform="translate(111.769,250)" d="M2.7386127875258306,0A2.7386127875258306,2.7386127875258306,0,1,1,-2.7386127875258306,0A2.7386127875258306,2.7386127875258306,0,1,1,2.7386127875258306,0" stroke="#4c78a8" stroke-width="2" opacity="0.7"></path><path aria-label="Weighted percentage w/ COVID-like illness: 1.15; States: Santa Catarina" role="graphics-symbol" aria-roledescription="point" transform="translate(110.25,470)" d="M2.7386127875258306,0A2.7386127875258306,2.7386127875258306,0,1,1,-2.7386127875258306,0A2.7386127875258306,2.7386127875258306,0,1,1,2.7386127875258306,0" stroke="#4c78a8" stroke-width="2" opacity="0.7"></path><path aria-label="Weighted percentage w/ COVID-like illness: 0.9814; States: São Paulo" role="graphics-symbol" aria-roledescription="point" transform="translate(104.34899999999999,510)" d="M2.7386127875258306,0A2.7386127875258306,2.7386127875258306,0,1,1,-2.7386127875258306,0A2.7386127875258306,2.7386127875258306,0,1,1,2.7386127875258306,0" stroke="#4c78a8" stroke-width="2" opacity="0.7"></path><path aria-label="Weighted percentage w/ COVID-like illness: 0.5655; States: Paraná" role="graphics-symbol" aria-roledescription="point" transform="translate(89.7925,270)" d="M2.7386127875258306,0A2.7386127875258306,2.7386127875258306,0,1,1,-2.7386127875258306,0A2.7386127875258306,2.7386127875258306,0,1,1,2.7386127875258306,0" stroke="#4c78a8" stroke-width="2" opacity="0.7"></path><path aria-label="Weighted percentage w/ COVID-like illness: 0.2058; States: Bahia" role="graphics-symbol" aria-roledescription="point" transform="translate(77.203,90)" d="M2.7386127875258306,0A2.7386127875258306,2.7386127875258306,0,1,1,-2.7386127875258306,0A2.7386127875258306,2.7386127875258306,0,1,1,2.7386127875258306,0" stroke="#4c78a8" stroke-width="2" opacity="0.7"></path><path aria-label="Weighted percentage w/ COVID-like illness: 0; States: Mato Grosso do Sul" role="graphics-symbol" aria-roledescription="point" transform="translate(70,230)" d="M2.7386127875258306,0A2.7386127875258306,2.7386127875258306,0,1,1,-2.7386127875258306,0A2.7386127875258306,2.7386127875258306,0,1,1,2.7386127875258306,0" stroke="#4c78a8" stroke-width="2" opacity="0.7"></path></g><g class="mark-rule role-mark layer_1_marks" role="graphics-object" aria-roledescription="rule mark container"><line aria-label="CI 0.95: 1.971228; upper_percent_cli_lower: 17.369772; region: Acre; percent_cli_upper: 17.369772; percent_cli_lower: 1.971228" role="graphics-symbol" aria-roledescription="errorbar" transform="translate(138.99298000000005,10)" x2="538.94904" y2="0" stroke="blue" stroke-width="0.6"></line><line aria-label="CI 0.95: 1.198424; upper_percent_cli_lower: 13.146976; region: Roraima; percent_cli_upper: 13.146976; percent_cli_lower: 1.198424" role="graphics-symbol" aria-roledescription="errorbar" transform="translate(111.94484000000001,450)" x2="418.19931999999994" y2="0" stroke="blue" stroke-width="0.6"></line><line aria-label="CI 0.95: 0.88884; upper_percent_cli_lower: 11.43756; region: Tocantins; percent_cli_upper: 11.43756; percent_cli_lower: 0.88884" role="graphics-symbol" aria-roledescription="errorbar" transform="translate(101.1094,530)" x2="369.2052" y2="0" stroke="blue" stroke-width="0.6"></line><line aria-label="CI 0.95: 0.909112; upper_percent_cli_lower: 8.809088; region: Pernambuco; percent_cli_upper: 8.809088; percent_cli_lower: 0.909112" role="graphics-symbol" aria-roledescription="errorbar" transform="translate(101.81892000000002,330)" x2="276.49915999999996" y2="0" stroke="blue" stroke-width="0.6"></line><line aria-label="CI 0.95: -0.21042; upper_percent_cli_lower: 9.32302; region: Amapá; percent_cli_upper: 9.32302; percent_cli_lower: -0.21042" role="graphics-symbol" aria-roledescription="errorbar" transform="translate(62.6353,50)" x2="333.6704" y2="0" stroke="blue" stroke-width="0.6"></line><line aria-label="CI 0.95: 0.239588; upper_percent_cli_lower: 7.774612; region: Espírito Santo; percent_cli_upper: 7.774612; percent_cli_lower: 0.239588" role="graphics-symbol" aria-roledescription="errorbar" transform="translate(78.38558000000002,150)" x2="263.72584000000006" y2="0" stroke="blue" stroke-width="0.6"></line><line aria-label="CI 0.95: -0.032576; upper_percent_cli_lower: 6.849376; region: Pará; percent_cli_upper: 6.849376; percent_cli_lower: -0.032576" role="graphics-symbol" aria-roledescription="errorbar" transform="translate(68.85984000000002,310)" x2="240.86831999999998" y2="0" stroke="blue" stroke-width="0.6"></line><line aria-label="CI 0.95: -0.559628; upper_percent_cli_lower: 7.356028; region: Maranhão; percent_cli_upper: 7.356028; percent_cli_lower: -0.559628" role="graphics-symbol" aria-roledescription="errorbar" transform="translate(50.41301999999999,190)" x2="277.04796" y2="0" stroke="blue" stroke-width="0.6"></line><line aria-label="CI 0.95: -0.6734; upper_percent_cli_lower: 7.343; region: Amazonas; percent_cli_upper: 7.343; percent_cli_lower: -0.6734" role="graphics-symbol" aria-roledescription="errorbar" transform="translate(46.43100000000002,70)" x2="280.57399999999996" y2="0" stroke="blue" stroke-width="0.6"></line><line aria-label="CI 0.95: 0.3934; upper_percent_cli_lower: 6.1264; region: Goiás; percent_cli_upper: 6.1264; percent_cli_lower: 0.3934" role="graphics-symbol" aria-roledescription="errorbar" transform="translate(83.769,170)" x2="200.65500000000003" y2="0" stroke="blue" stroke-width="0.6"></line><line aria-label="CI 0.95: -0.62336; upper_percent_cli_lower: 6.94616; region: Sergipe; percent_cli_upper: 6.94616; percent_cli_lower: -0.62336" role="graphics-symbol" aria-roledescription="errorbar" transform="translate(48.1824,490)" x2="264.93320000000006" y2="0" stroke="blue" stroke-width="0.6"></line><line aria-label="CI 0.95: -1.237896; upper_percent_cli_lower: 6.259496; region: Rio Grande do Norte; percent_cli_upper: 6.259496; percent_cli_lower: -1.237896" role="graphics-symbol" aria-roledescription="errorbar" transform="translate(26.673639999999995,370)" x2="262.40872" y2="0" stroke="blue" stroke-width="0.6"></line><line aria-label="CI 0.95: 1.011664; upper_percent_cli_lower: 3.781536; region: Rio de Janeiro; percent_cli_upper: 3.781536; percent_cli_lower: 1.011664" role="graphics-symbol" aria-roledescription="errorbar" transform="translate(105.40824,410)" x2="96.94552000000002" y2="0" stroke="blue" stroke-width="0.6"></line><line aria-label="CI 0.95: -1.31608; upper_percent_cli_lower: 5.87908; region: Rondônia; percent_cli_upper: 5.87908; percent_cli_lower: -1.31608" role="graphics-symbol" aria-roledescription="errorbar" transform="translate(23.93719999999999,430)" x2="251.83060000000003" y2="0" stroke="blue" stroke-width="0.6"></line><line aria-label="CI 0.95: -1.297476; upper_percent_cli_lower: 4.741676; region: Paraíba; percent_cli_upper: 4.741676; percent_cli_lower: -1.297476" role="graphics-symbol" aria-roledescription="errorbar" transform="translate(24.588340000000006,290)" x2="211.37031999999996" y2="0" stroke="blue" stroke-width="0.6"></line><line aria-label="CI 0.95: -1.025384; upper_percent_cli_lower: 4.297584; region: Alagoas; percent_cli_upper: 4.297584; percent_cli_lower: -1.025384" role="graphics-symbol" aria-roledescription="errorbar" transform="translate(34.11156,30)" x2="186.30388000000002" y2="0" stroke="blue" stroke-width="0.6"></line><line aria-label="CI 0.95: -1.184876; upper_percent_cli_lower: 4.178076; region: Mato Grosso; percent_cli_upper: 4.178076; percent_cli_lower: -1.184876" role="graphics-symbol" aria-roledescription="errorbar" transform="translate(28.52934,210)" x2="187.70332000000002" y2="0" stroke="blue" stroke-width="0.6"></line><line aria-label="CI 0.95: -1.442204; upper_percent_cli_lower: 4.408004; region: Piauí; percent_cli_upper: 4.408004; percent_cli_lower: -1.442204" role="graphics-symbol" aria-roledescription="errorbar" transform="translate(19.52286000000001,350)" x2="204.75728" y2="0" stroke="blue" stroke-width="0.6"></line><line aria-label="CI 0.95: -0.882464; upper_percent_cli_lower: 3.756464; region: Distrito Federal; percent_cli_upper: 3.756464; percent_cli_lower: -0.882464" role="graphics-symbol" aria-roledescription="errorbar" transform="translate(39.11375999999999,130)" x2="162.36248" y2="0" stroke="blue" stroke-width="0.6"></line><line aria-label="CI 0.95: -0.70838; upper_percent_cli_lower: 3.55658; region: Ceará; percent_cli_upper: 3.55658; percent_cli_lower: -0.70838" role="graphics-symbol" aria-roledescription="errorbar" transform="translate(45.2067,110)" x2="149.2736" y2="0" stroke="blue" stroke-width="0.6"></line><line aria-label="CI 0.95: 0.180196; upper_percent_cli_lower: 2.433804; region: Rio Grande do Sul; percent_cli_upper: 2.433804; percent_cli_lower: 0.180196" role="graphics-symbol" aria-roledescription="errorbar" transform="translate(76.30686,390)" x2="78.87628000000001" y2="0" stroke="blue" stroke-width="0.6"></line><line aria-label="CI 0.95: 0.170084; upper_percent_cli_lower: 2.216716; region: Minas Gerais; percent_cli_upper: 2.216716; percent_cli_lower: 0.170084" role="graphics-symbol" aria-roledescription="errorbar" transform="translate(75.95294000000001,250)" x2="71.63211999999999" y2="0" stroke="blue" stroke-width="0.6"></line><line aria-label="CI 0.95: -0.338032; upper_percent_cli_lower: 2.638032; region: Santa Catarina; percent_cli_upper: 2.638032; percent_cli_lower: -0.338032" role="graphics-symbol" aria-roledescription="errorbar" transform="translate(58.16888,470)" x2="104.16224" y2="0" stroke="blue" stroke-width="0.6"></line><line aria-label="CI 0.95: 0.471996; upper_percent_cli_lower: 1.490804; region: São Paulo; percent_cli_upper: 1.490804; percent_cli_lower: 0.471996" role="graphics-symbol" aria-roledescription="errorbar" transform="translate(86.51986,510)" x2="35.65827999999999" y2="0" stroke="blue" stroke-width="0.6"></line><line aria-label="CI 0.95: -0.29984; upper_percent_cli_lower: 1.43084; region: Paraná; percent_cli_upper: 1.43084; percent_cli_lower: -0.29984" role="graphics-symbol" aria-roledescription="errorbar" transform="translate(59.5056,270)" x2="60.573800000000006" y2="0" stroke="blue" stroke-width="0.6"></line><line aria-label="CI 0.95: -0.43218; upper_percent_cli_lower: 0.84378; region: Bahia; percent_cli_upper: 0.84378; percent_cli_lower: -0.43218" role="graphics-symbol" aria-roledescription="errorbar" transform="translate(54.8737,90)" x2="44.65859999999999" y2="0" stroke="blue" stroke-width="0.6"></line><line aria-label="CI 0.95: 0; upper_percent_cli_lower: 0; region: Mato Grosso do Sul; percent_cli_upper: 0; percent_cli_lower: 0" role="graphics-symbol" aria-roledescription="errorbar" transform="translate(70,230)" x2="0" y2="0" stroke="blue" stroke-width="0.6"></line></g><g class="mark-group role-title"><g transform="translate(350,-17)"><path class="background" aria-hidden="true" d="M0,0h0v0h0Z" pointer-events="none"></path><g><g class="mark-text role-title-text" role="graphics-symbol" aria-roledescription="title" aria-label="Title text 'Facebook COVID-like illness symptom survey (last available date) for all states in Brazil'" pointer-events="none"><text text-anchor="middle" transform="translate(0,10)" font-family="sans-serif" font-size="13px" font-weight="bold" fill="#000" opacity="1">Facebook COVID-like illness symptom survey (last available date) for all states in Brazil</text></g></g><path class="foreground" aria-hidden="true" d="" pointer-events="none" display="none"></path></g></g></g><path class="foreground" aria-hidden="true" d="" display="none"></path></g></g></g></svg>