<svg class="marks" width="997" height="599" viewBox="0 0 997 599" version="1.1" xmlns="http://www.w3.org/2000/svg" xmlns:xlink="http://www.w3.org/1999/xlink"><rect width="997" height="599" fill="white"></rect><g fill="none" stroke-miterlimit="10" transform="translate(179,22)"><g class="mark-group role-frame root" role="graphics-object" aria-roledescription="group mark container"><g transform="translate(0,0)"><path class="background" aria-hidden="true" d="M0.5,0.5h700v540h-700Z"></path><g><g class="mark-group role-axis" aria-hidden="true"><g transform="translate(0.5,0.5)"><path class="background" aria-hidden="true" d="M0,0h0v0h0Z" pointer-events="none"></path><g><g class="mark-rule role-axis-grid" pointer-events="none"><line transform="translate(0,10)" x2="700" y2="0" stroke="#ddd" stroke-width="1" opacity="1"></line><line transform="translate(0,30)" x2="700" y2="0" stroke="#ddd" stroke-width="1" opacity="1"></line><line transform="translate(0,50)" x2="700" y2="0" stroke="#ddd" stroke-width="1" opacity="1"></line><line transform="translate(0,70)" x2="700" y2="0" stroke="#ddd" stroke-width="1" opacity="1"></line><line transform="translate(0,90)" x2="700" y2="0" stroke="#ddd" stroke-width="1" opacity="1"></line><line transform="translate(0,110)" x2="700" y2="0" stroke="#ddd" stroke-width="1" opacity="1"></line><line transform="translate(0,130)" x2="700" y2="0" stroke="#ddd" stroke-width="1" opacity="1"></line><line transform="translate(0,150)" x2="700" y2="0" stroke="#ddd" stroke-width="1" opacity="1"></line><line transform="translate(0,170)" x2="700" y2="0" stroke="#ddd" stroke-width="1" opacity="1"></line><line transform="translate(0,190)" x2="700" y2="0" stroke="#ddd" stroke-width="1" opacity="1"></line><line transform="translate(0,210)" x2="700" y2="0" stroke="#ddd" stroke-width="1" opacity="1"></line><line transform="translate(0,230)" x2="700" y2="0" stroke="#ddd" stroke-width="1" opacity="1"></line><line transform="translate(0,250)" x2="700" y2="0" stroke="#ddd" stroke-width="1" opacity="1"></line><line transform="translate(0,270)" x2="700" y2="0" stroke="#ddd" stroke-width="1" opacity="1"></line><line transform="translate(0,290)" x2="700" y2="0" stroke="#ddd" stroke-width="1" opacity="1"></line><line transform="translate(0,310)" x2="700" y2="0" stroke="#ddd" stroke-width="1" opacity="1"></line><line transform="translate(0,330)" x2="700" y2="0" stroke="#ddd" stroke-width="1" opacity="1"></line><line transform="translate(0,350)" x2="700" y2="0" stroke="#ddd" stroke-width="1" opacity="1"></line><line transform="translate(0,370)" x2="700" y2="0" stroke="#ddd" stroke-width="1" opacity="1"></line><line transform="translate(0,390)" x2="700" y2="0" stroke="#ddd" stroke-width="1" opacity="1"></line><line transform="translate(0,410)" x2="700" y2="0" stroke="#ddd" stroke-width="1" opacity="1"></line><line transform="translate(0,430)" x2="700" y2="0" stroke="#ddd" stroke-width="1" opacity="1"></line><line transform="translate(0,450)" x2="700" y2="0" stroke="#ddd" stroke-width="1" opacity="1"></line><line transform="translate(0,470)" x2="700" y2="0" stroke="#ddd" stroke-width="1" opacity="1"></line><line transform="translate(0,490)" x2="700" y2="0" stroke="#ddd" stroke-width="1" opacity="1"></line><line transform="translate(0,510)" x2="700" y2="0" stroke="#ddd" stroke-width="1" opacity="1"></line><line transform="translate(0,530)" x2="700" y2="0" stroke="#ddd" stroke-width="1" opacity="1"></line></g></g><path class="foreground" aria-hidden="true" d="" pointer-events="none" display="none"></path></g></g><g class="mark-group role-axis" role="graphics-symbol" aria-roledescription="axis" aria-label="X-axis titled 'Weighted percentage w/ COVID-like illness, CI 0.95' for a linear scale with values from -2 to 16"><g transform="translate(0.5,540.5)"><path class="background" aria-hidden="true" d="M0,0h0v0h0Z" pointer-events="none"></path><g><g class="mark-rule role-axis-tick" pointer-events="none"><line transform="translate(0,0)" x2="0" y2="5" stroke="#888" stroke-width="1" opacity="1"></line><line transform="translate(39,0)" x2="0" y2="5" stroke="#888" stroke-width="1" opacity="1"></line><line transform="translate(78,0)" x2="0" y2="5" stroke="#888" stroke-width="1" opacity="1"></line><line transform="translate(117,0)" x2="0" y2="5" stroke="#888" stroke-width="1" opacity="1"></line><line transform="translate(156,0)" x2="0" y2="5" stroke="#888" stroke-width="1" opacity="1"></line><line transform="translate(194,0)" x2="0" y2="5" stroke="#888" stroke-width="1" opacity="1"></line><line transform="translate(233,0)" x2="0" y2="5" stroke="#888" stroke-width="1" opacity="1"></line><line transform="translate(272,0)" x2="0" y2="5" stroke="#888" stroke-width="1" opacity="1"></line><line transform="translate(311,0)" x2="0" y2="5" stroke="#888" stroke-width="1" opacity="1"></line><line transform="translate(350,0)" x2="0" y2="5" stroke="#888" stroke-width="1" opacity="1"></line><line transform="translate(389,0)" x2="0" y2="5" stroke="#888" stroke-width="1" opacity="1"></line><line transform="translate(428,0)" x2="0" y2="5" stroke="#888" stroke-width="1" opacity="1"></line><line transform="translate(467,0)" x2="0" y2="5" stroke="#888" stroke-width="1" opacity="1"></line><line transform="translate(506,0)" x2="0" y2="5" stroke="#888" stroke-width="1" opacity="1"></line><line transform="translate(544,0)" x2="0" y2="5" stroke="#888" stroke-width="1" opacity="1"></line><line transform="translate(583,0)" x2="0" y2="5" stroke="#888" stroke-width="1" opacity="1"></line><line transform="translate(622,0)" x2="0" y2="5" stroke="#888" stroke-width="1" opacity="1"></line><line transform="translate(661,0)" x2="0" y2="5" stroke="#888" stroke-width="1" opacity="1"></line><line transform="translate(700,0)" x2="0" y2="5" stroke="#888" stroke-width="1" opacity="1"></line></g><g class="mark-text role-axis-label" pointer-events="none"><text text-anchor="start" transform="translate(0,15)" font-family="sans-serif" font-size="10px" fill="#000" opacity="1">-2</text><text text-anchor="middle" transform="translate(38.888888888888886,15)" font-family="sans-serif" font-size="10px" fill="#000" opacity="1">-1</text><text text-anchor="middle" transform="translate(77.77777777777777,15)" font-family="sans-serif" font-size="10px" fill="#000" opacity="1">0</text><text text-anchor="middle" transform="translate(116.66666666666666,15)" font-family="sans-serif" font-size="10px" fill="#000" opacity="1">1</text><text text-anchor="middle" transform="translate(155.55555555555554,15)" font-family="sans-serif" font-size="10px" fill="#000" opacity="1">2</text><text text-anchor="middle" transform="translate(194.44444444444446,15)" font-family="sans-serif" font-size="10px" fill="#000" opacity="1">3</text><text text-anchor="middle" transform="translate(233.33333333333331,15)" font-family="sans-serif" font-size="10px" fill="#000" opacity="1">4</text><text text-anchor="middle" transform="translate(272.22222222222223,15)" font-family="sans-serif" font-size="10px" fill="#000" opacity="1">5</text><text text-anchor="middle" transform="translate(311.1111111111111,15)" font-family="sans-serif" font-size="10px" fill="#000" opacity="1">6</text><text text-anchor="middle" transform="translate(350,15)" font-family="sans-serif" font-size="10px" fill="#000" opacity="1">7</text><text text-anchor="middle" transform="translate(388.8888888888889,15)" font-family="sans-serif" font-size="10px" fill="#000" opacity="1">8</text><text text-anchor="middle" transform="translate(427.7777777777778,15)" font-family="sans-serif" font-size="10px" fill="#000" opacity="1">9</text><text text-anchor="middle" transform="translate(466.66666666666663,15)" font-family="sans-serif" font-size="10px" fill="#000" opacity="1">10</text><text text-anchor="middle" transform="translate(505.55555555555554,15)" font-family="sans-serif" font-size="10px" fill="#000" opacity="1">11</text><text text-anchor="middle" transform="translate(544.4444444444445,15)" font-family="sans-serif" font-size="10px" fill="#000" opacity="1">12</text><text text-anchor="middle" transform="translate(583.3333333333334,15)" font-family="sans-serif" font-size="10px" fill="#000" opacity="1">13</text><text text-anchor="middle" transform="translate(622.2222222222222,15)" font-family="sans-serif" font-size="10px" fill="#000" opacity="1">14</text><text text-anchor="middle" transform="translate(661.1111111111111,15)" font-family="sans-serif" font-size="10px" fill="#000" opacity="1">15</text><text text-anchor="end" transform="translate(700,15)" font-family="sans-serif" font-size="10px" fill="#000" opacity="1">16</text></g><g class="mark-rule role-axis-domain" pointer-events="none"><line transform="translate(0,0)" x2="700" y2="0" stroke="#888" stroke-width="1" opacity="1"></line></g><g class="mark-text role-axis-title" pointer-events="none"><text text-anchor="middle" transform="translate(350,30)" font-family="sans-serif" font-size="11px" font-weight="bold" fill="#000" opacity="1">Weighted percentage w/ COVID-like illness, CI 0.95</text></g></g><path class="foreground" aria-hidden="true" d="" pointer-events="none" display="none"></path></g></g><g class="mark-group role-axis" role="graphics-symbol" aria-roledescription="axis" aria-label="Y-axis titled 'States' for a discrete scale with 27 values: Acre, Alagoas, Amapá, Amazonas, Bahia, ending with Tocantins"><g transform="translate(0.5,0.5)"><path class="background" aria-hidden="true" d="M0,0h0v0h0Z" pointer-events="none"></path><g><g class="mark-rule role-axis-tick" pointer-events="none"><line transform="translate(0,10)" x2="-5" y2="0" stroke="#888" stroke-width="1" opacity="1"></line><line transform="translate(0,30)" x2="-5" y2="0" stroke="#888" stroke-width="1" opacity="1"></line><line transform="translate(0,50)" x2="-5" y2="0" stroke="#888" stroke-width="1" opacity="1"></line><line transform="translate(0,70)" x2="-5" y2="0" stroke="#888" stroke-width="1" opacity="1"></line><line transform="translate(0,90)" x2="-5" y2="0" stroke="#888" stroke-width="1" opacity="1"></line><line transform="translate(0,110)" x2="-5" y2="0" stroke="#888" stroke-width="1" opacity="1"></line><line transform="translate(0,130)" x2="-5" y2="0" stroke="#888" stroke-width="1" opacity="1"></line><line transform="translate(0,150)" x2="-5" y2="0" stroke="#888" stroke-width="1" opacity="1"></line><line transform="translate(0,170)" x2="-5" y2="0" stroke="#888" stroke-width="1" opacity="1"></line><line transform="translate(0,190)" x2="-5" y2="0" stroke="#888" stroke-width="1" opacity="1"></line><line transform="translate(0,210)" x2="-5" y2="0" stroke="#888" stroke-width="1" opacity="1"></line><line transform="translate(0,230)" x2="-5" y2="0" stroke="#888" stroke-width="1" opacity="1"></line><line transform="translate(0,250)" x2="-5" y2="0" stroke="#888" stroke-width="1" opacity="1"></line><line transform="translate(0,270)" x2="-5" y2="0" stroke="#888" stroke-width="1" opacity="1"></line><line transform="translate(0,290)" x2="-5" y2="0" stroke="#888" stroke-width="1" opacity="1"></line><line transform="translate(0,310)" x2="-5" y2="0" stroke="#888" stroke-width="1" opacity="1"></line><line transform="translate(0,330)" x2="-5" y2="0" stroke="#888" stroke-width="1" opacity="1"></line><line transform="translate(0,350)" x2="-5" y2="0" stroke="#888" stroke-width="1" opacity="1"></line><line transform="translate(0,370)" x2="-5" y2="0" stroke="#888" stroke-width="1" opacity="1"></line><line transform="translate(0,390)" x2="-5" y2="0" stroke="#888" stroke-width="1" opacity="1"></line><line transform="translate(0,410)" x2="-5" y2="0" stroke="#888" stroke-width="1" opacity="1"></line><line transform="translate(0,430)" x2="-5" y2="0" stroke="#888" stroke-width="1" opacity="1"></line><line transform="translate(0,450)" x2="-5" y2="0" stroke="#888" stroke-width="1" opacity="1"></line><line transform="translate(0,470)" x2="-5" y2="0" stroke="#888" stroke-width="1" opacity="1"></line><line transform="translate(0,490)" x2="-5" y2="0" stroke="#888" stroke-width="1" opacity="1"></line><line transform="translate(0,510)" x2="-5" y2="0" stroke="#888" stroke-width="1" opacity="1"></line><line transform="translate(0,530)" x2="-5" y2="0" stroke="#888" stroke-width="1" opacity="1"></line></g><g class="mark-text role-axis-label" pointer-events="none"><text text-anchor="end" transform="translate(-7,12.5)" font-family="sans-serif" font-size="10px" fill="#000" opacity="1">Acre</text><text text-anchor="end" transform="translate(-7,32.5)" font-family="sans-serif" font-size="10px" fill="#000" opacity="1">Alagoas</text><text text-anchor="end" transform="translate(-7,52.5)" font-family="sans-serif" font-size="10px" fill="#000" opacity="1">Amapá</text><text text-anchor="end" transform="translate(-7,72.5)" font-family="sans-serif" font-size="10px" fill="#000" opacity="1">Amazonas</text><text text-anchor="end" transform="translate(-7,92.5)" font-family="sans-serif" font-size="10px" fill="#000" opacity="1">Bahia</text><text text-anchor="end" transform="translate(-7,112.5)" font-family="sans-serif" font-size="10px" fill="#000" opacity="1">Ceará</text><text text-anchor="end" transform="translate(-7,132.5)" font-family="sans-serif" font-size="10px" fill="#000" opacity="1">Distrito Federal</text><text text-anchor="end" transform="translate(-7,152.5)" font-family="sans-serif" font-size="10px" fill="#000" opacity="1">Espírito Santo</text><text text-anchor="end" transform="translate(-7,172.5)" font-family="sans-serif" font-size="10px" fill="#000" opacity="1">Goiás</text><text text-anchor="end" transform="translate(-7,192.5)" font-family="sans-serif" font-size="10px" fill="#000" opacity="1">Maranhão</text><text text-anchor="end" transform="translate(-7,212.5)" font-family="sans-serif" font-size="10px" fill="#000" opacity="1">Mato Grosso</text><text text-anchor="end" transform="translate(-7,232.5)" font-family="sans-serif" font-size="10px" fill="#000" opacity="1">Mato Grosso do Sul</text><text text-anchor="end" transform="translate(-7,252.5)" font-family="sans-serif" font-size="10px" fill="#000" opacity="1">Minas Gerais</text><text text-anchor="end" transform="translate(-7,272.5)" font-family="sans-serif" font-size="10px" fill="#000" opacity="1">Paraná</text><text text-anchor="end" transform="translate(-7,292.5)" font-family="sans-serif" font-size="10px" fill="#000" opacity="1">Paraíba</text><text text-anchor="end" transform="translate(-7,312.5)" font-family="sans-serif" font-size="10px" fill="#000" opacity="1">Pará</text><text text-anchor="end" transform="translate(-7,332.5)" font-family="sans-serif" font-size="10px" fill="#000" opacity="1">Pernambuco</text><text text-anchor="end" transform="translate(-7,352.5)" font-family="sans-serif" font-size="10px" fill="#000" opacity="1">Piauí</text><text text-anchor="end" transform="translate(-7,372.5)" font-family="sans-serif" font-size="10px" fill="#000" opacity="1">Rio Grande do Norte</text><text text-anchor="end" transform="translate(-7,392.5)" font-family="sans-serif" font-size="10px" fill="#000" opacity="1">Rio Grande do Sul</text><text text-anchor="end" transform="translate(-7,412.5)" font-family="sans-serif" font-size="10px" fill="#000" opacity="1">Rio de Janeiro</text><text text-anchor="end" transform="translate(-7,432.5)" font-family="sans-serif" font-size="10px" fill="#000" opacity="1">Rondônia</text><text text-anchor="end" transform="translate(-7,452.5)" font-family="sans-serif" font-size="10px" fill="#000" opacity="1">Roraima</text><text text-anchor="end" transform="translate(-7,472.5)" font-family="sans-serif" font-size="10px" fill="#000" opacity="1">Santa Catarina</text><text text-anchor="end" transform="translate(-7,492.5)" font-family="sans-serif" font-size="10px" fill="#000" opacity="1">Sergipe</text><text text-anchor="end" transform="translate(-7,512.5)" font-family="sans-serif" font-size="10px" fill="#000" opacity="1">São Paulo</text><text text-anchor="end" transform="translate(-7,532.5)" font-family="sans-serif" font-size="10px" fill="#000" opacity="1">Tocantins</text></g><g class="mark-rule role-axis-domain" pointer-events="none"><line transform="translate(0,0)" x2="0" y2="540" stroke="#888" stroke-width="1" opacity="1"></line></g><g class="mark-text role-axis-title" pointer-events="none"><text text-anchor="middle" transform="translate(-163,270) rotate(-90) translate(0,-2)" font-family="sans-serif" font-size="11px" font-weight="bold" fill="#000" opacity="1">States</text></g></g><path class="foreground" aria-hidden="true" d="" pointer-events="none" display="none"></path></g></g><g class="mark-symbol role-mark layer_0_marks" role="graphics-object" aria-roledescription="symbol mark container"><path aria-label="Weighted percentage w/ COVID-like illness: 7.5218; States: Acre" role="graphics-symbol" aria-roledescription="point" transform="translate(370.29222222222216,10)" d="M2.7386127875258306,0A2.7386127875258306,2.7386127875258306,0,1,1,-2.7386127875258306,0A2.7386127875258306,2.7386127875258306,0,1,1,2.7386127875258306,0" stroke="#4c78a8" stroke-width="2" opacity="0.7"></path><path aria-label="Weighted percentage w/ COVID-like illness: 7.1773; States: Roraima" role="graphics-symbol" aria-roledescription="point" transform="translate(356.89500000000004,450)" d="M2.7386127875258306,0A2.7386127875258306,2.7386127875258306,0,1,1,-2.7386127875258306,0A2.7386127875258306,2.7386127875258306,0,1,1,2.7386127875258306,0" stroke="#4c78a8" stroke-width="2" opacity="0.7"></path><path aria-label="Weighted percentage w/ COVID-like illness: 6.7946; States: Amapá" role="graphics-symbol" aria-roledescription="point" transform="translate(342.01222222222225,50)" d="M2.7386127875258306,0A2.7386127875258306,2.7386127875258306,0,1,1,-2.7386127875258306,0A2.7386127875258306,2.7386127875258306,0,1,1,2.7386127875258306,0" stroke="#4c78a8" stroke-width="2" opacity="0.7"></path><path aria-label="Weighted percentage w/ COVID-like illness: 6.1853; States: Pará" role="graphics-symbol" aria-roledescription="point" transform="translate(318.3172222222222,310)" d="M2.7386127875258306,0A2.7386127875258306,2.7386127875258306,0,1,1,-2.7386127875258306,0A2.7386127875258306,2.7386127875258306,0,1,1,2.7386127875258306,0" stroke="#4c78a8" stroke-width="2" opacity="0.7"></path><path aria-label="Weighted percentage w/ COVID-like illness: 4.3629; States: Piauí" role="graphics-symbol" aria-roledescription="point" transform="translate(247.44611111111112,350)" d="M2.7386127875258306,0A2.7386127875258306,2.7386127875258306,0,1,1,-2.7386127875258306,0A2.7386127875258306,2.7386127875258306,0,1,1,2.7386127875258306,0" stroke="#4c78a8" stroke-width="2" opacity="0.7"></path><path aria-label="Weighted percentage w/ COVID-like illness: 4.3452; States: Rondônia" role="graphics-symbol" aria-roledescription="point" transform="translate(246.7577777777778,430)" d="M2.7386127875258306,0A2.7386127875258306,2.7386127875258306,0,1,1,-2.7386127875258306,0A2.7386127875258306,2.7386127875258306,0,1,1,2.7386127875258306,0" stroke="#4c78a8" stroke-width="2" opacity="0.7"></path><path aria-label="Weighted percentage w/ COVID-like illness: 3.9294; States: Ceará" role="graphics-symbol" aria-roledescription="point" transform="translate(230.58777777777777,110)" d="M2.7386127875258306,0A2.7386127875258306,2.7386127875258306,0,1,1,-2.7386127875258306,0A2.7386127875258306,2.7386127875258306,0,1,1,2.7386127875258306,0" stroke="#4c78a8" stroke-width="2" opacity="0.7"></path><path aria-label="Weighted percentage w/ COVID-like illness: 3.5902; States: Maranhão" role="graphics-symbol" aria-roledescription="point" transform="translate(217.39666666666665,190)" d="M2.7386127875258306,0A2.7386127875258306,2.7386127875258306,0,1,1,-2.7386127875258306,0A2.7386127875258306,2.7386127875258306,0,1,1,2.7386127875258306,0" stroke="#4c78a8" stroke-width="2" opacity="0.7"></path><path aria-label="Weighted percentage w/ COVID-like illness: 3.3877; States: Tocantins" role="graphics-symbol" aria-roledescription="point" transform="translate(209.52166666666668,530)" d="M2.7386127875258306,0A2.7386127875258306,2.7386127875258306,0,1,1,-2.7386127875258306,0A2.7386127875258306,2.7386127875258306,0,1,1,2.7386127875258306,0" stroke="#4c78a8" stroke-width="2" opacity="0.7"></path><path aria-label="Weighted percentage w/ COVID-like illness: 2.734; States: Amazonas" role="graphics-symbol" aria-roledescription="point" transform="translate(184.1,70)" d="M2.7386127875258306,0A2.7386127875258306,2.7386127875258306,0,1,1,-2.7386127875258306,0A2.7386127875258306,2.7386127875258306,0,1,1,2.7386127875258306,0" stroke="#4c78a8" stroke-width="2" opacity="0.7"></path><path aria-label="Weighted percentage w/ COVID-like illness: 2.5906; States: Alagoas" role="graphics-symbol" aria-roledescription="point" transform="translate(178.52333333333334,30)" d="M2.7386127875258306,0A2.7386127875258306,2.7386127875258306,0,1,1,-2.7386127875258306,0A2.7386127875258306,2.7386127875258306,0,1,1,2.7386127875258306,0" stroke="#4c78a8" stroke-width="2" opacity="0.7"></path><path aria-label="Weighted percentage w/ COVID-like illness: 2.5702; States: Mato Grosso" role="graphics-symbol" aria-roledescription="point" transform="translate(177.73000000000002,210)" d="M2.7386127875258306,0A2.7386127875258306,2.7386127875258306,0,1,1,-2.7386127875258306,0A2.7386127875258306,2.7386127875258306,0,1,1,2.7386127875258306,0" stroke="#4c78a8" stroke-width="2" opacity="0.7"></path><path aria-label="Weighted percentage w/ COVID-like illness: 2.4726; States: Goiás" role="graphics-symbol" aria-roledescription="point" transform="translate(173.93444444444444,170)" d="M2.7386127875258306,0A2.7386127875258306,2.7386127875258306,0,1,1,-2.7386127875258306,0A2.7386127875258306,2.7386127875258306,0,1,1,2.7386127875258306,0" stroke="#4c78a8" stroke-width="2" opacity="0.7"></path><path aria-label="Weighted percentage w/ COVID-like illness: 2.4205; States: Mato Grosso do Sul" role="graphics-symbol" aria-roledescription="point" transform="translate(171.90833333333336,230)" d="M2.7386127875258306,0A2.7386127875258306,2.7386127875258306,0,1,1,-2.7386127875258306,0A2.7386127875258306,2.7386127875258306,0,1,1,2.7386127875258306,0" stroke="#4c78a8" stroke-width="2" opacity="0.7"></path><path aria-label="Weighted percentage w/ COVID-like illness: 2.3012; States: Sergipe" role="graphics-symbol" aria-roledescription="point" transform="translate(167.26888888888888,490)" d="M2.7386127875258306,0A2.7386127875258306,2.7386127875258306,0,1,1,-2.7386127875258306,0A2.7386127875258306,2.7386127875258306,0,1,1,2.7386127875258306,0" stroke="#4c78a8" stroke-width="2" opacity="0.7"></path><path aria-label="Weighted percentage w/ COVID-like illness: 2.05; States: Paraná" role="graphics-symbol" aria-roledescription="point" transform="translate(157.50000000000003,270)" d="M2.7386127875258306,0A2.7386127875258306,2.7386127875258306,0,1,1,-2.7386127875258306,0A2.7386127875258306,2.7386127875258306,0,1,1,2.7386127875258306,0" stroke="#4c78a8" stroke-width="2" opacity="0.7"></path><path aria-label="Weighted percentage w/ COVID-like illness: 1.9382; States: Rio de Janeiro" role="graphics-symbol" aria-roledescription="point" transform="translate(153.15222222222224,410)" d="M2.7386127875258306,0A2.7386127875258306,2.7386127875258306,0,1,1,-2.7386127875258306,0A2.7386127875258306,2.7386127875258306,0,1,1,2.7386127875258306,0" stroke="#4c78a8" stroke-width="2" opacity="0.7"></path><path aria-label="Weighted percentage w/ COVID-like illness: 1.5404; States: Distrito Federal" role="graphics-symbol" aria-roledescription="point" transform="translate(137.6822222222222,130)" d="M2.7386127875258306,0A2.7386127875258306,2.7386127875258306,0,1,1,-2.7386127875258306,0A2.7386127875258306,2.7386127875258306,0,1,1,2.7386127875258306,0" stroke="#4c78a8" stroke-width="2" opacity="0.7"></path><path aria-label="Weighted percentage w/ COVID-like illness: 1.3157; States: São Paulo" role="graphics-symbol" aria-roledescription="point" transform="translate(128.9438888888889,510)" d="M2.7386127875258306,0A2.7386127875258306,2.7386127875258306,0,1,1,-2.7386127875258306,0A2.7386127875258306,2.7386127875258306,0,1,1,2.7386127875258306,0" stroke="#4c78a8" stroke-width="2" opacity="0.7"></path><path aria-label="Weighted percentage w/ COVID-like illness: 1.1865; States: Rio Grande do Norte" role="graphics-symbol" aria-roledescription="point" transform="translate(123.91944444444445,370)" d="M2.7386127875258306,0A2.7386127875258306,2.7386127875258306,0,1,1,-2.7386127875258306,0A2.7386127875258306,2.7386127875258306,0,1,1,2.7386127875258306,0" stroke="#4c78a8" stroke-width="2" opacity="0.7"></path><path aria-label="Weighted percentage w/ COVID-like illness: 1.1842; States: Paraíba" role="graphics-symbol" aria-roledescription="point" transform="translate(123.82999999999998,290)" d="M2.7386127875258306,0A2.7386127875258306,2.7386127875258306,0,1,1,-2.7386127875258306,0A2.7386127875258306,2.7386127875258306,0,1,1,2.7386127875258306,0" stroke="#4c78a8" stroke-width="2" opacity="0.7"></path><path aria-label="Weighted percentage w/ COVID-like illness: 1.1292; States: Rio Grande do Sul" role="graphics-symbol" aria-roledescription="point" transform="translate(121.69111111111111,390)" d="M2.7386127875258306,0A2.7386127875258306,2.7386127875258306,0,1,1,-2.7386127875258306,0A2.7386127875258306,2.7386127875258306,0,1,1,2.7386127875258306,0" stroke="#4c78a8" stroke-width="2" opacity="0.7"></path><path aria-label="Weighted percentage w/ COVID-like illness: 1.112; States: Minas Gerais" role="graphics-symbol" aria-roledescription="point" transform="translate(121.02222222222223,250)" d="M2.7386127875258306,0A2.7386127875258306,2.7386127875258306,0,1,1,-2.7386127875258306,0A2.7386127875258306,2.7386127875258306,0,1,1,2.7386127875258306,0" stroke="#4c78a8" stroke-width="2" opacity="0.7"></path><path aria-label="Weighted percentage w/ COVID-like illness: 1.0806; States: Pernambuco" role="graphics-symbol" aria-roledescription="point" transform="translate(119.8011111111111,330)" d="M2.7386127875258306,0A2.7386127875258306,2.7386127875258306,0,1,1,-2.7386127875258306,0A2.7386127875258306,2.7386127875258306,0,1,1,2.7386127875258306,0" stroke="#4c78a8" stroke-width="2" opacity="0.7"></path><path aria-label="Weighted percentage w/ COVID-like illness: 0.856; States: Bahia" role="graphics-symbol" aria-roledescription="point" transform="translate(111.06666666666665,90)" d="M2.7386127875258306,0A2.7386127875258306,2.7386127875258306,0,1,1,-2.7386127875258306,0A2.7386127875258306,2.7386127875258306,0,1,1,2.7386127875258306,0" stroke="#4c78a8" stroke-width="2" opacity="0.7"></path><path aria-label="Weighted percentage w/ COVID-like illness: 0.7912; States: Santa Catarina" role="graphics-symbol" aria-roledescription="point" transform="translate(108.54666666666667,470)" d="M2.7386127875258306,0A2.7386127875258306,2.7386127875258306,0,1,1,-2.7386127875258306,0A2.7386127875258306,2.7386127875258306,0,1,1,2.7386127875258306,0" stroke="#4c78a8" stroke-width="2" opacity="0.7"></path><path aria-label="Weighted percentage w/ COVID-like illness: 0.5256; States: Espírito Santo" role="graphics-symbol" aria-roledescription="point" transform="translate(98.21777777777777,150)" d="M2.7386127875258306,0A2.7386127875258306,2.7386127875258306,0,1,1,-2.7386127875258306,0A2.7386127875258306,2.7386127875258306,0,1,1,2.7386127875258306,0" stroke="#4c78a8" stroke-width="2" opacity="0.7"></path></g><g class="mark-rule role-mark layer_1_marks" role="graphics-object" aria-roledescription="rule mark container"><line aria-label="CI 0.95: 0.651216; upper_percent_cli_lower: 14.392384; region: Acre; percent_cli_upper: 14.392384; percent_cli_lower: 0.651216" role="graphics-symbol" aria-roledescription="errorbar" transform="translate(103.1028444444444,10)" x2="534.3787555555556" y2="0" stroke="blue" stroke-width="0.6"></line><line aria-label="CI 0.95: 1.20126; upper_percent_cli_lower: 13.15334; region: Roraima; percent_cli_upper: 13.15334; percent_cli_lower: 1.20126" role="graphics-symbol" aria-roledescription="errorbar" transform="translate(124.49344444444446,450)" x2="464.8031111111111" y2="0" stroke="blue" stroke-width="0.6"></line><line aria-label="CI 0.95: 1.1204; upper_percent_cli_lower: 12.4688; region: Amapá; percent_cli_upper: 12.4688; percent_cli_lower: 1.1204" role="graphics-symbol" aria-roledescription="errorbar" transform="translate(121.34888888888892,50)" x2="441.3266666666666" y2="0" stroke="blue" stroke-width="0.6"></line><line aria-label="CI 0.95: 3.472268; upper_percent_cli_lower: 8.898332; region: Pará; percent_cli_upper: 8.898332; percent_cli_lower: 3.472268" role="graphics-symbol" aria-roledescription="errorbar" transform="translate(212.81042222222223,310)" x2="211.01359999999997" y2="0" stroke="blue" stroke-width="0.6"></line><line aria-label="CI 0.95: 0.837252; upper_percent_cli_lower: 7.888548; region: Piauí; percent_cli_upper: 7.888548; percent_cli_lower: 0.837252" role="graphics-symbol" aria-roledescription="errorbar" transform="translate(110.3375777777778,350)" x2="274.2170666666666" y2="0" stroke="blue" stroke-width="0.6"></line><line aria-label="CI 0.95: 0.537508; upper_percent_cli_lower: 8.152892; region: Rondônia; percent_cli_upper: 8.152892; percent_cli_lower: 0.537508" role="graphics-symbol" aria-roledescription="errorbar" transform="translate(98.68086666666666,430)" x2="296.1538222222223" y2="0" stroke="blue" stroke-width="0.6"></line><line aria-label="CI 0.95: 1.883748; upper_percent_cli_lower: 5.975052; region: Ceará; percent_cli_upper: 5.975052; percent_cli_lower: 1.883748" role="graphics-symbol" aria-roledescription="errorbar" transform="translate(151.03464444444447,110)" x2="159.10626666666664" y2="0" stroke="blue" stroke-width="0.6"></line><line aria-label="CI 0.95: 1.084928; upper_percent_cli_lower: 6.095472; region: Maranhão; percent_cli_upper: 6.095472; percent_cli_lower: 1.084928" role="graphics-symbol" aria-roledescription="errorbar" transform="translate(119.96942222222225,190)" x2="194.8544888888889" y2="0" stroke="blue" stroke-width="0.6"></line><line aria-label="CI 0.95: -0.424892; upper_percent_cli_lower: 7.200292; region: Tocantins; percent_cli_upper: 7.200292; percent_cli_lower: -0.424892" role="graphics-symbol" aria-roledescription="errorbar" transform="translate(61.25419999999999,530)" x2="296.5349333333334" y2="0" stroke="blue" stroke-width="0.6"></line><line aria-label="CI 0.95: -0.032736; upper_percent_cli_lower: 5.500736; region: Amazonas; percent_cli_upper: 5.500736; percent_cli_lower: -0.032736" role="graphics-symbol" aria-roledescription="errorbar" transform="translate(76.50471111111112,70)" x2="215.19057777777778" y2="0" stroke="blue" stroke-width="0.6"></line><line aria-label="CI 0.95: -0.706316; upper_percent_cli_lower: 5.887516; region: Alagoas; percent_cli_upper: 5.887516; percent_cli_lower: -0.706316" role="graphics-symbol" aria-roledescription="errorbar" transform="translate(50.30993333333334,30)" x2="256.4268" y2="0" stroke="blue" stroke-width="0.6"></line><line aria-label="CI 0.95: 0.622744; upper_percent_cli_lower: 4.517656; region: Mato Grosso; percent_cli_upper: 4.517656; percent_cli_lower: 0.622744" role="graphics-symbol" aria-roledescription="errorbar" transform="translate(101.9956,210)" x2="151.46880000000002" y2="0" stroke="blue" stroke-width="0.6"></line><line aria-label="CI 0.95: 0.974768; upper_percent_cli_lower: 3.970432; region: Goiás; percent_cli_upper: 3.970432; percent_cli_lower: 0.974768" role="graphics-symbol" aria-roledescription="errorbar" transform="translate(115.68542222222223,170)" x2="116.49804444444445" y2="0" stroke="blue" stroke-width="0.6"></line><line aria-label="CI 0.95: 0.241568; upper_percent_cli_lower: 4.599432; region: Mato Grosso do Sul; percent_cli_upper: 4.599432; percent_cli_lower: 0.241568" role="graphics-symbol" aria-roledescription="errorbar" transform="translate(87.1720888888889,230)" x2="169.4724888888889" y2="0" stroke="blue" stroke-width="0.6"></line><line aria-label="CI 0.95: -0.989444; upper_percent_cli_lower: 5.591844; region: Sergipe; percent_cli_upper: 5.591844; percent_cli_lower: -0.989444" role="graphics-symbol" aria-roledescription="errorbar" transform="translate(39.29940000000003,490)" x2="255.93897777777775" y2="0" stroke="blue" stroke-width="0.6"></line><line aria-label="CI 0.95: 1.057064; upper_percent_cli_lower: 3.042936; region: Paraná; percent_cli_upper: 3.042936; percent_cli_lower: 1.057064" role="graphics-symbol" aria-roledescription="errorbar" transform="translate(118.88582222222223,270)" x2="77.22835555555557" y2="0" stroke="blue" stroke-width="0.6"></line><line aria-label="CI 0.95: 1.021704; upper_percent_cli_lower: 2.854696; region: Rio de Janeiro; percent_cli_upper: 2.854696; percent_cli_lower: 1.021704" role="graphics-symbol" aria-roledescription="errorbar" transform="translate(117.5107111111111,410)" x2="71.28302222222223" y2="0" stroke="blue" stroke-width="0.6"></line><line aria-label="CI 0.95: 0.119988; upper_percent_cli_lower: 2.960812; region: Distrito Federal; percent_cli_upper: 2.960812; percent_cli_lower: 0.119988" role="graphics-symbol" aria-roledescription="errorbar" transform="translate(82.44397777777779,130)" x2="110.47648888888888" y2="0" stroke="blue" stroke-width="0.6"></line><line aria-label="CI 0.95: 0.933696; upper_percent_cli_lower: 1.697704; region: São Paulo; percent_cli_upper: 1.697704; percent_cli_lower: 0.933696" role="graphics-symbol" aria-roledescription="errorbar" transform="translate(114.08817777777777,510)" x2="29.711422222222225" y2="0" stroke="blue" stroke-width="0.6"></line><line aria-label="CI 0.95: -0.301924; upper_percent_cli_lower: 2.674924; region: Rio Grande do Norte; percent_cli_upper: 2.674924; percent_cli_lower: -0.301924" role="graphics-symbol" aria-roledescription="errorbar" transform="translate(66.03628888888889,370)" x2="115.76631111111112" y2="0" stroke="blue" stroke-width="0.6"></line><line aria-label="CI 0.95: -0.409672; upper_percent_cli_lower: 2.778072; region: Paraíba; percent_cli_upper: 2.778072; percent_cli_lower: -0.409672" role="graphics-symbol" aria-roledescription="errorbar" transform="translate(61.84608888888889,290)" x2="123.96782222222222" y2="0" stroke="blue" stroke-width="0.6"></line><line aria-label="CI 0.95: 0.40204; upper_percent_cli_lower: 1.85636; region: Rio Grande do Sul; percent_cli_upper: 1.85636; percent_cli_lower: 0.40204" role="graphics-symbol" aria-roledescription="errorbar" transform="translate(93.41266666666667,390)" x2="56.55688888888889" y2="0" stroke="blue" stroke-width="0.6"></line><line aria-label="CI 0.95: 0.420512; upper_percent_cli_lower: 1.803488; region: Minas Gerais; percent_cli_upper: 1.803488; percent_cli_lower: 0.420512" role="graphics-symbol" aria-roledescription="errorbar" transform="translate(94.13102222222223,250)" x2="53.78239999999998" y2="0" stroke="blue" stroke-width="0.6"></line><line aria-label="CI 0.95: -0.068352; upper_percent_cli_lower: 2.229552; region: Pernambuco; percent_cli_upper: 2.229552; percent_cli_lower: -0.068352" role="graphics-symbol" aria-roledescription="errorbar" transform="translate(75.11964444444445,330)" x2="89.36293333333333" y2="0" stroke="blue" stroke-width="0.6"></line><line aria-label="CI 0.95: -0.126744; upper_percent_cli_lower: 1.838744; region: Bahia; percent_cli_upper: 1.838744; percent_cli_lower: -0.126744" role="graphics-symbol" aria-roledescription="errorbar" transform="translate(72.84884444444444,90)" x2="76.43564444444445" y2="0" stroke="blue" stroke-width="0.6"></line><line aria-label="CI 0.95: -0.029648; upper_percent_cli_lower: 1.612048; region: Santa Catarina; percent_cli_upper: 1.612048; percent_cli_lower: -0.029648" role="graphics-symbol" aria-roledescription="errorbar" transform="translate(76.62480000000001,470)" x2="63.843733333333304" y2="0" stroke="blue" stroke-width="0.6"></line><line aria-label="CI 0.95: -0.250952; upper_percent_cli_lower: 1.302152; region: Espírito Santo; percent_cli_upper: 1.302152; percent_cli_lower: -0.250952" role="graphics-symbol" aria-roledescription="errorbar" transform="translate(68.01853333333334,150)" x2="60.398488888888906" y2="0" stroke="blue" stroke-width="0.6"></line></g><g class="mark-group role-title"><g transform="translate(350,-17)"><path class="background" aria-hidden="true" d="M0,0h0v0h0Z" pointer-events="none"></path><g><g class="mark-text role-title-text" role="graphics-symbol" aria-roledescription="title" aria-label="Title text 'Facebook COVID-like illness symptom survey (last available date) for all states in Brazil'" pointer-events="none"><text text-anchor="middle" transform="translate(0,10)" font-family="sans-serif" font-size="13px" font-weight="bold" fill="#000" opacity="1">Facebook COVID-like illness symptom survey (last available date) for all states in Brazil</text></g></g><path class="foreground" aria-hidden="true" d="" pointer-events="none" display="none"></path></g></g></g><path class="foreground" aria-hidden="true" d="" display="none"></path></g></g></g></svg>