<svg class="marks" width="997" height="599" viewBox="0 0 997 599" version="1.1" xmlns="http://www.w3.org/2000/svg" xmlns:xlink="http://www.w3.org/1999/xlink"><rect width="997" height="599" fill="white"></rect><g fill="none" stroke-miterlimit="10" transform="translate(179,22)"><g class="mark-group role-frame root" role="graphics-object" aria-roledescription="group mark container"><g transform="translate(0,0)"><path class="background" aria-hidden="true" d="M0.5,0.5h700v540h-700Z"></path><g><g class="mark-group role-axis" aria-hidden="true"><g transform="translate(0.5,0.5)"><path class="background" aria-hidden="true" d="M0,0h0v0h0Z" pointer-events="none"></path><g><g class="mark-rule role-axis-grid" pointer-events="none"><line transform="translate(0,10)" x2="700" y2="0" stroke="#ddd" stroke-width="1" opacity="1"></line><line transform="translate(0,30)" x2="700" y2="0" stroke="#ddd" stroke-width="1" opacity="1"></line><line transform="translate(0,50)" x2="700" y2="0" stroke="#ddd" stroke-width="1" opacity="1"></line><line transform="translate(0,70)" x2="700" y2="0" stroke="#ddd" stroke-width="1" opacity="1"></line><line transform="translate(0,90)" x2="700" y2="0" stroke="#ddd" stroke-width="1" opacity="1"></line><line transform="translate(0,110)" x2="700" y2="0" stroke="#ddd" stroke-width="1" opacity="1"></line><line transform="translate(0,130)" x2="700" y2="0" stroke="#ddd" stroke-width="1" opacity="1"></line><line transform="translate(0,150)" x2="700" y2="0" stroke="#ddd" stroke-width="1" opacity="1"></line><line transform="translate(0,170)" x2="700" y2="0" stroke="#ddd" stroke-width="1" opacity="1"></line><line transform="translate(0,190)" x2="700" y2="0" stroke="#ddd" stroke-width="1" opacity="1"></line><line transform="translate(0,210)" x2="700" y2="0" stroke="#ddd" stroke-width="1" opacity="1"></line><line transform="translate(0,230)" x2="700" y2="0" stroke="#ddd" stroke-width="1" opacity="1"></line><line transform="translate(0,250)" x2="700" y2="0" stroke="#ddd" stroke-width="1" opacity="1"></line><line transform="translate(0,270)" x2="700" y2="0" stroke="#ddd" stroke-width="1" opacity="1"></line><line transform="translate(0,290)" x2="700" y2="0" stroke="#ddd" stroke-width="1" opacity="1"></line><line transform="translate(0,310)" x2="700" y2="0" stroke="#ddd" stroke-width="1" opacity="1"></line><line transform="translate(0,330)" x2="700" y2="0" stroke="#ddd" stroke-width="1" opacity="1"></line><line transform="translate(0,350)" x2="700" y2="0" stroke="#ddd" stroke-width="1" opacity="1"></line><line transform="translate(0,370)" x2="700" y2="0" stroke="#ddd" stroke-width="1" opacity="1"></line><line transform="translate(0,390)" x2="700" y2="0" stroke="#ddd" stroke-width="1" opacity="1"></line><line transform="translate(0,410)" x2="700" y2="0" stroke="#ddd" stroke-width="1" opacity="1"></line><line transform="translate(0,430)" x2="700" y2="0" stroke="#ddd" stroke-width="1" opacity="1"></line><line transform="translate(0,450)" x2="700" y2="0" stroke="#ddd" stroke-width="1" opacity="1"></line><line transform="translate(0,470)" x2="700" y2="0" stroke="#ddd" stroke-width="1" opacity="1"></line><line transform="translate(0,490)" x2="700" y2="0" stroke="#ddd" stroke-width="1" opacity="1"></line><line transform="translate(0,510)" x2="700" y2="0" stroke="#ddd" stroke-width="1" opacity="1"></line><line transform="translate(0,530)" x2="700" y2="0" stroke="#ddd" stroke-width="1" opacity="1"></line></g></g><path class="foreground" aria-hidden="true" d="" pointer-events="none" display="none"></path></g></g><g class="mark-group role-axis" role="graphics-symbol" aria-roledescription="axis" aria-label="X-axis titled 'Weighted percentage w/ COVID-like illness, CI 0.95' for a linear scale with values from -2 to 16"><g transform="translate(0.5,540.5)"><path class="background" aria-hidden="true" d="M0,0h0v0h0Z" pointer-events="none"></path><g><g class="mark-rule role-axis-tick" pointer-events="none"><line transform="translate(0,0)" x2="0" y2="5" stroke="#888" stroke-width="1" opacity="1"></line><line transform="translate(39,0)" x2="0" y2="5" stroke="#888" stroke-width="1" opacity="1"></line><line transform="translate(78,0)" x2="0" y2="5" stroke="#888" stroke-width="1" opacity="1"></line><line transform="translate(117,0)" x2="0" y2="5" stroke="#888" stroke-width="1" opacity="1"></line><line transform="translate(156,0)" x2="0" y2="5" stroke="#888" stroke-width="1" opacity="1"></line><line transform="translate(194,0)" x2="0" y2="5" stroke="#888" stroke-width="1" opacity="1"></line><line transform="translate(233,0)" x2="0" y2="5" stroke="#888" stroke-width="1" opacity="1"></line><line transform="translate(272,0)" x2="0" y2="5" stroke="#888" stroke-width="1" opacity="1"></line><line transform="translate(311,0)" x2="0" y2="5" stroke="#888" stroke-width="1" opacity="1"></line><line transform="translate(350,0)" x2="0" y2="5" stroke="#888" stroke-width="1" opacity="1"></line><line transform="translate(389,0)" x2="0" y2="5" stroke="#888" stroke-width="1" opacity="1"></line><line transform="translate(428,0)" x2="0" y2="5" stroke="#888" stroke-width="1" opacity="1"></line><line transform="translate(467,0)" x2="0" y2="5" stroke="#888" stroke-width="1" opacity="1"></line><line transform="translate(506,0)" x2="0" y2="5" stroke="#888" stroke-width="1" opacity="1"></line><line transform="translate(544,0)" x2="0" y2="5" stroke="#888" stroke-width="1" opacity="1"></line><line transform="translate(583,0)" x2="0" y2="5" stroke="#888" stroke-width="1" opacity="1"></line><line transform="translate(622,0)" x2="0" y2="5" stroke="#888" stroke-width="1" opacity="1"></line><line transform="translate(661,0)" x2="0" y2="5" stroke="#888" stroke-width="1" opacity="1"></line><line transform="translate(700,0)" x2="0" y2="5" stroke="#888" stroke-width="1" opacity="1"></line></g><g class="mark-text role-axis-label" pointer-events="none"><text text-anchor="start" transform="translate(0,15)" font-family="sans-serif" font-size="10px" fill="#000" opacity="1">-2</text><text text-anchor="middle" transform="translate(38.888888888888886,15)" font-family="sans-serif" font-size="10px" fill="#000" opacity="1">-1</text><text text-anchor="middle" transform="translate(77.77777777777777,15)" font-family="sans-serif" font-size="10px" fill="#000" opacity="1">0</text><text text-anchor="middle" transform="translate(116.66666666666666,15)" font-family="sans-serif" font-size="10px" fill="#000" opacity="1">1</text><text text-anchor="middle" transform="translate(155.55555555555554,15)" font-family="sans-serif" font-size="10px" fill="#000" opacity="1">2</text><text text-anchor="middle" transform="translate(194.44444444444446,15)" font-family="sans-serif" font-size="10px" fill="#000" opacity="1">3</text><text text-anchor="middle" transform="translate(233.33333333333331,15)" font-family="sans-serif" font-size="10px" fill="#000" opacity="1">4</text><text text-anchor="middle" transform="translate(272.22222222222223,15)" font-family="sans-serif" font-size="10px" fill="#000" opacity="1">5</text><text text-anchor="middle" transform="translate(311.1111111111111,15)" font-family="sans-serif" font-size="10px" fill="#000" opacity="1">6</text><text text-anchor="middle" transform="translate(350,15)" font-family="sans-serif" font-size="10px" fill="#000" opacity="1">7</text><text text-anchor="middle" transform="translate(388.8888888888889,15)" font-family="sans-serif" font-size="10px" fill="#000" opacity="1">8</text><text text-anchor="middle" transform="translate(427.7777777777778,15)" font-family="sans-serif" font-size="10px" fill="#000" opacity="1">9</text><text text-anchor="middle" transform="translate(466.66666666666663,15)" font-family="sans-serif" font-size="10px" fill="#000" opacity="1">10</text><text text-anchor="middle" transform="translate(505.55555555555554,15)" font-family="sans-serif" font-size="10px" fill="#000" opacity="1">11</text><text text-anchor="middle" transform="translate(544.4444444444445,15)" font-family="sans-serif" font-size="10px" fill="#000" opacity="1">12</text><text text-anchor="middle" transform="translate(583.3333333333334,15)" font-family="sans-serif" font-size="10px" fill="#000" opacity="1">13</text><text text-anchor="middle" transform="translate(622.2222222222222,15)" font-family="sans-serif" font-size="10px" fill="#000" opacity="1">14</text><text text-anchor="middle" transform="translate(661.1111111111111,15)" font-family="sans-serif" font-size="10px" fill="#000" opacity="1">15</text><text text-anchor="end" transform="translate(700,15)" font-family="sans-serif" font-size="10px" fill="#000" opacity="1">16</text></g><g class="mark-rule role-axis-domain" pointer-events="none"><line transform="translate(0,0)" x2="700" y2="0" stroke="#888" stroke-width="1" opacity="1"></line></g><g class="mark-text role-axis-title" pointer-events="none"><text text-anchor="middle" transform="translate(350,30)" font-family="sans-serif" font-size="11px" font-weight="bold" fill="#000" opacity="1">Weighted percentage w/ COVID-like illness, CI 0.95</text></g></g><path class="foreground" aria-hidden="true" d="" pointer-events="none" display="none"></path></g></g><g class="mark-group role-axis" role="graphics-symbol" aria-roledescription="axis" aria-label="Y-axis titled 'States' for a discrete scale with 27 values: Acre, Alagoas, Amapá, Amazonas, Bahia, ending with Tocantins"><g transform="translate(0.5,0.5)"><path class="background" aria-hidden="true" d="M0,0h0v0h0Z" pointer-events="none"></path><g><g class="mark-rule role-axis-tick" pointer-events="none"><line transform="translate(0,10)" x2="-5" y2="0" stroke="#888" stroke-width="1" opacity="1"></line><line transform="translate(0,30)" x2="-5" y2="0" stroke="#888" stroke-width="1" opacity="1"></line><line transform="translate(0,50)" x2="-5" y2="0" stroke="#888" stroke-width="1" opacity="1"></line><line transform="translate(0,70)" x2="-5" y2="0" stroke="#888" stroke-width="1" opacity="1"></line><line transform="translate(0,90)" x2="-5" y2="0" stroke="#888" stroke-width="1" opacity="1"></line><line transform="translate(0,110)" x2="-5" y2="0" stroke="#888" stroke-width="1" opacity="1"></line><line transform="translate(0,130)" x2="-5" y2="0" stroke="#888" stroke-width="1" opacity="1"></line><line transform="translate(0,150)" x2="-5" y2="0" stroke="#888" stroke-width="1" opacity="1"></line><line transform="translate(0,170)" x2="-5" y2="0" stroke="#888" stroke-width="1" opacity="1"></line><line transform="translate(0,190)" x2="-5" y2="0" stroke="#888" stroke-width="1" opacity="1"></line><line transform="translate(0,210)" x2="-5" y2="0" stroke="#888" stroke-width="1" opacity="1"></line><line transform="translate(0,230)" x2="-5" y2="0" stroke="#888" stroke-width="1" opacity="1"></line><line transform="translate(0,250)" x2="-5" y2="0" stroke="#888" stroke-width="1" opacity="1"></line><line transform="translate(0,270)" x2="-5" y2="0" stroke="#888" stroke-width="1" opacity="1"></line><line transform="translate(0,290)" x2="-5" y2="0" stroke="#888" stroke-width="1" opacity="1"></line><line transform="translate(0,310)" x2="-5" y2="0" stroke="#888" stroke-width="1" opacity="1"></line><line transform="translate(0,330)" x2="-5" y2="0" stroke="#888" stroke-width="1" opacity="1"></line><line transform="translate(0,350)" x2="-5" y2="0" stroke="#888" stroke-width="1" opacity="1"></line><line transform="translate(0,370)" x2="-5" y2="0" stroke="#888" stroke-width="1" opacity="1"></line><line transform="translate(0,390)" x2="-5" y2="0" stroke="#888" stroke-width="1" opacity="1"></line><line transform="translate(0,410)" x2="-5" y2="0" stroke="#888" stroke-width="1" opacity="1"></line><line transform="translate(0,430)" x2="-5" y2="0" stroke="#888" stroke-width="1" opacity="1"></line><line transform="translate(0,450)" x2="-5" y2="0" stroke="#888" stroke-width="1" opacity="1"></line><line transform="translate(0,470)" x2="-5" y2="0" stroke="#888" stroke-width="1" opacity="1"></line><line transform="translate(0,490)" x2="-5" y2="0" stroke="#888" stroke-width="1" opacity="1"></line><line transform="translate(0,510)" x2="-5" y2="0" stroke="#888" stroke-width="1" opacity="1"></line><line transform="translate(0,530)" x2="-5" y2="0" stroke="#888" stroke-width="1" opacity="1"></line></g><g class="mark-text role-axis-label" pointer-events="none"><text text-anchor="end" transform="translate(-7,12.5)" font-family="sans-serif" font-size="10px" fill="#000" opacity="1">Acre</text><text text-anchor="end" transform="translate(-7,32.5)" font-family="sans-serif" font-size="10px" fill="#000" opacity="1">Alagoas</text><text text-anchor="end" transform="translate(-7,52.5)" font-family="sans-serif" font-size="10px" fill="#000" opacity="1">Amapá</text><text text-anchor="end" transform="translate(-7,72.5)" font-family="sans-serif" font-size="10px" fill="#000" opacity="1">Amazonas</text><text text-anchor="end" transform="translate(-7,92.5)" font-family="sans-serif" font-size="10px" fill="#000" opacity="1">Bahia</text><text text-anchor="end" transform="translate(-7,112.5)" font-family="sans-serif" font-size="10px" fill="#000" opacity="1">Ceará</text><text text-anchor="end" transform="translate(-7,132.5)" font-family="sans-serif" font-size="10px" fill="#000" opacity="1">Distrito Federal</text><text text-anchor="end" transform="translate(-7,152.5)" font-family="sans-serif" font-size="10px" fill="#000" opacity="1">Espírito Santo</text><text text-anchor="end" transform="translate(-7,172.5)" font-family="sans-serif" font-size="10px" fill="#000" opacity="1">Goiás</text><text text-anchor="end" transform="translate(-7,192.5)" font-family="sans-serif" font-size="10px" fill="#000" opacity="1">Maranhão</text><text text-anchor="end" transform="translate(-7,212.5)" font-family="sans-serif" font-size="10px" fill="#000" opacity="1">Mato Grosso</text><text text-anchor="end" transform="translate(-7,232.5)" font-family="sans-serif" font-size="10px" fill="#000" opacity="1">Mato Grosso do Sul</text><text text-anchor="end" transform="translate(-7,252.5)" font-family="sans-serif" font-size="10px" fill="#000" opacity="1">Minas Gerais</text><text text-anchor="end" transform="translate(-7,272.5)" font-family="sans-serif" font-size="10px" fill="#000" opacity="1">Paraná</text><text text-anchor="end" transform="translate(-7,292.5)" font-family="sans-serif" font-size="10px" fill="#000" opacity="1">Paraíba</text><text text-anchor="end" transform="translate(-7,312.5)" font-family="sans-serif" font-size="10px" fill="#000" opacity="1">Pará</text><text text-anchor="end" transform="translate(-7,332.5)" font-family="sans-serif" font-size="10px" fill="#000" opacity="1">Pernambuco</text><text text-anchor="end" transform="translate(-7,352.5)" font-family="sans-serif" font-size="10px" fill="#000" opacity="1">Piauí</text><text text-anchor="end" transform="translate(-7,372.5)" font-family="sans-serif" font-size="10px" fill="#000" opacity="1">Rio Grande do Norte</text><text text-anchor="end" transform="translate(-7,392.5)" font-family="sans-serif" font-size="10px" fill="#000" opacity="1">Rio Grande do Sul</text><text text-anchor="end" transform="translate(-7,412.5)" font-family="sans-serif" font-size="10px" fill="#000" opacity="1">Rio de Janeiro</text><text text-anchor="end" transform="translate(-7,432.5)" font-family="sans-serif" font-size="10px" fill="#000" opacity="1">Rondônia</text><text text-anchor="end" transform="translate(-7,452.5)" font-family="sans-serif" font-size="10px" fill="#000" opacity="1">Roraima</text><text text-anchor="end" transform="translate(-7,472.5)" font-family="sans-serif" font-size="10px" fill="#000" opacity="1">Santa Catarina</text><text text-anchor="end" transform="translate(-7,492.5)" font-family="sans-serif" font-size="10px" fill="#000" opacity="1">Sergipe</text><text text-anchor="end" transform="translate(-7,512.5)" font-family="sans-serif" font-size="10px" fill="#000" opacity="1">São Paulo</text><text text-anchor="end" transform="translate(-7,532.5)" font-family="sans-serif" font-size="10px" fill="#000" opacity="1">Tocantins</text></g><g class="mark-rule role-axis-domain" pointer-events="none"><line transform="translate(0,0)" x2="0" y2="540" stroke="#888" stroke-width="1" opacity="1"></line></g><g class="mark-text role-axis-title" pointer-events="none"><text text-anchor="middle" transform="translate(-163,270) rotate(-90) translate(0,-2)" font-family="sans-serif" font-size="11px" font-weight="bold" fill="#000" opacity="1">States</text></g></g><path class="foreground" aria-hidden="true" d="" pointer-events="none" display="none"></path></g></g><g class="mark-symbol role-mark layer_0_marks" role="graphics-object" aria-roledescription="symbol mark container"><path aria-label="Weighted percentage w/ COVID-like illness: 7.5218; States: Acre" role="graphics-symbol" aria-roledescription="point" transform="translate(370.29222222222216,10)" d="M2.7386127875258306,0A2.7386127875258306,2.7386127875258306,0,1,1,-2.7386127875258306,0A2.7386127875258306,2.7386127875258306,0,1,1,2.7386127875258306,0" stroke="#4c78a8" stroke-width="2" opacity="0.7"></path><path aria-label="Weighted percentage w/ COVID-like illness: 7.1773; States: Roraima" role="graphics-symbol" aria-roledescription="point" transform="translate(356.89500000000004,450)" d="M2.7386127875258306,0A2.7386127875258306,2.7386127875258306,0,1,1,-2.7386127875258306,0A2.7386127875258306,2.7386127875258306,0,1,1,2.7386127875258306,0" stroke="#4c78a8" stroke-width="2" opacity="0.7"></path><path aria-label="Weighted percentage w/ COVID-like illness: 6.7946; States: Amapá" role="graphics-symbol" aria-roledescription="point" transform="translate(342.01222222222225,50)" d="M2.7386127875258306,0A2.7386127875258306,2.7386127875258306,0,1,1,-2.7386127875258306,0A2.7386127875258306,2.7386127875258306,0,1,1,2.7386127875258306,0" stroke="#4c78a8" stroke-width="2" opacity="0.7"></path><path aria-label="Weighted percentage w/ COVID-like illness: 5.7326; States: Pará" role="graphics-symbol" aria-roledescription="point" transform="translate(300.71222222222224,310)" d="M2.7386127875258306,0A2.7386127875258306,2.7386127875258306,0,1,1,-2.7386127875258306,0A2.7386127875258306,2.7386127875258306,0,1,1,2.7386127875258306,0" stroke="#4c78a8" stroke-width="2" opacity="0.7"></path><path aria-label="Weighted percentage w/ COVID-like illness: 5.1481; States: Amazonas" role="graphics-symbol" aria-roledescription="point" transform="translate(277.9816666666666,70)" d="M2.7386127875258306,0A2.7386127875258306,2.7386127875258306,0,1,1,-2.7386127875258306,0A2.7386127875258306,2.7386127875258306,0,1,1,2.7386127875258306,0" stroke="#4c78a8" stroke-width="2" opacity="0.7"></path><path aria-label="Weighted percentage w/ COVID-like illness: 4.6664; States: Mato Grosso do Sul" role="graphics-symbol" aria-roledescription="point" transform="translate(259.24888888888887,230)" d="M2.7386127875258306,0A2.7386127875258306,2.7386127875258306,0,1,1,-2.7386127875258306,0A2.7386127875258306,2.7386127875258306,0,1,1,2.7386127875258306,0" stroke="#4c78a8" stroke-width="2" opacity="0.7"></path><path aria-label="Weighted percentage w/ COVID-like illness: 4.019; States: Pernambuco" role="graphics-symbol" aria-roledescription="point" transform="translate(234.0722222222222,330)" d="M2.7386127875258306,0A2.7386127875258306,2.7386127875258306,0,1,1,-2.7386127875258306,0A2.7386127875258306,2.7386127875258306,0,1,1,2.7386127875258306,0" stroke="#4c78a8" stroke-width="2" opacity="0.7"></path><path aria-label="Weighted percentage w/ COVID-like illness: 3.858; States: Mato Grosso" role="graphics-symbol" aria-roledescription="point" transform="translate(227.81111111111113,210)" d="M2.7386127875258306,0A2.7386127875258306,2.7386127875258306,0,1,1,-2.7386127875258306,0A2.7386127875258306,2.7386127875258306,0,1,1,2.7386127875258306,0" stroke="#4c78a8" stroke-width="2" opacity="0.7"></path><path aria-label="Weighted percentage w/ COVID-like illness: 3.816; States: Espírito Santo" role="graphics-symbol" aria-roledescription="point" transform="translate(226.17777777777778,150)" d="M2.7386127875258306,0A2.7386127875258306,2.7386127875258306,0,1,1,-2.7386127875258306,0A2.7386127875258306,2.7386127875258306,0,1,1,2.7386127875258306,0" stroke="#4c78a8" stroke-width="2" opacity="0.7"></path><path aria-label="Weighted percentage w/ COVID-like illness: 3.6985; States: Ceará" role="graphics-symbol" aria-roledescription="point" transform="translate(221.6083333333333,110)" d="M2.7386127875258306,0A2.7386127875258306,2.7386127875258306,0,1,1,-2.7386127875258306,0A2.7386127875258306,2.7386127875258306,0,1,1,2.7386127875258306,0" stroke="#4c78a8" stroke-width="2" opacity="0.7"></path><path aria-label="Weighted percentage w/ COVID-like illness: 3.6223; States: Rondônia" role="graphics-symbol" aria-roledescription="point" transform="translate(218.64499999999998,430)" d="M2.7386127875258306,0A2.7386127875258306,2.7386127875258306,0,1,1,-2.7386127875258306,0A2.7386127875258306,2.7386127875258306,0,1,1,2.7386127875258306,0" stroke="#4c78a8" stroke-width="2" opacity="0.7"></path><path aria-label="Weighted percentage w/ COVID-like illness: 3.3775; States: Maranhão" role="graphics-symbol" aria-roledescription="point" transform="translate(209.12499999999997,190)" d="M2.7386127875258306,0A2.7386127875258306,2.7386127875258306,0,1,1,-2.7386127875258306,0A2.7386127875258306,2.7386127875258306,0,1,1,2.7386127875258306,0" stroke="#4c78a8" stroke-width="2" opacity="0.7"></path><path aria-label="Weighted percentage w/ COVID-like illness: 3.3344; States: Rio Grande do Norte" role="graphics-symbol" aria-roledescription="point" transform="translate(207.44888888888892,370)" d="M2.7386127875258306,0A2.7386127875258306,2.7386127875258306,0,1,1,-2.7386127875258306,0A2.7386127875258306,2.7386127875258306,0,1,1,2.7386127875258306,0" stroke="#4c78a8" stroke-width="2" opacity="0.7"></path><path aria-label="Weighted percentage w/ COVID-like illness: 3.2176; States: Bahia" role="graphics-symbol" aria-roledescription="point" transform="translate(202.9066666666667,90)" d="M2.7386127875258306,0A2.7386127875258306,2.7386127875258306,0,1,1,-2.7386127875258306,0A2.7386127875258306,2.7386127875258306,0,1,1,2.7386127875258306,0" stroke="#4c78a8" stroke-width="2" opacity="0.7"></path><path aria-label="Weighted percentage w/ COVID-like illness: 3.1575; States: Sergipe" role="graphics-symbol" aria-roledescription="point" transform="translate(200.56944444444443,490)" d="M2.7386127875258306,0A2.7386127875258306,2.7386127875258306,0,1,1,-2.7386127875258306,0A2.7386127875258306,2.7386127875258306,0,1,1,2.7386127875258306,0" stroke="#4c78a8" stroke-width="2" opacity="0.7"></path><path aria-label="Weighted percentage w/ COVID-like illness: 3.0719; States: Alagoas" role="graphics-symbol" aria-roledescription="point" transform="translate(197.24055555555555,30)" d="M2.7386127875258306,0A2.7386127875258306,2.7386127875258306,0,1,1,-2.7386127875258306,0A2.7386127875258306,2.7386127875258306,0,1,1,2.7386127875258306,0" stroke="#4c78a8" stroke-width="2" opacity="0.7"></path><path aria-label="Weighted percentage w/ COVID-like illness: 2.8001; States: Distrito Federal" role="graphics-symbol" aria-roledescription="point" transform="translate(186.67055555555558,130)" d="M2.7386127875258306,0A2.7386127875258306,2.7386127875258306,0,1,1,-2.7386127875258306,0A2.7386127875258306,2.7386127875258306,0,1,1,2.7386127875258306,0" stroke="#4c78a8" stroke-width="2" opacity="0.7"></path><path aria-label="Weighted percentage w/ COVID-like illness: 2.5163; States: Goiás" role="graphics-symbol" aria-roledescription="point" transform="translate(175.6338888888889,170)" d="M2.7386127875258306,0A2.7386127875258306,2.7386127875258306,0,1,1,-2.7386127875258306,0A2.7386127875258306,2.7386127875258306,0,1,1,2.7386127875258306,0" stroke="#4c78a8" stroke-width="2" opacity="0.7"></path><path aria-label="Weighted percentage w/ COVID-like illness: 2.4634; States: Paraíba" role="graphics-symbol" aria-roledescription="point" transform="translate(173.57666666666665,290)" d="M2.7386127875258306,0A2.7386127875258306,2.7386127875258306,0,1,1,-2.7386127875258306,0A2.7386127875258306,2.7386127875258306,0,1,1,2.7386127875258306,0" stroke="#4c78a8" stroke-width="2" opacity="0.7"></path><path aria-label="Weighted percentage w/ COVID-like illness: 2.2248; States: Rio Grande do Sul" role="graphics-symbol" aria-roledescription="point" transform="translate(164.29777777777778,390)" d="M2.7386127875258306,0A2.7386127875258306,2.7386127875258306,0,1,1,-2.7386127875258306,0A2.7386127875258306,2.7386127875258306,0,1,1,2.7386127875258306,0" stroke="#4c78a8" stroke-width="2" opacity="0.7"></path><path aria-label="Weighted percentage w/ COVID-like illness: 1.8522; States: Rio de Janeiro" role="graphics-symbol" aria-roledescription="point" transform="translate(149.80777777777777,410)" d="M2.7386127875258306,0A2.7386127875258306,2.7386127875258306,0,1,1,-2.7386127875258306,0A2.7386127875258306,2.7386127875258306,0,1,1,2.7386127875258306,0" stroke="#4c78a8" stroke-width="2" opacity="0.7"></path><path aria-label="Weighted percentage w/ COVID-like illness: 1.6693; States: São Paulo" role="graphics-symbol" aria-roledescription="point" transform="translate(142.695,510)" d="M2.7386127875258306,0A2.7386127875258306,2.7386127875258306,0,1,1,-2.7386127875258306,0A2.7386127875258306,2.7386127875258306,0,1,1,2.7386127875258306,0" stroke="#4c78a8" stroke-width="2" opacity="0.7"></path><path aria-label="Weighted percentage w/ COVID-like illness: 1.5553; States: Tocantins" role="graphics-symbol" aria-roledescription="point" transform="translate(138.26166666666668,530)" d="M2.7386127875258306,0A2.7386127875258306,2.7386127875258306,0,1,1,-2.7386127875258306,0A2.7386127875258306,2.7386127875258306,0,1,1,2.7386127875258306,0" stroke="#4c78a8" stroke-width="2" opacity="0.7"></path><path aria-label="Weighted percentage w/ COVID-like illness: 1.5085; States: Minas Gerais" role="graphics-symbol" aria-roledescription="point" transform="translate(136.44166666666666,250)" d="M2.7386127875258306,0A2.7386127875258306,2.7386127875258306,0,1,1,-2.7386127875258306,0A2.7386127875258306,2.7386127875258306,0,1,1,2.7386127875258306,0" stroke="#4c78a8" stroke-width="2" opacity="0.7"></path><path aria-label="Weighted percentage w/ COVID-like illness: 1.4519; States: Paraná" role="graphics-symbol" aria-roledescription="point" transform="translate(134.24055555555557,270)" d="M2.7386127875258306,0A2.7386127875258306,2.7386127875258306,0,1,1,-2.7386127875258306,0A2.7386127875258306,2.7386127875258306,0,1,1,2.7386127875258306,0" stroke="#4c78a8" stroke-width="2" opacity="0.7"></path><path aria-label="Weighted percentage w/ COVID-like illness: 1.0983; States: Santa Catarina" role="graphics-symbol" aria-roledescription="point" transform="translate(120.48944444444444,470)" d="M2.7386127875258306,0A2.7386127875258306,2.7386127875258306,0,1,1,-2.7386127875258306,0A2.7386127875258306,2.7386127875258306,0,1,1,2.7386127875258306,0" stroke="#4c78a8" stroke-width="2" opacity="0.7"></path><path aria-label="Weighted percentage w/ COVID-like illness: 0.9908; States: Piauí" role="graphics-symbol" aria-roledescription="point" transform="translate(116.30888888888889,350)" d="M2.7386127875258306,0A2.7386127875258306,2.7386127875258306,0,1,1,-2.7386127875258306,0A2.7386127875258306,2.7386127875258306,0,1,1,2.7386127875258306,0" stroke="#4c78a8" stroke-width="2" opacity="0.7"></path></g><g class="mark-rule role-mark layer_1_marks" role="graphics-object" aria-roledescription="rule mark container"><line aria-label="CI 0.95: 0.651216; upper_percent_cli_lower: 14.392384; region: Acre; percent_cli_upper: 14.392384; percent_cli_lower: 0.651216" role="graphics-symbol" aria-roledescription="errorbar" transform="translate(103.1028444444444,10)" x2="534.3787555555556" y2="0" stroke="blue" stroke-width="0.6"></line><line aria-label="CI 0.95: 1.20126; upper_percent_cli_lower: 13.15334; region: Roraima; percent_cli_upper: 13.15334; percent_cli_lower: 1.20126" role="graphics-symbol" aria-roledescription="errorbar" transform="translate(124.49344444444446,450)" x2="464.8031111111111" y2="0" stroke="blue" stroke-width="0.6"></line><line aria-label="CI 0.95: 1.1204; upper_percent_cli_lower: 12.4688; region: Amapá; percent_cli_upper: 12.4688; percent_cli_lower: 1.1204" role="graphics-symbol" aria-roledescription="errorbar" transform="translate(121.34888888888892,50)" x2="441.3266666666666" y2="0" stroke="blue" stroke-width="0.6"></line><line aria-label="CI 0.95: 2.963708; upper_percent_cli_lower: 8.501492; region: Pará; percent_cli_upper: 8.501492; percent_cli_lower: 2.963708" role="graphics-symbol" aria-roledescription="errorbar" transform="translate(193.03308888888893,310)" x2="215.35826666666662" y2="0" stroke="blue" stroke-width="0.6"></line><line aria-label="CI 0.95: 1.629508; upper_percent_cli_lower: 8.666692; region: Amazonas; percent_cli_upper: 8.666692; percent_cli_lower: 1.629508" role="graphics-symbol" aria-roledescription="errorbar" transform="translate(141.14753333333334,70)" x2="273.6682666666666" y2="0" stroke="blue" stroke-width="0.6"></line><line aria-label="CI 0.95: 1.56666; upper_percent_cli_lower: 7.76614; region: Mato Grosso do Sul; percent_cli_upper: 7.76614; percent_cli_lower: 1.56666" role="graphics-symbol" aria-roledescription="errorbar" transform="translate(138.70344444444444,230)" x2="241.09088888888888" y2="0" stroke="blue" stroke-width="0.6"></line><line aria-label="CI 0.95: 1.639168; upper_percent_cli_lower: 6.398832; region: Pernambuco; percent_cli_upper: 6.398832; percent_cli_lower: 1.639168" role="graphics-symbol" aria-roledescription="errorbar" transform="translate(141.5232,330)" x2="185.09804444444447" y2="0" stroke="blue" stroke-width="0.6"></line><line aria-label="CI 0.95: 1.488948; upper_percent_cli_lower: 6.227052; region: Mato Grosso; percent_cli_upper: 6.227052; percent_cli_lower: 1.488948" role="graphics-symbol" aria-roledescription="errorbar" transform="translate(135.68131111111114,210)" x2="184.25959999999998" y2="0" stroke="blue" stroke-width="0.6"></line><line aria-label="CI 0.95: 1.299752; upper_percent_cli_lower: 6.332248; region: Espírito Santo; percent_cli_upper: 6.332248; percent_cli_lower: 1.299752" role="graphics-symbol" aria-roledescription="errorbar" transform="translate(128.32368888888888,150)" x2="195.70817777777782" y2="0" stroke="blue" stroke-width="0.6"></line><line aria-label="CI 0.95: 1.775348; upper_percent_cli_lower: 5.621652; region: Ceará; percent_cli_upper: 5.621652; percent_cli_lower: 1.775348" role="graphics-symbol" aria-roledescription="errorbar" transform="translate(146.8190888888889,110)" x2="149.57848888888887" y2="0" stroke="blue" stroke-width="0.6"></line><line aria-label="CI 0.95: 0.301472; upper_percent_cli_lower: 6.943128; region: Rondônia; percent_cli_upper: 6.943128; percent_cli_lower: 0.301472" role="graphics-symbol" aria-roledescription="errorbar" transform="translate(89.50168888888889,430)" x2="258.2866222222222" y2="0" stroke="blue" stroke-width="0.6"></line><line aria-label="CI 0.95: 0.760704; upper_percent_cli_lower: 5.994296; region: Maranhão; percent_cli_upper: 5.994296; percent_cli_lower: 0.760704" role="graphics-symbol" aria-roledescription="errorbar" transform="translate(107.36071111111112,190)" x2="203.52857777777774" y2="0" stroke="blue" stroke-width="0.6"></line><line aria-label="CI 0.95: 0.751316; upper_percent_cli_lower: 5.917484; region: Rio Grande do Norte; percent_cli_upper: 5.917484; percent_cli_lower: 0.751316" role="graphics-symbol" aria-roledescription="errorbar" transform="translate(106.99562222222221,370)" x2="200.90653333333336" y2="0" stroke="blue" stroke-width="0.6"></line><line aria-label="CI 0.95: 1.516908; upper_percent_cli_lower: 4.918292; region: Bahia; percent_cli_upper: 4.918292; percent_cli_lower: 1.516908" role="graphics-symbol" aria-roledescription="errorbar" transform="translate(136.76864444444445,90)" x2="132.27604444444447" y2="0" stroke="blue" stroke-width="0.6"></line><line aria-label="CI 0.95: -0.571988; upper_percent_cli_lower: 6.886988; region: Sergipe; percent_cli_upper: 6.886988; percent_cli_lower: -0.571988" role="graphics-symbol" aria-roledescription="errorbar" transform="translate(55.533800000000014,490)" x2="290.07128888888883" y2="0" stroke="blue" stroke-width="0.6"></line><line aria-label="CI 0.95: 0.080156; upper_percent_cli_lower: 6.063644; region: Alagoas; percent_cli_upper: 6.063644; percent_cli_lower: 0.080156" role="graphics-symbol" aria-roledescription="errorbar" transform="translate(80.89495555555557,30)" x2="232.69119999999998" y2="0" stroke="blue" stroke-width="0.6"></line><line aria-label="CI 0.95: 0.887924; upper_percent_cli_lower: 4.712276; region: Distrito Federal; percent_cli_upper: 4.712276; percent_cli_lower: 0.887924" role="graphics-symbol" aria-roledescription="errorbar" transform="translate(112.30815555555554,130)" x2="148.72480000000004" y2="0" stroke="blue" stroke-width="0.6"></line><line aria-label="CI 0.95: 1.04728; upper_percent_cli_lower: 3.98532; region: Goiás; percent_cli_upper: 3.98532; percent_cli_lower: 1.04728" role="graphics-symbol" aria-roledescription="errorbar" transform="translate(118.50533333333334,170)" x2="114.25711111111107" y2="0" stroke="blue" stroke-width="0.6"></line><line aria-label="CI 0.95: 0.212732; upper_percent_cli_lower: 4.714068; region: Paraíba; percent_cli_upper: 4.714068; percent_cli_lower: 0.212732" role="graphics-symbol" aria-roledescription="errorbar" transform="translate(86.05068888888889,290)" x2="175.05195555555554" y2="0" stroke="blue" stroke-width="0.6"></line><line aria-label="CI 0.95: 1.25362; upper_percent_cli_lower: 3.19598; region: Rio Grande do Sul; percent_cli_upper: 3.19598; percent_cli_lower: 1.25362" role="graphics-symbol" aria-roledescription="errorbar" transform="translate(126.52966666666667,390)" x2="75.53622222222218" y2="0" stroke="blue" stroke-width="0.6"></line><line aria-label="CI 0.95: 0.938056; upper_percent_cli_lower: 2.766344; region: Rio de Janeiro; percent_cli_upper: 2.766344; percent_cli_lower: 0.938056" role="graphics-symbol" aria-roledescription="errorbar" transform="translate(114.25773333333333,410)" x2="71.1000888888889" y2="0" stroke="blue" stroke-width="0.6"></line><line aria-label="CI 0.95: 1.193216; upper_percent_cli_lower: 2.145384; region: São Paulo; percent_cli_upper: 2.145384; percent_cli_lower: 1.193216" role="graphics-symbol" aria-roledescription="errorbar" transform="translate(124.1806222222222,510)" x2="37.02875555555558" y2="0" stroke="blue" stroke-width="0.6"></line><line aria-label="CI 0.95: -1.302968; upper_percent_cli_lower: 4.413568; region: Tocantins; percent_cli_upper: 4.413568; percent_cli_lower: -1.302968" role="graphics-symbol" aria-roledescription="errorbar" transform="translate(27.106800000000007,530)" x2="222.30973333333333" y2="0" stroke="blue" stroke-width="0.6"></line><line aria-label="CI 0.95: 0.720188; upper_percent_cli_lower: 2.296812; region: Minas Gerais; percent_cli_upper: 2.296812; percent_cli_lower: 0.720188" role="graphics-symbol" aria-roledescription="errorbar" transform="translate(105.78508888888888,250)" x2="61.31315555555557" y2="0" stroke="blue" stroke-width="0.6"></line><line aria-label="CI 0.95: 0.593028; upper_percent_cli_lower: 2.310772; region: Paraná; percent_cli_upper: 2.310772; percent_cli_lower: 0.593028" role="graphics-symbol" aria-roledescription="errorbar" transform="translate(100.83997777777779,270)" x2="66.80115555555554" y2="0" stroke="blue" stroke-width="0.6"></line><line aria-label="CI 0.95: 0.146524; upper_percent_cli_lower: 2.050076; region: Santa Catarina; percent_cli_upper: 2.050076; percent_cli_lower: 0.146524" role="graphics-symbol" aria-roledescription="errorbar" transform="translate(83.47593333333333,470)" x2="74.02702222222223" y2="0" stroke="blue" stroke-width="0.6"></line><line aria-label="CI 0.95: -0.78398; upper_percent_cli_lower: 2.76558; region: Piauí; percent_cli_upper: 2.76558; percent_cli_lower: -0.78398" role="graphics-symbol" aria-roledescription="errorbar" transform="translate(47.289666666666655,350)" x2="138.03844444444448" y2="0" stroke="blue" stroke-width="0.6"></line></g><g class="mark-group role-title"><g transform="translate(350,-17)"><path class="background" aria-hidden="true" d="M0,0h0v0h0Z" pointer-events="none"></path><g><g class="mark-text role-title-text" role="graphics-symbol" aria-roledescription="title" aria-label="Title text 'Facebook COVID-like illness symptom survey (last available date) for all states in Brazil'" pointer-events="none"><text text-anchor="middle" transform="translate(0,10)" font-family="sans-serif" font-size="13px" font-weight="bold" fill="#000" opacity="1">Facebook COVID-like illness symptom survey (last available date) for all states in Brazil</text></g></g><path class="foreground" aria-hidden="true" d="" pointer-events="none" display="none"></path></g></g></g><path class="foreground" aria-hidden="true" d="" display="none"></path></g></g></g></svg>