<svg class="marks" width="749" height="600" viewBox="0 0 749 600" version="1.1" xmlns="http://www.w3.org/2000/svg" xmlns:xlink="http://www.w3.org/1999/xlink"><rect width="749" height="600" fill="white"></rect><g fill="none" stroke-miterlimit="10" transform="translate(43,23)"><g class="mark-group role-frame root" role="graphics-object" aria-roledescription="group mark container"><g transform="translate(0,0)"><path class="background" aria-hidden="true" d="M0.5,0.5h700v540h-700Z"></path><g><g class="mark-group role-axis" aria-hidden="true"><g transform="translate(0.5,0.5)"><path class="background" aria-hidden="true" d="M0,0h0v0h0Z" pointer-events="none"></path><g><g class="mark-rule role-axis-grid" pointer-events="none"><line transform="translate(0,10)" x2="700" y2="0" stroke="#ddd" stroke-width="1" opacity="1"></line><line transform="translate(0,30)" x2="700" y2="0" stroke="#ddd" stroke-width="1" opacity="1"></line><line transform="translate(0,50)" x2="700" y2="0" stroke="#ddd" stroke-width="1" opacity="1"></line><line transform="translate(0,70)" x2="700" y2="0" stroke="#ddd" stroke-width="1" opacity="1"></line><line transform="translate(0,90)" x2="700" y2="0" stroke="#ddd" stroke-width="1" opacity="1"></line><line transform="translate(0,110)" x2="700" y2="0" stroke="#ddd" stroke-width="1" opacity="1"></line><line transform="translate(0,130)" x2="700" y2="0" stroke="#ddd" stroke-width="1" opacity="1"></line><line transform="translate(0,150)" x2="700" y2="0" stroke="#ddd" stroke-width="1" opacity="1"></line><line transform="translate(0,170)" x2="700" y2="0" stroke="#ddd" stroke-width="1" opacity="1"></line><line transform="translate(0,190)" x2="700" y2="0" stroke="#ddd" stroke-width="1" opacity="1"></line><line transform="translate(0,210)" x2="700" y2="0" stroke="#ddd" stroke-width="1" opacity="1"></line><line transform="translate(0,230)" x2="700" y2="0" stroke="#ddd" stroke-width="1" opacity="1"></line><line transform="translate(0,250)" x2="700" y2="0" stroke="#ddd" stroke-width="1" opacity="1"></line><line transform="translate(0,270)" x2="700" y2="0" stroke="#ddd" stroke-width="1" opacity="1"></line><line transform="translate(0,290)" x2="700" y2="0" stroke="#ddd" stroke-width="1" opacity="1"></line><line transform="translate(0,310)" x2="700" y2="0" stroke="#ddd" stroke-width="1" opacity="1"></line><line transform="translate(0,330)" x2="700" y2="0" stroke="#ddd" stroke-width="1" opacity="1"></line><line transform="translate(0,350)" x2="700" y2="0" stroke="#ddd" stroke-width="1" opacity="1"></line><line transform="translate(0,370)" x2="700" y2="0" stroke="#ddd" stroke-width="1" opacity="1"></line><line transform="translate(0,390)" x2="700" y2="0" stroke="#ddd" stroke-width="1" opacity="1"></line><line transform="translate(0,410)" x2="700" y2="0" stroke="#ddd" stroke-width="1" opacity="1"></line><line transform="translate(0,430)" x2="700" y2="0" stroke="#ddd" stroke-width="1" opacity="1"></line><line transform="translate(0,450)" x2="700" y2="0" stroke="#ddd" stroke-width="1" opacity="1"></line><line transform="translate(0,470)" x2="700" y2="0" stroke="#ddd" stroke-width="1" opacity="1"></line><line transform="translate(0,490)" x2="700" y2="0" stroke="#ddd" stroke-width="1" opacity="1"></line><line transform="translate(0,510)" x2="700" y2="0" stroke="#ddd" stroke-width="1" opacity="1"></line><line transform="translate(0,530)" x2="700" y2="0" stroke="#ddd" stroke-width="1" opacity="1"></line></g></g><path class="foreground" aria-hidden="true" d="" pointer-events="none" display="none"></path></g></g><g class="mark-group role-axis" role="graphics-symbol" aria-roledescription="axis" aria-label="X-axis titled 'Instantaneous reproduction number R(t), CI 0.975' for a linear scale with values from 0.2 to 1.4"><g transform="translate(0.5,540.5)"><path class="background" aria-hidden="true" d="M0,0h0v0h0Z" pointer-events="none"></path><g><g class="mark-rule role-axis-tick" pointer-events="none"><line transform="translate(0,0)" x2="0" y2="5" stroke="#888" stroke-width="1" opacity="1"></line><line transform="translate(29,0)" x2="0" y2="5" stroke="#888" stroke-width="1" opacity="1"></line><line transform="translate(58,0)" x2="0" y2="5" stroke="#888" stroke-width="1" opacity="1"></line><line transform="translate(87,0)" x2="0" y2="5" stroke="#888" stroke-width="1" opacity="1"></line><line transform="translate(117,0)" x2="0" y2="5" stroke="#888" stroke-width="1" opacity="1"></line><line transform="translate(146,0)" x2="0" y2="5" stroke="#888" stroke-width="1" opacity="1"></line><line transform="translate(175,0)" x2="0" y2="5" stroke="#888" stroke-width="1" opacity="1"></line><line transform="translate(204,0)" x2="0" y2="5" stroke="#888" stroke-width="1" opacity="1"></line><line transform="translate(233,0)" x2="0" y2="5" stroke="#888" stroke-width="1" opacity="1"></line><line transform="translate(263,0)" x2="0" y2="5" stroke="#888" stroke-width="1" opacity="1"></line><line transform="translate(292,0)" x2="0" y2="5" stroke="#888" stroke-width="1" opacity="1"></line><line transform="translate(321,0)" x2="0" y2="5" stroke="#888" stroke-width="1" opacity="1"></line><line transform="translate(350,0)" x2="0" y2="5" stroke="#888" stroke-width="1" opacity="1"></line><line transform="translate(379,0)" x2="0" y2="5" stroke="#888" stroke-width="1" opacity="1"></line><line transform="translate(408,0)" x2="0" y2="5" stroke="#888" stroke-width="1" opacity="1"></line><line transform="translate(438,0)" x2="0" y2="5" stroke="#888" stroke-width="1" opacity="1"></line><line transform="translate(467,0)" x2="0" y2="5" stroke="#888" stroke-width="1" opacity="1"></line><line transform="translate(496,0)" x2="0" y2="5" stroke="#888" stroke-width="1" opacity="1"></line><line transform="translate(525,0)" x2="0" y2="5" stroke="#888" stroke-width="1" opacity="1"></line><line transform="translate(554,0)" x2="0" y2="5" stroke="#888" stroke-width="1" opacity="1"></line><line transform="translate(583,0)" x2="0" y2="5" stroke="#888" stroke-width="1" opacity="1"></line><line transform="translate(613,0)" x2="0" y2="5" stroke="#888" stroke-width="1" opacity="1"></line><line transform="translate(642,0)" x2="0" y2="5" stroke="#888" stroke-width="1" opacity="1"></line><line transform="translate(671,0)" x2="0" y2="5" stroke="#888" stroke-width="1" opacity="1"></line><line transform="translate(700,0)" x2="0" y2="5" stroke="#888" stroke-width="1" opacity="1"></line></g><g class="mark-text role-axis-label" pointer-events="none"><text text-anchor="start" transform="translate(0,15)" font-family="sans-serif" font-size="10px" fill="#000" opacity="1">0.20</text><text text-anchor="middle" transform="translate(29.16666666666666,15)" font-family="sans-serif" font-size="10px" fill="#000" opacity="0">0.25</text><text text-anchor="middle" transform="translate(58.33333333333332,15)" font-family="sans-serif" font-size="10px" fill="#000" opacity="1">0.30</text><text text-anchor="middle" transform="translate(87.49999999999999,15)" font-family="sans-serif" font-size="10px" fill="#000" opacity="0">0.35</text><text text-anchor="middle" transform="translate(116.66666666666669,15)" font-family="sans-serif" font-size="10px" fill="#000" opacity="1">0.40</text><text text-anchor="middle" transform="translate(145.83333333333334,15)" font-family="sans-serif" font-size="10px" fill="#000" opacity="0">0.45</text><text text-anchor="middle" transform="translate(175,15)" font-family="sans-serif" font-size="10px" fill="#000" opacity="1">0.50</text><text text-anchor="middle" transform="translate(204.16666666666669,15)" font-family="sans-serif" font-size="10px" fill="#000" opacity="0">0.55</text><text text-anchor="middle" transform="translate(233.33333333333331,15)" font-family="sans-serif" font-size="10px" fill="#000" opacity="1">0.60</text><text text-anchor="middle" transform="translate(262.5,15)" font-family="sans-serif" font-size="10px" fill="#000" opacity="0">0.65</text><text text-anchor="middle" transform="translate(291.66666666666663,15)" font-family="sans-serif" font-size="10px" fill="#000" opacity="1">0.70</text><text text-anchor="middle" transform="translate(320.83333333333337,15)" font-family="sans-serif" font-size="10px" fill="#000" opacity="0">0.75</text><text text-anchor="middle" transform="translate(350.00000000000006,15)" font-family="sans-serif" font-size="10px" fill="#000" opacity="1">0.80</text><text text-anchor="middle" transform="translate(379.16666666666663,15)" font-family="sans-serif" font-size="10px" fill="#000" opacity="0">0.85</text><text text-anchor="middle" transform="translate(408.33333333333337,15)" font-family="sans-serif" font-size="10px" fill="#000" opacity="1">0.90</text><text text-anchor="middle" transform="translate(437.5,15)" font-family="sans-serif" font-size="10px" fill="#000" opacity="0">0.95</text><text text-anchor="middle" transform="translate(466.66666666666674,15)" font-family="sans-serif" font-size="10px" fill="#000" opacity="1">1.00</text><text text-anchor="middle" transform="translate(495.8333333333334,15)" font-family="sans-serif" font-size="10px" fill="#000" opacity="0">1.05</text><text text-anchor="middle" transform="translate(525.0000000000001,15)" font-family="sans-serif" font-size="10px" fill="#000" opacity="1">1.10</text><text text-anchor="middle" transform="translate(554.1666666666666,15)" font-family="sans-serif" font-size="10px" fill="#000" opacity="0">1.15</text><text text-anchor="middle" transform="translate(583.3333333333334,15)" font-family="sans-serif" font-size="10px" fill="#000" opacity="1">1.20</text><text text-anchor="middle" transform="translate(612.5000000000001,15)" font-family="sans-serif" font-size="10px" fill="#000" opacity="0">1.25</text><text text-anchor="middle" transform="translate(641.6666666666667,15)" font-family="sans-serif" font-size="10px" fill="#000" opacity="1">1.30</text><text text-anchor="middle" transform="translate(670.8333333333335,15)" font-family="sans-serif" font-size="10px" fill="#000" opacity="0">1.35</text><text text-anchor="end" transform="translate(700,15)" font-family="sans-serif" font-size="10px" fill="#000" opacity="1">1.40</text></g><g class="mark-rule role-axis-domain" pointer-events="none"><line transform="translate(0,0)" x2="700" y2="0" stroke="#888" stroke-width="1" opacity="1"></line></g><g class="mark-text role-axis-title" pointer-events="none"><text text-anchor="middle" transform="translate(350,30)" font-family="sans-serif" font-size="11px" font-weight="bold" fill="#000" opacity="1">Instantaneous reproduction number R(t), CI 0.975</text></g></g><path class="foreground" aria-hidden="true" d="" pointer-events="none" display="none"></path></g></g><g class="mark-group role-axis" role="graphics-symbol" aria-roledescription="axis" aria-label="Y-axis titled 'States' for a discrete scale with 27 values: AC, AL, AM, AP, BA, ending with TO"><g transform="translate(0.5,0.5)"><path class="background" aria-hidden="true" d="M0,0h0v0h0Z" pointer-events="none"></path><g><g class="mark-rule role-axis-tick" pointer-events="none"><line transform="translate(0,10)" x2="-5" y2="0" stroke="#888" stroke-width="1" opacity="1"></line><line transform="translate(0,30)" x2="-5" y2="0" stroke="#888" stroke-width="1" opacity="1"></line><line transform="translate(0,50)" x2="-5" y2="0" stroke="#888" stroke-width="1" opacity="1"></line><line transform="translate(0,70)" x2="-5" y2="0" stroke="#888" stroke-width="1" opacity="1"></line><line transform="translate(0,90)" x2="-5" y2="0" stroke="#888" stroke-width="1" opacity="1"></line><line transform="translate(0,110)" x2="-5" y2="0" stroke="#888" stroke-width="1" opacity="1"></line><line transform="translate(0,130)" x2="-5" y2="0" stroke="#888" stroke-width="1" opacity="1"></line><line transform="translate(0,150)" x2="-5" y2="0" stroke="#888" stroke-width="1" opacity="1"></line><line transform="translate(0,170)" x2="-5" y2="0" stroke="#888" stroke-width="1" opacity="1"></line><line transform="translate(0,190)" x2="-5" y2="0" stroke="#888" stroke-width="1" opacity="1"></line><line transform="translate(0,210)" x2="-5" y2="0" stroke="#888" stroke-width="1" opacity="1"></line><line transform="translate(0,230)" x2="-5" y2="0" stroke="#888" stroke-width="1" opacity="1"></line><line transform="translate(0,250)" x2="-5" y2="0" stroke="#888" stroke-width="1" opacity="1"></line><line transform="translate(0,270)" x2="-5" y2="0" stroke="#888" stroke-width="1" opacity="1"></line><line transform="translate(0,290)" x2="-5" y2="0" stroke="#888" stroke-width="1" opacity="1"></line><line transform="translate(0,310)" x2="-5" y2="0" stroke="#888" stroke-width="1" opacity="1"></line><line transform="translate(0,330)" x2="-5" y2="0" stroke="#888" stroke-width="1" opacity="1"></line><line transform="translate(0,350)" x2="-5" y2="0" stroke="#888" stroke-width="1" opacity="1"></line><line transform="translate(0,370)" x2="-5" y2="0" stroke="#888" stroke-width="1" opacity="1"></line><line transform="translate(0,390)" x2="-5" y2="0" stroke="#888" stroke-width="1" opacity="1"></line><line transform="translate(0,410)" x2="-5" y2="0" stroke="#888" stroke-width="1" opacity="1"></line><line transform="translate(0,430)" x2="-5" y2="0" stroke="#888" stroke-width="1" opacity="1"></line><line transform="translate(0,450)" x2="-5" y2="0" stroke="#888" stroke-width="1" opacity="1"></line><line transform="translate(0,470)" x2="-5" y2="0" stroke="#888" stroke-width="1" opacity="1"></line><line transform="translate(0,490)" x2="-5" y2="0" stroke="#888" stroke-width="1" opacity="1"></line><line transform="translate(0,510)" x2="-5" y2="0" stroke="#888" stroke-width="1" opacity="1"></line><line transform="translate(0,530)" x2="-5" y2="0" stroke="#888" stroke-width="1" opacity="1"></line></g><g class="mark-text role-axis-label" pointer-events="none"><text text-anchor="end" transform="translate(-7,12.5)" font-family="sans-serif" font-size="10px" fill="#000" opacity="1">AC</text><text text-anchor="end" transform="translate(-7,32.5)" font-family="sans-serif" font-size="10px" fill="#000" opacity="1">AL</text><text text-anchor="end" transform="translate(-7,52.5)" font-family="sans-serif" font-size="10px" fill="#000" opacity="1">AM</text><text text-anchor="end" transform="translate(-7,72.5)" font-family="sans-serif" font-size="10px" fill="#000" opacity="1">AP</text><text text-anchor="end" transform="translate(-7,92.5)" font-family="sans-serif" font-size="10px" fill="#000" opacity="1">BA</text><text text-anchor="end" transform="translate(-7,112.5)" font-family="sans-serif" font-size="10px" fill="#000" opacity="1">CE</text><text text-anchor="end" transform="translate(-7,132.5)" font-family="sans-serif" font-size="10px" fill="#000" opacity="1">DF</text><text text-anchor="end" transform="translate(-7,152.5)" font-family="sans-serif" font-size="10px" fill="#000" opacity="1">ES</text><text text-anchor="end" transform="translate(-7,172.5)" font-family="sans-serif" font-size="10px" fill="#000" opacity="1">GO</text><text text-anchor="end" transform="translate(-7,192.5)" font-family="sans-serif" font-size="10px" fill="#000" opacity="1">MA</text><text text-anchor="end" transform="translate(-7,212.5)" font-family="sans-serif" font-size="10px" fill="#000" opacity="1">MG</text><text text-anchor="end" transform="translate(-7,232.5)" font-family="sans-serif" font-size="10px" fill="#000" opacity="1">MS</text><text text-anchor="end" transform="translate(-7,252.5)" font-family="sans-serif" font-size="10px" fill="#000" opacity="1">MT</text><text text-anchor="end" transform="translate(-7,272.5)" font-family="sans-serif" font-size="10px" fill="#000" opacity="1">PA</text><text text-anchor="end" transform="translate(-7,292.5)" font-family="sans-serif" font-size="10px" fill="#000" opacity="1">PB</text><text text-anchor="end" transform="translate(-7,312.5)" font-family="sans-serif" font-size="10px" fill="#000" opacity="1">PE</text><text text-anchor="end" transform="translate(-7,332.5)" font-family="sans-serif" font-size="10px" fill="#000" opacity="1">PI</text><text text-anchor="end" transform="translate(-7,352.5)" font-family="sans-serif" font-size="10px" fill="#000" opacity="1">PR</text><text text-anchor="end" transform="translate(-7,372.5)" font-family="sans-serif" font-size="10px" fill="#000" opacity="1">RJ</text><text text-anchor="end" transform="translate(-7,392.5)" font-family="sans-serif" font-size="10px" fill="#000" opacity="1">RN</text><text text-anchor="end" transform="translate(-7,412.5)" font-family="sans-serif" font-size="10px" fill="#000" opacity="1">RO</text><text text-anchor="end" transform="translate(-7,432.5)" font-family="sans-serif" font-size="10px" fill="#000" opacity="1">RR</text><text text-anchor="end" transform="translate(-7,452.5)" font-family="sans-serif" font-size="10px" fill="#000" opacity="1">RS</text><text text-anchor="end" transform="translate(-7,472.5)" font-family="sans-serif" font-size="10px" fill="#000" opacity="1">SC</text><text text-anchor="end" transform="translate(-7,492.5)" font-family="sans-serif" font-size="10px" fill="#000" opacity="1">SE</text><text text-anchor="end" transform="translate(-7,512.5)" font-family="sans-serif" font-size="10px" fill="#000" opacity="1">SP</text><text text-anchor="end" transform="translate(-7,532.5)" font-family="sans-serif" font-size="10px" fill="#000" opacity="1">TO</text></g><g class="mark-rule role-axis-domain" pointer-events="none"><line transform="translate(0,0)" x2="0" y2="540" stroke="#888" stroke-width="1" opacity="1"></line></g><g class="mark-text role-axis-title" pointer-events="none"><text text-anchor="middle" transform="translate(-27,270) rotate(-90) translate(0,-2)" font-family="sans-serif" font-size="11px" font-weight="bold" fill="#000" opacity="1">States</text></g></g><path class="foreground" aria-hidden="true" d="" pointer-events="none" display="none"></path></g></g><g class="mark-symbol role-mark layer_0_marks" role="graphics-object" aria-roledescription="symbol mark container"><path aria-label="Instantaneous reproduction number R(t): 0.322659334773; States: SC" role="graphics-symbol" aria-roledescription="point" transform="translate(71.55127861734896,470)" d="M2.7386127875258306,0A2.7386127875258306,2.7386127875258306,0,1,1,-2.7386127875258306,0A2.7386127875258306,2.7386127875258306,0,1,1,2.7386127875258306,0" stroke="#4c78a8" stroke-width="2" opacity="0.7"></path><path aria-label="Instantaneous reproduction number R(t): 0.522278292544; States: RJ" role="graphics-symbol" aria-roledescription="point" transform="translate(187.99567065081015,370)" d="M2.7386127875258306,0A2.7386127875258306,2.7386127875258306,0,1,1,-2.7386127875258306,0A2.7386127875258306,2.7386127875258306,0,1,1,2.7386127875258306,0" stroke="#4c78a8" stroke-width="2" opacity="0.7"></path><path aria-label="Instantaneous reproduction number R(t): 0.682184027847; States: PE" role="graphics-symbol" aria-roledescription="point" transform="translate(281.27401624429274,310)" d="M2.7386127875258306,0A2.7386127875258306,2.7386127875258306,0,1,1,-2.7386127875258306,0A2.7386127875258306,2.7386127875258306,0,1,1,2.7386127875258306,0" stroke="#4c78a8" stroke-width="2" opacity="0.7"></path><path aria-label="Instantaneous reproduction number R(t): 0.733273415058; States: AL" role="graphics-symbol" aria-roledescription="point" transform="translate(311.07615878360815,30)" d="M2.7386127875258306,0A2.7386127875258306,2.7386127875258306,0,1,1,-2.7386127875258306,0A2.7386127875258306,2.7386127875258306,0,1,1,2.7386127875258306,0" stroke="#4c78a8" stroke-width="2" opacity="0.7"></path><path aria-label="Instantaneous reproduction number R(t): 0.77411489773; States: AC" role="graphics-symbol" aria-roledescription="point" transform="translate(334.90035700913955,10)" d="M2.7386127875258306,0A2.7386127875258306,2.7386127875258306,0,1,1,-2.7386127875258306,0A2.7386127875258306,2.7386127875258306,0,1,1,2.7386127875258306,0" stroke="#4c78a8" stroke-width="2" opacity="0.7"></path><path aria-label="Instantaneous reproduction number R(t): 0.780589617905; States: BA" role="graphics-symbol" aria-roledescription="point" transform="translate(338.67727711139656,90)" d="M2.7386127875258306,0A2.7386127875258306,2.7386127875258306,0,1,1,-2.7386127875258306,0A2.7386127875258306,2.7386127875258306,0,1,1,2.7386127875258306,0" stroke="#4c78a8" stroke-width="2" opacity="0.7"></path><path aria-label="Instantaneous reproduction number R(t): 0.789552495636; States: SP" role="graphics-symbol" aria-roledescription="point" transform="translate(343.90562245412826,510)" d="M2.7386127875258306,0A2.7386127875258306,2.7386127875258306,0,1,1,-2.7386127875258306,0A2.7386127875258306,2.7386127875258306,0,1,1,2.7386127875258306,0" stroke="#4c78a8" stroke-width="2" opacity="0.7"></path><path aria-label="Instantaneous reproduction number R(t): 0.798397960757; States: AM" role="graphics-symbol" aria-roledescription="point" transform="translate(349.0654771082806,50)" d="M2.7386127875258306,0A2.7386127875258306,2.7386127875258306,0,1,1,-2.7386127875258306,0A2.7386127875258306,2.7386127875258306,0,1,1,2.7386127875258306,0" stroke="#4c78a8" stroke-width="2" opacity="0.7"></path><path aria-label="Instantaneous reproduction number R(t): 0.80385905616; States: SE" role="graphics-symbol" aria-roledescription="point" transform="translate(352.251116093167,490)" d="M2.7386127875258306,0A2.7386127875258306,2.7386127875258306,0,1,1,-2.7386127875258306,0A2.7386127875258306,2.7386127875258306,0,1,1,2.7386127875258306,0" stroke="#4c78a8" stroke-width="2" opacity="0.7"></path><path aria-label="Instantaneous reproduction number R(t): 0.812789997981; States: AP" role="graphics-symbol" aria-roledescription="point" transform="translate(357.46083215565443,70)" d="M2.7386127875258306,0A2.7386127875258306,2.7386127875258306,0,1,1,-2.7386127875258306,0A2.7386127875258306,2.7386127875258306,0,1,1,2.7386127875258306,0" stroke="#4c78a8" stroke-width="2" opacity="0.7"></path><path aria-label="Instantaneous reproduction number R(t): 0.825052349586; States: PB" role="graphics-symbol" aria-roledescription="point" transform="translate(364.61387059169004,290)" d="M2.7386127875258306,0A2.7386127875258306,2.7386127875258306,0,1,1,-2.7386127875258306,0A2.7386127875258306,2.7386127875258306,0,1,1,2.7386127875258306,0" stroke="#4c78a8" stroke-width="2" opacity="0.7"></path><path aria-label="Instantaneous reproduction number R(t): 0.828761699201; States: RN" role="graphics-symbol" aria-roledescription="point" transform="translate(366.77765786737433,390)" d="M2.7386127875258306,0A2.7386127875258306,2.7386127875258306,0,1,1,-2.7386127875258306,0A2.7386127875258306,2.7386127875258306,0,1,1,2.7386127875258306,0" stroke="#4c78a8" stroke-width="2" opacity="0.7"></path><path aria-label="Instantaneous reproduction number R(t): 0.834470858449; States: TO" role="graphics-symbol" aria-roledescription="point" transform="translate(370.10800076194505,530)" d="M2.7386127875258306,0A2.7386127875258306,2.7386127875258306,0,1,1,-2.7386127875258306,0A2.7386127875258306,2.7386127875258306,0,1,1,2.7386127875258306,0" stroke="#4c78a8" stroke-width="2" opacity="0.7"></path><path aria-label="Instantaneous reproduction number R(t): 0.843935570951; States: PA" role="graphics-symbol" aria-roledescription="point" transform="translate(375.6290830546843,270)" d="M2.7386127875258306,0A2.7386127875258306,2.7386127875258306,0,1,1,-2.7386127875258306,0A2.7386127875258306,2.7386127875258306,0,1,1,2.7386127875258306,0" stroke="#4c78a8" stroke-width="2" opacity="0.7"></path><path aria-label="Instantaneous reproduction number R(t): 0.847626938594; States: MA" role="graphics-symbol" aria-roledescription="point" transform="translate(377.78238084638895,190)" d="M2.7386127875258306,0A2.7386127875258306,2.7386127875258306,0,1,1,-2.7386127875258306,0A2.7386127875258306,2.7386127875258306,0,1,1,2.7386127875258306,0" stroke="#4c78a8" stroke-width="2" opacity="0.7"></path><path aria-label="Instantaneous reproduction number R(t): 0.848444699409; States: MG" role="graphics-symbol" aria-roledescription="point" transform="translate(378.2594079888396,210)" d="M2.7386127875258306,0A2.7386127875258306,2.7386127875258306,0,1,1,-2.7386127875258306,0A2.7386127875258306,2.7386127875258306,0,1,1,2.7386127875258306,0" stroke="#4c78a8" stroke-width="2" opacity="0.7"></path><path aria-label="Instantaneous reproduction number R(t): 0.850985664055; States: PR" role="graphics-symbol" aria-roledescription="point" transform="translate(379.74163736518864,350)" d="M2.7386127875258306,0A2.7386127875258306,2.7386127875258306,0,1,1,-2.7386127875258306,0A2.7386127875258306,2.7386127875258306,0,1,1,2.7386127875258306,0" stroke="#4c78a8" stroke-width="2" opacity="0.7"></path><path aria-label="Instantaneous reproduction number R(t): 0.856799870027; States: MT" role="graphics-symbol" aria-roledescription="point" transform="translate(383.13325751577287,250)" d="M2.7386127875258306,0A2.7386127875258306,2.7386127875258306,0,1,1,-2.7386127875258306,0A2.7386127875258306,2.7386127875258306,0,1,1,2.7386127875258306,0" stroke="#4c78a8" stroke-width="2" opacity="0.7"></path><path aria-label="Instantaneous reproduction number R(t): 0.865516354719; States: DF" role="graphics-symbol" aria-roledescription="point" transform="translate(388.2178735858871,130)" d="M2.7386127875258306,0A2.7386127875258306,2.7386127875258306,0,1,1,-2.7386127875258306,0A2.7386127875258306,2.7386127875258306,0,1,1,2.7386127875258306,0" stroke="#4c78a8" stroke-width="2" opacity="0.7"></path><path aria-label="Instantaneous reproduction number R(t): 0.869073982054; States: RR" role="graphics-symbol" aria-roledescription="point" transform="translate(390.2931561982229,430)" d="M2.7386127875258306,0A2.7386127875258306,2.7386127875258306,0,1,1,-2.7386127875258306,0A2.7386127875258306,2.7386127875258306,0,1,1,2.7386127875258306,0" stroke="#4c78a8" stroke-width="2" opacity="0.7"></path><path aria-label="Instantaneous reproduction number R(t): 0.871619115975; States: RO" role="graphics-symbol" aria-roledescription="point" transform="translate(391.77781765194646,410)" d="M2.7386127875258306,0A2.7386127875258306,2.7386127875258306,0,1,1,-2.7386127875258306,0A2.7386127875258306,2.7386127875258306,0,1,1,2.7386127875258306,0" stroke="#4c78a8" stroke-width="2" opacity="0.7"></path><path aria-label="Instantaneous reproduction number R(t): 0.895609671721; States: MS" role="graphics-symbol" aria-roledescription="point" transform="translate(405.7723085037958,230)" d="M2.7386127875258306,0A2.7386127875258306,2.7386127875258306,0,1,1,-2.7386127875258306,0A2.7386127875258306,2.7386127875258306,0,1,1,2.7386127875258306,0" stroke="#4c78a8" stroke-width="2" opacity="0.7"></path><path aria-label="Instantaneous reproduction number R(t): 0.900708313758; States: ES" role="graphics-symbol" aria-roledescription="point" transform="translate(408.746516359003,150)" d="M2.7386127875258306,0A2.7386127875258306,2.7386127875258306,0,1,1,-2.7386127875258306,0A2.7386127875258306,2.7386127875258306,0,1,1,2.7386127875258306,0" stroke="#4c78a8" stroke-width="2" opacity="0.7"></path><path aria-label="Instantaneous reproduction number R(t): 0.92915545969; States: GO" role="graphics-symbol" aria-roledescription="point" transform="translate(425.34068481935805,170)" d="M2.7386127875258306,0A2.7386127875258306,2.7386127875258306,0,1,1,-2.7386127875258306,0A2.7386127875258306,2.7386127875258306,0,1,1,2.7386127875258306,0" stroke="#4c78a8" stroke-width="2" opacity="0.7"></path><path aria-label="Instantaneous reproduction number R(t): 0.933749538134; States: RS" role="graphics-symbol" aria-roledescription="point" transform="translate(428.02056391156196,450)" d="M2.7386127875258306,0A2.7386127875258306,2.7386127875258306,0,1,1,-2.7386127875258306,0A2.7386127875258306,2.7386127875258306,0,1,1,2.7386127875258306,0" stroke="#4c78a8" stroke-width="2" opacity="0.7"></path><path aria-label="Instantaneous reproduction number R(t): 0.948100906435; States: PI" role="graphics-symbol" aria-roledescription="point" transform="translate(436.39219542020476,330)" d="M2.7386127875258306,0A2.7386127875258306,2.7386127875258306,0,1,1,-2.7386127875258306,0A2.7386127875258306,2.7386127875258306,0,1,1,2.7386127875258306,0" stroke="#4c78a8" stroke-width="2" opacity="0.7"></path><path aria-label="Instantaneous reproduction number R(t): 1.16847985295; States: CE" role="graphics-symbol" aria-roledescription="point" transform="translate(564.9465808870266,110)" d="M2.7386127875258306,0A2.7386127875258306,2.7386127875258306,0,1,1,-2.7386127875258306,0A2.7386127875258306,2.7386127875258306,0,1,1,2.7386127875258306,0" stroke="#4c78a8" stroke-width="2" opacity="0.7"></path></g><g class="mark-rule role-mark layer_1_marks" role="graphics-object" aria-roledescription="rule mark container"><line aria-label="a: 1" role="graphics-symbol" aria-roledescription="rule mark" transform="translate(466.66666666666674,0)" x2="0" y2="540" stroke="black" stroke-width="0.2"></line><line aria-label="a: 1" role="graphics-symbol" aria-roledescription="rule mark" transform="translate(466.66666666666674,0)" x2="0" y2="540" stroke="black" stroke-width="0.2"></line><line aria-label="a: 1" role="graphics-symbol" aria-roledescription="rule mark" transform="translate(466.66666666666674,0)" x2="0" y2="540" stroke="black" stroke-width="0.2"></line><line aria-label="a: 1" role="graphics-symbol" aria-roledescription="rule mark" transform="translate(466.66666666666674,0)" x2="0" y2="540" stroke="black" stroke-width="0.2"></line><line aria-label="a: 1" role="graphics-symbol" aria-roledescription="rule mark" transform="translate(466.66666666666674,0)" x2="0" y2="540" stroke="black" stroke-width="0.2"></line><line aria-label="a: 1" role="graphics-symbol" aria-roledescription="rule mark" transform="translate(466.66666666666674,0)" x2="0" y2="540" stroke="black" stroke-width="0.2"></line><line aria-label="a: 1" role="graphics-symbol" aria-roledescription="rule mark" transform="translate(466.66666666666674,0)" x2="0" y2="540" stroke="black" stroke-width="0.2"></line><line aria-label="a: 1" role="graphics-symbol" aria-roledescription="rule mark" transform="translate(466.66666666666674,0)" x2="0" y2="540" stroke="black" stroke-width="0.2"></line><line aria-label="a: 1" role="graphics-symbol" aria-roledescription="rule mark" transform="translate(466.66666666666674,0)" x2="0" y2="540" stroke="black" stroke-width="0.2"></line><line aria-label="a: 1" role="graphics-symbol" aria-roledescription="rule mark" transform="translate(466.66666666666674,0)" x2="0" y2="540" stroke="black" stroke-width="0.2"></line><line aria-label="a: 1" role="graphics-symbol" aria-roledescription="rule mark" transform="translate(466.66666666666674,0)" x2="0" y2="540" stroke="black" stroke-width="0.2"></line><line aria-label="a: 1" role="graphics-symbol" aria-roledescription="rule mark" transform="translate(466.66666666666674,0)" x2="0" y2="540" stroke="black" stroke-width="0.2"></line><line aria-label="a: 1" role="graphics-symbol" aria-roledescription="rule mark" transform="translate(466.66666666666674,0)" x2="0" y2="540" stroke="black" stroke-width="0.2"></line><line aria-label="a: 1" role="graphics-symbol" aria-roledescription="rule mark" transform="translate(466.66666666666674,0)" x2="0" y2="540" stroke="black" stroke-width="0.2"></line><line aria-label="a: 1" role="graphics-symbol" aria-roledescription="rule mark" transform="translate(466.66666666666674,0)" x2="0" y2="540" stroke="black" stroke-width="0.2"></line><line aria-label="a: 1" role="graphics-symbol" aria-roledescription="rule mark" transform="translate(466.66666666666674,0)" x2="0" y2="540" stroke="black" stroke-width="0.2"></line><line aria-label="a: 1" role="graphics-symbol" aria-roledescription="rule mark" transform="translate(466.66666666666674,0)" x2="0" y2="540" stroke="black" stroke-width="0.2"></line><line aria-label="a: 1" role="graphics-symbol" aria-roledescription="rule mark" transform="translate(466.66666666666674,0)" x2="0" y2="540" stroke="black" stroke-width="0.2"></line><line aria-label="a: 1" role="graphics-symbol" aria-roledescription="rule mark" transform="translate(466.66666666666674,0)" x2="0" y2="540" stroke="black" stroke-width="0.2"></line><line aria-label="a: 1" role="graphics-symbol" aria-roledescription="rule mark" transform="translate(466.66666666666674,0)" x2="0" y2="540" stroke="black" stroke-width="0.2"></line><line aria-label="a: 1" role="graphics-symbol" aria-roledescription="rule mark" transform="translate(466.66666666666674,0)" x2="0" y2="540" stroke="black" stroke-width="0.2"></line><line aria-label="a: 1" role="graphics-symbol" aria-roledescription="rule mark" transform="translate(466.66666666666674,0)" x2="0" y2="540" stroke="black" stroke-width="0.2"></line><line aria-label="a: 1" role="graphics-symbol" aria-roledescription="rule mark" transform="translate(466.66666666666674,0)" x2="0" y2="540" stroke="black" stroke-width="0.2"></line><line aria-label="a: 1" role="graphics-symbol" aria-roledescription="rule mark" transform="translate(466.66666666666674,0)" x2="0" y2="540" stroke="black" stroke-width="0.2"></line><line aria-label="a: 1" role="graphics-symbol" aria-roledescription="rule mark" transform="translate(466.66666666666674,0)" x2="0" y2="540" stroke="black" stroke-width="0.2"></line><line aria-label="a: 1" role="graphics-symbol" aria-roledescription="rule mark" transform="translate(466.66666666666674,0)" x2="0" y2="540" stroke="black" stroke-width="0.2"></line><line aria-label="a: 1" role="graphics-symbol" aria-roledescription="rule mark" transform="translate(466.66666666666674,0)" x2="0" y2="540" stroke="black" stroke-width="0.2"></line></g><g class="mark-rule role-mark layer_2_marks" role="graphics-object" aria-roledescription="rule mark container"><line aria-label="CI 0.975: 0.254698682898; upper_Quantile.0.025(R): 0.437275970544; index: SC; Quantile.0.975(R): 0.437275970544; Quantile.0.025(R): 0.254698682898" role="graphics-symbol" aria-roledescription="errorbar" transform="translate(31.907565023674476,470)" x2="106.50341779348615" y2="0" stroke="blue" stroke-width="0.6"></line><line aria-label="CI 0.975: 0.483102659002; upper_Quantile.0.025(R): 0.581988985585; index: RJ; Quantile.0.975(R): 0.581988985585; Quantile.0.025(R): 0.483102659002" role="graphics-symbol" aria-roledescription="errorbar" transform="translate(165.14321775115786,370)" x2="57.68369050690396" y2="0" stroke="blue" stroke-width="0.6"></line><line aria-label="CI 0.975: 0.639079357293; upper_Quantile.0.025(R): 0.743182365074; index: PE; Quantile.0.975(R): 0.743182365074; Quantile.0.025(R): 0.639079357293" role="graphics-symbol" aria-roledescription="errorbar" transform="translate(256.12962508779617,310)" x2="60.726754538949535" y2="0" stroke="blue" stroke-width="0.6"></line><line aria-label="CI 0.975: 0.681048143424; upper_Quantile.0.025(R): 0.78629921428; index: AL; Quantile.0.975(R): 0.78629921428; Quantile.0.025(R): 0.681048143424" role="graphics-symbol" aria-roledescription="errorbar" transform="translate(280.6114169971806,30)" x2="61.3964579995158" y2="0" stroke="blue" stroke-width="0.6"></line><line aria-label="CI 0.975: 0.709218428713; upper_Quantile.0.025(R): 0.844027374999; index: AC; Quantile.0.975(R): 0.844027374999; Quantile.0.025(R): 0.709218428713" role="graphics-symbol" aria-roledescription="errorbar" transform="translate(297.04408341573065,10)" x2="78.63855200031963" y2="0" stroke="blue" stroke-width="0.6"></line><line aria-label="CI 0.975: 0.743467372775; upper_Quantile.0.025(R): 0.821385443923; index: BA; Quantile.0.975(R): 0.821385443923; Quantile.0.025(R): 0.743467372775" role="graphics-symbol" aria-roledescription="errorbar" transform="translate(317.02263411849157,90)" x2="45.45220817016747" y2="0" stroke="blue" stroke-width="0.6"></line><line aria-label="CI 0.975: 0.778804856061; upper_Quantile.0.025(R): 0.807895883269; index: SP; Quantile.0.975(R): 0.807895883269; Quantile.0.025(R): 0.778804856061" role="graphics-symbol" aria-roledescription="errorbar" transform="translate(337.6361660358261,510)" x2="16.969765871153697" y2="0" stroke="blue" stroke-width="0.6"></line><line aria-label="CI 0.975: 0.747070391766; upper_Quantile.0.025(R): 0.852637254979; index: AM; Quantile.0.975(R): 0.852637254979; Quantile.0.025(R): 0.747070391766" role="graphics-symbol" aria-roledescription="errorbar" transform="translate(319.1243951968296,50)" x2="61.58067020734916" y2="0" stroke="blue" stroke-width="0.6"></line><line aria-label="CI 0.975: 0.739511611883; upper_Quantile.0.025(R): 0.871500986668; index: SE; Quantile.0.975(R): 0.871500986668; Quantile.0.025(R): 0.739511611883" role="graphics-symbol" aria-roledescription="errorbar" transform="translate(314.7151069320414,490)" x2="76.99380195753969" y2="0" stroke="blue" stroke-width="0.6"></line><line aria-label="CI 0.975: 0.760916772286; upper_Quantile.0.025(R): 0.873200364978; index: AP; Quantile.0.975(R): 0.873200364978; Quantile.0.025(R): 0.760916772286" role="graphics-symbol" aria-roledescription="errorbar" transform="translate(327.20145050027656,70)" x2="65.49876240380911" y2="0" stroke="blue" stroke-width="0.6"></line><line aria-label="CI 0.975: 0.786592287187; upper_Quantile.0.025(R): 0.872134649153; index: PB; Quantile.0.975(R): 0.872134649153; Quantile.0.025(R): 0.786592287187" role="graphics-symbol" aria-roledescription="errorbar" transform="translate(342.17883419269293,290)" x2="49.8997111463496" y2="0" stroke="blue" stroke-width="0.6"></line><line aria-label="CI 0.975: 0.789008250091; upper_Quantile.0.025(R): 0.86953447137; index: RN; Quantile.0.975(R): 0.86953447137; Quantile.0.025(R): 0.789008250091" role="graphics-symbol" aria-roledescription="errorbar" transform="translate(343.5881458864544,390)" x2="46.973629079099055" y2="0" stroke="blue" stroke-width="0.6"></line><line aria-label="CI 0.975: 0.795315550119; upper_Quantile.0.025(R): 0.877792247127; index: TO; Quantile.0.975(R): 0.877792247127; Quantile.0.025(R): 0.795315550119" role="graphics-symbol" aria-roledescription="errorbar" transform="translate(347.26740423611255,530)" x2="48.111406588022305" y2="0" stroke="blue" stroke-width="0.6"></line><line aria-label="CI 0.975: 0.81596307911; upper_Quantile.0.025(R): 0.873156379302; index: PA; Quantile.0.975(R): 0.873156379302; Quantile.0.025(R): 0.81596307911" role="graphics-symbol" aria-roledescription="errorbar" transform="translate(359.31179614751693,270)" x2="33.36275844539318" y2="0" stroke="blue" stroke-width="0.6"></line><line aria-label="CI 0.975: 0.824569443163; upper_Quantile.0.025(R): 0.871666768998; index: MA; Quantile.0.975(R): 0.871666768998; Quantile.0.025(R): 0.824569443163" role="graphics-symbol" aria-roledescription="errorbar" transform="translate(364.3321751785852,190)" x2="27.473440070173183" y2="0" stroke="blue" stroke-width="0.6"></line><line aria-label="CI 0.975: 0.832327390024; upper_Quantile.0.025(R): 0.867011974212; index: MG; Quantile.0.975(R): 0.867011974212; Quantile.0.025(R): 0.832327390024" role="graphics-symbol" aria-roledescription="errorbar" transform="translate(368.857644180515,210)" x2="20.232674109625805" y2="0" stroke="blue" stroke-width="0.6"></line><line aria-label="CI 0.975: 0.823964850609; upper_Quantile.0.025(R): 0.879651463074; index: PR; Quantile.0.975(R): 0.879651463074; Quantile.0.025(R): 0.823964850609" role="graphics-symbol" aria-roledescription="errorbar" transform="translate(363.9794961886032,350)" x2="32.48385727125401" y2="0" stroke="blue" stroke-width="0.6"></line><line aria-label="CI 0.975: 0.815198726142; upper_Quantile.0.025(R): 0.903438892016; index: MT; Quantile.0.975(R): 0.903438892016; Quantile.0.025(R): 0.815198726142" role="graphics-symbol" aria-roledescription="errorbar" transform="translate(358.86592358292353,250)" x2="51.47343009302415" y2="0" stroke="blue" stroke-width="0.6"></line><line aria-label="CI 0.975: 0.829042956382; upper_Quantile.0.025(R): 0.899858645915; index: DF; Quantile.0.975(R): 0.899858645915; Quantile.0.025(R): 0.829042956382" role="graphics-symbol" aria-roledescription="errorbar" transform="translate(366.9417245561632,130)" x2="41.30915222756602" y2="0" stroke="blue" stroke-width="0.6"></line><line aria-label="CI 0.975: 0.823887171467; upper_Quantile.0.025(R): 0.915450456957; index: RR; Quantile.0.975(R): 0.915450456957; Quantile.0.025(R): 0.823887171467" role="graphics-symbol" aria-roledescription="errorbar" transform="translate(363.93418335553037,430)" x2="53.4119165361887" y2="0" stroke="blue" stroke-width="0.6"></line><line aria-label="CI 0.975: 0.835706473981; upper_Quantile.0.025(R): 0.91234641116; index: RO; Quantile.0.975(R): 0.91234641116; Quantile.0.025(R): 0.835706473981" role="graphics-symbol" aria-roledescription="errorbar" transform="translate(370.8287764886902,410)" x2="44.706630021580224" y2="0" stroke="blue" stroke-width="0.6"></line><line aria-label="CI 0.975: 0.861626765699; upper_Quantile.0.025(R): 0.934979858463; index: MS; Quantile.0.975(R): 0.934979858463; Quantile.0.025(R): 0.861626765699" role="graphics-symbol" aria-roledescription="errorbar" transform="translate(385.9489466579196,230)" x2="42.789304112023046" y2="0" stroke="blue" stroke-width="0.6"></line><line aria-label="CI 0.975: 0.869182074983; upper_Quantile.0.025(R): 0.933542028302; index: ES; Quantile.0.975(R): 0.933542028302; Quantile.0.025(R): 0.869182074983" role="graphics-symbol" aria-roledescription="errorbar" transform="translate(390.35621040685544,150)" x2="37.543306102544875" y2="0" stroke="blue" stroke-width="0.6"></line><line aria-label="CI 0.975: 0.905580482174; upper_Quantile.0.025(R): 0.954255474056; index: GO; Quantile.0.975(R): 0.954255474056; Quantile.0.025(R): 0.905580482174" role="graphics-symbol" aria-roledescription="errorbar" transform="translate(411.58861460120943,170)" x2="28.393745264688732" y2="0" stroke="blue" stroke-width="0.6"></line><line aria-label="CI 0.975: 0.904579226453; upper_Quantile.0.025(R): 0.96200068779; index: RS; Quantile.0.975(R): 0.96200068779; Quantile.0.025(R): 0.904579226453" role="graphics-symbol" aria-roledescription="errorbar" transform="translate(411.0045487643882,450)" x2="33.49585244664928" y2="0" stroke="blue" stroke-width="0.6"></line><line aria-label="CI 0.975: 0.917931277839; upper_Quantile.0.025(R): 0.978516459798; index: PI; Quantile.0.975(R): 0.978516459798; Quantile.0.025(R): 0.917931277839" role="graphics-symbol" aria-roledescription="errorbar" transform="translate(418.79324540623446,330)" x2="35.34135614244053" y2="0" stroke="blue" stroke-width="0.6"></line><line aria-label="CI 0.975: 1.04817607335; upper_Quantile.0.025(R): 1.34933896965; index: CE; Quantile.0.975(R): 1.34933896965; Quantile.0.025(R): 1.04817607335" role="graphics-symbol" aria-roledescription="errorbar" transform="translate(494.76937612060493,110)" x2="175.6783561725194" y2="0" stroke="blue" stroke-width="0.6"></line></g><g class="mark-group role-title"><g transform="translate(350,-17.2)"><path class="background" aria-hidden="true" d="M0,0h0v0h0Z" pointer-events="none"></path><g><g class="mark-text role-title-text" role="graphics-symbol" aria-roledescription="title" aria-label="Title text 'Instantaneous reproduction number estimate for all states in Brazil'" pointer-events="none"><text text-anchor="middle" transform="translate(0,10)" font-family="sans-serif" font-size="13px" font-weight="bold" fill="#000" opacity="1">Instantaneous reproduction number estimate for all states in Brazil</text></g></g><path class="foreground" aria-hidden="true" d="" pointer-events="none" display="none"></path></g></g></g><path class="foreground" aria-hidden="true" d="" display="none"></path></g></g></g></svg>