<svg class="marks" width="769" height="160" viewBox="0 0 769 160" version="1.1" xmlns="http://www.w3.org/2000/svg" xmlns:xlink="http://www.w3.org/1999/xlink"><rect width="769" height="160" style="fill: white;"></rect><g transform="translate(63,23)"><g class="mark-group role-frame root"><g transform="translate(0,0)"><path class="background" d="M0.5,0.5h700v100h-700Z" style="fill: none; stroke: none;"></path><g><g class="mark-group role-axis"><g transform="translate(0.5,0.5)"><path class="background" d="M0,0h0v0h0Z" style="pointer-events: none; fill: none;"></path><g><g class="mark-rule role-axis-grid" style="pointer-events: none;"><line transform="translate(0,10)" x2="700" y2="0" style="fill: none; stroke: #ddd; stroke-width: 1; opacity: 1;"></line><line transform="translate(0,30)" x2="700" y2="0" style="fill: none; stroke: #ddd; stroke-width: 1; opacity: 1;"></line><line transform="translate(0,50)" x2="700" y2="0" style="fill: none; stroke: #ddd; stroke-width: 1; opacity: 1;"></line><line transform="translate(0,70)" x2="700" y2="0" style="fill: none; stroke: #ddd; stroke-width: 1; opacity: 1;"></line><line transform="translate(0,90)" x2="700" y2="0" style="fill: none; stroke: #ddd; stroke-width: 1; opacity: 1;"></line></g></g><path class="foreground" d="" style="pointer-events: none; display: none; fill: none;"></path></g></g><g class="mark-group role-axis"><g transform="translate(0.5,100.5)"><path class="background" d="M0,0h0v0h0Z" style="pointer-events: none; fill: none;"></path><g><g class="mark-rule role-axis-tick" style="pointer-events: none;"><line transform="translate(0,0)" x2="0" y2="5" style="fill: none; stroke: #888; stroke-width: 1; opacity: 1;"></line><line transform="translate(29,0)" x2="0" y2="5" style="fill: none; stroke: #888; stroke-width: 1; opacity: 1;"></line><line transform="translate(58,0)" x2="0" y2="5" style="fill: none; stroke: #888; stroke-width: 1; opacity: 1;"></line><line transform="translate(88,0)" x2="0" y2="5" style="fill: none; stroke: #888; stroke-width: 1; opacity: 1;"></line><line transform="translate(117,0)" x2="0" y2="5" style="fill: none; stroke: #888; stroke-width: 1; opacity: 1;"></line><line transform="translate(146,0)" x2="0" y2="5" style="fill: none; stroke: #888; stroke-width: 1; opacity: 1;"></line><line transform="translate(175,0)" x2="0" y2="5" style="fill: none; stroke: #888; stroke-width: 1; opacity: 1;"></line><line transform="translate(204,0)" x2="0" y2="5" style="fill: none; stroke: #888; stroke-width: 1; opacity: 1;"></line><line transform="translate(233,0)" x2="0" y2="5" style="fill: none; stroke: #888; stroke-width: 1; opacity: 1;"></line><line transform="translate(263,0)" x2="0" y2="5" style="fill: none; stroke: #888; stroke-width: 1; opacity: 1;"></line><line transform="translate(292,0)" x2="0" y2="5" style="fill: none; stroke: #888; stroke-width: 1; opacity: 1;"></line><line transform="translate(321,0)" x2="0" y2="5" style="fill: none; stroke: #888; stroke-width: 1; opacity: 1;"></line><line transform="translate(350,0)" x2="0" y2="5" style="fill: none; stroke: #888; stroke-width: 1; opacity: 1;"></line><line transform="translate(379,0)" x2="0" y2="5" style="fill: none; stroke: #888; stroke-width: 1; opacity: 1;"></line><line transform="translate(408,0)" x2="0" y2="5" style="fill: none; stroke: #888; stroke-width: 1; opacity: 1;"></line><line transform="translate(438,0)" x2="0" y2="5" style="fill: none; stroke: #888; stroke-width: 1; opacity: 1;"></line><line transform="translate(467,0)" x2="0" y2="5" style="fill: none; stroke: #888; stroke-width: 1; opacity: 1;"></line><line transform="translate(496,0)" x2="0" y2="5" style="fill: none; stroke: #888; stroke-width: 1; opacity: 1;"></line><line transform="translate(525,0)" x2="0" y2="5" style="fill: none; stroke: #888; stroke-width: 1; opacity: 1;"></line><line transform="translate(554,0)" x2="0" y2="5" style="fill: none; stroke: #888; stroke-width: 1; opacity: 1;"></line><line transform="translate(583,0)" x2="0" y2="5" style="fill: none; stroke: #888; stroke-width: 1; opacity: 1;"></line><line transform="translate(613,0)" x2="0" y2="5" style="fill: none; stroke: #888; stroke-width: 1; opacity: 1;"></line><line transform="translate(642,0)" x2="0" y2="5" style="fill: none; stroke: #888; stroke-width: 1; opacity: 1;"></line><line transform="translate(671,0)" x2="0" y2="5" style="fill: none; stroke: #888; stroke-width: 1; opacity: 1;"></line><line transform="translate(700,0)" x2="0" y2="5" style="fill: none; stroke: #888; stroke-width: 1; opacity: 1;"></line></g><g class="mark-text role-axis-label" style="pointer-events: none;"><text text-anchor="start" transform="translate(0,15)" style="font-family: sans-serif; font-size: 10px; fill: #000; opacity: 1;">0.30</text><text text-anchor="middle" transform="translate(29.16666666666666,15)" style="font-family: sans-serif; font-size: 10px; fill: #000; opacity: 0;">0.35</text><text text-anchor="middle" transform="translate(58.33333333333336,15)" style="font-family: sans-serif; font-size: 10px; fill: #000; opacity: 1;">0.40</text><text text-anchor="middle" transform="translate(87.50000000000001,15)" style="font-family: sans-serif; font-size: 10px; fill: #000; opacity: 0;">0.45</text><text text-anchor="middle" transform="translate(116.66666666666669,15)" style="font-family: sans-serif; font-size: 10px; fill: #000; opacity: 1;">0.50</text><text text-anchor="middle" transform="translate(145.83333333333337,15)" style="font-family: sans-serif; font-size: 10px; fill: #000; opacity: 0;">0.55</text><text text-anchor="middle" transform="translate(175,15)" style="font-family: sans-serif; font-size: 10px; fill: #000; opacity: 1;">0.60</text><text text-anchor="middle" transform="translate(204.16666666666669,15)" style="font-family: sans-serif; font-size: 10px; fill: #000; opacity: 0;">0.65</text><text text-anchor="middle" transform="translate(233.33333333333331,15)" style="font-family: sans-serif; font-size: 10px; fill: #000; opacity: 1;">0.70</text><text text-anchor="middle" transform="translate(262.5,15)" style="font-family: sans-serif; font-size: 10px; fill: #000; opacity: 0;">0.75</text><text text-anchor="middle" transform="translate(291.6666666666667,15)" style="font-family: sans-serif; font-size: 10px; fill: #000; opacity: 1;">0.80</text><text text-anchor="middle" transform="translate(320.83333333333337,15)" style="font-family: sans-serif; font-size: 10px; fill: #000; opacity: 0;">0.85</text><text text-anchor="middle" transform="translate(350.00000000000006,15)" style="font-family: sans-serif; font-size: 10px; fill: #000; opacity: 1;">0.90</text><text text-anchor="middle" transform="translate(379.16666666666663,15)" style="font-family: sans-serif; font-size: 10px; fill: #000; opacity: 0;">0.95</text><text text-anchor="middle" transform="translate(408.33333333333337,15)" style="font-family: sans-serif; font-size: 10px; fill: #000; opacity: 1;">1.00</text><text text-anchor="middle" transform="translate(437.5,15)" style="font-family: sans-serif; font-size: 10px; fill: #000; opacity: 0;">1.05</text><text text-anchor="middle" transform="translate(466.66666666666674,15)" style="font-family: sans-serif; font-size: 10px; fill: #000; opacity: 1;">1.10</text><text text-anchor="middle" transform="translate(495.83333333333326,15)" style="font-family: sans-serif; font-size: 10px; fill: #000; opacity: 0;">1.15</text><text text-anchor="middle" transform="translate(525,15)" style="font-family: sans-serif; font-size: 10px; fill: #000; opacity: 1;">1.20</text><text text-anchor="middle" transform="translate(554.1666666666666,15)" style="font-family: sans-serif; font-size: 10px; fill: #000; opacity: 0;">1.25</text><text text-anchor="middle" transform="translate(583.3333333333334,15)" style="font-family: sans-serif; font-size: 10px; fill: #000; opacity: 1;">1.30</text><text text-anchor="middle" transform="translate(612.5000000000001,15)" style="font-family: sans-serif; font-size: 10px; fill: #000; opacity: 0;">1.35</text><text text-anchor="middle" transform="translate(641.6666666666666,15)" style="font-family: sans-serif; font-size: 10px; fill: #000; opacity: 1;">1.40</text><text text-anchor="middle" transform="translate(670.8333333333333,15)" style="font-family: sans-serif; font-size: 10px; fill: #000; opacity: 0;">1.45</text><text text-anchor="end" transform="translate(700,15)" style="font-family: sans-serif; font-size: 10px; fill: #000; opacity: 1;">1.50</text></g><g class="mark-rule role-axis-domain" style="pointer-events: none;"><line transform="translate(0,0)" x2="700" y2="0" style="fill: none; stroke: #888; stroke-width: 1; opacity: 1;"></line></g><g class="mark-text role-axis-title" style="pointer-events: none;"><text text-anchor="middle" transform="translate(350,30)" style="font-family: sans-serif; font-size: 11px; font-weight: bold; fill: #000; opacity: 1;">Instantaneous reproduction number R(t), CI 0.975</text></g></g><path class="foreground" d="" style="pointer-events: none; display: none; fill: none;"></path></g></g><g class="mark-group role-axis"><g transform="translate(0.5,0.5)"><path class="background" d="M0,0h0v0h0Z" style="pointer-events: none; fill: none;"></path><g><g class="mark-rule role-axis-tick" style="pointer-events: none;"><line transform="translate(0,10)" x2="-5" y2="0" style="fill: none; stroke: #888; stroke-width: 1; opacity: 1;"></line><line transform="translate(0,30)" x2="-5" y2="0" style="fill: none; stroke: #888; stroke-width: 1; opacity: 1;"></line><line transform="translate(0,50)" x2="-5" y2="0" style="fill: none; stroke: #888; stroke-width: 1; opacity: 1;"></line><line transform="translate(0,70)" x2="-5" y2="0" style="fill: none; stroke: #888; stroke-width: 1; opacity: 1;"></line><line transform="translate(0,90)" x2="-5" y2="0" style="fill: none; stroke: #888; stroke-width: 1; opacity: 1;"></line></g><g class="mark-text role-axis-label" style="pointer-events: none;"><text text-anchor="end" transform="translate(-7,12.5)" style="font-family: sans-serif; font-size: 10px; fill: #000; opacity: 1;">alentejo</text><text text-anchor="end" transform="translate(-7,32.5)" style="font-family: sans-serif; font-size: 10px; fill: #000; opacity: 1;">algarve</text><text text-anchor="end" transform="translate(-7,52.5)" style="font-family: sans-serif; font-size: 10px; fill: #000; opacity: 1;">centro</text><text text-anchor="end" transform="translate(-7,72.5)" style="font-family: sans-serif; font-size: 10px; fill: #000; opacity: 1;">norte</text><text text-anchor="end" transform="translate(-7,92.5)" style="font-family: sans-serif; font-size: 10px; fill: #000; opacity: 1;">rlvt</text></g><g class="mark-rule role-axis-domain" style="pointer-events: none;"><line transform="translate(0,0)" x2="0" y2="100" style="fill: none; stroke: #888; stroke-width: 1; opacity: 1;"></line></g><g class="mark-text role-axis-title" style="pointer-events: none;"><text text-anchor="middle" transform="translate(-46.029296875,50) rotate(-90) translate(0,-2)" style="font-family: sans-serif; font-size: 11px; font-weight: bold; fill: #000; opacity: 1;">States</text></g></g><path class="foreground" d="" style="pointer-events: none; display: none; fill: none;"></path></g></g><g class="mark-symbol role-mark layer_0_marks"><path transform="translate(157.93866022667348,30)" d="M2.7386127875258306,0A2.7386127875258306,2.7386127875258306,0,1,1,-2.7386127875258306,0A2.7386127875258306,2.7386127875258306,0,1,1,2.7386127875258306,0" style="fill: none; stroke: #4c78a8; stroke-width: 2; opacity: 0.7;"></path><path transform="translate(216.24258492500456,50)" d="M2.7386127875258306,0A2.7386127875258306,2.7386127875258306,0,1,1,-2.7386127875258306,0A2.7386127875258306,2.7386127875258306,0,1,1,2.7386127875258306,0" style="fill: none; stroke: #4c78a8; stroke-width: 2; opacity: 0.7;"></path><path transform="translate(367.18727576782766,70)" d="M2.7386127875258306,0A2.7386127875258306,2.7386127875258306,0,1,1,-2.7386127875258306,0A2.7386127875258306,2.7386127875258306,0,1,1,2.7386127875258306,0" style="fill: none; stroke: #4c78a8; stroke-width: 2; opacity: 0.7;"></path><path transform="translate(435.7799052351285,10)" d="M2.7386127875258306,0A2.7386127875258306,2.7386127875258306,0,1,1,-2.7386127875258306,0A2.7386127875258306,2.7386127875258306,0,1,1,2.7386127875258306,0" style="fill: none; stroke: #4c78a8; stroke-width: 2; opacity: 0.7;"></path><path transform="translate(505.26159158624114,90)" d="M2.7386127875258306,0A2.7386127875258306,2.7386127875258306,0,1,1,-2.7386127875258306,0A2.7386127875258306,2.7386127875258306,0,1,1,2.7386127875258306,0" style="fill: none; stroke: #4c78a8; stroke-width: 2; opacity: 0.7;"></path></g><g class="mark-rule role-mark layer_1_marks"><line transform="translate(408.33333333333337,0)" x2="0" y2="100" style="fill: none; stroke: black; stroke-width: 0.2;"></line><line transform="translate(408.33333333333337,0)" x2="0" y2="100" style="fill: none; stroke: black; stroke-width: 0.2;"></line><line transform="translate(408.33333333333337,0)" x2="0" y2="100" style="fill: none; stroke: black; stroke-width: 0.2;"></line><line transform="translate(408.33333333333337,0)" x2="0" y2="100" style="fill: none; stroke: black; stroke-width: 0.2;"></line><line transform="translate(408.33333333333337,0)" x2="0" y2="100" style="fill: none; stroke: black; stroke-width: 0.2;"></line></g><g class="mark-rule role-mark layer_2_marks"><line transform="translate(9.563392106464743,30)" x2="344.0325574965681" y2="0" style="fill: none; stroke: blue; stroke-width: 0.6;"></line><line transform="translate(157.33783060298066,50)" x2="124.87963390436676" y2="0" style="fill: none; stroke: blue; stroke-width: 0.6;"></line><line transform="translate(338.44311324295313,70)" x2="57.86608365863958" y2="0" style="fill: none; stroke: blue; stroke-width: 0.6;"></line><line transform="translate(225.89682548270116,10)" x2="468.9376230488597" y2="0" style="fill: none; stroke: blue; stroke-width: 0.6;"></line><line transform="translate(442.7901254555287,90)" x2="143.78402810607815" y2="0" style="fill: none; stroke: blue; stroke-width: 0.6;"></line></g><g class="mark-group role-title"><g transform="translate(350,-17.2)"><path class="background" d="M0,0h0v0h0Z" style="pointer-events: none; fill: none;"></path><g><g class="mark-text role-title-text" style="pointer-events: none;"><text text-anchor="middle" transform="translate(0,10)" style="font-family: sans-serif; font-size: 13px; font-weight: bold; fill: #000; opacity: 1;">Instantaneous reproduction number estimate for all regions in continental Portugal</text></g></g><path class="foreground" d="" style="pointer-events: none; display: none; fill: none;"></path></g></g></g><path class="foreground" d="" style="display: none; fill: none;"></path></g></g></g></svg>