<svg class="marks" width="749" height="600" viewBox="0 0 749 600" version="1.1" xmlns="http://www.w3.org/2000/svg" xmlns:xlink="http://www.w3.org/1999/xlink"><rect width="749" height="600" fill="white"></rect><g fill="none" stroke-miterlimit="10" transform="translate(43,23)"><g class="mark-group role-frame root" role="graphics-object" aria-roledescription="group mark container"><g transform="translate(0,0)"><path class="background" aria-hidden="true" d="M0.5,0.5h700v540h-700Z"></path><g><g class="mark-group role-axis" aria-hidden="true"><g transform="translate(0.5,0.5)"><path class="background" aria-hidden="true" d="M0,0h0v0h0Z" pointer-events="none"></path><g><g class="mark-rule role-axis-grid" pointer-events="none"><line transform="translate(0,10)" x2="700" y2="0" stroke="#ddd" stroke-width="1" opacity="1"></line><line transform="translate(0,30)" x2="700" y2="0" stroke="#ddd" stroke-width="1" opacity="1"></line><line transform="translate(0,50)" x2="700" y2="0" stroke="#ddd" stroke-width="1" opacity="1"></line><line transform="translate(0,70)" x2="700" y2="0" stroke="#ddd" stroke-width="1" opacity="1"></line><line transform="translate(0,90)" x2="700" y2="0" stroke="#ddd" stroke-width="1" opacity="1"></line><line transform="translate(0,110)" x2="700" y2="0" stroke="#ddd" stroke-width="1" opacity="1"></line><line transform="translate(0,130)" x2="700" y2="0" stroke="#ddd" stroke-width="1" opacity="1"></line><line transform="translate(0,150)" x2="700" y2="0" stroke="#ddd" stroke-width="1" opacity="1"></line><line transform="translate(0,170)" x2="700" y2="0" stroke="#ddd" stroke-width="1" opacity="1"></line><line transform="translate(0,190)" x2="700" y2="0" stroke="#ddd" stroke-width="1" opacity="1"></line><line transform="translate(0,210)" x2="700" y2="0" stroke="#ddd" stroke-width="1" opacity="1"></line><line transform="translate(0,230)" x2="700" y2="0" stroke="#ddd" stroke-width="1" opacity="1"></line><line transform="translate(0,250)" x2="700" y2="0" stroke="#ddd" stroke-width="1" opacity="1"></line><line transform="translate(0,270)" x2="700" y2="0" stroke="#ddd" stroke-width="1" opacity="1"></line><line transform="translate(0,290)" x2="700" y2="0" stroke="#ddd" stroke-width="1" opacity="1"></line><line transform="translate(0,310)" x2="700" y2="0" stroke="#ddd" stroke-width="1" opacity="1"></line><line transform="translate(0,330)" x2="700" y2="0" stroke="#ddd" stroke-width="1" opacity="1"></line><line transform="translate(0,350)" x2="700" y2="0" stroke="#ddd" stroke-width="1" opacity="1"></line><line transform="translate(0,370)" x2="700" y2="0" stroke="#ddd" stroke-width="1" opacity="1"></line><line transform="translate(0,390)" x2="700" y2="0" stroke="#ddd" stroke-width="1" opacity="1"></line><line transform="translate(0,410)" x2="700" y2="0" stroke="#ddd" stroke-width="1" opacity="1"></line><line transform="translate(0,430)" x2="700" y2="0" stroke="#ddd" stroke-width="1" opacity="1"></line><line transform="translate(0,450)" x2="700" y2="0" stroke="#ddd" stroke-width="1" opacity="1"></line><line transform="translate(0,470)" x2="700" y2="0" stroke="#ddd" stroke-width="1" opacity="1"></line><line transform="translate(0,490)" x2="700" y2="0" stroke="#ddd" stroke-width="1" opacity="1"></line><line transform="translate(0,510)" x2="700" y2="0" stroke="#ddd" stroke-width="1" opacity="1"></line><line transform="translate(0,530)" x2="700" y2="0" stroke="#ddd" stroke-width="1" opacity="1"></line></g></g><path class="foreground" aria-hidden="true" d="" pointer-events="none" display="none"></path></g></g><g class="mark-group role-axis" role="graphics-symbol" aria-roledescription="axis" aria-label="X-axis titled 'Instantaneous reproduction number R(t), CI 0.975' for a linear scale with values from 0.7 to 1.8"><g transform="translate(0.5,540.5)"><path class="background" aria-hidden="true" d="M0,0h0v0h0Z" pointer-events="none"></path><g><g class="mark-rule role-axis-tick" pointer-events="none"><line transform="translate(0,0)" x2="0" y2="5" stroke="#888" stroke-width="1" opacity="1"></line><line transform="translate(32,0)" x2="0" y2="5" stroke="#888" stroke-width="1" opacity="1"></line><line transform="translate(64,0)" x2="0" y2="5" stroke="#888" stroke-width="1" opacity="1"></line><line transform="translate(95,0)" x2="0" y2="5" stroke="#888" stroke-width="1" opacity="1"></line><line transform="translate(127,0)" x2="0" y2="5" stroke="#888" stroke-width="1" opacity="1"></line><line transform="translate(159,0)" x2="0" y2="5" stroke="#888" stroke-width="1" opacity="1"></line><line transform="translate(191,0)" x2="0" y2="5" stroke="#888" stroke-width="1" opacity="1"></line><line transform="translate(223,0)" x2="0" y2="5" stroke="#888" stroke-width="1" opacity="1"></line><line transform="translate(255,0)" x2="0" y2="5" stroke="#888" stroke-width="1" opacity="1"></line><line transform="translate(286,0)" x2="0" y2="5" stroke="#888" stroke-width="1" opacity="1"></line><line transform="translate(318,0)" x2="0" y2="5" stroke="#888" stroke-width="1" opacity="1"></line><line transform="translate(350,0)" x2="0" y2="5" stroke="#888" stroke-width="1" opacity="1"></line><line transform="translate(382,0)" x2="0" y2="5" stroke="#888" stroke-width="1" opacity="1"></line><line transform="translate(414,0)" x2="0" y2="5" stroke="#888" stroke-width="1" opacity="1"></line><line transform="translate(445,0)" x2="0" y2="5" stroke="#888" stroke-width="1" opacity="1"></line><line transform="translate(477,0)" x2="0" y2="5" stroke="#888" stroke-width="1" opacity="1"></line><line transform="translate(509,0)" x2="0" y2="5" stroke="#888" stroke-width="1" opacity="1"></line><line transform="translate(541,0)" x2="0" y2="5" stroke="#888" stroke-width="1" opacity="1"></line><line transform="translate(573,0)" x2="0" y2="5" stroke="#888" stroke-width="1" opacity="1"></line><line transform="translate(605,0)" x2="0" y2="5" stroke="#888" stroke-width="1" opacity="1"></line><line transform="translate(636,0)" x2="0" y2="5" stroke="#888" stroke-width="1" opacity="1"></line><line transform="translate(668,0)" x2="0" y2="5" stroke="#888" stroke-width="1" opacity="1"></line><line transform="translate(700,0)" x2="0" y2="5" stroke="#888" stroke-width="1" opacity="1"></line></g><g class="mark-text role-axis-label" pointer-events="none"><text text-anchor="start" transform="translate(0,15)" font-family="sans-serif" font-size="10px" fill="#000" opacity="1">0.70</text><text text-anchor="middle" transform="translate(31.818181818181845,15)" font-family="sans-serif" font-size="10px" fill="#000" opacity="1">0.75</text><text text-anchor="middle" transform="translate(63.63636363636369,15)" font-family="sans-serif" font-size="10px" fill="#000" opacity="1">0.80</text><text text-anchor="middle" transform="translate(95.45454545454547,15)" font-family="sans-serif" font-size="10px" fill="#000" opacity="1">0.85</text><text text-anchor="middle" transform="translate(127.2727272727273,15)" font-family="sans-serif" font-size="10px" fill="#000" opacity="1">0.90</text><text text-anchor="middle" transform="translate(159.0909090909091,15)" font-family="sans-serif" font-size="10px" fill="#000" opacity="1">0.95</text><text text-anchor="middle" transform="translate(190.90909090909093,15)" font-family="sans-serif" font-size="10px" fill="#000" opacity="1">1.00</text><text text-anchor="middle" transform="translate(222.72727272727278,15)" font-family="sans-serif" font-size="10px" fill="#000" opacity="1">1.05</text><text text-anchor="middle" transform="translate(254.5454545454546,15)" font-family="sans-serif" font-size="10px" fill="#000" opacity="1">1.10</text><text text-anchor="middle" transform="translate(286.3636363636363,15)" font-family="sans-serif" font-size="10px" fill="#000" opacity="1">1.15</text><text text-anchor="middle" transform="translate(318.1818181818182,15)" font-family="sans-serif" font-size="10px" fill="#000" opacity="1">1.20</text><text text-anchor="middle" transform="translate(350,15)" font-family="sans-serif" font-size="10px" fill="#000" opacity="1">1.25</text><text text-anchor="middle" transform="translate(381.81818181818187,15)" font-family="sans-serif" font-size="10px" fill="#000" opacity="1">1.30</text><text text-anchor="middle" transform="translate(413.6363636363637,15)" font-family="sans-serif" font-size="10px" fill="#000" opacity="1">1.35</text><text text-anchor="middle" transform="translate(445.4545454545454,15)" font-family="sans-serif" font-size="10px" fill="#000" opacity="1">1.40</text><text text-anchor="middle" transform="translate(477.27272727272725,15)" font-family="sans-serif" font-size="10px" fill="#000" opacity="1">1.45</text><text text-anchor="middle" transform="translate(509.0909090909091,15)" font-family="sans-serif" font-size="10px" fill="#000" opacity="1">1.50</text><text text-anchor="middle" transform="translate(540.9090909090909,15)" font-family="sans-serif" font-size="10px" fill="#000" opacity="1">1.55</text><text text-anchor="middle" transform="translate(572.7272727272727,15)" font-family="sans-serif" font-size="10px" fill="#000" opacity="1">1.60</text><text text-anchor="middle" transform="translate(604.5454545454545,15)" font-family="sans-serif" font-size="10px" fill="#000" opacity="1">1.65</text><text text-anchor="middle" transform="translate(636.3636363636364,15)" font-family="sans-serif" font-size="10px" fill="#000" opacity="1">1.70</text><text text-anchor="middle" transform="translate(668.1818181818181,15)" font-family="sans-serif" font-size="10px" fill="#000" opacity="1">1.75</text><text text-anchor="end" transform="translate(700,15)" font-family="sans-serif" font-size="10px" fill="#000" opacity="1">1.80</text></g><g class="mark-rule role-axis-domain" pointer-events="none"><line transform="translate(0,0)" x2="700" y2="0" stroke="#888" stroke-width="1" opacity="1"></line></g><g class="mark-text role-axis-title" pointer-events="none"><text text-anchor="middle" transform="translate(350,30)" font-family="sans-serif" font-size="11px" font-weight="bold" fill="#000" opacity="1">Instantaneous reproduction number R(t), CI 0.975</text></g></g><path class="foreground" aria-hidden="true" d="" pointer-events="none" display="none"></path></g></g><g class="mark-group role-axis" role="graphics-symbol" aria-roledescription="axis" aria-label="Y-axis titled 'States' for a discrete scale with 27 values: AC, AL, AM, AP, BA, ending with TO"><g transform="translate(0.5,0.5)"><path class="background" aria-hidden="true" d="M0,0h0v0h0Z" pointer-events="none"></path><g><g class="mark-rule role-axis-tick" pointer-events="none"><line transform="translate(0,10)" x2="-5" y2="0" stroke="#888" stroke-width="1" opacity="1"></line><line transform="translate(0,30)" x2="-5" y2="0" stroke="#888" stroke-width="1" opacity="1"></line><line transform="translate(0,50)" x2="-5" y2="0" stroke="#888" stroke-width="1" opacity="1"></line><line transform="translate(0,70)" x2="-5" y2="0" stroke="#888" stroke-width="1" opacity="1"></line><line transform="translate(0,90)" x2="-5" y2="0" stroke="#888" stroke-width="1" opacity="1"></line><line transform="translate(0,110)" x2="-5" y2="0" stroke="#888" stroke-width="1" opacity="1"></line><line transform="translate(0,130)" x2="-5" y2="0" stroke="#888" stroke-width="1" opacity="1"></line><line transform="translate(0,150)" x2="-5" y2="0" stroke="#888" stroke-width="1" opacity="1"></line><line transform="translate(0,170)" x2="-5" y2="0" stroke="#888" stroke-width="1" opacity="1"></line><line transform="translate(0,190)" x2="-5" y2="0" stroke="#888" stroke-width="1" opacity="1"></line><line transform="translate(0,210)" x2="-5" y2="0" stroke="#888" stroke-width="1" opacity="1"></line><line transform="translate(0,230)" x2="-5" y2="0" stroke="#888" stroke-width="1" opacity="1"></line><line transform="translate(0,250)" x2="-5" y2="0" stroke="#888" stroke-width="1" opacity="1"></line><line transform="translate(0,270)" x2="-5" y2="0" stroke="#888" stroke-width="1" opacity="1"></line><line transform="translate(0,290)" x2="-5" y2="0" stroke="#888" stroke-width="1" opacity="1"></line><line transform="translate(0,310)" x2="-5" y2="0" stroke="#888" stroke-width="1" opacity="1"></line><line transform="translate(0,330)" x2="-5" y2="0" stroke="#888" stroke-width="1" opacity="1"></line><line transform="translate(0,350)" x2="-5" y2="0" stroke="#888" stroke-width="1" opacity="1"></line><line transform="translate(0,370)" x2="-5" y2="0" stroke="#888" stroke-width="1" opacity="1"></line><line transform="translate(0,390)" x2="-5" y2="0" stroke="#888" stroke-width="1" opacity="1"></line><line transform="translate(0,410)" x2="-5" y2="0" stroke="#888" stroke-width="1" opacity="1"></line><line transform="translate(0,430)" x2="-5" y2="0" stroke="#888" stroke-width="1" opacity="1"></line><line transform="translate(0,450)" x2="-5" y2="0" stroke="#888" stroke-width="1" opacity="1"></line><line transform="translate(0,470)" x2="-5" y2="0" stroke="#888" stroke-width="1" opacity="1"></line><line transform="translate(0,490)" x2="-5" y2="0" stroke="#888" stroke-width="1" opacity="1"></line><line transform="translate(0,510)" x2="-5" y2="0" stroke="#888" stroke-width="1" opacity="1"></line><line transform="translate(0,530)" x2="-5" y2="0" stroke="#888" stroke-width="1" opacity="1"></line></g><g class="mark-text role-axis-label" pointer-events="none"><text text-anchor="end" transform="translate(-7,12.5)" font-family="sans-serif" font-size="10px" fill="#000" opacity="1">AC</text><text text-anchor="end" transform="translate(-7,32.5)" font-family="sans-serif" font-size="10px" fill="#000" opacity="1">AL</text><text text-anchor="end" transform="translate(-7,52.5)" font-family="sans-serif" font-size="10px" fill="#000" opacity="1">AM</text><text text-anchor="end" transform="translate(-7,72.5)" font-family="sans-serif" font-size="10px" fill="#000" opacity="1">AP</text><text text-anchor="end" transform="translate(-7,92.5)" font-family="sans-serif" font-size="10px" fill="#000" opacity="1">BA</text><text text-anchor="end" transform="translate(-7,112.5)" font-family="sans-serif" font-size="10px" fill="#000" opacity="1">CE</text><text text-anchor="end" transform="translate(-7,132.5)" font-family="sans-serif" font-size="10px" fill="#000" opacity="1">DF</text><text text-anchor="end" transform="translate(-7,152.5)" font-family="sans-serif" font-size="10px" fill="#000" opacity="1">ES</text><text text-anchor="end" transform="translate(-7,172.5)" font-family="sans-serif" font-size="10px" fill="#000" opacity="1">GO</text><text text-anchor="end" transform="translate(-7,192.5)" font-family="sans-serif" font-size="10px" fill="#000" opacity="1">MA</text><text text-anchor="end" transform="translate(-7,212.5)" font-family="sans-serif" font-size="10px" fill="#000" opacity="1">MG</text><text text-anchor="end" transform="translate(-7,232.5)" font-family="sans-serif" font-size="10px" fill="#000" opacity="1">MS</text><text text-anchor="end" transform="translate(-7,252.5)" font-family="sans-serif" font-size="10px" fill="#000" opacity="1">MT</text><text text-anchor="end" transform="translate(-7,272.5)" font-family="sans-serif" font-size="10px" fill="#000" opacity="1">PA</text><text text-anchor="end" transform="translate(-7,292.5)" font-family="sans-serif" font-size="10px" fill="#000" opacity="1">PB</text><text text-anchor="end" transform="translate(-7,312.5)" font-family="sans-serif" font-size="10px" fill="#000" opacity="1">PE</text><text text-anchor="end" transform="translate(-7,332.5)" font-family="sans-serif" font-size="10px" fill="#000" opacity="1">PI</text><text text-anchor="end" transform="translate(-7,352.5)" font-family="sans-serif" font-size="10px" fill="#000" opacity="1">PR</text><text text-anchor="end" transform="translate(-7,372.5)" font-family="sans-serif" font-size="10px" fill="#000" opacity="1">RJ</text><text text-anchor="end" transform="translate(-7,392.5)" font-family="sans-serif" font-size="10px" fill="#000" opacity="1">RN</text><text text-anchor="end" transform="translate(-7,412.5)" font-family="sans-serif" font-size="10px" fill="#000" opacity="1">RO</text><text text-anchor="end" transform="translate(-7,432.5)" font-family="sans-serif" font-size="10px" fill="#000" opacity="1">RR</text><text text-anchor="end" transform="translate(-7,452.5)" font-family="sans-serif" font-size="10px" fill="#000" opacity="1">RS</text><text text-anchor="end" transform="translate(-7,472.5)" font-family="sans-serif" font-size="10px" fill="#000" opacity="1">SC</text><text text-anchor="end" transform="translate(-7,492.5)" font-family="sans-serif" font-size="10px" fill="#000" opacity="1">SE</text><text text-anchor="end" transform="translate(-7,512.5)" font-family="sans-serif" font-size="10px" fill="#000" opacity="1">SP</text><text text-anchor="end" transform="translate(-7,532.5)" font-family="sans-serif" font-size="10px" fill="#000" opacity="1">TO</text></g><g class="mark-rule role-axis-domain" pointer-events="none"><line transform="translate(0,0)" x2="0" y2="540" stroke="#888" stroke-width="1" opacity="1"></line></g><g class="mark-text role-axis-title" pointer-events="none"><text text-anchor="middle" transform="translate(-27,270) rotate(-90) translate(0,-2)" font-family="sans-serif" font-size="11px" font-weight="bold" fill="#000" opacity="1">States</text></g></g><path class="foreground" aria-hidden="true" d="" pointer-events="none" display="none"></path></g></g><g class="mark-symbol role-mark layer_0_marks" role="graphics-object" aria-roledescription="symbol mark container"><path aria-label="Instantaneous reproduction number R(t): 0.855302504907; States: AM" role="graphics-symbol" aria-roledescription="point" transform="translate(98.82886675879202,50)" d="M2.7386127875258306,0A2.7386127875258306,2.7386127875258306,0,1,1,-2.7386127875258306,0A2.7386127875258306,2.7386127875258306,0,1,1,2.7386127875258306,0" stroke="#4c78a8" stroke-width="2" opacity="0.7"></path><path aria-label="Instantaneous reproduction number R(t): 0.8747523514; States: PE" role="graphics-symbol" aria-roledescription="point" transform="translate(111.20604180024415,310)" d="M2.7386127875258306,0A2.7386127875258306,2.7386127875258306,0,1,1,-2.7386127875258306,0A2.7386127875258306,2.7386127875258306,0,1,1,2.7386127875258306,0" stroke="#4c78a8" stroke-width="2" opacity="0.7"></path><path aria-label="Instantaneous reproduction number R(t): 0.886655679795; States: CE" role="graphics-symbol" aria-roledescription="point" transform="translate(118.78088714257453,110)" d="M2.7386127875258306,0A2.7386127875258306,2.7386127875258306,0,1,1,-2.7386127875258306,0A2.7386127875258306,2.7386127875258306,0,1,1,2.7386127875258306,0" stroke="#4c78a8" stroke-width="2" opacity="0.7"></path><path aria-label="Instantaneous reproduction number R(t): 0.946651199973; States: AP" role="graphics-symbol" aria-roledescription="point" transform="translate(156.95985452837164,70)" d="M2.7386127875258306,0A2.7386127875258306,2.7386127875258306,0,1,1,-2.7386127875258306,0A2.7386127875258306,2.7386127875258306,0,1,1,2.7386127875258306,0" stroke="#4c78a8" stroke-width="2" opacity="0.7"></path><path aria-label="Instantaneous reproduction number R(t): 0.981244565067; States: RS" role="graphics-symbol" aria-roledescription="point" transform="translate(178.97381413358485,450)" d="M2.7386127875258306,0A2.7386127875258306,2.7386127875258306,0,1,1,-2.7386127875258306,0A2.7386127875258306,2.7386127875258306,0,1,1,2.7386127875258306,0" stroke="#4c78a8" stroke-width="2" opacity="0.7"></path><path aria-label="Instantaneous reproduction number R(t): 0.996067479624; States: SP" role="graphics-symbol" aria-roledescription="point" transform="translate(188.4065779425208,510)" d="M2.7386127875258306,0A2.7386127875258306,2.7386127875258306,0,1,1,-2.7386127875258306,0A2.7386127875258306,2.7386127875258306,0,1,1,2.7386127875258306,0" stroke="#4c78a8" stroke-width="2" opacity="0.7"></path><path aria-label="Instantaneous reproduction number R(t): 1.0210954223; States: TO" role="graphics-symbol" aria-roledescription="point" transform="translate(204.33345055658413,530)" d="M2.7386127875258306,0A2.7386127875258306,2.7386127875258306,0,1,1,-2.7386127875258306,0A2.7386127875258306,2.7386127875258306,0,1,1,2.7386127875258306,0" stroke="#4c78a8" stroke-width="2" opacity="0.7"></path><path aria-label="Instantaneous reproduction number R(t): 1.03393034121; States: RN" role="graphics-symbol" aria-roledescription="point" transform="translate(212.50112622340632,390)" d="M2.7386127875258306,0A2.7386127875258306,2.7386127875258306,0,1,1,-2.7386127875258306,0A2.7386127875258306,2.7386127875258306,0,1,1,2.7386127875258306,0" stroke="#4c78a8" stroke-width="2" opacity="0.7"></path><path aria-label="Instantaneous reproduction number R(t): 1.04126523866; States: SC" role="graphics-symbol" aria-roledescription="point" transform="translate(217.16878823620084,470)" d="M2.7386127875258306,0A2.7386127875258306,2.7386127875258306,0,1,1,-2.7386127875258306,0A2.7386127875258306,2.7386127875258306,0,1,1,2.7386127875258306,0" stroke="#4c78a8" stroke-width="2" opacity="0.7"></path><path aria-label="Instantaneous reproduction number R(t): 1.09778199102; States: RJ" role="graphics-symbol" aria-roledescription="point" transform="translate(253.13399428293317,370)" d="M2.7386127875258306,0A2.7386127875258306,2.7386127875258306,0,1,1,-2.7386127875258306,0A2.7386127875258306,2.7386127875258306,0,1,1,2.7386127875258306,0" stroke="#4c78a8" stroke-width="2" opacity="0.7"></path><path aria-label="Instantaneous reproduction number R(t): 1.1072771644; States: BA" role="graphics-symbol" aria-roledescription="point" transform="translate(259.17637734417303,90)" d="M2.7386127875258306,0A2.7386127875258306,2.7386127875258306,0,1,1,-2.7386127875258306,0A2.7386127875258306,2.7386127875258306,0,1,1,2.7386127875258306,0" stroke="#4c78a8" stroke-width="2" opacity="0.7"></path><path aria-label="Instantaneous reproduction number R(t): 1.12353162667; States: PR" role="graphics-symbol" aria-roledescription="point" transform="translate(269.5201260601803,350)" d="M2.7386127875258306,0A2.7386127875258306,2.7386127875258306,0,1,1,-2.7386127875258306,0A2.7386127875258306,2.7386127875258306,0,1,1,2.7386127875258306,0" stroke="#4c78a8" stroke-width="2" opacity="0.7"></path><path aria-label="Instantaneous reproduction number R(t): 1.1442266318; States: MG" role="graphics-symbol" aria-roledescription="point" transform="translate(282.6896747791605,210)" d="M2.7386127875258306,0A2.7386127875258306,2.7386127875258306,0,1,1,-2.7386127875258306,0A2.7386127875258306,2.7386127875258306,0,1,1,2.7386127875258306,0" stroke="#4c78a8" stroke-width="2" opacity="0.7"></path><path aria-label="Instantaneous reproduction number R(t): 1.14602999723; States: AL" role="graphics-symbol" aria-roledescription="point" transform="translate(283.83727096220446,30)" d="M2.7386127875258306,0A2.7386127875258306,2.7386127875258306,0,1,1,-2.7386127875258306,0A2.7386127875258306,2.7386127875258306,0,1,1,2.7386127875258306,0" stroke="#4c78a8" stroke-width="2" opacity="0.7"></path><path aria-label="Instantaneous reproduction number R(t): 1.15652660145; States: GO" role="graphics-symbol" aria-roledescription="point" transform="translate(290.5169281949033,170)" d="M2.7386127875258306,0A2.7386127875258306,2.7386127875258306,0,1,1,-2.7386127875258306,0A2.7386127875258306,2.7386127875258306,0,1,1,2.7386127875258306,0" stroke="#4c78a8" stroke-width="2" opacity="0.7"></path><path aria-label="Instantaneous reproduction number R(t): 1.16888185341; States: PI" role="graphics-symbol" aria-roledescription="point" transform="translate(298.37936125923795,330)" d="M2.7386127875258306,0A2.7386127875258306,2.7386127875258306,0,1,1,-2.7386127875258306,0A2.7386127875258306,2.7386127875258306,0,1,1,2.7386127875258306,0" stroke="#4c78a8" stroke-width="2" opacity="0.7"></path><path aria-label="Instantaneous reproduction number R(t): 1.18864278346; States: PB" role="graphics-symbol" aria-roledescription="point" transform="translate(310.95449856477427,290)" d="M2.7386127875258306,0A2.7386127875258306,2.7386127875258306,0,1,1,-2.7386127875258306,0A2.7386127875258306,2.7386127875258306,0,1,1,2.7386127875258306,0" stroke="#4c78a8" stroke-width="2" opacity="0.7"></path><path aria-label="Instantaneous reproduction number R(t): 1.21090834875; States: PA" role="graphics-symbol" aria-roledescription="point" transform="translate(325.1234946582166,270)" d="M2.7386127875258306,0A2.7386127875258306,2.7386127875258306,0,1,1,-2.7386127875258306,0A2.7386127875258306,2.7386127875258306,0,1,1,2.7386127875258306,0" stroke="#4c78a8" stroke-width="2" opacity="0.7"></path><path aria-label="Instantaneous reproduction number R(t): 1.21243666717; States: MA" role="graphics-symbol" aria-roledescription="point" transform="translate(326.09606092627814,190)" d="M2.7386127875258306,0A2.7386127875258306,2.7386127875258306,0,1,1,-2.7386127875258306,0A2.7386127875258306,2.7386127875258306,0,1,1,2.7386127875258306,0" stroke="#4c78a8" stroke-width="2" opacity="0.7"></path><path aria-label="Instantaneous reproduction number R(t): 1.21291293034; States: AC" role="graphics-symbol" aria-roledescription="point" transform="translate(326.39913749007786,10)" d="M2.7386127875258306,0A2.7386127875258306,2.7386127875258306,0,1,1,-2.7386127875258306,0A2.7386127875258306,2.7386127875258306,0,1,1,2.7386127875258306,0" stroke="#4c78a8" stroke-width="2" opacity="0.7"></path><path aria-label="Instantaneous reproduction number R(t): 1.23338356991; States: MS" role="graphics-symbol" aria-roledescription="point" transform="translate(339.42590812392797,230)" d="M2.7386127875258306,0A2.7386127875258306,2.7386127875258306,0,1,1,-2.7386127875258306,0A2.7386127875258306,2.7386127875258306,0,1,1,2.7386127875258306,0" stroke="#4c78a8" stroke-width="2" opacity="0.7"></path><path aria-label="Instantaneous reproduction number R(t): 1.23712562302; States: SE" role="graphics-symbol" aria-roledescription="point" transform="translate(341.80721464690305,490)" d="M2.7386127875258306,0A2.7386127875258306,2.7386127875258306,0,1,1,-2.7386127875258306,0A2.7386127875258306,2.7386127875258306,0,1,1,2.7386127875258306,0" stroke="#4c78a8" stroke-width="2" opacity="0.7"></path><path aria-label="Instantaneous reproduction number R(t): 1.31426206332; States: MT" role="graphics-symbol" aria-roledescription="point" transform="translate(390.8940402965061,250)" d="M2.7386127875258306,0A2.7386127875258306,2.7386127875258306,0,1,1,-2.7386127875258306,0A2.7386127875258306,2.7386127875258306,0,1,1,2.7386127875258306,0" stroke="#4c78a8" stroke-width="2" opacity="0.7"></path><path aria-label="Instantaneous reproduction number R(t): 1.31919836759; States: DF" role="graphics-symbol" aria-roledescription="point" transform="translate(394.0353248292937,130)" d="M2.7386127875258306,0A2.7386127875258306,2.7386127875258306,0,1,1,-2.7386127875258306,0A2.7386127875258306,2.7386127875258306,0,1,1,2.7386127875258306,0" stroke="#4c78a8" stroke-width="2" opacity="0.7"></path><path aria-label="Instantaneous reproduction number R(t): 1.35537704902; States: RR" role="graphics-symbol" aria-roledescription="point" transform="translate(417.05812210057417,430)" d="M2.7386127875258306,0A2.7386127875258306,2.7386127875258306,0,1,1,-2.7386127875258306,0A2.7386127875258306,2.7386127875258306,0,1,1,2.7386127875258306,0" stroke="#4c78a8" stroke-width="2" opacity="0.7"></path><path aria-label="Instantaneous reproduction number R(t): 1.36020644995; States: ES" role="graphics-symbol" aria-roledescription="point" transform="translate(420.1313772432298,150)" d="M2.7386127875258306,0A2.7386127875258306,2.7386127875258306,0,1,1,-2.7386127875258306,0A2.7386127875258306,2.7386127875258306,0,1,1,2.7386127875258306,0" stroke="#4c78a8" stroke-width="2" opacity="0.7"></path><path aria-label="Instantaneous reproduction number R(t): 1.5190557171; States: RO" role="graphics-symbol" aria-roledescription="point" transform="translate(521.2172745192563,410)" d="M2.7386127875258306,0A2.7386127875258306,2.7386127875258306,0,1,1,-2.7386127875258306,0A2.7386127875258306,2.7386127875258306,0,1,1,2.7386127875258306,0" stroke="#4c78a8" stroke-width="2" opacity="0.7"></path></g><g class="mark-rule role-mark layer_1_marks" role="graphics-object" aria-roledescription="rule mark container"><line aria-label="a: 1" role="graphics-symbol" aria-roledescription="rule mark" transform="translate(190.90909090909093,0)" x2="0" y2="540" stroke="black" stroke-width="0.2"></line><line aria-label="a: 1" role="graphics-symbol" aria-roledescription="rule mark" transform="translate(190.90909090909093,0)" x2="0" y2="540" stroke="black" stroke-width="0.2"></line><line aria-label="a: 1" role="graphics-symbol" aria-roledescription="rule mark" transform="translate(190.90909090909093,0)" x2="0" y2="540" stroke="black" stroke-width="0.2"></line><line aria-label="a: 1" role="graphics-symbol" aria-roledescription="rule mark" transform="translate(190.90909090909093,0)" x2="0" y2="540" stroke="black" stroke-width="0.2"></line><line aria-label="a: 1" role="graphics-symbol" aria-roledescription="rule mark" transform="translate(190.90909090909093,0)" x2="0" y2="540" stroke="black" stroke-width="0.2"></line><line aria-label="a: 1" role="graphics-symbol" aria-roledescription="rule mark" transform="translate(190.90909090909093,0)" x2="0" y2="540" stroke="black" stroke-width="0.2"></line><line aria-label="a: 1" role="graphics-symbol" aria-roledescription="rule mark" transform="translate(190.90909090909093,0)" x2="0" y2="540" stroke="black" stroke-width="0.2"></line><line aria-label="a: 1" role="graphics-symbol" aria-roledescription="rule mark" transform="translate(190.90909090909093,0)" x2="0" y2="540" stroke="black" stroke-width="0.2"></line><line aria-label="a: 1" role="graphics-symbol" aria-roledescription="rule mark" transform="translate(190.90909090909093,0)" x2="0" y2="540" stroke="black" stroke-width="0.2"></line><line aria-label="a: 1" role="graphics-symbol" aria-roledescription="rule mark" transform="translate(190.90909090909093,0)" x2="0" y2="540" stroke="black" stroke-width="0.2"></line><line aria-label="a: 1" role="graphics-symbol" aria-roledescription="rule mark" transform="translate(190.90909090909093,0)" x2="0" y2="540" stroke="black" stroke-width="0.2"></line><line aria-label="a: 1" role="graphics-symbol" aria-roledescription="rule mark" transform="translate(190.90909090909093,0)" x2="0" y2="540" stroke="black" stroke-width="0.2"></line><line aria-label="a: 1" role="graphics-symbol" aria-roledescription="rule mark" transform="translate(190.90909090909093,0)" x2="0" y2="540" stroke="black" stroke-width="0.2"></line><line aria-label="a: 1" role="graphics-symbol" aria-roledescription="rule mark" transform="translate(190.90909090909093,0)" x2="0" y2="540" stroke="black" stroke-width="0.2"></line><line aria-label="a: 1" role="graphics-symbol" aria-roledescription="rule mark" transform="translate(190.90909090909093,0)" x2="0" y2="540" stroke="black" stroke-width="0.2"></line><line aria-label="a: 1" role="graphics-symbol" aria-roledescription="rule mark" transform="translate(190.90909090909093,0)" x2="0" y2="540" stroke="black" stroke-width="0.2"></line><line aria-label="a: 1" role="graphics-symbol" aria-roledescription="rule mark" transform="translate(190.90909090909093,0)" x2="0" y2="540" stroke="black" stroke-width="0.2"></line><line aria-label="a: 1" role="graphics-symbol" aria-roledescription="rule mark" transform="translate(190.90909090909093,0)" x2="0" y2="540" stroke="black" stroke-width="0.2"></line><line aria-label="a: 1" role="graphics-symbol" aria-roledescription="rule mark" transform="translate(190.90909090909093,0)" x2="0" y2="540" stroke="black" stroke-width="0.2"></line><line aria-label="a: 1" role="graphics-symbol" aria-roledescription="rule mark" transform="translate(190.90909090909093,0)" x2="0" y2="540" stroke="black" stroke-width="0.2"></line><line aria-label="a: 1" role="graphics-symbol" aria-roledescription="rule mark" transform="translate(190.90909090909093,0)" x2="0" y2="540" stroke="black" stroke-width="0.2"></line><line aria-label="a: 1" role="graphics-symbol" aria-roledescription="rule mark" transform="translate(190.90909090909093,0)" x2="0" y2="540" stroke="black" stroke-width="0.2"></line><line aria-label="a: 1" role="graphics-symbol" aria-roledescription="rule mark" transform="translate(190.90909090909093,0)" x2="0" y2="540" stroke="black" stroke-width="0.2"></line><line aria-label="a: 1" role="graphics-symbol" aria-roledescription="rule mark" transform="translate(190.90909090909093,0)" x2="0" y2="540" stroke="black" stroke-width="0.2"></line><line aria-label="a: 1" role="graphics-symbol" aria-roledescription="rule mark" transform="translate(190.90909090909093,0)" x2="0" y2="540" stroke="black" stroke-width="0.2"></line><line aria-label="a: 1" role="graphics-symbol" aria-roledescription="rule mark" transform="translate(190.90909090909093,0)" x2="0" y2="540" stroke="black" stroke-width="0.2"></line><line aria-label="a: 1" role="graphics-symbol" aria-roledescription="rule mark" transform="translate(190.90909090909093,0)" x2="0" y2="540" stroke="black" stroke-width="0.2"></line></g><g class="mark-rule role-mark layer_2_marks" role="graphics-object" aria-roledescription="rule mark container"><line aria-label="CI 0.975: 0.787883245152; upper_Quantile.0.025(R): 0.913817603009; index: AM; Quantile.0.975(R): 0.913817603009; Quantile.0.025(R): 0.787883245152" role="graphics-symbol" aria-roledescription="errorbar" transform="translate(55.92570146009443,50)" x2="80.14004590897004" y2="0" stroke="blue" stroke-width="0.6"></line><line aria-label="CI 0.975: 0.839087965371; upper_Quantile.0.025(R): 0.911056601702; index: PE; Quantile.0.975(R): 0.911056601702; Quantile.0.025(R): 0.839087965371" role="graphics-symbol" aria-roledescription="errorbar" transform="translate(88.5105234178534,310)" x2="45.79822311996814" y2="0" stroke="blue" stroke-width="0.6"></line><line aria-label="CI 0.975: 0.815453197104; upper_Quantile.0.025(R): 0.954345688565; index: CE; Quantile.0.975(R): 0.954345688565; Quantile.0.025(R): 0.815453197104" role="graphics-symbol" aria-roledescription="errorbar" transform="translate(73.47021633914989,110)" x2="88.38613092930382" y2="0" stroke="blue" stroke-width="0.6"></line><line aria-label="CI 0.975: 0.908451077842; upper_Quantile.0.025(R): 0.986788739338; index: AP; Quantile.0.975(R): 0.986788739338; Quantile.0.025(R): 0.908451077842" role="graphics-symbol" aria-roledescription="errorbar" transform="translate(132.65068589949462,70)" x2="49.851239133793115" y2="0" stroke="blue" stroke-width="0.6"></line><line aria-label="CI 0.975: 0.937002346333; upper_Quantile.0.025(R): 1.02510599527; index: RS; Quantile.0.975(R): 1.02510599527; Quantile.0.025(R): 0.937002346333" role="graphics-symbol" aria-roledescription="errorbar" transform="translate(150.8196749392892,450)" x2="56.065958416828806" y2="0" stroke="blue" stroke-width="0.6"></line><line aria-label="CI 0.975: 0.969543422293; upper_Quantile.0.025(R): 1.02848627945; index: SP; Quantile.0.975(R): 1.02848627945; Quantile.0.025(R): 0.969543422293" role="graphics-symbol" aria-roledescription="errorbar" transform="translate(171.52763236852894,510)" x2="37.50909092083157" y2="0" stroke="blue" stroke-width="0.6"></line><line aria-label="CI 0.975: 0.959537180373; upper_Quantile.0.025(R): 1.08452544158; index: TO; Quantile.0.975(R): 1.08452544158; Quantile.0.025(R): 0.959537180373" role="graphics-symbol" aria-roledescription="errorbar" transform="translate(165.1600238738853,530)" x2="79.53798440267062" y2="0" stroke="blue" stroke-width="0.6"></line><line aria-label="CI 0.975: 0.929577958334; upper_Quantile.0.025(R): 1.10236117335; index: RN; Quantile.0.975(R): 1.10236117335; Quantile.0.025(R): 0.929577958334" role="graphics-symbol" aria-roledescription="errorbar" transform="translate(146.09506439448546,390)" x2="109.95295500873635" y2="0" stroke="blue" stroke-width="0.6"></line><line aria-label="CI 0.975: 0.989957788283; upper_Quantile.0.025(R): 1.10180262611; index: SC; Quantile.0.975(R): 1.10180262611; Quantile.0.025(R): 0.989957788283" role="graphics-symbol" aria-roledescription="errorbar" transform="translate(184.5185925438249,470)" x2="71.17398770823027" y2="0" stroke="blue" stroke-width="0.6"></line><line aria-label="CI 0.975: 1.05190223452; upper_Quantile.0.025(R): 1.1262774589; index: RJ; Quantile.0.975(R): 1.1262774589; Quantile.0.025(R): 1.05190223452" role="graphics-symbol" aria-roledescription="errorbar" transform="translate(223.93778560077388,370)" x2="47.32968824517181" y2="0" stroke="blue" stroke-width="0.6"></line><line aria-label="CI 0.975: 1.02360106868; upper_Quantile.0.025(R): 1.21190561249; index: BA; Quantile.0.975(R): 1.21190561249; Quantile.0.025(R): 1.02360106868" role="graphics-symbol" aria-roledescription="errorbar" transform="translate(205.92795279585647,90)" x2="119.83016424446055" y2="0" stroke="blue" stroke-width="0.6"></line><line aria-label="CI 0.975: 1.04493462677; upper_Quantile.0.025(R): 1.21173640738; index: PR; Quantile.0.975(R): 1.21173640738; Quantile.0.025(R): 1.04493462677" role="graphics-symbol" aria-roledescription="errorbar" transform="translate(219.50385340064093,350)" x2="106.14658765836623" y2="0" stroke="blue" stroke-width="0.6"></line><line aria-label="CI 0.975: 1.0702682706; upper_Quantile.0.025(R): 1.23279164702; index: MG; Quantile.0.975(R): 1.23279164702; Quantile.0.025(R): 1.0702682706" role="graphics-symbol" aria-roledescription="errorbar" transform="translate(235.6252631086212,210)" x2="103.4239668123393" y2="0" stroke="blue" stroke-width="0.6"></line><line aria-label="CI 0.975: 1.08722910254; upper_Quantile.0.025(R): 1.20307312821; index: AL; Quantile.0.975(R): 1.20307312821; Quantile.0.025(R): 1.08722910254" role="graphics-symbol" aria-roledescription="errorbar" transform="translate(246.41851979966003,30)" x2="73.71892542250026" y2="0" stroke="blue" stroke-width="0.6"></line><line aria-label="CI 0.975: 1.07208561278; upper_Quantile.0.025(R): 1.2512375569; index: GO; Quantile.0.975(R): 1.2512375569; Quantile.0.025(R): 1.07208561278" role="graphics-symbol" aria-roledescription="errorbar" transform="translate(236.78175358946575,170)" x2="114.0057826167093" y2="0" stroke="blue" stroke-width="0.6"></line><line aria-label="CI 0.975: 1.06670807588; upper_Quantile.0.025(R): 1.28249915161; index: PI; Quantile.0.975(R): 1.28249915161; Quantile.0.025(R): 1.06670807588" role="graphics-symbol" aria-roledescription="errorbar" transform="translate(233.35968465294343,330)" x2="137.3215936437751" y2="0" stroke="blue" stroke-width="0.6"></line><line aria-label="CI 0.975: 1.12968543288; upper_Quantile.0.025(R): 1.24837562397; index: PB; Quantile.0.975(R): 1.24837562397; Quantile.0.025(R): 1.12968543288" role="graphics-symbol" aria-roledescription="errorbar" transform="translate(273.4361845615489,290)" x2="75.53012160367484" y2="0" stroke="blue" stroke-width="0.6"></line><line aria-label="CI 0.975: 1.14217108423; upper_Quantile.0.025(R): 1.27780598977; index: PA; Quantile.0.975(R): 1.27780598977; Quantile.0.025(R): 1.14217108423" role="graphics-symbol" aria-roledescription="errorbar" transform="translate(281.38159905701997,270)" x2="86.31312170339606" y2="0" stroke="blue" stroke-width="0.6"></line><line aria-label="CI 0.975: 1.18294566968; upper_Quantile.0.025(R): 1.24031046551; index: MA; Quantile.0.975(R): 1.24031046551; Quantile.0.025(R): 1.18294566968" role="graphics-symbol" aria-roledescription="errorbar" transform="translate(307.3290625247226,190)" x2="36.50487007107063" y2="0" stroke="blue" stroke-width="0.6"></line><line aria-label="CI 0.975: 1.13913343017; upper_Quantile.0.025(R): 1.30034346132; index: AC; Quantile.0.975(R): 1.30034346132; Quantile.0.025(R): 1.13913343017" role="graphics-symbol" aria-roledescription="errorbar" transform="translate(279.448546474198,10)" x2="102.5882016416989" y2="0" stroke="blue" stroke-width="0.6"></line><line aria-label="CI 0.975: 1.12482557862; upper_Quantile.0.025(R): 1.34942221754; index: MS; Quantile.0.975(R): 1.34942221754; Quantile.0.025(R): 1.12482557862" role="graphics-symbol" aria-roledescription="errorbar" transform="translate(270.343550032161,230)" x2="142.92513385961166" y2="0" stroke="blue" stroke-width="0.6"></line><line aria-label="CI 0.975: 1.15561734823; upper_Quantile.0.025(R): 1.31766063773; index: SE; Quantile.0.975(R): 1.31766063773; Quantile.0.025(R): 1.15561734823" role="graphics-symbol" aria-roledescription="errorbar" transform="translate(289.9383125107037,490)" x2="103.11845695189982" y2="0" stroke="blue" stroke-width="0.6"></line><line aria-label="CI 0.975: 1.202185089; upper_Quantile.0.025(R): 1.43209050994; index: MT; Quantile.0.975(R): 1.43209050994; Quantile.0.025(R): 1.202185089" role="graphics-symbol" aria-roledescription="errorbar" transform="translate(319.5723293647616,250)" x2="146.30344969007422" y2="0" stroke="blue" stroke-width="0.6"></line><line aria-label="CI 0.975: 1.20140824645; upper_Quantile.0.025(R): 1.4773929201; index: DF; Quantile.0.975(R): 1.4773929201; Quantile.0.025(R): 1.20140824645" role="graphics-symbol" aria-roledescription="errorbar" transform="translate(319.0779750155482,130)" x2="175.62661050032756" y2="0" stroke="blue" stroke-width="0.6"></line><line aria-label="CI 0.975: 1.22024738245; upper_Quantile.0.025(R): 1.51461333879; index: RR; Quantile.0.975(R): 1.51461333879; Quantile.0.025(R): 1.22024738245" role="graphics-symbol" aria-roledescription="errorbar" transform="translate(331.06651610449495,430)" x2="187.32379039765016" y2="0" stroke="blue" stroke-width="0.6"></line><line aria-label="CI 0.975: 1.24094571797; upper_Quantile.0.025(R): 1.48035148649; index: ES; Quantile.0.975(R): 1.48035148649; Quantile.0.025(R): 1.24094571797" role="graphics-symbol" aria-roledescription="errorbar" transform="translate(344.23818416566905,150)" x2="152.3491254170453" y2="0" stroke="blue" stroke-width="0.6"></line><line aria-label="CI 0.975: 1.34236805159; upper_Quantile.0.025(R): 1.72067636092; index: RO; Quantile.0.975(R): 1.72067636092; Quantile.0.025(R): 1.34236805159" role="graphics-symbol" aria-roledescription="errorbar" transform="translate(408.7796691933217,410)" x2="240.74165139102303" y2="0" stroke="blue" stroke-width="0.6"></line></g><g class="mark-group role-title"><g transform="translate(350,-17.2)"><path class="background" aria-hidden="true" d="M0,0h0v0h0Z" pointer-events="none"></path><g><g class="mark-text role-title-text" role="graphics-symbol" aria-roledescription="title" aria-label="Title text 'Instantaneous reproduction number estimate for all states in Brazil'" pointer-events="none"><text text-anchor="middle" transform="translate(0,10)" font-family="sans-serif" font-size="13px" font-weight="bold" fill="#000" opacity="1">Instantaneous reproduction number estimate for all states in Brazil</text></g></g><path class="foreground" aria-hidden="true" d="" pointer-events="none" display="none"></path></g></g></g><path class="foreground" aria-hidden="true" d="" display="none"></path></g></g></g></svg>