<svg class="marks" width="749" height="600" viewBox="0 0 749 600" version="1.1" xmlns="http://www.w3.org/2000/svg" xmlns:xlink="http://www.w3.org/1999/xlink"><rect width="749" height="600" fill="white"></rect><g fill="none" stroke-miterlimit="10" transform="translate(43,23)"><g class="mark-group role-frame root" role="graphics-object" aria-roledescription="group mark container"><g transform="translate(0,0)"><path class="background" aria-hidden="true" d="M0.5,0.5h700v540h-700Z"></path><g><g class="mark-group role-axis" aria-hidden="true"><g transform="translate(0.5,0.5)"><path class="background" aria-hidden="true" d="M0,0h0v0h0Z" pointer-events="none"></path><g><g class="mark-rule role-axis-grid" pointer-events="none"><line transform="translate(0,10)" x2="700" y2="0" stroke="#ddd" stroke-width="1" opacity="1"></line><line transform="translate(0,30)" x2="700" y2="0" stroke="#ddd" stroke-width="1" opacity="1"></line><line transform="translate(0,50)" x2="700" y2="0" stroke="#ddd" stroke-width="1" opacity="1"></line><line transform="translate(0,70)" x2="700" y2="0" stroke="#ddd" stroke-width="1" opacity="1"></line><line transform="translate(0,90)" x2="700" y2="0" stroke="#ddd" stroke-width="1" opacity="1"></line><line transform="translate(0,110)" x2="700" y2="0" stroke="#ddd" stroke-width="1" opacity="1"></line><line transform="translate(0,130)" x2="700" y2="0" stroke="#ddd" stroke-width="1" opacity="1"></line><line transform="translate(0,150)" x2="700" y2="0" stroke="#ddd" stroke-width="1" opacity="1"></line><line transform="translate(0,170)" x2="700" y2="0" stroke="#ddd" stroke-width="1" opacity="1"></line><line transform="translate(0,190)" x2="700" y2="0" stroke="#ddd" stroke-width="1" opacity="1"></line><line transform="translate(0,210)" x2="700" y2="0" stroke="#ddd" stroke-width="1" opacity="1"></line><line transform="translate(0,230)" x2="700" y2="0" stroke="#ddd" stroke-width="1" opacity="1"></line><line transform="translate(0,250)" x2="700" y2="0" stroke="#ddd" stroke-width="1" opacity="1"></line><line transform="translate(0,270)" x2="700" y2="0" stroke="#ddd" stroke-width="1" opacity="1"></line><line transform="translate(0,290)" x2="700" y2="0" stroke="#ddd" stroke-width="1" opacity="1"></line><line transform="translate(0,310)" x2="700" y2="0" stroke="#ddd" stroke-width="1" opacity="1"></line><line transform="translate(0,330)" x2="700" y2="0" stroke="#ddd" stroke-width="1" opacity="1"></line><line transform="translate(0,350)" x2="700" y2="0" stroke="#ddd" stroke-width="1" opacity="1"></line><line transform="translate(0,370)" x2="700" y2="0" stroke="#ddd" stroke-width="1" opacity="1"></line><line transform="translate(0,390)" x2="700" y2="0" stroke="#ddd" stroke-width="1" opacity="1"></line><line transform="translate(0,410)" x2="700" y2="0" stroke="#ddd" stroke-width="1" opacity="1"></line><line transform="translate(0,430)" x2="700" y2="0" stroke="#ddd" stroke-width="1" opacity="1"></line><line transform="translate(0,450)" x2="700" y2="0" stroke="#ddd" stroke-width="1" opacity="1"></line><line transform="translate(0,470)" x2="700" y2="0" stroke="#ddd" stroke-width="1" opacity="1"></line><line transform="translate(0,490)" x2="700" y2="0" stroke="#ddd" stroke-width="1" opacity="1"></line><line transform="translate(0,510)" x2="700" y2="0" stroke="#ddd" stroke-width="1" opacity="1"></line><line transform="translate(0,530)" x2="700" y2="0" stroke="#ddd" stroke-width="1" opacity="1"></line></g></g><path class="foreground" aria-hidden="true" d="" pointer-events="none" display="none"></path></g></g><g class="mark-group role-axis" role="graphics-symbol" aria-roledescription="axis" aria-label="X-axis titled 'Instantaneous reproduction number R(t), CI 0.975' for a linear scale with values from 0.5 to 1.4"><g transform="translate(0.5,540.5)"><path class="background" aria-hidden="true" d="M0,0h0v0h0Z" pointer-events="none"></path><g><g class="mark-rule role-axis-tick" pointer-events="none"><line transform="translate(0,0)" x2="0" y2="5" stroke="#888" stroke-width="1" opacity="1"></line><line transform="translate(39,0)" x2="0" y2="5" stroke="#888" stroke-width="1" opacity="1"></line><line transform="translate(78,0)" x2="0" y2="5" stroke="#888" stroke-width="1" opacity="1"></line><line transform="translate(117,0)" x2="0" y2="5" stroke="#888" stroke-width="1" opacity="1"></line><line transform="translate(156,0)" x2="0" y2="5" stroke="#888" stroke-width="1" opacity="1"></line><line transform="translate(194,0)" x2="0" y2="5" stroke="#888" stroke-width="1" opacity="1"></line><line transform="translate(233,0)" x2="0" y2="5" stroke="#888" stroke-width="1" opacity="1"></line><line transform="translate(272,0)" x2="0" y2="5" stroke="#888" stroke-width="1" opacity="1"></line><line transform="translate(311,0)" x2="0" y2="5" stroke="#888" stroke-width="1" opacity="1"></line><line transform="translate(350,0)" x2="0" y2="5" stroke="#888" stroke-width="1" opacity="1"></line><line transform="translate(389,0)" x2="0" y2="5" stroke="#888" stroke-width="1" opacity="1"></line><line transform="translate(428,0)" x2="0" y2="5" stroke="#888" stroke-width="1" opacity="1"></line><line transform="translate(467,0)" x2="0" y2="5" stroke="#888" stroke-width="1" opacity="1"></line><line transform="translate(506,0)" x2="0" y2="5" stroke="#888" stroke-width="1" opacity="1"></line><line transform="translate(544,0)" x2="0" y2="5" stroke="#888" stroke-width="1" opacity="1"></line><line transform="translate(583,0)" x2="0" y2="5" stroke="#888" stroke-width="1" opacity="1"></line><line transform="translate(622,0)" x2="0" y2="5" stroke="#888" stroke-width="1" opacity="1"></line><line transform="translate(661,0)" x2="0" y2="5" stroke="#888" stroke-width="1" opacity="1"></line><line transform="translate(700,0)" x2="0" y2="5" stroke="#888" stroke-width="1" opacity="1"></line></g><g class="mark-text role-axis-label" pointer-events="none"><text text-anchor="start" transform="translate(0,15)" font-family="sans-serif" font-size="10px" fill="#000" opacity="1">0.50</text><text text-anchor="middle" transform="translate(38.88888888888893,15)" font-family="sans-serif" font-size="10px" fill="#000" opacity="1">0.55</text><text text-anchor="middle" transform="translate(77.77777777777776,15)" font-family="sans-serif" font-size="10px" fill="#000" opacity="1">0.60</text><text text-anchor="middle" transform="translate(116.6666666666667,15)" font-family="sans-serif" font-size="10px" fill="#000" opacity="1">0.65</text><text text-anchor="middle" transform="translate(155.55555555555551,15)" font-family="sans-serif" font-size="10px" fill="#000" opacity="1">0.70</text><text text-anchor="middle" transform="translate(194.44444444444446,15)" font-family="sans-serif" font-size="10px" fill="#000" opacity="1">0.75</text><text text-anchor="middle" transform="translate(233.3333333333334,15)" font-family="sans-serif" font-size="10px" fill="#000" opacity="1">0.80</text><text text-anchor="middle" transform="translate(272.22222222222223,15)" font-family="sans-serif" font-size="10px" fill="#000" opacity="1">0.85</text><text text-anchor="middle" transform="translate(311.1111111111112,15)" font-family="sans-serif" font-size="10px" fill="#000" opacity="1">0.90</text><text text-anchor="middle" transform="translate(350,15)" font-family="sans-serif" font-size="10px" fill="#000" opacity="1">0.95</text><text text-anchor="middle" transform="translate(388.8888888888889,15)" font-family="sans-serif" font-size="10px" fill="#000" opacity="1">1.00</text><text text-anchor="middle" transform="translate(427.7777777777779,15)" font-family="sans-serif" font-size="10px" fill="#000" opacity="1">1.05</text><text text-anchor="middle" transform="translate(466.6666666666668,15)" font-family="sans-serif" font-size="10px" fill="#000" opacity="1">1.10</text><text text-anchor="middle" transform="translate(505.55555555555554,15)" font-family="sans-serif" font-size="10px" fill="#000" opacity="1">1.15</text><text text-anchor="middle" transform="translate(544.4444444444445,15)" font-family="sans-serif" font-size="10px" fill="#000" opacity="1">1.20</text><text text-anchor="middle" transform="translate(583.3333333333334,15)" font-family="sans-serif" font-size="10px" fill="#000" opacity="1">1.25</text><text text-anchor="middle" transform="translate(622.2222222222224,15)" font-family="sans-serif" font-size="10px" fill="#000" opacity="1">1.30</text><text text-anchor="middle" transform="translate(661.1111111111112,15)" font-family="sans-serif" font-size="10px" fill="#000" opacity="1">1.35</text><text text-anchor="end" transform="translate(700,15)" font-family="sans-serif" font-size="10px" fill="#000" opacity="1">1.40</text></g><g class="mark-rule role-axis-domain" pointer-events="none"><line transform="translate(0,0)" x2="700" y2="0" stroke="#888" stroke-width="1" opacity="1"></line></g><g class="mark-text role-axis-title" pointer-events="none"><text text-anchor="middle" transform="translate(350,30)" font-family="sans-serif" font-size="11px" font-weight="bold" fill="#000" opacity="1">Instantaneous reproduction number R(t), CI 0.975</text></g></g><path class="foreground" aria-hidden="true" d="" pointer-events="none" display="none"></path></g></g><g class="mark-group role-axis" role="graphics-symbol" aria-roledescription="axis" aria-label="Y-axis titled 'States' for a discrete scale with 27 values: AC, AL, AM, AP, BA, ending with TO"><g transform="translate(0.5,0.5)"><path class="background" aria-hidden="true" d="M0,0h0v0h0Z" pointer-events="none"></path><g><g class="mark-rule role-axis-tick" pointer-events="none"><line transform="translate(0,10)" x2="-5" y2="0" stroke="#888" stroke-width="1" opacity="1"></line><line transform="translate(0,30)" x2="-5" y2="0" stroke="#888" stroke-width="1" opacity="1"></line><line transform="translate(0,50)" x2="-5" y2="0" stroke="#888" stroke-width="1" opacity="1"></line><line transform="translate(0,70)" x2="-5" y2="0" stroke="#888" stroke-width="1" opacity="1"></line><line transform="translate(0,90)" x2="-5" y2="0" stroke="#888" stroke-width="1" opacity="1"></line><line transform="translate(0,110)" x2="-5" y2="0" stroke="#888" stroke-width="1" opacity="1"></line><line transform="translate(0,130)" x2="-5" y2="0" stroke="#888" stroke-width="1" opacity="1"></line><line transform="translate(0,150)" x2="-5" y2="0" stroke="#888" stroke-width="1" opacity="1"></line><line transform="translate(0,170)" x2="-5" y2="0" stroke="#888" stroke-width="1" opacity="1"></line><line transform="translate(0,190)" x2="-5" y2="0" stroke="#888" stroke-width="1" opacity="1"></line><line transform="translate(0,210)" x2="-5" y2="0" stroke="#888" stroke-width="1" opacity="1"></line><line transform="translate(0,230)" x2="-5" y2="0" stroke="#888" stroke-width="1" opacity="1"></line><line transform="translate(0,250)" x2="-5" y2="0" stroke="#888" stroke-width="1" opacity="1"></line><line transform="translate(0,270)" x2="-5" y2="0" stroke="#888" stroke-width="1" opacity="1"></line><line transform="translate(0,290)" x2="-5" y2="0" stroke="#888" stroke-width="1" opacity="1"></line><line transform="translate(0,310)" x2="-5" y2="0" stroke="#888" stroke-width="1" opacity="1"></line><line transform="translate(0,330)" x2="-5" y2="0" stroke="#888" stroke-width="1" opacity="1"></line><line transform="translate(0,350)" x2="-5" y2="0" stroke="#888" stroke-width="1" opacity="1"></line><line transform="translate(0,370)" x2="-5" y2="0" stroke="#888" stroke-width="1" opacity="1"></line><line transform="translate(0,390)" x2="-5" y2="0" stroke="#888" stroke-width="1" opacity="1"></line><line transform="translate(0,410)" x2="-5" y2="0" stroke="#888" stroke-width="1" opacity="1"></line><line transform="translate(0,430)" x2="-5" y2="0" stroke="#888" stroke-width="1" opacity="1"></line><line transform="translate(0,450)" x2="-5" y2="0" stroke="#888" stroke-width="1" opacity="1"></line><line transform="translate(0,470)" x2="-5" y2="0" stroke="#888" stroke-width="1" opacity="1"></line><line transform="translate(0,490)" x2="-5" y2="0" stroke="#888" stroke-width="1" opacity="1"></line><line transform="translate(0,510)" x2="-5" y2="0" stroke="#888" stroke-width="1" opacity="1"></line><line transform="translate(0,530)" x2="-5" y2="0" stroke="#888" stroke-width="1" opacity="1"></line></g><g class="mark-text role-axis-label" pointer-events="none"><text text-anchor="end" transform="translate(-7,12.5)" font-family="sans-serif" font-size="10px" fill="#000" opacity="1">AC</text><text text-anchor="end" transform="translate(-7,32.5)" font-family="sans-serif" font-size="10px" fill="#000" opacity="1">AL</text><text text-anchor="end" transform="translate(-7,52.5)" font-family="sans-serif" font-size="10px" fill="#000" opacity="1">AM</text><text text-anchor="end" transform="translate(-7,72.5)" font-family="sans-serif" font-size="10px" fill="#000" opacity="1">AP</text><text text-anchor="end" transform="translate(-7,92.5)" font-family="sans-serif" font-size="10px" fill="#000" opacity="1">BA</text><text text-anchor="end" transform="translate(-7,112.5)" font-family="sans-serif" font-size="10px" fill="#000" opacity="1">CE</text><text text-anchor="end" transform="translate(-7,132.5)" font-family="sans-serif" font-size="10px" fill="#000" opacity="1">DF</text><text text-anchor="end" transform="translate(-7,152.5)" font-family="sans-serif" font-size="10px" fill="#000" opacity="1">ES</text><text text-anchor="end" transform="translate(-7,172.5)" font-family="sans-serif" font-size="10px" fill="#000" opacity="1">GO</text><text text-anchor="end" transform="translate(-7,192.5)" font-family="sans-serif" font-size="10px" fill="#000" opacity="1">MA</text><text text-anchor="end" transform="translate(-7,212.5)" font-family="sans-serif" font-size="10px" fill="#000" opacity="1">MG</text><text text-anchor="end" transform="translate(-7,232.5)" font-family="sans-serif" font-size="10px" fill="#000" opacity="1">MS</text><text text-anchor="end" transform="translate(-7,252.5)" font-family="sans-serif" font-size="10px" fill="#000" opacity="1">MT</text><text text-anchor="end" transform="translate(-7,272.5)" font-family="sans-serif" font-size="10px" fill="#000" opacity="1">PA</text><text text-anchor="end" transform="translate(-7,292.5)" font-family="sans-serif" font-size="10px" fill="#000" opacity="1">PB</text><text text-anchor="end" transform="translate(-7,312.5)" font-family="sans-serif" font-size="10px" fill="#000" opacity="1">PE</text><text text-anchor="end" transform="translate(-7,332.5)" font-family="sans-serif" font-size="10px" fill="#000" opacity="1">PI</text><text text-anchor="end" transform="translate(-7,352.5)" font-family="sans-serif" font-size="10px" fill="#000" opacity="1">PR</text><text text-anchor="end" transform="translate(-7,372.5)" font-family="sans-serif" font-size="10px" fill="#000" opacity="1">RJ</text><text text-anchor="end" transform="translate(-7,392.5)" font-family="sans-serif" font-size="10px" fill="#000" opacity="1">RN</text><text text-anchor="end" transform="translate(-7,412.5)" font-family="sans-serif" font-size="10px" fill="#000" opacity="1">RO</text><text text-anchor="end" transform="translate(-7,432.5)" font-family="sans-serif" font-size="10px" fill="#000" opacity="1">RR</text><text text-anchor="end" transform="translate(-7,452.5)" font-family="sans-serif" font-size="10px" fill="#000" opacity="1">RS</text><text text-anchor="end" transform="translate(-7,472.5)" font-family="sans-serif" font-size="10px" fill="#000" opacity="1">SC</text><text text-anchor="end" transform="translate(-7,492.5)" font-family="sans-serif" font-size="10px" fill="#000" opacity="1">SE</text><text text-anchor="end" transform="translate(-7,512.5)" font-family="sans-serif" font-size="10px" fill="#000" opacity="1">SP</text><text text-anchor="end" transform="translate(-7,532.5)" font-family="sans-serif" font-size="10px" fill="#000" opacity="1">TO</text></g><g class="mark-rule role-axis-domain" pointer-events="none"><line transform="translate(0,0)" x2="0" y2="540" stroke="#888" stroke-width="1" opacity="1"></line></g><g class="mark-text role-axis-title" pointer-events="none"><text text-anchor="middle" transform="translate(-27,270) rotate(-90) translate(0,-2)" font-family="sans-serif" font-size="11px" font-weight="bold" fill="#000" opacity="1">States</text></g></g><path class="foreground" aria-hidden="true" d="" pointer-events="none" display="none"></path></g></g><g class="mark-symbol role-mark layer_0_marks" role="graphics-object" aria-roledescription="symbol mark container"><path aria-label="Instantaneous reproduction number R(t): 0.64456750494; States: RR" role="graphics-symbol" aria-roledescription="point" transform="translate(112.44139273125838,430)" d="M2.7386127875258306,0A2.7386127875258306,2.7386127875258306,0,1,1,-2.7386127875258306,0A2.7386127875258306,2.7386127875258306,0,1,1,2.7386127875258306,0" stroke="#4c78a8" stroke-width="2" opacity="0.7"></path><path aria-label="Instantaneous reproduction number R(t): 0.694852334291; States: RN" role="graphics-symbol" aria-roledescription="point" transform="translate(151.55181555994838,390)" d="M2.7386127875258306,0A2.7386127875258306,2.7386127875258306,0,1,1,-2.7386127875258306,0A2.7386127875258306,2.7386127875258306,0,1,1,2.7386127875258306,0" stroke="#4c78a8" stroke-width="2" opacity="0.7"></path><path aria-label="Instantaneous reproduction number R(t): 0.75199726317; States: AP" role="graphics-symbol" aria-roledescription="point" transform="translate(195.99787135467952,70)" d="M2.7386127875258306,0A2.7386127875258306,2.7386127875258306,0,1,1,-2.7386127875258306,0A2.7386127875258306,2.7386127875258306,0,1,1,2.7386127875258306,0" stroke="#4c78a8" stroke-width="2" opacity="0.7"></path><path aria-label="Instantaneous reproduction number R(t): 0.802523584947; States: MA" role="graphics-symbol" aria-roledescription="point" transform="translate(235.29612162556825,190)" d="M2.7386127875258306,0A2.7386127875258306,2.7386127875258306,0,1,1,-2.7386127875258306,0A2.7386127875258306,2.7386127875258306,0,1,1,2.7386127875258306,0" stroke="#4c78a8" stroke-width="2" opacity="0.7"></path><path aria-label="Instantaneous reproduction number R(t): 0.913956614316; States: PA" role="graphics-symbol" aria-roledescription="point" transform="translate(321.96625557945265,270)" d="M2.7386127875258306,0A2.7386127875258306,2.7386127875258306,0,1,1,-2.7386127875258306,0A2.7386127875258306,2.7386127875258306,0,1,1,2.7386127875258306,0" stroke="#4c78a8" stroke-width="2" opacity="0.7"></path><path aria-label="Instantaneous reproduction number R(t): 0.940112424583; States: RJ" role="graphics-symbol" aria-roledescription="point" transform="translate(342.309663564408,370)" d="M2.7386127875258306,0A2.7386127875258306,2.7386127875258306,0,1,1,-2.7386127875258306,0A2.7386127875258306,2.7386127875258306,0,1,1,2.7386127875258306,0" stroke="#4c78a8" stroke-width="2" opacity="0.7"></path><path aria-label="Instantaneous reproduction number R(t): 0.945883132316; States: BA" role="graphics-symbol" aria-roledescription="point" transform="translate(346.7979918014771,90)" d="M2.7386127875258306,0A2.7386127875258306,2.7386127875258306,0,1,1,-2.7386127875258306,0A2.7386127875258306,2.7386127875258306,0,1,1,2.7386127875258306,0" stroke="#4c78a8" stroke-width="2" opacity="0.7"></path><path aria-label="Instantaneous reproduction number R(t): 0.971141101621; States: SP" role="graphics-symbol" aria-roledescription="point" transform="translate(366.4430790388784,510)" d="M2.7386127875258306,0A2.7386127875258306,2.7386127875258306,0,1,1,-2.7386127875258306,0A2.7386127875258306,2.7386127875258306,0,1,1,2.7386127875258306,0" stroke="#4c78a8" stroke-width="2" opacity="0.7"></path><path aria-label="Instantaneous reproduction number R(t): 0.984349129782; States: ES" role="graphics-symbol" aria-roledescription="point" transform="translate(376.7159898304576,150)" d="M2.7386127875258306,0A2.7386127875258306,2.7386127875258306,0,1,1,-2.7386127875258306,0A2.7386127875258306,2.7386127875258306,0,1,1,2.7386127875258306,0" stroke="#4c78a8" stroke-width="2" opacity="0.7"></path><path aria-label="Instantaneous reproduction number R(t): 0.992397944952; States: AL" role="graphics-symbol" aria-roledescription="point" transform="translate(382.97617940708903,30)" d="M2.7386127875258306,0A2.7386127875258306,2.7386127875258306,0,1,1,-2.7386127875258306,0A2.7386127875258306,2.7386127875258306,0,1,1,2.7386127875258306,0" stroke="#4c78a8" stroke-width="2" opacity="0.7"></path><path aria-label="Instantaneous reproduction number R(t): 1.00941385766; States: DF" role="graphics-symbol" aria-roledescription="point" transform="translate(396.2107781784563,130)" d="M2.7386127875258306,0A2.7386127875258306,2.7386127875258306,0,1,1,-2.7386127875258306,0A2.7386127875258306,2.7386127875258306,0,1,1,2.7386127875258306,0" stroke="#4c78a8" stroke-width="2" opacity="0.7"></path><path aria-label="Instantaneous reproduction number R(t): 1.03494007296; States: PB" role="graphics-symbol" aria-roledescription="point" transform="translate(416.0645011885156,290)" d="M2.7386127875258306,0A2.7386127875258306,2.7386127875258306,0,1,1,-2.7386127875258306,0A2.7386127875258306,2.7386127875258306,0,1,1,2.7386127875258306,0" stroke="#4c78a8" stroke-width="2" opacity="0.7"></path><path aria-label="Instantaneous reproduction number R(t): 1.0454060589; States: RO" role="graphics-symbol" aria-roledescription="point" transform="translate(424.2047124809561,410)" d="M2.7386127875258306,0A2.7386127875258306,2.7386127875258306,0,1,1,-2.7386127875258306,0A2.7386127875258306,2.7386127875258306,0,1,1,2.7386127875258306,0" stroke="#4c78a8" stroke-width="2" opacity="0.7"></path><path aria-label="Instantaneous reproduction number R(t): 1.05678098143; States: CE" role="graphics-symbol" aria-roledescription="point" transform="translate(433.0518744464673,110)" d="M2.7386127875258306,0A2.7386127875258306,2.7386127875258306,0,1,1,-2.7386127875258306,0A2.7386127875258306,2.7386127875258306,0,1,1,2.7386127875258306,0" stroke="#4c78a8" stroke-width="2" opacity="0.7"></path><path aria-label="Instantaneous reproduction number R(t): 1.059325035; States: PI" role="graphics-symbol" aria-roledescription="point" transform="translate(435.0305827743004,330)" d="M2.7386127875258306,0A2.7386127875258306,2.7386127875258306,0,1,1,-2.7386127875258306,0A2.7386127875258306,2.7386127875258306,0,1,1,2.7386127875258306,0" stroke="#4c78a8" stroke-width="2" opacity="0.7"></path><path aria-label="Instantaneous reproduction number R(t): 1.06036248704; States: RS" role="graphics-symbol" aria-roledescription="point" transform="translate(435.83748991953627,450)" d="M2.7386127875258306,0A2.7386127875258306,2.7386127875258306,0,1,1,-2.7386127875258306,0A2.7386127875258306,2.7386127875258306,0,1,1,2.7386127875258306,0" stroke="#4c78a8" stroke-width="2" opacity="0.7"></path><path aria-label="Instantaneous reproduction number R(t): 1.06204452993; States: AC" role="graphics-symbol" aria-roledescription="point" transform="translate(437.145745500613,10)" d="M2.7386127875258306,0A2.7386127875258306,2.7386127875258306,0,1,1,-2.7386127875258306,0A2.7386127875258306,2.7386127875258306,0,1,1,2.7386127875258306,0" stroke="#4c78a8" stroke-width="2" opacity="0.7"></path><path aria-label="Instantaneous reproduction number R(t): 1.06911353804; States: SE" role="graphics-symbol" aria-roledescription="point" transform="translate(442.6438629177408,490)" d="M2.7386127875258306,0A2.7386127875258306,2.7386127875258306,0,1,1,-2.7386127875258306,0A2.7386127875258306,2.7386127875258306,0,1,1,2.7386127875258306,0" stroke="#4c78a8" stroke-width="2" opacity="0.7"></path><path aria-label="Instantaneous reproduction number R(t): 1.0692420394; States: MG" role="graphics-symbol" aria-roledescription="point" transform="translate(442.74380841916246,210)" d="M2.7386127875258306,0A2.7386127875258306,2.7386127875258306,0,1,1,-2.7386127875258306,0A2.7386127875258306,2.7386127875258306,0,1,1,2.7386127875258306,0" stroke="#4c78a8" stroke-width="2" opacity="0.7"></path><path aria-label="Instantaneous reproduction number R(t): 1.09068285247; States: PR" role="graphics-symbol" aria-roledescription="point" transform="translate(459.41999636532114,350)" d="M2.7386127875258306,0A2.7386127875258306,2.7386127875258306,0,1,1,-2.7386127875258306,0A2.7386127875258306,2.7386127875258306,0,1,1,2.7386127875258306,0" stroke="#4c78a8" stroke-width="2" opacity="0.7"></path><path aria-label="Instantaneous reproduction number R(t): 1.10392009095; States: PE" role="graphics-symbol" aria-roledescription="point" transform="translate(469.71562629163566,310)" d="M2.7386127875258306,0A2.7386127875258306,2.7386127875258306,0,1,1,-2.7386127875258306,0A2.7386127875258306,2.7386127875258306,0,1,1,2.7386127875258306,0" stroke="#4c78a8" stroke-width="2" opacity="0.7"></path><path aria-label="Instantaneous reproduction number R(t): 1.12651645999; States: AM" role="graphics-symbol" aria-roledescription="point" transform="translate(487.29057999557347,50)" d="M2.7386127875258306,0A2.7386127875258306,2.7386127875258306,0,1,1,-2.7386127875258306,0A2.7386127875258306,2.7386127875258306,0,1,1,2.7386127875258306,0" stroke="#4c78a8" stroke-width="2" opacity="0.7"></path><path aria-label="Instantaneous reproduction number R(t): 1.13642904434; States: MS" role="graphics-symbol" aria-roledescription="point" transform="translate(495.0003678201707,230)" d="M2.7386127875258306,0A2.7386127875258306,2.7386127875258306,0,1,1,-2.7386127875258306,0A2.7386127875258306,2.7386127875258306,0,1,1,2.7386127875258306,0" stroke="#4c78a8" stroke-width="2" opacity="0.7"></path><path aria-label="Instantaneous reproduction number R(t): 1.16499902486; States: SC" role="graphics-symbol" aria-roledescription="point" transform="translate(517.2214637764564,470)" d="M2.7386127875258306,0A2.7386127875258306,2.7386127875258306,0,1,1,-2.7386127875258306,0A2.7386127875258306,2.7386127875258306,0,1,1,2.7386127875258306,0" stroke="#4c78a8" stroke-width="2" opacity="0.7"></path><path aria-label="Instantaneous reproduction number R(t): 1.17568134042; States: MT" role="graphics-symbol" aria-roledescription="point" transform="translate(525.5299314383859,250)" d="M2.7386127875258306,0A2.7386127875258306,2.7386127875258306,0,1,1,-2.7386127875258306,0A2.7386127875258306,2.7386127875258306,0,1,1,2.7386127875258306,0" stroke="#4c78a8" stroke-width="2" opacity="0.7"></path><path aria-label="Instantaneous reproduction number R(t): 1.26064075654; States: TO" role="graphics-symbol" aria-roledescription="point" transform="translate(591.6094773085356,530)" d="M2.7386127875258306,0A2.7386127875258306,2.7386127875258306,0,1,1,-2.7386127875258306,0A2.7386127875258306,2.7386127875258306,0,1,1,2.7386127875258306,0" stroke="#4c78a8" stroke-width="2" opacity="0.7"></path><path aria-label="Instantaneous reproduction number R(t): 1.30931626029; States: GO" role="graphics-symbol" aria-roledescription="point" transform="translate(629.468202445122,170)" d="M2.7386127875258306,0A2.7386127875258306,2.7386127875258306,0,1,1,-2.7386127875258306,0A2.7386127875258306,2.7386127875258306,0,1,1,2.7386127875258306,0" stroke="#4c78a8" stroke-width="2" opacity="0.7"></path></g><g class="mark-rule role-mark layer_1_marks" role="graphics-object" aria-roledescription="rule mark container"><line aria-label="a: 1" role="graphics-symbol" aria-roledescription="rule mark" transform="translate(388.8888888888889,0)" x2="0" y2="540" stroke="black" stroke-width="0.2"></line><line aria-label="a: 1" role="graphics-symbol" aria-roledescription="rule mark" transform="translate(388.8888888888889,0)" x2="0" y2="540" stroke="black" stroke-width="0.2"></line><line aria-label="a: 1" role="graphics-symbol" aria-roledescription="rule mark" transform="translate(388.8888888888889,0)" x2="0" y2="540" stroke="black" stroke-width="0.2"></line><line aria-label="a: 1" role="graphics-symbol" aria-roledescription="rule mark" transform="translate(388.8888888888889,0)" x2="0" y2="540" stroke="black" stroke-width="0.2"></line><line aria-label="a: 1" role="graphics-symbol" aria-roledescription="rule mark" transform="translate(388.8888888888889,0)" x2="0" y2="540" stroke="black" stroke-width="0.2"></line><line aria-label="a: 1" role="graphics-symbol" aria-roledescription="rule mark" transform="translate(388.8888888888889,0)" x2="0" y2="540" stroke="black" stroke-width="0.2"></line><line aria-label="a: 1" role="graphics-symbol" aria-roledescription="rule mark" transform="translate(388.8888888888889,0)" x2="0" y2="540" stroke="black" stroke-width="0.2"></line><line aria-label="a: 1" role="graphics-symbol" aria-roledescription="rule mark" transform="translate(388.8888888888889,0)" x2="0" y2="540" stroke="black" stroke-width="0.2"></line><line aria-label="a: 1" role="graphics-symbol" aria-roledescription="rule mark" transform="translate(388.8888888888889,0)" x2="0" y2="540" stroke="black" stroke-width="0.2"></line><line aria-label="a: 1" role="graphics-symbol" aria-roledescription="rule mark" transform="translate(388.8888888888889,0)" x2="0" y2="540" stroke="black" stroke-width="0.2"></line><line aria-label="a: 1" role="graphics-symbol" aria-roledescription="rule mark" transform="translate(388.8888888888889,0)" x2="0" y2="540" stroke="black" stroke-width="0.2"></line><line aria-label="a: 1" role="graphics-symbol" aria-roledescription="rule mark" transform="translate(388.8888888888889,0)" x2="0" y2="540" stroke="black" stroke-width="0.2"></line><line aria-label="a: 1" role="graphics-symbol" aria-roledescription="rule mark" transform="translate(388.8888888888889,0)" x2="0" y2="540" stroke="black" stroke-width="0.2"></line><line aria-label="a: 1" role="graphics-symbol" aria-roledescription="rule mark" transform="translate(388.8888888888889,0)" x2="0" y2="540" stroke="black" stroke-width="0.2"></line><line aria-label="a: 1" role="graphics-symbol" aria-roledescription="rule mark" transform="translate(388.8888888888889,0)" x2="0" y2="540" stroke="black" stroke-width="0.2"></line><line aria-label="a: 1" role="graphics-symbol" aria-roledescription="rule mark" transform="translate(388.8888888888889,0)" x2="0" y2="540" stroke="black" stroke-width="0.2"></line><line aria-label="a: 1" role="graphics-symbol" aria-roledescription="rule mark" transform="translate(388.8888888888889,0)" x2="0" y2="540" stroke="black" stroke-width="0.2"></line><line aria-label="a: 1" role="graphics-symbol" aria-roledescription="rule mark" transform="translate(388.8888888888889,0)" x2="0" y2="540" stroke="black" stroke-width="0.2"></line><line aria-label="a: 1" role="graphics-symbol" aria-roledescription="rule mark" transform="translate(388.8888888888889,0)" x2="0" y2="540" stroke="black" stroke-width="0.2"></line><line aria-label="a: 1" role="graphics-symbol" aria-roledescription="rule mark" transform="translate(388.8888888888889,0)" x2="0" y2="540" stroke="black" stroke-width="0.2"></line><line aria-label="a: 1" role="graphics-symbol" aria-roledescription="rule mark" transform="translate(388.8888888888889,0)" x2="0" y2="540" stroke="black" stroke-width="0.2"></line><line aria-label="a: 1" role="graphics-symbol" aria-roledescription="rule mark" transform="translate(388.8888888888889,0)" x2="0" y2="540" stroke="black" stroke-width="0.2"></line><line aria-label="a: 1" role="graphics-symbol" aria-roledescription="rule mark" transform="translate(388.8888888888889,0)" x2="0" y2="540" stroke="black" stroke-width="0.2"></line><line aria-label="a: 1" role="graphics-symbol" aria-roledescription="rule mark" transform="translate(388.8888888888889,0)" x2="0" y2="540" stroke="black" stroke-width="0.2"></line><line aria-label="a: 1" role="graphics-symbol" aria-roledescription="rule mark" transform="translate(388.8888888888889,0)" x2="0" y2="540" stroke="black" stroke-width="0.2"></line><line aria-label="a: 1" role="graphics-symbol" aria-roledescription="rule mark" transform="translate(388.8888888888889,0)" x2="0" y2="540" stroke="black" stroke-width="0.2"></line><line aria-label="a: 1" role="graphics-symbol" aria-roledescription="rule mark" transform="translate(388.8888888888889,0)" x2="0" y2="540" stroke="black" stroke-width="0.2"></line></g><g class="mark-rule role-mark layer_2_marks" role="graphics-object" aria-roledescription="rule mark container"><line aria-label="CI 0.975: 0.582935018063; upper_Quantile.0.025(R): 0.736185299754; index: RR; Quantile.0.975(R): 0.736185299754; Quantile.0.025(R): 0.582935018063" role="graphics-symbol" aria-roledescription="errorbar" transform="translate(64.50501404925532,430)" x2="119.19466353681423" y2="0" stroke="blue" stroke-width="0.6"></line><line aria-label="CI 0.975: 0.575299941579; upper_Quantile.0.025(R): 0.820909441359; index: RN; Quantile.0.975(R): 0.820909441359; Quantile.0.025(R): 0.575299941579" role="graphics-symbol" aria-roledescription="errorbar" transform="translate(58.56662122788893,390)" x2="191.02961094019054" y2="0" stroke="blue" stroke-width="0.6"></line><line aria-label="CI 0.975: 0.653215516246; upper_Quantile.0.025(R): 0.841300908037; index: AP; Quantile.0.975(R): 0.841300908037; Quantile.0.025(R): 0.653215516246" role="graphics-symbol" aria-roledescription="errorbar" transform="translate(119.16762374667513,70)" x2="146.28863805962794" y2="0" stroke="blue" stroke-width="0.6"></line><line aria-label="CI 0.975: 0.767404119006; upper_Quantile.0.025(R): 0.843065116849; index: MA; Quantile.0.975(R): 0.843065116849; Quantile.0.025(R): 0.767404119006" role="graphics-symbol" aria-roledescription="errorbar" transform="translate(207.98098144925268,190)" x2="58.847442766767756" y2="0" stroke="blue" stroke-width="0.6"></line><line aria-label="CI 0.975: 0.890393445374; upper_Quantile.0.025(R): 0.93774311717; index: PA; Quantile.0.975(R): 0.93774311717; Quantile.0.025(R): 0.890393445374" role="graphics-symbol" aria-roledescription="errorbar" transform="translate(303.6393464018115,270)" x2="36.827522508108416" y2="0" stroke="blue" stroke-width="0.6"></line><line aria-label="CI 0.975: 0.906711167024; upper_Quantile.0.025(R): 0.975739750405; index: RJ; Quantile.0.975(R): 0.975739750405; Quantile.0.025(R): 0.906711167024" role="graphics-symbol" aria-roledescription="errorbar" transform="translate(316.3309076850932,370)" x2="53.68889818513594" y2="0" stroke="blue" stroke-width="0.6"></line><line aria-label="CI 0.975: 0.903206336424; upper_Quantile.0.025(R): 0.980251944301; index: BA; Quantile.0.975(R): 0.980251944301; Quantile.0.025(R): 0.903206336424" role="graphics-symbol" aria-roledescription="errorbar" transform="translate(313.60492832961967,90)" x2="59.92436168212981" y2="0" stroke="blue" stroke-width="0.6"></line><line aria-label="CI 0.975: 0.961228751604; upper_Quantile.0.025(R): 0.983013846439; index: SP; Quantile.0.975(R): 0.983013846439; Quantile.0.025(R): 0.961228751604" role="graphics-symbol" aria-roledescription="errorbar" transform="translate(358.7334734697749,510)" x2="16.94396264934022" y2="0" stroke="blue" stroke-width="0.6"></line><line aria-label="CI 0.975: 0.959513927518; upper_Quantile.0.025(R): 1.0081667972; index: ES; Quantile.0.975(R): 1.0081667972; Quantile.0.025(R): 0.959513927518" role="graphics-symbol" aria-roledescription="errorbar" transform="translate(357.3997214028743,150)" x2="37.841120860204285" y2="0" stroke="blue" stroke-width="0.6"></line><line aria-label="CI 0.975: 0.963723823049; upper_Quantile.0.025(R): 1.02055028397; index: AL; Quantile.0.975(R): 1.02055028397; Quantile.0.025(R): 0.963723823049" role="graphics-symbol" aria-roledescription="errorbar" transform="translate(360.6740845939615,30)" x2="44.19835849369031" y2="0" stroke="blue" stroke-width="0.6"></line><line aria-label="CI 0.975: 0.989162786848; upper_Quantile.0.025(R): 1.03019074054; index: DF; Quantile.0.975(R): 1.03019074054; Quantile.0.025(R): 0.989162786848" role="graphics-symbol" aria-roledescription="errorbar" transform="translate(380.45994532594,130)" x2="31.91063065074053" y2="0" stroke="blue" stroke-width="0.6"></line><line aria-label="CI 0.975: 1.01276436584; upper_Quantile.0.025(R): 1.05736223066; index: PB; Quantile.0.975(R): 1.05736223066; Quantile.0.025(R): 1.01276436584" role="graphics-symbol" aria-roledescription="errorbar" transform="translate(398.81672898563113,290)" x2="34.6872281945362" y2="0" stroke="blue" stroke-width="0.6"></line><line aria-label="CI 0.975: 1.00694837491; upper_Quantile.0.025(R): 1.08447439181; index: RO; Quantile.0.975(R): 1.08447439181; Quantile.0.025(R): 1.00694837491" role="graphics-symbol" aria-roledescription="errorbar" transform="translate(394.2931804825113,410)" x2="60.29801314684403" y2="0" stroke="blue" stroke-width="0.6"></line><line aria-label="CI 0.975: 1.02471081079; upper_Quantile.0.025(R): 1.09681874733; index: CE; Quantile.0.975(R): 1.09681874733; Quantile.0.025(R): 1.02471081079" role="graphics-symbol" aria-roledescription="errorbar" transform="translate(408.1084083942441,110)" x2="56.08395063796644" y2="0" stroke="blue" stroke-width="0.6"></line><line aria-label="CI 0.975: 1.02007447718; upper_Quantile.0.025(R): 1.09835667949; index: PI; Quantile.0.975(R): 1.09835667949; Quantile.0.025(R): 1.02007447718" role="graphics-symbol" aria-roledescription="errorbar" transform="translate(404.502371141132,330)" x2="60.88615734897894" y2="0" stroke="blue" stroke-width="0.6"></line><line aria-label="CI 0.975: 1.0214077821; upper_Quantile.0.025(R): 1.09998829921; index: RS; Quantile.0.975(R): 1.09998829921; Quantile.0.025(R): 1.0214077821" role="graphics-symbol" aria-roledescription="errorbar" transform="translate(405.5393860798306,450)" x2="61.11817997370645" y2="0" stroke="blue" stroke-width="0.6"></line><line aria-label="CI 0.975: 1.00701667749; upper_Quantile.0.025(R): 1.12067676087; index: AC; Quantile.0.975(R): 1.12067676087; Quantile.0.025(R): 1.00701667749" role="graphics-symbol" aria-roledescription="errorbar" transform="translate(394.34630471354956,10)" x2="88.40228707479014" y2="0" stroke="blue" stroke-width="0.6"></line><line aria-label="CI 0.975: 1.02719990836; upper_Quantile.0.025(R): 1.10966518898; index: SE; Quantile.0.975(R): 1.10966518898; Quantile.0.025(R): 1.02719990836" role="graphics-symbol" aria-roledescription="errorbar" transform="translate(410.0443731675383,490)" x2="64.13966270362317" y2="0" stroke="blue" stroke-width="0.6"></line><line aria-label="CI 0.975: 1.04672206158; upper_Quantile.0.025(R): 1.09450901342; index: MG; Quantile.0.975(R): 1.09450901342; Quantile.0.025(R): 1.04672206158" role="graphics-symbol" aria-roledescription="errorbar" transform="translate(425.22827012038033,210)" x2="37.16762920639775" y2="0" stroke="blue" stroke-width="0.6"></line><line aria-label="CI 0.975: 1.03872338082; upper_Quantile.0.025(R): 1.14733191522; index: PR; Quantile.0.975(R): 1.14733191522; Quantile.0.025(R): 1.03872338082" role="graphics-symbol" aria-roledescription="errorbar" transform="translate(419.00707396726494,350)" x2="84.47330454033505" y2="0" stroke="blue" stroke-width="0.6"></line><line aria-label="CI 0.975: 1.05443729143; upper_Quantile.0.025(R): 1.1588142394; index: PE; Quantile.0.975(R): 1.1588142394; Quantile.0.025(R): 1.05443729143" role="graphics-symbol" aria-roledescription="errorbar" transform="translate(431.22900444289354,310)" x2="81.18207064449763" y2="0" stroke="blue" stroke-width="0.6"></line><line aria-label="CI 0.975: 1.07238853266; upper_Quantile.0.025(R): 1.19875484237; index: AM; Quantile.0.975(R): 1.19875484237; Quantile.0.025(R): 1.07238853266" role="graphics-symbol" aria-roledescription="errorbar" transform="translate(445.1910809566244,50)" x2="98.28490755545323" y2="0" stroke="blue" stroke-width="0.6"></line><line aria-label="CI 0.975: 1.0919109686; upper_Quantile.0.025(R): 1.18193009243; index: MS; Quantile.0.975(R): 1.18193009243; Quantile.0.025(R): 1.0919109686" role="graphics-symbol" aria-roledescription="errorbar" transform="translate(460.3751977975483,230)" x2="70.01487409287625" y2="0" stroke="blue" stroke-width="0.6"></line><line aria-label="CI 0.975: 1.10415593663; upper_Quantile.0.025(R): 1.22925247846; index: SC; Quantile.0.975(R): 1.22925247846; Quantile.0.025(R): 1.10415593663" role="graphics-symbol" aria-roledescription="errorbar" transform="translate(469.8990618218233,470)" x2="97.29731031009993" y2="0" stroke="blue" stroke-width="0.6"></line><line aria-label="CI 0.975: 1.11331026302; upper_Quantile.0.025(R): 1.24296946408; index: MT; Quantile.0.975(R): 1.24296946408; Quantile.0.025(R): 1.11331026302" role="graphics-symbol" aria-roledescription="errorbar" transform="translate(477.01909346014065,250)" x2="100.84604526600992" y2="0" stroke="blue" stroke-width="0.6"></line><line aria-label="CI 0.975: 1.2087966853; upper_Quantile.0.025(R): 1.31488547397; index: TO; Quantile.0.975(R): 1.31488547397; Quantile.0.025(R): 1.2087966853" role="graphics-symbol" aria-roledescription="errorbar" transform="translate(551.2863107863758,530)" x2="82.51350229986099" y2="0" stroke="blue" stroke-width="0.6"></line><line aria-label="CI 0.975: 1.25321621035; upper_Quantile.0.025(R): 1.36149724927; index: GO; Quantile.0.975(R): 1.36149724927; Quantile.0.025(R): 1.25321621035" role="graphics-symbol" aria-roledescription="errorbar" transform="translate(585.8348302705623,170)" x2="84.21858582972845" y2="0" stroke="blue" stroke-width="0.6"></line></g><g class="mark-group role-title"><g transform="translate(350,-17.2)"><path class="background" aria-hidden="true" d="M0,0h0v0h0Z" pointer-events="none"></path><g><g class="mark-text role-title-text" role="graphics-symbol" aria-roledescription="title" aria-label="Title text 'Instantaneous reproduction number estimate for all states in Brazil'" pointer-events="none"><text text-anchor="middle" transform="translate(0,10)" font-family="sans-serif" font-size="13px" font-weight="bold" fill="#000" opacity="1">Instantaneous reproduction number estimate for all states in Brazil</text></g></g><path class="foreground" aria-hidden="true" d="" pointer-events="none" display="none"></path></g></g></g><path class="foreground" aria-hidden="true" d="" display="none"></path></g></g></g></svg>