<svg class="marks" width="749" height="600" viewBox="0 0 749 600" version="1.1" xmlns="http://www.w3.org/2000/svg" xmlns:xlink="http://www.w3.org/1999/xlink"><rect width="749" height="600" fill="white"></rect><g fill="none" stroke-miterlimit="10" transform="translate(43,23)"><g class="mark-group role-frame root" role="graphics-object" aria-roledescription="group mark container"><g transform="translate(0,0)"><path class="background" aria-hidden="true" d="M0.5,0.5h700v540h-700Z"></path><g><g class="mark-group role-axis" aria-hidden="true"><g transform="translate(0.5,0.5)"><path class="background" aria-hidden="true" d="M0,0h0v0h0Z" pointer-events="none"></path><g><g class="mark-rule role-axis-grid" pointer-events="none"><line transform="translate(0,10)" x2="700" y2="0" stroke="#ddd" stroke-width="1" opacity="1"></line><line transform="translate(0,30)" x2="700" y2="0" stroke="#ddd" stroke-width="1" opacity="1"></line><line transform="translate(0,50)" x2="700" y2="0" stroke="#ddd" stroke-width="1" opacity="1"></line><line transform="translate(0,70)" x2="700" y2="0" stroke="#ddd" stroke-width="1" opacity="1"></line><line transform="translate(0,90)" x2="700" y2="0" stroke="#ddd" stroke-width="1" opacity="1"></line><line transform="translate(0,110)" x2="700" y2="0" stroke="#ddd" stroke-width="1" opacity="1"></line><line transform="translate(0,130)" x2="700" y2="0" stroke="#ddd" stroke-width="1" opacity="1"></line><line transform="translate(0,150)" x2="700" y2="0" stroke="#ddd" stroke-width="1" opacity="1"></line><line transform="translate(0,170)" x2="700" y2="0" stroke="#ddd" stroke-width="1" opacity="1"></line><line transform="translate(0,190)" x2="700" y2="0" stroke="#ddd" stroke-width="1" opacity="1"></line><line transform="translate(0,210)" x2="700" y2="0" stroke="#ddd" stroke-width="1" opacity="1"></line><line transform="translate(0,230)" x2="700" y2="0" stroke="#ddd" stroke-width="1" opacity="1"></line><line transform="translate(0,250)" x2="700" y2="0" stroke="#ddd" stroke-width="1" opacity="1"></line><line transform="translate(0,270)" x2="700" y2="0" stroke="#ddd" stroke-width="1" opacity="1"></line><line transform="translate(0,290)" x2="700" y2="0" stroke="#ddd" stroke-width="1" opacity="1"></line><line transform="translate(0,310)" x2="700" y2="0" stroke="#ddd" stroke-width="1" opacity="1"></line><line transform="translate(0,330)" x2="700" y2="0" stroke="#ddd" stroke-width="1" opacity="1"></line><line transform="translate(0,350)" x2="700" y2="0" stroke="#ddd" stroke-width="1" opacity="1"></line><line transform="translate(0,370)" x2="700" y2="0" stroke="#ddd" stroke-width="1" opacity="1"></line><line transform="translate(0,390)" x2="700" y2="0" stroke="#ddd" stroke-width="1" opacity="1"></line><line transform="translate(0,410)" x2="700" y2="0" stroke="#ddd" stroke-width="1" opacity="1"></line><line transform="translate(0,430)" x2="700" y2="0" stroke="#ddd" stroke-width="1" opacity="1"></line><line transform="translate(0,450)" x2="700" y2="0" stroke="#ddd" stroke-width="1" opacity="1"></line><line transform="translate(0,470)" x2="700" y2="0" stroke="#ddd" stroke-width="1" opacity="1"></line><line transform="translate(0,490)" x2="700" y2="0" stroke="#ddd" stroke-width="1" opacity="1"></line><line transform="translate(0,510)" x2="700" y2="0" stroke="#ddd" stroke-width="1" opacity="1"></line><line transform="translate(0,530)" x2="700" y2="0" stroke="#ddd" stroke-width="1" opacity="1"></line></g></g><path class="foreground" aria-hidden="true" d="" pointer-events="none" display="none"></path></g></g><g class="mark-group role-axis" role="graphics-symbol" aria-roledescription="axis" aria-label="X-axis titled 'Instantaneous reproduction number R(t), CI 0.975' for a linear scale with values from 0.5 to 4.0"><g transform="translate(0.5,540.5)"><path class="background" aria-hidden="true" d="M0,0h0v0h0Z" pointer-events="none"></path><g><g class="mark-rule role-axis-tick" pointer-events="none"><line transform="translate(20,0)" x2="0" y2="5" stroke="#888" stroke-width="1" opacity="1"></line><line transform="translate(60,0)" x2="0" y2="5" stroke="#888" stroke-width="1" opacity="1"></line><line transform="translate(100,0)" x2="0" y2="5" stroke="#888" stroke-width="1" opacity="1"></line><line transform="translate(140,0)" x2="0" y2="5" stroke="#888" stroke-width="1" opacity="1"></line><line transform="translate(180,0)" x2="0" y2="5" stroke="#888" stroke-width="1" opacity="1"></line><line transform="translate(220,0)" x2="0" y2="5" stroke="#888" stroke-width="1" opacity="1"></line><line transform="translate(260,0)" x2="0" y2="5" stroke="#888" stroke-width="1" opacity="1"></line><line transform="translate(300,0)" x2="0" y2="5" stroke="#888" stroke-width="1" opacity="1"></line><line transform="translate(340,0)" x2="0" y2="5" stroke="#888" stroke-width="1" opacity="1"></line><line transform="translate(380,0)" x2="0" y2="5" stroke="#888" stroke-width="1" opacity="1"></line><line transform="translate(420,0)" x2="0" y2="5" stroke="#888" stroke-width="1" opacity="1"></line><line transform="translate(460,0)" x2="0" y2="5" stroke="#888" stroke-width="1" opacity="1"></line><line transform="translate(500,0)" x2="0" y2="5" stroke="#888" stroke-width="1" opacity="1"></line><line transform="translate(540,0)" x2="0" y2="5" stroke="#888" stroke-width="1" opacity="1"></line><line transform="translate(580,0)" x2="0" y2="5" stroke="#888" stroke-width="1" opacity="1"></line><line transform="translate(620,0)" x2="0" y2="5" stroke="#888" stroke-width="1" opacity="1"></line><line transform="translate(660,0)" x2="0" y2="5" stroke="#888" stroke-width="1" opacity="1"></line><line transform="translate(700,0)" x2="0" y2="5" stroke="#888" stroke-width="1" opacity="1"></line></g><g class="mark-text role-axis-label" pointer-events="none"><text text-anchor="middle" transform="translate(19.999999999999993,15)" font-family="sans-serif" font-size="10px" fill="#000" opacity="1">0.6</text><text text-anchor="middle" transform="translate(60.00000000000001,15)" font-family="sans-serif" font-size="10px" fill="#000" opacity="1">0.8</text><text text-anchor="middle" transform="translate(100,15)" font-family="sans-serif" font-size="10px" fill="#000" opacity="1">1.0</text><text text-anchor="middle" transform="translate(140,15)" font-family="sans-serif" font-size="10px" fill="#000" opacity="1">1.2</text><text text-anchor="middle" transform="translate(179.99999999999997,15)" font-family="sans-serif" font-size="10px" fill="#000" opacity="1">1.4</text><text text-anchor="middle" transform="translate(220.00000000000003,15)" font-family="sans-serif" font-size="10px" fill="#000" opacity="1">1.6</text><text text-anchor="middle" transform="translate(260,15)" font-family="sans-serif" font-size="10px" fill="#000" opacity="1">1.8</text><text text-anchor="middle" transform="translate(300,15)" font-family="sans-serif" font-size="10px" fill="#000" opacity="1">2.0</text><text text-anchor="middle" transform="translate(340.00000000000006,15)" font-family="sans-serif" font-size="10px" fill="#000" opacity="1">2.2</text><text text-anchor="middle" transform="translate(379.99999999999994,15)" font-family="sans-serif" font-size="10px" fill="#000" opacity="1">2.4</text><text text-anchor="middle" transform="translate(420,15)" font-family="sans-serif" font-size="10px" fill="#000" opacity="1">2.6</text><text text-anchor="middle" transform="translate(460,15)" font-family="sans-serif" font-size="10px" fill="#000" opacity="1">2.8</text><text text-anchor="middle" transform="translate(500,15)" font-family="sans-serif" font-size="10px" fill="#000" opacity="1">3.0</text><text text-anchor="middle" transform="translate(540,15)" font-family="sans-serif" font-size="10px" fill="#000" opacity="1">3.2</text><text text-anchor="middle" transform="translate(580,15)" font-family="sans-serif" font-size="10px" fill="#000" opacity="1">3.4</text><text text-anchor="middle" transform="translate(620,15)" font-family="sans-serif" font-size="10px" fill="#000" opacity="1">3.6</text><text text-anchor="middle" transform="translate(660,15)" font-family="sans-serif" font-size="10px" fill="#000" opacity="1">3.8</text><text text-anchor="end" transform="translate(700,15)" font-family="sans-serif" font-size="10px" fill="#000" opacity="1">4.0</text></g><g class="mark-rule role-axis-domain" pointer-events="none"><line transform="translate(0,0)" x2="700" y2="0" stroke="#888" stroke-width="1" opacity="1"></line></g><g class="mark-text role-axis-title" pointer-events="none"><text text-anchor="middle" transform="translate(350,30)" font-family="sans-serif" font-size="11px" font-weight="bold" fill="#000" opacity="1">Instantaneous reproduction number R(t), CI 0.975</text></g></g><path class="foreground" aria-hidden="true" d="" pointer-events="none" display="none"></path></g></g><g class="mark-group role-axis" role="graphics-symbol" aria-roledescription="axis" aria-label="Y-axis titled 'States' for a discrete scale with 27 values: AC, AL, AM, AP, BA, ending with TO"><g transform="translate(0.5,0.5)"><path class="background" aria-hidden="true" d="M0,0h0v0h0Z" pointer-events="none"></path><g><g class="mark-rule role-axis-tick" pointer-events="none"><line transform="translate(0,10)" x2="-5" y2="0" stroke="#888" stroke-width="1" opacity="1"></line><line transform="translate(0,30)" x2="-5" y2="0" stroke="#888" stroke-width="1" opacity="1"></line><line transform="translate(0,50)" x2="-5" y2="0" stroke="#888" stroke-width="1" opacity="1"></line><line transform="translate(0,70)" x2="-5" y2="0" stroke="#888" stroke-width="1" opacity="1"></line><line transform="translate(0,90)" x2="-5" y2="0" stroke="#888" stroke-width="1" opacity="1"></line><line transform="translate(0,110)" x2="-5" y2="0" stroke="#888" stroke-width="1" opacity="1"></line><line transform="translate(0,130)" x2="-5" y2="0" stroke="#888" stroke-width="1" opacity="1"></line><line transform="translate(0,150)" x2="-5" y2="0" stroke="#888" stroke-width="1" opacity="1"></line><line transform="translate(0,170)" x2="-5" y2="0" stroke="#888" stroke-width="1" opacity="1"></line><line transform="translate(0,190)" x2="-5" y2="0" stroke="#888" stroke-width="1" opacity="1"></line><line transform="translate(0,210)" x2="-5" y2="0" stroke="#888" stroke-width="1" opacity="1"></line><line transform="translate(0,230)" x2="-5" y2="0" stroke="#888" stroke-width="1" opacity="1"></line><line transform="translate(0,250)" x2="-5" y2="0" stroke="#888" stroke-width="1" opacity="1"></line><line transform="translate(0,270)" x2="-5" y2="0" stroke="#888" stroke-width="1" opacity="1"></line><line transform="translate(0,290)" x2="-5" y2="0" stroke="#888" stroke-width="1" opacity="1"></line><line transform="translate(0,310)" x2="-5" y2="0" stroke="#888" stroke-width="1" opacity="1"></line><line transform="translate(0,330)" x2="-5" y2="0" stroke="#888" stroke-width="1" opacity="1"></line><line transform="translate(0,350)" x2="-5" y2="0" stroke="#888" stroke-width="1" opacity="1"></line><line transform="translate(0,370)" x2="-5" y2="0" stroke="#888" stroke-width="1" opacity="1"></line><line transform="translate(0,390)" x2="-5" y2="0" stroke="#888" stroke-width="1" opacity="1"></line><line transform="translate(0,410)" x2="-5" y2="0" stroke="#888" stroke-width="1" opacity="1"></line><line transform="translate(0,430)" x2="-5" y2="0" stroke="#888" stroke-width="1" opacity="1"></line><line transform="translate(0,450)" x2="-5" y2="0" stroke="#888" stroke-width="1" opacity="1"></line><line transform="translate(0,470)" x2="-5" y2="0" stroke="#888" stroke-width="1" opacity="1"></line><line transform="translate(0,490)" x2="-5" y2="0" stroke="#888" stroke-width="1" opacity="1"></line><line transform="translate(0,510)" x2="-5" y2="0" stroke="#888" stroke-width="1" opacity="1"></line><line transform="translate(0,530)" x2="-5" y2="0" stroke="#888" stroke-width="1" opacity="1"></line></g><g class="mark-text role-axis-label" pointer-events="none"><text text-anchor="end" transform="translate(-7,12.5)" font-family="sans-serif" font-size="10px" fill="#000" opacity="1">AC</text><text text-anchor="end" transform="translate(-7,32.5)" font-family="sans-serif" font-size="10px" fill="#000" opacity="1">AL</text><text text-anchor="end" transform="translate(-7,52.5)" font-family="sans-serif" font-size="10px" fill="#000" opacity="1">AM</text><text text-anchor="end" transform="translate(-7,72.5)" font-family="sans-serif" font-size="10px" fill="#000" opacity="1">AP</text><text text-anchor="end" transform="translate(-7,92.5)" font-family="sans-serif" font-size="10px" fill="#000" opacity="1">BA</text><text text-anchor="end" transform="translate(-7,112.5)" font-family="sans-serif" font-size="10px" fill="#000" opacity="1">CE</text><text text-anchor="end" transform="translate(-7,132.5)" font-family="sans-serif" font-size="10px" fill="#000" opacity="1">DF</text><text text-anchor="end" transform="translate(-7,152.5)" font-family="sans-serif" font-size="10px" fill="#000" opacity="1">ES</text><text text-anchor="end" transform="translate(-7,172.5)" font-family="sans-serif" font-size="10px" fill="#000" opacity="1">GO</text><text text-anchor="end" transform="translate(-7,192.5)" font-family="sans-serif" font-size="10px" fill="#000" opacity="1">MA</text><text text-anchor="end" transform="translate(-7,212.5)" font-family="sans-serif" font-size="10px" fill="#000" opacity="1">MG</text><text text-anchor="end" transform="translate(-7,232.5)" font-family="sans-serif" font-size="10px" fill="#000" opacity="1">MS</text><text text-anchor="end" transform="translate(-7,252.5)" font-family="sans-serif" font-size="10px" fill="#000" opacity="1">MT</text><text text-anchor="end" transform="translate(-7,272.5)" font-family="sans-serif" font-size="10px" fill="#000" opacity="1">PA</text><text text-anchor="end" transform="translate(-7,292.5)" font-family="sans-serif" font-size="10px" fill="#000" opacity="1">PB</text><text text-anchor="end" transform="translate(-7,312.5)" font-family="sans-serif" font-size="10px" fill="#000" opacity="1">PE</text><text text-anchor="end" transform="translate(-7,332.5)" font-family="sans-serif" font-size="10px" fill="#000" opacity="1">PI</text><text text-anchor="end" transform="translate(-7,352.5)" font-family="sans-serif" font-size="10px" fill="#000" opacity="1">PR</text><text text-anchor="end" transform="translate(-7,372.5)" font-family="sans-serif" font-size="10px" fill="#000" opacity="1">RJ</text><text text-anchor="end" transform="translate(-7,392.5)" font-family="sans-serif" font-size="10px" fill="#000" opacity="1">RN</text><text text-anchor="end" transform="translate(-7,412.5)" font-family="sans-serif" font-size="10px" fill="#000" opacity="1">RO</text><text text-anchor="end" transform="translate(-7,432.5)" font-family="sans-serif" font-size="10px" fill="#000" opacity="1">RR</text><text text-anchor="end" transform="translate(-7,452.5)" font-family="sans-serif" font-size="10px" fill="#000" opacity="1">RS</text><text text-anchor="end" transform="translate(-7,472.5)" font-family="sans-serif" font-size="10px" fill="#000" opacity="1">SC</text><text text-anchor="end" transform="translate(-7,492.5)" font-family="sans-serif" font-size="10px" fill="#000" opacity="1">SE</text><text text-anchor="end" transform="translate(-7,512.5)" font-family="sans-serif" font-size="10px" fill="#000" opacity="1">SP</text><text text-anchor="end" transform="translate(-7,532.5)" font-family="sans-serif" font-size="10px" fill="#000" opacity="1">TO</text></g><g class="mark-rule role-axis-domain" pointer-events="none"><line transform="translate(0,0)" x2="0" y2="540" stroke="#888" stroke-width="1" opacity="1"></line></g><g class="mark-text role-axis-title" pointer-events="none"><text text-anchor="middle" transform="translate(-27,270) rotate(-90) translate(0,-2)" font-family="sans-serif" font-size="11px" font-weight="bold" fill="#000" opacity="1">States</text></g></g><path class="foreground" aria-hidden="true" d="" pointer-events="none" display="none"></path></g></g><g class="mark-symbol role-mark layer_0_marks" role="graphics-object" aria-roledescription="symbol mark container"><path aria-label="Instantaneous reproduction number R(t): 0.757968259902; States: AL" role="graphics-symbol" aria-roledescription="point" transform="translate(51.59365198045222,30)" d="M2.7386127875258306,0A2.7386127875258306,2.7386127875258306,0,1,1,-2.7386127875258306,0A2.7386127875258306,2.7386127875258306,0,1,1,2.7386127875258306,0" stroke="#4c78a8" stroke-width="2" opacity="0.7"></path><path aria-label="Instantaneous reproduction number R(t): 0.783314941116; States: DF" role="graphics-symbol" aria-roledescription="point" transform="translate(56.662988223207236,130)" d="M2.7386127875258306,0A2.7386127875258306,2.7386127875258306,0,1,1,-2.7386127875258306,0A2.7386127875258306,2.7386127875258306,0,1,1,2.7386127875258306,0" stroke="#4c78a8" stroke-width="2" opacity="0.7"></path><path aria-label="Instantaneous reproduction number R(t): 0.828896817988; States: SE" role="graphics-symbol" aria-roledescription="point" transform="translate(65.77936359763719,490)" d="M2.7386127875258306,0A2.7386127875258306,2.7386127875258306,0,1,1,-2.7386127875258306,0A2.7386127875258306,2.7386127875258306,0,1,1,2.7386127875258306,0" stroke="#4c78a8" stroke-width="2" opacity="0.7"></path><path aria-label="Instantaneous reproduction number R(t): 0.883203168305; States: GO" role="graphics-symbol" aria-roledescription="point" transform="translate(76.64063366101288,170)" d="M2.7386127875258306,0A2.7386127875258306,2.7386127875258306,0,1,1,-2.7386127875258306,0A2.7386127875258306,2.7386127875258306,0,1,1,2.7386127875258306,0" stroke="#4c78a8" stroke-width="2" opacity="0.7"></path><path aria-label="Instantaneous reproduction number R(t): 0.888014210549; States: RR" role="graphics-symbol" aria-roledescription="point" transform="translate(77.60284210980313,430)" d="M2.7386127875258306,0A2.7386127875258306,2.7386127875258306,0,1,1,-2.7386127875258306,0A2.7386127875258306,2.7386127875258306,0,1,1,2.7386127875258306,0" stroke="#4c78a8" stroke-width="2" opacity="0.7"></path><path aria-label="Instantaneous reproduction number R(t): 0.888307813585; States: PI" role="graphics-symbol" aria-roledescription="point" transform="translate(77.66156271704874,330)" d="M2.7386127875258306,0A2.7386127875258306,2.7386127875258306,0,1,1,-2.7386127875258306,0A2.7386127875258306,2.7386127875258306,0,1,1,2.7386127875258306,0" stroke="#4c78a8" stroke-width="2" opacity="0.7"></path><path aria-label="Instantaneous reproduction number R(t): 0.895213707568; States: PA" role="graphics-symbol" aria-roledescription="point" transform="translate(79.04274151352628,270)" d="M2.7386127875258306,0A2.7386127875258306,2.7386127875258306,0,1,1,-2.7386127875258306,0A2.7386127875258306,2.7386127875258306,0,1,1,2.7386127875258306,0" stroke="#4c78a8" stroke-width="2" opacity="0.7"></path><path aria-label="Instantaneous reproduction number R(t): 0.906287588989; States: SP" role="graphics-symbol" aria-roledescription="point" transform="translate(81.25751779784851,510)" d="M2.7386127875258306,0A2.7386127875258306,2.7386127875258306,0,1,1,-2.7386127875258306,0A2.7386127875258306,2.7386127875258306,0,1,1,2.7386127875258306,0" stroke="#4c78a8" stroke-width="2" opacity="0.7"></path><path aria-label="Instantaneous reproduction number R(t): 0.90803773788; States: AC" role="graphics-symbol" aria-roledescription="point" transform="translate(81.60754757604853,10)" d="M2.7386127875258306,0A2.7386127875258306,2.7386127875258306,0,1,1,-2.7386127875258306,0A2.7386127875258306,2.7386127875258306,0,1,1,2.7386127875258306,0" stroke="#4c78a8" stroke-width="2" opacity="0.7"></path><path aria-label="Instantaneous reproduction number R(t): 0.910279262118; States: RN" role="graphics-symbol" aria-roledescription="point" transform="translate(82.05585242368207,390)" d="M2.7386127875258306,0A2.7386127875258306,2.7386127875258306,0,1,1,-2.7386127875258306,0A2.7386127875258306,2.7386127875258306,0,1,1,2.7386127875258306,0" stroke="#4c78a8" stroke-width="2" opacity="0.7"></path><path aria-label="Instantaneous reproduction number R(t): 0.91267262334; States: BA" role="graphics-symbol" aria-roledescription="point" transform="translate(82.53452466802199,90)" d="M2.7386127875258306,0A2.7386127875258306,2.7386127875258306,0,1,1,-2.7386127875258306,0A2.7386127875258306,2.7386127875258306,0,1,1,2.7386127875258306,0" stroke="#4c78a8" stroke-width="2" opacity="0.7"></path><path aria-label="Instantaneous reproduction number R(t): 0.915018704003; States: MS" role="graphics-symbol" aria-roledescription="point" transform="translate(83.00374080055998,230)" d="M2.7386127875258306,0A2.7386127875258306,2.7386127875258306,0,1,1,-2.7386127875258306,0A2.7386127875258306,2.7386127875258306,0,1,1,2.7386127875258306,0" stroke="#4c78a8" stroke-width="2" opacity="0.7"></path><path aria-label="Instantaneous reproduction number R(t): 0.93050091451; States: RO" role="graphics-symbol" aria-roledescription="point" transform="translate(86.10018290195984,410)" d="M2.7386127875258306,0A2.7386127875258306,2.7386127875258306,0,1,1,-2.7386127875258306,0A2.7386127875258306,2.7386127875258306,0,1,1,2.7386127875258306,0" stroke="#4c78a8" stroke-width="2" opacity="0.7"></path><path aria-label="Instantaneous reproduction number R(t): 0.934220419814; States: PB" role="graphics-symbol" aria-roledescription="point" transform="translate(86.84408396288501,290)" d="M2.7386127875258306,0A2.7386127875258306,2.7386127875258306,0,1,1,-2.7386127875258306,0A2.7386127875258306,2.7386127875258306,0,1,1,2.7386127875258306,0" stroke="#4c78a8" stroke-width="2" opacity="0.7"></path><path aria-label="Instantaneous reproduction number R(t): 0.939673201713; States: TO" role="graphics-symbol" aria-roledescription="point" transform="translate(87.93464034258085,530)" d="M2.7386127875258306,0A2.7386127875258306,2.7386127875258306,0,1,1,-2.7386127875258306,0A2.7386127875258306,2.7386127875258306,0,1,1,2.7386127875258306,0" stroke="#4c78a8" stroke-width="2" opacity="0.7"></path><path aria-label="Instantaneous reproduction number R(t): 0.949278029437; States: RJ" role="graphics-symbol" aria-roledescription="point" transform="translate(89.85560588743711,370)" d="M2.7386127875258306,0A2.7386127875258306,2.7386127875258306,0,1,1,-2.7386127875258306,0A2.7386127875258306,2.7386127875258306,0,1,1,2.7386127875258306,0" stroke="#4c78a8" stroke-width="2" opacity="0.7"></path><path aria-label="Instantaneous reproduction number R(t): 0.961085615305; States: MA" role="graphics-symbol" aria-roledescription="point" transform="translate(92.21712306108306,190)" d="M2.7386127875258306,0A2.7386127875258306,2.7386127875258306,0,1,1,-2.7386127875258306,0A2.7386127875258306,2.7386127875258306,0,1,1,2.7386127875258306,0" stroke="#4c78a8" stroke-width="2" opacity="0.7"></path><path aria-label="Instantaneous reproduction number R(t): 0.967769405473; States: MG" role="graphics-symbol" aria-roledescription="point" transform="translate(93.5538810946215,210)" d="M2.7386127875258306,0A2.7386127875258306,2.7386127875258306,0,1,1,-2.7386127875258306,0A2.7386127875258306,2.7386127875258306,0,1,1,2.7386127875258306,0" stroke="#4c78a8" stroke-width="2" opacity="0.7"></path><path aria-label="Instantaneous reproduction number R(t): 0.968728559244; States: ES" role="graphics-symbol" aria-roledescription="point" transform="translate(93.74571184872136,150)" d="M2.7386127875258306,0A2.7386127875258306,2.7386127875258306,0,1,1,-2.7386127875258306,0A2.7386127875258306,2.7386127875258306,0,1,1,2.7386127875258306,0" stroke="#4c78a8" stroke-width="2" opacity="0.7"></path><path aria-label="Instantaneous reproduction number R(t): 0.979299302051; States: MT" role="graphics-symbol" aria-roledescription="point" transform="translate(95.85986041016594,250)" d="M2.7386127875258306,0A2.7386127875258306,2.7386127875258306,0,1,1,-2.7386127875258306,0A2.7386127875258306,2.7386127875258306,0,1,1,2.7386127875258306,0" stroke="#4c78a8" stroke-width="2" opacity="0.7"></path><path aria-label="Instantaneous reproduction number R(t): 1.02369712732; States: CE" role="graphics-symbol" aria-roledescription="point" transform="translate(104.73942546366652,110)" d="M2.7386127875258306,0A2.7386127875258306,2.7386127875258306,0,1,1,-2.7386127875258306,0A2.7386127875258306,2.7386127875258306,0,1,1,2.7386127875258306,0" stroke="#4c78a8" stroke-width="2" opacity="0.7"></path><path aria-label="Instantaneous reproduction number R(t): 1.04959820519; States: PR" role="graphics-symbol" aria-roledescription="point" transform="translate(109.91964103733704,350)" d="M2.7386127875258306,0A2.7386127875258306,2.7386127875258306,0,1,1,-2.7386127875258306,0A2.7386127875258306,2.7386127875258306,0,1,1,2.7386127875258306,0" stroke="#4c78a8" stroke-width="2" opacity="0.7"></path><path aria-label="Instantaneous reproduction number R(t): 1.05046301204; States: AM" role="graphics-symbol" aria-roledescription="point" transform="translate(110.09260240764166,50)" d="M2.7386127875258306,0A2.7386127875258306,2.7386127875258306,0,1,1,-2.7386127875258306,0A2.7386127875258306,2.7386127875258306,0,1,1,2.7386127875258306,0" stroke="#4c78a8" stroke-width="2" opacity="0.7"></path><path aria-label="Instantaneous reproduction number R(t): 1.05804125483; States: RS" role="graphics-symbol" aria-roledescription="point" transform="translate(111.60825096546642,450)" d="M2.7386127875258306,0A2.7386127875258306,2.7386127875258306,0,1,1,-2.7386127875258306,0A2.7386127875258306,2.7386127875258306,0,1,1,2.7386127875258306,0" stroke="#4c78a8" stroke-width="2" opacity="0.7"></path><path aria-label="Instantaneous reproduction number R(t): 1.14306340721; States: AP" role="graphics-symbol" aria-roledescription="point" transform="translate(128.61268144234305,70)" d="M2.7386127875258306,0A2.7386127875258306,2.7386127875258306,0,1,1,-2.7386127875258306,0A2.7386127875258306,2.7386127875258306,0,1,1,2.7386127875258306,0" stroke="#4c78a8" stroke-width="2" opacity="0.7"></path><path aria-label="Instantaneous reproduction number R(t): 1.20763584009; States: PE" role="graphics-symbol" aria-roledescription="point" transform="translate(141.52716801701746,310)" d="M2.7386127875258306,0A2.7386127875258306,2.7386127875258306,0,1,1,-2.7386127875258306,0A2.7386127875258306,2.7386127875258306,0,1,1,2.7386127875258306,0" stroke="#4c78a8" stroke-width="2" opacity="0.7"></path><path aria-label="Instantaneous reproduction number R(t): 3.0017420821; States: SC" role="graphics-symbol" aria-roledescription="point" transform="translate(500.3484164201537,470)" d="M2.7386127875258306,0A2.7386127875258306,2.7386127875258306,0,1,1,-2.7386127875258306,0A2.7386127875258306,2.7386127875258306,0,1,1,2.7386127875258306,0" stroke="#4c78a8" stroke-width="2" opacity="0.7"></path></g><g class="mark-rule role-mark layer_1_marks" role="graphics-object" aria-roledescription="rule mark container"><line aria-label="a: 1" role="graphics-symbol" aria-roledescription="rule mark" transform="translate(100,0)" x2="0" y2="540" stroke="black" stroke-width="0.2"></line><line aria-label="a: 1" role="graphics-symbol" aria-roledescription="rule mark" transform="translate(100,0)" x2="0" y2="540" stroke="black" stroke-width="0.2"></line><line aria-label="a: 1" role="graphics-symbol" aria-roledescription="rule mark" transform="translate(100,0)" x2="0" y2="540" stroke="black" stroke-width="0.2"></line><line aria-label="a: 1" role="graphics-symbol" aria-roledescription="rule mark" transform="translate(100,0)" x2="0" y2="540" stroke="black" stroke-width="0.2"></line><line aria-label="a: 1" role="graphics-symbol" aria-roledescription="rule mark" transform="translate(100,0)" x2="0" y2="540" stroke="black" stroke-width="0.2"></line><line aria-label="a: 1" role="graphics-symbol" aria-roledescription="rule mark" transform="translate(100,0)" x2="0" y2="540" stroke="black" stroke-width="0.2"></line><line aria-label="a: 1" role="graphics-symbol" aria-roledescription="rule mark" transform="translate(100,0)" x2="0" y2="540" stroke="black" stroke-width="0.2"></line><line aria-label="a: 1" role="graphics-symbol" aria-roledescription="rule mark" transform="translate(100,0)" x2="0" y2="540" stroke="black" stroke-width="0.2"></line><line aria-label="a: 1" role="graphics-symbol" aria-roledescription="rule mark" transform="translate(100,0)" x2="0" y2="540" stroke="black" stroke-width="0.2"></line><line aria-label="a: 1" role="graphics-symbol" aria-roledescription="rule mark" transform="translate(100,0)" x2="0" y2="540" stroke="black" stroke-width="0.2"></line><line aria-label="a: 1" role="graphics-symbol" aria-roledescription="rule mark" transform="translate(100,0)" x2="0" y2="540" stroke="black" stroke-width="0.2"></line><line aria-label="a: 1" role="graphics-symbol" aria-roledescription="rule mark" transform="translate(100,0)" x2="0" y2="540" stroke="black" stroke-width="0.2"></line><line aria-label="a: 1" role="graphics-symbol" aria-roledescription="rule mark" transform="translate(100,0)" x2="0" y2="540" stroke="black" stroke-width="0.2"></line><line aria-label="a: 1" role="graphics-symbol" aria-roledescription="rule mark" transform="translate(100,0)" x2="0" y2="540" stroke="black" stroke-width="0.2"></line><line aria-label="a: 1" role="graphics-symbol" aria-roledescription="rule mark" transform="translate(100,0)" x2="0" y2="540" stroke="black" stroke-width="0.2"></line><line aria-label="a: 1" role="graphics-symbol" aria-roledescription="rule mark" transform="translate(100,0)" x2="0" y2="540" stroke="black" stroke-width="0.2"></line><line aria-label="a: 1" role="graphics-symbol" aria-roledescription="rule mark" transform="translate(100,0)" x2="0" y2="540" stroke="black" stroke-width="0.2"></line><line aria-label="a: 1" role="graphics-symbol" aria-roledescription="rule mark" transform="translate(100,0)" x2="0" y2="540" stroke="black" stroke-width="0.2"></line><line aria-label="a: 1" role="graphics-symbol" aria-roledescription="rule mark" transform="translate(100,0)" x2="0" y2="540" stroke="black" stroke-width="0.2"></line><line aria-label="a: 1" role="graphics-symbol" aria-roledescription="rule mark" transform="translate(100,0)" x2="0" y2="540" stroke="black" stroke-width="0.2"></line><line aria-label="a: 1" role="graphics-symbol" aria-roledescription="rule mark" transform="translate(100,0)" x2="0" y2="540" stroke="black" stroke-width="0.2"></line><line aria-label="a: 1" role="graphics-symbol" aria-roledescription="rule mark" transform="translate(100,0)" x2="0" y2="540" stroke="black" stroke-width="0.2"></line><line aria-label="a: 1" role="graphics-symbol" aria-roledescription="rule mark" transform="translate(100,0)" x2="0" y2="540" stroke="black" stroke-width="0.2"></line><line aria-label="a: 1" role="graphics-symbol" aria-roledescription="rule mark" transform="translate(100,0)" x2="0" y2="540" stroke="black" stroke-width="0.2"></line><line aria-label="a: 1" role="graphics-symbol" aria-roledescription="rule mark" transform="translate(100,0)" x2="0" y2="540" stroke="black" stroke-width="0.2"></line><line aria-label="a: 1" role="graphics-symbol" aria-roledescription="rule mark" transform="translate(100,0)" x2="0" y2="540" stroke="black" stroke-width="0.2"></line><line aria-label="a: 1" role="graphics-symbol" aria-roledescription="rule mark" transform="translate(100,0)" x2="0" y2="540" stroke="black" stroke-width="0.2"></line></g><g class="mark-rule role-mark layer_2_marks" role="graphics-object" aria-roledescription="rule mark container"><line aria-label="CI 0.975: 0.710128725238; upper_Quantile.0.025(R): 0.814211495512; index: AL; Quantile.0.975(R): 0.814211495512; Quantile.0.025(R): 0.710128725238" role="graphics-symbol" aria-roledescription="errorbar" transform="translate(42.02574504754997,30)" x2="20.816554054915066" y2="0" stroke="blue" stroke-width="0.6"></line><line aria-label="CI 0.975: 0.757260129804; upper_Quantile.0.025(R): 0.810293427421; index: DF; Quantile.0.975(R): 0.810293427421; Quantile.0.025(R): 0.757260129804" role="graphics-symbol" aria-roledescription="errorbar" transform="translate(51.452025960709705,130)" x2="10.606659523586607" y2="0" stroke="blue" stroke-width="0.6"></line><line aria-label="CI 0.975: 0.777972148324; upper_Quantile.0.025(R): 0.880927909746; index: SE; Quantile.0.975(R): 0.880927909746; Quantile.0.025(R): 0.777972148324" role="graphics-symbol" aria-roledescription="errorbar" transform="translate(55.594429664813454,490)" x2="20.59115228429355" y2="0" stroke="blue" stroke-width="0.6"></line><line aria-label="CI 0.975: 0.856365583368; upper_Quantile.0.025(R): 0.912780366153; index: GO; Quantile.0.975(R): 0.912780366153; Quantile.0.025(R): 0.856365583368" role="graphics-symbol" aria-roledescription="errorbar" transform="translate(71.27311667361849,170)" x2="11.28295655698328" y2="0" stroke="blue" stroke-width="0.6"></line><line aria-label="CI 0.975: 0.830121453742; upper_Quantile.0.025(R): 0.945238273476; index: RR; Quantile.0.975(R): 0.945238273476; Quantile.0.025(R): 0.830121453742" role="graphics-symbol" aria-roledescription="errorbar" transform="translate(66.02429074840184,430)" x2="23.023363946883137" y2="0" stroke="blue" stroke-width="0.6"></line><line aria-label="CI 0.975: 0.859990631886; upper_Quantile.0.025(R): 0.917070521886; index: PI; Quantile.0.975(R): 0.917070521886; Quantile.0.025(R): 0.859990631886" role="graphics-symbol" aria-roledescription="errorbar" transform="translate(71.99812637729181,330)" x2="11.415977999981152" y2="0" stroke="blue" stroke-width="0.6"></line><line aria-label="CI 0.975: 0.859062111035; upper_Quantile.0.025(R): 0.925219767153; index: PA; Quantile.0.975(R): 0.925219767153; Quantile.0.025(R): 0.859062111035" role="graphics-symbol" aria-roledescription="errorbar" transform="translate(71.81242220706083,270)" x2="13.231531223520363" y2="0" stroke="blue" stroke-width="0.6"></line><line aria-label="CI 0.975: 0.88444964565; upper_Quantile.0.025(R): 0.934474402502; index: SP; Quantile.0.975(R): 0.934474402502; Quantile.0.025(R): 0.88444964565" role="graphics-symbol" aria-roledescription="errorbar" transform="translate(76.88992913005414,510)" x2="10.00495137036475" y2="0" stroke="blue" stroke-width="0.6"></line><line aria-label="CI 0.975: 0.844847748134; upper_Quantile.0.025(R): 0.974143630487; index: AC; Quantile.0.975(R): 0.974143630487; Quantile.0.025(R): 0.844847748134" role="graphics-symbol" aria-roledescription="errorbar" transform="translate(68.96954962677628,10)" x2="25.85917647061025" y2="0" stroke="blue" stroke-width="0.6"></line><line aria-label="CI 0.975: 0.840528750318; upper_Quantile.0.025(R): 0.984584532002; index: RN; Quantile.0.975(R): 0.984584532002; Quantile.0.025(R): 0.840528750318" role="graphics-symbol" aria-roledescription="errorbar" transform="translate(68.10575006354226,390)" x2="28.811156336866276" y2="0" stroke="blue" stroke-width="0.6"></line><line aria-label="CI 0.975: 0.898655068847; upper_Quantile.0.025(R): 0.92701965291; index: BA; Quantile.0.975(R): 0.92701965291; Quantile.0.025(R): 0.898655068847" role="graphics-symbol" aria-roledescription="errorbar" transform="translate(79.73101376947311,90)" x2="5.67291681244356" y2="0" stroke="blue" stroke-width="0.6"></line><line aria-label="CI 0.975: 0.888417426008; upper_Quantile.0.025(R): 0.941750231707; index: MS; Quantile.0.975(R): 0.941750231707; Quantile.0.025(R): 0.888417426008" role="graphics-symbol" aria-roledescription="errorbar" transform="translate(77.68348520157062,230)" x2="10.666561139904132" y2="0" stroke="blue" stroke-width="0.6"></line><line aria-label="CI 0.975: 0.894798172708; upper_Quantile.0.025(R): 0.967024919897; index: RO; Quantile.0.975(R): 0.967024919897; Quantile.0.025(R): 0.894798172708" role="graphics-symbol" aria-roledescription="errorbar" transform="translate(78.95963454160233,410)" x2="14.44534943779638" y2="0" stroke="blue" stroke-width="0.6"></line><line aria-label="CI 0.975: 0.900482356676; upper_Quantile.0.025(R): 0.968378343097; index: PB; Quantile.0.975(R): 0.968378343097; Quantile.0.025(R): 0.900482356676" role="graphics-symbol" aria-roledescription="errorbar" transform="translate(80.09647133514633,290)" x2="13.579197284259251" y2="0" stroke="blue" stroke-width="0.6"></line><line aria-label="CI 0.975: 0.914519136065; upper_Quantile.0.025(R): 0.965573916276; index: TO; Quantile.0.975(R): 0.965573916276; Quantile.0.025(R): 0.914519136065" role="graphics-symbol" aria-roledescription="errorbar" transform="translate(82.90382721298138,530)" x2="10.210956042224481" y2="0" stroke="blue" stroke-width="0.6"></line><line aria-label="CI 0.975: 0.905177001281; upper_Quantile.0.025(R): 0.989698811387; index: RJ; Quantile.0.975(R): 0.989698811387; Quantile.0.025(R): 0.905177001281" role="graphics-symbol" aria-roledescription="errorbar" transform="translate(81.03540025614447,370)" x2="16.90436202131727" y2="0" stroke="blue" stroke-width="0.6"></line><line aria-label="CI 0.975: 0.935310887593; upper_Quantile.0.025(R): 0.987587913831; index: MA; Quantile.0.975(R): 0.987587913831; Quantile.0.025(R): 0.935310887593" role="graphics-symbol" aria-roledescription="errorbar" transform="translate(87.06217751864689,190)" x2="10.455405247628647" y2="0" stroke="blue" stroke-width="0.6"></line><line aria-label="CI 0.975: 0.954037619156; upper_Quantile.0.025(R): 0.981554694886; index: MG; Quantile.0.975(R): 0.981554694886; Quantile.0.025(R): 0.954037619156" role="graphics-symbol" aria-roledescription="errorbar" transform="translate(90.80752383124297,210)" x2="5.503415145978124" y2="0" stroke="blue" stroke-width="0.6"></line><line aria-label="CI 0.975: 0.91764182966; upper_Quantile.0.025(R): 1.02718160296; index: ES; Quantile.0.975(R): 1.02718160296; Quantile.0.025(R): 0.91764182966" role="graphics-symbol" aria-roledescription="errorbar" transform="translate(83.52836593194095,150)" x2="21.907954660292702" y2="0" stroke="blue" stroke-width="0.6"></line><line aria-label="CI 0.975: 0.954936873133; upper_Quantile.0.025(R): 1.00588010232; index: MT; Quantile.0.975(R): 1.00588010232; Quantile.0.025(R): 0.954936873133" role="graphics-symbol" aria-roledescription="errorbar" transform="translate(90.98737462650534,250)" x2="10.188645837843026" y2="0" stroke="blue" stroke-width="0.6"></line><line aria-label="CI 0.975: 0.985399028149; upper_Quantile.0.025(R): 1.06949609492; index: CE; Quantile.0.975(R): 1.06949609492; Quantile.0.025(R): 0.985399028149" role="graphics-symbol" aria-roledescription="errorbar" transform="translate(97.07980562970924,110)" x2="16.819413354495538" y2="0" stroke="blue" stroke-width="0.6"></line><line aria-label="CI 0.975: 1.02717156194; upper_Quantile.0.025(R): 1.07189861241; index: PR; Quantile.0.975(R): 1.07189861241; Quantile.0.025(R): 1.02717156194" role="graphics-symbol" aria-roledescription="errorbar" transform="translate(105.43431238865954,350)" x2="8.945410093986226" y2="0" stroke="blue" stroke-width="0.6"></line><line aria-label="CI 0.975: 0.995809793594; upper_Quantile.0.025(R): 1.11377320936; index: AM; Quantile.0.975(R): 1.11377320936; Quantile.0.025(R): 0.995809793594" role="graphics-symbol" aria-roledescription="errorbar" transform="translate(99.16195871880802,50)" x2="23.592683153595004" y2="0" stroke="blue" stroke-width="0.6"></line><line aria-label="CI 0.975: 1.01634914823; upper_Quantile.0.025(R): 1.11348278784; index: RS; Quantile.0.975(R): 1.11348278784; Quantile.0.025(R): 1.01634914823" role="graphics-symbol" aria-roledescription="errorbar" transform="translate(103.26982964544342,450)" x2="19.426727922954427" y2="0" stroke="blue" stroke-width="0.6"></line><line aria-label="CI 0.975: 1.08390191022; upper_Quantile.0.025(R): 1.20221731317; index: AP; Quantile.0.975(R): 1.20221731317; Quantile.0.025(R): 1.08390191022" role="graphics-symbol" aria-roledescription="errorbar" transform="translate(116.78038204329872,70)" x2="23.6630805914113" y2="0" stroke="blue" stroke-width="0.6"></line><line aria-label="CI 0.975: 1.17075940893; upper_Quantile.0.025(R): 1.24507090439; index: PE; Quantile.0.975(R): 1.24507090439; Quantile.0.025(R): 1.17075940893" role="graphics-symbol" aria-roledescription="errorbar" transform="translate(134.15188178561732,310)" x2="14.862299093317347" y2="0" stroke="blue" stroke-width="0.6"></line><line aria-label="CI 0.975: 2.0322724591; upper_Quantile.0.025(R): 3.82437071669; index: SC; Quantile.0.975(R): 3.82437071669; Quantile.0.025(R): 2.0322724591" role="graphics-symbol" aria-roledescription="errorbar" transform="translate(306.45449182083996,470)" x2="358.4196515165437" y2="0" stroke="blue" stroke-width="0.6"></line></g><g class="mark-group role-title"><g transform="translate(350,-17.2)"><path class="background" aria-hidden="true" d="M0,0h0v0h0Z" pointer-events="none"></path><g><g class="mark-text role-title-text" role="graphics-symbol" aria-roledescription="title" aria-label="Title text 'Instantaneous reproduction number estimate for all states in Brazil'" pointer-events="none"><text text-anchor="middle" transform="translate(0,10)" font-family="sans-serif" font-size="13px" font-weight="bold" fill="#000" opacity="1">Instantaneous reproduction number estimate for all states in Brazil</text></g></g><path class="foreground" aria-hidden="true" d="" pointer-events="none" display="none"></path></g></g></g><path class="foreground" aria-hidden="true" d="" display="none"></path></g></g></g></svg>