<svg class="marks" width="829" height="599" viewBox="0 0 829 599" version="1.1" xmlns="http://www.w3.org/2000/svg" xmlns:xlink="http://www.w3.org/1999/xlink"><rect width="829" height="599" fill="white"></rect><g fill="none" stroke-miterlimit="10" transform="translate(123,22)"><g class="mark-group role-frame root" role="graphics-object" aria-roledescription="group mark container"><g transform="translate(0,0)"><path class="background" aria-hidden="true" d="M0.5,0.5h700v540h-700Z"></path><g><g class="mark-group role-axis" aria-hidden="true"><g transform="translate(0.5,0.5)"><path class="background" aria-hidden="true" d="M0,0h0v0h0Z" pointer-events="none"></path><g><g class="mark-rule role-axis-grid" pointer-events="none"><line transform="translate(0,10)" x2="700" y2="0" stroke="#ddd" stroke-width="1" opacity="1"></line><line transform="translate(0,30)" x2="700" y2="0" stroke="#ddd" stroke-width="1" opacity="1"></line><line transform="translate(0,50)" x2="700" y2="0" stroke="#ddd" stroke-width="1" opacity="1"></line><line transform="translate(0,70)" x2="700" y2="0" stroke="#ddd" stroke-width="1" opacity="1"></line><line transform="translate(0,90)" x2="700" y2="0" stroke="#ddd" stroke-width="1" opacity="1"></line><line transform="translate(0,110)" x2="700" y2="0" stroke="#ddd" stroke-width="1" opacity="1"></line><line transform="translate(0,130)" x2="700" y2="0" stroke="#ddd" stroke-width="1" opacity="1"></line><line transform="translate(0,150)" x2="700" y2="0" stroke="#ddd" stroke-width="1" opacity="1"></line><line transform="translate(0,170)" x2="700" y2="0" stroke="#ddd" stroke-width="1" opacity="1"></line><line transform="translate(0,190)" x2="700" y2="0" stroke="#ddd" stroke-width="1" opacity="1"></line><line transform="translate(0,210)" x2="700" y2="0" stroke="#ddd" stroke-width="1" opacity="1"></line><line transform="translate(0,230)" x2="700" y2="0" stroke="#ddd" stroke-width="1" opacity="1"></line><line transform="translate(0,250)" x2="700" y2="0" stroke="#ddd" stroke-width="1" opacity="1"></line><line transform="translate(0,270)" x2="700" y2="0" stroke="#ddd" stroke-width="1" opacity="1"></line><line transform="translate(0,290)" x2="700" y2="0" stroke="#ddd" stroke-width="1" opacity="1"></line><line transform="translate(0,310)" x2="700" y2="0" stroke="#ddd" stroke-width="1" opacity="1"></line><line transform="translate(0,330)" x2="700" y2="0" stroke="#ddd" stroke-width="1" opacity="1"></line><line transform="translate(0,350)" x2="700" y2="0" stroke="#ddd" stroke-width="1" opacity="1"></line><line transform="translate(0,370)" x2="700" y2="0" stroke="#ddd" stroke-width="1" opacity="1"></line><line transform="translate(0,390)" x2="700" y2="0" stroke="#ddd" stroke-width="1" opacity="1"></line><line transform="translate(0,410)" x2="700" y2="0" stroke="#ddd" stroke-width="1" opacity="1"></line><line transform="translate(0,430)" x2="700" y2="0" stroke="#ddd" stroke-width="1" opacity="1"></line><line transform="translate(0,450)" x2="700" y2="0" stroke="#ddd" stroke-width="1" opacity="1"></line><line transform="translate(0,470)" x2="700" y2="0" stroke="#ddd" stroke-width="1" opacity="1"></line><line transform="translate(0,490)" x2="700" y2="0" stroke="#ddd" stroke-width="1" opacity="1"></line><line transform="translate(0,510)" x2="700" y2="0" stroke="#ddd" stroke-width="1" opacity="1"></line><line transform="translate(0,530)" x2="700" y2="0" stroke="#ddd" stroke-width="1" opacity="1"></line></g></g><path class="foreground" aria-hidden="true" d="" pointer-events="none" display="none"></path></g></g><g class="mark-group role-axis" role="graphics-symbol" aria-roledescription="axis" aria-label="X-axis titled 'Weighted percentage w/ COVID-like illness, CI 0.95' for a linear scale with values from -2 to 18"><g transform="translate(0.5,540.5)"><path class="background" aria-hidden="true" d="M0,0h0v0h0Z" pointer-events="none"></path><g><g class="mark-rule role-axis-tick" pointer-events="none"><line transform="translate(0,0)" x2="0" y2="5" stroke="#888" stroke-width="1" opacity="1"></line><line transform="translate(35,0)" x2="0" y2="5" stroke="#888" stroke-width="1" opacity="1"></line><line transform="translate(70,0)" x2="0" y2="5" stroke="#888" stroke-width="1" opacity="1"></line><line transform="translate(105,0)" x2="0" y2="5" stroke="#888" stroke-width="1" opacity="1"></line><line transform="translate(140,0)" x2="0" y2="5" stroke="#888" stroke-width="1" opacity="1"></line><line transform="translate(175,0)" x2="0" y2="5" stroke="#888" stroke-width="1" opacity="1"></line><line transform="translate(210,0)" x2="0" y2="5" stroke="#888" stroke-width="1" opacity="1"></line><line transform="translate(245,0)" x2="0" y2="5" stroke="#888" stroke-width="1" opacity="1"></line><line transform="translate(280,0)" x2="0" y2="5" stroke="#888" stroke-width="1" opacity="1"></line><line transform="translate(315,0)" x2="0" y2="5" stroke="#888" stroke-width="1" opacity="1"></line><line transform="translate(350,0)" x2="0" y2="5" stroke="#888" stroke-width="1" opacity="1"></line><line transform="translate(385,0)" x2="0" y2="5" stroke="#888" stroke-width="1" opacity="1"></line><line transform="translate(420,0)" x2="0" y2="5" stroke="#888" stroke-width="1" opacity="1"></line><line transform="translate(455,0)" x2="0" y2="5" stroke="#888" stroke-width="1" opacity="1"></line><line transform="translate(490,0)" x2="0" y2="5" stroke="#888" stroke-width="1" opacity="1"></line><line transform="translate(525,0)" x2="0" y2="5" stroke="#888" stroke-width="1" opacity="1"></line><line transform="translate(560,0)" x2="0" y2="5" stroke="#888" stroke-width="1" opacity="1"></line><line transform="translate(595,0)" x2="0" y2="5" stroke="#888" stroke-width="1" opacity="1"></line><line transform="translate(630,0)" x2="0" y2="5" stroke="#888" stroke-width="1" opacity="1"></line><line transform="translate(665,0)" x2="0" y2="5" stroke="#888" stroke-width="1" opacity="1"></line><line transform="translate(700,0)" x2="0" y2="5" stroke="#888" stroke-width="1" opacity="1"></line></g><g class="mark-text role-axis-label" pointer-events="none"><text text-anchor="start" transform="translate(0,15)" font-family="sans-serif" font-size="10px" fill="#000" opacity="1">-2</text><text text-anchor="middle" transform="translate(35,15)" font-family="sans-serif" font-size="10px" fill="#000" opacity="1">-1</text><text text-anchor="middle" transform="translate(70,15)" font-family="sans-serif" font-size="10px" fill="#000" opacity="1">0</text><text text-anchor="middle" transform="translate(105,15)" font-family="sans-serif" font-size="10px" fill="#000" opacity="1">1</text><text text-anchor="middle" transform="translate(140,15)" font-family="sans-serif" font-size="10px" fill="#000" opacity="1">2</text><text text-anchor="middle" transform="translate(175,15)" font-family="sans-serif" font-size="10px" fill="#000" opacity="1">3</text><text text-anchor="middle" transform="translate(210,15)" font-family="sans-serif" font-size="10px" fill="#000" opacity="1">4</text><text text-anchor="middle" transform="translate(244.99999999999997,15)" font-family="sans-serif" font-size="10px" fill="#000" opacity="1">5</text><text text-anchor="middle" transform="translate(280,15)" font-family="sans-serif" font-size="10px" fill="#000" opacity="1">6</text><text text-anchor="middle" transform="translate(315,15)" font-family="sans-serif" font-size="10px" fill="#000" opacity="1">7</text><text text-anchor="middle" transform="translate(350,15)" font-family="sans-serif" font-size="10px" fill="#000" opacity="1">8</text><text text-anchor="middle" transform="translate(385.00000000000006,15)" font-family="sans-serif" font-size="10px" fill="#000" opacity="1">9</text><text text-anchor="middle" transform="translate(420,15)" font-family="sans-serif" font-size="10px" fill="#000" opacity="1">10</text><text text-anchor="middle" transform="translate(455,15)" font-family="sans-serif" font-size="10px" fill="#000" opacity="1">11</text><text text-anchor="middle" transform="translate(489.99999999999994,15)" font-family="sans-serif" font-size="10px" fill="#000" opacity="1">12</text><text text-anchor="middle" transform="translate(525,15)" font-family="sans-serif" font-size="10px" fill="#000" opacity="1">13</text><text text-anchor="middle" transform="translate(560,15)" font-family="sans-serif" font-size="10px" fill="#000" opacity="1">14</text><text text-anchor="middle" transform="translate(595,15)" font-family="sans-serif" font-size="10px" fill="#000" opacity="1">15</text><text text-anchor="middle" transform="translate(630,15)" font-family="sans-serif" font-size="10px" fill="#000" opacity="1">16</text><text text-anchor="middle" transform="translate(665,15)" font-family="sans-serif" font-size="10px" fill="#000" opacity="1">17</text><text text-anchor="end" transform="translate(700,15)" font-family="sans-serif" font-size="10px" fill="#000" opacity="1">18</text></g><g class="mark-rule role-axis-domain" pointer-events="none"><line transform="translate(0,0)" x2="700" y2="0" stroke="#888" stroke-width="1" opacity="1"></line></g><g class="mark-text role-axis-title" pointer-events="none"><text text-anchor="middle" transform="translate(350,30)" font-family="sans-serif" font-size="11px" font-weight="bold" fill="#000" opacity="1">Weighted percentage w/ COVID-like illness, CI 0.95</text></g></g><path class="foreground" aria-hidden="true" d="" pointer-events="none" display="none"></path></g></g><g class="mark-group role-axis" role="graphics-symbol" aria-roledescription="axis" aria-label="Y-axis titled 'States' for a discrete scale with 27 values: Acre, Alagoas, Amapá, Amazonas, Bahia, ending with Tocantins"><g transform="translate(0.5,0.5)"><path class="background" aria-hidden="true" d="M0,0h0v0h0Z" pointer-events="none"></path><g><g class="mark-rule role-axis-tick" pointer-events="none"><line transform="translate(0,10)" x2="-5" y2="0" stroke="#888" stroke-width="1" opacity="1"></line><line transform="translate(0,30)" x2="-5" y2="0" stroke="#888" stroke-width="1" opacity="1"></line><line transform="translate(0,50)" x2="-5" y2="0" stroke="#888" stroke-width="1" opacity="1"></line><line transform="translate(0,70)" x2="-5" y2="0" stroke="#888" stroke-width="1" opacity="1"></line><line transform="translate(0,90)" x2="-5" y2="0" stroke="#888" stroke-width="1" opacity="1"></line><line transform="translate(0,110)" x2="-5" y2="0" stroke="#888" stroke-width="1" opacity="1"></line><line transform="translate(0,130)" x2="-5" y2="0" stroke="#888" stroke-width="1" opacity="1"></line><line transform="translate(0,150)" x2="-5" y2="0" stroke="#888" stroke-width="1" opacity="1"></line><line transform="translate(0,170)" x2="-5" y2="0" stroke="#888" stroke-width="1" opacity="1"></line><line transform="translate(0,190)" x2="-5" y2="0" stroke="#888" stroke-width="1" opacity="1"></line><line transform="translate(0,210)" x2="-5" y2="0" stroke="#888" stroke-width="1" opacity="1"></line><line transform="translate(0,230)" x2="-5" y2="0" stroke="#888" stroke-width="1" opacity="1"></line><line transform="translate(0,250)" x2="-5" y2="0" stroke="#888" stroke-width="1" opacity="1"></line><line transform="translate(0,270)" x2="-5" y2="0" stroke="#888" stroke-width="1" opacity="1"></line><line transform="translate(0,290)" x2="-5" y2="0" stroke="#888" stroke-width="1" opacity="1"></line><line transform="translate(0,310)" x2="-5" y2="0" stroke="#888" stroke-width="1" opacity="1"></line><line transform="translate(0,330)" x2="-5" y2="0" stroke="#888" stroke-width="1" opacity="1"></line><line transform="translate(0,350)" x2="-5" y2="0" stroke="#888" stroke-width="1" opacity="1"></line><line transform="translate(0,370)" x2="-5" y2="0" stroke="#888" stroke-width="1" opacity="1"></line><line transform="translate(0,390)" x2="-5" y2="0" stroke="#888" stroke-width="1" opacity="1"></line><line transform="translate(0,410)" x2="-5" y2="0" stroke="#888" stroke-width="1" opacity="1"></line><line transform="translate(0,430)" x2="-5" y2="0" stroke="#888" stroke-width="1" opacity="1"></line><line transform="translate(0,450)" x2="-5" y2="0" stroke="#888" stroke-width="1" opacity="1"></line><line transform="translate(0,470)" x2="-5" y2="0" stroke="#888" stroke-width="1" opacity="1"></line><line transform="translate(0,490)" x2="-5" y2="0" stroke="#888" stroke-width="1" opacity="1"></line><line transform="translate(0,510)" x2="-5" y2="0" stroke="#888" stroke-width="1" opacity="1"></line><line transform="translate(0,530)" x2="-5" y2="0" stroke="#888" stroke-width="1" opacity="1"></line></g><g class="mark-text role-axis-label" pointer-events="none"><text text-anchor="end" transform="translate(-7,12.5)" font-family="sans-serif" font-size="10px" fill="#000" opacity="1">Acre</text><text text-anchor="end" transform="translate(-7,32.5)" font-family="sans-serif" font-size="10px" fill="#000" opacity="1">Alagoas</text><text text-anchor="end" transform="translate(-7,52.5)" font-family="sans-serif" font-size="10px" fill="#000" opacity="1">Amapá</text><text text-anchor="end" transform="translate(-7,72.5)" font-family="sans-serif" font-size="10px" fill="#000" opacity="1">Amazonas</text><text text-anchor="end" transform="translate(-7,92.5)" font-family="sans-serif" font-size="10px" fill="#000" opacity="1">Bahia</text><text text-anchor="end" transform="translate(-7,112.5)" font-family="sans-serif" font-size="10px" fill="#000" opacity="1">Ceará</text><text text-anchor="end" transform="translate(-7,132.5)" font-family="sans-serif" font-size="10px" fill="#000" opacity="1">Distrito Federal</text><text text-anchor="end" transform="translate(-7,152.5)" font-family="sans-serif" font-size="10px" fill="#000" opacity="1">Espírito Santo</text><text text-anchor="end" transform="translate(-7,172.5)" font-family="sans-serif" font-size="10px" fill="#000" opacity="1">Goiás</text><text text-anchor="end" transform="translate(-7,192.5)" font-family="sans-serif" font-size="10px" fill="#000" opacity="1">Maranhão</text><text text-anchor="end" transform="translate(-7,212.5)" font-family="sans-serif" font-size="10px" fill="#000" opacity="1">Mato Grosso</text><text text-anchor="end" transform="translate(-7,232.5)" font-family="sans-serif" font-size="10px" fill="#000" opacity="1">Mato Grosso do Sul</text><text text-anchor="end" transform="translate(-7,252.5)" font-family="sans-serif" font-size="10px" fill="#000" opacity="1">Minas Gerais</text><text text-anchor="end" transform="translate(-7,272.5)" font-family="sans-serif" font-size="10px" fill="#000" opacity="1">Paraná</text><text text-anchor="end" transform="translate(-7,292.5)" font-family="sans-serif" font-size="10px" fill="#000" opacity="1">Paraíba</text><text text-anchor="end" transform="translate(-7,312.5)" font-family="sans-serif" font-size="10px" fill="#000" opacity="1">Pará</text><text text-anchor="end" transform="translate(-7,332.5)" font-family="sans-serif" font-size="10px" fill="#000" opacity="1">Pernambuco</text><text text-anchor="end" transform="translate(-7,352.5)" font-family="sans-serif" font-size="10px" fill="#000" opacity="1">Piauí</text><text text-anchor="end" transform="translate(-7,372.5)" font-family="sans-serif" font-size="10px" fill="#000" opacity="1">Rio Grande do Norte</text><text text-anchor="end" transform="translate(-7,392.5)" font-family="sans-serif" font-size="10px" fill="#000" opacity="1">Rio Grande do Sul</text><text text-anchor="end" transform="translate(-7,412.5)" font-family="sans-serif" font-size="10px" fill="#000" opacity="1">Rio de Janeiro</text><text text-anchor="end" transform="translate(-7,432.5)" font-family="sans-serif" font-size="10px" fill="#000" opacity="1">Rondônia</text><text text-anchor="end" transform="translate(-7,452.5)" font-family="sans-serif" font-size="10px" fill="#000" opacity="1">Roraima</text><text text-anchor="end" transform="translate(-7,472.5)" font-family="sans-serif" font-size="10px" fill="#000" opacity="1">Santa Catarina</text><text text-anchor="end" transform="translate(-7,492.5)" font-family="sans-serif" font-size="10px" fill="#000" opacity="1">Sergipe</text><text text-anchor="end" transform="translate(-7,512.5)" font-family="sans-serif" font-size="10px" fill="#000" opacity="1">São Paulo</text><text text-anchor="end" transform="translate(-7,532.5)" font-family="sans-serif" font-size="10px" fill="#000" opacity="1">Tocantins</text></g><g class="mark-rule role-axis-domain" pointer-events="none"><line transform="translate(0,0)" x2="0" y2="540" stroke="#888" stroke-width="1" opacity="1"></line></g><g class="mark-text role-axis-title" pointer-events="none"><text text-anchor="middle" transform="translate(-107,270) rotate(-90) translate(0,-2)" font-family="sans-serif" font-size="11px" font-weight="bold" fill="#000" opacity="1">States</text></g></g><path class="foreground" aria-hidden="true" d="" pointer-events="none" display="none"></path></g></g><g class="mark-symbol role-mark layer_0_marks" role="graphics-object" aria-roledescription="symbol mark container"><path aria-label="Weighted percentage w/ COVID-like illness: 9.6705; States: Acre" role="graphics-symbol" aria-roledescription="point" transform="translate(408.46750000000003,10)" d="M2.7386127875258306,0A2.7386127875258306,2.7386127875258306,0,1,1,-2.7386127875258306,0A2.7386127875258306,2.7386127875258306,0,1,1,2.7386127875258306,0" stroke="#4c78a8" stroke-width="2" opacity="0.7"></path><path aria-label="Weighted percentage w/ COVID-like illness: 8.9647; States: Roraima" role="graphics-symbol" aria-roledescription="point" transform="translate(383.7645,450)" d="M2.7386127875258306,0A2.7386127875258306,2.7386127875258306,0,1,1,-2.7386127875258306,0A2.7386127875258306,2.7386127875258306,0,1,1,2.7386127875258306,0" stroke="#4c78a8" stroke-width="2" opacity="0.7"></path><path aria-label="Weighted percentage w/ COVID-like illness: 7.3541; States: Amapá" role="graphics-symbol" aria-roledescription="point" transform="translate(327.39349999999996,50)" d="M2.7386127875258306,0A2.7386127875258306,2.7386127875258306,0,1,1,-2.7386127875258306,0A2.7386127875258306,2.7386127875258306,0,1,1,2.7386127875258306,0" stroke="#4c78a8" stroke-width="2" opacity="0.7"></path><path aria-label="Weighted percentage w/ COVID-like illness: 6.2194; States: Tocantins" role="graphics-symbol" aria-roledescription="point" transform="translate(287.679,530)" d="M2.7386127875258306,0A2.7386127875258306,2.7386127875258306,0,1,1,-2.7386127875258306,0A2.7386127875258306,2.7386127875258306,0,1,1,2.7386127875258306,0" stroke="#4c78a8" stroke-width="2" opacity="0.7"></path><path aria-label="Weighted percentage w/ COVID-like illness: 5.392; States: Maranhão" role="graphics-symbol" aria-roledescription="point" transform="translate(258.72,190)" d="M2.7386127875258306,0A2.7386127875258306,2.7386127875258306,0,1,1,-2.7386127875258306,0A2.7386127875258306,2.7386127875258306,0,1,1,2.7386127875258306,0" stroke="#4c78a8" stroke-width="2" opacity="0.7"></path><path aria-label="Weighted percentage w/ COVID-like illness: 5.3709; States: Amazonas" role="graphics-symbol" aria-roledescription="point" transform="translate(257.9815,70)" d="M2.7386127875258306,0A2.7386127875258306,2.7386127875258306,0,1,1,-2.7386127875258306,0A2.7386127875258306,2.7386127875258306,0,1,1,2.7386127875258306,0" stroke="#4c78a8" stroke-width="2" opacity="0.7"></path><path aria-label="Weighted percentage w/ COVID-like illness: 4.4489; States: Sergipe" role="graphics-symbol" aria-roledescription="point" transform="translate(225.7115,490)" d="M2.7386127875258306,0A2.7386127875258306,2.7386127875258306,0,1,1,-2.7386127875258306,0A2.7386127875258306,2.7386127875258306,0,1,1,2.7386127875258306,0" stroke="#4c78a8" stroke-width="2" opacity="0.7"></path><path aria-label="Weighted percentage w/ COVID-like illness: 4.2628; States: Pará" role="graphics-symbol" aria-roledescription="point" transform="translate(219.198,310)" d="M2.7386127875258306,0A2.7386127875258306,2.7386127875258306,0,1,1,-2.7386127875258306,0A2.7386127875258306,2.7386127875258306,0,1,1,2.7386127875258306,0" stroke="#4c78a8" stroke-width="2" opacity="0.7"></path><path aria-label="Weighted percentage w/ COVID-like illness: 4.1157; States: Rondônia" role="graphics-symbol" aria-roledescription="point" transform="translate(214.04950000000002,430)" d="M2.7386127875258306,0A2.7386127875258306,2.7386127875258306,0,1,1,-2.7386127875258306,0A2.7386127875258306,2.7386127875258306,0,1,1,2.7386127875258306,0" stroke="#4c78a8" stroke-width="2" opacity="0.7"></path><path aria-label="Weighted percentage w/ COVID-like illness: 3.8895; States: Espírito Santo" role="graphics-symbol" aria-roledescription="point" transform="translate(206.1325,150)" d="M2.7386127875258306,0A2.7386127875258306,2.7386127875258306,0,1,1,-2.7386127875258306,0A2.7386127875258306,2.7386127875258306,0,1,1,2.7386127875258306,0" stroke="#4c78a8" stroke-width="2" opacity="0.7"></path><path aria-label="Weighted percentage w/ COVID-like illness: 3.4832; States: Rio Grande do Norte" role="graphics-symbol" aria-roledescription="point" transform="translate(191.912,370)" d="M2.7386127875258306,0A2.7386127875258306,2.7386127875258306,0,1,1,-2.7386127875258306,0A2.7386127875258306,2.7386127875258306,0,1,1,2.7386127875258306,0" stroke="#4c78a8" stroke-width="2" opacity="0.7"></path><path aria-label="Weighted percentage w/ COVID-like illness: 3.3995; States: Pernambuco" role="graphics-symbol" aria-roledescription="point" transform="translate(188.9825,330)" d="M2.7386127875258306,0A2.7386127875258306,2.7386127875258306,0,1,1,-2.7386127875258306,0A2.7386127875258306,2.7386127875258306,0,1,1,2.7386127875258306,0" stroke="#4c78a8" stroke-width="2" opacity="0.7"></path><path aria-label="Weighted percentage w/ COVID-like illness: 3.2872; States: Mato Grosso" role="graphics-symbol" aria-roledescription="point" transform="translate(185.05200000000002,210)" d="M2.7386127875258306,0A2.7386127875258306,2.7386127875258306,0,1,1,-2.7386127875258306,0A2.7386127875258306,2.7386127875258306,0,1,1,2.7386127875258306,0" stroke="#4c78a8" stroke-width="2" opacity="0.7"></path><path aria-label="Weighted percentage w/ COVID-like illness: 2.9135; States: Bahia" role="graphics-symbol" aria-roledescription="point" transform="translate(171.9725,90)" d="M2.7386127875258306,0A2.7386127875258306,2.7386127875258306,0,1,1,-2.7386127875258306,0A2.7386127875258306,2.7386127875258306,0,1,1,2.7386127875258306,0" stroke="#4c78a8" stroke-width="2" opacity="0.7"></path><path aria-label="Weighted percentage w/ COVID-like illness: 2.8893; States: Mato Grosso do Sul" role="graphics-symbol" aria-roledescription="point" transform="translate(171.12550000000002,230)" d="M2.7386127875258306,0A2.7386127875258306,2.7386127875258306,0,1,1,-2.7386127875258306,0A2.7386127875258306,2.7386127875258306,0,1,1,2.7386127875258306,0" stroke="#4c78a8" stroke-width="2" opacity="0.7"></path><path aria-label="Weighted percentage w/ COVID-like illness: 2.8349; States: Ceará" role="graphics-symbol" aria-roledescription="point" transform="translate(169.22149999999996,110)" d="M2.7386127875258306,0A2.7386127875258306,2.7386127875258306,0,1,1,-2.7386127875258306,0A2.7386127875258306,2.7386127875258306,0,1,1,2.7386127875258306,0" stroke="#4c78a8" stroke-width="2" opacity="0.7"></path><path aria-label="Weighted percentage w/ COVID-like illness: 2.668; States: Paraíba" role="graphics-symbol" aria-roledescription="point" transform="translate(163.37999999999997,290)" d="M2.7386127875258306,0A2.7386127875258306,2.7386127875258306,0,1,1,-2.7386127875258306,0A2.7386127875258306,2.7386127875258306,0,1,1,2.7386127875258306,0" stroke="#4c78a8" stroke-width="2" opacity="0.7"></path><path aria-label="Weighted percentage w/ COVID-like illness: 2.4009; States: Goiás" role="graphics-symbol" aria-roledescription="point" transform="translate(154.0315,170)" d="M2.7386127875258306,0A2.7386127875258306,2.7386127875258306,0,1,1,-2.7386127875258306,0A2.7386127875258306,2.7386127875258306,0,1,1,2.7386127875258306,0" stroke="#4c78a8" stroke-width="2" opacity="0.7"></path><path aria-label="Weighted percentage w/ COVID-like illness: 2.3184; States: Piauí" role="graphics-symbol" aria-roledescription="point" transform="translate(151.14400000000003,350)" d="M2.7386127875258306,0A2.7386127875258306,2.7386127875258306,0,1,1,-2.7386127875258306,0A2.7386127875258306,2.7386127875258306,0,1,1,2.7386127875258306,0" stroke="#4c78a8" stroke-width="2" opacity="0.7"></path><path aria-label="Weighted percentage w/ COVID-like illness: 2.0447; States: Distrito Federal" role="graphics-symbol" aria-roledescription="point" transform="translate(141.5645,130)" d="M2.7386127875258306,0A2.7386127875258306,2.7386127875258306,0,1,1,-2.7386127875258306,0A2.7386127875258306,2.7386127875258306,0,1,1,2.7386127875258306,0" stroke="#4c78a8" stroke-width="2" opacity="0.7"></path><path aria-label="Weighted percentage w/ COVID-like illness: 1.9073; States: Alagoas" role="graphics-symbol" aria-roledescription="point" transform="translate(136.7555,30)" d="M2.7386127875258306,0A2.7386127875258306,2.7386127875258306,0,1,1,-2.7386127875258306,0A2.7386127875258306,2.7386127875258306,0,1,1,2.7386127875258306,0" stroke="#4c78a8" stroke-width="2" opacity="0.7"></path><path aria-label="Weighted percentage w/ COVID-like illness: 1.7512; States: São Paulo" role="graphics-symbol" aria-roledescription="point" transform="translate(131.292,510)" d="M2.7386127875258306,0A2.7386127875258306,2.7386127875258306,0,1,1,-2.7386127875258306,0A2.7386127875258306,2.7386127875258306,0,1,1,2.7386127875258306,0" stroke="#4c78a8" stroke-width="2" opacity="0.7"></path><path aria-label="Weighted percentage w/ COVID-like illness: 1.3193; States: Rio de Janeiro" role="graphics-symbol" aria-roledescription="point" transform="translate(116.1755,410)" d="M2.7386127875258306,0A2.7386127875258306,2.7386127875258306,0,1,1,-2.7386127875258306,0A2.7386127875258306,2.7386127875258306,0,1,1,2.7386127875258306,0" stroke="#4c78a8" stroke-width="2" opacity="0.7"></path><path aria-label="Weighted percentage w/ COVID-like illness: 0.9807; States: Paraná" role="graphics-symbol" aria-roledescription="point" transform="translate(104.3245,270)" d="M2.7386127875258306,0A2.7386127875258306,2.7386127875258306,0,1,1,-2.7386127875258306,0A2.7386127875258306,2.7386127875258306,0,1,1,2.7386127875258306,0" stroke="#4c78a8" stroke-width="2" opacity="0.7"></path><path aria-label="Weighted percentage w/ COVID-like illness: 0.7192; States: Santa Catarina" role="graphics-symbol" aria-roledescription="point" transform="translate(95.172,470)" d="M2.7386127875258306,0A2.7386127875258306,2.7386127875258306,0,1,1,-2.7386127875258306,0A2.7386127875258306,2.7386127875258306,0,1,1,2.7386127875258306,0" stroke="#4c78a8" stroke-width="2" opacity="0.7"></path><path aria-label="Weighted percentage w/ COVID-like illness: 0.679; States: Minas Gerais" role="graphics-symbol" aria-roledescription="point" transform="translate(93.76500000000001,250)" d="M2.7386127875258306,0A2.7386127875258306,2.7386127875258306,0,1,1,-2.7386127875258306,0A2.7386127875258306,2.7386127875258306,0,1,1,2.7386127875258306,0" stroke="#4c78a8" stroke-width="2" opacity="0.7"></path><path aria-label="Weighted percentage w/ COVID-like illness: 0.5499; States: Rio Grande do Sul" role="graphics-symbol" aria-roledescription="point" transform="translate(89.2465,390)" d="M2.7386127875258306,0A2.7386127875258306,2.7386127875258306,0,1,1,-2.7386127875258306,0A2.7386127875258306,2.7386127875258306,0,1,1,2.7386127875258306,0" stroke="#4c78a8" stroke-width="2" opacity="0.7"></path></g><g class="mark-rule role-mark layer_1_marks" role="graphics-object" aria-roledescription="rule mark container"><line aria-label="CI 0.95: 1.971228; upper_percent_cli_lower: 17.369772; region: Acre; percent_cli_upper: 17.369772; percent_cli_lower: 1.971228" role="graphics-symbol" aria-roledescription="errorbar" transform="translate(138.99298000000005,10)" x2="538.94904" y2="0" stroke="blue" stroke-width="0.6"></line><line aria-label="CI 0.95: 2.43104; upper_percent_cli_lower: 15.49836; region: Roraima; percent_cli_upper: 15.49836; percent_cli_lower: 2.43104" role="graphics-symbol" aria-roledescription="errorbar" transform="translate(155.08640000000003,450)" x2="457.35619999999983" y2="0" stroke="blue" stroke-width="0.6"></line><line aria-label="CI 0.95: 1.728312; upper_percent_cli_lower: 12.979888; region: Amapá; percent_cli_upper: 12.979888; percent_cli_lower: 1.728312" role="graphics-symbol" aria-roledescription="errorbar" transform="translate(130.49092,50)" x2="393.8051600000001" y2="0" stroke="blue" stroke-width="0.6"></line><line aria-label="CI 0.95: 1.13908; upper_percent_cli_lower: 11.29972; region: Tocantins; percent_cli_upper: 11.29972; percent_cli_lower: 1.13908" role="graphics-symbol" aria-roledescription="errorbar" transform="translate(109.86779999999999,530)" x2="355.62239999999997" y2="0" stroke="blue" stroke-width="0.6"></line><line aria-label="CI 0.95: 2.65976; upper_percent_cli_lower: 8.12424; region: Maranhão; percent_cli_upper: 8.12424; percent_cli_lower: 2.65976" role="graphics-symbol" aria-roledescription="errorbar" transform="translate(163.09160000000003,190)" x2="191.25679999999988" y2="0" stroke="blue" stroke-width="0.6"></line><line aria-label="CI 0.95: 2.639248; upper_percent_cli_lower: 8.102552; region: Amazonas; percent_cli_upper: 8.102552; percent_cli_lower: 2.639248" role="graphics-symbol" aria-roledescription="errorbar" transform="translate(162.37368,70)" x2="191.21563999999998" y2="0" stroke="blue" stroke-width="0.6"></line><line aria-label="CI 0.95: 1.327796; upper_percent_cli_lower: 7.570004; region: Sergipe; percent_cli_upper: 7.570004; percent_cli_lower: 1.327796" role="graphics-symbol" aria-roledescription="errorbar" transform="translate(116.47285999999998,490)" x2="218.47728000000006" y2="0" stroke="blue" stroke-width="0.6"></line><line aria-label="CI 0.95: 1.855136; upper_percent_cli_lower: 6.670464; region: Pará; percent_cli_upper: 6.670464; percent_cli_lower: 1.855136" role="graphics-symbol" aria-roledescription="errorbar" transform="translate(134.92976000000002,310)" x2="168.53647999999995" y2="0" stroke="blue" stroke-width="0.6"></line><line aria-label="CI 0.95: 0.945988; upper_percent_cli_lower: 7.285412; region: Rondônia; percent_cli_upper: 7.285412; percent_cli_lower: 0.945988" role="graphics-symbol" aria-roledescription="errorbar" transform="translate(103.10958000000002,430)" x2="221.87983999999997" y2="0" stroke="blue" stroke-width="0.6"></line><line aria-label="CI 0.95: 2.15294; upper_percent_cli_lower: 5.62606; region: Espírito Santo; percent_cli_upper: 5.62606; percent_cli_lower: 2.15294" role="graphics-symbol" aria-roledescription="errorbar" transform="translate(145.3529,150)" x2="121.55919999999995" y2="0" stroke="blue" stroke-width="0.6"></line><line aria-label="CI 0.95: 1.648836; upper_percent_cli_lower: 5.317564; region: Rio Grande do Norte; percent_cli_upper: 5.317564; percent_cli_lower: 1.648836" role="graphics-symbol" aria-roledescription="errorbar" transform="translate(127.70926000000001,370)" x2="128.40547999999995" y2="0" stroke="blue" stroke-width="0.6"></line><line aria-label="CI 0.95: 1.342284; upper_percent_cli_lower: 5.456716; region: Pernambuco; percent_cli_upper: 5.456716; percent_cli_lower: 1.342284" role="graphics-symbol" aria-roledescription="errorbar" transform="translate(116.97994,330)" x2="144.00511999999998" y2="0" stroke="blue" stroke-width="0.6"></line><line aria-label="CI 0.95: 1.662164; upper_percent_cli_lower: 4.912236; region: Mato Grosso; percent_cli_upper: 4.912236; percent_cli_lower: 1.662164" role="graphics-symbol" aria-roledescription="errorbar" transform="translate(128.17574,210)" x2="113.75252000000003" y2="0" stroke="blue" stroke-width="0.6"></line><line aria-label="CI 0.95: 1.063652; upper_percent_cli_lower: 4.763348; region: Bahia; percent_cli_upper: 4.763348; percent_cli_lower: 1.063652" role="graphics-symbol" aria-roledescription="errorbar" transform="translate(107.22782000000001,90)" x2="129.48936" y2="0" stroke="blue" stroke-width="0.6"></line><line aria-label="CI 0.95: 1.24486; upper_percent_cli_lower: 4.53374; region: Mato Grosso do Sul; percent_cli_upper: 4.53374; percent_cli_lower: 1.24486" role="graphics-symbol" aria-roledescription="errorbar" transform="translate(113.5701,230)" x2="115.11080000000001" y2="0" stroke="blue" stroke-width="0.6"></line><line aria-label="CI 0.95: 0.964668; upper_percent_cli_lower: 4.705132; region: Ceará; percent_cli_upper: 4.705132; percent_cli_lower: 0.964668" role="graphics-symbol" aria-roledescription="errorbar" transform="translate(103.76338,110)" x2="130.91624000000002" y2="0" stroke="blue" stroke-width="0.6"></line><line aria-label="CI 0.95: 0.739752; upper_percent_cli_lower: 4.596248; region: Paraíba; percent_cli_upper: 4.596248; percent_cli_lower: 0.739752" role="graphics-symbol" aria-roledescription="errorbar" transform="translate(95.89132000000001,290)" x2="134.97736" y2="0" stroke="blue" stroke-width="0.6"></line><line aria-label="CI 0.95: 1.116904; upper_percent_cli_lower: 3.684896; region: Goiás; percent_cli_upper: 3.684896; percent_cli_lower: 1.116904" role="graphics-symbol" aria-roledescription="errorbar" transform="translate(109.09164,170)" x2="89.87972" y2="0" stroke="blue" stroke-width="0.6"></line><line aria-label="CI 0.95: 0.299208; upper_percent_cli_lower: 4.337592; region: Piauí; percent_cli_upper: 4.337592; percent_cli_lower: 0.299208" role="graphics-symbol" aria-roledescription="errorbar" transform="translate(80.47228,350)" x2="141.34344" y2="0" stroke="blue" stroke-width="0.6"></line><line aria-label="CI 0.95: 0.864976; upper_percent_cli_lower: 3.224424; region: Distrito Federal; percent_cli_upper: 3.224424; percent_cli_lower: 0.864976" role="graphics-symbol" aria-roledescription="errorbar" transform="translate(100.27416000000001,130)" x2="82.58067999999999" y2="0" stroke="blue" stroke-width="0.6"></line><line aria-label="CI 0.95: -0.01154; upper_percent_cli_lower: 3.82614; region: Alagoas; percent_cli_upper: 3.82614; percent_cli_lower: -0.01154" role="graphics-symbol" aria-roledescription="errorbar" transform="translate(69.59609999999999,30)" x2="134.3188" y2="0" stroke="blue" stroke-width="0.6"></line><line aria-label="CI 0.95: 1.142816; upper_percent_cli_lower: 2.359584; region: São Paulo; percent_cli_upper: 2.359584; percent_cli_lower: 1.142816" role="graphics-symbol" aria-roledescription="errorbar" transform="translate(109.99856,510)" x2="42.58687999999998" y2="0" stroke="blue" stroke-width="0.6"></line><line aria-label="CI 0.95: 0.374384; upper_percent_cli_lower: 2.264216; region: Rio de Janeiro; percent_cli_upper: 2.264216; percent_cli_lower: 0.374384" role="graphics-symbol" aria-roledescription="errorbar" transform="translate(83.10343999999999,410)" x2="66.14412" y2="0" stroke="blue" stroke-width="0.6"></line><line aria-label="CI 0.95: 0.108304; upper_percent_cli_lower: 1.853096; region: Paraná; percent_cli_upper: 1.853096; percent_cli_lower: 0.108304" role="graphics-symbol" aria-roledescription="errorbar" transform="translate(73.79064,270)" x2="61.06772000000001" y2="0" stroke="blue" stroke-width="0.6"></line><line aria-label="CI 0.95: -0.135948; upper_percent_cli_lower: 1.574348; region: Santa Catarina; percent_cli_upper: 1.574348; percent_cli_lower: -0.135948" role="graphics-symbol" aria-roledescription="errorbar" transform="translate(65.24182,470)" x2="59.86035999999997" y2="0" stroke="blue" stroke-width="0.6"></line><line aria-label="CI 0.95: -0.154784; upper_percent_cli_lower: 1.512784; region: Minas Gerais; percent_cli_upper: 1.512784; percent_cli_lower: -0.154784" role="graphics-symbol" aria-roledescription="errorbar" transform="translate(64.58256,250)" x2="58.36488" y2="0" stroke="blue" stroke-width="0.6"></line><line aria-label="CI 0.95: -0.117872; upper_percent_cli_lower: 1.217672; region: Rio Grande do Sul; percent_cli_upper: 1.217672; percent_cli_lower: -0.117872" role="graphics-symbol" aria-roledescription="errorbar" transform="translate(65.87448,390)" x2="46.74404000000001" y2="0" stroke="blue" stroke-width="0.6"></line></g><g class="mark-group role-title"><g transform="translate(350,-17)"><path class="background" aria-hidden="true" d="M0,0h0v0h0Z" pointer-events="none"></path><g><g class="mark-text role-title-text" role="graphics-symbol" aria-roledescription="title" aria-label="Title text 'Facebook COVID-like illness symptom survey (last available date) for all states in Brazil'" pointer-events="none"><text text-anchor="middle" transform="translate(0,10)" font-family="sans-serif" font-size="13px" font-weight="bold" fill="#000" opacity="1">Facebook COVID-like illness symptom survey (last available date) for all states in Brazil</text></g></g><path class="foreground" aria-hidden="true" d="" pointer-events="none" display="none"></path></g></g></g><path class="foreground" aria-hidden="true" d="" display="none"></path></g></g></g></svg>