<svg class="marks" width="829" height="599" viewBox="0 0 829 599" version="1.1" xmlns="http://www.w3.org/2000/svg" xmlns:xlink="http://www.w3.org/1999/xlink"><rect width="829" height="599" fill="white"></rect><g fill="none" stroke-miterlimit="10" transform="translate(123,22)"><g class="mark-group role-frame root" role="graphics-object" aria-roledescription="group mark container"><g transform="translate(0,0)"><path class="background" aria-hidden="true" d="M0.5,0.5h700v540h-700Z"></path><g><g class="mark-group role-axis" aria-hidden="true"><g transform="translate(0.5,0.5)"><path class="background" aria-hidden="true" d="M0,0h0v0h0Z" pointer-events="none"></path><g><g class="mark-rule role-axis-grid" pointer-events="none"><line transform="translate(0,10)" x2="700" y2="0" stroke="#ddd" stroke-width="1" opacity="1"></line><line transform="translate(0,30)" x2="700" y2="0" stroke="#ddd" stroke-width="1" opacity="1"></line><line transform="translate(0,50)" x2="700" y2="0" stroke="#ddd" stroke-width="1" opacity="1"></line><line transform="translate(0,70)" x2="700" y2="0" stroke="#ddd" stroke-width="1" opacity="1"></line><line transform="translate(0,90)" x2="700" y2="0" stroke="#ddd" stroke-width="1" opacity="1"></line><line transform="translate(0,110)" x2="700" y2="0" stroke="#ddd" stroke-width="1" opacity="1"></line><line transform="translate(0,130)" x2="700" y2="0" stroke="#ddd" stroke-width="1" opacity="1"></line><line transform="translate(0,150)" x2="700" y2="0" stroke="#ddd" stroke-width="1" opacity="1"></line><line transform="translate(0,170)" x2="700" y2="0" stroke="#ddd" stroke-width="1" opacity="1"></line><line transform="translate(0,190)" x2="700" y2="0" stroke="#ddd" stroke-width="1" opacity="1"></line><line transform="translate(0,210)" x2="700" y2="0" stroke="#ddd" stroke-width="1" opacity="1"></line><line transform="translate(0,230)" x2="700" y2="0" stroke="#ddd" stroke-width="1" opacity="1"></line><line transform="translate(0,250)" x2="700" y2="0" stroke="#ddd" stroke-width="1" opacity="1"></line><line transform="translate(0,270)" x2="700" y2="0" stroke="#ddd" stroke-width="1" opacity="1"></line><line transform="translate(0,290)" x2="700" y2="0" stroke="#ddd" stroke-width="1" opacity="1"></line><line transform="translate(0,310)" x2="700" y2="0" stroke="#ddd" stroke-width="1" opacity="1"></line><line transform="translate(0,330)" x2="700" y2="0" stroke="#ddd" stroke-width="1" opacity="1"></line><line transform="translate(0,350)" x2="700" y2="0" stroke="#ddd" stroke-width="1" opacity="1"></line><line transform="translate(0,370)" x2="700" y2="0" stroke="#ddd" stroke-width="1" opacity="1"></line><line transform="translate(0,390)" x2="700" y2="0" stroke="#ddd" stroke-width="1" opacity="1"></line><line transform="translate(0,410)" x2="700" y2="0" stroke="#ddd" stroke-width="1" opacity="1"></line><line transform="translate(0,430)" x2="700" y2="0" stroke="#ddd" stroke-width="1" opacity="1"></line><line transform="translate(0,450)" x2="700" y2="0" stroke="#ddd" stroke-width="1" opacity="1"></line><line transform="translate(0,470)" x2="700" y2="0" stroke="#ddd" stroke-width="1" opacity="1"></line><line transform="translate(0,490)" x2="700" y2="0" stroke="#ddd" stroke-width="1" opacity="1"></line><line transform="translate(0,510)" x2="700" y2="0" stroke="#ddd" stroke-width="1" opacity="1"></line><line transform="translate(0,530)" x2="700" y2="0" stroke="#ddd" stroke-width="1" opacity="1"></line></g></g><path class="foreground" aria-hidden="true" d="" pointer-events="none" display="none"></path></g></g><g class="mark-group role-axis" role="graphics-symbol" aria-roledescription="axis" aria-label="X-axis titled 'Weighted percentage w/ COVID-like illness, CI 0.95' for a linear scale with values from -2 to 20"><g transform="translate(0.5,540.5)"><path class="background" aria-hidden="true" d="M0,0h0v0h0Z" pointer-events="none"></path><g><g class="mark-rule role-axis-tick" pointer-events="none"><line transform="translate(0,0)" x2="0" y2="5" stroke="#888" stroke-width="1" opacity="1"></line><line transform="translate(32,0)" x2="0" y2="5" stroke="#888" stroke-width="1" opacity="1"></line><line transform="translate(64,0)" x2="0" y2="5" stroke="#888" stroke-width="1" opacity="1"></line><line transform="translate(95,0)" x2="0" y2="5" stroke="#888" stroke-width="1" opacity="1"></line><line transform="translate(127,0)" x2="0" y2="5" stroke="#888" stroke-width="1" opacity="1"></line><line transform="translate(159,0)" x2="0" y2="5" stroke="#888" stroke-width="1" opacity="1"></line><line transform="translate(191,0)" x2="0" y2="5" stroke="#888" stroke-width="1" opacity="1"></line><line transform="translate(223,0)" x2="0" y2="5" stroke="#888" stroke-width="1" opacity="1"></line><line transform="translate(255,0)" x2="0" y2="5" stroke="#888" stroke-width="1" opacity="1"></line><line transform="translate(286,0)" x2="0" y2="5" stroke="#888" stroke-width="1" opacity="1"></line><line transform="translate(318,0)" x2="0" y2="5" stroke="#888" stroke-width="1" opacity="1"></line><line transform="translate(350,0)" x2="0" y2="5" stroke="#888" stroke-width="1" opacity="1"></line><line transform="translate(382,0)" x2="0" y2="5" stroke="#888" stroke-width="1" opacity="1"></line><line transform="translate(414,0)" x2="0" y2="5" stroke="#888" stroke-width="1" opacity="1"></line><line transform="translate(445,0)" x2="0" y2="5" stroke="#888" stroke-width="1" opacity="1"></line><line transform="translate(477,0)" x2="0" y2="5" stroke="#888" stroke-width="1" opacity="1"></line><line transform="translate(509,0)" x2="0" y2="5" stroke="#888" stroke-width="1" opacity="1"></line><line transform="translate(541,0)" x2="0" y2="5" stroke="#888" stroke-width="1" opacity="1"></line><line transform="translate(573,0)" x2="0" y2="5" stroke="#888" stroke-width="1" opacity="1"></line><line transform="translate(605,0)" x2="0" y2="5" stroke="#888" stroke-width="1" opacity="1"></line><line transform="translate(636,0)" x2="0" y2="5" stroke="#888" stroke-width="1" opacity="1"></line><line transform="translate(668,0)" x2="0" y2="5" stroke="#888" stroke-width="1" opacity="1"></line><line transform="translate(700,0)" x2="0" y2="5" stroke="#888" stroke-width="1" opacity="1"></line></g><g class="mark-text role-axis-label" pointer-events="none"><text text-anchor="start" transform="translate(0,15)" font-family="sans-serif" font-size="10px" fill="#000" opacity="1">-2</text><text text-anchor="middle" transform="translate(31.81818181818182,15)" font-family="sans-serif" font-size="10px" fill="#000" opacity="1">-1</text><text text-anchor="middle" transform="translate(63.63636363636364,15)" font-family="sans-serif" font-size="10px" fill="#000" opacity="1">0</text><text text-anchor="middle" transform="translate(95.45454545454545,15)" font-family="sans-serif" font-size="10px" fill="#000" opacity="1">1</text><text text-anchor="middle" transform="translate(127.27272727272728,15)" font-family="sans-serif" font-size="10px" fill="#000" opacity="1">2</text><text text-anchor="middle" transform="translate(159.0909090909091,15)" font-family="sans-serif" font-size="10px" fill="#000" opacity="1">3</text><text text-anchor="middle" transform="translate(190.9090909090909,15)" font-family="sans-serif" font-size="10px" fill="#000" opacity="1">4</text><text text-anchor="middle" transform="translate(222.72727272727272,15)" font-family="sans-serif" font-size="10px" fill="#000" opacity="1">5</text><text text-anchor="middle" transform="translate(254.54545454545456,15)" font-family="sans-serif" font-size="10px" fill="#000" opacity="1">6</text><text text-anchor="middle" transform="translate(286.3636363636364,15)" font-family="sans-serif" font-size="10px" fill="#000" opacity="1">7</text><text text-anchor="middle" transform="translate(318.1818181818182,15)" font-family="sans-serif" font-size="10px" fill="#000" opacity="1">8</text><text text-anchor="middle" transform="translate(350,15)" font-family="sans-serif" font-size="10px" fill="#000" opacity="1">9</text><text text-anchor="middle" transform="translate(381.8181818181818,15)" font-family="sans-serif" font-size="10px" fill="#000" opacity="1">10</text><text text-anchor="middle" transform="translate(413.6363636363637,15)" font-family="sans-serif" font-size="10px" fill="#000" opacity="1">11</text><text text-anchor="middle" transform="translate(445.45454545454544,15)" font-family="sans-serif" font-size="10px" fill="#000" opacity="1">12</text><text text-anchor="middle" transform="translate(477.27272727272725,15)" font-family="sans-serif" font-size="10px" fill="#000" opacity="1">13</text><text text-anchor="middle" transform="translate(509.0909090909091,15)" font-family="sans-serif" font-size="10px" fill="#000" opacity="1">14</text><text text-anchor="middle" transform="translate(540.9090909090909,15)" font-family="sans-serif" font-size="10px" fill="#000" opacity="1">15</text><text text-anchor="middle" transform="translate(572.7272727272727,15)" font-family="sans-serif" font-size="10px" fill="#000" opacity="1">16</text><text text-anchor="middle" transform="translate(604.5454545454545,15)" font-family="sans-serif" font-size="10px" fill="#000" opacity="1">17</text><text text-anchor="middle" transform="translate(636.3636363636364,15)" font-family="sans-serif" font-size="10px" fill="#000" opacity="1">18</text><text text-anchor="middle" transform="translate(668.1818181818182,15)" font-family="sans-serif" font-size="10px" fill="#000" opacity="1">19</text><text text-anchor="end" transform="translate(700,15)" font-family="sans-serif" font-size="10px" fill="#000" opacity="1">20</text></g><g class="mark-rule role-axis-domain" pointer-events="none"><line transform="translate(0,0)" x2="700" y2="0" stroke="#888" stroke-width="1" opacity="1"></line></g><g class="mark-text role-axis-title" pointer-events="none"><text text-anchor="middle" transform="translate(350,30)" font-family="sans-serif" font-size="11px" font-weight="bold" fill="#000" opacity="1">Weighted percentage w/ COVID-like illness, CI 0.95</text></g></g><path class="foreground" aria-hidden="true" d="" pointer-events="none" display="none"></path></g></g><g class="mark-group role-axis" role="graphics-symbol" aria-roledescription="axis" aria-label="Y-axis titled 'States' for a discrete scale with 27 values: Acre, Alagoas, Amapá, Amazonas, Bahia, ending with Tocantins"><g transform="translate(0.5,0.5)"><path class="background" aria-hidden="true" d="M0,0h0v0h0Z" pointer-events="none"></path><g><g class="mark-rule role-axis-tick" pointer-events="none"><line transform="translate(0,10)" x2="-5" y2="0" stroke="#888" stroke-width="1" opacity="1"></line><line transform="translate(0,30)" x2="-5" y2="0" stroke="#888" stroke-width="1" opacity="1"></line><line transform="translate(0,50)" x2="-5" y2="0" stroke="#888" stroke-width="1" opacity="1"></line><line transform="translate(0,70)" x2="-5" y2="0" stroke="#888" stroke-width="1" opacity="1"></line><line transform="translate(0,90)" x2="-5" y2="0" stroke="#888" stroke-width="1" opacity="1"></line><line transform="translate(0,110)" x2="-5" y2="0" stroke="#888" stroke-width="1" opacity="1"></line><line transform="translate(0,130)" x2="-5" y2="0" stroke="#888" stroke-width="1" opacity="1"></line><line transform="translate(0,150)" x2="-5" y2="0" stroke="#888" stroke-width="1" opacity="1"></line><line transform="translate(0,170)" x2="-5" y2="0" stroke="#888" stroke-width="1" opacity="1"></line><line transform="translate(0,190)" x2="-5" y2="0" stroke="#888" stroke-width="1" opacity="1"></line><line transform="translate(0,210)" x2="-5" y2="0" stroke="#888" stroke-width="1" opacity="1"></line><line transform="translate(0,230)" x2="-5" y2="0" stroke="#888" stroke-width="1" opacity="1"></line><line transform="translate(0,250)" x2="-5" y2="0" stroke="#888" stroke-width="1" opacity="1"></line><line transform="translate(0,270)" x2="-5" y2="0" stroke="#888" stroke-width="1" opacity="1"></line><line transform="translate(0,290)" x2="-5" y2="0" stroke="#888" stroke-width="1" opacity="1"></line><line transform="translate(0,310)" x2="-5" y2="0" stroke="#888" stroke-width="1" opacity="1"></line><line transform="translate(0,330)" x2="-5" y2="0" stroke="#888" stroke-width="1" opacity="1"></line><line transform="translate(0,350)" x2="-5" y2="0" stroke="#888" stroke-width="1" opacity="1"></line><line transform="translate(0,370)" x2="-5" y2="0" stroke="#888" stroke-width="1" opacity="1"></line><line transform="translate(0,390)" x2="-5" y2="0" stroke="#888" stroke-width="1" opacity="1"></line><line transform="translate(0,410)" x2="-5" y2="0" stroke="#888" stroke-width="1" opacity="1"></line><line transform="translate(0,430)" x2="-5" y2="0" stroke="#888" stroke-width="1" opacity="1"></line><line transform="translate(0,450)" x2="-5" y2="0" stroke="#888" stroke-width="1" opacity="1"></line><line transform="translate(0,470)" x2="-5" y2="0" stroke="#888" stroke-width="1" opacity="1"></line><line transform="translate(0,490)" x2="-5" y2="0" stroke="#888" stroke-width="1" opacity="1"></line><line transform="translate(0,510)" x2="-5" y2="0" stroke="#888" stroke-width="1" opacity="1"></line><line transform="translate(0,530)" x2="-5" y2="0" stroke="#888" stroke-width="1" opacity="1"></line></g><g class="mark-text role-axis-label" pointer-events="none"><text text-anchor="end" transform="translate(-7,12.5)" font-family="sans-serif" font-size="10px" fill="#000" opacity="1">Acre</text><text text-anchor="end" transform="translate(-7,32.5)" font-family="sans-serif" font-size="10px" fill="#000" opacity="1">Alagoas</text><text text-anchor="end" transform="translate(-7,52.5)" font-family="sans-serif" font-size="10px" fill="#000" opacity="1">Amapá</text><text text-anchor="end" transform="translate(-7,72.5)" font-family="sans-serif" font-size="10px" fill="#000" opacity="1">Amazonas</text><text text-anchor="end" transform="translate(-7,92.5)" font-family="sans-serif" font-size="10px" fill="#000" opacity="1">Bahia</text><text text-anchor="end" transform="translate(-7,112.5)" font-family="sans-serif" font-size="10px" fill="#000" opacity="1">Ceará</text><text text-anchor="end" transform="translate(-7,132.5)" font-family="sans-serif" font-size="10px" fill="#000" opacity="1">Distrito Federal</text><text text-anchor="end" transform="translate(-7,152.5)" font-family="sans-serif" font-size="10px" fill="#000" opacity="1">Espírito Santo</text><text text-anchor="end" transform="translate(-7,172.5)" font-family="sans-serif" font-size="10px" fill="#000" opacity="1">Goiás</text><text text-anchor="end" transform="translate(-7,192.5)" font-family="sans-serif" font-size="10px" fill="#000" opacity="1">Maranhão</text><text text-anchor="end" transform="translate(-7,212.5)" font-family="sans-serif" font-size="10px" fill="#000" opacity="1">Mato Grosso</text><text text-anchor="end" transform="translate(-7,232.5)" font-family="sans-serif" font-size="10px" fill="#000" opacity="1">Mato Grosso do Sul</text><text text-anchor="end" transform="translate(-7,252.5)" font-family="sans-serif" font-size="10px" fill="#000" opacity="1">Minas Gerais</text><text text-anchor="end" transform="translate(-7,272.5)" font-family="sans-serif" font-size="10px" fill="#000" opacity="1">Paraná</text><text text-anchor="end" transform="translate(-7,292.5)" font-family="sans-serif" font-size="10px" fill="#000" opacity="1">Paraíba</text><text text-anchor="end" transform="translate(-7,312.5)" font-family="sans-serif" font-size="10px" fill="#000" opacity="1">Pará</text><text text-anchor="end" transform="translate(-7,332.5)" font-family="sans-serif" font-size="10px" fill="#000" opacity="1">Pernambuco</text><text text-anchor="end" transform="translate(-7,352.5)" font-family="sans-serif" font-size="10px" fill="#000" opacity="1">Piauí</text><text text-anchor="end" transform="translate(-7,372.5)" font-family="sans-serif" font-size="10px" fill="#000" opacity="1">Rio Grande do Norte</text><text text-anchor="end" transform="translate(-7,392.5)" font-family="sans-serif" font-size="10px" fill="#000" opacity="1">Rio Grande do Sul</text><text text-anchor="end" transform="translate(-7,412.5)" font-family="sans-serif" font-size="10px" fill="#000" opacity="1">Rio de Janeiro</text><text text-anchor="end" transform="translate(-7,432.5)" font-family="sans-serif" font-size="10px" fill="#000" opacity="1">Rondônia</text><text text-anchor="end" transform="translate(-7,452.5)" font-family="sans-serif" font-size="10px" fill="#000" opacity="1">Roraima</text><text text-anchor="end" transform="translate(-7,472.5)" font-family="sans-serif" font-size="10px" fill="#000" opacity="1">Santa Catarina</text><text text-anchor="end" transform="translate(-7,492.5)" font-family="sans-serif" font-size="10px" fill="#000" opacity="1">Sergipe</text><text text-anchor="end" transform="translate(-7,512.5)" font-family="sans-serif" font-size="10px" fill="#000" opacity="1">São Paulo</text><text text-anchor="end" transform="translate(-7,532.5)" font-family="sans-serif" font-size="10px" fill="#000" opacity="1">Tocantins</text></g><g class="mark-rule role-axis-domain" pointer-events="none"><line transform="translate(0,0)" x2="0" y2="540" stroke="#888" stroke-width="1" opacity="1"></line></g><g class="mark-text role-axis-title" pointer-events="none"><text text-anchor="middle" transform="translate(-107,270) rotate(-90) translate(0,-2)" font-family="sans-serif" font-size="11px" font-weight="bold" fill="#000" opacity="1">States</text></g></g><path class="foreground" aria-hidden="true" d="" pointer-events="none" display="none"></path></g></g><g class="mark-symbol role-mark layer_0_marks" role="graphics-object" aria-roledescription="symbol mark container"><path aria-label="Weighted percentage w/ COVID-like illness: 12.362; States: Amazonas" role="graphics-symbol" aria-roledescription="point" transform="translate(456.9727272727273,70)" d="M2.7386127875258306,0A2.7386127875258306,2.7386127875258306,0,1,1,-2.7386127875258306,0A2.7386127875258306,2.7386127875258306,0,1,1,2.7386127875258306,0" stroke="#4c78a8" stroke-width="2" opacity="0.7"></path><path aria-label="Weighted percentage w/ COVID-like illness: 8.9647; States: Roraima" role="graphics-symbol" aria-roledescription="point" transform="translate(348.87681818181824,450)" d="M2.7386127875258306,0A2.7386127875258306,2.7386127875258306,0,1,1,-2.7386127875258306,0A2.7386127875258306,2.7386127875258306,0,1,1,2.7386127875258306,0" stroke="#4c78a8" stroke-width="2" opacity="0.7"></path><path aria-label="Weighted percentage w/ COVID-like illness: 6.349; States: Piauí" role="graphics-symbol" aria-roledescription="point" transform="translate(265.65,350)" d="M2.7386127875258306,0A2.7386127875258306,2.7386127875258306,0,1,1,-2.7386127875258306,0A2.7386127875258306,2.7386127875258306,0,1,1,2.7386127875258306,0" stroke="#4c78a8" stroke-width="2" opacity="0.7"></path><path aria-label="Weighted percentage w/ COVID-like illness: 4.4325; States: Tocantins" role="graphics-symbol" aria-roledescription="point" transform="translate(204.67045454545456,530)" d="M2.7386127875258306,0A2.7386127875258306,2.7386127875258306,0,1,1,-2.7386127875258306,0A2.7386127875258306,2.7386127875258306,0,1,1,2.7386127875258306,0" stroke="#4c78a8" stroke-width="2" opacity="0.7"></path><path aria-label="Weighted percentage w/ COVID-like illness: 3.9421; States: Mato Grosso" role="graphics-symbol" aria-roledescription="point" transform="translate(189.06681818181818,210)" d="M2.7386127875258306,0A2.7386127875258306,2.7386127875258306,0,1,1,-2.7386127875258306,0A2.7386127875258306,2.7386127875258306,0,1,1,2.7386127875258306,0" stroke="#4c78a8" stroke-width="2" opacity="0.7"></path><path aria-label="Weighted percentage w/ COVID-like illness: 3.572; States: Paraíba" role="graphics-symbol" aria-roledescription="point" transform="translate(177.29090909090908,290)" d="M2.7386127875258306,0A2.7386127875258306,2.7386127875258306,0,1,1,-2.7386127875258306,0A2.7386127875258306,2.7386127875258306,0,1,1,2.7386127875258306,0" stroke="#4c78a8" stroke-width="2" opacity="0.7"></path><path aria-label="Weighted percentage w/ COVID-like illness: 3.4053; States: Acre" role="graphics-symbol" aria-roledescription="point" transform="translate(171.9868181818182,10)" d="M2.7386127875258306,0A2.7386127875258306,2.7386127875258306,0,1,1,-2.7386127875258306,0A2.7386127875258306,2.7386127875258306,0,1,1,2.7386127875258306,0" stroke="#4c78a8" stroke-width="2" opacity="0.7"></path><path aria-label="Weighted percentage w/ COVID-like illness: 3.199; States: Espírito Santo" role="graphics-symbol" aria-roledescription="point" transform="translate(165.42272727272726,150)" d="M2.7386127875258306,0A2.7386127875258306,2.7386127875258306,0,1,1,-2.7386127875258306,0A2.7386127875258306,2.7386127875258306,0,1,1,2.7386127875258306,0" stroke="#4c78a8" stroke-width="2" opacity="0.7"></path><path aria-label="Weighted percentage w/ COVID-like illness: 2.9044; States: Goiás" role="graphics-symbol" aria-roledescription="point" transform="translate(156.0490909090909,170)" d="M2.7386127875258306,0A2.7386127875258306,2.7386127875258306,0,1,1,-2.7386127875258306,0A2.7386127875258306,2.7386127875258306,0,1,1,2.7386127875258306,0" stroke="#4c78a8" stroke-width="2" opacity="0.7"></path><path aria-label="Weighted percentage w/ COVID-like illness: 2.5113; States: Rio Grande do Norte" role="graphics-symbol" aria-roledescription="point" transform="translate(143.54136363636363,370)" d="M2.7386127875258306,0A2.7386127875258306,2.7386127875258306,0,1,1,-2.7386127875258306,0A2.7386127875258306,2.7386127875258306,0,1,1,2.7386127875258306,0" stroke="#4c78a8" stroke-width="2" opacity="0.7"></path><path aria-label="Weighted percentage w/ COVID-like illness: 2.4773; States: Distrito Federal" role="graphics-symbol" aria-roledescription="point" transform="translate(142.45954545454543,130)" d="M2.7386127875258306,0A2.7386127875258306,2.7386127875258306,0,1,1,-2.7386127875258306,0A2.7386127875258306,2.7386127875258306,0,1,1,2.7386127875258306,0" stroke="#4c78a8" stroke-width="2" opacity="0.7"></path><path aria-label="Weighted percentage w/ COVID-like illness: 2.4682; States: Bahia" role="graphics-symbol" aria-roledescription="point" transform="translate(142.17,90)" d="M2.7386127875258306,0A2.7386127875258306,2.7386127875258306,0,1,1,-2.7386127875258306,0A2.7386127875258306,2.7386127875258306,0,1,1,2.7386127875258306,0" stroke="#4c78a8" stroke-width="2" opacity="0.7"></path><path aria-label="Weighted percentage w/ COVID-like illness: 2.4208; States: Sergipe" role="graphics-symbol" aria-roledescription="point" transform="translate(140.66181818181818,490)" d="M2.7386127875258306,0A2.7386127875258306,2.7386127875258306,0,1,1,-2.7386127875258306,0A2.7386127875258306,2.7386127875258306,0,1,1,2.7386127875258306,0" stroke="#4c78a8" stroke-width="2" opacity="0.7"></path><path aria-label="Weighted percentage w/ COVID-like illness: 2.2845; States: Pará" role="graphics-symbol" aria-roledescription="point" transform="translate(136.325,310)" d="M2.7386127875258306,0A2.7386127875258306,2.7386127875258306,0,1,1,-2.7386127875258306,0A2.7386127875258306,2.7386127875258306,0,1,1,2.7386127875258306,0" stroke="#4c78a8" stroke-width="2" opacity="0.7"></path><path aria-label="Weighted percentage w/ COVID-like illness: 2.0495; States: Ceará" role="graphics-symbol" aria-roledescription="point" transform="translate(128.84772727272727,110)" d="M2.7386127875258306,0A2.7386127875258306,2.7386127875258306,0,1,1,-2.7386127875258306,0A2.7386127875258306,2.7386127875258306,0,1,1,2.7386127875258306,0" stroke="#4c78a8" stroke-width="2" opacity="0.7"></path><path aria-label="Weighted percentage w/ COVID-like illness: 1.9384; States: Rondônia" role="graphics-symbol" aria-roledescription="point" transform="translate(125.31272727272726,430)" d="M2.7386127875258306,0A2.7386127875258306,2.7386127875258306,0,1,1,-2.7386127875258306,0A2.7386127875258306,2.7386127875258306,0,1,1,2.7386127875258306,0" stroke="#4c78a8" stroke-width="2" opacity="0.7"></path><path aria-label="Weighted percentage w/ COVID-like illness: 1.8181; States: Mato Grosso do Sul" role="graphics-symbol" aria-roledescription="point" transform="translate(121.48499999999999,230)" d="M2.7386127875258306,0A2.7386127875258306,2.7386127875258306,0,1,1,-2.7386127875258306,0A2.7386127875258306,2.7386127875258306,0,1,1,2.7386127875258306,0" stroke="#4c78a8" stroke-width="2" opacity="0.7"></path><path aria-label="Weighted percentage w/ COVID-like illness: 1.7834; States: Amapá" role="graphics-symbol" aria-roledescription="point" transform="translate(120.3809090909091,50)" d="M2.7386127875258306,0A2.7386127875258306,2.7386127875258306,0,1,1,-2.7386127875258306,0A2.7386127875258306,2.7386127875258306,0,1,1,2.7386127875258306,0" stroke="#4c78a8" stroke-width="2" opacity="0.7"></path><path aria-label="Weighted percentage w/ COVID-like illness: 1.6365; States: São Paulo" role="graphics-symbol" aria-roledescription="point" transform="translate(115.70681818181819,510)" d="M2.7386127875258306,0A2.7386127875258306,2.7386127875258306,0,1,1,-2.7386127875258306,0A2.7386127875258306,2.7386127875258306,0,1,1,2.7386127875258306,0" stroke="#4c78a8" stroke-width="2" opacity="0.7"></path><path aria-label="Weighted percentage w/ COVID-like illness: 1.5626; States: Maranhão" role="graphics-symbol" aria-roledescription="point" transform="translate(113.35545454545456,190)" d="M2.7386127875258306,0A2.7386127875258306,2.7386127875258306,0,1,1,-2.7386127875258306,0A2.7386127875258306,2.7386127875258306,0,1,1,2.7386127875258306,0" stroke="#4c78a8" stroke-width="2" opacity="0.7"></path><path aria-label="Weighted percentage w/ COVID-like illness: 1.5472; States: Rio de Janeiro" role="graphics-symbol" aria-roledescription="point" transform="translate(112.86545454545455,410)" d="M2.7386127875258306,0A2.7386127875258306,2.7386127875258306,0,1,1,-2.7386127875258306,0A2.7386127875258306,2.7386127875258306,0,1,1,2.7386127875258306,0" stroke="#4c78a8" stroke-width="2" opacity="0.7"></path><path aria-label="Weighted percentage w/ COVID-like illness: 1.5201; States: Santa Catarina" role="graphics-symbol" aria-roledescription="point" transform="translate(112.00318181818182,470)" d="M2.7386127875258306,0A2.7386127875258306,2.7386127875258306,0,1,1,-2.7386127875258306,0A2.7386127875258306,2.7386127875258306,0,1,1,2.7386127875258306,0" stroke="#4c78a8" stroke-width="2" opacity="0.7"></path><path aria-label="Weighted percentage w/ COVID-like illness: 1.4612; States: Alagoas" role="graphics-symbol" aria-roledescription="point" transform="translate(110.12909090909092,30)" d="M2.7386127875258306,0A2.7386127875258306,2.7386127875258306,0,1,1,-2.7386127875258306,0A2.7386127875258306,2.7386127875258306,0,1,1,2.7386127875258306,0" stroke="#4c78a8" stroke-width="2" opacity="0.7"></path><path aria-label="Weighted percentage w/ COVID-like illness: 1.2951; States: Rio Grande do Sul" role="graphics-symbol" aria-roledescription="point" transform="translate(104.84409090909091,390)" d="M2.7386127875258306,0A2.7386127875258306,2.7386127875258306,0,1,1,-2.7386127875258306,0A2.7386127875258306,2.7386127875258306,0,1,1,2.7386127875258306,0" stroke="#4c78a8" stroke-width="2" opacity="0.7"></path><path aria-label="Weighted percentage w/ COVID-like illness: 1.1522; States: Minas Gerais" role="graphics-symbol" aria-roledescription="point" transform="translate(100.29727272727273,250)" d="M2.7386127875258306,0A2.7386127875258306,2.7386127875258306,0,1,1,-2.7386127875258306,0A2.7386127875258306,2.7386127875258306,0,1,1,2.7386127875258306,0" stroke="#4c78a8" stroke-width="2" opacity="0.7"></path><path aria-label="Weighted percentage w/ COVID-like illness: 1.1409; States: Pernambuco" role="graphics-symbol" aria-roledescription="point" transform="translate(99.93772727272727,330)" d="M2.7386127875258306,0A2.7386127875258306,2.7386127875258306,0,1,1,-2.7386127875258306,0A2.7386127875258306,2.7386127875258306,0,1,1,2.7386127875258306,0" stroke="#4c78a8" stroke-width="2" opacity="0.7"></path><path aria-label="Weighted percentage w/ COVID-like illness: 0.9217; States: Paraná" role="graphics-symbol" aria-roledescription="point" transform="translate(92.96318181818182,270)" d="M2.7386127875258306,0A2.7386127875258306,2.7386127875258306,0,1,1,-2.7386127875258306,0A2.7386127875258306,2.7386127875258306,0,1,1,2.7386127875258306,0" stroke="#4c78a8" stroke-width="2" opacity="0.7"></path></g><g class="mark-rule role-mark layer_1_marks" role="graphics-object" aria-roledescription="rule mark container"><line aria-label="CI 0.95: 6.273848; upper_percent_cli_lower: 18.450152; region: Amazonas; percent_cli_upper: 18.450152; percent_cli_lower: 6.273848" role="graphics-symbol" aria-roledescription="errorbar" transform="translate(263.2588,70)" x2="387.4278545454544" y2="0" stroke="blue" stroke-width="0.6"></line><line aria-label="CI 0.95: 2.43104; upper_percent_cli_lower: 15.49836; region: Roraima; percent_cli_upper: 15.49836; percent_cli_lower: 2.43104" role="graphics-symbol" aria-roledescription="errorbar" transform="translate(140.9876363636364,450)" x2="415.77836363636345" y2="0" stroke="blue" stroke-width="0.6"></line><line aria-label="CI 0.95: 2.558752; upper_percent_cli_lower: 10.139248; region: Piauí; percent_cli_upper: 10.139248; percent_cli_lower: 2.558752" role="graphics-symbol" aria-roledescription="errorbar" transform="translate(145.0512,350)" x2="241.19760000000002" y2="0" stroke="blue" stroke-width="0.6"></line><line aria-label="CI 0.95: -1.905944; upper_percent_cli_lower: 10.770944; region: Tocantins; percent_cli_upper: 10.770944; percent_cli_lower: -1.905944" role="graphics-symbol" aria-roledescription="errorbar" transform="translate(2.992690909090921,530)" x2="403.3555272727273" y2="0" stroke="blue" stroke-width="0.6"></line><line aria-label="CI 0.95: 2.011108; upper_percent_cli_lower: 5.873092; region: Mato Grosso; percent_cli_upper: 5.873092; percent_cli_lower: 2.011108" role="graphics-symbol" aria-roledescription="errorbar" transform="translate(127.62616363636363,210)" x2="122.88130909090904" y2="0" stroke="blue" stroke-width="0.6"></line><line aria-label="CI 0.95: 1.2837; upper_percent_cli_lower: 5.8603; region: Paraíba; percent_cli_upper: 5.8603; percent_cli_lower: 1.2837" role="graphics-symbol" aria-roledescription="errorbar" transform="translate(104.48136363636365,290)" x2="145.61909090909091" y2="0" stroke="blue" stroke-width="0.6"></line><line aria-label="CI 0.95: -1.250092; upper_percent_cli_lower: 8.060692; region: Acre; percent_cli_upper: 8.060692; percent_cli_lower: -1.250092" role="graphics-symbol" aria-roledescription="errorbar" transform="translate(23.860709090909094,10)" x2="296.25221818181814" y2="0" stroke="blue" stroke-width="0.6"></line><line aria-label="CI 0.95: 1.410108; upper_percent_cli_lower: 4.987892; region: Espírito Santo; percent_cli_upper: 4.987892; percent_cli_lower: 1.410108" role="graphics-symbol" aria-roledescription="errorbar" transform="translate(108.50343636363638,150)" x2="113.83858181818181" y2="0" stroke="blue" stroke-width="0.6"></line><line aria-label="CI 0.95: 1.419308; upper_percent_cli_lower: 4.389492; region: Goiás; percent_cli_upper: 4.389492; percent_cli_lower: 1.419308" role="graphics-symbol" aria-roledescription="errorbar" transform="translate(108.79616363636363,170)" x2="94.50585454545454" y2="0" stroke="blue" stroke-width="0.6"></line><line aria-label="CI 0.95: 0.562472; upper_percent_cli_lower: 4.460128; region: Rio Grande do Norte; percent_cli_upper: 4.460128; percent_cli_lower: 0.562472" role="graphics-symbol" aria-roledescription="errorbar" transform="translate(81.53320000000001,370)" x2="124.01632727272725" y2="0" stroke="blue" stroke-width="0.6"></line><line aria-label="CI 0.95: 1.3111; upper_percent_cli_lower: 3.6435; region: Distrito Federal; percent_cli_upper: 3.6435; percent_cli_lower: 1.3111" role="graphics-symbol" aria-roledescription="errorbar" transform="translate(105.35318181818181,130)" x2="74.2127272727273" y2="0" stroke="blue" stroke-width="0.6"></line><line aria-label="CI 0.95: 0.889616; upper_percent_cli_lower: 4.046784; region: Bahia; percent_cli_upper: 4.046784; percent_cli_lower: 0.889616" role="graphics-symbol" aria-roledescription="errorbar" transform="translate(91.94232727272728,90)" x2="100.45534545454541" y2="0" stroke="blue" stroke-width="0.6"></line><line aria-label="CI 0.95: 0.057628; upper_percent_cli_lower: 4.783972; region: Sergipe; percent_cli_upper: 4.783972; percent_cli_lower: 0.057628" role="graphics-symbol" aria-roledescription="errorbar" transform="translate(65.46998181818182,490)" x2="150.38367272727274" y2="0" stroke="blue" stroke-width="0.6"></line><line aria-label="CI 0.95: 0.488552; upper_percent_cli_lower: 4.080448; region: Pará; percent_cli_upper: 4.080448; percent_cli_lower: 0.488552" role="graphics-symbol" aria-roledescription="errorbar" transform="translate(79.1812,310)" x2="114.28760000000001" y2="0" stroke="blue" stroke-width="0.6"></line><line aria-label="CI 0.95: 0.479344; upper_percent_cli_lower: 3.619656; region: Ceará; percent_cli_upper: 3.619656; percent_cli_lower: 0.479344" role="graphics-symbol" aria-roledescription="errorbar" transform="translate(78.88821818181817,110)" x2="99.9190181818182" y2="0" stroke="blue" stroke-width="0.6"></line><line aria-label="CI 0.95: -0.374204; upper_percent_cli_lower: 4.251004; region: Rondônia; percent_cli_upper: 4.251004; percent_cli_lower: -0.374204" role="graphics-symbol" aria-roledescription="errorbar" transform="translate(51.72987272727273,430)" x2="147.1657090909091" y2="0" stroke="blue" stroke-width="0.6"></line><line aria-label="CI 0.95: 0.379656; upper_percent_cli_lower: 3.256544; region: Mato Grosso do Sul; percent_cli_upper: 3.256544; percent_cli_lower: 0.379656" role="graphics-symbol" aria-roledescription="errorbar" transform="translate(75.71632727272727,230)" x2="91.53734545454545" y2="0" stroke="blue" stroke-width="0.6"></line><line aria-label="CI 0.95: -1.226572; upper_percent_cli_lower: 4.793372; region: Amapá; percent_cli_upper: 4.793372; percent_cli_lower: -1.226572" role="graphics-symbol" aria-roledescription="errorbar" transform="translate(24.60907272727273,50)" x2="191.54367272727274" y2="0" stroke="blue" stroke-width="0.6"></line><line aria-label="CI 0.95: 1.063396; upper_percent_cli_lower: 2.209604; region: São Paulo; percent_cli_upper: 2.209604; percent_cli_lower: 1.063396" role="graphics-symbol" aria-roledescription="errorbar" transform="translate(97.4716909090909,510)" x2="36.47025454545458" y2="0" stroke="blue" stroke-width="0.6"></line><line aria-label="CI 0.95: -0.09262; upper_percent_cli_lower: 3.21782; region: Maranhão; percent_cli_upper: 3.21782; percent_cli_lower: -0.09262" role="graphics-symbol" aria-roledescription="errorbar" transform="translate(60.68936363636364,190)" x2="105.33218181818184" y2="0" stroke="blue" stroke-width="0.6"></line><line aria-label="CI 0.95: 0.516632; upper_percent_cli_lower: 2.577768; region: Rio de Janeiro; percent_cli_upper: 2.577768; percent_cli_lower: 0.516632" role="graphics-symbol" aria-roledescription="errorbar" transform="translate(80.07465454545455,410)" x2="65.5816" y2="0" stroke="blue" stroke-width="0.6"></line><line aria-label="CI 0.95: 0.453468; upper_percent_cli_lower: 2.586732; region: Santa Catarina; percent_cli_upper: 2.586732; percent_cli_lower: 0.453468" role="graphics-symbol" aria-roledescription="errorbar" transform="translate(78.06489090909092,470)" x2="67.8765818181818" y2="0" stroke="blue" stroke-width="0.6"></line><line aria-label="CI 0.95: -0.690292; upper_percent_cli_lower: 3.612692; region: Alagoas; percent_cli_upper: 3.612692; percent_cli_lower: -0.690292" role="graphics-symbol" aria-roledescription="errorbar" transform="translate(41.67252727272728,30)" x2="136.91312727272728" y2="0" stroke="blue" stroke-width="0.6"></line><line aria-label="CI 0.95: 0.324312; upper_percent_cli_lower: 2.265888; region: Rio Grande do Sul; percent_cli_upper: 2.265888; percent_cli_lower: 0.324312" role="graphics-symbol" aria-roledescription="errorbar" transform="translate(73.95538181818182,390)" x2="61.777418181818206" y2="0" stroke="blue" stroke-width="0.6"></line><line aria-label="CI 0.95: -0.160216; upper_percent_cli_lower: 2.464616; region: Minas Gerais; percent_cli_upper: 2.464616; percent_cli_lower: -0.160216" role="graphics-symbol" aria-roledescription="errorbar" transform="translate(58.53858181818182,250)" x2="83.51738181818178" y2="0" stroke="blue" stroke-width="0.6"></line><line aria-label="CI 0.95: -0.053132; upper_percent_cli_lower: 2.334932; region: Pernambuco; percent_cli_upper: 2.334932; percent_cli_lower: -0.053132" role="graphics-symbol" aria-roledescription="errorbar" transform="translate(61.945800000000006,330)" x2="75.98385454545455" y2="0" stroke="blue" stroke-width="0.6"></line><line aria-label="CI 0.95: 0.070472; upper_percent_cli_lower: 1.772928; region: Paraná; percent_cli_upper: 1.772928; percent_cli_lower: 0.070472" role="graphics-symbol" aria-roledescription="errorbar" transform="translate(65.87865454545455,270)" x2="54.16905454545454" y2="0" stroke="blue" stroke-width="0.6"></line></g><g class="mark-group role-title"><g transform="translate(350,-17)"><path class="background" aria-hidden="true" d="M0,0h0v0h0Z" pointer-events="none"></path><g><g class="mark-text role-title-text" role="graphics-symbol" aria-roledescription="title" aria-label="Title text 'Facebook COVID-like illness symptom survey (last available date) for all states in Brazil'" pointer-events="none"><text text-anchor="middle" transform="translate(0,10)" font-family="sans-serif" font-size="13px" font-weight="bold" fill="#000" opacity="1">Facebook COVID-like illness symptom survey (last available date) for all states in Brazil</text></g></g><path class="foreground" aria-hidden="true" d="" pointer-events="none" display="none"></path></g></g></g><path class="foreground" aria-hidden="true" d="" display="none"></path></g></g></g></svg>