<svg class="marks" width="749" height="600" viewBox="0 0 749 600" version="1.1" xmlns="http://www.w3.org/2000/svg" xmlns:xlink="http://www.w3.org/1999/xlink"><rect width="749" height="600" fill="white"></rect><g fill="none" stroke-miterlimit="10" transform="translate(43,23)"><g class="mark-group role-frame root" role="graphics-object" aria-roledescription="group mark container"><g transform="translate(0,0)"><path class="background" aria-hidden="true" d="M0.5,0.5h700v540h-700Z"></path><g><g class="mark-group role-axis" aria-hidden="true"><g transform="translate(0.5,0.5)"><path class="background" aria-hidden="true" d="M0,0h0v0h0Z" pointer-events="none"></path><g><g class="mark-rule role-axis-grid" pointer-events="none"><line transform="translate(0,10)" x2="700" y2="0" stroke="#ddd" stroke-width="1" opacity="1"></line><line transform="translate(0,30)" x2="700" y2="0" stroke="#ddd" stroke-width="1" opacity="1"></line><line transform="translate(0,50)" x2="700" y2="0" stroke="#ddd" stroke-width="1" opacity="1"></line><line transform="translate(0,70)" x2="700" y2="0" stroke="#ddd" stroke-width="1" opacity="1"></line><line transform="translate(0,90)" x2="700" y2="0" stroke="#ddd" stroke-width="1" opacity="1"></line><line transform="translate(0,110)" x2="700" y2="0" stroke="#ddd" stroke-width="1" opacity="1"></line><line transform="translate(0,130)" x2="700" y2="0" stroke="#ddd" stroke-width="1" opacity="1"></line><line transform="translate(0,150)" x2="700" y2="0" stroke="#ddd" stroke-width="1" opacity="1"></line><line transform="translate(0,170)" x2="700" y2="0" stroke="#ddd" stroke-width="1" opacity="1"></line><line transform="translate(0,190)" x2="700" y2="0" stroke="#ddd" stroke-width="1" opacity="1"></line><line transform="translate(0,210)" x2="700" y2="0" stroke="#ddd" stroke-width="1" opacity="1"></line><line transform="translate(0,230)" x2="700" y2="0" stroke="#ddd" stroke-width="1" opacity="1"></line><line transform="translate(0,250)" x2="700" y2="0" stroke="#ddd" stroke-width="1" opacity="1"></line><line transform="translate(0,270)" x2="700" y2="0" stroke="#ddd" stroke-width="1" opacity="1"></line><line transform="translate(0,290)" x2="700" y2="0" stroke="#ddd" stroke-width="1" opacity="1"></line><line transform="translate(0,310)" x2="700" y2="0" stroke="#ddd" stroke-width="1" opacity="1"></line><line transform="translate(0,330)" x2="700" y2="0" stroke="#ddd" stroke-width="1" opacity="1"></line><line transform="translate(0,350)" x2="700" y2="0" stroke="#ddd" stroke-width="1" opacity="1"></line><line transform="translate(0,370)" x2="700" y2="0" stroke="#ddd" stroke-width="1" opacity="1"></line><line transform="translate(0,390)" x2="700" y2="0" stroke="#ddd" stroke-width="1" opacity="1"></line><line transform="translate(0,410)" x2="700" y2="0" stroke="#ddd" stroke-width="1" opacity="1"></line><line transform="translate(0,430)" x2="700" y2="0" stroke="#ddd" stroke-width="1" opacity="1"></line><line transform="translate(0,450)" x2="700" y2="0" stroke="#ddd" stroke-width="1" opacity="1"></line><line transform="translate(0,470)" x2="700" y2="0" stroke="#ddd" stroke-width="1" opacity="1"></line><line transform="translate(0,490)" x2="700" y2="0" stroke="#ddd" stroke-width="1" opacity="1"></line><line transform="translate(0,510)" x2="700" y2="0" stroke="#ddd" stroke-width="1" opacity="1"></line><line transform="translate(0,530)" x2="700" y2="0" stroke="#ddd" stroke-width="1" opacity="1"></line></g></g><path class="foreground" aria-hidden="true" d="" pointer-events="none" display="none"></path></g></g><g class="mark-group role-axis" role="graphics-symbol" aria-roledescription="axis" aria-label="X-axis titled 'Instantaneous reproduction number R(t), CI 0.975' for a linear scale with values from 0.5 to 1.3"><g transform="translate(0.5,540.5)"><path class="background" aria-hidden="true" d="M0,0h0v0h0Z" pointer-events="none"></path><g><g class="mark-rule role-axis-tick" pointer-events="none"><line transform="translate(0,0)" x2="0" y2="5" stroke="#888" stroke-width="1" opacity="1"></line><line transform="translate(44,0)" x2="0" y2="5" stroke="#888" stroke-width="1" opacity="1"></line><line transform="translate(87,0)" x2="0" y2="5" stroke="#888" stroke-width="1" opacity="1"></line><line transform="translate(131,0)" x2="0" y2="5" stroke="#888" stroke-width="1" opacity="1"></line><line transform="translate(175,0)" x2="0" y2="5" stroke="#888" stroke-width="1" opacity="1"></line><line transform="translate(219,0)" x2="0" y2="5" stroke="#888" stroke-width="1" opacity="1"></line><line transform="translate(263,0)" x2="0" y2="5" stroke="#888" stroke-width="1" opacity="1"></line><line transform="translate(306,0)" x2="0" y2="5" stroke="#888" stroke-width="1" opacity="1"></line><line transform="translate(350,0)" x2="0" y2="5" stroke="#888" stroke-width="1" opacity="1"></line><line transform="translate(394,0)" x2="0" y2="5" stroke="#888" stroke-width="1" opacity="1"></line><line transform="translate(438,0)" x2="0" y2="5" stroke="#888" stroke-width="1" opacity="1"></line><line transform="translate(481,0)" x2="0" y2="5" stroke="#888" stroke-width="1" opacity="1"></line><line transform="translate(525,0)" x2="0" y2="5" stroke="#888" stroke-width="1" opacity="1"></line><line transform="translate(569,0)" x2="0" y2="5" stroke="#888" stroke-width="1" opacity="1"></line><line transform="translate(612,0)" x2="0" y2="5" stroke="#888" stroke-width="1" opacity="1"></line><line transform="translate(656,0)" x2="0" y2="5" stroke="#888" stroke-width="1" opacity="1"></line><line transform="translate(700,0)" x2="0" y2="5" stroke="#888" stroke-width="1" opacity="1"></line></g><g class="mark-text role-axis-label" pointer-events="none"><text text-anchor="start" transform="translate(0,15)" font-family="sans-serif" font-size="10px" fill="#000" opacity="1">0.50</text><text text-anchor="middle" transform="translate(43.750000000000036,15)" font-family="sans-serif" font-size="10px" fill="#000" opacity="0">0.55</text><text text-anchor="middle" transform="translate(87.49999999999999,15)" font-family="sans-serif" font-size="10px" fill="#000" opacity="1">0.60</text><text text-anchor="middle" transform="translate(131.25000000000003,15)" font-family="sans-serif" font-size="10px" fill="#000" opacity="0">0.65</text><text text-anchor="middle" transform="translate(174.99999999999997,15)" font-family="sans-serif" font-size="10px" fill="#000" opacity="1">0.70</text><text text-anchor="middle" transform="translate(218.75,15)" font-family="sans-serif" font-size="10px" fill="#000" opacity="0">0.75</text><text text-anchor="middle" transform="translate(262.50000000000006,15)" font-family="sans-serif" font-size="10px" fill="#000" opacity="1">0.80</text><text text-anchor="middle" transform="translate(306.24999999999994,15)" font-family="sans-serif" font-size="10px" fill="#000" opacity="0">0.85</text><text text-anchor="middle" transform="translate(350,15)" font-family="sans-serif" font-size="10px" fill="#000" opacity="1">0.90</text><text text-anchor="middle" transform="translate(393.74999999999994,15)" font-family="sans-serif" font-size="10px" fill="#000" opacity="0">0.95</text><text text-anchor="middle" transform="translate(437.5,15)" font-family="sans-serif" font-size="10px" fill="#000" opacity="1">1.00</text><text text-anchor="middle" transform="translate(481.25,15)" font-family="sans-serif" font-size="10px" fill="#000" opacity="0">1.05</text><text text-anchor="middle" transform="translate(525.0000000000001,15)" font-family="sans-serif" font-size="10px" fill="#000" opacity="1">1.10</text><text text-anchor="middle" transform="translate(568.7499999999999,15)" font-family="sans-serif" font-size="10px" fill="#000" opacity="0">1.15</text><text text-anchor="middle" transform="translate(612.4999999999999,15)" font-family="sans-serif" font-size="10px" fill="#000" opacity="1">1.20</text><text text-anchor="middle" transform="translate(656.25,15)" font-family="sans-serif" font-size="10px" fill="#000" opacity="0">1.25</text><text text-anchor="end" transform="translate(700,15)" font-family="sans-serif" font-size="10px" fill="#000" opacity="1">1.30</text></g><g class="mark-rule role-axis-domain" pointer-events="none"><line transform="translate(0,0)" x2="700" y2="0" stroke="#888" stroke-width="1" opacity="1"></line></g><g class="mark-text role-axis-title" pointer-events="none"><text text-anchor="middle" transform="translate(350,30)" font-family="sans-serif" font-size="11px" font-weight="bold" fill="#000" opacity="1">Instantaneous reproduction number R(t), CI 0.975</text></g></g><path class="foreground" aria-hidden="true" d="" pointer-events="none" display="none"></path></g></g><g class="mark-group role-axis" role="graphics-symbol" aria-roledescription="axis" aria-label="Y-axis titled 'States' for a discrete scale with 27 values: AC, AL, AM, AP, BA, ending with TO"><g transform="translate(0.5,0.5)"><path class="background" aria-hidden="true" d="M0,0h0v0h0Z" pointer-events="none"></path><g><g class="mark-rule role-axis-tick" pointer-events="none"><line transform="translate(0,10)" x2="-5" y2="0" stroke="#888" stroke-width="1" opacity="1"></line><line transform="translate(0,30)" x2="-5" y2="0" stroke="#888" stroke-width="1" opacity="1"></line><line transform="translate(0,50)" x2="-5" y2="0" stroke="#888" stroke-width="1" opacity="1"></line><line transform="translate(0,70)" x2="-5" y2="0" stroke="#888" stroke-width="1" opacity="1"></line><line transform="translate(0,90)" x2="-5" y2="0" stroke="#888" stroke-width="1" opacity="1"></line><line transform="translate(0,110)" x2="-5" y2="0" stroke="#888" stroke-width="1" opacity="1"></line><line transform="translate(0,130)" x2="-5" y2="0" stroke="#888" stroke-width="1" opacity="1"></line><line transform="translate(0,150)" x2="-5" y2="0" stroke="#888" stroke-width="1" opacity="1"></line><line transform="translate(0,170)" x2="-5" y2="0" stroke="#888" stroke-width="1" opacity="1"></line><line transform="translate(0,190)" x2="-5" y2="0" stroke="#888" stroke-width="1" opacity="1"></line><line transform="translate(0,210)" x2="-5" y2="0" stroke="#888" stroke-width="1" opacity="1"></line><line transform="translate(0,230)" x2="-5" y2="0" stroke="#888" stroke-width="1" opacity="1"></line><line transform="translate(0,250)" x2="-5" y2="0" stroke="#888" stroke-width="1" opacity="1"></line><line transform="translate(0,270)" x2="-5" y2="0" stroke="#888" stroke-width="1" opacity="1"></line><line transform="translate(0,290)" x2="-5" y2="0" stroke="#888" stroke-width="1" opacity="1"></line><line transform="translate(0,310)" x2="-5" y2="0" stroke="#888" stroke-width="1" opacity="1"></line><line transform="translate(0,330)" x2="-5" y2="0" stroke="#888" stroke-width="1" opacity="1"></line><line transform="translate(0,350)" x2="-5" y2="0" stroke="#888" stroke-width="1" opacity="1"></line><line transform="translate(0,370)" x2="-5" y2="0" stroke="#888" stroke-width="1" opacity="1"></line><line transform="translate(0,390)" x2="-5" y2="0" stroke="#888" stroke-width="1" opacity="1"></line><line transform="translate(0,410)" x2="-5" y2="0" stroke="#888" stroke-width="1" opacity="1"></line><line transform="translate(0,430)" x2="-5" y2="0" stroke="#888" stroke-width="1" opacity="1"></line><line transform="translate(0,450)" x2="-5" y2="0" stroke="#888" stroke-width="1" opacity="1"></line><line transform="translate(0,470)" x2="-5" y2="0" stroke="#888" stroke-width="1" opacity="1"></line><line transform="translate(0,490)" x2="-5" y2="0" stroke="#888" stroke-width="1" opacity="1"></line><line transform="translate(0,510)" x2="-5" y2="0" stroke="#888" stroke-width="1" opacity="1"></line><line transform="translate(0,530)" x2="-5" y2="0" stroke="#888" stroke-width="1" opacity="1"></line></g><g class="mark-text role-axis-label" pointer-events="none"><text text-anchor="end" transform="translate(-7,12.5)" font-family="sans-serif" font-size="10px" fill="#000" opacity="1">AC</text><text text-anchor="end" transform="translate(-7,32.5)" font-family="sans-serif" font-size="10px" fill="#000" opacity="1">AL</text><text text-anchor="end" transform="translate(-7,52.5)" font-family="sans-serif" font-size="10px" fill="#000" opacity="1">AM</text><text text-anchor="end" transform="translate(-7,72.5)" font-family="sans-serif" font-size="10px" fill="#000" opacity="1">AP</text><text text-anchor="end" transform="translate(-7,92.5)" font-family="sans-serif" font-size="10px" fill="#000" opacity="1">BA</text><text text-anchor="end" transform="translate(-7,112.5)" font-family="sans-serif" font-size="10px" fill="#000" opacity="1">CE</text><text text-anchor="end" transform="translate(-7,132.5)" font-family="sans-serif" font-size="10px" fill="#000" opacity="1">DF</text><text text-anchor="end" transform="translate(-7,152.5)" font-family="sans-serif" font-size="10px" fill="#000" opacity="1">ES</text><text text-anchor="end" transform="translate(-7,172.5)" font-family="sans-serif" font-size="10px" fill="#000" opacity="1">GO</text><text text-anchor="end" transform="translate(-7,192.5)" font-family="sans-serif" font-size="10px" fill="#000" opacity="1">MA</text><text text-anchor="end" transform="translate(-7,212.5)" font-family="sans-serif" font-size="10px" fill="#000" opacity="1">MG</text><text text-anchor="end" transform="translate(-7,232.5)" font-family="sans-serif" font-size="10px" fill="#000" opacity="1">MS</text><text text-anchor="end" transform="translate(-7,252.5)" font-family="sans-serif" font-size="10px" fill="#000" opacity="1">MT</text><text text-anchor="end" transform="translate(-7,272.5)" font-family="sans-serif" font-size="10px" fill="#000" opacity="1">PA</text><text text-anchor="end" transform="translate(-7,292.5)" font-family="sans-serif" font-size="10px" fill="#000" opacity="1">PB</text><text text-anchor="end" transform="translate(-7,312.5)" font-family="sans-serif" font-size="10px" fill="#000" opacity="1">PE</text><text text-anchor="end" transform="translate(-7,332.5)" font-family="sans-serif" font-size="10px" fill="#000" opacity="1">PI</text><text text-anchor="end" transform="translate(-7,352.5)" font-family="sans-serif" font-size="10px" fill="#000" opacity="1">PR</text><text text-anchor="end" transform="translate(-7,372.5)" font-family="sans-serif" font-size="10px" fill="#000" opacity="1">RJ</text><text text-anchor="end" transform="translate(-7,392.5)" font-family="sans-serif" font-size="10px" fill="#000" opacity="1">RN</text><text text-anchor="end" transform="translate(-7,412.5)" font-family="sans-serif" font-size="10px" fill="#000" opacity="1">RO</text><text text-anchor="end" transform="translate(-7,432.5)" font-family="sans-serif" font-size="10px" fill="#000" opacity="1">RR</text><text text-anchor="end" transform="translate(-7,452.5)" font-family="sans-serif" font-size="10px" fill="#000" opacity="1">RS</text><text text-anchor="end" transform="translate(-7,472.5)" font-family="sans-serif" font-size="10px" fill="#000" opacity="1">SC</text><text text-anchor="end" transform="translate(-7,492.5)" font-family="sans-serif" font-size="10px" fill="#000" opacity="1">SE</text><text text-anchor="end" transform="translate(-7,512.5)" font-family="sans-serif" font-size="10px" fill="#000" opacity="1">SP</text><text text-anchor="end" transform="translate(-7,532.5)" font-family="sans-serif" font-size="10px" fill="#000" opacity="1">TO</text></g><g class="mark-rule role-axis-domain" pointer-events="none"><line transform="translate(0,0)" x2="0" y2="540" stroke="#888" stroke-width="1" opacity="1"></line></g><g class="mark-text role-axis-title" pointer-events="none"><text text-anchor="middle" transform="translate(-27,270) rotate(-90) translate(0,-2)" font-family="sans-serif" font-size="11px" font-weight="bold" fill="#000" opacity="1">States</text></g></g><path class="foreground" aria-hidden="true" d="" pointer-events="none" display="none"></path></g></g><g class="mark-symbol role-mark layer_0_marks" role="graphics-object" aria-roledescription="symbol mark container"><path aria-label="Instantaneous reproduction number R(t): 0.631680535771; States: AL" role="graphics-symbol" aria-roledescription="point" transform="translate(115.22046879973159,30)" d="M2.7386127875258306,0A2.7386127875258306,2.7386127875258306,0,1,1,-2.7386127875258306,0A2.7386127875258306,2.7386127875258306,0,1,1,2.7386127875258306,0" stroke="#4c78a8" stroke-width="2" opacity="0.7"></path><path aria-label="Instantaneous reproduction number R(t): 0.70490420922; States: RO" role="graphics-symbol" aria-roledescription="point" transform="translate(179.29118306728168,410)" d="M2.7386127875258306,0A2.7386127875258306,2.7386127875258306,0,1,1,-2.7386127875258306,0A2.7386127875258306,2.7386127875258306,0,1,1,2.7386127875258306,0" stroke="#4c78a8" stroke-width="2" opacity="0.7"></path><path aria-label="Instantaneous reproduction number R(t): 0.862908828758; States: SP" role="graphics-symbol" aria-roledescription="point" transform="translate(317.54522516320657,510)" d="M2.7386127875258306,0A2.7386127875258306,2.7386127875258306,0,1,1,-2.7386127875258306,0A2.7386127875258306,2.7386127875258306,0,1,1,2.7386127875258306,0" stroke="#4c78a8" stroke-width="2" opacity="0.7"></path><path aria-label="Instantaneous reproduction number R(t): 0.8830352823; States: MA" role="graphics-symbol" aria-roledescription="point" transform="translate(335.1558720127462,190)" d="M2.7386127875258306,0A2.7386127875258306,2.7386127875258306,0,1,1,-2.7386127875258306,0A2.7386127875258306,2.7386127875258306,0,1,1,2.7386127875258306,0" stroke="#4c78a8" stroke-width="2" opacity="0.7"></path><path aria-label="Instantaneous reproduction number R(t): 0.883319963516; States: AP" role="graphics-symbol" aria-roledescription="point" transform="translate(335.40496807628466,70)" d="M2.7386127875258306,0A2.7386127875258306,2.7386127875258306,0,1,1,-2.7386127875258306,0A2.7386127875258306,2.7386127875258306,0,1,1,2.7386127875258306,0" stroke="#4c78a8" stroke-width="2" opacity="0.7"></path><path aria-label="Instantaneous reproduction number R(t): 0.894328479336; States: RS" role="graphics-symbol" aria-roledescription="point" transform="translate(345.03741941931435,450)" d="M2.7386127875258306,0A2.7386127875258306,2.7386127875258306,0,1,1,-2.7386127875258306,0A2.7386127875258306,2.7386127875258306,0,1,1,2.7386127875258306,0" stroke="#4c78a8" stroke-width="2" opacity="0.7"></path><path aria-label="Instantaneous reproduction number R(t): 0.897967728057; States: MT" role="graphics-symbol" aria-roledescription="point" transform="translate(348.22176205027296,250)" d="M2.7386127875258306,0A2.7386127875258306,2.7386127875258306,0,1,1,-2.7386127875258306,0A2.7386127875258306,2.7386127875258306,0,1,1,2.7386127875258306,0" stroke="#4c78a8" stroke-width="2" opacity="0.7"></path><path aria-label="Instantaneous reproduction number R(t): 0.912302894161; States: RR" role="graphics-symbol" aria-roledescription="point" transform="translate(360.7650323911116,430)" d="M2.7386127875258306,0A2.7386127875258306,2.7386127875258306,0,1,1,-2.7386127875258306,0A2.7386127875258306,2.7386127875258306,0,1,1,2.7386127875258306,0" stroke="#4c78a8" stroke-width="2" opacity="0.7"></path><path aria-label="Instantaneous reproduction number R(t): 0.924559944001; States: SC" role="graphics-symbol" aria-roledescription="point" transform="translate(371.4899510012911,470)" d="M2.7386127875258306,0A2.7386127875258306,2.7386127875258306,0,1,1,-2.7386127875258306,0A2.7386127875258306,2.7386127875258306,0,1,1,2.7386127875258306,0" stroke="#4c78a8" stroke-width="2" opacity="0.7"></path><path aria-label="Instantaneous reproduction number R(t): 0.925919413751; States: MS" role="graphics-symbol" aria-roledescription="point" transform="translate(372.67948703203,230)" d="M2.7386127875258306,0A2.7386127875258306,2.7386127875258306,0,1,1,-2.7386127875258306,0A2.7386127875258306,2.7386127875258306,0,1,1,2.7386127875258306,0" stroke="#4c78a8" stroke-width="2" opacity="0.7"></path><path aria-label="Instantaneous reproduction number R(t): 0.932759846711; States: TO" role="graphics-symbol" aria-roledescription="point" transform="translate(378.6648658723344,530)" d="M2.7386127875258306,0A2.7386127875258306,2.7386127875258306,0,1,1,-2.7386127875258306,0A2.7386127875258306,2.7386127875258306,0,1,1,2.7386127875258306,0" stroke="#4c78a8" stroke-width="2" opacity="0.7"></path><path aria-label="Instantaneous reproduction number R(t): 0.948777592988; States: PR" role="graphics-symbol" aria-roledescription="point" transform="translate(392.6803938648298,350)" d="M2.7386127875258306,0A2.7386127875258306,2.7386127875258306,0,1,1,-2.7386127875258306,0A2.7386127875258306,2.7386127875258306,0,1,1,2.7386127875258306,0" stroke="#4c78a8" stroke-width="2" opacity="0.7"></path><path aria-label="Instantaneous reproduction number R(t): 0.959819889657; States: CE" role="graphics-symbol" aria-roledescription="point" transform="translate(402.34240344962893,110)" d="M2.7386127875258306,0A2.7386127875258306,2.7386127875258306,0,1,1,-2.7386127875258306,0A2.7386127875258306,2.7386127875258306,0,1,1,2.7386127875258306,0" stroke="#4c78a8" stroke-width="2" opacity="0.7"></path><path aria-label="Instantaneous reproduction number R(t): 0.97420462582; States: GO" role="graphics-symbol" aria-roledescription="point" transform="translate(414.9290475924854,170)" d="M2.7386127875258306,0A2.7386127875258306,2.7386127875258306,0,1,1,-2.7386127875258306,0A2.7386127875258306,2.7386127875258306,0,1,1,2.7386127875258306,0" stroke="#4c78a8" stroke-width="2" opacity="0.7"></path><path aria-label="Instantaneous reproduction number R(t): 0.989245891188; States: SE" role="graphics-symbol" aria-roledescription="point" transform="translate(428.0901547898076,490)" d="M2.7386127875258306,0A2.7386127875258306,2.7386127875258306,0,1,1,-2.7386127875258306,0A2.7386127875258306,2.7386127875258306,0,1,1,2.7386127875258306,0" stroke="#4c78a8" stroke-width="2" opacity="0.7"></path><path aria-label="Instantaneous reproduction number R(t): 0.99138432212; States: BA" role="graphics-symbol" aria-roledescription="point" transform="translate(429.9612818547033,90)" d="M2.7386127875258306,0A2.7386127875258306,2.7386127875258306,0,1,1,-2.7386127875258306,0A2.7386127875258306,2.7386127875258306,0,1,1,2.7386127875258306,0" stroke="#4c78a8" stroke-width="2" opacity="0.7"></path><path aria-label="Instantaneous reproduction number R(t): 0.992111732805; States: PB" role="graphics-symbol" aria-roledescription="point" transform="translate(430.5977662039977,290)" d="M2.7386127875258306,0A2.7386127875258306,2.7386127875258306,0,1,1,-2.7386127875258306,0A2.7386127875258306,2.7386127875258306,0,1,1,2.7386127875258306,0" stroke="#4c78a8" stroke-width="2" opacity="0.7"></path><path aria-label="Instantaneous reproduction number R(t): 0.992338744274; States: PI" role="graphics-symbol" aria-roledescription="point" transform="translate(430.7964012394739,330)" d="M2.7386127875258306,0A2.7386127875258306,2.7386127875258306,0,1,1,-2.7386127875258306,0A2.7386127875258306,2.7386127875258306,0,1,1,2.7386127875258306,0" stroke="#4c78a8" stroke-width="2" opacity="0.7"></path><path aria-label="Instantaneous reproduction number R(t): 1.00671115994; States: PE" role="graphics-symbol" aria-roledescription="point" transform="translate(443.37226494466904,310)" d="M2.7386127875258306,0A2.7386127875258306,2.7386127875258306,0,1,1,-2.7386127875258306,0A2.7386127875258306,2.7386127875258306,0,1,1,2.7386127875258306,0" stroke="#4c78a8" stroke-width="2" opacity="0.7"></path><path aria-label="Instantaneous reproduction number R(t): 1.00793643932; States: AC" role="graphics-symbol" aria-roledescription="point" transform="translate(444.44438440179584,10)" d="M2.7386127875258306,0A2.7386127875258306,2.7386127875258306,0,1,1,-2.7386127875258306,0A2.7386127875258306,2.7386127875258306,0,1,1,2.7386127875258306,0" stroke="#4c78a8" stroke-width="2" opacity="0.7"></path><path aria-label="Instantaneous reproduction number R(t): 1.00908668386; States: ES" role="graphics-symbol" aria-roledescription="point" transform="translate(445.45084837436286,150)" d="M2.7386127875258306,0A2.7386127875258306,2.7386127875258306,0,1,1,-2.7386127875258306,0A2.7386127875258306,2.7386127875258306,0,1,1,2.7386127875258306,0" stroke="#4c78a8" stroke-width="2" opacity="0.7"></path><path aria-label="Instantaneous reproduction number R(t): 1.02312671313; States: RJ" role="graphics-symbol" aria-roledescription="point" transform="translate(457.7358739876294,370)" d="M2.7386127875258306,0A2.7386127875258306,2.7386127875258306,0,1,1,-2.7386127875258306,0A2.7386127875258306,2.7386127875258306,0,1,1,2.7386127875258306,0" stroke="#4c78a8" stroke-width="2" opacity="0.7"></path><path aria-label="Instantaneous reproduction number R(t): 1.02328627344; States: DF" role="graphics-symbol" aria-roledescription="point" transform="translate(457.87548925609605,130)" d="M2.7386127875258306,0A2.7386127875258306,2.7386127875258306,0,1,1,-2.7386127875258306,0A2.7386127875258306,2.7386127875258306,0,1,1,2.7386127875258306,0" stroke="#4c78a8" stroke-width="2" opacity="0.7"></path><path aria-label="Instantaneous reproduction number R(t): 1.02933030809; States: RN" role="graphics-symbol" aria-roledescription="point" transform="translate(463.1640195781563,390)" d="M2.7386127875258306,0A2.7386127875258306,2.7386127875258306,0,1,1,-2.7386127875258306,0A2.7386127875258306,2.7386127875258306,0,1,1,2.7386127875258306,0" stroke="#4c78a8" stroke-width="2" opacity="0.7"></path><path aria-label="Instantaneous reproduction number R(t): 1.03024802018; States: MG" role="graphics-symbol" aria-roledescription="point" transform="translate(463.9670176582627,210)" d="M2.7386127875258306,0A2.7386127875258306,2.7386127875258306,0,1,1,-2.7386127875258306,0A2.7386127875258306,2.7386127875258306,0,1,1,2.7386127875258306,0" stroke="#4c78a8" stroke-width="2" opacity="0.7"></path><path aria-label="Instantaneous reproduction number R(t): 1.11666449295; States: PA" role="graphics-symbol" aria-roledescription="point" transform="translate(539.581431330597,270)" d="M2.7386127875258306,0A2.7386127875258306,2.7386127875258306,0,1,1,-2.7386127875258306,0A2.7386127875258306,2.7386127875258306,0,1,1,2.7386127875258306,0" stroke="#4c78a8" stroke-width="2" opacity="0.7"></path><path aria-label="Instantaneous reproduction number R(t): 1.258049659; States: AM" role="graphics-symbol" aria-roledescription="point" transform="translate(663.2934516279056,50)" d="M2.7386127875258306,0A2.7386127875258306,2.7386127875258306,0,1,1,-2.7386127875258306,0A2.7386127875258306,2.7386127875258306,0,1,1,2.7386127875258306,0" stroke="#4c78a8" stroke-width="2" opacity="0.7"></path></g><g class="mark-rule role-mark layer_1_marks" role="graphics-object" aria-roledescription="rule mark container"><line aria-label="a: 1" role="graphics-symbol" aria-roledescription="rule mark" transform="translate(437.5,0)" x2="0" y2="540" stroke="black" stroke-width="0.2"></line><line aria-label="a: 1" role="graphics-symbol" aria-roledescription="rule mark" transform="translate(437.5,0)" x2="0" y2="540" stroke="black" stroke-width="0.2"></line><line aria-label="a: 1" role="graphics-symbol" aria-roledescription="rule mark" transform="translate(437.5,0)" x2="0" y2="540" stroke="black" stroke-width="0.2"></line><line aria-label="a: 1" role="graphics-symbol" aria-roledescription="rule mark" transform="translate(437.5,0)" x2="0" y2="540" stroke="black" stroke-width="0.2"></line><line aria-label="a: 1" role="graphics-symbol" aria-roledescription="rule mark" transform="translate(437.5,0)" x2="0" y2="540" stroke="black" stroke-width="0.2"></line><line aria-label="a: 1" role="graphics-symbol" aria-roledescription="rule mark" transform="translate(437.5,0)" x2="0" y2="540" stroke="black" stroke-width="0.2"></line><line aria-label="a: 1" role="graphics-symbol" aria-roledescription="rule mark" transform="translate(437.5,0)" x2="0" y2="540" stroke="black" stroke-width="0.2"></line><line aria-label="a: 1" role="graphics-symbol" aria-roledescription="rule mark" transform="translate(437.5,0)" x2="0" y2="540" stroke="black" stroke-width="0.2"></line><line aria-label="a: 1" role="graphics-symbol" aria-roledescription="rule mark" transform="translate(437.5,0)" x2="0" y2="540" stroke="black" stroke-width="0.2"></line><line aria-label="a: 1" role="graphics-symbol" aria-roledescription="rule mark" transform="translate(437.5,0)" x2="0" y2="540" stroke="black" stroke-width="0.2"></line><line aria-label="a: 1" role="graphics-symbol" aria-roledescription="rule mark" transform="translate(437.5,0)" x2="0" y2="540" stroke="black" stroke-width="0.2"></line><line aria-label="a: 1" role="graphics-symbol" aria-roledescription="rule mark" transform="translate(437.5,0)" x2="0" y2="540" stroke="black" stroke-width="0.2"></line><line aria-label="a: 1" role="graphics-symbol" aria-roledescription="rule mark" transform="translate(437.5,0)" x2="0" y2="540" stroke="black" stroke-width="0.2"></line><line aria-label="a: 1" role="graphics-symbol" aria-roledescription="rule mark" transform="translate(437.5,0)" x2="0" y2="540" stroke="black" stroke-width="0.2"></line><line aria-label="a: 1" role="graphics-symbol" aria-roledescription="rule mark" transform="translate(437.5,0)" x2="0" y2="540" stroke="black" stroke-width="0.2"></line><line aria-label="a: 1" role="graphics-symbol" aria-roledescription="rule mark" transform="translate(437.5,0)" x2="0" y2="540" stroke="black" stroke-width="0.2"></line><line aria-label="a: 1" role="graphics-symbol" aria-roledescription="rule mark" transform="translate(437.5,0)" x2="0" y2="540" stroke="black" stroke-width="0.2"></line><line aria-label="a: 1" role="graphics-symbol" aria-roledescription="rule mark" transform="translate(437.5,0)" x2="0" y2="540" stroke="black" stroke-width="0.2"></line><line aria-label="a: 1" role="graphics-symbol" aria-roledescription="rule mark" transform="translate(437.5,0)" x2="0" y2="540" stroke="black" stroke-width="0.2"></line><line aria-label="a: 1" role="graphics-symbol" aria-roledescription="rule mark" transform="translate(437.5,0)" x2="0" y2="540" stroke="black" stroke-width="0.2"></line><line aria-label="a: 1" role="graphics-symbol" aria-roledescription="rule mark" transform="translate(437.5,0)" x2="0" y2="540" stroke="black" stroke-width="0.2"></line><line aria-label="a: 1" role="graphics-symbol" aria-roledescription="rule mark" transform="translate(437.5,0)" x2="0" y2="540" stroke="black" stroke-width="0.2"></line><line aria-label="a: 1" role="graphics-symbol" aria-roledescription="rule mark" transform="translate(437.5,0)" x2="0" y2="540" stroke="black" stroke-width="0.2"></line><line aria-label="a: 1" role="graphics-symbol" aria-roledescription="rule mark" transform="translate(437.5,0)" x2="0" y2="540" stroke="black" stroke-width="0.2"></line><line aria-label="a: 1" role="graphics-symbol" aria-roledescription="rule mark" transform="translate(437.5,0)" x2="0" y2="540" stroke="black" stroke-width="0.2"></line><line aria-label="a: 1" role="graphics-symbol" aria-roledescription="rule mark" transform="translate(437.5,0)" x2="0" y2="540" stroke="black" stroke-width="0.2"></line><line aria-label="a: 1" role="graphics-symbol" aria-roledescription="rule mark" transform="translate(437.5,0)" x2="0" y2="540" stroke="black" stroke-width="0.2"></line></g><g class="mark-rule role-mark layer_2_marks" role="graphics-object" aria-roledescription="rule mark container"><line aria-label="CI 0.975: 0.55444808504; upper_Quantile.0.025(R): 0.710974871981; index: AL; Quantile.0.975(R): 0.710974871981; Quantile.0.025(R): 0.55444808504" role="graphics-symbol" aria-roledescription="errorbar" transform="translate(47.642074410163964,30)" x2="136.96093857361657" y2="0" stroke="blue" stroke-width="0.6"></line><line aria-label="CI 0.975: 0.660920595399; upper_Quantile.0.025(R): 0.753913132012; index: RO; Quantile.0.975(R): 0.753913132012; Quantile.0.025(R): 0.660920595399" role="graphics-symbol" aria-roledescription="errorbar" transform="translate(140.8055209741778,410)" x2="81.36846953650536" y2="0" stroke="blue" stroke-width="0.6"></line><line aria-label="CI 0.975: 0.828011635772; upper_Quantile.0.025(R): 0.90015274402; index: SP; Quantile.0.975(R): 0.90015274402; Quantile.0.025(R): 0.828011635772" role="graphics-symbol" aria-roledescription="errorbar" transform="translate(287.0101813007882,510)" x2="63.12346971686196" y2="0" stroke="blue" stroke-width="0.6"></line><line aria-label="CI 0.975: 0.84329412538; upper_Quantile.0.025(R): 0.922144939646; index: MA; Quantile.0.975(R): 0.922144939646; Quantile.0.025(R): 0.84329412538" role="graphics-symbol" aria-roledescription="errorbar" transform="translate(300.3823597072412,190)" x2="68.99446248330804" y2="0" stroke="blue" stroke-width="0.6"></line><line aria-label="CI 0.975: 0.821898048866; upper_Quantile.0.025(R): 0.946698563497; index: AP; Quantile.0.975(R): 0.946698563497; Quantile.0.025(R): 0.821898048866" role="graphics-symbol" aria-roledescription="errorbar" transform="translate(281.66079275756476,70)" x2="109.20045030268619" y2="0" stroke="blue" stroke-width="0.6"></line><line aria-label="CI 0.975: 0.831729468776; upper_Quantile.0.025(R): 0.953047715459; index: RS; Quantile.0.975(R): 0.953047715459; Quantile.0.025(R): 0.831729468776" role="graphics-symbol" aria-roledescription="errorbar" transform="translate(290.2632851789385,450)" x2="106.15346584796191" y2="0" stroke="blue" stroke-width="0.6"></line><line aria-label="CI 0.975: 0.86875861781; upper_Quantile.0.025(R): 0.928871587479; index: MT; Quantile.0.975(R): 0.928871587479; Quantile.0.025(R): 0.86875861781" role="graphics-symbol" aria-roledescription="errorbar" transform="translate(322.663790583324,250)" x2="52.59884846039091" y2="0" stroke="blue" stroke-width="0.6"></line><line aria-label="CI 0.975: 0.864091021868; upper_Quantile.0.025(R): 0.961421874966; index: RR; Quantile.0.975(R): 0.961421874966; Quantile.0.025(R): 0.864091021868" role="graphics-symbol" aria-roledescription="errorbar" transform="translate(318.579644134642,430)" x2="85.16449646082594" y2="0" stroke="blue" stroke-width="0.6"></line><line aria-label="CI 0.975: 0.886870449931; upper_Quantile.0.025(R): 0.957991852087; index: SC; Quantile.0.975(R): 0.957991852087; Quantile.0.025(R): 0.886870449931" role="graphics-symbol" aria-roledescription="errorbar" transform="translate(338.5116436898602,470)" x2="62.23122688639387" y2="0" stroke="blue" stroke-width="0.6"></line><line aria-label="CI 0.975: 0.890899005156; upper_Quantile.0.025(R): 0.96255669056; index: MS; Quantile.0.975(R): 0.96255669056; Quantile.0.025(R): 0.890899005156" role="graphics-symbol" aria-roledescription="errorbar" transform="translate(342.0366295110797,230)" x2="62.70047472909948" y2="0" stroke="blue" stroke-width="0.6"></line><line aria-label="CI 0.975: 0.895454288636; upper_Quantile.0.025(R): 0.971283364794; index: TO; Quantile.0.975(R): 0.971283364794; Quantile.0.025(R): 0.895454288636" role="graphics-symbol" aria-roledescription="errorbar" transform="translate(346.02250255689637,530)" x2="66.3504416378035" y2="0" stroke="blue" stroke-width="0.6"></line><line aria-label="CI 0.975: 0.923965421854; upper_Quantile.0.025(R): 0.97519376947; index: PR; Quantile.0.975(R): 0.97519376947; Quantile.0.025(R): 0.923965421854" role="graphics-symbol" aria-roledescription="errorbar" transform="translate(370.969744122123,350)" x2="44.8248041644905" y2="0" stroke="blue" stroke-width="0.6"></line><line aria-label="CI 0.975: 0.906922396544; upper_Quantile.0.025(R): 1.00885038653; index: CE; Quantile.0.975(R): 1.00885038653; Quantile.0.025(R): 0.906922396544" role="graphics-symbol" aria-roledescription="errorbar" transform="translate(356.05709697561,110)" x2="89.18699123650816" y2="0" stroke="blue" stroke-width="0.6"></line><line aria-label="CI 0.975: 0.951925979606; upper_Quantile.0.025(R): 1.00004989486; index: GO; Quantile.0.975(R): 1.00004989486; Quantile.0.025(R): 0.951925979606" role="graphics-symbol" aria-roledescription="errorbar" transform="translate(395.435232155256,170)" x2="42.108425849632226" y2="0" stroke="blue" stroke-width="0.6"></line><line aria-label="CI 0.975: 0.929718309989; upper_Quantile.0.025(R): 1.05118756342; index: SE; Quantile.0.975(R): 1.05118756342; Quantile.0.025(R): 0.929718309989" role="graphics-symbol" aria-roledescription="errorbar" transform="translate(376.0035212399803,490)" x2="106.28559675599615" y2="0" stroke="blue" stroke-width="0.6"></line><line aria-label="CI 0.975: 0.961180020632; upper_Quantile.0.025(R): 1.02155240769; index: BA; Quantile.0.975(R): 1.02155240769; Quantile.0.025(R): 0.961180020632" role="graphics-symbol" aria-roledescription="errorbar" transform="translate(403.5325180532243,90)" x2="52.82583867598481" y2="0" stroke="blue" stroke-width="0.6"></line><line aria-label="CI 0.975: 0.951680257895; upper_Quantile.0.025(R): 1.0330101202; index: PB; Quantile.0.975(R): 1.0330101202; Quantile.0.025(R): 0.951680257895" role="graphics-symbol" aria-roledescription="errorbar" transform="translate(395.2202256581251,290)" x2="71.16362952048894" y2="0" stroke="blue" stroke-width="0.6"></line><line aria-label="CI 0.975: 0.961393842544; upper_Quantile.0.025(R): 1.02390330406; index: PI; Quantile.0.975(R): 1.02390330406; Quantile.0.025(R): 0.961393842544" role="graphics-symbol" aria-roledescription="errorbar" transform="translate(403.7196122257776,330)" x2="54.69577883039392" y2="0" stroke="blue" stroke-width="0.6"></line><line aria-label="CI 0.975: 0.947496404893; upper_Quantile.0.025(R): 1.06408430301; index: PE; Quantile.0.975(R): 1.06408430301; Quantile.0.025(R): 0.947496404893" role="graphics-symbol" aria-roledescription="errorbar" transform="translate(391.5593542813041,310)" x2="102.01441085314923" y2="0" stroke="blue" stroke-width="0.6"></line><line aria-label="CI 0.975: 0.936149009016; upper_Quantile.0.025(R): 1.08217752767; index: AC; Quantile.0.975(R): 1.08217752767; Quantile.0.025(R): 0.936149009016" role="graphics-symbol" aria-roledescription="errorbar" transform="translate(381.63038288926407,10)" x2="127.7749538179446" y2="0" stroke="blue" stroke-width="0.6"></line><line aria-label="CI 0.975: 0.977678632764; upper_Quantile.0.025(R): 1.04035295108; index: ES; Quantile.0.975(R): 1.04035295108; Quantile.0.025(R): 0.977678632764" role="graphics-symbol" aria-roledescription="errorbar" transform="translate(417.968803668803,150)" x2="54.84002852967404" y2="0" stroke="blue" stroke-width="0.6"></line><line aria-label="CI 0.975: 0.99953737858; upper_Quantile.0.025(R): 1.04672403837; index: RJ; Quantile.0.975(R): 1.04672403837; Quantile.0.025(R): 0.99953737858" role="graphics-symbol" aria-roledescription="errorbar" transform="translate(437.095206257411,370)" x2="41.28832731648066" y2="0" stroke="blue" stroke-width="0.6"></line><line aria-label="CI 0.975: 0.990360224817; upper_Quantile.0.025(R): 1.05744448954; index: DF; Quantile.0.975(R): 1.05744448954; Quantile.0.025(R): 0.990360224817" role="graphics-symbol" aria-roledescription="errorbar" transform="translate(429.06519671529213,130)" x2="58.698731636551884" y2="0" stroke="blue" stroke-width="0.6"></line><line aria-label="CI 0.975: 0.970200613034; upper_Quantile.0.025(R): 1.08798654963; index: RN; Quantile.0.975(R): 1.08798654963; Quantile.0.025(R): 0.970200613034" role="graphics-symbol" aria-roledescription="errorbar" transform="translate(411.4255364051127,390)" x2="103.06269452360056" y2="0" stroke="blue" stroke-width="0.6"></line><line aria-label="CI 0.975: 1.00759604434; upper_Quantile.0.025(R): 1.05541687671; index: MG; Quantile.0.975(R): 1.05541687671; Quantile.0.025(R): 1.00759604434" role="graphics-symbol" aria-roledescription="errorbar" transform="translate(444.14653879514583,210)" x2="41.84322832589265" y2="0" stroke="blue" stroke-width="0.6"></line><line aria-label="CI 0.975: 1.05303564084; upper_Quantile.0.025(R): 1.18935683776; index: PA; Quantile.0.975(R): 1.18935683776; Quantile.0.025(R): 1.05303564084" role="graphics-symbol" aria-roledescription="errorbar" transform="translate(483.9061857360796,270)" x2="119.28104730409939" y2="0" stroke="blue" stroke-width="0.6"></line><line aria-label="CI 0.975: 1.21509917143; upper_Quantile.0.025(R): 1.29754320179; index: AM; Quantile.0.975(R): 1.29754320179; Quantile.0.025(R): 1.21509917143" role="graphics-symbol" aria-roledescription="errorbar" transform="translate(625.7117750046827,50)" x2="72.13852655967503" y2="0" stroke="blue" stroke-width="0.6"></line></g><g class="mark-group role-title"><g transform="translate(350,-17.2)"><path class="background" aria-hidden="true" d="M0,0h0v0h0Z" pointer-events="none"></path><g><g class="mark-text role-title-text" role="graphics-symbol" aria-roledescription="title" aria-label="Title text 'Instantaneous reproduction number estimate for all states in Brazil'" pointer-events="none"><text text-anchor="middle" transform="translate(0,10)" font-family="sans-serif" font-size="13px" font-weight="bold" fill="#000" opacity="1">Instantaneous reproduction number estimate for all states in Brazil</text></g></g><path class="foreground" aria-hidden="true" d="" pointer-events="none" display="none"></path></g></g></g><path class="foreground" aria-hidden="true" d="" display="none"></path></g></g></g></svg>