<svg class="marks" width="749" height="600" viewBox="0 0 749 600" version="1.1" xmlns="http://www.w3.org/2000/svg" xmlns:xlink="http://www.w3.org/1999/xlink"><rect width="749" height="600" fill="white"></rect><g fill="none" stroke-miterlimit="10" transform="translate(43,23)"><g class="mark-group role-frame root" role="graphics-object" aria-roledescription="group mark container"><g transform="translate(0,0)"><path class="background" aria-hidden="true" d="M0.5,0.5h700v540h-700Z"></path><g><g class="mark-group role-axis" aria-hidden="true"><g transform="translate(0.5,0.5)"><path class="background" aria-hidden="true" d="M0,0h0v0h0Z" pointer-events="none"></path><g><g class="mark-rule role-axis-grid" pointer-events="none"><line transform="translate(0,10)" x2="700" y2="0" stroke="#ddd" stroke-width="1" opacity="1"></line><line transform="translate(0,30)" x2="700" y2="0" stroke="#ddd" stroke-width="1" opacity="1"></line><line transform="translate(0,50)" x2="700" y2="0" stroke="#ddd" stroke-width="1" opacity="1"></line><line transform="translate(0,70)" x2="700" y2="0" stroke="#ddd" stroke-width="1" opacity="1"></line><line transform="translate(0,90)" x2="700" y2="0" stroke="#ddd" stroke-width="1" opacity="1"></line><line transform="translate(0,110)" x2="700" y2="0" stroke="#ddd" stroke-width="1" opacity="1"></line><line transform="translate(0,130)" x2="700" y2="0" stroke="#ddd" stroke-width="1" opacity="1"></line><line transform="translate(0,150)" x2="700" y2="0" stroke="#ddd" stroke-width="1" opacity="1"></line><line transform="translate(0,170)" x2="700" y2="0" stroke="#ddd" stroke-width="1" opacity="1"></line><line transform="translate(0,190)" x2="700" y2="0" stroke="#ddd" stroke-width="1" opacity="1"></line><line transform="translate(0,210)" x2="700" y2="0" stroke="#ddd" stroke-width="1" opacity="1"></line><line transform="translate(0,230)" x2="700" y2="0" stroke="#ddd" stroke-width="1" opacity="1"></line><line transform="translate(0,250)" x2="700" y2="0" stroke="#ddd" stroke-width="1" opacity="1"></line><line transform="translate(0,270)" x2="700" y2="0" stroke="#ddd" stroke-width="1" opacity="1"></line><line transform="translate(0,290)" x2="700" y2="0" stroke="#ddd" stroke-width="1" opacity="1"></line><line transform="translate(0,310)" x2="700" y2="0" stroke="#ddd" stroke-width="1" opacity="1"></line><line transform="translate(0,330)" x2="700" y2="0" stroke="#ddd" stroke-width="1" opacity="1"></line><line transform="translate(0,350)" x2="700" y2="0" stroke="#ddd" stroke-width="1" opacity="1"></line><line transform="translate(0,370)" x2="700" y2="0" stroke="#ddd" stroke-width="1" opacity="1"></line><line transform="translate(0,390)" x2="700" y2="0" stroke="#ddd" stroke-width="1" opacity="1"></line><line transform="translate(0,410)" x2="700" y2="0" stroke="#ddd" stroke-width="1" opacity="1"></line><line transform="translate(0,430)" x2="700" y2="0" stroke="#ddd" stroke-width="1" opacity="1"></line><line transform="translate(0,450)" x2="700" y2="0" stroke="#ddd" stroke-width="1" opacity="1"></line><line transform="translate(0,470)" x2="700" y2="0" stroke="#ddd" stroke-width="1" opacity="1"></line><line transform="translate(0,490)" x2="700" y2="0" stroke="#ddd" stroke-width="1" opacity="1"></line><line transform="translate(0,510)" x2="700" y2="0" stroke="#ddd" stroke-width="1" opacity="1"></line><line transform="translate(0,530)" x2="700" y2="0" stroke="#ddd" stroke-width="1" opacity="1"></line></g></g><path class="foreground" aria-hidden="true" d="" pointer-events="none" display="none"></path></g></g><g class="mark-group role-axis" role="graphics-symbol" aria-roledescription="axis" aria-label="X-axis titled 'Instantaneous reproduction number R(t), CI 0.975' for a linear scale with values from 0.5 to 1.5"><g transform="translate(0.5,540.5)"><path class="background" aria-hidden="true" d="M0,0h0v0h0Z" pointer-events="none"></path><g><g class="mark-rule role-axis-tick" pointer-events="none"><line transform="translate(0,0)" x2="0" y2="5" stroke="#888" stroke-width="1" opacity="1"></line><line transform="translate(35,0)" x2="0" y2="5" stroke="#888" stroke-width="1" opacity="1"></line><line transform="translate(70,0)" x2="0" y2="5" stroke="#888" stroke-width="1" opacity="1"></line><line transform="translate(105,0)" x2="0" y2="5" stroke="#888" stroke-width="1" opacity="1"></line><line transform="translate(140,0)" x2="0" y2="5" stroke="#888" stroke-width="1" opacity="1"></line><line transform="translate(175,0)" x2="0" y2="5" stroke="#888" stroke-width="1" opacity="1"></line><line transform="translate(210,0)" x2="0" y2="5" stroke="#888" stroke-width="1" opacity="1"></line><line transform="translate(245,0)" x2="0" y2="5" stroke="#888" stroke-width="1" opacity="1"></line><line transform="translate(280,0)" x2="0" y2="5" stroke="#888" stroke-width="1" opacity="1"></line><line transform="translate(315,0)" x2="0" y2="5" stroke="#888" stroke-width="1" opacity="1"></line><line transform="translate(350,0)" x2="0" y2="5" stroke="#888" stroke-width="1" opacity="1"></line><line transform="translate(385,0)" x2="0" y2="5" stroke="#888" stroke-width="1" opacity="1"></line><line transform="translate(420,0)" x2="0" y2="5" stroke="#888" stroke-width="1" opacity="1"></line><line transform="translate(455,0)" x2="0" y2="5" stroke="#888" stroke-width="1" opacity="1"></line><line transform="translate(490,0)" x2="0" y2="5" stroke="#888" stroke-width="1" opacity="1"></line><line transform="translate(525,0)" x2="0" y2="5" stroke="#888" stroke-width="1" opacity="1"></line><line transform="translate(560,0)" x2="0" y2="5" stroke="#888" stroke-width="1" opacity="1"></line><line transform="translate(595,0)" x2="0" y2="5" stroke="#888" stroke-width="1" opacity="1"></line><line transform="translate(630,0)" x2="0" y2="5" stroke="#888" stroke-width="1" opacity="1"></line><line transform="translate(665,0)" x2="0" y2="5" stroke="#888" stroke-width="1" opacity="1"></line><line transform="translate(700,0)" x2="0" y2="5" stroke="#888" stroke-width="1" opacity="1"></line></g><g class="mark-text role-axis-label" pointer-events="none"><text text-anchor="start" transform="translate(0,15)" font-family="sans-serif" font-size="10px" fill="#000" opacity="1">0.50</text><text text-anchor="middle" transform="translate(35.00000000000003,15)" font-family="sans-serif" font-size="10px" fill="#000" opacity="1">0.55</text><text text-anchor="middle" transform="translate(69.99999999999999,15)" font-family="sans-serif" font-size="10px" fill="#000" opacity="1">0.60</text><text text-anchor="middle" transform="translate(105.00000000000001,15)" font-family="sans-serif" font-size="10px" fill="#000" opacity="1">0.65</text><text text-anchor="middle" transform="translate(139.99999999999997,15)" font-family="sans-serif" font-size="10px" fill="#000" opacity="1">0.70</text><text text-anchor="middle" transform="translate(175,15)" font-family="sans-serif" font-size="10px" fill="#000" opacity="1">0.75</text><text text-anchor="middle" transform="translate(210.00000000000003,15)" font-family="sans-serif" font-size="10px" fill="#000" opacity="1">0.80</text><text text-anchor="middle" transform="translate(244.99999999999997,15)" font-family="sans-serif" font-size="10px" fill="#000" opacity="1">0.85</text><text text-anchor="middle" transform="translate(280,15)" font-family="sans-serif" font-size="10px" fill="#000" opacity="1">0.90</text><text text-anchor="middle" transform="translate(314.99999999999994,15)" font-family="sans-serif" font-size="10px" fill="#000" opacity="1">0.95</text><text text-anchor="middle" transform="translate(350,15)" font-family="sans-serif" font-size="10px" fill="#000" opacity="1">1.00</text><text text-anchor="middle" transform="translate(385.00000000000006,15)" font-family="sans-serif" font-size="10px" fill="#000" opacity="1">1.05</text><text text-anchor="middle" transform="translate(420.00000000000006,15)" font-family="sans-serif" font-size="10px" fill="#000" opacity="1">1.10</text><text text-anchor="middle" transform="translate(454.99999999999994,15)" font-family="sans-serif" font-size="10px" fill="#000" opacity="1">1.15</text><text text-anchor="middle" transform="translate(489.99999999999994,15)" font-family="sans-serif" font-size="10px" fill="#000" opacity="1">1.20</text><text text-anchor="middle" transform="translate(525,15)" font-family="sans-serif" font-size="10px" fill="#000" opacity="1">1.25</text><text text-anchor="middle" transform="translate(560,15)" font-family="sans-serif" font-size="10px" fill="#000" opacity="1">1.30</text><text text-anchor="middle" transform="translate(595.0000000000001,15)" font-family="sans-serif" font-size="10px" fill="#000" opacity="1">1.35</text><text text-anchor="middle" transform="translate(629.9999999999999,15)" font-family="sans-serif" font-size="10px" fill="#000" opacity="1">1.40</text><text text-anchor="middle" transform="translate(665,15)" font-family="sans-serif" font-size="10px" fill="#000" opacity="1">1.45</text><text text-anchor="end" transform="translate(700,15)" font-family="sans-serif" font-size="10px" fill="#000" opacity="1">1.50</text></g><g class="mark-rule role-axis-domain" pointer-events="none"><line transform="translate(0,0)" x2="700" y2="0" stroke="#888" stroke-width="1" opacity="1"></line></g><g class="mark-text role-axis-title" pointer-events="none"><text text-anchor="middle" transform="translate(350,30)" font-family="sans-serif" font-size="11px" font-weight="bold" fill="#000" opacity="1">Instantaneous reproduction number R(t), CI 0.975</text></g></g><path class="foreground" aria-hidden="true" d="" pointer-events="none" display="none"></path></g></g><g class="mark-group role-axis" role="graphics-symbol" aria-roledescription="axis" aria-label="Y-axis titled 'States' for a discrete scale with 27 values: AC, AL, AM, AP, BA, ending with TO"><g transform="translate(0.5,0.5)"><path class="background" aria-hidden="true" d="M0,0h0v0h0Z" pointer-events="none"></path><g><g class="mark-rule role-axis-tick" pointer-events="none"><line transform="translate(0,10)" x2="-5" y2="0" stroke="#888" stroke-width="1" opacity="1"></line><line transform="translate(0,30)" x2="-5" y2="0" stroke="#888" stroke-width="1" opacity="1"></line><line transform="translate(0,50)" x2="-5" y2="0" stroke="#888" stroke-width="1" opacity="1"></line><line transform="translate(0,70)" x2="-5" y2="0" stroke="#888" stroke-width="1" opacity="1"></line><line transform="translate(0,90)" x2="-5" y2="0" stroke="#888" stroke-width="1" opacity="1"></line><line transform="translate(0,110)" x2="-5" y2="0" stroke="#888" stroke-width="1" opacity="1"></line><line transform="translate(0,130)" x2="-5" y2="0" stroke="#888" stroke-width="1" opacity="1"></line><line transform="translate(0,150)" x2="-5" y2="0" stroke="#888" stroke-width="1" opacity="1"></line><line transform="translate(0,170)" x2="-5" y2="0" stroke="#888" stroke-width="1" opacity="1"></line><line transform="translate(0,190)" x2="-5" y2="0" stroke="#888" stroke-width="1" opacity="1"></line><line transform="translate(0,210)" x2="-5" y2="0" stroke="#888" stroke-width="1" opacity="1"></line><line transform="translate(0,230)" x2="-5" y2="0" stroke="#888" stroke-width="1" opacity="1"></line><line transform="translate(0,250)" x2="-5" y2="0" stroke="#888" stroke-width="1" opacity="1"></line><line transform="translate(0,270)" x2="-5" y2="0" stroke="#888" stroke-width="1" opacity="1"></line><line transform="translate(0,290)" x2="-5" y2="0" stroke="#888" stroke-width="1" opacity="1"></line><line transform="translate(0,310)" x2="-5" y2="0" stroke="#888" stroke-width="1" opacity="1"></line><line transform="translate(0,330)" x2="-5" y2="0" stroke="#888" stroke-width="1" opacity="1"></line><line transform="translate(0,350)" x2="-5" y2="0" stroke="#888" stroke-width="1" opacity="1"></line><line transform="translate(0,370)" x2="-5" y2="0" stroke="#888" stroke-width="1" opacity="1"></line><line transform="translate(0,390)" x2="-5" y2="0" stroke="#888" stroke-width="1" opacity="1"></line><line transform="translate(0,410)" x2="-5" y2="0" stroke="#888" stroke-width="1" opacity="1"></line><line transform="translate(0,430)" x2="-5" y2="0" stroke="#888" stroke-width="1" opacity="1"></line><line transform="translate(0,450)" x2="-5" y2="0" stroke="#888" stroke-width="1" opacity="1"></line><line transform="translate(0,470)" x2="-5" y2="0" stroke="#888" stroke-width="1" opacity="1"></line><line transform="translate(0,490)" x2="-5" y2="0" stroke="#888" stroke-width="1" opacity="1"></line><line transform="translate(0,510)" x2="-5" y2="0" stroke="#888" stroke-width="1" opacity="1"></line><line transform="translate(0,530)" x2="-5" y2="0" stroke="#888" stroke-width="1" opacity="1"></line></g><g class="mark-text role-axis-label" pointer-events="none"><text text-anchor="end" transform="translate(-7,12.5)" font-family="sans-serif" font-size="10px" fill="#000" opacity="1">AC</text><text text-anchor="end" transform="translate(-7,32.5)" font-family="sans-serif" font-size="10px" fill="#000" opacity="1">AL</text><text text-anchor="end" transform="translate(-7,52.5)" font-family="sans-serif" font-size="10px" fill="#000" opacity="1">AM</text><text text-anchor="end" transform="translate(-7,72.5)" font-family="sans-serif" font-size="10px" fill="#000" opacity="1">AP</text><text text-anchor="end" transform="translate(-7,92.5)" font-family="sans-serif" font-size="10px" fill="#000" opacity="1">BA</text><text text-anchor="end" transform="translate(-7,112.5)" font-family="sans-serif" font-size="10px" fill="#000" opacity="1">CE</text><text text-anchor="end" transform="translate(-7,132.5)" font-family="sans-serif" font-size="10px" fill="#000" opacity="1">DF</text><text text-anchor="end" transform="translate(-7,152.5)" font-family="sans-serif" font-size="10px" fill="#000" opacity="1">ES</text><text text-anchor="end" transform="translate(-7,172.5)" font-family="sans-serif" font-size="10px" fill="#000" opacity="1">GO</text><text text-anchor="end" transform="translate(-7,192.5)" font-family="sans-serif" font-size="10px" fill="#000" opacity="1">MA</text><text text-anchor="end" transform="translate(-7,212.5)" font-family="sans-serif" font-size="10px" fill="#000" opacity="1">MG</text><text text-anchor="end" transform="translate(-7,232.5)" font-family="sans-serif" font-size="10px" fill="#000" opacity="1">MS</text><text text-anchor="end" transform="translate(-7,252.5)" font-family="sans-serif" font-size="10px" fill="#000" opacity="1">MT</text><text text-anchor="end" transform="translate(-7,272.5)" font-family="sans-serif" font-size="10px" fill="#000" opacity="1">PA</text><text text-anchor="end" transform="translate(-7,292.5)" font-family="sans-serif" font-size="10px" fill="#000" opacity="1">PB</text><text text-anchor="end" transform="translate(-7,312.5)" font-family="sans-serif" font-size="10px" fill="#000" opacity="1">PE</text><text text-anchor="end" transform="translate(-7,332.5)" font-family="sans-serif" font-size="10px" fill="#000" opacity="1">PI</text><text text-anchor="end" transform="translate(-7,352.5)" font-family="sans-serif" font-size="10px" fill="#000" opacity="1">PR</text><text text-anchor="end" transform="translate(-7,372.5)" font-family="sans-serif" font-size="10px" fill="#000" opacity="1">RJ</text><text text-anchor="end" transform="translate(-7,392.5)" font-family="sans-serif" font-size="10px" fill="#000" opacity="1">RN</text><text text-anchor="end" transform="translate(-7,412.5)" font-family="sans-serif" font-size="10px" fill="#000" opacity="1">RO</text><text text-anchor="end" transform="translate(-7,432.5)" font-family="sans-serif" font-size="10px" fill="#000" opacity="1">RR</text><text text-anchor="end" transform="translate(-7,452.5)" font-family="sans-serif" font-size="10px" fill="#000" opacity="1">RS</text><text text-anchor="end" transform="translate(-7,472.5)" font-family="sans-serif" font-size="10px" fill="#000" opacity="1">SC</text><text text-anchor="end" transform="translate(-7,492.5)" font-family="sans-serif" font-size="10px" fill="#000" opacity="1">SE</text><text text-anchor="end" transform="translate(-7,512.5)" font-family="sans-serif" font-size="10px" fill="#000" opacity="1">SP</text><text text-anchor="end" transform="translate(-7,532.5)" font-family="sans-serif" font-size="10px" fill="#000" opacity="1">TO</text></g><g class="mark-rule role-axis-domain" pointer-events="none"><line transform="translate(0,0)" x2="0" y2="540" stroke="#888" stroke-width="1" opacity="1"></line></g><g class="mark-text role-axis-title" pointer-events="none"><text text-anchor="middle" transform="translate(-27,270) rotate(-90) translate(0,-2)" font-family="sans-serif" font-size="11px" font-weight="bold" fill="#000" opacity="1">States</text></g></g><path class="foreground" aria-hidden="true" d="" pointer-events="none" display="none"></path></g></g><g class="mark-symbol role-mark layer_0_marks" role="graphics-object" aria-roledescription="symbol mark container"><path aria-label="Instantaneous reproduction number R(t): 0.608866288447; States: RN" role="graphics-symbol" aria-roledescription="point" transform="translate(76.20640191278667,390)" d="M2.7386127875258306,0A2.7386127875258306,2.7386127875258306,0,1,1,-2.7386127875258306,0A2.7386127875258306,2.7386127875258306,0,1,1,2.7386127875258306,0" stroke="#4c78a8" stroke-width="2" opacity="0.7"></path><path aria-label="Instantaneous reproduction number R(t): 0.722142245519; States: AP" role="graphics-symbol" aria-roledescription="point" transform="translate(155.49957186336798,70)" d="M2.7386127875258306,0A2.7386127875258306,2.7386127875258306,0,1,1,-2.7386127875258306,0A2.7386127875258306,2.7386127875258306,0,1,1,2.7386127875258306,0" stroke="#4c78a8" stroke-width="2" opacity="0.7"></path><path aria-label="Instantaneous reproduction number R(t): 0.863563128042; States: BA" role="graphics-symbol" aria-roledescription="point" transform="translate(254.49418962911042,90)" d="M2.7386127875258306,0A2.7386127875258306,2.7386127875258306,0,1,1,-2.7386127875258306,0A2.7386127875258306,2.7386127875258306,0,1,1,2.7386127875258306,0" stroke="#4c78a8" stroke-width="2" opacity="0.7"></path><path aria-label="Instantaneous reproduction number R(t): 0.874514053181; States: RO" role="graphics-symbol" aria-roledescription="point" transform="translate(262.15983722698456,410)" d="M2.7386127875258306,0A2.7386127875258306,2.7386127875258306,0,1,1,-2.7386127875258306,0A2.7386127875258306,2.7386127875258306,0,1,1,2.7386127875258306,0" stroke="#4c78a8" stroke-width="2" opacity="0.7"></path><path aria-label="Instantaneous reproduction number R(t): 0.880994482323; States: RR" role="graphics-symbol" aria-roledescription="point" transform="translate(266.6961376263786,430)" d="M2.7386127875258306,0A2.7386127875258306,2.7386127875258306,0,1,1,-2.7386127875258306,0A2.7386127875258306,2.7386127875258306,0,1,1,2.7386127875258306,0" stroke="#4c78a8" stroke-width="2" opacity="0.7"></path><path aria-label="Instantaneous reproduction number R(t): 0.920357418234; States: PA" role="graphics-symbol" aria-roledescription="point" transform="translate(294.2501927641321,270)" d="M2.7386127875258306,0A2.7386127875258306,2.7386127875258306,0,1,1,-2.7386127875258306,0A2.7386127875258306,2.7386127875258306,0,1,1,2.7386127875258306,0" stroke="#4c78a8" stroke-width="2" opacity="0.7"></path><path aria-label="Instantaneous reproduction number R(t): 0.965998898478; States: PB" role="graphics-symbol" aria-roledescription="point" transform="translate(326.19922893474774,290)" d="M2.7386127875258306,0A2.7386127875258306,2.7386127875258306,0,1,1,-2.7386127875258306,0A2.7386127875258306,2.7386127875258306,0,1,1,2.7386127875258306,0" stroke="#4c78a8" stroke-width="2" opacity="0.7"></path><path aria-label="Instantaneous reproduction number R(t): 0.988832981181; States: AL" role="graphics-symbol" aria-roledescription="point" transform="translate(342.18308682684597,30)" d="M2.7386127875258306,0A2.7386127875258306,2.7386127875258306,0,1,1,-2.7386127875258306,0A2.7386127875258306,2.7386127875258306,0,1,1,2.7386127875258306,0" stroke="#4c78a8" stroke-width="2" opacity="0.7"></path><path aria-label="Instantaneous reproduction number R(t): 0.990168071785; States: ES" role="graphics-symbol" aria-roledescription="point" transform="translate(343.117650249388,150)" d="M2.7386127875258306,0A2.7386127875258306,2.7386127875258306,0,1,1,-2.7386127875258306,0A2.7386127875258306,2.7386127875258306,0,1,1,2.7386127875258306,0" stroke="#4c78a8" stroke-width="2" opacity="0.7"></path><path aria-label="Instantaneous reproduction number R(t): 0.994509965602; States: RJ" role="graphics-symbol" aria-roledescription="point" transform="translate(346.1569759212257,370)" d="M2.7386127875258306,0A2.7386127875258306,2.7386127875258306,0,1,1,-2.7386127875258306,0A2.7386127875258306,2.7386127875258306,0,1,1,2.7386127875258306,0" stroke="#4c78a8" stroke-width="2" opacity="0.7"></path><path aria-label="Instantaneous reproduction number R(t): 1.02592679426; States: SP" role="graphics-symbol" aria-roledescription="point" transform="translate(368.14875598079874,510)" d="M2.7386127875258306,0A2.7386127875258306,2.7386127875258306,0,1,1,-2.7386127875258306,0A2.7386127875258306,2.7386127875258306,0,1,1,2.7386127875258306,0" stroke="#4c78a8" stroke-width="2" opacity="0.7"></path><path aria-label="Instantaneous reproduction number R(t): 1.04950902602; States: MG" role="graphics-symbol" aria-roledescription="point" transform="translate(384.65631821312553,210)" d="M2.7386127875258306,0A2.7386127875258306,2.7386127875258306,0,1,1,-2.7386127875258306,0A2.7386127875258306,2.7386127875258306,0,1,1,2.7386127875258306,0" stroke="#4c78a8" stroke-width="2" opacity="0.7"></path><path aria-label="Instantaneous reproduction number R(t): 1.05072963612; States: DF" role="graphics-symbol" aria-roledescription="point" transform="translate(385.51074528737723,130)" d="M2.7386127875258306,0A2.7386127875258306,2.7386127875258306,0,1,1,-2.7386127875258306,0A2.7386127875258306,2.7386127875258306,0,1,1,2.7386127875258306,0" stroke="#4c78a8" stroke-width="2" opacity="0.7"></path><path aria-label="Instantaneous reproduction number R(t): 1.06182061575; States: AC" role="graphics-symbol" aria-roledescription="point" transform="translate(393.27443102298395,10)" d="M2.7386127875258306,0A2.7386127875258306,2.7386127875258306,0,1,1,-2.7386127875258306,0A2.7386127875258306,2.7386127875258306,0,1,1,2.7386127875258306,0" stroke="#4c78a8" stroke-width="2" opacity="0.7"></path><path aria-label="Instantaneous reproduction number R(t): 1.06971382312; States: TO" role="graphics-symbol" aria-roledescription="point" transform="translate(398.79967618626887,530)" d="M2.7386127875258306,0A2.7386127875258306,2.7386127875258306,0,1,1,-2.7386127875258306,0A2.7386127875258306,2.7386127875258306,0,1,1,2.7386127875258306,0" stroke="#4c78a8" stroke-width="2" opacity="0.7"></path><path aria-label="Instantaneous reproduction number R(t): 1.06981214076; States: GO" role="graphics-symbol" aria-roledescription="point" transform="translate(398.8684985309803,170)" d="M2.7386127875258306,0A2.7386127875258306,2.7386127875258306,0,1,1,-2.7386127875258306,0A2.7386127875258306,2.7386127875258306,0,1,1,2.7386127875258306,0" stroke="#4c78a8" stroke-width="2" opacity="0.7"></path><path aria-label="Instantaneous reproduction number R(t): 1.08068151109; States: SE" role="graphics-symbol" aria-roledescription="point" transform="translate(406.477057762208,490)" d="M2.7386127875258306,0A2.7386127875258306,2.7386127875258306,0,1,1,-2.7386127875258306,0A2.7386127875258306,2.7386127875258306,0,1,1,2.7386127875258306,0" stroke="#4c78a8" stroke-width="2" opacity="0.7"></path><path aria-label="Instantaneous reproduction number R(t): 1.0934746618; States: RS" role="graphics-symbol" aria-roledescription="point" transform="translate(415.4322632604058,450)" d="M2.7386127875258306,0A2.7386127875258306,2.7386127875258306,0,1,1,-2.7386127875258306,0A2.7386127875258306,2.7386127875258306,0,1,1,2.7386127875258306,0" stroke="#4c78a8" stroke-width="2" opacity="0.7"></path><path aria-label="Instantaneous reproduction number R(t): 1.10789763819; States: MS" role="graphics-symbol" aria-roledescription="point" transform="translate(425.5283467305475,230)" d="M2.7386127875258306,0A2.7386127875258306,2.7386127875258306,0,1,1,-2.7386127875258306,0A2.7386127875258306,2.7386127875258306,0,1,1,2.7386127875258306,0" stroke="#4c78a8" stroke-width="2" opacity="0.7"></path><path aria-label="Instantaneous reproduction number R(t): 1.10992208527; States: MA" role="graphics-symbol" aria-roledescription="point" transform="translate(426.9454596875172,190)" d="M2.7386127875258306,0A2.7386127875258306,2.7386127875258306,0,1,1,-2.7386127875258306,0A2.7386127875258306,2.7386127875258306,0,1,1,2.7386127875258306,0" stroke="#4c78a8" stroke-width="2" opacity="0.7"></path><path aria-label="Instantaneous reproduction number R(t): 1.13975109286; States: PE" role="graphics-symbol" aria-roledescription="point" transform="translate(447.82576500537243,310)" d="M2.7386127875258306,0A2.7386127875258306,2.7386127875258306,0,1,1,-2.7386127875258306,0A2.7386127875258306,2.7386127875258306,0,1,1,2.7386127875258306,0" stroke="#4c78a8" stroke-width="2" opacity="0.7"></path><path aria-label="Instantaneous reproduction number R(t): 1.1484691144; States: PI" role="graphics-symbol" aria-roledescription="point" transform="translate(453.9283800772516,330)" d="M2.7386127875258306,0A2.7386127875258306,2.7386127875258306,0,1,1,-2.7386127875258306,0A2.7386127875258306,2.7386127875258306,0,1,1,2.7386127875258306,0" stroke="#4c78a8" stroke-width="2" opacity="0.7"></path><path aria-label="Instantaneous reproduction number R(t): 1.18016594589; States: CE" role="graphics-symbol" aria-roledescription="point" transform="translate(476.11616212545937,110)" d="M2.7386127875258306,0A2.7386127875258306,2.7386127875258306,0,1,1,-2.7386127875258306,0A2.7386127875258306,2.7386127875258306,0,1,1,2.7386127875258306,0" stroke="#4c78a8" stroke-width="2" opacity="0.7"></path><path aria-label="Instantaneous reproduction number R(t): 1.19246775178; States: MT" role="graphics-symbol" aria-roledescription="point" transform="translate(484.72742624358347,250)" d="M2.7386127875258306,0A2.7386127875258306,2.7386127875258306,0,1,1,-2.7386127875258306,0A2.7386127875258306,2.7386127875258306,0,1,1,2.7386127875258306,0" stroke="#4c78a8" stroke-width="2" opacity="0.7"></path><path aria-label="Instantaneous reproduction number R(t): 1.20948035873; States: SC" role="graphics-symbol" aria-roledescription="point" transform="translate(496.63625110879696,470)" d="M2.7386127875258306,0A2.7386127875258306,2.7386127875258306,0,1,1,-2.7386127875258306,0A2.7386127875258306,2.7386127875258306,0,1,1,2.7386127875258306,0" stroke="#4c78a8" stroke-width="2" opacity="0.7"></path><path aria-label="Instantaneous reproduction number R(t): 1.27801934147; States: PR" role="graphics-symbol" aria-roledescription="point" transform="translate(544.6135390263024,350)" d="M2.7386127875258306,0A2.7386127875258306,2.7386127875258306,0,1,1,-2.7386127875258306,0A2.7386127875258306,2.7386127875258306,0,1,1,2.7386127875258306,0" stroke="#4c78a8" stroke-width="2" opacity="0.7"></path><path aria-label="Instantaneous reproduction number R(t): 1.31539356247; States: AM" role="graphics-symbol" aria-roledescription="point" transform="translate(570.7754937292931,50)" d="M2.7386127875258306,0A2.7386127875258306,2.7386127875258306,0,1,1,-2.7386127875258306,0A2.7386127875258306,2.7386127875258306,0,1,1,2.7386127875258306,0" stroke="#4c78a8" stroke-width="2" opacity="0.7"></path></g><g class="mark-rule role-mark layer_1_marks" role="graphics-object" aria-roledescription="rule mark container"><line aria-label="a: 1" role="graphics-symbol" aria-roledescription="rule mark" transform="translate(350,0)" x2="0" y2="540" stroke="black" stroke-width="0.2"></line><line aria-label="a: 1" role="graphics-symbol" aria-roledescription="rule mark" transform="translate(350,0)" x2="0" y2="540" stroke="black" stroke-width="0.2"></line><line aria-label="a: 1" role="graphics-symbol" aria-roledescription="rule mark" transform="translate(350,0)" x2="0" y2="540" stroke="black" stroke-width="0.2"></line><line aria-label="a: 1" role="graphics-symbol" aria-roledescription="rule mark" transform="translate(350,0)" x2="0" y2="540" stroke="black" stroke-width="0.2"></line><line aria-label="a: 1" role="graphics-symbol" aria-roledescription="rule mark" transform="translate(350,0)" x2="0" y2="540" stroke="black" stroke-width="0.2"></line><line aria-label="a: 1" role="graphics-symbol" aria-roledescription="rule mark" transform="translate(350,0)" x2="0" y2="540" stroke="black" stroke-width="0.2"></line><line aria-label="a: 1" role="graphics-symbol" aria-roledescription="rule mark" transform="translate(350,0)" x2="0" y2="540" stroke="black" stroke-width="0.2"></line><line aria-label="a: 1" role="graphics-symbol" aria-roledescription="rule mark" transform="translate(350,0)" x2="0" y2="540" stroke="black" stroke-width="0.2"></line><line aria-label="a: 1" role="graphics-symbol" aria-roledescription="rule mark" transform="translate(350,0)" x2="0" y2="540" stroke="black" stroke-width="0.2"></line><line aria-label="a: 1" role="graphics-symbol" aria-roledescription="rule mark" transform="translate(350,0)" x2="0" y2="540" stroke="black" stroke-width="0.2"></line><line aria-label="a: 1" role="graphics-symbol" aria-roledescription="rule mark" transform="translate(350,0)" x2="0" y2="540" stroke="black" stroke-width="0.2"></line><line aria-label="a: 1" role="graphics-symbol" aria-roledescription="rule mark" transform="translate(350,0)" x2="0" y2="540" stroke="black" stroke-width="0.2"></line><line aria-label="a: 1" role="graphics-symbol" aria-roledescription="rule mark" transform="translate(350,0)" x2="0" y2="540" stroke="black" stroke-width="0.2"></line><line aria-label="a: 1" role="graphics-symbol" aria-roledescription="rule mark" transform="translate(350,0)" x2="0" y2="540" stroke="black" stroke-width="0.2"></line><line aria-label="a: 1" role="graphics-symbol" aria-roledescription="rule mark" transform="translate(350,0)" x2="0" y2="540" stroke="black" stroke-width="0.2"></line><line aria-label="a: 1" role="graphics-symbol" aria-roledescription="rule mark" transform="translate(350,0)" x2="0" y2="540" stroke="black" stroke-width="0.2"></line><line aria-label="a: 1" role="graphics-symbol" aria-roledescription="rule mark" transform="translate(350,0)" x2="0" y2="540" stroke="black" stroke-width="0.2"></line><line aria-label="a: 1" role="graphics-symbol" aria-roledescription="rule mark" transform="translate(350,0)" x2="0" y2="540" stroke="black" stroke-width="0.2"></line><line aria-label="a: 1" role="graphics-symbol" aria-roledescription="rule mark" transform="translate(350,0)" x2="0" y2="540" stroke="black" stroke-width="0.2"></line><line aria-label="a: 1" role="graphics-symbol" aria-roledescription="rule mark" transform="translate(350,0)" x2="0" y2="540" stroke="black" stroke-width="0.2"></line><line aria-label="a: 1" role="graphics-symbol" aria-roledescription="rule mark" transform="translate(350,0)" x2="0" y2="540" stroke="black" stroke-width="0.2"></line><line aria-label="a: 1" role="graphics-symbol" aria-roledescription="rule mark" transform="translate(350,0)" x2="0" y2="540" stroke="black" stroke-width="0.2"></line><line aria-label="a: 1" role="graphics-symbol" aria-roledescription="rule mark" transform="translate(350,0)" x2="0" y2="540" stroke="black" stroke-width="0.2"></line><line aria-label="a: 1" role="graphics-symbol" aria-roledescription="rule mark" transform="translate(350,0)" x2="0" y2="540" stroke="black" stroke-width="0.2"></line><line aria-label="a: 1" role="graphics-symbol" aria-roledescription="rule mark" transform="translate(350,0)" x2="0" y2="540" stroke="black" stroke-width="0.2"></line><line aria-label="a: 1" role="graphics-symbol" aria-roledescription="rule mark" transform="translate(350,0)" x2="0" y2="540" stroke="black" stroke-width="0.2"></line><line aria-label="a: 1" role="graphics-symbol" aria-roledescription="rule mark" transform="translate(350,0)" x2="0" y2="540" stroke="black" stroke-width="0.2"></line></g><g class="mark-rule role-mark layer_2_marks" role="graphics-object" aria-roledescription="rule mark container"><line aria-label="CI 0.975: 0.565638280268; upper_Quantile.0.025(R): 0.683728825557; index: RN; Quantile.0.975(R): 0.683728825557; Quantile.0.025(R): 0.565638280268" role="graphics-symbol" aria-roledescription="errorbar" transform="translate(45.9467961874145,390)" x2="82.66338170221294" y2="0" stroke="blue" stroke-width="0.6"></line><line aria-label="CI 0.975: 0.60672526082; upper_Quantile.0.025(R): 0.845045459007; index: AP; Quantile.0.975(R): 0.845045459007; Quantile.0.025(R): 0.60672526082" role="graphics-symbol" aria-roledescription="errorbar" transform="translate(74.70768257433643,70)" x2="166.8241387309037" y2="0" stroke="blue" stroke-width="0.6"></line><line aria-label="CI 0.975: 0.793017526835; upper_Quantile.0.025(R): 0.936396727527; index: BA; Quantile.0.975(R): 0.936396727527; Quantile.0.025(R): 0.793017526835" role="graphics-symbol" aria-roledescription="errorbar" transform="translate(205.11226878435727,90)" x2="100.36544048475761" y2="0" stroke="blue" stroke-width="0.6"></line><line aria-label="CI 0.975: 0.830624477652; upper_Quantile.0.025(R): 0.916299816586; index: RO; Quantile.0.975(R): 0.916299816586; Quantile.0.025(R): 0.830624477652" role="graphics-symbol" aria-roledescription="errorbar" transform="translate(231.43713435612068,410)" x2="59.97273725396275" y2="0" stroke="blue" stroke-width="0.6"></line><line aria-label="CI 0.975: 0.834350351328; upper_Quantile.0.025(R): 0.941646259379; index: RR; Quantile.0.975(R): 0.941646259379; Quantile.0.025(R): 0.834350351328" role="graphics-symbol" aria-roledescription="errorbar" transform="translate(234.04524592925134,430)" x2="75.10713563618913" y2="0" stroke="blue" stroke-width="0.6"></line><line aria-label="CI 0.975: 0.892813995963; upper_Quantile.0.025(R): 0.946412594273; index: PA; Quantile.0.975(R): 0.946412594273; Quantile.0.025(R): 0.892813995963" role="graphics-symbol" aria-roledescription="errorbar" transform="translate(274.9697971737796,270)" x2="37.519018817261724" y2="0" stroke="blue" stroke-width="0.6"></line><line aria-label="CI 0.975: 0.944375834757; upper_Quantile.0.025(R): 0.987714797868; index: PB; Quantile.0.975(R): 0.987714797868; Quantile.0.025(R): 0.944375834757" role="graphics-symbol" aria-roledescription="errorbar" transform="translate(311.06308433021985,290)" x2="30.33727417725038" y2="0" stroke="blue" stroke-width="0.6"></line><line aria-label="CI 0.975: 0.96133171029; upper_Quantile.0.025(R): 1.01664904122; index: AL; Quantile.0.975(R): 1.01664904122; Quantile.0.025(R): 0.96133171029" role="graphics-symbol" aria-roledescription="errorbar" transform="translate(322.93219720303347,30)" x2="38.72213165293755" y2="0" stroke="blue" stroke-width="0.6"></line><line aria-label="CI 0.975: 0.959007296639; upper_Quantile.0.025(R): 1.02234711173; index: ES; Quantile.0.975(R): 1.02234711173; Quantile.0.025(R): 0.959007296639" role="graphics-symbol" aria-roledescription="errorbar" transform="translate(321.305107647573,150)" x2="44.33787056465354" y2="0" stroke="blue" stroke-width="0.6"></line><line aria-label="CI 0.975: 0.943970440459; upper_Quantile.0.025(R): 1.04277846738; index: RJ; Quantile.0.975(R): 1.04277846738; Quantile.0.025(R): 0.943970440459" role="graphics-symbol" aria-roledescription="errorbar" transform="translate(310.7793083210028,370)" x2="69.16561884833243" y2="0" stroke="blue" stroke-width="0.6"></line><line aria-label="CI 0.975: 0.995873380446; upper_Quantile.0.025(R): 1.05355605767; index: SP; Quantile.0.975(R): 1.05355605767; Quantile.0.025(R): 0.995873380446" role="graphics-symbol" aria-roledescription="errorbar" transform="translate(347.11136631243636,510)" x2="40.377874053391" y2="0" stroke="blue" stroke-width="0.6"></line><line aria-label="CI 0.975: 1.01538748165; upper_Quantile.0.025(R): 1.08749779749; index: MG; Quantile.0.975(R): 1.08749779749; Quantile.0.025(R): 1.01538748165" role="graphics-symbol" aria-roledescription="errorbar" transform="translate(360.7712371544272,210)" x2="50.47722108920277" y2="0" stroke="blue" stroke-width="0.6"></line><line aria-label="CI 0.975: 1.0262667203; upper_Quantile.0.025(R): 1.07767005236; index: DF; Quantile.0.975(R): 1.07767005236; Quantile.0.025(R): 1.0262667203" role="graphics-symbol" aria-roledescription="errorbar" transform="translate(368.38670421077995,130)" x2="35.982332440986625" y2="0" stroke="blue" stroke-width="0.6"></line><line aria-label="CI 0.975: 1.01031023979; upper_Quantile.0.025(R): 1.11409647813; index: AC; Quantile.0.975(R): 1.11409647813; Quantile.0.025(R): 1.01031023979" role="graphics-symbol" aria-roledescription="errorbar" transform="translate(357.2171678529267,10)" x2="72.65036683981447" y2="0" stroke="blue" stroke-width="0.6"></line><line aria-label="CI 0.975: 1.01317870724; upper_Quantile.0.025(R): 1.129331959; index: TO; Quantile.0.975(R): 1.129331959; Quantile.0.025(R): 1.01317870724" role="graphics-symbol" aria-roledescription="errorbar" transform="translate(359.2250950692968,530)" x2="81.3072762283569" y2="0" stroke="blue" stroke-width="0.6"></line><line aria-label="CI 0.975: 1.04380115757; upper_Quantile.0.025(R): 1.09665797827; index: GO; Quantile.0.975(R): 1.09665797827; Quantile.0.025(R): 1.04380115757" role="graphics-symbol" aria-roledescription="errorbar" transform="translate(380.66081029944866,170)" x2="36.999774486837566" y2="0" stroke="blue" stroke-width="0.6"></line><line aria-label="CI 0.975: 1.04224957544; upper_Quantile.0.025(R): 1.1191145768; index: SE; Quantile.0.975(R): 1.1191145768; Quantile.0.025(R): 1.04224957544" role="graphics-symbol" aria-roledescription="errorbar" transform="translate(379.57470280877783,490)" x2="53.805500948704776" y2="0" stroke="blue" stroke-width="0.6"></line><line aria-label="CI 0.975: 1.05513382479; upper_Quantile.0.025(R): 1.13274584259; index: RS; Quantile.0.975(R): 1.13274584259; Quantile.0.025(R): 1.05513382479" role="graphics-symbol" aria-roledescription="errorbar" transform="translate(388.5936773507734,450)" x2="54.328412458849584" y2="0" stroke="blue" stroke-width="0.6"></line><line aria-label="CI 0.975: 1.06043630905; upper_Quantile.0.025(R): 1.15662910351; index: MS; Quantile.0.975(R): 1.15662910351; Quantile.0.025(R): 1.06043630905" role="graphics-symbol" aria-roledescription="errorbar" transform="translate(392.30541633823543,230)" x2="67.33495612219792" y2="0" stroke="blue" stroke-width="0.6"></line><line aria-label="CI 0.975: 1.06959212187; upper_Quantile.0.025(R): 1.15895197746; index: MA; Quantile.0.975(R): 1.15895197746; Quantile.0.025(R): 1.06959212187" role="graphics-symbol" aria-roledescription="errorbar" transform="translate(398.7144853066424,190)" x2="62.551898917839594" y2="0" stroke="blue" stroke-width="0.6"></line><line aria-label="CI 0.975: 1.08667059661; upper_Quantile.0.025(R): 1.19844605715; index: PE; Quantile.0.975(R): 1.19844605715; Quantile.0.025(R): 1.08667059661" role="graphics-symbol" aria-roledescription="errorbar" transform="translate(410.66941762804163,310)" x2="78.24282237470368" y2="0" stroke="blue" stroke-width="0.6"></line><line aria-label="CI 0.975: 1.09347124264; upper_Quantile.0.025(R): 1.20901092334; index: PI; Quantile.0.975(R): 1.20901092334; Quantile.0.025(R): 1.09347124264" role="graphics-symbol" aria-roledescription="errorbar" transform="translate(415.4298698494374,330)" x2="80.87777649071899" y2="0" stroke="blue" stroke-width="0.6"></line><line aria-label="CI 0.975: 1.1538877362; upper_Quantile.0.025(R): 1.21106765493; index: CE; Quantile.0.975(R): 1.21106765493; Quantile.0.025(R): 1.1538877362" role="graphics-symbol" aria-roledescription="errorbar" transform="translate(457.72141533746304,110)" x2="40.02594311401748" y2="0" stroke="blue" stroke-width="0.6"></line><line aria-label="CI 0.975: 1.13652467595; upper_Quantile.0.025(R): 1.25335811316; index: MT; Quantile.0.975(R): 1.25335811316; Quantile.0.025(R): 1.13652467595" role="graphics-symbol" aria-roledescription="errorbar" transform="translate(445.567273161876,250)" x2="81.78340604965007" y2="0" stroke="blue" stroke-width="0.6"></line><line aria-label="CI 0.975: 1.14150819251; upper_Quantile.0.025(R): 1.28372677346; index: SC; Quantile.0.975(R): 1.28372677346; Quantile.0.025(R): 1.14150819251" role="graphics-symbol" aria-roledescription="errorbar" transform="translate(449.05573475420124,470)" x2="99.5530066673823" y2="0" stroke="blue" stroke-width="0.6"></line><line aria-label="CI 0.975: 1.16907644634; upper_Quantile.0.025(R): 1.41157643772; index: PR; Quantile.0.975(R): 1.41157643772; Quantile.0.025(R): 1.16907644634" role="graphics-symbol" aria-roledescription="errorbar" transform="translate(468.35351243644186,350)" x2="169.74999396424403" y2="0" stroke="blue" stroke-width="0.6"></line><line aria-label="CI 0.975: 1.27939014589; upper_Quantile.0.025(R): 1.35850875482; index: AM; Quantile.0.975(R): 1.35850875482; Quantile.0.025(R): 1.27939014589" role="graphics-symbol" aria-roledescription="errorbar" transform="translate(545.5731021264942,50)" x2="55.383026244726125" y2="0" stroke="blue" stroke-width="0.6"></line></g><g class="mark-group role-title"><g transform="translate(350,-17.2)"><path class="background" aria-hidden="true" d="M0,0h0v0h0Z" pointer-events="none"></path><g><g class="mark-text role-title-text" role="graphics-symbol" aria-roledescription="title" aria-label="Title text 'Instantaneous reproduction number estimate for all states in Brazil'" pointer-events="none"><text text-anchor="middle" transform="translate(0,10)" font-family="sans-serif" font-size="13px" font-weight="bold" fill="#000" opacity="1">Instantaneous reproduction number estimate for all states in Brazil</text></g></g><path class="foreground" aria-hidden="true" d="" pointer-events="none" display="none"></path></g></g></g><path class="foreground" aria-hidden="true" d="" display="none"></path></g></g></g></svg>