<svg class="marks" width="828" height="599" viewBox="0 0 828 599" version="1.1" xmlns="http://www.w3.org/2000/svg" xmlns:xlink="http://www.w3.org/1999/xlink"><rect width="828" height="599" fill="white"></rect><g fill="none" stroke-miterlimit="10" transform="translate(123,22)"><g class="mark-group role-frame root" role="graphics-object" aria-roledescription="group mark container"><g transform="translate(0,0)"><path class="background" aria-hidden="true" d="M0.5,0.5h700v540h-700Z"></path><g><g class="mark-group role-axis" aria-hidden="true"><g transform="translate(0.5,0.5)"><path class="background" aria-hidden="true" d="M0,0h0v0h0Z" pointer-events="none"></path><g><g class="mark-rule role-axis-grid" pointer-events="none"><line transform="translate(0,10)" x2="700" y2="0" stroke="#ddd" stroke-width="1" opacity="1"></line><line transform="translate(0,30)" x2="700" y2="0" stroke="#ddd" stroke-width="1" opacity="1"></line><line transform="translate(0,50)" x2="700" y2="0" stroke="#ddd" stroke-width="1" opacity="1"></line><line transform="translate(0,70)" x2="700" y2="0" stroke="#ddd" stroke-width="1" opacity="1"></line><line transform="translate(0,90)" x2="700" y2="0" stroke="#ddd" stroke-width="1" opacity="1"></line><line transform="translate(0,110)" x2="700" y2="0" stroke="#ddd" stroke-width="1" opacity="1"></line><line transform="translate(0,130)" x2="700" y2="0" stroke="#ddd" stroke-width="1" opacity="1"></line><line transform="translate(0,150)" x2="700" y2="0" stroke="#ddd" stroke-width="1" opacity="1"></line><line transform="translate(0,170)" x2="700" y2="0" stroke="#ddd" stroke-width="1" opacity="1"></line><line transform="translate(0,190)" x2="700" y2="0" stroke="#ddd" stroke-width="1" opacity="1"></line><line transform="translate(0,210)" x2="700" y2="0" stroke="#ddd" stroke-width="1" opacity="1"></line><line transform="translate(0,230)" x2="700" y2="0" stroke="#ddd" stroke-width="1" opacity="1"></line><line transform="translate(0,250)" x2="700" y2="0" stroke="#ddd" stroke-width="1" opacity="1"></line><line transform="translate(0,270)" x2="700" y2="0" stroke="#ddd" stroke-width="1" opacity="1"></line><line transform="translate(0,290)" x2="700" y2="0" stroke="#ddd" stroke-width="1" opacity="1"></line><line transform="translate(0,310)" x2="700" y2="0" stroke="#ddd" stroke-width="1" opacity="1"></line><line transform="translate(0,330)" x2="700" y2="0" stroke="#ddd" stroke-width="1" opacity="1"></line><line transform="translate(0,350)" x2="700" y2="0" stroke="#ddd" stroke-width="1" opacity="1"></line><line transform="translate(0,370)" x2="700" y2="0" stroke="#ddd" stroke-width="1" opacity="1"></line><line transform="translate(0,390)" x2="700" y2="0" stroke="#ddd" stroke-width="1" opacity="1"></line><line transform="translate(0,410)" x2="700" y2="0" stroke="#ddd" stroke-width="1" opacity="1"></line><line transform="translate(0,430)" x2="700" y2="0" stroke="#ddd" stroke-width="1" opacity="1"></line><line transform="translate(0,450)" x2="700" y2="0" stroke="#ddd" stroke-width="1" opacity="1"></line><line transform="translate(0,470)" x2="700" y2="0" stroke="#ddd" stroke-width="1" opacity="1"></line><line transform="translate(0,490)" x2="700" y2="0" stroke="#ddd" stroke-width="1" opacity="1"></line><line transform="translate(0,510)" x2="700" y2="0" stroke="#ddd" stroke-width="1" opacity="1"></line><line transform="translate(0,530)" x2="700" y2="0" stroke="#ddd" stroke-width="1" opacity="1"></line></g></g><path class="foreground" aria-hidden="true" d="" pointer-events="none" display="none"></path></g></g><g class="mark-group role-axis" role="graphics-symbol" aria-roledescription="axis" aria-label="X-axis titled 'Weighted percentage w/ COVID-like illness, CI 0.95' for a linear scale with values from -15 to 25"><g transform="translate(0.5,540.5)"><path class="background" aria-hidden="true" d="M0,0h0v0h0Z" pointer-events="none"></path><g><g class="mark-rule role-axis-tick" pointer-events="none"><line transform="translate(18,0)" x2="0" y2="5" stroke="#888" stroke-width="1" opacity="1"></line><line transform="translate(53,0)" x2="0" y2="5" stroke="#888" stroke-width="1" opacity="1"></line><line transform="translate(88,0)" x2="0" y2="5" stroke="#888" stroke-width="1" opacity="1"></line><line transform="translate(122,0)" x2="0" y2="5" stroke="#888" stroke-width="1" opacity="1"></line><line transform="translate(158,0)" x2="0" y2="5" stroke="#888" stroke-width="1" opacity="1"></line><line transform="translate(193,0)" x2="0" y2="5" stroke="#888" stroke-width="1" opacity="1"></line><line transform="translate(228,0)" x2="0" y2="5" stroke="#888" stroke-width="1" opacity="1"></line><line transform="translate(263,0)" x2="0" y2="5" stroke="#888" stroke-width="1" opacity="1"></line><line transform="translate(298,0)" x2="0" y2="5" stroke="#888" stroke-width="1" opacity="1"></line><line transform="translate(333,0)" x2="0" y2="5" stroke="#888" stroke-width="1" opacity="1"></line><line transform="translate(368,0)" x2="0" y2="5" stroke="#888" stroke-width="1" opacity="1"></line><line transform="translate(402,0)" x2="0" y2="5" stroke="#888" stroke-width="1" opacity="1"></line><line transform="translate(438,0)" x2="0" y2="5" stroke="#888" stroke-width="1" opacity="1"></line><line transform="translate(473,0)" x2="0" y2="5" stroke="#888" stroke-width="1" opacity="1"></line><line transform="translate(508,0)" x2="0" y2="5" stroke="#888" stroke-width="1" opacity="1"></line><line transform="translate(543,0)" x2="0" y2="5" stroke="#888" stroke-width="1" opacity="1"></line><line transform="translate(578,0)" x2="0" y2="5" stroke="#888" stroke-width="1" opacity="1"></line><line transform="translate(613,0)" x2="0" y2="5" stroke="#888" stroke-width="1" opacity="1"></line><line transform="translate(648,0)" x2="0" y2="5" stroke="#888" stroke-width="1" opacity="1"></line><line transform="translate(683,0)" x2="0" y2="5" stroke="#888" stroke-width="1" opacity="1"></line></g><g class="mark-text role-axis-label" pointer-events="none"><text text-anchor="middle" transform="translate(17.5,15)" font-family="sans-serif" font-size="10px" fill="#000" opacity="1">-14</text><text text-anchor="middle" transform="translate(52.5,15)" font-family="sans-serif" font-size="10px" fill="#000" opacity="1">-12</text><text text-anchor="middle" transform="translate(87.5,15)" font-family="sans-serif" font-size="10px" fill="#000" opacity="1">-10</text><text text-anchor="middle" transform="translate(122.49999999999999,15)" font-family="sans-serif" font-size="10px" fill="#000" opacity="1">-8</text><text text-anchor="middle" transform="translate(157.5,15)" font-family="sans-serif" font-size="10px" fill="#000" opacity="1">-6</text><text text-anchor="middle" transform="translate(192.50000000000003,15)" font-family="sans-serif" font-size="10px" fill="#000" opacity="1">-4</text><text text-anchor="middle" transform="translate(227.5,15)" font-family="sans-serif" font-size="10px" fill="#000" opacity="1">-2</text><text text-anchor="middle" transform="translate(262.5,15)" font-family="sans-serif" font-size="10px" fill="#000" opacity="1">0</text><text text-anchor="middle" transform="translate(297.5,15)" font-family="sans-serif" font-size="10px" fill="#000" opacity="1">2</text><text text-anchor="middle" transform="translate(332.5,15)" font-family="sans-serif" font-size="10px" fill="#000" opacity="1">4</text><text text-anchor="middle" transform="translate(367.5,15)" font-family="sans-serif" font-size="10px" fill="#000" opacity="1">6</text><text text-anchor="middle" transform="translate(402.49999999999994,15)" font-family="sans-serif" font-size="10px" fill="#000" opacity="1">8</text><text text-anchor="middle" transform="translate(437.5,15)" font-family="sans-serif" font-size="10px" fill="#000" opacity="1">10</text><text text-anchor="middle" transform="translate(472.50000000000006,15)" font-family="sans-serif" font-size="10px" fill="#000" opacity="1">12</text><text text-anchor="middle" transform="translate(507.5,15)" font-family="sans-serif" font-size="10px" fill="#000" opacity="1">14</text><text text-anchor="middle" transform="translate(542.5,15)" font-family="sans-serif" font-size="10px" fill="#000" opacity="1">16</text><text text-anchor="middle" transform="translate(577.5,15)" font-family="sans-serif" font-size="10px" fill="#000" opacity="1">18</text><text text-anchor="middle" transform="translate(612.5,15)" font-family="sans-serif" font-size="10px" fill="#000" opacity="1">20</text><text text-anchor="middle" transform="translate(647.5,15)" font-family="sans-serif" font-size="10px" fill="#000" opacity="1">22</text><text text-anchor="middle" transform="translate(682.5,15)" font-family="sans-serif" font-size="10px" fill="#000" opacity="1">24</text></g><g class="mark-rule role-axis-domain" pointer-events="none"><line transform="translate(0,0)" x2="700" y2="0" stroke="#888" stroke-width="1" opacity="1"></line></g><g class="mark-text role-axis-title" pointer-events="none"><text text-anchor="middle" transform="translate(350,30)" font-family="sans-serif" font-size="11px" font-weight="bold" fill="#000" opacity="1">Weighted percentage w/ COVID-like illness, CI 0.95</text></g></g><path class="foreground" aria-hidden="true" d="" pointer-events="none" display="none"></path></g></g><g class="mark-group role-axis" role="graphics-symbol" aria-roledescription="axis" aria-label="Y-axis titled 'States' for a discrete scale with 27 values: Acre, Alagoas, Amapá, Amazonas, Bahia, ending with Tocantins"><g transform="translate(0.5,0.5)"><path class="background" aria-hidden="true" d="M0,0h0v0h0Z" pointer-events="none"></path><g><g class="mark-rule role-axis-tick" pointer-events="none"><line transform="translate(0,10)" x2="-5" y2="0" stroke="#888" stroke-width="1" opacity="1"></line><line transform="translate(0,30)" x2="-5" y2="0" stroke="#888" stroke-width="1" opacity="1"></line><line transform="translate(0,50)" x2="-5" y2="0" stroke="#888" stroke-width="1" opacity="1"></line><line transform="translate(0,70)" x2="-5" y2="0" stroke="#888" stroke-width="1" opacity="1"></line><line transform="translate(0,90)" x2="-5" y2="0" stroke="#888" stroke-width="1" opacity="1"></line><line transform="translate(0,110)" x2="-5" y2="0" stroke="#888" stroke-width="1" opacity="1"></line><line transform="translate(0,130)" x2="-5" y2="0" stroke="#888" stroke-width="1" opacity="1"></line><line transform="translate(0,150)" x2="-5" y2="0" stroke="#888" stroke-width="1" opacity="1"></line><line transform="translate(0,170)" x2="-5" y2="0" stroke="#888" stroke-width="1" opacity="1"></line><line transform="translate(0,190)" x2="-5" y2="0" stroke="#888" stroke-width="1" opacity="1"></line><line transform="translate(0,210)" x2="-5" y2="0" stroke="#888" stroke-width="1" opacity="1"></line><line transform="translate(0,230)" x2="-5" y2="0" stroke="#888" stroke-width="1" opacity="1"></line><line transform="translate(0,250)" x2="-5" y2="0" stroke="#888" stroke-width="1" opacity="1"></line><line transform="translate(0,270)" x2="-5" y2="0" stroke="#888" stroke-width="1" opacity="1"></line><line transform="translate(0,290)" x2="-5" y2="0" stroke="#888" stroke-width="1" opacity="1"></line><line transform="translate(0,310)" x2="-5" y2="0" stroke="#888" stroke-width="1" opacity="1"></line><line transform="translate(0,330)" x2="-5" y2="0" stroke="#888" stroke-width="1" opacity="1"></line><line transform="translate(0,350)" x2="-5" y2="0" stroke="#888" stroke-width="1" opacity="1"></line><line transform="translate(0,370)" x2="-5" y2="0" stroke="#888" stroke-width="1" opacity="1"></line><line transform="translate(0,390)" x2="-5" y2="0" stroke="#888" stroke-width="1" opacity="1"></line><line transform="translate(0,410)" x2="-5" y2="0" stroke="#888" stroke-width="1" opacity="1"></line><line transform="translate(0,430)" x2="-5" y2="0" stroke="#888" stroke-width="1" opacity="1"></line><line transform="translate(0,450)" x2="-5" y2="0" stroke="#888" stroke-width="1" opacity="1"></line><line transform="translate(0,470)" x2="-5" y2="0" stroke="#888" stroke-width="1" opacity="1"></line><line transform="translate(0,490)" x2="-5" y2="0" stroke="#888" stroke-width="1" opacity="1"></line><line transform="translate(0,510)" x2="-5" y2="0" stroke="#888" stroke-width="1" opacity="1"></line><line transform="translate(0,530)" x2="-5" y2="0" stroke="#888" stroke-width="1" opacity="1"></line></g><g class="mark-text role-axis-label" pointer-events="none"><text text-anchor="end" transform="translate(-7,12.5)" font-family="sans-serif" font-size="10px" fill="#000" opacity="1">Acre</text><text text-anchor="end" transform="translate(-7,32.5)" font-family="sans-serif" font-size="10px" fill="#000" opacity="1">Alagoas</text><text text-anchor="end" transform="translate(-7,52.5)" font-family="sans-serif" font-size="10px" fill="#000" opacity="1">Amapá</text><text text-anchor="end" transform="translate(-7,72.5)" font-family="sans-serif" font-size="10px" fill="#000" opacity="1">Amazonas</text><text text-anchor="end" transform="translate(-7,92.5)" font-family="sans-serif" font-size="10px" fill="#000" opacity="1">Bahia</text><text text-anchor="end" transform="translate(-7,112.5)" font-family="sans-serif" font-size="10px" fill="#000" opacity="1">Ceará</text><text text-anchor="end" transform="translate(-7,132.5)" font-family="sans-serif" font-size="10px" fill="#000" opacity="1">Distrito Federal</text><text text-anchor="end" transform="translate(-7,152.5)" font-family="sans-serif" font-size="10px" fill="#000" opacity="1">Espírito Santo</text><text text-anchor="end" transform="translate(-7,172.5)" font-family="sans-serif" font-size="10px" fill="#000" opacity="1">Goiás</text><text text-anchor="end" transform="translate(-7,192.5)" font-family="sans-serif" font-size="10px" fill="#000" opacity="1">Maranhão</text><text text-anchor="end" transform="translate(-7,212.5)" font-family="sans-serif" font-size="10px" fill="#000" opacity="1">Mato Grosso</text><text text-anchor="end" transform="translate(-7,232.5)" font-family="sans-serif" font-size="10px" fill="#000" opacity="1">Mato Grosso do Sul</text><text text-anchor="end" transform="translate(-7,252.5)" font-family="sans-serif" font-size="10px" fill="#000" opacity="1">Minas Gerais</text><text text-anchor="end" transform="translate(-7,272.5)" font-family="sans-serif" font-size="10px" fill="#000" opacity="1">Paraná</text><text text-anchor="end" transform="translate(-7,292.5)" font-family="sans-serif" font-size="10px" fill="#000" opacity="1">Paraíba</text><text text-anchor="end" transform="translate(-7,312.5)" font-family="sans-serif" font-size="10px" fill="#000" opacity="1">Pará</text><text text-anchor="end" transform="translate(-7,332.5)" font-family="sans-serif" font-size="10px" fill="#000" opacity="1">Pernambuco</text><text text-anchor="end" transform="translate(-7,352.5)" font-family="sans-serif" font-size="10px" fill="#000" opacity="1">Piauí</text><text text-anchor="end" transform="translate(-7,372.5)" font-family="sans-serif" font-size="10px" fill="#000" opacity="1">Rio Grande do Norte</text><text text-anchor="end" transform="translate(-7,392.5)" font-family="sans-serif" font-size="10px" fill="#000" opacity="1">Rio Grande do Sul</text><text text-anchor="end" transform="translate(-7,412.5)" font-family="sans-serif" font-size="10px" fill="#000" opacity="1">Rio de Janeiro</text><text text-anchor="end" transform="translate(-7,432.5)" font-family="sans-serif" font-size="10px" fill="#000" opacity="1">Rondônia</text><text text-anchor="end" transform="translate(-7,452.5)" font-family="sans-serif" font-size="10px" fill="#000" opacity="1">Roraima</text><text text-anchor="end" transform="translate(-7,472.5)" font-family="sans-serif" font-size="10px" fill="#000" opacity="1">Santa Catarina</text><text text-anchor="end" transform="translate(-7,492.5)" font-family="sans-serif" font-size="10px" fill="#000" opacity="1">Sergipe</text><text text-anchor="end" transform="translate(-7,512.5)" font-family="sans-serif" font-size="10px" fill="#000" opacity="1">São Paulo</text><text text-anchor="end" transform="translate(-7,532.5)" font-family="sans-serif" font-size="10px" fill="#000" opacity="1">Tocantins</text></g><g class="mark-rule role-axis-domain" pointer-events="none"><line transform="translate(0,0)" x2="0" y2="540" stroke="#888" stroke-width="1" opacity="1"></line></g><g class="mark-text role-axis-title" pointer-events="none"><text text-anchor="middle" transform="translate(-107,270) rotate(-90) translate(0,-2)" font-family="sans-serif" font-size="11px" font-weight="bold" fill="#000" opacity="1">States</text></g></g><path class="foreground" aria-hidden="true" d="" pointer-events="none" display="none"></path></g></g><g class="mark-symbol role-mark layer_0_marks" role="graphics-object" aria-roledescription="symbol mark container"><path aria-label="Weighted percentage w/ COVID-like illness: 10.9561; States: Amapá" role="graphics-symbol" aria-roledescription="point" transform="translate(454.23175,50)" d="M2.7386127875258306,0A2.7386127875258306,2.7386127875258306,0,1,1,-2.7386127875258306,0A2.7386127875258306,2.7386127875258306,0,1,1,2.7386127875258306,0" stroke="#4c78a8" stroke-width="2" opacity="0.7"></path><path aria-label="Weighted percentage w/ COVID-like illness: 7.9987; States: Acre" role="graphics-symbol" aria-roledescription="point" transform="translate(402.47724999999997,10)" d="M2.7386127875258306,0A2.7386127875258306,2.7386127875258306,0,1,1,-2.7386127875258306,0A2.7386127875258306,2.7386127875258306,0,1,1,2.7386127875258306,0" stroke="#4c78a8" stroke-width="2" opacity="0.7"></path><path aria-label="Weighted percentage w/ COVID-like illness: 6.2499; States: Amazonas" role="graphics-symbol" aria-roledescription="point" transform="translate(371.87325,70)" d="M2.7386127875258306,0A2.7386127875258306,2.7386127875258306,0,1,1,-2.7386127875258306,0A2.7386127875258306,2.7386127875258306,0,1,1,2.7386127875258306,0" stroke="#4c78a8" stroke-width="2" opacity="0.7"></path><path aria-label="Weighted percentage w/ COVID-like illness: 5.6526; States: Maranhão" role="graphics-symbol" aria-roledescription="point" transform="translate(361.4205,190)" d="M2.7386127875258306,0A2.7386127875258306,2.7386127875258306,0,1,1,-2.7386127875258306,0A2.7386127875258306,2.7386127875258306,0,1,1,2.7386127875258306,0" stroke="#4c78a8" stroke-width="2" opacity="0.7"></path><path aria-label="Weighted percentage w/ COVID-like illness: 5.0482; States: Roraima" role="graphics-symbol" aria-roledescription="point" transform="translate(350.8435,450)" d="M2.7386127875258306,0A2.7386127875258306,2.7386127875258306,0,1,1,-2.7386127875258306,0A2.7386127875258306,2.7386127875258306,0,1,1,2.7386127875258306,0" stroke="#4c78a8" stroke-width="2" opacity="0.7"></path><path aria-label="Weighted percentage w/ COVID-like illness: 4.7548; States: Pará" role="graphics-symbol" aria-roledescription="point" transform="translate(345.709,310)" d="M2.7386127875258306,0A2.7386127875258306,2.7386127875258306,0,1,1,-2.7386127875258306,0A2.7386127875258306,2.7386127875258306,0,1,1,2.7386127875258306,0" stroke="#4c78a8" stroke-width="2" opacity="0.7"></path><path aria-label="Weighted percentage w/ COVID-like illness: 4.5634; States: Tocantins" role="graphics-symbol" aria-roledescription="point" transform="translate(342.3595,530)" d="M2.7386127875258306,0A2.7386127875258306,2.7386127875258306,0,1,1,-2.7386127875258306,0A2.7386127875258306,2.7386127875258306,0,1,1,2.7386127875258306,0" stroke="#4c78a8" stroke-width="2" opacity="0.7"></path><path aria-label="Weighted percentage w/ COVID-like illness: 4.0503; States: Rondônia" role="graphics-symbol" aria-roledescription="point" transform="translate(333.38025,430)" d="M2.7386127875258306,0A2.7386127875258306,2.7386127875258306,0,1,1,-2.7386127875258306,0A2.7386127875258306,2.7386127875258306,0,1,1,2.7386127875258306,0" stroke="#4c78a8" stroke-width="2" opacity="0.7"></path><path aria-label="Weighted percentage w/ COVID-like illness: 3.7282; States: Ceará" role="graphics-symbol" aria-roledescription="point" transform="translate(327.74350000000004,110)" d="M2.7386127875258306,0A2.7386127875258306,2.7386127875258306,0,1,1,-2.7386127875258306,0A2.7386127875258306,2.7386127875258306,0,1,1,2.7386127875258306,0" stroke="#4c78a8" stroke-width="2" opacity="0.7"></path><path aria-label="Weighted percentage w/ COVID-like illness: 3.4438; States: Alagoas" role="graphics-symbol" aria-roledescription="point" transform="translate(322.7665,30)" d="M2.7386127875258306,0A2.7386127875258306,2.7386127875258306,0,1,1,-2.7386127875258306,0A2.7386127875258306,2.7386127875258306,0,1,1,2.7386127875258306,0" stroke="#4c78a8" stroke-width="2" opacity="0.7"></path><path aria-label="Weighted percentage w/ COVID-like illness: 2.9606; States: Pernambuco" role="graphics-symbol" aria-roledescription="point" transform="translate(314.3105,330)" d="M2.7386127875258306,0A2.7386127875258306,2.7386127875258306,0,1,1,-2.7386127875258306,0A2.7386127875258306,2.7386127875258306,0,1,1,2.7386127875258306,0" stroke="#4c78a8" stroke-width="2" opacity="0.7"></path><path aria-label="Weighted percentage w/ COVID-like illness: 2.702; States: Paraíba" role="graphics-symbol" aria-roledescription="point" transform="translate(309.78499999999997,290)" d="M2.7386127875258306,0A2.7386127875258306,2.7386127875258306,0,1,1,-2.7386127875258306,0A2.7386127875258306,2.7386127875258306,0,1,1,2.7386127875258306,0" stroke="#4c78a8" stroke-width="2" opacity="0.7"></path><path aria-label="Weighted percentage w/ COVID-like illness: 2.3582; States: Rio Grande do Norte" role="graphics-symbol" aria-roledescription="point" transform="translate(303.76849999999996,370)" d="M2.7386127875258306,0A2.7386127875258306,2.7386127875258306,0,1,1,-2.7386127875258306,0A2.7386127875258306,2.7386127875258306,0,1,1,2.7386127875258306,0" stroke="#4c78a8" stroke-width="2" opacity="0.7"></path><path aria-label="Weighted percentage w/ COVID-like illness: 1.9746; States: Espírito Santo" role="graphics-symbol" aria-roledescription="point" transform="translate(297.0555,150)" d="M2.7386127875258306,0A2.7386127875258306,2.7386127875258306,0,1,1,-2.7386127875258306,0A2.7386127875258306,2.7386127875258306,0,1,1,2.7386127875258306,0" stroke="#4c78a8" stroke-width="2" opacity="0.7"></path><path aria-label="Weighted percentage w/ COVID-like illness: 1.9678; States: Mato Grosso" role="graphics-symbol" aria-roledescription="point" transform="translate(296.93649999999997,210)" d="M2.7386127875258306,0A2.7386127875258306,2.7386127875258306,0,1,1,-2.7386127875258306,0A2.7386127875258306,2.7386127875258306,0,1,1,2.7386127875258306,0" stroke="#4c78a8" stroke-width="2" opacity="0.7"></path><path aria-label="Weighted percentage w/ COVID-like illness: 1.9555; States: Piauí" role="graphics-symbol" aria-roledescription="point" transform="translate(296.72125,350)" d="M2.7386127875258306,0A2.7386127875258306,2.7386127875258306,0,1,1,-2.7386127875258306,0A2.7386127875258306,2.7386127875258306,0,1,1,2.7386127875258306,0" stroke="#4c78a8" stroke-width="2" opacity="0.7"></path><path aria-label="Weighted percentage w/ COVID-like illness: 1.6751; States: Rio de Janeiro" role="graphics-symbol" aria-roledescription="point" transform="translate(291.81425,410)" d="M2.7386127875258306,0A2.7386127875258306,2.7386127875258306,0,1,1,-2.7386127875258306,0A2.7386127875258306,2.7386127875258306,0,1,1,2.7386127875258306,0" stroke="#4c78a8" stroke-width="2" opacity="0.7"></path><path aria-label="Weighted percentage w/ COVID-like illness: 1.5771; States: Sergipe" role="graphics-symbol" aria-roledescription="point" transform="translate(290.09925000000004,490)" d="M2.7386127875258306,0A2.7386127875258306,2.7386127875258306,0,1,1,-2.7386127875258306,0A2.7386127875258306,2.7386127875258306,0,1,1,2.7386127875258306,0" stroke="#4c78a8" stroke-width="2" opacity="0.7"></path><path aria-label="Weighted percentage w/ COVID-like illness: 1.5496; States: Distrito Federal" role="graphics-symbol" aria-roledescription="point" transform="translate(289.61799999999994,130)" d="M2.7386127875258306,0A2.7386127875258306,2.7386127875258306,0,1,1,-2.7386127875258306,0A2.7386127875258306,2.7386127875258306,0,1,1,2.7386127875258306,0" stroke="#4c78a8" stroke-width="2" opacity="0.7"></path><path aria-label="Weighted percentage w/ COVID-like illness: 1.3487; States: Santa Catarina" role="graphics-symbol" aria-roledescription="point" transform="translate(286.10225,470)" d="M2.7386127875258306,0A2.7386127875258306,2.7386127875258306,0,1,1,-2.7386127875258306,0A2.7386127875258306,2.7386127875258306,0,1,1,2.7386127875258306,0" stroke="#4c78a8" stroke-width="2" opacity="0.7"></path><path aria-label="Weighted percentage w/ COVID-like illness: 1.1377; States: São Paulo" role="graphics-symbol" aria-roledescription="point" transform="translate(282.40975,510)" d="M2.7386127875258306,0A2.7386127875258306,2.7386127875258306,0,1,1,-2.7386127875258306,0A2.7386127875258306,2.7386127875258306,0,1,1,2.7386127875258306,0" stroke="#4c78a8" stroke-width="2" opacity="0.7"></path><path aria-label="Weighted percentage w/ COVID-like illness: 0.996; States: Mato Grosso do Sul" role="graphics-symbol" aria-roledescription="point" transform="translate(279.93,230)" d="M2.7386127875258306,0A2.7386127875258306,2.7386127875258306,0,1,1,-2.7386127875258306,0A2.7386127875258306,2.7386127875258306,0,1,1,2.7386127875258306,0" stroke="#4c78a8" stroke-width="2" opacity="0.7"></path><path aria-label="Weighted percentage w/ COVID-like illness: 0.9772; States: Bahia" role="graphics-symbol" aria-roledescription="point" transform="translate(279.601,90)" d="M2.7386127875258306,0A2.7386127875258306,2.7386127875258306,0,1,1,-2.7386127875258306,0A2.7386127875258306,2.7386127875258306,0,1,1,2.7386127875258306,0" stroke="#4c78a8" stroke-width="2" opacity="0.7"></path><path aria-label="Weighted percentage w/ COVID-like illness: 0.7731; States: Minas Gerais" role="graphics-symbol" aria-roledescription="point" transform="translate(276.02925,250)" d="M2.7386127875258306,0A2.7386127875258306,2.7386127875258306,0,1,1,-2.7386127875258306,0A2.7386127875258306,2.7386127875258306,0,1,1,2.7386127875258306,0" stroke="#4c78a8" stroke-width="2" opacity="0.7"></path><path aria-label="Weighted percentage w/ COVID-like illness: 0.5177; States: Goiás" role="graphics-symbol" aria-roledescription="point" transform="translate(271.55974999999995,170)" d="M2.7386127875258306,0A2.7386127875258306,2.7386127875258306,0,1,1,-2.7386127875258306,0A2.7386127875258306,2.7386127875258306,0,1,1,2.7386127875258306,0" stroke="#4c78a8" stroke-width="2" opacity="0.7"></path><path aria-label="Weighted percentage w/ COVID-like illness: 0.3589; States: Rio Grande do Sul" role="graphics-symbol" aria-roledescription="point" transform="translate(268.78075,390)" d="M2.7386127875258306,0A2.7386127875258306,2.7386127875258306,0,1,1,-2.7386127875258306,0A2.7386127875258306,2.7386127875258306,0,1,1,2.7386127875258306,0" stroke="#4c78a8" stroke-width="2" opacity="0.7"></path><path aria-label="Weighted percentage w/ COVID-like illness: 0.2945; States: Paraná" role="graphics-symbol" aria-roledescription="point" transform="translate(267.65375,270)" d="M2.7386127875258306,0A2.7386127875258306,2.7386127875258306,0,1,1,-2.7386127875258306,0A2.7386127875258306,2.7386127875258306,0,1,1,2.7386127875258306,0" stroke="#4c78a8" stroke-width="2" opacity="0.7"></path></g><g class="mark-rule role-mark layer_1_marks" role="graphics-object" aria-roledescription="rule mark container"><line aria-label="CI 0.95: 5.373824; upper_percent_cli_lower: 16.538376; region: Amapá; percent_cli_upper: 16.538376; percent_cli_lower: 5.373824" role="graphics-symbol" aria-roledescription="errorbar" transform="translate(356.54191999999995,50)" x2="195.37966000000011" y2="0" stroke="blue" stroke-width="0.6"></line><line aria-label="CI 0.95: 2.540492; upper_percent_cli_lower: 13.456908; region: Acre; percent_cli_upper: 13.456908; percent_cli_lower: 2.540492" role="graphics-symbol" aria-roledescription="errorbar" transform="translate(306.95861,10)" x2="191.03727999999995" y2="0" stroke="blue" stroke-width="0.6"></line><line aria-label="CI 0.95: 3.608408; upper_percent_cli_lower: 8.891392; region: Amazonas; percent_cli_upper: 8.891392; percent_cli_lower: 3.608408" role="graphics-symbol" aria-roledescription="errorbar" transform="translate(325.64714000000004,70)" x2="92.45221999999995" y2="0" stroke="blue" stroke-width="0.6"></line><line aria-label="CI 0.95: 3.300404; upper_percent_cli_lower: 8.004796; region: Maranhão; percent_cli_upper: 8.004796; percent_cli_lower: 3.300404" role="graphics-symbol" aria-roledescription="errorbar" transform="translate(320.25707,190)" x2="82.32686000000001" y2="0" stroke="blue" stroke-width="0.6"></line><line aria-label="CI 0.95: -14.361876; upper_percent_cli_lower: 24.458276; region: Roraima; percent_cli_upper: 24.458276; percent_cli_lower: -14.361876" role="graphics-symbol" aria-roledescription="errorbar" transform="translate(11.167170000000024,450)" x2="679.3526599999999" y2="0" stroke="blue" stroke-width="0.6"></line><line aria-label="CI 0.95: 2.394176; upper_percent_cli_lower: 7.115424; region: Pará; percent_cli_upper: 7.115424; percent_cli_lower: 2.394176" role="graphics-symbol" aria-roledescription="errorbar" transform="translate(304.39808,310)" x2="82.62183999999996" y2="0" stroke="blue" stroke-width="0.6"></line><line aria-label="CI 0.95: 0.70318; upper_percent_cli_lower: 8.42362; region: Tocantins; percent_cli_upper: 8.42362; percent_cli_lower: 0.70318" role="graphics-symbol" aria-roledescription="errorbar" transform="translate(274.80564999999996,530)" x2="135.10770000000008" y2="0" stroke="blue" stroke-width="0.6"></line><line aria-label="CI 0.95: 1.643028; upper_percent_cli_lower: 6.457572; region: Rondônia; percent_cli_upper: 6.457572; percent_cli_lower: 1.643028" role="graphics-symbol" aria-roledescription="errorbar" transform="translate(291.25299,430)" x2="84.25451999999996" y2="0" stroke="blue" stroke-width="0.6"></line><line aria-label="CI 0.95: 1.745268; upper_percent_cli_lower: 5.711132; region: Ceará; percent_cli_upper: 5.711132; percent_cli_lower: 1.745268" role="graphics-symbol" aria-roledescription="errorbar" transform="translate(293.04219,110)" x2="69.40262000000001" y2="0" stroke="blue" stroke-width="0.6"></line><line aria-label="CI 0.95: 1.139624; upper_percent_cli_lower: 5.747976; region: Alagoas; percent_cli_upper: 5.747976; percent_cli_lower: 1.139624" role="graphics-symbol" aria-roledescription="errorbar" transform="translate(282.44342,30)" x2="80.64616000000001" y2="0" stroke="blue" stroke-width="0.6"></line><line aria-label="CI 0.95: 1.175236; upper_percent_cli_lower: 4.745964; region: Pernambuco; percent_cli_upper: 4.745964; percent_cli_lower: 1.175236" role="graphics-symbol" aria-roledescription="errorbar" transform="translate(283.06663,330)" x2="62.48774000000003" y2="0" stroke="blue" stroke-width="0.6"></line><line aria-label="CI 0.95: 0.925652; upper_percent_cli_lower: 4.478348; region: Paraíba; percent_cli_upper: 4.478348; percent_cli_lower: 0.925652" role="graphics-symbol" aria-roledescription="errorbar" transform="translate(278.69890999999996,290)" x2="62.17218000000008" y2="0" stroke="blue" stroke-width="0.6"></line><line aria-label="CI 0.95: 0.97836; upper_percent_cli_lower: 3.73804; region: Rio Grande do Norte; percent_cli_upper: 3.73804; percent_cli_lower: 0.97836" role="graphics-symbol" aria-roledescription="errorbar" transform="translate(279.6213,370)" x2="48.294399999999996" y2="0" stroke="blue" stroke-width="0.6"></line><line aria-label="CI 0.95: 0.879352; upper_percent_cli_lower: 3.069848; region: Espírito Santo; percent_cli_upper: 3.069848; percent_cli_lower: 0.879352" role="graphics-symbol" aria-roledescription="errorbar" transform="translate(277.88866,150)" x2="38.33367999999996" y2="0" stroke="blue" stroke-width="0.6"></line><line aria-label="CI 0.95: 0.657932; upper_percent_cli_lower: 3.277668; region: Mato Grosso; percent_cli_upper: 3.277668; percent_cli_lower: 0.657932" role="graphics-symbol" aria-roledescription="errorbar" transform="translate(274.01381000000003,210)" x2="45.84537999999992" y2="0" stroke="blue" stroke-width="0.6"></line><line aria-label="CI 0.95: 0.373388; upper_percent_cli_lower: 3.537612; region: Piauí; percent_cli_upper: 3.537612; percent_cli_lower: 0.373388" role="graphics-symbol" aria-roledescription="errorbar" transform="translate(269.03429,350)" x2="55.37392" y2="0" stroke="blue" stroke-width="0.6"></line><line aria-label="CI 0.95: 0.567308; upper_percent_cli_lower: 2.782892; region: Rio de Janeiro; percent_cli_upper: 2.782892; percent_cli_lower: 0.567308" role="graphics-symbol" aria-roledescription="errorbar" transform="translate(272.42789,410)" x2="38.77272000000005" y2="0" stroke="blue" stroke-width="0.6"></line><line aria-label="CI 0.95: -0.156716; upper_percent_cli_lower: 3.310916; region: Sergipe; percent_cli_upper: 3.310916; percent_cli_lower: -0.156716" role="graphics-symbol" aria-roledescription="errorbar" transform="translate(259.75747,490)" x2="60.68356" y2="0" stroke="blue" stroke-width="0.6"></line><line aria-label="CI 0.95: 0.551176; upper_percent_cli_lower: 2.548024; region: Distrito Federal; percent_cli_upper: 2.548024; percent_cli_lower: 0.551176" role="graphics-symbol" aria-roledescription="errorbar" transform="translate(272.14558,130)" x2="34.94483999999994" y2="0" stroke="blue" stroke-width="0.6"></line><line aria-label="CI 0.95: 0.173288; upper_percent_cli_lower: 2.524112; region: Santa Catarina; percent_cli_upper: 2.524112; percent_cli_lower: 0.173288" role="graphics-symbol" aria-roledescription="errorbar" transform="translate(265.53254,470)" x2="41.13941999999997" y2="0" stroke="blue" stroke-width="0.6"></line><line aria-label="CI 0.95: 0.631824; upper_percent_cli_lower: 1.643576; region: São Paulo; percent_cli_upper: 1.643576; percent_cli_lower: 0.631824" role="graphics-symbol" aria-roledescription="errorbar" transform="translate(273.55692,510)" x2="17.705660000000023" y2="0" stroke="blue" stroke-width="0.6"></line><line aria-label="CI 0.95: 0.068136; upper_percent_cli_lower: 1.923864; region: Mato Grosso do Sul; percent_cli_upper: 1.923864; percent_cli_lower: 0.068136" role="graphics-symbol" aria-roledescription="errorbar" transform="translate(263.69237999999996,230)" x2="32.4752400000001" y2="0" stroke="blue" stroke-width="0.6"></line><line aria-label="CI 0.95: -0.015736; upper_percent_cli_lower: 1.970136; region: Bahia; percent_cli_upper: 1.970136; percent_cli_lower: -0.015736" role="graphics-symbol" aria-roledescription="errorbar" transform="translate(262.22462,90)" x2="34.75275999999997" y2="0" stroke="blue" stroke-width="0.6"></line><line aria-label="CI 0.95: 0.03908; upper_percent_cli_lower: 1.50712; region: Minas Gerais; percent_cli_upper: 1.50712; percent_cli_lower: 0.03908" role="graphics-symbol" aria-roledescription="errorbar" transform="translate(263.1839,250)" x2="25.690699999999993" y2="0" stroke="blue" stroke-width="0.6"></line><line aria-label="CI 0.95: -0.155364; upper_percent_cli_lower: 1.190764; region: Goiás; percent_cli_upper: 1.190764; percent_cli_lower: -0.155364" role="graphics-symbol" aria-roledescription="errorbar" transform="translate(259.78113,170)" x2="23.557240000000036" y2="0" stroke="blue" stroke-width="0.6"></line><line aria-label="CI 0.95: -0.17912; upper_percent_cli_lower: 0.89692; region: Rio Grande do Sul; percent_cli_upper: 0.89692; percent_cli_lower: -0.17912" role="graphics-symbol" aria-roledescription="errorbar" transform="translate(259.3654,390)" x2="18.83069999999998" y2="0" stroke="blue" stroke-width="0.6"></line><line aria-label="CI 0.95: -0.242344; upper_percent_cli_lower: 0.831344; region: Paraná; percent_cli_upper: 0.831344; percent_cli_lower: -0.242344" role="graphics-symbol" aria-roledescription="errorbar" transform="translate(258.25898,270)" x2="18.789539999999988" y2="0" stroke="blue" stroke-width="0.6"></line></g><g class="mark-group role-title"><g transform="translate(350,-17)"><path class="background" aria-hidden="true" d="M0,0h0v0h0Z" pointer-events="none"></path><g><g class="mark-text role-title-text" role="graphics-symbol" aria-roledescription="title" aria-label="Title text 'Facebook COVID-like illness symptom survey (last available date) for all states in Brazil'" pointer-events="none"><text text-anchor="middle" transform="translate(0,10)" font-family="sans-serif" font-size="13px" font-weight="bold" fill="#000" opacity="1">Facebook COVID-like illness symptom survey (last available date) for all states in Brazil</text></g></g><path class="foreground" aria-hidden="true" d="" pointer-events="none" display="none"></path></g></g></g><path class="foreground" aria-hidden="true" d="" display="none"></path></g></g></g></svg>