<svg class="marks" width="749" height="600" viewBox="0 0 749 600" version="1.1" xmlns="http://www.w3.org/2000/svg" xmlns:xlink="http://www.w3.org/1999/xlink"><rect width="749" height="600" fill="white"></rect><g fill="none" stroke-miterlimit="10" transform="translate(43,23)"><g class="mark-group role-frame root" role="graphics-object" aria-roledescription="group mark container"><g transform="translate(0,0)"><path class="background" aria-hidden="true" d="M0.5,0.5h700v540h-700Z"></path><g><g class="mark-group role-axis" aria-hidden="true"><g transform="translate(0.5,0.5)"><path class="background" aria-hidden="true" d="M0,0h0v0h0Z" pointer-events="none"></path><g><g class="mark-rule role-axis-grid" pointer-events="none"><line transform="translate(0,10)" x2="700" y2="0" stroke="#ddd" stroke-width="1" opacity="1"></line><line transform="translate(0,30)" x2="700" y2="0" stroke="#ddd" stroke-width="1" opacity="1"></line><line transform="translate(0,50)" x2="700" y2="0" stroke="#ddd" stroke-width="1" opacity="1"></line><line transform="translate(0,70)" x2="700" y2="0" stroke="#ddd" stroke-width="1" opacity="1"></line><line transform="translate(0,90)" x2="700" y2="0" stroke="#ddd" stroke-width="1" opacity="1"></line><line transform="translate(0,110)" x2="700" y2="0" stroke="#ddd" stroke-width="1" opacity="1"></line><line transform="translate(0,130)" x2="700" y2="0" stroke="#ddd" stroke-width="1" opacity="1"></line><line transform="translate(0,150)" x2="700" y2="0" stroke="#ddd" stroke-width="1" opacity="1"></line><line transform="translate(0,170)" x2="700" y2="0" stroke="#ddd" stroke-width="1" opacity="1"></line><line transform="translate(0,190)" x2="700" y2="0" stroke="#ddd" stroke-width="1" opacity="1"></line><line transform="translate(0,210)" x2="700" y2="0" stroke="#ddd" stroke-width="1" opacity="1"></line><line transform="translate(0,230)" x2="700" y2="0" stroke="#ddd" stroke-width="1" opacity="1"></line><line transform="translate(0,250)" x2="700" y2="0" stroke="#ddd" stroke-width="1" opacity="1"></line><line transform="translate(0,270)" x2="700" y2="0" stroke="#ddd" stroke-width="1" opacity="1"></line><line transform="translate(0,290)" x2="700" y2="0" stroke="#ddd" stroke-width="1" opacity="1"></line><line transform="translate(0,310)" x2="700" y2="0" stroke="#ddd" stroke-width="1" opacity="1"></line><line transform="translate(0,330)" x2="700" y2="0" stroke="#ddd" stroke-width="1" opacity="1"></line><line transform="translate(0,350)" x2="700" y2="0" stroke="#ddd" stroke-width="1" opacity="1"></line><line transform="translate(0,370)" x2="700" y2="0" stroke="#ddd" stroke-width="1" opacity="1"></line><line transform="translate(0,390)" x2="700" y2="0" stroke="#ddd" stroke-width="1" opacity="1"></line><line transform="translate(0,410)" x2="700" y2="0" stroke="#ddd" stroke-width="1" opacity="1"></line><line transform="translate(0,430)" x2="700" y2="0" stroke="#ddd" stroke-width="1" opacity="1"></line><line transform="translate(0,450)" x2="700" y2="0" stroke="#ddd" stroke-width="1" opacity="1"></line><line transform="translate(0,470)" x2="700" y2="0" stroke="#ddd" stroke-width="1" opacity="1"></line><line transform="translate(0,490)" x2="700" y2="0" stroke="#ddd" stroke-width="1" opacity="1"></line><line transform="translate(0,510)" x2="700" y2="0" stroke="#ddd" stroke-width="1" opacity="1"></line><line transform="translate(0,530)" x2="700" y2="0" stroke="#ddd" stroke-width="1" opacity="1"></line></g></g><path class="foreground" aria-hidden="true" d="" pointer-events="none" display="none"></path></g></g><g class="mark-group role-axis" role="graphics-symbol" aria-roledescription="axis" aria-label="X-axis titled 'Instantaneous reproduction number R(t), CI 0.975' for a linear scale with values from 0.7 to 1.6"><g transform="translate(0.5,540.5)"><path class="background" aria-hidden="true" d="M0,0h0v0h0Z" pointer-events="none"></path><g><g class="mark-rule role-axis-tick" pointer-events="none"><line transform="translate(0,0)" x2="0" y2="5" stroke="#888" stroke-width="1" opacity="1"></line><line transform="translate(39,0)" x2="0" y2="5" stroke="#888" stroke-width="1" opacity="1"></line><line transform="translate(78,0)" x2="0" y2="5" stroke="#888" stroke-width="1" opacity="1"></line><line transform="translate(117,0)" x2="0" y2="5" stroke="#888" stroke-width="1" opacity="1"></line><line transform="translate(156,0)" x2="0" y2="5" stroke="#888" stroke-width="1" opacity="1"></line><line transform="translate(194,0)" x2="0" y2="5" stroke="#888" stroke-width="1" opacity="1"></line><line transform="translate(233,0)" x2="0" y2="5" stroke="#888" stroke-width="1" opacity="1"></line><line transform="translate(272,0)" x2="0" y2="5" stroke="#888" stroke-width="1" opacity="1"></line><line transform="translate(311,0)" x2="0" y2="5" stroke="#888" stroke-width="1" opacity="1"></line><line transform="translate(350,0)" x2="0" y2="5" stroke="#888" stroke-width="1" opacity="1"></line><line transform="translate(389,0)" x2="0" y2="5" stroke="#888" stroke-width="1" opacity="1"></line><line transform="translate(428,0)" x2="0" y2="5" stroke="#888" stroke-width="1" opacity="1"></line><line transform="translate(467,0)" x2="0" y2="5" stroke="#888" stroke-width="1" opacity="1"></line><line transform="translate(506,0)" x2="0" y2="5" stroke="#888" stroke-width="1" opacity="1"></line><line transform="translate(544,0)" x2="0" y2="5" stroke="#888" stroke-width="1" opacity="1"></line><line transform="translate(583,0)" x2="0" y2="5" stroke="#888" stroke-width="1" opacity="1"></line><line transform="translate(622,0)" x2="0" y2="5" stroke="#888" stroke-width="1" opacity="1"></line><line transform="translate(661,0)" x2="0" y2="5" stroke="#888" stroke-width="1" opacity="1"></line><line transform="translate(700,0)" x2="0" y2="5" stroke="#888" stroke-width="1" opacity="1"></line></g><g class="mark-text role-axis-label" pointer-events="none"><text text-anchor="start" transform="translate(0,15)" font-family="sans-serif" font-size="10px" fill="#000" opacity="1">0.70</text><text text-anchor="middle" transform="translate(38.888888888888914,15)" font-family="sans-serif" font-size="10px" fill="#000" opacity="1">0.75</text><text text-anchor="middle" transform="translate(77.77777777777783,15)" font-family="sans-serif" font-size="10px" fill="#000" opacity="1">0.80</text><text text-anchor="middle" transform="translate(116.66666666666666,15)" font-family="sans-serif" font-size="10px" fill="#000" opacity="1">0.85</text><text text-anchor="middle" transform="translate(155.5555555555556,15)" font-family="sans-serif" font-size="10px" fill="#000" opacity="1">0.90</text><text text-anchor="middle" transform="translate(194.4444444444444,15)" font-family="sans-serif" font-size="10px" fill="#000" opacity="1">0.95</text><text text-anchor="middle" transform="translate(233.33333333333331,15)" font-family="sans-serif" font-size="10px" fill="#000" opacity="1">1.00</text><text text-anchor="middle" transform="translate(272.2222222222223,15)" font-family="sans-serif" font-size="10px" fill="#000" opacity="1">1.05</text><text text-anchor="middle" transform="translate(311.1111111111112,15)" font-family="sans-serif" font-size="10px" fill="#000" opacity="1">1.10</text><text text-anchor="middle" transform="translate(349.99999999999994,15)" font-family="sans-serif" font-size="10px" fill="#000" opacity="1">1.15</text><text text-anchor="middle" transform="translate(388.8888888888888,15)" font-family="sans-serif" font-size="10px" fill="#000" opacity="1">1.20</text><text text-anchor="middle" transform="translate(427.7777777777777,15)" font-family="sans-serif" font-size="10px" fill="#000" opacity="1">1.25</text><text text-anchor="middle" transform="translate(466.66666666666663,15)" font-family="sans-serif" font-size="10px" fill="#000" opacity="1">1.30</text><text text-anchor="middle" transform="translate(505.55555555555554,15)" font-family="sans-serif" font-size="10px" fill="#000" opacity="1">1.35</text><text text-anchor="middle" transform="translate(544.4444444444443,15)" font-family="sans-serif" font-size="10px" fill="#000" opacity="1">1.40</text><text text-anchor="middle" transform="translate(583.3333333333333,15)" font-family="sans-serif" font-size="10px" fill="#000" opacity="1">1.45</text><text text-anchor="middle" transform="translate(622.2222222222222,15)" font-family="sans-serif" font-size="10px" fill="#000" opacity="1">1.50</text><text text-anchor="middle" transform="translate(661.1111111111111,15)" font-family="sans-serif" font-size="10px" fill="#000" opacity="1">1.55</text><text text-anchor="end" transform="translate(700,15)" font-family="sans-serif" font-size="10px" fill="#000" opacity="1">1.60</text></g><g class="mark-rule role-axis-domain" pointer-events="none"><line transform="translate(0,0)" x2="700" y2="0" stroke="#888" stroke-width="1" opacity="1"></line></g><g class="mark-text role-axis-title" pointer-events="none"><text text-anchor="middle" transform="translate(350,30)" font-family="sans-serif" font-size="11px" font-weight="bold" fill="#000" opacity="1">Instantaneous reproduction number R(t), CI 0.975</text></g></g><path class="foreground" aria-hidden="true" d="" pointer-events="none" display="none"></path></g></g><g class="mark-group role-axis" role="graphics-symbol" aria-roledescription="axis" aria-label="Y-axis titled 'States' for a discrete scale with 27 values: AC, AL, AM, AP, BA, ending with TO"><g transform="translate(0.5,0.5)"><path class="background" aria-hidden="true" d="M0,0h0v0h0Z" pointer-events="none"></path><g><g class="mark-rule role-axis-tick" pointer-events="none"><line transform="translate(0,10)" x2="-5" y2="0" stroke="#888" stroke-width="1" opacity="1"></line><line transform="translate(0,30)" x2="-5" y2="0" stroke="#888" stroke-width="1" opacity="1"></line><line transform="translate(0,50)" x2="-5" y2="0" stroke="#888" stroke-width="1" opacity="1"></line><line transform="translate(0,70)" x2="-5" y2="0" stroke="#888" stroke-width="1" opacity="1"></line><line transform="translate(0,90)" x2="-5" y2="0" stroke="#888" stroke-width="1" opacity="1"></line><line transform="translate(0,110)" x2="-5" y2="0" stroke="#888" stroke-width="1" opacity="1"></line><line transform="translate(0,130)" x2="-5" y2="0" stroke="#888" stroke-width="1" opacity="1"></line><line transform="translate(0,150)" x2="-5" y2="0" stroke="#888" stroke-width="1" opacity="1"></line><line transform="translate(0,170)" x2="-5" y2="0" stroke="#888" stroke-width="1" opacity="1"></line><line transform="translate(0,190)" x2="-5" y2="0" stroke="#888" stroke-width="1" opacity="1"></line><line transform="translate(0,210)" x2="-5" y2="0" stroke="#888" stroke-width="1" opacity="1"></line><line transform="translate(0,230)" x2="-5" y2="0" stroke="#888" stroke-width="1" opacity="1"></line><line transform="translate(0,250)" x2="-5" y2="0" stroke="#888" stroke-width="1" opacity="1"></line><line transform="translate(0,270)" x2="-5" y2="0" stroke="#888" stroke-width="1" opacity="1"></line><line transform="translate(0,290)" x2="-5" y2="0" stroke="#888" stroke-width="1" opacity="1"></line><line transform="translate(0,310)" x2="-5" y2="0" stroke="#888" stroke-width="1" opacity="1"></line><line transform="translate(0,330)" x2="-5" y2="0" stroke="#888" stroke-width="1" opacity="1"></line><line transform="translate(0,350)" x2="-5" y2="0" stroke="#888" stroke-width="1" opacity="1"></line><line transform="translate(0,370)" x2="-5" y2="0" stroke="#888" stroke-width="1" opacity="1"></line><line transform="translate(0,390)" x2="-5" y2="0" stroke="#888" stroke-width="1" opacity="1"></line><line transform="translate(0,410)" x2="-5" y2="0" stroke="#888" stroke-width="1" opacity="1"></line><line transform="translate(0,430)" x2="-5" y2="0" stroke="#888" stroke-width="1" opacity="1"></line><line transform="translate(0,450)" x2="-5" y2="0" stroke="#888" stroke-width="1" opacity="1"></line><line transform="translate(0,470)" x2="-5" y2="0" stroke="#888" stroke-width="1" opacity="1"></line><line transform="translate(0,490)" x2="-5" y2="0" stroke="#888" stroke-width="1" opacity="1"></line><line transform="translate(0,510)" x2="-5" y2="0" stroke="#888" stroke-width="1" opacity="1"></line><line transform="translate(0,530)" x2="-5" y2="0" stroke="#888" stroke-width="1" opacity="1"></line></g><g class="mark-text role-axis-label" pointer-events="none"><text text-anchor="end" transform="translate(-7,12.5)" font-family="sans-serif" font-size="10px" fill="#000" opacity="1">AC</text><text text-anchor="end" transform="translate(-7,32.5)" font-family="sans-serif" font-size="10px" fill="#000" opacity="1">AL</text><text text-anchor="end" transform="translate(-7,52.5)" font-family="sans-serif" font-size="10px" fill="#000" opacity="1">AM</text><text text-anchor="end" transform="translate(-7,72.5)" font-family="sans-serif" font-size="10px" fill="#000" opacity="1">AP</text><text text-anchor="end" transform="translate(-7,92.5)" font-family="sans-serif" font-size="10px" fill="#000" opacity="1">BA</text><text text-anchor="end" transform="translate(-7,112.5)" font-family="sans-serif" font-size="10px" fill="#000" opacity="1">CE</text><text text-anchor="end" transform="translate(-7,132.5)" font-family="sans-serif" font-size="10px" fill="#000" opacity="1">DF</text><text text-anchor="end" transform="translate(-7,152.5)" font-family="sans-serif" font-size="10px" fill="#000" opacity="1">ES</text><text text-anchor="end" transform="translate(-7,172.5)" font-family="sans-serif" font-size="10px" fill="#000" opacity="1">GO</text><text text-anchor="end" transform="translate(-7,192.5)" font-family="sans-serif" font-size="10px" fill="#000" opacity="1">MA</text><text text-anchor="end" transform="translate(-7,212.5)" font-family="sans-serif" font-size="10px" fill="#000" opacity="1">MG</text><text text-anchor="end" transform="translate(-7,232.5)" font-family="sans-serif" font-size="10px" fill="#000" opacity="1">MS</text><text text-anchor="end" transform="translate(-7,252.5)" font-family="sans-serif" font-size="10px" fill="#000" opacity="1">MT</text><text text-anchor="end" transform="translate(-7,272.5)" font-family="sans-serif" font-size="10px" fill="#000" opacity="1">PA</text><text text-anchor="end" transform="translate(-7,292.5)" font-family="sans-serif" font-size="10px" fill="#000" opacity="1">PB</text><text text-anchor="end" transform="translate(-7,312.5)" font-family="sans-serif" font-size="10px" fill="#000" opacity="1">PE</text><text text-anchor="end" transform="translate(-7,332.5)" font-family="sans-serif" font-size="10px" fill="#000" opacity="1">PI</text><text text-anchor="end" transform="translate(-7,352.5)" font-family="sans-serif" font-size="10px" fill="#000" opacity="1">PR</text><text text-anchor="end" transform="translate(-7,372.5)" font-family="sans-serif" font-size="10px" fill="#000" opacity="1">RJ</text><text text-anchor="end" transform="translate(-7,392.5)" font-family="sans-serif" font-size="10px" fill="#000" opacity="1">RN</text><text text-anchor="end" transform="translate(-7,412.5)" font-family="sans-serif" font-size="10px" fill="#000" opacity="1">RO</text><text text-anchor="end" transform="translate(-7,432.5)" font-family="sans-serif" font-size="10px" fill="#000" opacity="1">RR</text><text text-anchor="end" transform="translate(-7,452.5)" font-family="sans-serif" font-size="10px" fill="#000" opacity="1">RS</text><text text-anchor="end" transform="translate(-7,472.5)" font-family="sans-serif" font-size="10px" fill="#000" opacity="1">SC</text><text text-anchor="end" transform="translate(-7,492.5)" font-family="sans-serif" font-size="10px" fill="#000" opacity="1">SE</text><text text-anchor="end" transform="translate(-7,512.5)" font-family="sans-serif" font-size="10px" fill="#000" opacity="1">SP</text><text text-anchor="end" transform="translate(-7,532.5)" font-family="sans-serif" font-size="10px" fill="#000" opacity="1">TO</text></g><g class="mark-rule role-axis-domain" pointer-events="none"><line transform="translate(0,0)" x2="0" y2="540" stroke="#888" stroke-width="1" opacity="1"></line></g><g class="mark-text role-axis-title" pointer-events="none"><text text-anchor="middle" transform="translate(-27,270) rotate(-90) translate(0,-2)" font-family="sans-serif" font-size="11px" font-weight="bold" fill="#000" opacity="1">States</text></g></g><path class="foreground" aria-hidden="true" d="" pointer-events="none" display="none"></path></g></g><g class="mark-symbol role-mark layer_0_marks" role="graphics-object" aria-roledescription="symbol mark container"><path aria-label="Instantaneous reproduction number R(t): 0.851700369972; States: CE" role="graphics-symbol" aria-roledescription="point" transform="translate(117.98917664505439,110)" d="M2.7386127875258306,0A2.7386127875258306,2.7386127875258306,0,1,1,-2.7386127875258306,0A2.7386127875258306,2.7386127875258306,0,1,1,2.7386127875258306,0" stroke="#4c78a8" stroke-width="2" opacity="0.7"></path><path aria-label="Instantaneous reproduction number R(t): 0.85358881761; States: AM" role="graphics-symbol" aria-roledescription="point" transform="translate(119.45796925202704,50)" d="M2.7386127875258306,0A2.7386127875258306,2.7386127875258306,0,1,1,-2.7386127875258306,0A2.7386127875258306,2.7386127875258306,0,1,1,2.7386127875258306,0" stroke="#4c78a8" stroke-width="2" opacity="0.7"></path><path aria-label="Instantaneous reproduction number R(t): 0.914717786546; States: PE" role="graphics-symbol" aria-roledescription="point" transform="translate(167.00272286936007,310)" d="M2.7386127875258306,0A2.7386127875258306,2.7386127875258306,0,1,1,-2.7386127875258306,0A2.7386127875258306,2.7386127875258306,0,1,1,2.7386127875258306,0" stroke="#4c78a8" stroke-width="2" opacity="0.7"></path><path aria-label="Instantaneous reproduction number R(t): 0.990559430823; States: RJ" role="graphics-symbol" aria-roledescription="point" transform="translate(225.99066841825174,370)" d="M2.7386127875258306,0A2.7386127875258306,2.7386127875258306,0,1,1,-2.7386127875258306,0A2.7386127875258306,2.7386127875258306,0,1,1,2.7386127875258306,0" stroke="#4c78a8" stroke-width="2" opacity="0.7"></path><path aria-label="Instantaneous reproduction number R(t): 1.00021959411; States: SC" role="graphics-symbol" aria-roledescription="point" transform="translate(233.5041287486679,470)" d="M2.7386127875258306,0A2.7386127875258306,2.7386127875258306,0,1,1,-2.7386127875258306,0A2.7386127875258306,2.7386127875258306,0,1,1,2.7386127875258306,0" stroke="#4c78a8" stroke-width="2" opacity="0.7"></path><path aria-label="Instantaneous reproduction number R(t): 1.00426440078; States: PA" role="graphics-symbol" aria-roledescription="point" transform="translate(236.65008949202252,270)" d="M2.7386127875258306,0A2.7386127875258306,2.7386127875258306,0,1,1,-2.7386127875258306,0A2.7386127875258306,2.7386127875258306,0,1,1,2.7386127875258306,0" stroke="#4c78a8" stroke-width="2" opacity="0.7"></path><path aria-label="Instantaneous reproduction number R(t): 1.03053387243; States: SP" role="graphics-symbol" aria-roledescription="point" transform="translate(257.0819007770214,510)" d="M2.7386127875258306,0A2.7386127875258306,2.7386127875258306,0,1,1,-2.7386127875258306,0A2.7386127875258306,2.7386127875258306,0,1,1,2.7386127875258306,0" stroke="#4c78a8" stroke-width="2" opacity="0.7"></path><path aria-label="Instantaneous reproduction number R(t): 1.05671313209; States: AP" role="graphics-symbol" aria-roledescription="point" transform="translate(277.44354718121076,70)" d="M2.7386127875258306,0A2.7386127875258306,2.7386127875258306,0,1,1,-2.7386127875258306,0A2.7386127875258306,2.7386127875258306,0,1,1,2.7386127875258306,0" stroke="#4c78a8" stroke-width="2" opacity="0.7"></path><path aria-label="Instantaneous reproduction number R(t): 1.07224678765; States: RS" role="graphics-symbol" aria-roledescription="point" transform="translate(289.52527928264453,450)" d="M2.7386127875258306,0A2.7386127875258306,2.7386127875258306,0,1,1,-2.7386127875258306,0A2.7386127875258306,2.7386127875258306,0,1,1,2.7386127875258306,0" stroke="#4c78a8" stroke-width="2" opacity="0.7"></path><path aria-label="Instantaneous reproduction number R(t): 1.07653172798; States: TO" role="graphics-symbol" aria-roledescription="point" transform="translate(292.85801064929547,530)" d="M2.7386127875258306,0A2.7386127875258306,2.7386127875258306,0,1,1,-2.7386127875258306,0A2.7386127875258306,2.7386127875258306,0,1,1,2.7386127875258306,0" stroke="#4c78a8" stroke-width="2" opacity="0.7"></path><path aria-label="Instantaneous reproduction number R(t): 1.10928655041; States: MA" role="graphics-symbol" aria-roledescription="point" transform="translate(318.33398365009816,190)" d="M2.7386127875258306,0A2.7386127875258306,2.7386127875258306,0,1,1,-2.7386127875258306,0A2.7386127875258306,2.7386127875258306,0,1,1,2.7386127875258306,0" stroke="#4c78a8" stroke-width="2" opacity="0.7"></path><path aria-label="Instantaneous reproduction number R(t): 1.11346575186; States: MG" role="graphics-symbol" aria-roledescription="point" transform="translate(321.5844736721313,210)" d="M2.7386127875258306,0A2.7386127875258306,2.7386127875258306,0,1,1,-2.7386127875258306,0A2.7386127875258306,2.7386127875258306,0,1,1,2.7386127875258306,0" stroke="#4c78a8" stroke-width="2" opacity="0.7"></path><path aria-label="Instantaneous reproduction number R(t): 1.12935410852; States: PB" role="graphics-symbol" aria-roledescription="point" transform="translate(333.9420844065145,290)" d="M2.7386127875258306,0A2.7386127875258306,2.7386127875258306,0,1,1,-2.7386127875258306,0A2.7386127875258306,2.7386127875258306,0,1,1,2.7386127875258306,0" stroke="#4c78a8" stroke-width="2" opacity="0.7"></path><path aria-label="Instantaneous reproduction number R(t): 1.13202634063; States: RR" role="graphics-symbol" aria-roledescription="point" transform="translate(336.020487154845,430)" d="M2.7386127875258306,0A2.7386127875258306,2.7386127875258306,0,1,1,-2.7386127875258306,0A2.7386127875258306,2.7386127875258306,0,1,1,2.7386127875258306,0" stroke="#4c78a8" stroke-width="2" opacity="0.7"></path><path aria-label="Instantaneous reproduction number R(t): 1.17618144512; States: BA" role="graphics-symbol" aria-roledescription="point" transform="translate(370.3633462022398,90)" d="M2.7386127875258306,0A2.7386127875258306,2.7386127875258306,0,1,1,-2.7386127875258306,0A2.7386127875258306,2.7386127875258306,0,1,1,2.7386127875258306,0" stroke="#4c78a8" stroke-width="2" opacity="0.7"></path><path aria-label="Instantaneous reproduction number R(t): 1.18101163916; States: AL" role="graphics-symbol" aria-roledescription="point" transform="translate(374.1201637875604,30)" d="M2.7386127875258306,0A2.7386127875258306,2.7386127875258306,0,1,1,-2.7386127875258306,0A2.7386127875258306,2.7386127875258306,0,1,1,2.7386127875258306,0" stroke="#4c78a8" stroke-width="2" opacity="0.7"></path><path aria-label="Instantaneous reproduction number R(t): 1.18734019414; States: AC" role="graphics-symbol" aria-roledescription="point" transform="translate(379.0423732221402,10)" d="M2.7386127875258306,0A2.7386127875258306,2.7386127875258306,0,1,1,-2.7386127875258306,0A2.7386127875258306,2.7386127875258306,0,1,1,2.7386127875258306,0" stroke="#4c78a8" stroke-width="2" opacity="0.7"></path><path aria-label="Instantaneous reproduction number R(t): 1.21747292786; States: PI" role="graphics-symbol" aria-roledescription="point" transform="translate(402.4789438907113,330)" d="M2.7386127875258306,0A2.7386127875258306,2.7386127875258306,0,1,1,-2.7386127875258306,0A2.7386127875258306,2.7386127875258306,0,1,1,2.7386127875258306,0" stroke="#4c78a8" stroke-width="2" opacity="0.7"></path><path aria-label="Instantaneous reproduction number R(t): 1.25872276657; States: SE" role="graphics-symbol" aria-roledescription="point" transform="translate(434.5621517788988,490)" d="M2.7386127875258306,0A2.7386127875258306,2.7386127875258306,0,1,1,-2.7386127875258306,0A2.7386127875258306,2.7386127875258306,0,1,1,2.7386127875258306,0" stroke="#4c78a8" stroke-width="2" opacity="0.7"></path><path aria-label="Instantaneous reproduction number R(t): 1.27153865957; States: ES" role="graphics-symbol" aria-roledescription="point" transform="translate(444.530068556369,150)" d="M2.7386127875258306,0A2.7386127875258306,2.7386127875258306,0,1,1,-2.7386127875258306,0A2.7386127875258306,2.7386127875258306,0,1,1,2.7386127875258306,0" stroke="#4c78a8" stroke-width="2" opacity="0.7"></path><path aria-label="Instantaneous reproduction number R(t): 1.28557761496; States: PR" role="graphics-symbol" aria-roledescription="point" transform="translate(455.44925607674406,350)" d="M2.7386127875258306,0A2.7386127875258306,2.7386127875258306,0,1,1,-2.7386127875258306,0A2.7386127875258306,2.7386127875258306,0,1,1,2.7386127875258306,0" stroke="#4c78a8" stroke-width="2" opacity="0.7"></path><path aria-label="Instantaneous reproduction number R(t): 1.28880751086; States: DF" role="graphics-symbol" aria-roledescription="point" transform="translate(457.96139733471927,130)" d="M2.7386127875258306,0A2.7386127875258306,2.7386127875258306,0,1,1,-2.7386127875258306,0A2.7386127875258306,2.7386127875258306,0,1,1,2.7386127875258306,0" stroke="#4c78a8" stroke-width="2" opacity="0.7"></path><path aria-label="Instantaneous reproduction number R(t): 1.30440592852; States: MS" role="graphics-symbol" aria-roledescription="point" transform="translate(470.0934999581127,230)" d="M2.7386127875258306,0A2.7386127875258306,2.7386127875258306,0,1,1,-2.7386127875258306,0A2.7386127875258306,2.7386127875258306,0,1,1,2.7386127875258306,0" stroke="#4c78a8" stroke-width="2" opacity="0.7"></path><path aria-label="Instantaneous reproduction number R(t): 1.33344919224; States: GO" role="graphics-symbol" aria-roledescription="point" transform="translate(492.68270507220996,170)" d="M2.7386127875258306,0A2.7386127875258306,2.7386127875258306,0,1,1,-2.7386127875258306,0A2.7386127875258306,2.7386127875258306,0,1,1,2.7386127875258306,0" stroke="#4c78a8" stroke-width="2" opacity="0.7"></path><path aria-label="Instantaneous reproduction number R(t): 1.35521768414; States: MT" role="graphics-symbol" aria-roledescription="point" transform="translate(509.61375432905294,250)" d="M2.7386127875258306,0A2.7386127875258306,2.7386127875258306,0,1,1,-2.7386127875258306,0A2.7386127875258306,2.7386127875258306,0,1,1,2.7386127875258306,0" stroke="#4c78a8" stroke-width="2" opacity="0.7"></path><path aria-label="Instantaneous reproduction number R(t): 1.3662784694; States: RO" role="graphics-symbol" aria-roledescription="point" transform="translate(518.2165873102,410)" d="M2.7386127875258306,0A2.7386127875258306,2.7386127875258306,0,1,1,-2.7386127875258306,0A2.7386127875258306,2.7386127875258306,0,1,1,2.7386127875258306,0" stroke="#4c78a8" stroke-width="2" opacity="0.7"></path><path aria-label="Instantaneous reproduction number R(t): 1.47949691299; States: RN" role="graphics-symbol" aria-roledescription="point" transform="translate(606.2753767715654,390)" d="M2.7386127875258306,0A2.7386127875258306,2.7386127875258306,0,1,1,-2.7386127875258306,0A2.7386127875258306,2.7386127875258306,0,1,1,2.7386127875258306,0" stroke="#4c78a8" stroke-width="2" opacity="0.7"></path></g><g class="mark-rule role-mark layer_1_marks" role="graphics-object" aria-roledescription="rule mark container"><line aria-label="a: 1" role="graphics-symbol" aria-roledescription="rule mark" transform="translate(233.33333333333331,0)" x2="0" y2="540" stroke="black" stroke-width="0.2"></line><line aria-label="a: 1" role="graphics-symbol" aria-roledescription="rule mark" transform="translate(233.33333333333331,0)" x2="0" y2="540" stroke="black" stroke-width="0.2"></line><line aria-label="a: 1" role="graphics-symbol" aria-roledescription="rule mark" transform="translate(233.33333333333331,0)" x2="0" y2="540" stroke="black" stroke-width="0.2"></line><line aria-label="a: 1" role="graphics-symbol" aria-roledescription="rule mark" transform="translate(233.33333333333331,0)" x2="0" y2="540" stroke="black" stroke-width="0.2"></line><line aria-label="a: 1" role="graphics-symbol" aria-roledescription="rule mark" transform="translate(233.33333333333331,0)" x2="0" y2="540" stroke="black" stroke-width="0.2"></line><line aria-label="a: 1" role="graphics-symbol" aria-roledescription="rule mark" transform="translate(233.33333333333331,0)" x2="0" y2="540" stroke="black" stroke-width="0.2"></line><line aria-label="a: 1" role="graphics-symbol" aria-roledescription="rule mark" transform="translate(233.33333333333331,0)" x2="0" y2="540" stroke="black" stroke-width="0.2"></line><line aria-label="a: 1" role="graphics-symbol" aria-roledescription="rule mark" transform="translate(233.33333333333331,0)" x2="0" y2="540" stroke="black" stroke-width="0.2"></line><line aria-label="a: 1" role="graphics-symbol" aria-roledescription="rule mark" transform="translate(233.33333333333331,0)" x2="0" y2="540" stroke="black" stroke-width="0.2"></line><line aria-label="a: 1" role="graphics-symbol" aria-roledescription="rule mark" transform="translate(233.33333333333331,0)" x2="0" y2="540" stroke="black" stroke-width="0.2"></line><line aria-label="a: 1" role="graphics-symbol" aria-roledescription="rule mark" transform="translate(233.33333333333331,0)" x2="0" y2="540" stroke="black" stroke-width="0.2"></line><line aria-label="a: 1" role="graphics-symbol" aria-roledescription="rule mark" transform="translate(233.33333333333331,0)" x2="0" y2="540" stroke="black" stroke-width="0.2"></line><line aria-label="a: 1" role="graphics-symbol" aria-roledescription="rule mark" transform="translate(233.33333333333331,0)" x2="0" y2="540" stroke="black" stroke-width="0.2"></line><line aria-label="a: 1" role="graphics-symbol" aria-roledescription="rule mark" transform="translate(233.33333333333331,0)" x2="0" y2="540" stroke="black" stroke-width="0.2"></line><line aria-label="a: 1" role="graphics-symbol" aria-roledescription="rule mark" transform="translate(233.33333333333331,0)" x2="0" y2="540" stroke="black" stroke-width="0.2"></line><line aria-label="a: 1" role="graphics-symbol" aria-roledescription="rule mark" transform="translate(233.33333333333331,0)" x2="0" y2="540" stroke="black" stroke-width="0.2"></line><line aria-label="a: 1" role="graphics-symbol" aria-roledescription="rule mark" transform="translate(233.33333333333331,0)" x2="0" y2="540" stroke="black" stroke-width="0.2"></line><line aria-label="a: 1" role="graphics-symbol" aria-roledescription="rule mark" transform="translate(233.33333333333331,0)" x2="0" y2="540" stroke="black" stroke-width="0.2"></line><line aria-label="a: 1" role="graphics-symbol" aria-roledescription="rule mark" transform="translate(233.33333333333331,0)" x2="0" y2="540" stroke="black" stroke-width="0.2"></line><line aria-label="a: 1" role="graphics-symbol" aria-roledescription="rule mark" transform="translate(233.33333333333331,0)" x2="0" y2="540" stroke="black" stroke-width="0.2"></line><line aria-label="a: 1" role="graphics-symbol" aria-roledescription="rule mark" transform="translate(233.33333333333331,0)" x2="0" y2="540" stroke="black" stroke-width="0.2"></line><line aria-label="a: 1" role="graphics-symbol" aria-roledescription="rule mark" transform="translate(233.33333333333331,0)" x2="0" y2="540" stroke="black" stroke-width="0.2"></line><line aria-label="a: 1" role="graphics-symbol" aria-roledescription="rule mark" transform="translate(233.33333333333331,0)" x2="0" y2="540" stroke="black" stroke-width="0.2"></line><line aria-label="a: 1" role="graphics-symbol" aria-roledescription="rule mark" transform="translate(233.33333333333331,0)" x2="0" y2="540" stroke="black" stroke-width="0.2"></line><line aria-label="a: 1" role="graphics-symbol" aria-roledescription="rule mark" transform="translate(233.33333333333331,0)" x2="0" y2="540" stroke="black" stroke-width="0.2"></line><line aria-label="a: 1" role="graphics-symbol" aria-roledescription="rule mark" transform="translate(233.33333333333331,0)" x2="0" y2="540" stroke="black" stroke-width="0.2"></line><line aria-label="a: 1" role="graphics-symbol" aria-roledescription="rule mark" transform="translate(233.33333333333331,0)" x2="0" y2="540" stroke="black" stroke-width="0.2"></line></g><g class="mark-rule role-mark layer_2_marks" role="graphics-object" aria-roledescription="rule mark container"><line aria-label="CI 0.975: 0.787840232559; upper_Quantile.0.025(R): 0.90155008973; index: CE; Quantile.0.975(R): 0.90155008973; Quantile.0.025(R): 0.787840232559" role="graphics-symbol" aria-roledescription="errorbar" transform="translate(68.32018087923005,110)" x2="88.44100002149979" y2="0" stroke="blue" stroke-width="0.6"></line><line aria-label="CI 0.975: 0.816182124823; upper_Quantile.0.025(R): 0.893425146393; index: AM; Quantile.0.975(R): 0.893425146393; Quantile.0.025(R): 0.816182124823" role="graphics-symbol" aria-roledescription="errorbar" transform="translate(90.36387486259164,50)" x2="60.077905665245936" y2="0" stroke="blue" stroke-width="0.6"></line><line aria-label="CI 0.975: 0.877184592757; upper_Quantile.0.025(R): 0.953762683738; index: PE; Quantile.0.975(R): 0.953762683738; Quantile.0.025(R): 0.877184592757" role="graphics-symbol" aria-roledescription="errorbar" transform="translate(137.81023881071013,310)" x2="59.56073743007303" y2="0" stroke="blue" stroke-width="0.6"></line><line aria-label="CI 0.975: 0.969984004991; upper_Quantile.0.025(R): 1.01518750252; index: RJ; Quantile.0.975(R): 1.01518750252; Quantile.0.025(R): 0.969984004991" role="graphics-symbol" aria-roledescription="errorbar" transform="translate(209.98755943743092,370)" x2="35.15827585911475" y2="0" stroke="blue" stroke-width="0.6"></line><line aria-label="CI 0.975: 0.959736523195; upper_Quantile.0.025(R): 1.04159584812; index: SC; Quantile.0.975(R): 1.04159584812; Quantile.0.025(R): 0.959736523195" role="graphics-symbol" aria-roledescription="errorbar" transform="translate(202.0172958186917,470)" x2="63.668363826349434" y2="0" stroke="blue" stroke-width="0.6"></line><line aria-label="CI 0.975: 0.961707565178; upper_Quantile.0.025(R): 1.05687311407; index: PA; Quantile.0.975(R): 1.05687311407; Quantile.0.025(R): 0.961707565178" role="graphics-symbol" aria-roledescription="errorbar" transform="translate(203.55032847165208,270)" x2="74.01764913976999" y2="0" stroke="blue" stroke-width="0.6"></line><line aria-label="CI 0.975: 1.00632903134; upper_Quantile.0.025(R): 1.05677497067; index: SP; Quantile.0.975(R): 1.05677497067; Quantile.0.025(R): 1.00632903134" role="graphics-symbol" aria-roledescription="errorbar" transform="translate(238.25591326181745,510)" x2="39.23573059534067" y2="0" stroke="blue" stroke-width="0.6"></line><line aria-label="CI 0.975: 1.01624156741; upper_Quantile.0.025(R): 1.09687763988; index: AP; Quantile.0.975(R): 1.09687763988; Quantile.0.025(R): 1.01624156741" role="graphics-symbol" aria-roledescription="errorbar" transform="translate(245.9656635438293,70)" x2="62.716945251206766" y2="0" stroke="blue" stroke-width="0.6"></line><line aria-label="CI 0.975: 1.03360958241; upper_Quantile.0.025(R): 1.11138062874; index: RS; Quantile.0.975(R): 1.11138062874; Quantile.0.025(R): 1.03360958241" role="graphics-symbol" aria-roledescription="errorbar" transform="translate(259.4741196497773,450)" x2="60.48859159450217" y2="0" stroke="blue" stroke-width="0.6"></line><line aria-label="CI 0.975: 1.02441262862; upper_Quantile.0.025(R): 1.12989116305; index: TO; Quantile.0.975(R): 1.12989116305; Quantile.0.025(R): 1.02441262862" role="graphics-symbol" aria-roledescription="errorbar" transform="translate(252.3209333700992,530)" x2="82.03886011063835" y2="0" stroke="blue" stroke-width="0.6"></line><line aria-label="CI 0.975: 1.05935385083; upper_Quantile.0.025(R): 1.16404403276; index: MA; Quantile.0.975(R): 1.16404403276; Quantile.0.025(R): 1.05935385083" role="graphics-symbol" aria-roledescription="errorbar" transform="translate(279.49743953286753,190)" x2="81.42569705941037" y2="0" stroke="blue" stroke-width="0.6"></line><line aria-label="CI 0.975: 1.06197795962; upper_Quantile.0.025(R): 1.17172618514; index: MG; Quantile.0.975(R): 1.17172618514; Quantile.0.025(R): 1.06197795962" role="graphics-symbol" aria-roledescription="errorbar" transform="translate(281.53841303576866,210)" x2="85.35973096476755" y2="0" stroke="blue" stroke-width="0.6"></line><line aria-label="CI 0.975: 1.07413485069; upper_Quantile.0.025(R): 1.18631712361; index: PB; Quantile.0.975(R): 1.18631712361; Quantile.0.025(R): 1.07413485069" role="graphics-symbol" aria-roledescription="errorbar" transform="translate(290.99377275857535,290)" x2="87.25287894165058" y2="0" stroke="blue" stroke-width="0.6"></line><line aria-label="CI 0.975: 1.04346235086; upper_Quantile.0.025(R): 1.23159697729; index: RR; Quantile.0.975(R): 1.23159697729; Quantile.0.025(R): 1.04346235086" role="graphics-symbol" aria-roledescription="errorbar" transform="translate(267.1373839998566,430)" x2="146.32693167136318" y2="0" stroke="blue" stroke-width="0.6"></line><line aria-label="CI 0.975: 1.11700983549; upper_Quantile.0.025(R): 1.24138238383; index: BA; Quantile.0.975(R): 1.24138238383; Quantile.0.025(R): 1.11700983549" role="graphics-symbol" aria-roledescription="errorbar" transform="translate(324.3409831582535,90)" x2="96.7342042641938" y2="0" stroke="blue" stroke-width="0.6"></line><line aria-label="CI 0.975: 1.13644445558; upper_Quantile.0.025(R): 1.23044474941; index: AL; Quantile.0.975(R): 1.23044474941; Quantile.0.025(R): 1.13644445558" role="graphics-symbol" aria-roledescription="errorbar" transform="translate(339.4567987820157,30)" x2="73.11133964772165" y2="0" stroke="blue" stroke-width="0.6"></line><line aria-label="CI 0.975: 1.09143684632; upper_Quantile.0.025(R): 1.30082452227; index: AC; Quantile.0.975(R): 1.30082452227; Quantile.0.025(R): 1.09143684632" role="graphics-symbol" aria-roledescription="errorbar" transform="translate(304.45088047296497,10)" x2="162.8570812922851" y2="0" stroke="blue" stroke-width="0.6"></line><line aria-label="CI 0.975: 1.14783046052; upper_Quantile.0.025(R): 1.29363228838; index: PI; Quantile.0.975(R): 1.29363228838; Quantile.0.025(R): 1.14783046052" role="graphics-symbol" aria-roledescription="errorbar" transform="translate(348.3125804031014,330)" x2="113.40142167370993" y2="0" stroke="blue" stroke-width="0.6"></line><line aria-label="CI 0.975: 1.17761374208; upper_Quantile.0.025(R): 1.34243367383; index: SE; Quantile.0.975(R): 1.34243367383; Quantile.0.025(R): 1.17761374208" role="graphics-symbol" aria-roledescription="errorbar" transform="translate(371.47735494748395,490)" x2="128.19328025660155" y2="0" stroke="blue" stroke-width="0.6"></line><line aria-label="CI 0.975: 1.17422966968; upper_Quantile.0.025(R): 1.37961340679; index: ES; Quantile.0.975(R): 1.37961340679; Quantile.0.025(R): 1.17422966968" role="graphics-symbol" aria-roledescription="errorbar" transform="translate(368.84529863644894,150)" x2="159.7429066411517" y2="0" stroke="blue" stroke-width="0.6"></line><line aria-label="CI 0.975: 1.21505834943; upper_Quantile.0.025(R): 1.36337854355; index: PR; Quantile.0.975(R): 1.36337854355; Quantile.0.025(R): 1.21505834943" role="graphics-symbol" aria-roledescription="errorbar" transform="translate(400.600938441858,350)" x2="115.36015098703393" y2="0" stroke="blue" stroke-width="0.6"></line><line aria-label="CI 0.975: 1.19757242108; upper_Quantile.0.025(R): 1.3847449804; index: DF; Quantile.0.975(R): 1.3847449804; Quantile.0.025(R): 1.19757242108" role="graphics-symbol" aria-roledescription="errorbar" transform="translate(387.0007719517496,130)" x2="145.57865724710416" y2="0" stroke="blue" stroke-width="0.6"></line><line aria-label="CI 0.975: 1.20157223584; upper_Quantile.0.025(R): 1.41313633082; index: MS; Quantile.0.975(R): 1.41313633082; Quantile.0.025(R): 1.20157223584" role="graphics-symbol" aria-roledescription="errorbar" transform="translate(390.1117389830284,230)" x2="164.54985165240163" y2="0" stroke="blue" stroke-width="0.6"></line><line aria-label="CI 0.975: 1.24489812463; upper_Quantile.0.025(R): 1.42579621816; index: GO; Quantile.0.975(R): 1.42579621816; Quantile.0.025(R): 1.24489812463" role="graphics-symbol" aria-roledescription="errorbar" transform="translate(423.8096524938871,170)" x2="140.69851718835963" y2="0" stroke="blue" stroke-width="0.6"></line><line aria-label="CI 0.975: 1.24350550518; upper_Quantile.0.025(R): 1.47625985087; index: MT; Quantile.0.975(R): 1.47625985087; Quantile.0.025(R): 1.24350550518" role="graphics-symbol" aria-roledescription="errorbar" transform="translate(422.72650402612453,250)" x2="181.03115776328877" y2="0" stroke="blue" stroke-width="0.6"></line><line aria-label="CI 0.975: 1.21518050903; upper_Quantile.0.025(R): 1.54519743231; index: RO; Quantile.0.975(R): 1.54519743231; Quantile.0.025(R): 1.21518050903" role="graphics-symbol" aria-roledescription="errorbar" transform="translate(400.69595146821143,410)" x2="256.67982921501914" y2="0" stroke="blue" stroke-width="0.6"></line><line aria-label="CI 0.975: 1.42224599545; upper_Quantile.0.025(R): 1.54044148704; index: RN; Quantile.0.975(R): 1.54044148704; Quantile.0.025(R): 1.42224599545" role="graphics-symbol" aria-roledescription="errorbar" transform="translate(561.746885351074,390)" x2="91.92982679037243" y2="0" stroke="blue" stroke-width="0.6"></line></g><g class="mark-group role-title"><g transform="translate(350,-17.2)"><path class="background" aria-hidden="true" d="M0,0h0v0h0Z" pointer-events="none"></path><g><g class="mark-text role-title-text" role="graphics-symbol" aria-roledescription="title" aria-label="Title text 'Instantaneous reproduction number estimate for all states in Brazil'" pointer-events="none"><text text-anchor="middle" transform="translate(0,10)" font-family="sans-serif" font-size="13px" font-weight="bold" fill="#000" opacity="1">Instantaneous reproduction number estimate for all states in Brazil</text></g></g><path class="foreground" aria-hidden="true" d="" pointer-events="none" display="none"></path></g></g></g><path class="foreground" aria-hidden="true" d="" display="none"></path></g></g></g></svg>