<svg class="marks" width="997" height="599" viewBox="0 0 997 599" version="1.1" xmlns="http://www.w3.org/2000/svg" xmlns:xlink="http://www.w3.org/1999/xlink"><rect width="997" height="599" fill="white"></rect><g fill="none" stroke-miterlimit="10" transform="translate(179,22)"><g class="mark-group role-frame root" role="graphics-object" aria-roledescription="group mark container"><g transform="translate(0,0)"><path class="background" aria-hidden="true" d="M0.5,0.5h700v540h-700Z"></path><g><g class="mark-group role-axis" aria-hidden="true"><g transform="translate(0.5,0.5)"><path class="background" aria-hidden="true" d="M0,0h0v0h0Z" pointer-events="none"></path><g><g class="mark-rule role-axis-grid" pointer-events="none"><line transform="translate(0,10)" x2="700" y2="0" stroke="#ddd" stroke-width="1" opacity="1"></line><line transform="translate(0,30)" x2="700" y2="0" stroke="#ddd" stroke-width="1" opacity="1"></line><line transform="translate(0,50)" x2="700" y2="0" stroke="#ddd" stroke-width="1" opacity="1"></line><line transform="translate(0,70)" x2="700" y2="0" stroke="#ddd" stroke-width="1" opacity="1"></line><line transform="translate(0,90)" x2="700" y2="0" stroke="#ddd" stroke-width="1" opacity="1"></line><line transform="translate(0,110)" x2="700" y2="0" stroke="#ddd" stroke-width="1" opacity="1"></line><line transform="translate(0,130)" x2="700" y2="0" stroke="#ddd" stroke-width="1" opacity="1"></line><line transform="translate(0,150)" x2="700" y2="0" stroke="#ddd" stroke-width="1" opacity="1"></line><line transform="translate(0,170)" x2="700" y2="0" stroke="#ddd" stroke-width="1" opacity="1"></line><line transform="translate(0,190)" x2="700" y2="0" stroke="#ddd" stroke-width="1" opacity="1"></line><line transform="translate(0,210)" x2="700" y2="0" stroke="#ddd" stroke-width="1" opacity="1"></line><line transform="translate(0,230)" x2="700" y2="0" stroke="#ddd" stroke-width="1" opacity="1"></line><line transform="translate(0,250)" x2="700" y2="0" stroke="#ddd" stroke-width="1" opacity="1"></line><line transform="translate(0,270)" x2="700" y2="0" stroke="#ddd" stroke-width="1" opacity="1"></line><line transform="translate(0,290)" x2="700" y2="0" stroke="#ddd" stroke-width="1" opacity="1"></line><line transform="translate(0,310)" x2="700" y2="0" stroke="#ddd" stroke-width="1" opacity="1"></line><line transform="translate(0,330)" x2="700" y2="0" stroke="#ddd" stroke-width="1" opacity="1"></line><line transform="translate(0,350)" x2="700" y2="0" stroke="#ddd" stroke-width="1" opacity="1"></line><line transform="translate(0,370)" x2="700" y2="0" stroke="#ddd" stroke-width="1" opacity="1"></line><line transform="translate(0,390)" x2="700" y2="0" stroke="#ddd" stroke-width="1" opacity="1"></line><line transform="translate(0,410)" x2="700" y2="0" stroke="#ddd" stroke-width="1" opacity="1"></line><line transform="translate(0,430)" x2="700" y2="0" stroke="#ddd" stroke-width="1" opacity="1"></line><line transform="translate(0,450)" x2="700" y2="0" stroke="#ddd" stroke-width="1" opacity="1"></line><line transform="translate(0,470)" x2="700" y2="0" stroke="#ddd" stroke-width="1" opacity="1"></line><line transform="translate(0,490)" x2="700" y2="0" stroke="#ddd" stroke-width="1" opacity="1"></line><line transform="translate(0,510)" x2="700" y2="0" stroke="#ddd" stroke-width="1" opacity="1"></line><line transform="translate(0,530)" x2="700" y2="0" stroke="#ddd" stroke-width="1" opacity="1"></line></g></g><path class="foreground" aria-hidden="true" d="" pointer-events="none" display="none"></path></g></g><g class="mark-group role-axis" role="graphics-symbol" aria-roledescription="axis" aria-label="X-axis titled 'Weighted percentage w/ COVID-like illness, CI 0.95' for a linear scale with values from -2 to 16"><g transform="translate(0.5,540.5)"><path class="background" aria-hidden="true" d="M0,0h0v0h0Z" pointer-events="none"></path><g><g class="mark-rule role-axis-tick" pointer-events="none"><line transform="translate(0,0)" x2="0" y2="5" stroke="#888" stroke-width="1" opacity="1"></line><line transform="translate(39,0)" x2="0" y2="5" stroke="#888" stroke-width="1" opacity="1"></line><line transform="translate(78,0)" x2="0" y2="5" stroke="#888" stroke-width="1" opacity="1"></line><line transform="translate(117,0)" x2="0" y2="5" stroke="#888" stroke-width="1" opacity="1"></line><line transform="translate(156,0)" x2="0" y2="5" stroke="#888" stroke-width="1" opacity="1"></line><line transform="translate(194,0)" x2="0" y2="5" stroke="#888" stroke-width="1" opacity="1"></line><line transform="translate(233,0)" x2="0" y2="5" stroke="#888" stroke-width="1" opacity="1"></line><line transform="translate(272,0)" x2="0" y2="5" stroke="#888" stroke-width="1" opacity="1"></line><line transform="translate(311,0)" x2="0" y2="5" stroke="#888" stroke-width="1" opacity="1"></line><line transform="translate(350,0)" x2="0" y2="5" stroke="#888" stroke-width="1" opacity="1"></line><line transform="translate(389,0)" x2="0" y2="5" stroke="#888" stroke-width="1" opacity="1"></line><line transform="translate(428,0)" x2="0" y2="5" stroke="#888" stroke-width="1" opacity="1"></line><line transform="translate(467,0)" x2="0" y2="5" stroke="#888" stroke-width="1" opacity="1"></line><line transform="translate(506,0)" x2="0" y2="5" stroke="#888" stroke-width="1" opacity="1"></line><line transform="translate(544,0)" x2="0" y2="5" stroke="#888" stroke-width="1" opacity="1"></line><line transform="translate(583,0)" x2="0" y2="5" stroke="#888" stroke-width="1" opacity="1"></line><line transform="translate(622,0)" x2="0" y2="5" stroke="#888" stroke-width="1" opacity="1"></line><line transform="translate(661,0)" x2="0" y2="5" stroke="#888" stroke-width="1" opacity="1"></line><line transform="translate(700,0)" x2="0" y2="5" stroke="#888" stroke-width="1" opacity="1"></line></g><g class="mark-text role-axis-label" pointer-events="none"><text text-anchor="start" transform="translate(0,15)" font-family="sans-serif" font-size="10px" fill="#000" opacity="1">-2</text><text text-anchor="middle" transform="translate(38.888888888888886,15)" font-family="sans-serif" font-size="10px" fill="#000" opacity="1">-1</text><text text-anchor="middle" transform="translate(77.77777777777777,15)" font-family="sans-serif" font-size="10px" fill="#000" opacity="1">0</text><text text-anchor="middle" transform="translate(116.66666666666666,15)" font-family="sans-serif" font-size="10px" fill="#000" opacity="1">1</text><text text-anchor="middle" transform="translate(155.55555555555554,15)" font-family="sans-serif" font-size="10px" fill="#000" opacity="1">2</text><text text-anchor="middle" transform="translate(194.44444444444446,15)" font-family="sans-serif" font-size="10px" fill="#000" opacity="1">3</text><text text-anchor="middle" transform="translate(233.33333333333331,15)" font-family="sans-serif" font-size="10px" fill="#000" opacity="1">4</text><text text-anchor="middle" transform="translate(272.22222222222223,15)" font-family="sans-serif" font-size="10px" fill="#000" opacity="1">5</text><text text-anchor="middle" transform="translate(311.1111111111111,15)" font-family="sans-serif" font-size="10px" fill="#000" opacity="1">6</text><text text-anchor="middle" transform="translate(350,15)" font-family="sans-serif" font-size="10px" fill="#000" opacity="1">7</text><text text-anchor="middle" transform="translate(388.8888888888889,15)" font-family="sans-serif" font-size="10px" fill="#000" opacity="1">8</text><text text-anchor="middle" transform="translate(427.7777777777778,15)" font-family="sans-serif" font-size="10px" fill="#000" opacity="1">9</text><text text-anchor="middle" transform="translate(466.66666666666663,15)" font-family="sans-serif" font-size="10px" fill="#000" opacity="1">10</text><text text-anchor="middle" transform="translate(505.55555555555554,15)" font-family="sans-serif" font-size="10px" fill="#000" opacity="1">11</text><text text-anchor="middle" transform="translate(544.4444444444445,15)" font-family="sans-serif" font-size="10px" fill="#000" opacity="1">12</text><text text-anchor="middle" transform="translate(583.3333333333334,15)" font-family="sans-serif" font-size="10px" fill="#000" opacity="1">13</text><text text-anchor="middle" transform="translate(622.2222222222222,15)" font-family="sans-serif" font-size="10px" fill="#000" opacity="1">14</text><text text-anchor="middle" transform="translate(661.1111111111111,15)" font-family="sans-serif" font-size="10px" fill="#000" opacity="1">15</text><text text-anchor="end" transform="translate(700,15)" font-family="sans-serif" font-size="10px" fill="#000" opacity="1">16</text></g><g class="mark-rule role-axis-domain" pointer-events="none"><line transform="translate(0,0)" x2="700" y2="0" stroke="#888" stroke-width="1" opacity="1"></line></g><g class="mark-text role-axis-title" pointer-events="none"><text text-anchor="middle" transform="translate(350,30)" font-family="sans-serif" font-size="11px" font-weight="bold" fill="#000" opacity="1">Weighted percentage w/ COVID-like illness, CI 0.95</text></g></g><path class="foreground" aria-hidden="true" d="" pointer-events="none" display="none"></path></g></g><g class="mark-group role-axis" role="graphics-symbol" aria-roledescription="axis" aria-label="Y-axis titled 'States' for a discrete scale with 27 values: Acre, Alagoas, Amapá, Amazonas, Bahia, ending with Tocantins"><g transform="translate(0.5,0.5)"><path class="background" aria-hidden="true" d="M0,0h0v0h0Z" pointer-events="none"></path><g><g class="mark-rule role-axis-tick" pointer-events="none"><line transform="translate(0,10)" x2="-5" y2="0" stroke="#888" stroke-width="1" opacity="1"></line><line transform="translate(0,30)" x2="-5" y2="0" stroke="#888" stroke-width="1" opacity="1"></line><line transform="translate(0,50)" x2="-5" y2="0" stroke="#888" stroke-width="1" opacity="1"></line><line transform="translate(0,70)" x2="-5" y2="0" stroke="#888" stroke-width="1" opacity="1"></line><line transform="translate(0,90)" x2="-5" y2="0" stroke="#888" stroke-width="1" opacity="1"></line><line transform="translate(0,110)" x2="-5" y2="0" stroke="#888" stroke-width="1" opacity="1"></line><line transform="translate(0,130)" x2="-5" y2="0" stroke="#888" stroke-width="1" opacity="1"></line><line transform="translate(0,150)" x2="-5" y2="0" stroke="#888" stroke-width="1" opacity="1"></line><line transform="translate(0,170)" x2="-5" y2="0" stroke="#888" stroke-width="1" opacity="1"></line><line transform="translate(0,190)" x2="-5" y2="0" stroke="#888" stroke-width="1" opacity="1"></line><line transform="translate(0,210)" x2="-5" y2="0" stroke="#888" stroke-width="1" opacity="1"></line><line transform="translate(0,230)" x2="-5" y2="0" stroke="#888" stroke-width="1" opacity="1"></line><line transform="translate(0,250)" x2="-5" y2="0" stroke="#888" stroke-width="1" opacity="1"></line><line transform="translate(0,270)" x2="-5" y2="0" stroke="#888" stroke-width="1" opacity="1"></line><line transform="translate(0,290)" x2="-5" y2="0" stroke="#888" stroke-width="1" opacity="1"></line><line transform="translate(0,310)" x2="-5" y2="0" stroke="#888" stroke-width="1" opacity="1"></line><line transform="translate(0,330)" x2="-5" y2="0" stroke="#888" stroke-width="1" opacity="1"></line><line transform="translate(0,350)" x2="-5" y2="0" stroke="#888" stroke-width="1" opacity="1"></line><line transform="translate(0,370)" x2="-5" y2="0" stroke="#888" stroke-width="1" opacity="1"></line><line transform="translate(0,390)" x2="-5" y2="0" stroke="#888" stroke-width="1" opacity="1"></line><line transform="translate(0,410)" x2="-5" y2="0" stroke="#888" stroke-width="1" opacity="1"></line><line transform="translate(0,430)" x2="-5" y2="0" stroke="#888" stroke-width="1" opacity="1"></line><line transform="translate(0,450)" x2="-5" y2="0" stroke="#888" stroke-width="1" opacity="1"></line><line transform="translate(0,470)" x2="-5" y2="0" stroke="#888" stroke-width="1" opacity="1"></line><line transform="translate(0,490)" x2="-5" y2="0" stroke="#888" stroke-width="1" opacity="1"></line><line transform="translate(0,510)" x2="-5" y2="0" stroke="#888" stroke-width="1" opacity="1"></line><line transform="translate(0,530)" x2="-5" y2="0" stroke="#888" stroke-width="1" opacity="1"></line></g><g class="mark-text role-axis-label" pointer-events="none"><text text-anchor="end" transform="translate(-7,12.5)" font-family="sans-serif" font-size="10px" fill="#000" opacity="1">Acre</text><text text-anchor="end" transform="translate(-7,32.5)" font-family="sans-serif" font-size="10px" fill="#000" opacity="1">Alagoas</text><text text-anchor="end" transform="translate(-7,52.5)" font-family="sans-serif" font-size="10px" fill="#000" opacity="1">Amapá</text><text text-anchor="end" transform="translate(-7,72.5)" font-family="sans-serif" font-size="10px" fill="#000" opacity="1">Amazonas</text><text text-anchor="end" transform="translate(-7,92.5)" font-family="sans-serif" font-size="10px" fill="#000" opacity="1">Bahia</text><text text-anchor="end" transform="translate(-7,112.5)" font-family="sans-serif" font-size="10px" fill="#000" opacity="1">Ceará</text><text text-anchor="end" transform="translate(-7,132.5)" font-family="sans-serif" font-size="10px" fill="#000" opacity="1">Distrito Federal</text><text text-anchor="end" transform="translate(-7,152.5)" font-family="sans-serif" font-size="10px" fill="#000" opacity="1">Espírito Santo</text><text text-anchor="end" transform="translate(-7,172.5)" font-family="sans-serif" font-size="10px" fill="#000" opacity="1">Goiás</text><text text-anchor="end" transform="translate(-7,192.5)" font-family="sans-serif" font-size="10px" fill="#000" opacity="1">Maranhão</text><text text-anchor="end" transform="translate(-7,212.5)" font-family="sans-serif" font-size="10px" fill="#000" opacity="1">Mato Grosso</text><text text-anchor="end" transform="translate(-7,232.5)" font-family="sans-serif" font-size="10px" fill="#000" opacity="1">Mato Grosso do Sul</text><text text-anchor="end" transform="translate(-7,252.5)" font-family="sans-serif" font-size="10px" fill="#000" opacity="1">Minas Gerais</text><text text-anchor="end" transform="translate(-7,272.5)" font-family="sans-serif" font-size="10px" fill="#000" opacity="1">Paraná</text><text text-anchor="end" transform="translate(-7,292.5)" font-family="sans-serif" font-size="10px" fill="#000" opacity="1">Paraíba</text><text text-anchor="end" transform="translate(-7,312.5)" font-family="sans-serif" font-size="10px" fill="#000" opacity="1">Pará</text><text text-anchor="end" transform="translate(-7,332.5)" font-family="sans-serif" font-size="10px" fill="#000" opacity="1">Pernambuco</text><text text-anchor="end" transform="translate(-7,352.5)" font-family="sans-serif" font-size="10px" fill="#000" opacity="1">Piauí</text><text text-anchor="end" transform="translate(-7,372.5)" font-family="sans-serif" font-size="10px" fill="#000" opacity="1">Rio Grande do Norte</text><text text-anchor="end" transform="translate(-7,392.5)" font-family="sans-serif" font-size="10px" fill="#000" opacity="1">Rio Grande do Sul</text><text text-anchor="end" transform="translate(-7,412.5)" font-family="sans-serif" font-size="10px" fill="#000" opacity="1">Rio de Janeiro</text><text text-anchor="end" transform="translate(-7,432.5)" font-family="sans-serif" font-size="10px" fill="#000" opacity="1">Rondônia</text><text text-anchor="end" transform="translate(-7,452.5)" font-family="sans-serif" font-size="10px" fill="#000" opacity="1">Roraima</text><text text-anchor="end" transform="translate(-7,472.5)" font-family="sans-serif" font-size="10px" fill="#000" opacity="1">Santa Catarina</text><text text-anchor="end" transform="translate(-7,492.5)" font-family="sans-serif" font-size="10px" fill="#000" opacity="1">Sergipe</text><text text-anchor="end" transform="translate(-7,512.5)" font-family="sans-serif" font-size="10px" fill="#000" opacity="1">São Paulo</text><text text-anchor="end" transform="translate(-7,532.5)" font-family="sans-serif" font-size="10px" fill="#000" opacity="1">Tocantins</text></g><g class="mark-rule role-axis-domain" pointer-events="none"><line transform="translate(0,0)" x2="0" y2="540" stroke="#888" stroke-width="1" opacity="1"></line></g><g class="mark-text role-axis-title" pointer-events="none"><text text-anchor="middle" transform="translate(-163,270) rotate(-90) translate(0,-2)" font-family="sans-serif" font-size="11px" font-weight="bold" fill="#000" opacity="1">States</text></g></g><path class="foreground" aria-hidden="true" d="" pointer-events="none" display="none"></path></g></g><g class="mark-symbol role-mark layer_0_marks" role="graphics-object" aria-roledescription="symbol mark container"><path aria-label="Weighted percentage w/ COVID-like illness: 7.5218; States: Acre" role="graphics-symbol" aria-roledescription="point" transform="translate(370.29222222222216,10)" d="M2.7386127875258306,0A2.7386127875258306,2.7386127875258306,0,1,1,-2.7386127875258306,0A2.7386127875258306,2.7386127875258306,0,1,1,2.7386127875258306,0" stroke="#4c78a8" stroke-width="2" opacity="0.7"></path><path aria-label="Weighted percentage w/ COVID-like illness: 7.1773; States: Roraima" role="graphics-symbol" aria-roledescription="point" transform="translate(356.89500000000004,450)" d="M2.7386127875258306,0A2.7386127875258306,2.7386127875258306,0,1,1,-2.7386127875258306,0A2.7386127875258306,2.7386127875258306,0,1,1,2.7386127875258306,0" stroke="#4c78a8" stroke-width="2" opacity="0.7"></path><path aria-label="Weighted percentage w/ COVID-like illness: 6.7946; States: Amapá" role="graphics-symbol" aria-roledescription="point" transform="translate(342.01222222222225,50)" d="M2.7386127875258306,0A2.7386127875258306,2.7386127875258306,0,1,1,-2.7386127875258306,0A2.7386127875258306,2.7386127875258306,0,1,1,2.7386127875258306,0" stroke="#4c78a8" stroke-width="2" opacity="0.7"></path><path aria-label="Weighted percentage w/ COVID-like illness: 6.5552; States: Amazonas" role="graphics-symbol" aria-roledescription="point" transform="translate(332.7022222222222,70)" d="M2.7386127875258306,0A2.7386127875258306,2.7386127875258306,0,1,1,-2.7386127875258306,0A2.7386127875258306,2.7386127875258306,0,1,1,2.7386127875258306,0" stroke="#4c78a8" stroke-width="2" opacity="0.7"></path><path aria-label="Weighted percentage w/ COVID-like illness: 6.0206; States: Pará" role="graphics-symbol" aria-roledescription="point" transform="translate(311.9122222222222,310)" d="M2.7386127875258306,0A2.7386127875258306,2.7386127875258306,0,1,1,-2.7386127875258306,0A2.7386127875258306,2.7386127875258306,0,1,1,2.7386127875258306,0" stroke="#4c78a8" stroke-width="2" opacity="0.7"></path><path aria-label="Weighted percentage w/ COVID-like illness: 4.9159; States: Rondônia" role="graphics-symbol" aria-roledescription="point" transform="translate(268.95166666666665,430)" d="M2.7386127875258306,0A2.7386127875258306,2.7386127875258306,0,1,1,-2.7386127875258306,0A2.7386127875258306,2.7386127875258306,0,1,1,2.7386127875258306,0" stroke="#4c78a8" stroke-width="2" opacity="0.7"></path><path aria-label="Weighted percentage w/ COVID-like illness: 3.9266; States: Mato Grosso" role="graphics-symbol" aria-roledescription="point" transform="translate(230.47888888888892,210)" d="M2.7386127875258306,0A2.7386127875258306,2.7386127875258306,0,1,1,-2.7386127875258306,0A2.7386127875258306,2.7386127875258306,0,1,1,2.7386127875258306,0" stroke="#4c78a8" stroke-width="2" opacity="0.7"></path><path aria-label="Weighted percentage w/ COVID-like illness: 3.6968; States: Maranhão" role="graphics-symbol" aria-roledescription="point" transform="translate(221.54222222222222,190)" d="M2.7386127875258306,0A2.7386127875258306,2.7386127875258306,0,1,1,-2.7386127875258306,0A2.7386127875258306,2.7386127875258306,0,1,1,2.7386127875258306,0" stroke="#4c78a8" stroke-width="2" opacity="0.7"></path><path aria-label="Weighted percentage w/ COVID-like illness: 3.4757; States: Rio Grande do Norte" role="graphics-symbol" aria-roledescription="point" transform="translate(212.9438888888889,370)" d="M2.7386127875258306,0A2.7386127875258306,2.7386127875258306,0,1,1,-2.7386127875258306,0A2.7386127875258306,2.7386127875258306,0,1,1,2.7386127875258306,0" stroke="#4c78a8" stroke-width="2" opacity="0.7"></path><path aria-label="Weighted percentage w/ COVID-like illness: 3.402; States: Pernambuco" role="graphics-symbol" aria-roledescription="point" transform="translate(210.07777777777778,330)" d="M2.7386127875258306,0A2.7386127875258306,2.7386127875258306,0,1,1,-2.7386127875258306,0A2.7386127875258306,2.7386127875258306,0,1,1,2.7386127875258306,0" stroke="#4c78a8" stroke-width="2" opacity="0.7"></path><path aria-label="Weighted percentage w/ COVID-like illness: 3.3327; States: Espírito Santo" role="graphics-symbol" aria-roledescription="point" transform="translate(207.3827777777778,150)" d="M2.7386127875258306,0A2.7386127875258306,2.7386127875258306,0,1,1,-2.7386127875258306,0A2.7386127875258306,2.7386127875258306,0,1,1,2.7386127875258306,0" stroke="#4c78a8" stroke-width="2" opacity="0.7"></path><path aria-label="Weighted percentage w/ COVID-like illness: 2.9607; States: Tocantins" role="graphics-symbol" aria-roledescription="point" transform="translate(192.91611111111112,530)" d="M2.7386127875258306,0A2.7386127875258306,2.7386127875258306,0,1,1,-2.7386127875258306,0A2.7386127875258306,2.7386127875258306,0,1,1,2.7386127875258306,0" stroke="#4c78a8" stroke-width="2" opacity="0.7"></path><path aria-label="Weighted percentage w/ COVID-like illness: 2.6513; States: Ceará" role="graphics-symbol" aria-roledescription="point" transform="translate(180.8838888888889,110)" d="M2.7386127875258306,0A2.7386127875258306,2.7386127875258306,0,1,1,-2.7386127875258306,0A2.7386127875258306,2.7386127875258306,0,1,1,2.7386127875258306,0" stroke="#4c78a8" stroke-width="2" opacity="0.7"></path><path aria-label="Weighted percentage w/ COVID-like illness: 2.5184; States: Rio de Janeiro" role="graphics-symbol" aria-roledescription="point" transform="translate(175.71555555555554,410)" d="M2.7386127875258306,0A2.7386127875258306,2.7386127875258306,0,1,1,-2.7386127875258306,0A2.7386127875258306,2.7386127875258306,0,1,1,2.7386127875258306,0" stroke="#4c78a8" stroke-width="2" opacity="0.7"></path><path aria-label="Weighted percentage w/ COVID-like illness: 2.513; States: Alagoas" role="graphics-symbol" aria-roledescription="point" transform="translate(175.50555555555556,30)" d="M2.7386127875258306,0A2.7386127875258306,2.7386127875258306,0,1,1,-2.7386127875258306,0A2.7386127875258306,2.7386127875258306,0,1,1,2.7386127875258306,0" stroke="#4c78a8" stroke-width="2" opacity="0.7"></path><path aria-label="Weighted percentage w/ COVID-like illness: 2.4198; States: Piauí" role="graphics-symbol" aria-roledescription="point" transform="translate(171.88111111111112,350)" d="M2.7386127875258306,0A2.7386127875258306,2.7386127875258306,0,1,1,-2.7386127875258306,0A2.7386127875258306,2.7386127875258306,0,1,1,2.7386127875258306,0" stroke="#4c78a8" stroke-width="2" opacity="0.7"></path><path aria-label="Weighted percentage w/ COVID-like illness: 2.3878; States: Sergipe" role="graphics-symbol" aria-roledescription="point" transform="translate(170.63666666666668,490)" d="M2.7386127875258306,0A2.7386127875258306,2.7386127875258306,0,1,1,-2.7386127875258306,0A2.7386127875258306,2.7386127875258306,0,1,1,2.7386127875258306,0" stroke="#4c78a8" stroke-width="2" opacity="0.7"></path><path aria-label="Weighted percentage w/ COVID-like illness: 2.3577; States: Santa Catarina" role="graphics-symbol" aria-roledescription="point" transform="translate(169.4661111111111,470)" d="M2.7386127875258306,0A2.7386127875258306,2.7386127875258306,0,1,1,-2.7386127875258306,0A2.7386127875258306,2.7386127875258306,0,1,1,2.7386127875258306,0" stroke="#4c78a8" stroke-width="2" opacity="0.7"></path><path aria-label="Weighted percentage w/ COVID-like illness: 2.2871; States: Bahia" role="graphics-symbol" aria-roledescription="point" transform="translate(166.72055555555553,90)" d="M2.7386127875258306,0A2.7386127875258306,2.7386127875258306,0,1,1,-2.7386127875258306,0A2.7386127875258306,2.7386127875258306,0,1,1,2.7386127875258306,0" stroke="#4c78a8" stroke-width="2" opacity="0.7"></path><path aria-label="Weighted percentage w/ COVID-like illness: 2.067; States: Mato Grosso do Sul" role="graphics-symbol" aria-roledescription="point" transform="translate(158.16111111111113,230)" d="M2.7386127875258306,0A2.7386127875258306,2.7386127875258306,0,1,1,-2.7386127875258306,0A2.7386127875258306,2.7386127875258306,0,1,1,2.7386127875258306,0" stroke="#4c78a8" stroke-width="2" opacity="0.7"></path><path aria-label="Weighted percentage w/ COVID-like illness: 2.016; States: São Paulo" role="graphics-symbol" aria-roledescription="point" transform="translate(156.17777777777778,510)" d="M2.7386127875258306,0A2.7386127875258306,2.7386127875258306,0,1,1,-2.7386127875258306,0A2.7386127875258306,2.7386127875258306,0,1,1,2.7386127875258306,0" stroke="#4c78a8" stroke-width="2" opacity="0.7"></path><path aria-label="Weighted percentage w/ COVID-like illness: 2.0154; States: Goiás" role="graphics-symbol" aria-roledescription="point" transform="translate(156.15444444444444,170)" d="M2.7386127875258306,0A2.7386127875258306,2.7386127875258306,0,1,1,-2.7386127875258306,0A2.7386127875258306,2.7386127875258306,0,1,1,2.7386127875258306,0" stroke="#4c78a8" stroke-width="2" opacity="0.7"></path><path aria-label="Weighted percentage w/ COVID-like illness: 2.0069; States: Distrito Federal" role="graphics-symbol" aria-roledescription="point" transform="translate(155.8238888888889,130)" d="M2.7386127875258306,0A2.7386127875258306,2.7386127875258306,0,1,1,-2.7386127875258306,0A2.7386127875258306,2.7386127875258306,0,1,1,2.7386127875258306,0" stroke="#4c78a8" stroke-width="2" opacity="0.7"></path><path aria-label="Weighted percentage w/ COVID-like illness: 1.5425; States: Minas Gerais" role="graphics-symbol" aria-roledescription="point" transform="translate(137.76388888888889,250)" d="M2.7386127875258306,0A2.7386127875258306,2.7386127875258306,0,1,1,-2.7386127875258306,0A2.7386127875258306,2.7386127875258306,0,1,1,2.7386127875258306,0" stroke="#4c78a8" stroke-width="2" opacity="0.7"></path><path aria-label="Weighted percentage w/ COVID-like illness: 1.5299; States: Paraná" role="graphics-symbol" aria-roledescription="point" transform="translate(137.2738888888889,270)" d="M2.7386127875258306,0A2.7386127875258306,2.7386127875258306,0,1,1,-2.7386127875258306,0A2.7386127875258306,2.7386127875258306,0,1,1,2.7386127875258306,0" stroke="#4c78a8" stroke-width="2" opacity="0.7"></path><path aria-label="Weighted percentage w/ COVID-like illness: 1.131; States: Rio Grande do Sul" role="graphics-symbol" aria-roledescription="point" transform="translate(121.76111111111112,390)" d="M2.7386127875258306,0A2.7386127875258306,2.7386127875258306,0,1,1,-2.7386127875258306,0A2.7386127875258306,2.7386127875258306,0,1,1,2.7386127875258306,0" stroke="#4c78a8" stroke-width="2" opacity="0.7"></path><path aria-label="Weighted percentage w/ COVID-like illness: 0.9993; States: Paraíba" role="graphics-symbol" aria-roledescription="point" transform="translate(116.63944444444444,290)" d="M2.7386127875258306,0A2.7386127875258306,2.7386127875258306,0,1,1,-2.7386127875258306,0A2.7386127875258306,2.7386127875258306,0,1,1,2.7386127875258306,0" stroke="#4c78a8" stroke-width="2" opacity="0.7"></path></g><g class="mark-rule role-mark layer_1_marks" role="graphics-object" aria-roledescription="rule mark container"><line aria-label="CI 0.95: 0.651216; upper_percent_cli_lower: 14.392384; region: Acre; percent_cli_upper: 14.392384; percent_cli_lower: 0.651216" role="graphics-symbol" aria-roledescription="errorbar" transform="translate(103.1028444444444,10)" x2="534.3787555555556" y2="0" stroke="blue" stroke-width="0.6"></line><line aria-label="CI 0.95: 1.20126; upper_percent_cli_lower: 13.15334; region: Roraima; percent_cli_upper: 13.15334; percent_cli_lower: 1.20126" role="graphics-symbol" aria-roledescription="errorbar" transform="translate(124.49344444444446,450)" x2="464.8031111111111" y2="0" stroke="blue" stroke-width="0.6"></line><line aria-label="CI 0.95: 1.1204; upper_percent_cli_lower: 12.4688; region: Amapá; percent_cli_upper: 12.4688; percent_cli_lower: 1.1204" role="graphics-symbol" aria-roledescription="errorbar" transform="translate(121.34888888888892,50)" x2="441.3266666666666" y2="0" stroke="blue" stroke-width="0.6"></line><line aria-label="CI 0.95: 2.742804; upper_percent_cli_lower: 10.367596; region: Amazonas; percent_cli_upper: 10.367596; percent_cli_lower: 2.742804" role="graphics-symbol" aria-roledescription="errorbar" transform="translate(184.44237777777775,70)" x2="296.5196888888888" y2="0" stroke="blue" stroke-width="0.6"></line><line aria-label="CI 0.95: 3.445552; upper_percent_cli_lower: 8.595648; region: Pará; percent_cli_upper: 8.595648; percent_cli_lower: 3.445552" role="graphics-symbol" aria-roledescription="errorbar" transform="translate(211.77146666666667,310)" x2="200.28151111111114" y2="0" stroke="blue" stroke-width="0.6"></line><line aria-label="CI 0.95: 1.18308; upper_percent_cli_lower: 8.64872; region: Rondônia; percent_cli_upper: 8.64872; percent_cli_lower: 1.18308" role="graphics-symbol" aria-roledescription="errorbar" transform="translate(123.78644444444446,430)" x2="290.33044444444454" y2="0" stroke="blue" stroke-width="0.6"></line><line aria-label="CI 0.95: 1.6285; upper_percent_cli_lower: 6.2247; region: Mato Grosso; percent_cli_upper: 6.2247; percent_cli_lower: 1.6285" role="graphics-symbol" aria-roledescription="errorbar" transform="translate(141.10833333333335,210)" x2="178.74111111111102" y2="0" stroke="blue" stroke-width="0.6"></line><line aria-label="CI 0.95: 1.224064; upper_percent_cli_lower: 6.169536; region: Maranhão; percent_cli_upper: 6.169536; percent_cli_lower: 1.224064" role="graphics-symbol" aria-roledescription="errorbar" transform="translate(125.38026666666667,190)" x2="192.32391111111116" y2="0" stroke="blue" stroke-width="0.6"></line><line aria-label="CI 0.95: 1.151336; upper_percent_cli_lower: 5.800064; region: Rio Grande do Norte; percent_cli_upper: 5.800064; percent_cli_lower: 1.151336" role="graphics-symbol" aria-roledescription="errorbar" transform="translate(122.55195555555557,370)" x2="180.78386666666668" y2="0" stroke="blue" stroke-width="0.6"></line><line aria-label="CI 0.95: 1.56646; upper_percent_cli_lower: 5.23754; region: Pernambuco; percent_cli_upper: 5.23754; percent_cli_lower: 1.56646" role="graphics-symbol" aria-roledescription="errorbar" transform="translate(138.69566666666668,330)" x2="142.7642222222222" y2="0" stroke="blue" stroke-width="0.6"></line><line aria-label="CI 0.95: 1.112216; upper_percent_cli_lower: 5.553184; region: Espírito Santo; percent_cli_upper: 5.553184; percent_cli_lower: 1.112216" role="graphics-symbol" aria-roledescription="errorbar" transform="translate(121.03062222222222,150)" x2="172.7043111111111" y2="0" stroke="blue" stroke-width="0.6"></line><line aria-label="CI 0.95: -0.6751; upper_percent_cli_lower: 6.5965; region: Tocantins; percent_cli_upper: 6.5965; percent_cli_lower: -0.6751" role="graphics-symbol" aria-roledescription="errorbar" transform="translate(51.523888888888884,530)" x2="282.7844444444444" y2="0" stroke="blue" stroke-width="0.6"></line><line aria-label="CI 0.95: 0.997648; upper_percent_cli_lower: 4.304952; region: Ceará; percent_cli_upper: 4.304952; percent_cli_lower: 0.997648" role="graphics-symbol" aria-roledescription="errorbar" transform="translate(116.5752,110)" x2="128.61737777777776" y2="0" stroke="blue" stroke-width="0.6"></line><line aria-label="CI 0.95: 1.480384; upper_percent_cli_lower: 3.556416; region: Rio de Janeiro; percent_cli_upper: 3.556416; percent_cli_lower: 1.480384" role="graphics-symbol" aria-roledescription="errorbar" transform="translate(135.34826666666666,410)" x2="80.73457777777779" y2="0" stroke="blue" stroke-width="0.6"></line><line aria-label="CI 0.95: -0.17318; upper_percent_cli_lower: 5.19918; region: Alagoas; percent_cli_upper: 5.19918; percent_cli_lower: -0.17318" role="graphics-symbol" aria-roledescription="errorbar" transform="translate(71.043,30)" x2="208.9251111111111" y2="0" stroke="blue" stroke-width="0.6"></line><line aria-label="CI 0.95: -0.251484; upper_percent_cli_lower: 5.091084; region: Piauí; percent_cli_upper: 5.091084; percent_cli_lower: -0.251484" role="graphics-symbol" aria-roledescription="errorbar" transform="translate(67.99784444444444,350)" x2="207.76653333333334" y2="0" stroke="blue" stroke-width="0.6"></line><line aria-label="CI 0.95: -0.51692; upper_percent_cli_lower: 5.29252; region: Sergipe; percent_cli_upper: 5.29252; percent_cli_lower: -0.51692" role="graphics-symbol" aria-roledescription="errorbar" transform="translate(57.67533333333334,490)" x2="225.92266666666666" y2="0" stroke="blue" stroke-width="0.6"></line><line aria-label="CI 0.95: 1.005692; upper_percent_cli_lower: 3.709708; region: Santa Catarina; percent_cli_upper: 3.709708; percent_cli_lower: 1.005692" role="graphics-symbol" aria-roledescription="errorbar" transform="translate(116.88802222222223,470)" x2="105.15617777777773" y2="0" stroke="blue" stroke-width="0.6"></line><line aria-label="CI 0.95: 0.8122; upper_percent_cli_lower: 3.762; region: Bahia; percent_cli_upper: 3.762; percent_cli_lower: 0.8122" role="graphics-symbol" aria-roledescription="errorbar" transform="translate(109.36333333333333,90)" x2="114.71444444444445" y2="0" stroke="blue" stroke-width="0.6"></line><line aria-label="CI 0.95: 0.248904; upper_percent_cli_lower: 3.885096; region: Mato Grosso do Sul; percent_cli_upper: 3.885096; percent_cli_lower: 0.248904" role="graphics-symbol" aria-roledescription="errorbar" transform="translate(87.45737777777778,230)" x2="141.40746666666672" y2="0" stroke="blue" stroke-width="0.6"></line><line aria-label="CI 0.95: 1.533056; upper_percent_cli_lower: 2.498944; region: São Paulo; percent_cli_upper: 2.498944; percent_cli_lower: 1.533056" role="graphics-symbol" aria-roledescription="errorbar" transform="translate(137.39662222222222,510)" x2="37.562311111111114" y2="0" stroke="blue" stroke-width="0.6"></line><line aria-label="CI 0.95: 0.826464; upper_percent_cli_lower: 3.204336; region: Goiás; percent_cli_upper: 3.204336; percent_cli_lower: 0.826464" role="graphics-symbol" aria-roledescription="errorbar" transform="translate(109.91804444444443,170)" x2="92.4728" y2="0" stroke="blue" stroke-width="0.6"></line><line aria-label="CI 0.95: 0.516516; upper_percent_cli_lower: 3.497284; region: Distrito Federal; percent_cli_upper: 3.497284; percent_cli_lower: 0.516516" role="graphics-symbol" aria-roledescription="errorbar" transform="translate(97.86451111111111,130)" x2="115.91875555555555" y2="0" stroke="blue" stroke-width="0.6"></line><line aria-label="CI 0.95: 0.753796; upper_percent_cli_lower: 2.331204; region: Minas Gerais; percent_cli_upper: 2.331204; percent_cli_lower: 0.753796" role="graphics-symbol" aria-roledescription="errorbar" transform="translate(107.09206666666667,250)" x2="61.34364444444442" y2="0" stroke="blue" stroke-width="0.6"></line><line aria-label="CI 0.95: 0.71062; upper_percent_cli_lower: 2.34918; region: Paraná; percent_cli_upper: 2.34918; percent_cli_lower: 0.71062" role="graphics-symbol" aria-roledescription="errorbar" transform="translate(105.413,270)" x2="63.7217777777778" y2="0" stroke="blue" stroke-width="0.6"></line><line aria-label="CI 0.95: 0.434024; upper_percent_cli_lower: 1.827976; region: Rio Grande do Sul; percent_cli_upper: 1.827976; percent_cli_lower: 0.434024" role="graphics-symbol" aria-roledescription="errorbar" transform="translate(94.65648888888887,390)" x2="54.20924444444444" y2="0" stroke="blue" stroke-width="0.6"></line><line aria-label="CI 0.95: -0.302728; upper_percent_cli_lower: 2.301328; region: Paraíba; percent_cli_upper: 2.301328; percent_cli_lower: -0.302728" role="graphics-symbol" aria-roledescription="errorbar" transform="translate(66.00502222222222,290)" x2="101.26884444444444" y2="0" stroke="blue" stroke-width="0.6"></line></g><g class="mark-group role-title"><g transform="translate(350,-17)"><path class="background" aria-hidden="true" d="M0,0h0v0h0Z" pointer-events="none"></path><g><g class="mark-text role-title-text" role="graphics-symbol" aria-roledescription="title" aria-label="Title text 'Facebook COVID-like illness symptom survey (last available date) for all states in Brazil'" pointer-events="none"><text text-anchor="middle" transform="translate(0,10)" font-family="sans-serif" font-size="13px" font-weight="bold" fill="#000" opacity="1">Facebook COVID-like illness symptom survey (last available date) for all states in Brazil</text></g></g><path class="foreground" aria-hidden="true" d="" pointer-events="none" display="none"></path></g></g></g><path class="foreground" aria-hidden="true" d="" display="none"></path></g></g></g></svg>