<svg class="marks" width="749" height="600" viewBox="0 0 749 600" version="1.1" xmlns="http://www.w3.org/2000/svg" xmlns:xlink="http://www.w3.org/1999/xlink"><rect width="749" height="600" style="fill: white;"></rect><g transform="translate(44,23)"><g class="mark-group role-frame root"><g transform="translate(0,0)"><path class="background" d="M0.5,0.5h700v540h-700Z" style="fill: none; stroke: none;"></path><g><g class="mark-group role-axis"><g transform="translate(0.5,0.5)"><path class="background" d="M0,0h0v0h0Z" style="pointer-events: none; fill: none;"></path><g><g class="mark-rule role-axis-grid" style="pointer-events: none;"><line transform="translate(0,10)" x2="700" y2="0" style="fill: none; stroke: #ddd; stroke-width: 1; opacity: 1;"></line><line transform="translate(0,30)" x2="700" y2="0" style="fill: none; stroke: #ddd; stroke-width: 1; opacity: 1;"></line><line transform="translate(0,50)" x2="700" y2="0" style="fill: none; stroke: #ddd; stroke-width: 1; opacity: 1;"></line><line transform="translate(0,70)" x2="700" y2="0" style="fill: none; stroke: #ddd; stroke-width: 1; opacity: 1;"></line><line transform="translate(0,90)" x2="700" y2="0" style="fill: none; stroke: #ddd; stroke-width: 1; opacity: 1;"></line><line transform="translate(0,110)" x2="700" y2="0" style="fill: none; stroke: #ddd; stroke-width: 1; opacity: 1;"></line><line transform="translate(0,130)" x2="700" y2="0" style="fill: none; stroke: #ddd; stroke-width: 1; opacity: 1;"></line><line transform="translate(0,150)" x2="700" y2="0" style="fill: none; stroke: #ddd; stroke-width: 1; opacity: 1;"></line><line transform="translate(0,170)" x2="700" y2="0" style="fill: none; stroke: #ddd; stroke-width: 1; opacity: 1;"></line><line transform="translate(0,190)" x2="700" y2="0" style="fill: none; stroke: #ddd; stroke-width: 1; opacity: 1;"></line><line transform="translate(0,210)" x2="700" y2="0" style="fill: none; stroke: #ddd; stroke-width: 1; opacity: 1;"></line><line transform="translate(0,230)" x2="700" y2="0" style="fill: none; stroke: #ddd; stroke-width: 1; opacity: 1;"></line><line transform="translate(0,250)" x2="700" y2="0" style="fill: none; stroke: #ddd; stroke-width: 1; opacity: 1;"></line><line transform="translate(0,270)" x2="700" y2="0" style="fill: none; stroke: #ddd; stroke-width: 1; opacity: 1;"></line><line transform="translate(0,290)" x2="700" y2="0" style="fill: none; stroke: #ddd; stroke-width: 1; opacity: 1;"></line><line transform="translate(0,310)" x2="700" y2="0" style="fill: none; stroke: #ddd; stroke-width: 1; opacity: 1;"></line><line transform="translate(0,330)" x2="700" y2="0" style="fill: none; stroke: #ddd; stroke-width: 1; opacity: 1;"></line><line transform="translate(0,350)" x2="700" y2="0" style="fill: none; stroke: #ddd; stroke-width: 1; opacity: 1;"></line><line transform="translate(0,370)" x2="700" y2="0" style="fill: none; stroke: #ddd; stroke-width: 1; opacity: 1;"></line><line transform="translate(0,390)" x2="700" y2="0" style="fill: none; stroke: #ddd; stroke-width: 1; opacity: 1;"></line><line transform="translate(0,410)" x2="700" y2="0" style="fill: none; stroke: #ddd; stroke-width: 1; opacity: 1;"></line><line transform="translate(0,430)" x2="700" y2="0" style="fill: none; stroke: #ddd; stroke-width: 1; opacity: 1;"></line><line transform="translate(0,450)" x2="700" y2="0" style="fill: none; stroke: #ddd; stroke-width: 1; opacity: 1;"></line><line transform="translate(0,470)" x2="700" y2="0" style="fill: none; stroke: #ddd; stroke-width: 1; opacity: 1;"></line><line transform="translate(0,490)" x2="700" y2="0" style="fill: none; stroke: #ddd; stroke-width: 1; opacity: 1;"></line><line transform="translate(0,510)" x2="700" y2="0" style="fill: none; stroke: #ddd; stroke-width: 1; opacity: 1;"></line><line transform="translate(0,530)" x2="700" y2="0" style="fill: none; stroke: #ddd; stroke-width: 1; opacity: 1;"></line></g></g><path class="foreground" d="" style="pointer-events: none; display: none; fill: none;"></path></g></g><g class="mark-group role-axis"><g transform="translate(0.5,540.5)"><path class="background" d="M0,0h0v0h0Z" style="pointer-events: none; fill: none;"></path><g><g class="mark-rule role-axis-tick" style="pointer-events: none;"><line transform="translate(17,0)" x2="0" y2="5" style="fill: none; stroke: #888; stroke-width: 1; opacity: 1;"></line><line transform="translate(53,0)" x2="0" y2="5" style="fill: none; stroke: #888; stroke-width: 1; opacity: 1;"></line><line transform="translate(88,0)" x2="0" y2="5" style="fill: none; stroke: #888; stroke-width: 1; opacity: 1;"></line><line transform="translate(122,0)" x2="0" y2="5" style="fill: none; stroke: #888; stroke-width: 1; opacity: 1;"></line><line transform="translate(157,0)" x2="0" y2="5" style="fill: none; stroke: #888; stroke-width: 1; opacity: 1;"></line><line transform="translate(193,0)" x2="0" y2="5" style="fill: none; stroke: #888; stroke-width: 1; opacity: 1;"></line><line transform="translate(228,0)" x2="0" y2="5" style="fill: none; stroke: #888; stroke-width: 1; opacity: 1;"></line><line transform="translate(263,0)" x2="0" y2="5" style="fill: none; stroke: #888; stroke-width: 1; opacity: 1;"></line><line transform="translate(298,0)" x2="0" y2="5" style="fill: none; stroke: #888; stroke-width: 1; opacity: 1;"></line><line transform="translate(333,0)" x2="0" y2="5" style="fill: none; stroke: #888; stroke-width: 1; opacity: 1;"></line><line transform="translate(368,0)" x2="0" y2="5" style="fill: none; stroke: #888; stroke-width: 1; opacity: 1;"></line><line transform="translate(402,0)" x2="0" y2="5" style="fill: none; stroke: #888; stroke-width: 1; opacity: 1;"></line><line transform="translate(438,0)" x2="0" y2="5" style="fill: none; stroke: #888; stroke-width: 1; opacity: 1;"></line><line transform="translate(473,0)" x2="0" y2="5" style="fill: none; stroke: #888; stroke-width: 1; opacity: 1;"></line><line transform="translate(508,0)" x2="0" y2="5" style="fill: none; stroke: #888; stroke-width: 1; opacity: 1;"></line><line transform="translate(543,0)" x2="0" y2="5" style="fill: none; stroke: #888; stroke-width: 1; opacity: 1;"></line><line transform="translate(578,0)" x2="0" y2="5" style="fill: none; stroke: #888; stroke-width: 1; opacity: 1;"></line><line transform="translate(613,0)" x2="0" y2="5" style="fill: none; stroke: #888; stroke-width: 1; opacity: 1;"></line><line transform="translate(648,0)" x2="0" y2="5" style="fill: none; stroke: #888; stroke-width: 1; opacity: 1;"></line><line transform="translate(683,0)" x2="0" y2="5" style="fill: none; stroke: #888; stroke-width: 1; opacity: 1;"></line></g><g class="mark-text role-axis-label" style="pointer-events: none;"><text text-anchor="middle" transform="translate(17.499999999999996,15)" style="font-family: sans-serif; font-size: 10px; fill: #000; opacity: 1;">0.6</text><text text-anchor="middle" transform="translate(52.50000000000001,15)" style="font-family: sans-serif; font-size: 10px; fill: #000; opacity: 1;">0.8</text><text text-anchor="middle" transform="translate(87.5,15)" style="font-family: sans-serif; font-size: 10px; fill: #000; opacity: 1;">1.0</text><text text-anchor="middle" transform="translate(122.49999999999999,15)" style="font-family: sans-serif; font-size: 10px; fill: #000; opacity: 1;">1.2</text><text text-anchor="middle" transform="translate(157.49999999999997,15)" style="font-family: sans-serif; font-size: 10px; fill: #000; opacity: 1;">1.4</text><text text-anchor="middle" transform="translate(192.50000000000003,15)" style="font-family: sans-serif; font-size: 10px; fill: #000; opacity: 1;">1.6</text><text text-anchor="middle" transform="translate(227.5,15)" style="font-family: sans-serif; font-size: 10px; fill: #000; opacity: 1;">1.8</text><text text-anchor="middle" transform="translate(262.5,15)" style="font-family: sans-serif; font-size: 10px; fill: #000; opacity: 1;">2.0</text><text text-anchor="middle" transform="translate(297.50000000000006,15)" style="font-family: sans-serif; font-size: 10px; fill: #000; opacity: 1;">2.2</text><text text-anchor="middle" transform="translate(332.5,15)" style="font-family: sans-serif; font-size: 10px; fill: #000; opacity: 1;">2.4</text><text text-anchor="middle" transform="translate(367.5,15)" style="font-family: sans-serif; font-size: 10px; fill: #000; opacity: 1;">2.6</text><text text-anchor="middle" transform="translate(402.49999999999994,15)" style="font-family: sans-serif; font-size: 10px; fill: #000; opacity: 1;">2.8</text><text text-anchor="middle" transform="translate(437.5,15)" style="font-family: sans-serif; font-size: 10px; fill: #000; opacity: 1;">3.0</text><text text-anchor="middle" transform="translate(472.50000000000006,15)" style="font-family: sans-serif; font-size: 10px; fill: #000; opacity: 1;">3.2</text><text text-anchor="middle" transform="translate(507.5,15)" style="font-family: sans-serif; font-size: 10px; fill: #000; opacity: 1;">3.4</text><text text-anchor="middle" transform="translate(542.5,15)" style="font-family: sans-serif; font-size: 10px; fill: #000; opacity: 1;">3.6</text><text text-anchor="middle" transform="translate(577.5,15)" style="font-family: sans-serif; font-size: 10px; fill: #000; opacity: 1;">3.8</text><text text-anchor="middle" transform="translate(612.5,15)" style="font-family: sans-serif; font-size: 10px; fill: #000; opacity: 1;">4.0</text><text text-anchor="middle" transform="translate(647.5,15)" style="font-family: sans-serif; font-size: 10px; fill: #000; opacity: 1;">4.2</text><text text-anchor="middle" transform="translate(682.5000000000001,15)" style="font-family: sans-serif; font-size: 10px; fill: #000; opacity: 1;">4.4</text></g><g class="mark-rule role-axis-domain" style="pointer-events: none;"><line transform="translate(0,0)" x2="700" y2="0" style="fill: none; stroke: #888; stroke-width: 1; opacity: 1;"></line></g><g class="mark-text role-axis-title" style="pointer-events: none;"><text text-anchor="middle" transform="translate(350,30)" style="font-family: sans-serif; font-size: 11px; font-weight: bold; fill: #000; opacity: 1;">Instantaneous reproduction number R(t), CI 0.975</text></g></g><path class="foreground" d="" style="pointer-events: none; display: none; fill: none;"></path></g></g><g class="mark-group role-axis"><g transform="translate(0.5,0.5)"><path class="background" d="M0,0h0v0h0Z" style="pointer-events: none; fill: none;"></path><g><g class="mark-rule role-axis-tick" style="pointer-events: none;"><line transform="translate(0,10)" x2="-5" y2="0" style="fill: none; stroke: #888; stroke-width: 1; opacity: 1;"></line><line transform="translate(0,30)" x2="-5" y2="0" style="fill: none; stroke: #888; stroke-width: 1; opacity: 1;"></line><line transform="translate(0,50)" x2="-5" y2="0" style="fill: none; stroke: #888; stroke-width: 1; opacity: 1;"></line><line transform="translate(0,70)" x2="-5" y2="0" style="fill: none; stroke: #888; stroke-width: 1; opacity: 1;"></line><line transform="translate(0,90)" x2="-5" y2="0" style="fill: none; stroke: #888; stroke-width: 1; opacity: 1;"></line><line transform="translate(0,110)" x2="-5" y2="0" style="fill: none; stroke: #888; stroke-width: 1; opacity: 1;"></line><line transform="translate(0,130)" x2="-5" y2="0" style="fill: none; stroke: #888; stroke-width: 1; opacity: 1;"></line><line transform="translate(0,150)" x2="-5" y2="0" style="fill: none; stroke: #888; stroke-width: 1; opacity: 1;"></line><line transform="translate(0,170)" x2="-5" y2="0" style="fill: none; stroke: #888; stroke-width: 1; opacity: 1;"></line><line transform="translate(0,190)" x2="-5" y2="0" style="fill: none; stroke: #888; stroke-width: 1; opacity: 1;"></line><line transform="translate(0,210)" x2="-5" y2="0" style="fill: none; stroke: #888; stroke-width: 1; opacity: 1;"></line><line transform="translate(0,230)" x2="-5" y2="0" style="fill: none; stroke: #888; stroke-width: 1; opacity: 1;"></line><line transform="translate(0,250)" x2="-5" y2="0" style="fill: none; stroke: #888; stroke-width: 1; opacity: 1;"></line><line transform="translate(0,270)" x2="-5" y2="0" style="fill: none; stroke: #888; stroke-width: 1; opacity: 1;"></line><line transform="translate(0,290)" x2="-5" y2="0" style="fill: none; stroke: #888; stroke-width: 1; opacity: 1;"></line><line transform="translate(0,310)" x2="-5" y2="0" style="fill: none; stroke: #888; stroke-width: 1; opacity: 1;"></line><line transform="translate(0,330)" x2="-5" y2="0" style="fill: none; stroke: #888; stroke-width: 1; opacity: 1;"></line><line transform="translate(0,350)" x2="-5" y2="0" style="fill: none; stroke: #888; stroke-width: 1; opacity: 1;"></line><line transform="translate(0,370)" x2="-5" y2="0" style="fill: none; stroke: #888; stroke-width: 1; opacity: 1;"></line><line transform="translate(0,390)" x2="-5" y2="0" style="fill: none; stroke: #888; stroke-width: 1; opacity: 1;"></line><line transform="translate(0,410)" x2="-5" y2="0" style="fill: none; stroke: #888; stroke-width: 1; opacity: 1;"></line><line transform="translate(0,430)" x2="-5" y2="0" style="fill: none; stroke: #888; stroke-width: 1; opacity: 1;"></line><line transform="translate(0,450)" x2="-5" y2="0" style="fill: none; stroke: #888; stroke-width: 1; opacity: 1;"></line><line transform="translate(0,470)" x2="-5" y2="0" style="fill: none; stroke: #888; stroke-width: 1; opacity: 1;"></line><line transform="translate(0,490)" x2="-5" y2="0" style="fill: none; stroke: #888; stroke-width: 1; opacity: 1;"></line><line transform="translate(0,510)" x2="-5" y2="0" style="fill: none; stroke: #888; stroke-width: 1; opacity: 1;"></line><line transform="translate(0,530)" x2="-5" y2="0" style="fill: none; stroke: #888; stroke-width: 1; opacity: 1;"></line></g><g class="mark-text role-axis-label" style="pointer-events: none;"><text text-anchor="end" transform="translate(-7,12.5)" style="font-family: sans-serif; font-size: 10px; fill: #000; opacity: 1;">AC</text><text text-anchor="end" transform="translate(-7,32.5)" style="font-family: sans-serif; font-size: 10px; fill: #000; opacity: 1;">AL</text><text text-anchor="end" transform="translate(-7,52.5)" style="font-family: sans-serif; font-size: 10px; fill: #000; opacity: 1;">AM</text><text text-anchor="end" transform="translate(-7,72.5)" style="font-family: sans-serif; font-size: 10px; fill: #000; opacity: 1;">AP</text><text text-anchor="end" transform="translate(-7,92.5)" style="font-family: sans-serif; font-size: 10px; fill: #000; opacity: 1;">BA</text><text text-anchor="end" transform="translate(-7,112.5)" style="font-family: sans-serif; font-size: 10px; fill: #000; opacity: 1;">CE</text><text text-anchor="end" transform="translate(-7,132.5)" style="font-family: sans-serif; font-size: 10px; fill: #000; opacity: 1;">DF</text><text text-anchor="end" transform="translate(-7,152.5)" style="font-family: sans-serif; font-size: 10px; fill: #000; opacity: 1;">ES</text><text text-anchor="end" transform="translate(-7,172.5)" style="font-family: sans-serif; font-size: 10px; fill: #000; opacity: 1;">GO</text><text text-anchor="end" transform="translate(-7,192.5)" style="font-family: sans-serif; font-size: 10px; fill: #000; opacity: 1;">MA</text><text text-anchor="end" transform="translate(-7,212.5)" style="font-family: sans-serif; font-size: 10px; fill: #000; opacity: 1;">MG</text><text text-anchor="end" transform="translate(-7,232.5)" style="font-family: sans-serif; font-size: 10px; fill: #000; opacity: 1;">MS</text><text text-anchor="end" transform="translate(-7,252.5)" style="font-family: sans-serif; font-size: 10px; fill: #000; opacity: 1;">MT</text><text text-anchor="end" transform="translate(-7,272.5)" style="font-family: sans-serif; font-size: 10px; fill: #000; opacity: 1;">PA</text><text text-anchor="end" transform="translate(-7,292.5)" style="font-family: sans-serif; font-size: 10px; fill: #000; opacity: 1;">PB</text><text text-anchor="end" transform="translate(-7,312.5)" style="font-family: sans-serif; font-size: 10px; fill: #000; opacity: 1;">PE</text><text text-anchor="end" transform="translate(-7,332.5)" style="font-family: sans-serif; font-size: 10px; fill: #000; opacity: 1;">PI</text><text text-anchor="end" transform="translate(-7,352.5)" style="font-family: sans-serif; font-size: 10px; fill: #000; opacity: 1;">PR</text><text text-anchor="end" transform="translate(-7,372.5)" style="font-family: sans-serif; font-size: 10px; fill: #000; opacity: 1;">RJ</text><text text-anchor="end" transform="translate(-7,392.5)" style="font-family: sans-serif; font-size: 10px; fill: #000; opacity: 1;">RN</text><text text-anchor="end" transform="translate(-7,412.5)" style="font-family: sans-serif; font-size: 10px; fill: #000; opacity: 1;">RO</text><text text-anchor="end" transform="translate(-7,432.5)" style="font-family: sans-serif; font-size: 10px; fill: #000; opacity: 1;">RR</text><text text-anchor="end" transform="translate(-7,452.5)" style="font-family: sans-serif; font-size: 10px; fill: #000; opacity: 1;">RS</text><text text-anchor="end" transform="translate(-7,472.5)" style="font-family: sans-serif; font-size: 10px; fill: #000; opacity: 1;">SC</text><text text-anchor="end" transform="translate(-7,492.5)" style="font-family: sans-serif; font-size: 10px; fill: #000; opacity: 1;">SE</text><text text-anchor="end" transform="translate(-7,512.5)" style="font-family: sans-serif; font-size: 10px; fill: #000; opacity: 1;">SP</text><text text-anchor="end" transform="translate(-7,532.5)" style="font-family: sans-serif; font-size: 10px; fill: #000; opacity: 1;">TO</text></g><g class="mark-rule role-axis-domain" style="pointer-events: none;"><line transform="translate(0,0)" x2="0" y2="540" style="fill: none; stroke: #888; stroke-width: 1; opacity: 1;"></line></g><g class="mark-text role-axis-title" style="pointer-events: none;"><text text-anchor="middle" transform="translate(-27.1083984375,270) rotate(-90) translate(0,-2)" style="font-family: sans-serif; font-size: 11px; font-weight: bold; fill: #000; opacity: 1;">States</text></g></g><path class="foreground" d="" style="pointer-events: none; display: none; fill: none;"></path></g></g><g class="mark-symbol role-mark layer_0_marks"><path transform="translate(79.43987432706562,390)" d="M2.7386127875258306,0A2.7386127875258306,2.7386127875258306,0,1,1,-2.7386127875258306,0A2.7386127875258306,2.7386127875258306,0,1,1,2.7386127875258306,0" style="fill: none; stroke: #4c78a8; stroke-width: 2; opacity: 0.7;"></path><path transform="translate(99.36166792562634,150)" d="M2.7386127875258306,0A2.7386127875258306,2.7386127875258306,0,1,1,-2.7386127875258306,0A2.7386127875258306,2.7386127875258306,0,1,1,2.7386127875258306,0" style="fill: none; stroke: #4c78a8; stroke-width: 2; opacity: 0.7;"></path><path transform="translate(107.2094547958832,210)" d="M2.7386127875258306,0A2.7386127875258306,2.7386127875258306,0,1,1,-2.7386127875258306,0A2.7386127875258306,2.7386127875258306,0,1,1,2.7386127875258306,0" style="fill: none; stroke: #4c78a8; stroke-width: 2; opacity: 0.7;"></path><path transform="translate(108.22249518951583,350)" d="M2.7386127875258306,0A2.7386127875258306,2.7386127875258306,0,1,1,-2.7386127875258306,0A2.7386127875258306,2.7386127875258306,0,1,1,2.7386127875258306,0" style="fill: none; stroke: #4c78a8; stroke-width: 2; opacity: 0.7;"></path><path transform="translate(110.20172653869705,230)" d="M2.7386127875258306,0A2.7386127875258306,2.7386127875258306,0,1,1,-2.7386127875258306,0A2.7386127875258306,2.7386127875258306,0,1,1,2.7386127875258306,0" style="fill: none; stroke: #4c78a8; stroke-width: 2; opacity: 0.7;"></path><path transform="translate(110.92025625573447,10)" d="M2.7386127875258306,0A2.7386127875258306,2.7386127875258306,0,1,1,-2.7386127875258306,0A2.7386127875258306,2.7386127875258306,0,1,1,2.7386127875258306,0" style="fill: none; stroke: #4c78a8; stroke-width: 2; opacity: 0.7;"></path><path transform="translate(113.63892907072109,190)" d="M2.7386127875258306,0A2.7386127875258306,2.7386127875258306,0,1,1,-2.7386127875258306,0A2.7386127875258306,2.7386127875258306,0,1,1,2.7386127875258306,0" style="fill: none; stroke: #4c78a8; stroke-width: 2; opacity: 0.7;"></path><path transform="translate(121.59486291970177,410)" d="M2.7386127875258306,0A2.7386127875258306,2.7386127875258306,0,1,1,-2.7386127875258306,0A2.7386127875258306,2.7386127875258306,0,1,1,2.7386127875258306,0" style="fill: none; stroke: #4c78a8; stroke-width: 2; opacity: 0.7;"></path><path transform="translate(122.24854187401002,430)" d="M2.7386127875258306,0A2.7386127875258306,2.7386127875258306,0,1,1,-2.7386127875258306,0A2.7386127875258306,2.7386127875258306,0,1,1,2.7386127875258306,0" style="fill: none; stroke: #4c78a8; stroke-width: 2; opacity: 0.7;"></path><path transform="translate(132.97116756200774,250)" d="M2.7386127875258306,0A2.7386127875258306,2.7386127875258306,0,1,1,-2.7386127875258306,0A2.7386127875258306,2.7386127875258306,0,1,1,2.7386127875258306,0" style="fill: none; stroke: #4c78a8; stroke-width: 2; opacity: 0.7;"></path><path transform="translate(134.15065170517582,90)" d="M2.7386127875258306,0A2.7386127875258306,2.7386127875258306,0,1,1,-2.7386127875258306,0A2.7386127875258306,2.7386127875258306,0,1,1,2.7386127875258306,0" style="fill: none; stroke: #4c78a8; stroke-width: 2; opacity: 0.7;"></path><path transform="translate(154.33003760784555,130)" d="M2.7386127875258306,0A2.7386127875258306,2.7386127875258306,0,1,1,-2.7386127875258306,0A2.7386127875258306,2.7386127875258306,0,1,1,2.7386127875258306,0" style="fill: none; stroke: #4c78a8; stroke-width: 2; opacity: 0.7;"></path><path transform="translate(159.97287141517708,310)" d="M2.7386127875258306,0A2.7386127875258306,2.7386127875258306,0,1,1,-2.7386127875258306,0A2.7386127875258306,2.7386127875258306,0,1,1,2.7386127875258306,0" style="fill: none; stroke: #4c78a8; stroke-width: 2; opacity: 0.7;"></path><path transform="translate(162.21489957227632,270)" d="M2.7386127875258306,0A2.7386127875258306,2.7386127875258306,0,1,1,-2.7386127875258306,0A2.7386127875258306,2.7386127875258306,0,1,1,2.7386127875258306,0" style="fill: none; stroke: #4c78a8; stroke-width: 2; opacity: 0.7;"></path><path transform="translate(172.59764266373222,110)" d="M2.7386127875258306,0A2.7386127875258306,2.7386127875258306,0,1,1,-2.7386127875258306,0A2.7386127875258306,2.7386127875258306,0,1,1,2.7386127875258306,0" style="fill: none; stroke: #4c78a8; stroke-width: 2; opacity: 0.7;"></path><path transform="translate(173.90545972625435,370)" d="M2.7386127875258306,0A2.7386127875258306,2.7386127875258306,0,1,1,-2.7386127875258306,0A2.7386127875258306,2.7386127875258306,0,1,1,2.7386127875258306,0" style="fill: none; stroke: #4c78a8; stroke-width: 2; opacity: 0.7;"></path><path transform="translate(177.41617635549437,330)" d="M2.7386127875258306,0A2.7386127875258306,2.7386127875258306,0,1,1,-2.7386127875258306,0A2.7386127875258306,2.7386127875258306,0,1,1,2.7386127875258306,0" style="fill: none; stroke: #4c78a8; stroke-width: 2; opacity: 0.7;"></path><path transform="translate(179.44087679655158,510)" d="M2.7386127875258306,0A2.7386127875258306,2.7386127875258306,0,1,1,-2.7386127875258306,0A2.7386127875258306,2.7386127875258306,0,1,1,2.7386127875258306,0" style="fill: none; stroke: #4c78a8; stroke-width: 2; opacity: 0.7;"></path><path transform="translate(181.97398766656798,450)" d="M2.7386127875258306,0A2.7386127875258306,2.7386127875258306,0,1,1,-2.7386127875258306,0A2.7386127875258306,2.7386127875258306,0,1,1,2.7386127875258306,0" style="fill: none; stroke: #4c78a8; stroke-width: 2; opacity: 0.7;"></path><path transform="translate(182.84471179242715,50)" d="M2.7386127875258306,0A2.7386127875258306,2.7386127875258306,0,1,1,-2.7386127875258306,0A2.7386127875258306,2.7386127875258306,0,1,1,2.7386127875258306,0" style="fill: none; stroke: #4c78a8; stroke-width: 2; opacity: 0.7;"></path><path transform="translate(187.07952003105393,170)" d="M2.7386127875258306,0A2.7386127875258306,2.7386127875258306,0,1,1,-2.7386127875258306,0A2.7386127875258306,2.7386127875258306,0,1,1,2.7386127875258306,0" style="fill: none; stroke: #4c78a8; stroke-width: 2; opacity: 0.7;"></path><path transform="translate(197.4213911093623,470)" d="M2.7386127875258306,0A2.7386127875258306,2.7386127875258306,0,1,1,-2.7386127875258306,0A2.7386127875258306,2.7386127875258306,0,1,1,2.7386127875258306,0" style="fill: none; stroke: #4c78a8; stroke-width: 2; opacity: 0.7;"></path><path transform="translate(225.39033367742712,70)" d="M2.7386127875258306,0A2.7386127875258306,2.7386127875258306,0,1,1,-2.7386127875258306,0A2.7386127875258306,2.7386127875258306,0,1,1,2.7386127875258306,0" style="fill: none; stroke: #4c78a8; stroke-width: 2; opacity: 0.7;"></path><path transform="translate(241.53752587676695,290)" d="M2.7386127875258306,0A2.7386127875258306,2.7386127875258306,0,1,1,-2.7386127875258306,0A2.7386127875258306,2.7386127875258306,0,1,1,2.7386127875258306,0" style="fill: none; stroke: #4c78a8; stroke-width: 2; opacity: 0.7;"></path><path transform="translate(278.02839752814566,30)" d="M2.7386127875258306,0A2.7386127875258306,2.7386127875258306,0,1,1,-2.7386127875258306,0A2.7386127875258306,2.7386127875258306,0,1,1,2.7386127875258306,0" style="fill: none; stroke: #4c78a8; stroke-width: 2; opacity: 0.7;"></path><path transform="translate(370.1668854590678,490)" d="M2.7386127875258306,0A2.7386127875258306,2.7386127875258306,0,1,1,-2.7386127875258306,0A2.7386127875258306,2.7386127875258306,0,1,1,2.7386127875258306,0" style="fill: none; stroke: #4c78a8; stroke-width: 2; opacity: 0.7;"></path><path transform="translate(401.8595434994428,530)" d="M2.7386127875258306,0A2.7386127875258306,2.7386127875258306,0,1,1,-2.7386127875258306,0A2.7386127875258306,2.7386127875258306,0,1,1,2.7386127875258306,0" style="fill: none; stroke: #4c78a8; stroke-width: 2; opacity: 0.7;"></path></g><g class="mark-rule role-mark layer_1_marks"><line transform="translate(87.5,0)" x2="0" y2="540" style="fill: none; stroke: black; stroke-width: 0.2;"></line><line transform="translate(87.5,0)" x2="0" y2="540" style="fill: none; stroke: black; stroke-width: 0.2;"></line><line transform="translate(87.5,0)" x2="0" y2="540" style="fill: none; stroke: black; stroke-width: 0.2;"></line><line transform="translate(87.5,0)" x2="0" y2="540" style="fill: none; stroke: black; stroke-width: 0.2;"></line><line transform="translate(87.5,0)" x2="0" y2="540" style="fill: none; stroke: black; stroke-width: 0.2;"></line><line transform="translate(87.5,0)" x2="0" y2="540" style="fill: none; stroke: black; stroke-width: 0.2;"></line><line transform="translate(87.5,0)" x2="0" y2="540" style="fill: none; stroke: black; stroke-width: 0.2;"></line><line transform="translate(87.5,0)" x2="0" y2="540" style="fill: none; stroke: black; stroke-width: 0.2;"></line><line transform="translate(87.5,0)" x2="0" y2="540" style="fill: none; stroke: black; stroke-width: 0.2;"></line><line transform="translate(87.5,0)" x2="0" y2="540" style="fill: none; stroke: black; stroke-width: 0.2;"></line><line transform="translate(87.5,0)" x2="0" y2="540" style="fill: none; stroke: black; stroke-width: 0.2;"></line><line transform="translate(87.5,0)" x2="0" y2="540" style="fill: none; stroke: black; stroke-width: 0.2;"></line><line transform="translate(87.5,0)" x2="0" y2="540" style="fill: none; stroke: black; stroke-width: 0.2;"></line><line transform="translate(87.5,0)" x2="0" y2="540" style="fill: none; stroke: black; stroke-width: 0.2;"></line><line transform="translate(87.5,0)" x2="0" y2="540" style="fill: none; stroke: black; stroke-width: 0.2;"></line><line transform="translate(87.5,0)" x2="0" y2="540" style="fill: none; stroke: black; stroke-width: 0.2;"></line><line transform="translate(87.5,0)" x2="0" y2="540" style="fill: none; stroke: black; stroke-width: 0.2;"></line><line transform="translate(87.5,0)" x2="0" y2="540" style="fill: none; stroke: black; stroke-width: 0.2;"></line><line transform="translate(87.5,0)" x2="0" y2="540" style="fill: none; stroke: black; stroke-width: 0.2;"></line><line transform="translate(87.5,0)" x2="0" y2="540" style="fill: none; stroke: black; stroke-width: 0.2;"></line><line transform="translate(87.5,0)" x2="0" y2="540" style="fill: none; stroke: black; stroke-width: 0.2;"></line><line transform="translate(87.5,0)" x2="0" y2="540" style="fill: none; stroke: black; stroke-width: 0.2;"></line><line transform="translate(87.5,0)" x2="0" y2="540" style="fill: none; stroke: black; stroke-width: 0.2;"></line><line transform="translate(87.5,0)" x2="0" y2="540" style="fill: none; stroke: black; stroke-width: 0.2;"></line><line transform="translate(87.5,0)" x2="0" y2="540" style="fill: none; stroke: black; stroke-width: 0.2;"></line><line transform="translate(87.5,0)" x2="0" y2="540" style="fill: none; stroke: black; stroke-width: 0.2;"></line><line transform="translate(87.5,0)" x2="0" y2="540" style="fill: none; stroke: black; stroke-width: 0.2;"></line></g><g class="mark-rule role-mark layer_2_marks"><line transform="translate(58.31091735460708,390)" x2="43.85315111065632" y2="0" style="fill: none; stroke: blue; stroke-width: 0.6;"></line><line transform="translate(83.75747179052603,150)" x2="31.772073134750784" y2="0" style="fill: none; stroke: blue; stroke-width: 0.6;"></line><line transform="translate(88.52994875198607,210)" x2="38.41738786041515" y2="0" style="fill: none; stroke: blue; stroke-width: 0.6;"></line><line transform="translate(80.14004073102676,350)" x2="59.48254557648484" y2="0" style="fill: none; stroke: blue; stroke-width: 0.6;"></line><line transform="translate(65.86959015551089,230)" x2="94.31865946656059" y2="0" style="fill: none; stroke: blue; stroke-width: 0.6;"></line><line transform="translate(75.57916409398638,10)" x2="74.32717168590327" y2="0" style="fill: none; stroke: blue; stroke-width: 0.6;"></line><line transform="translate(98.81109477938786,190)" x2="30.925449161647734" y2="0" style="fill: none; stroke: blue; stroke-width: 0.6;"></line><line transform="translate(86.72354075725504,410)" x2="76.51617930713782" y2="0" style="fill: none; stroke: blue; stroke-width: 0.6;"></line><line transform="translate(91.59874015386129,430)" x2="63.91353415114963" y2="0" style="fill: none; stroke: blue; stroke-width: 0.6;"></line><line transform="translate(84.49183071373741,250)" x2="104.80095273382102" y2="0" style="fill: none; stroke: blue; stroke-width: 0.6;"></line><line transform="translate(114.32987164050249,90)" x2="41.77006211227072" y2="0" style="fill: none; stroke: blue; stroke-width: 0.6;"></line><line transform="translate(128.378441852646,130)" x2="53.56045593913069" y2="0" style="fill: none; stroke: blue; stroke-width: 0.6;"></line><line transform="translate(135.06992359338503,310)" x2="50.31157385407866" y2="0" style="fill: none; stroke: blue; stroke-width: 0.6;"></line><line transform="translate(129.32267462793712,270)" x2="69.06950108448768" y2="0" style="fill: none; stroke: blue; stroke-width: 0.6;"></line><line transform="translate(142.06497286217186,110)" x2="61.30535915853318" y2="0" style="fill: none; stroke: blue; stroke-width: 0.6;"></line><line transform="translate(147.38829471708186,370)" x2="48.560472878739034" y2="0" style="fill: none; stroke: blue; stroke-width: 0.6;"></line><line transform="translate(132.5861187201918,330)" x2="96.30513200742158" y2="0" style="fill: none; stroke: blue; stroke-width: 0.6;"></line><line transform="translate(160.9428227080907,510)" x2="34.57253367198845" y2="0" style="fill: none; stroke: blue; stroke-width: 0.6;"></line><line transform="translate(142.07624886241487,450)" x2="84.59314730482689" y2="0" style="fill: none; stroke: blue; stroke-width: 0.6;"></line><line transform="translate(150.45454384462354,50)" x2="79.5737303384245" y2="0" style="fill: none; stroke: blue; stroke-width: 0.6;"></line><line transform="translate(145.68323666409552,170)" x2="84.57327625788281" y2="0" style="fill: none; stroke: blue; stroke-width: 0.6;"></line><line transform="translate(165.61537590896265,470)" x2="65.07705691238215" y2="0" style="fill: none; stroke: blue; stroke-width: 0.6;"></line><line transform="translate(163.5431564923835,70)" x2="141.70673196475036" y2="0" style="fill: none; stroke: blue; stroke-width: 0.6;"></line><line transform="translate(184.45286240018902,290)" x2="123.24666224206675" y2="0" style="fill: none; stroke: blue; stroke-width: 0.6;"></line><line transform="translate(201.98026929406637,30)" x2="178.02667723683146" y2="0" style="fill: none; stroke: blue; stroke-width: 0.6;"></line><line transform="translate(289.80412393504844,490)" x2="172.6275884021092" y2="0" style="fill: none; stroke: blue; stroke-width: 0.6;"></line><line transform="translate(218.1807282177351,530)" x2="419.88760983389" y2="0" style="fill: none; stroke: blue; stroke-width: 0.6;"></line></g><g class="mark-group role-title"><g transform="translate(350,-17.2)"><path class="background" d="M0,0h0v0h0Z" style="pointer-events: none; fill: none;"></path><g><g class="mark-text role-title-text" style="pointer-events: none;"><text text-anchor="middle" transform="translate(0,10)" style="font-family: sans-serif; font-size: 13px; font-weight: bold; fill: #000; opacity: 1;">Instantaneous reproduction number estimate for all states in Brazil</text></g></g><path class="foreground" d="" style="pointer-events: none; display: none; fill: none;"></path></g></g></g><path class="foreground" d="" style="display: none; fill: none;"></path></g></g></g></svg>