<svg class="marks" width="749" height="600" viewBox="0 0 749 600" version="1.1" xmlns="http://www.w3.org/2000/svg" xmlns:xlink="http://www.w3.org/1999/xlink"><rect width="749" height="600" fill="white"></rect><g fill="none" stroke-miterlimit="10" transform="translate(43,23)"><g class="mark-group role-frame root" role="graphics-object" aria-roledescription="group mark container"><g transform="translate(0,0)"><path class="background" aria-hidden="true" d="M0.5,0.5h700v540h-700Z"></path><g><g class="mark-group role-axis" aria-hidden="true"><g transform="translate(0.5,0.5)"><path class="background" aria-hidden="true" d="M0,0h0v0h0Z" pointer-events="none"></path><g><g class="mark-rule role-axis-grid" pointer-events="none"><line transform="translate(0,10)" x2="700" y2="0" stroke="#ddd" stroke-width="1" opacity="1"></line><line transform="translate(0,30)" x2="700" y2="0" stroke="#ddd" stroke-width="1" opacity="1"></line><line transform="translate(0,50)" x2="700" y2="0" stroke="#ddd" stroke-width="1" opacity="1"></line><line transform="translate(0,70)" x2="700" y2="0" stroke="#ddd" stroke-width="1" opacity="1"></line><line transform="translate(0,90)" x2="700" y2="0" stroke="#ddd" stroke-width="1" opacity="1"></line><line transform="translate(0,110)" x2="700" y2="0" stroke="#ddd" stroke-width="1" opacity="1"></line><line transform="translate(0,130)" x2="700" y2="0" stroke="#ddd" stroke-width="1" opacity="1"></line><line transform="translate(0,150)" x2="700" y2="0" stroke="#ddd" stroke-width="1" opacity="1"></line><line transform="translate(0,170)" x2="700" y2="0" stroke="#ddd" stroke-width="1" opacity="1"></line><line transform="translate(0,190)" x2="700" y2="0" stroke="#ddd" stroke-width="1" opacity="1"></line><line transform="translate(0,210)" x2="700" y2="0" stroke="#ddd" stroke-width="1" opacity="1"></line><line transform="translate(0,230)" x2="700" y2="0" stroke="#ddd" stroke-width="1" opacity="1"></line><line transform="translate(0,250)" x2="700" y2="0" stroke="#ddd" stroke-width="1" opacity="1"></line><line transform="translate(0,270)" x2="700" y2="0" stroke="#ddd" stroke-width="1" opacity="1"></line><line transform="translate(0,290)" x2="700" y2="0" stroke="#ddd" stroke-width="1" opacity="1"></line><line transform="translate(0,310)" x2="700" y2="0" stroke="#ddd" stroke-width="1" opacity="1"></line><line transform="translate(0,330)" x2="700" y2="0" stroke="#ddd" stroke-width="1" opacity="1"></line><line transform="translate(0,350)" x2="700" y2="0" stroke="#ddd" stroke-width="1" opacity="1"></line><line transform="translate(0,370)" x2="700" y2="0" stroke="#ddd" stroke-width="1" opacity="1"></line><line transform="translate(0,390)" x2="700" y2="0" stroke="#ddd" stroke-width="1" opacity="1"></line><line transform="translate(0,410)" x2="700" y2="0" stroke="#ddd" stroke-width="1" opacity="1"></line><line transform="translate(0,430)" x2="700" y2="0" stroke="#ddd" stroke-width="1" opacity="1"></line><line transform="translate(0,450)" x2="700" y2="0" stroke="#ddd" stroke-width="1" opacity="1"></line><line transform="translate(0,470)" x2="700" y2="0" stroke="#ddd" stroke-width="1" opacity="1"></line><line transform="translate(0,490)" x2="700" y2="0" stroke="#ddd" stroke-width="1" opacity="1"></line><line transform="translate(0,510)" x2="700" y2="0" stroke="#ddd" stroke-width="1" opacity="1"></line><line transform="translate(0,530)" x2="700" y2="0" stroke="#ddd" stroke-width="1" opacity="1"></line></g></g><path class="foreground" aria-hidden="true" d="" pointer-events="none" display="none"></path></g></g><g class="mark-group role-axis" role="graphics-symbol" aria-roledescription="axis" aria-label="X-axis titled 'Instantaneous reproduction number R(t), CI 0.975' for a linear scale with values from 0.6 to 1.9"><g transform="translate(0.5,540.5)"><path class="background" aria-hidden="true" d="M0,0h0v0h0Z" pointer-events="none"></path><g><g class="mark-rule role-axis-tick" pointer-events="none"><line transform="translate(0,0)" x2="0" y2="5" stroke="#888" stroke-width="1" opacity="1"></line><line transform="translate(54,0)" x2="0" y2="5" stroke="#888" stroke-width="1" opacity="1"></line><line transform="translate(108,0)" x2="0" y2="5" stroke="#888" stroke-width="1" opacity="1"></line><line transform="translate(162,0)" x2="0" y2="5" stroke="#888" stroke-width="1" opacity="1"></line><line transform="translate(215,0)" x2="0" y2="5" stroke="#888" stroke-width="1" opacity="1"></line><line transform="translate(269,0)" x2="0" y2="5" stroke="#888" stroke-width="1" opacity="1"></line><line transform="translate(323,0)" x2="0" y2="5" stroke="#888" stroke-width="1" opacity="1"></line><line transform="translate(377,0)" x2="0" y2="5" stroke="#888" stroke-width="1" opacity="1"></line><line transform="translate(431,0)" x2="0" y2="5" stroke="#888" stroke-width="1" opacity="1"></line><line transform="translate(485,0)" x2="0" y2="5" stroke="#888" stroke-width="1" opacity="1"></line><line transform="translate(538,0)" x2="0" y2="5" stroke="#888" stroke-width="1" opacity="1"></line><line transform="translate(592,0)" x2="0" y2="5" stroke="#888" stroke-width="1" opacity="1"></line><line transform="translate(646,0)" x2="0" y2="5" stroke="#888" stroke-width="1" opacity="1"></line><line transform="translate(700,0)" x2="0" y2="5" stroke="#888" stroke-width="1" opacity="1"></line></g><g class="mark-text role-axis-label" pointer-events="none"><text text-anchor="start" transform="translate(0,15)" font-family="sans-serif" font-size="10px" fill="#000" opacity="1">0.6</text><text text-anchor="middle" transform="translate(53.84615384615384,15)" font-family="sans-serif" font-size="10px" fill="#000" opacity="1">0.7</text><text text-anchor="middle" transform="translate(107.69230769230774,15)" font-family="sans-serif" font-size="10px" fill="#000" opacity="1">0.8</text><text text-anchor="middle" transform="translate(161.53846153846158,15)" font-family="sans-serif" font-size="10px" fill="#000" opacity="1">0.9</text><text text-anchor="middle" transform="translate(215.38461538461544,15)" font-family="sans-serif" font-size="10px" fill="#000" opacity="1">1.0</text><text text-anchor="middle" transform="translate(269.23076923076934,15)" font-family="sans-serif" font-size="10px" fill="#000" opacity="1">1.1</text><text text-anchor="middle" transform="translate(323.0769230769231,15)" font-family="sans-serif" font-size="10px" fill="#000" opacity="1">1.2</text><text text-anchor="middle" transform="translate(376.92307692307696,15)" font-family="sans-serif" font-size="10px" fill="#000" opacity="1">1.3</text><text text-anchor="middle" transform="translate(430.7692307692308,15)" font-family="sans-serif" font-size="10px" fill="#000" opacity="1">1.4</text><text text-anchor="middle" transform="translate(484.6153846153847,15)" font-family="sans-serif" font-size="10px" fill="#000" opacity="1">1.5</text><text text-anchor="middle" transform="translate(538.4615384615386,15)" font-family="sans-serif" font-size="10px" fill="#000" opacity="1">1.6</text><text text-anchor="middle" transform="translate(592.3076923076925,15)" font-family="sans-serif" font-size="10px" fill="#000" opacity="1">1.7</text><text text-anchor="middle" transform="translate(646.1538461538463,15)" font-family="sans-serif" font-size="10px" fill="#000" opacity="1">1.8</text><text text-anchor="end" transform="translate(700,15)" font-family="sans-serif" font-size="10px" fill="#000" opacity="1">1.9</text></g><g class="mark-rule role-axis-domain" pointer-events="none"><line transform="translate(0,0)" x2="700" y2="0" stroke="#888" stroke-width="1" opacity="1"></line></g><g class="mark-text role-axis-title" pointer-events="none"><text text-anchor="middle" transform="translate(350,30)" font-family="sans-serif" font-size="11px" font-weight="bold" fill="#000" opacity="1">Instantaneous reproduction number R(t), CI 0.975</text></g></g><path class="foreground" aria-hidden="true" d="" pointer-events="none" display="none"></path></g></g><g class="mark-group role-axis" role="graphics-symbol" aria-roledescription="axis" aria-label="Y-axis titled 'States' for a discrete scale with 27 values: AC, AL, AM, AP, BA, ending with TO"><g transform="translate(0.5,0.5)"><path class="background" aria-hidden="true" d="M0,0h0v0h0Z" pointer-events="none"></path><g><g class="mark-rule role-axis-tick" pointer-events="none"><line transform="translate(0,10)" x2="-5" y2="0" stroke="#888" stroke-width="1" opacity="1"></line><line transform="translate(0,30)" x2="-5" y2="0" stroke="#888" stroke-width="1" opacity="1"></line><line transform="translate(0,50)" x2="-5" y2="0" stroke="#888" stroke-width="1" opacity="1"></line><line transform="translate(0,70)" x2="-5" y2="0" stroke="#888" stroke-width="1" opacity="1"></line><line transform="translate(0,90)" x2="-5" y2="0" stroke="#888" stroke-width="1" opacity="1"></line><line transform="translate(0,110)" x2="-5" y2="0" stroke="#888" stroke-width="1" opacity="1"></line><line transform="translate(0,130)" x2="-5" y2="0" stroke="#888" stroke-width="1" opacity="1"></line><line transform="translate(0,150)" x2="-5" y2="0" stroke="#888" stroke-width="1" opacity="1"></line><line transform="translate(0,170)" x2="-5" y2="0" stroke="#888" stroke-width="1" opacity="1"></line><line transform="translate(0,190)" x2="-5" y2="0" stroke="#888" stroke-width="1" opacity="1"></line><line transform="translate(0,210)" x2="-5" y2="0" stroke="#888" stroke-width="1" opacity="1"></line><line transform="translate(0,230)" x2="-5" y2="0" stroke="#888" stroke-width="1" opacity="1"></line><line transform="translate(0,250)" x2="-5" y2="0" stroke="#888" stroke-width="1" opacity="1"></line><line transform="translate(0,270)" x2="-5" y2="0" stroke="#888" stroke-width="1" opacity="1"></line><line transform="translate(0,290)" x2="-5" y2="0" stroke="#888" stroke-width="1" opacity="1"></line><line transform="translate(0,310)" x2="-5" y2="0" stroke="#888" stroke-width="1" opacity="1"></line><line transform="translate(0,330)" x2="-5" y2="0" stroke="#888" stroke-width="1" opacity="1"></line><line transform="translate(0,350)" x2="-5" y2="0" stroke="#888" stroke-width="1" opacity="1"></line><line transform="translate(0,370)" x2="-5" y2="0" stroke="#888" stroke-width="1" opacity="1"></line><line transform="translate(0,390)" x2="-5" y2="0" stroke="#888" stroke-width="1" opacity="1"></line><line transform="translate(0,410)" x2="-5" y2="0" stroke="#888" stroke-width="1" opacity="1"></line><line transform="translate(0,430)" x2="-5" y2="0" stroke="#888" stroke-width="1" opacity="1"></line><line transform="translate(0,450)" x2="-5" y2="0" stroke="#888" stroke-width="1" opacity="1"></line><line transform="translate(0,470)" x2="-5" y2="0" stroke="#888" stroke-width="1" opacity="1"></line><line transform="translate(0,490)" x2="-5" y2="0" stroke="#888" stroke-width="1" opacity="1"></line><line transform="translate(0,510)" x2="-5" y2="0" stroke="#888" stroke-width="1" opacity="1"></line><line transform="translate(0,530)" x2="-5" y2="0" stroke="#888" stroke-width="1" opacity="1"></line></g><g class="mark-text role-axis-label" pointer-events="none"><text text-anchor="end" transform="translate(-7,12.5)" font-family="sans-serif" font-size="10px" fill="#000" opacity="1">AC</text><text text-anchor="end" transform="translate(-7,32.5)" font-family="sans-serif" font-size="10px" fill="#000" opacity="1">AL</text><text text-anchor="end" transform="translate(-7,52.5)" font-family="sans-serif" font-size="10px" fill="#000" opacity="1">AM</text><text text-anchor="end" transform="translate(-7,72.5)" font-family="sans-serif" font-size="10px" fill="#000" opacity="1">AP</text><text text-anchor="end" transform="translate(-7,92.5)" font-family="sans-serif" font-size="10px" fill="#000" opacity="1">BA</text><text text-anchor="end" transform="translate(-7,112.5)" font-family="sans-serif" font-size="10px" fill="#000" opacity="1">CE</text><text text-anchor="end" transform="translate(-7,132.5)" font-family="sans-serif" font-size="10px" fill="#000" opacity="1">DF</text><text text-anchor="end" transform="translate(-7,152.5)" font-family="sans-serif" font-size="10px" fill="#000" opacity="1">ES</text><text text-anchor="end" transform="translate(-7,172.5)" font-family="sans-serif" font-size="10px" fill="#000" opacity="1">GO</text><text text-anchor="end" transform="translate(-7,192.5)" font-family="sans-serif" font-size="10px" fill="#000" opacity="1">MA</text><text text-anchor="end" transform="translate(-7,212.5)" font-family="sans-serif" font-size="10px" fill="#000" opacity="1">MG</text><text text-anchor="end" transform="translate(-7,232.5)" font-family="sans-serif" font-size="10px" fill="#000" opacity="1">MS</text><text text-anchor="end" transform="translate(-7,252.5)" font-family="sans-serif" font-size="10px" fill="#000" opacity="1">MT</text><text text-anchor="end" transform="translate(-7,272.5)" font-family="sans-serif" font-size="10px" fill="#000" opacity="1">PA</text><text text-anchor="end" transform="translate(-7,292.5)" font-family="sans-serif" font-size="10px" fill="#000" opacity="1">PB</text><text text-anchor="end" transform="translate(-7,312.5)" font-family="sans-serif" font-size="10px" fill="#000" opacity="1">PE</text><text text-anchor="end" transform="translate(-7,332.5)" font-family="sans-serif" font-size="10px" fill="#000" opacity="1">PI</text><text text-anchor="end" transform="translate(-7,352.5)" font-family="sans-serif" font-size="10px" fill="#000" opacity="1">PR</text><text text-anchor="end" transform="translate(-7,372.5)" font-family="sans-serif" font-size="10px" fill="#000" opacity="1">RJ</text><text text-anchor="end" transform="translate(-7,392.5)" font-family="sans-serif" font-size="10px" fill="#000" opacity="1">RN</text><text text-anchor="end" transform="translate(-7,412.5)" font-family="sans-serif" font-size="10px" fill="#000" opacity="1">RO</text><text text-anchor="end" transform="translate(-7,432.5)" font-family="sans-serif" font-size="10px" fill="#000" opacity="1">RR</text><text text-anchor="end" transform="translate(-7,452.5)" font-family="sans-serif" font-size="10px" fill="#000" opacity="1">RS</text><text text-anchor="end" transform="translate(-7,472.5)" font-family="sans-serif" font-size="10px" fill="#000" opacity="1">SC</text><text text-anchor="end" transform="translate(-7,492.5)" font-family="sans-serif" font-size="10px" fill="#000" opacity="1">SE</text><text text-anchor="end" transform="translate(-7,512.5)" font-family="sans-serif" font-size="10px" fill="#000" opacity="1">SP</text><text text-anchor="end" transform="translate(-7,532.5)" font-family="sans-serif" font-size="10px" fill="#000" opacity="1">TO</text></g><g class="mark-rule role-axis-domain" pointer-events="none"><line transform="translate(0,0)" x2="0" y2="540" stroke="#888" stroke-width="1" opacity="1"></line></g><g class="mark-text role-axis-title" pointer-events="none"><text text-anchor="middle" transform="translate(-27,270) rotate(-90) translate(0,-2)" font-family="sans-serif" font-size="11px" font-weight="bold" fill="#000" opacity="1">States</text></g></g><path class="foreground" aria-hidden="true" d="" pointer-events="none" display="none"></path></g></g><g class="mark-symbol role-mark layer_0_marks" role="graphics-object" aria-roledescription="symbol mark container"><path aria-label="Instantaneous reproduction number R(t): 0.70502624565; States: RN" role="graphics-symbol" aria-roledescription="point" transform="translate(56.55259381137477,390)" d="M2.7386127875258306,0A2.7386127875258306,2.7386127875258306,0,1,1,-2.7386127875258306,0A2.7386127875258306,2.7386127875258306,0,1,1,2.7386127875258306,0" stroke="#4c78a8" stroke-width="2" opacity="0.7"></path><path aria-label="Instantaneous reproduction number R(t): 0.76465268145; States: AM" role="graphics-symbol" aria-roledescription="point" transform="translate(88.65913616563947,50)" d="M2.7386127875258306,0A2.7386127875258306,2.7386127875258306,0,1,1,-2.7386127875258306,0A2.7386127875258306,2.7386127875258306,0,1,1,2.7386127875258306,0" stroke="#4c78a8" stroke-width="2" opacity="0.7"></path><path aria-label="Instantaneous reproduction number R(t): 0.879316344149; States: PE" role="graphics-symbol" aria-roledescription="point" transform="translate(150.40110838815843,310)" d="M2.7386127875258306,0A2.7386127875258306,2.7386127875258306,0,1,1,-2.7386127875258306,0A2.7386127875258306,2.7386127875258306,0,1,1,2.7386127875258306,0" stroke="#4c78a8" stroke-width="2" opacity="0.7"></path><path aria-label="Instantaneous reproduction number R(t): 0.930205462254; States: CE" role="graphics-symbol" aria-roledescription="point" transform="translate(177.80294121377776,110)" d="M2.7386127875258306,0A2.7386127875258306,2.7386127875258306,0,1,1,-2.7386127875258306,0A2.7386127875258306,2.7386127875258306,0,1,1,2.7386127875258306,0" stroke="#4c78a8" stroke-width="2" opacity="0.7"></path><path aria-label="Instantaneous reproduction number R(t): 0.935558883225; States: RJ" role="graphics-symbol" aria-roledescription="point" transform="translate(180.68555250576554,370)" d="M2.7386127875258306,0A2.7386127875258306,2.7386127875258306,0,1,1,-2.7386127875258306,0A2.7386127875258306,2.7386127875258306,0,1,1,2.7386127875258306,0" stroke="#4c78a8" stroke-width="2" opacity="0.7"></path><path aria-label="Instantaneous reproduction number R(t): 0.94043641533; States: TO" role="graphics-symbol" aria-roledescription="point" transform="translate(183.31191594698888,530)" d="M2.7386127875258306,0A2.7386127875258306,2.7386127875258306,0,1,1,-2.7386127875258306,0A2.7386127875258306,2.7386127875258306,0,1,1,2.7386127875258306,0" stroke="#4c78a8" stroke-width="2" opacity="0.7"></path><path aria-label="Instantaneous reproduction number R(t): 0.943496256068; States: RS" role="graphics-symbol" aria-roledescription="point" transform="translate(184.95952249831976,450)" d="M2.7386127875258306,0A2.7386127875258306,2.7386127875258306,0,1,1,-2.7386127875258306,0A2.7386127875258306,2.7386127875258306,0,1,1,2.7386127875258306,0" stroke="#4c78a8" stroke-width="2" opacity="0.7"></path><path aria-label="Instantaneous reproduction number R(t): 1.0129324547; States: AP" role="graphics-symbol" aria-roledescription="point" transform="translate(222.34824483746087,70)" d="M2.7386127875258306,0A2.7386127875258306,2.7386127875258306,0,1,1,-2.7386127875258306,0A2.7386127875258306,2.7386127875258306,0,1,1,2.7386127875258306,0" stroke="#4c78a8" stroke-width="2" opacity="0.7"></path><path aria-label="Instantaneous reproduction number R(t): 1.03802547131; States: SC" role="graphics-symbol" aria-roledescription="point" transform="translate(235.8598691692342,470)" d="M2.7386127875258306,0A2.7386127875258306,2.7386127875258306,0,1,1,-2.7386127875258306,0A2.7386127875258306,2.7386127875258306,0,1,1,2.7386127875258306,0" stroke="#4c78a8" stroke-width="2" opacity="0.7"></path><path aria-label="Instantaneous reproduction number R(t): 1.03993702196; States: MA" role="graphics-symbol" aria-roledescription="point" transform="translate(236.88916566888636,190)" d="M2.7386127875258306,0A2.7386127875258306,2.7386127875258306,0,1,1,-2.7386127875258306,0A2.7386127875258306,2.7386127875258306,0,1,1,2.7386127875258306,0" stroke="#4c78a8" stroke-width="2" opacity="0.7"></path><path aria-label="Instantaneous reproduction number R(t): 1.05571975153; States: AC" role="graphics-symbol" aria-roledescription="point" transform="translate(245.3875585150578,10)" d="M2.7386127875258306,0A2.7386127875258306,2.7386127875258306,0,1,1,-2.7386127875258306,0A2.7386127875258306,2.7386127875258306,0,1,1,2.7386127875258306,0" stroke="#4c78a8" stroke-width="2" opacity="0.7"></path><path aria-label="Instantaneous reproduction number R(t): 1.0883705621; States: SP" role="graphics-symbol" aria-roledescription="point" transform="translate(262.9687642074366,510)" d="M2.7386127875258306,0A2.7386127875258306,2.7386127875258306,0,1,1,-2.7386127875258306,0A2.7386127875258306,2.7386127875258306,0,1,1,2.7386127875258306,0" stroke="#4c78a8" stroke-width="2" opacity="0.7"></path><path aria-label="Instantaneous reproduction number R(t): 1.18370614068; States: PA" role="graphics-symbol" aria-roledescription="point" transform="translate(314.3033065216045,270)" d="M2.7386127875258306,0A2.7386127875258306,2.7386127875258306,0,1,1,-2.7386127875258306,0A2.7386127875258306,2.7386127875258306,0,1,1,2.7386127875258306,0" stroke="#4c78a8" stroke-width="2" opacity="0.7"></path><path aria-label="Instantaneous reproduction number R(t): 1.18453499241; States: SE" role="graphics-symbol" aria-roledescription="point" transform="translate(314.74961129857485,490)" d="M2.7386127875258306,0A2.7386127875258306,2.7386127875258306,0,1,1,-2.7386127875258306,0A2.7386127875258306,2.7386127875258306,0,1,1,2.7386127875258306,0" stroke="#4c78a8" stroke-width="2" opacity="0.7"></path><path aria-label="Instantaneous reproduction number R(t): 1.18688026808; States: AL" role="graphics-symbol" aria-roledescription="point" transform="translate(316.0124520449134,30)" d="M2.7386127875258306,0A2.7386127875258306,2.7386127875258306,0,1,1,-2.7386127875258306,0A2.7386127875258306,2.7386127875258306,0,1,1,2.7386127875258306,0" stroke="#4c78a8" stroke-width="2" opacity="0.7"></path><path aria-label="Instantaneous reproduction number R(t): 1.21287529464; States: PB" role="graphics-symbol" aria-roledescription="point" transform="translate(330.0097740382087,290)" d="M2.7386127875258306,0A2.7386127875258306,2.7386127875258306,0,1,1,-2.7386127875258306,0A2.7386127875258306,2.7386127875258306,0,1,1,2.7386127875258306,0" stroke="#4c78a8" stroke-width="2" opacity="0.7"></path><path aria-label="Instantaneous reproduction number R(t): 1.27903106246; States: MS" role="graphics-symbol" aria-roledescription="point" transform="translate(365.6321105539838,230)" d="M2.7386127875258306,0A2.7386127875258306,2.7386127875258306,0,1,1,-2.7386127875258306,0A2.7386127875258306,2.7386127875258306,0,1,1,2.7386127875258306,0" stroke="#4c78a8" stroke-width="2" opacity="0.7"></path><path aria-label="Instantaneous reproduction number R(t): 1.28872846537; States: GO" role="graphics-symbol" aria-roledescription="point" transform="translate(370.853789043671,170)" d="M2.7386127875258306,0A2.7386127875258306,2.7386127875258306,0,1,1,-2.7386127875258306,0A2.7386127875258306,2.7386127875258306,0,1,1,2.7386127875258306,0" stroke="#4c78a8" stroke-width="2" opacity="0.7"></path><path aria-label="Instantaneous reproduction number R(t): 1.29583939727; States: PR" role="graphics-symbol" aria-roledescription="point" transform="translate(374.68275237701937,350)" d="M2.7386127875258306,0A2.7386127875258306,2.7386127875258306,0,1,1,-2.7386127875258306,0A2.7386127875258306,2.7386127875258306,0,1,1,2.7386127875258306,0" stroke="#4c78a8" stroke-width="2" opacity="0.7"></path><path aria-label="Instantaneous reproduction number R(t): 1.31161457942; States: MG" role="graphics-symbol" aria-roledescription="point" transform="translate(383.17708122845033,210)" d="M2.7386127875258306,0A2.7386127875258306,2.7386127875258306,0,1,1,-2.7386127875258306,0A2.7386127875258306,2.7386127875258306,0,1,1,2.7386127875258306,0" stroke="#4c78a8" stroke-width="2" opacity="0.7"></path><path aria-label="Instantaneous reproduction number R(t): 1.31580900808; States: MT" role="graphics-symbol" aria-roledescription="point" transform="translate(385.4356197372939,250)" d="M2.7386127875258306,0A2.7386127875258306,2.7386127875258306,0,1,1,-2.7386127875258306,0A2.7386127875258306,2.7386127875258306,0,1,1,2.7386127875258306,0" stroke="#4c78a8" stroke-width="2" opacity="0.7"></path><path aria-label="Instantaneous reproduction number R(t): 1.35017848828; States: ES" role="graphics-symbol" aria-roledescription="point" transform="translate(403.9422629192934,150)" d="M2.7386127875258306,0A2.7386127875258306,2.7386127875258306,0,1,1,-2.7386127875258306,0A2.7386127875258306,2.7386127875258306,0,1,1,2.7386127875258306,0" stroke="#4c78a8" stroke-width="2" opacity="0.7"></path><path aria-label="Instantaneous reproduction number R(t): 1.40837054653; States: PI" role="graphics-symbol" aria-roledescription="point" transform="translate(435.27644813396086,330)" d="M2.7386127875258306,0A2.7386127875258306,2.7386127875258306,0,1,1,-2.7386127875258306,0A2.7386127875258306,2.7386127875258306,0,1,1,2.7386127875258306,0" stroke="#4c78a8" stroke-width="2" opacity="0.7"></path><path aria-label="Instantaneous reproduction number R(t): 1.427995533; States: BA" role="graphics-symbol" aria-roledescription="point" transform="translate(445.8437485396031,90)" d="M2.7386127875258306,0A2.7386127875258306,2.7386127875258306,0,1,1,-2.7386127875258306,0A2.7386127875258306,2.7386127875258306,0,1,1,2.7386127875258306,0" stroke="#4c78a8" stroke-width="2" opacity="0.7"></path><path aria-label="Instantaneous reproduction number R(t): 1.51375935814; States: RR" role="graphics-symbol" aria-roledescription="point" transform="translate(492.0242697670107,430)" d="M2.7386127875258306,0A2.7386127875258306,2.7386127875258306,0,1,1,-2.7386127875258306,0A2.7386127875258306,2.7386127875258306,0,1,1,2.7386127875258306,0" stroke="#4c78a8" stroke-width="2" opacity="0.7"></path><path aria-label="Instantaneous reproduction number R(t): 1.5581450474; States: RO" role="graphics-symbol" aria-roledescription="point" transform="translate(515.9242562906567,410)" d="M2.7386127875258306,0A2.7386127875258306,2.7386127875258306,0,1,1,-2.7386127875258306,0A2.7386127875258306,2.7386127875258306,0,1,1,2.7386127875258306,0" stroke="#4c78a8" stroke-width="2" opacity="0.7"></path><path aria-label="Instantaneous reproduction number R(t): 1.60406767681; States: DF" role="graphics-symbol" aria-roledescription="point" transform="translate(540.6518259725212,130)" d="M2.7386127875258306,0A2.7386127875258306,2.7386127875258306,0,1,1,-2.7386127875258306,0A2.7386127875258306,2.7386127875258306,0,1,1,2.7386127875258306,0" stroke="#4c78a8" stroke-width="2" opacity="0.7"></path></g><g class="mark-rule role-mark layer_1_marks" role="graphics-object" aria-roledescription="rule mark container"><line aria-label="a: 1" role="graphics-symbol" aria-roledescription="rule mark" transform="translate(215.38461538461544,0)" x2="0" y2="540" stroke="black" stroke-width="0.2"></line><line aria-label="a: 1" role="graphics-symbol" aria-roledescription="rule mark" transform="translate(215.38461538461544,0)" x2="0" y2="540" stroke="black" stroke-width="0.2"></line><line aria-label="a: 1" role="graphics-symbol" aria-roledescription="rule mark" transform="translate(215.38461538461544,0)" x2="0" y2="540" stroke="black" stroke-width="0.2"></line><line aria-label="a: 1" role="graphics-symbol" aria-roledescription="rule mark" transform="translate(215.38461538461544,0)" x2="0" y2="540" stroke="black" stroke-width="0.2"></line><line aria-label="a: 1" role="graphics-symbol" aria-roledescription="rule mark" transform="translate(215.38461538461544,0)" x2="0" y2="540" stroke="black" stroke-width="0.2"></line><line aria-label="a: 1" role="graphics-symbol" aria-roledescription="rule mark" transform="translate(215.38461538461544,0)" x2="0" y2="540" stroke="black" stroke-width="0.2"></line><line aria-label="a: 1" role="graphics-symbol" aria-roledescription="rule mark" transform="translate(215.38461538461544,0)" x2="0" y2="540" stroke="black" stroke-width="0.2"></line><line aria-label="a: 1" role="graphics-symbol" aria-roledescription="rule mark" transform="translate(215.38461538461544,0)" x2="0" y2="540" stroke="black" stroke-width="0.2"></line><line aria-label="a: 1" role="graphics-symbol" aria-roledescription="rule mark" transform="translate(215.38461538461544,0)" x2="0" y2="540" stroke="black" stroke-width="0.2"></line><line aria-label="a: 1" role="graphics-symbol" aria-roledescription="rule mark" transform="translate(215.38461538461544,0)" x2="0" y2="540" stroke="black" stroke-width="0.2"></line><line aria-label="a: 1" role="graphics-symbol" aria-roledescription="rule mark" transform="translate(215.38461538461544,0)" x2="0" y2="540" stroke="black" stroke-width="0.2"></line><line aria-label="a: 1" role="graphics-symbol" aria-roledescription="rule mark" transform="translate(215.38461538461544,0)" x2="0" y2="540" stroke="black" stroke-width="0.2"></line><line aria-label="a: 1" role="graphics-symbol" aria-roledescription="rule mark" transform="translate(215.38461538461544,0)" x2="0" y2="540" stroke="black" stroke-width="0.2"></line><line aria-label="a: 1" role="graphics-symbol" aria-roledescription="rule mark" transform="translate(215.38461538461544,0)" x2="0" y2="540" stroke="black" stroke-width="0.2"></line><line aria-label="a: 1" role="graphics-symbol" aria-roledescription="rule mark" transform="translate(215.38461538461544,0)" x2="0" y2="540" stroke="black" stroke-width="0.2"></line><line aria-label="a: 1" role="graphics-symbol" aria-roledescription="rule mark" transform="translate(215.38461538461544,0)" x2="0" y2="540" stroke="black" stroke-width="0.2"></line><line aria-label="a: 1" role="graphics-symbol" aria-roledescription="rule mark" transform="translate(215.38461538461544,0)" x2="0" y2="540" stroke="black" stroke-width="0.2"></line><line aria-label="a: 1" role="graphics-symbol" aria-roledescription="rule mark" transform="translate(215.38461538461544,0)" x2="0" y2="540" stroke="black" stroke-width="0.2"></line><line aria-label="a: 1" role="graphics-symbol" aria-roledescription="rule mark" transform="translate(215.38461538461544,0)" x2="0" y2="540" stroke="black" stroke-width="0.2"></line><line aria-label="a: 1" role="graphics-symbol" aria-roledescription="rule mark" transform="translate(215.38461538461544,0)" x2="0" y2="540" stroke="black" stroke-width="0.2"></line><line aria-label="a: 1" role="graphics-symbol" aria-roledescription="rule mark" transform="translate(215.38461538461544,0)" x2="0" y2="540" stroke="black" stroke-width="0.2"></line><line aria-label="a: 1" role="graphics-symbol" aria-roledescription="rule mark" transform="translate(215.38461538461544,0)" x2="0" y2="540" stroke="black" stroke-width="0.2"></line><line aria-label="a: 1" role="graphics-symbol" aria-roledescription="rule mark" transform="translate(215.38461538461544,0)" x2="0" y2="540" stroke="black" stroke-width="0.2"></line><line aria-label="a: 1" role="graphics-symbol" aria-roledescription="rule mark" transform="translate(215.38461538461544,0)" x2="0" y2="540" stroke="black" stroke-width="0.2"></line><line aria-label="a: 1" role="graphics-symbol" aria-roledescription="rule mark" transform="translate(215.38461538461544,0)" x2="0" y2="540" stroke="black" stroke-width="0.2"></line><line aria-label="a: 1" role="graphics-symbol" aria-roledescription="rule mark" transform="translate(215.38461538461544,0)" x2="0" y2="540" stroke="black" stroke-width="0.2"></line><line aria-label="a: 1" role="graphics-symbol" aria-roledescription="rule mark" transform="translate(215.38461538461544,0)" x2="0" y2="540" stroke="black" stroke-width="0.2"></line></g><g class="mark-rule role-mark layer_2_marks" role="graphics-object" aria-roledescription="rule mark container"><line aria-label="CI 0.975: 0.647248019726; upper_Quantile.0.025(R): 0.779533030173; index: RN; Quantile.0.975(R): 0.779533030173; Quantile.0.025(R): 0.647248019726" role="graphics-symbol" aria-roledescription="errorbar" transform="translate(25.441241390679956,390)" x2="71.23039024089707" y2="0" stroke="blue" stroke-width="0.6"></line><line aria-label="CI 0.975: 0.709808414681; upper_Quantile.0.025(R): 0.831734891947; index: AM; Quantile.0.975(R): 0.831734891947; Quantile.0.025(R): 0.709808414681" role="graphics-symbol" aria-roledescription="errorbar" transform="translate(59.12760790533356,50)" x2="65.65271852756682" y2="0" stroke="blue" stroke-width="0.6"></line><line aria-label="CI 0.975: 0.851350166964; upper_Quantile.0.025(R): 0.911609661766; index: PE; Quantile.0.975(R): 0.911609661766; Quantile.0.025(R): 0.851350166964" role="graphics-symbol" aria-roledescription="errorbar" transform="translate(135.34239759620166,310)" x2="32.44742027797898" y2="0" stroke="blue" stroke-width="0.6"></line><line aria-label="CI 0.975: 0.84701317588; upper_Quantile.0.025(R): 1.05091560801; index: CE; Quantile.0.975(R): 1.05091560801; Quantile.0.025(R): 0.84701317588" role="graphics-symbol" aria-roledescription="errorbar" transform="translate(133.00709470450303,110)" x2="109.79361730003498" y2="0" stroke="blue" stroke-width="0.6"></line><line aria-label="CI 0.975: 0.893096713765; upper_Quantile.0.025(R): 0.998270818866; index: RJ; Quantile.0.975(R): 0.998270818866; Quantile.0.025(R): 0.893096713765" role="graphics-symbol" aria-roledescription="errorbar" transform="translate(157.82130741179978,370)" x2="56.63221043894592" y2="0" stroke="blue" stroke-width="0.6"></line><line aria-label="CI 0.975: 0.885652260182; upper_Quantile.0.025(R): 0.998202587913; index: TO; Quantile.0.975(R): 0.998202587913; Quantile.0.025(R): 0.885652260182" role="graphics-symbol" aria-roledescription="errorbar" transform="translate(153.8127554827652,530)" x2="60.604022624218175" y2="0" stroke="blue" stroke-width="0.6"></line><line aria-label="CI 0.975: 0.90256403666; upper_Quantile.0.025(R): 0.98529662804; index: RS; Quantile.0.975(R): 0.98529662804; Quantile.0.025(R): 0.90256403666" role="graphics-symbol" aria-roledescription="errorbar" transform="translate(162.9190966632635,450)" x2="44.54831843516905" y2="0" stroke="blue" stroke-width="0.6"></line><line aria-label="CI 0.975: 0.968736381224; upper_Quantile.0.025(R): 1.05956425631; index: AP; Quantile.0.975(R): 1.05956425631; Quantile.0.025(R): 0.968736381224" role="graphics-symbol" aria-roledescription="errorbar" transform="translate(198.5503591207129,70)" x2="48.907317353782275" y2="0" stroke="blue" stroke-width="0.6"></line><line aria-label="CI 0.975: 0.987551933497; upper_Quantile.0.025(R): 1.08919680329; index: SC; Quantile.0.975(R): 1.08919680329; Quantile.0.025(R): 0.987551933497" role="graphics-symbol" aria-roledescription="errorbar" transform="translate(208.68181034431169,470)" x2="54.73185296625658" y2="0" stroke="blue" stroke-width="0.6"></line><line aria-label="CI 0.975: 1.01694393221; upper_Quantile.0.025(R): 1.06738972634; index: MA; Quantile.0.975(R): 1.06738972634; Quantile.0.025(R): 1.01694393221" role="graphics-symbol" aria-roledescription="errorbar" transform="translate(224.50827118734864,190)" x2="27.16311991677776" y2="0" stroke="blue" stroke-width="0.6"></line><line aria-label="CI 0.975: 0.96085558484; upper_Quantile.0.025(R): 1.14383870597; index: AC; Quantile.0.975(R): 1.14383870597; Quantile.0.025(R): 0.96085558484" role="graphics-symbol" aria-roledescription="errorbar" transform="translate(194.30685337519586,10)" x2="98.52937291453767" y2="0" stroke="blue" stroke-width="0.6"></line><line aria-label="CI 0.975: 1.04543778184; upper_Quantile.0.025(R): 1.13598228606; index: SP; Quantile.0.975(R): 1.13598228606; Quantile.0.025(R): 1.04543778184" role="graphics-symbol" aria-roledescription="errorbar" transform="translate(239.85111330090498,510)" x2="48.75473304002716" y2="0" stroke="blue" stroke-width="0.6"></line><line aria-label="CI 0.975: 1.13832539671; upper_Quantile.0.025(R): 1.22318476769; index: PA; Quantile.0.975(R): 1.22318476769; Quantile.0.025(R): 1.13832539671" role="graphics-symbol" aria-roledescription="errorbar" transform="translate(289.8675213027499,270)" x2="45.6935074547348" y2="0" stroke="blue" stroke-width="0.6"></line><line aria-label="CI 0.975: 1.11545489724; upper_Quantile.0.025(R): 1.26327628833; index: SE; Quantile.0.975(R): 1.26327628833; Quantile.0.025(R): 1.11545489724" role="graphics-symbol" aria-roledescription="errorbar" transform="translate(277.55263697799063,490)" x2="79.59613366225022" y2="0" stroke="blue" stroke-width="0.6"></line><line aria-label="CI 0.975: 1.10625550664; upper_Quantile.0.025(R): 1.27786175579; index: AL; Quantile.0.975(R): 1.27786175579; Quantile.0.025(R): 1.10625550664" role="graphics-symbol" aria-roledescription="errorbar" transform="translate(272.59911896067973,30)" x2="92.40336492456947" y2="0" stroke="blue" stroke-width="0.6"></line><line aria-label="CI 0.975: 1.14840859095; upper_Quantile.0.025(R): 1.27871638904; index: PB; Quantile.0.975(R): 1.27871638904; Quantile.0.025(R): 1.14840859095" role="graphics-symbol" aria-roledescription="errorbar" transform="translate(295.2969335888815,290)" x2="70.16573743524759" y2="0" stroke="blue" stroke-width="0.6"></line><line aria-label="CI 0.975: 1.17162326925; upper_Quantile.0.025(R): 1.39329121086; index: MS; Quantile.0.975(R): 1.39329121086; Quantile.0.025(R): 1.17162326925" role="graphics-symbol" aria-roledescription="errorbar" transform="translate(307.79714498071354,230)" x2="119.35966086574575" y2="0" stroke="blue" stroke-width="0.6"></line><line aria-label="CI 0.975: 1.16218629341; upper_Quantile.0.025(R): 1.42773195726; index: GO; Quantile.0.975(R): 1.42773195726; Quantile.0.025(R): 1.16218629341" role="graphics-symbol" aria-roledescription="errorbar" transform="translate(302.7156964526489,170)" x2="142.98612668993638" y2="0" stroke="blue" stroke-width="0.6"></line><line aria-label="CI 0.975: 1.18414964905; upper_Quantile.0.025(R): 1.41984345387; index: PR; Quantile.0.975(R): 1.41984345387; Quantile.0.025(R): 1.18414964905" role="graphics-symbol" aria-roledescription="errorbar" transform="translate(314.5421187217619,350)" x2="126.91204874417684" y2="0" stroke="blue" stroke-width="0.6"></line><line aria-label="CI 0.975: 1.1846761063; upper_Quantile.0.025(R): 1.42644970737; index: MG; Quantile.0.975(R): 1.42644970737; Quantile.0.025(R): 1.1846761063" role="graphics-symbol" aria-roledescription="errorbar" transform="translate(314.8255957020229,210)" x2="130.1857851906563" y2="0" stroke="blue" stroke-width="0.6"></line><line aria-label="CI 0.975: 1.20274221071; upper_Quantile.0.025(R): 1.43686083399; index: MT; Quantile.0.975(R): 1.43686083399; Quantile.0.025(R): 1.20274221071" role="graphics-symbol" aria-roledescription="errorbar" transform="translate(324.5534980727705,250)" x2="126.063874073786" y2="0" stroke="blue" stroke-width="0.6"></line><line aria-label="CI 0.975: 1.2453933433; upper_Quantile.0.025(R): 1.463160795; index: ES; Quantile.0.975(R): 1.463160795; Quantile.0.025(R): 1.2453933433" role="graphics-symbol" aria-roledescription="errorbar" transform="translate(347.51949254849205,150)" x2="117.25939706434633" y2="0" stroke="blue" stroke-width="0.6"></line><line aria-label="CI 0.975: 1.27878743841; upper_Quantile.0.025(R): 1.53424631299; index: PI; Quantile.0.975(R): 1.53424631299; Quantile.0.025(R): 1.27878743841" role="graphics-symbol" aria-roledescription="errorbar" transform="translate(365.50092837546606,330)" x2="137.55477861763472" y2="0" stroke="blue" stroke-width="0.6"></line><line aria-label="CI 0.975: 1.2471713437; upper_Quantile.0.025(R): 1.65317674231; index: BA; Quantile.0.975(R): 1.65317674231; Quantile.0.025(R): 1.2471713437" role="graphics-symbol" aria-roledescription="errorbar" transform="translate(348.4768773759192,90)" x2="218.6182915584747" y2="0" stroke="blue" stroke-width="0.6"></line><line aria-label="CI 0.975: 1.32388232354; upper_Quantile.0.025(R): 1.72215387738; index: RR; Quantile.0.975(R): 1.72215387738; Quantile.0.025(R): 1.32388232354" role="graphics-symbol" aria-roledescription="errorbar" transform="translate(389.78278959806653,430)" x2="214.45391360783105" y2="0" stroke="blue" stroke-width="0.6"></line><line aria-label="CI 0.975: 1.38086895164; upper_Quantile.0.025(R): 1.71103431114; index: RO; Quantile.0.975(R): 1.71103431114; Quantile.0.025(R): 1.38086895164" role="graphics-symbol" aria-roledescription="errorbar" transform="translate(420.46789703877454,410)" x2="177.7813474226702" y2="0" stroke="blue" stroke-width="0.6"></line><line aria-label="CI 0.975: 1.40765409038; upper_Quantile.0.025(R): 1.81446691742; index: DF; Quantile.0.975(R): 1.81446691742; Quantile.0.025(R): 1.40765409038" role="graphics-symbol" aria-roledescription="errorbar" transform="translate(434.89066404913876,130)" x2="219.05306071343398" y2="0" stroke="blue" stroke-width="0.6"></line></g><g class="mark-group role-title"><g transform="translate(350,-17.2)"><path class="background" aria-hidden="true" d="M0,0h0v0h0Z" pointer-events="none"></path><g><g class="mark-text role-title-text" role="graphics-symbol" aria-roledescription="title" aria-label="Title text 'Instantaneous reproduction number estimate for all states in Brazil'" pointer-events="none"><text text-anchor="middle" transform="translate(0,10)" font-family="sans-serif" font-size="13px" font-weight="bold" fill="#000" opacity="1">Instantaneous reproduction number estimate for all states in Brazil</text></g></g><path class="foreground" aria-hidden="true" d="" pointer-events="none" display="none"></path></g></g></g><path class="foreground" aria-hidden="true" d="" display="none"></path></g></g></g></svg>