<svg class="marks" width="546" height="107" viewBox="0 0 546 107" version="1.1" xmlns="http://www.w3.org/2000/svg" xmlns:xlink="http://www.w3.org/1999/xlink"><rect width="546" height="107" style="fill: white;"></rect><defs><linearGradient id="gradient_1" x1="0" x2="0" y1="1" y2="0"><stop offset="0" stop-color="rgb(252, 207, 204)"></stop><stop offset="0.0625" stop-color="rgb(252, 196, 197)"></stop><stop offset="0.125" stop-color="rgb(252, 185, 190)"></stop><stop offset="0.1875" stop-color="rgb(250, 172, 185)"></stop><stop offset="0.25" stop-color="rgb(250, 156, 180)"></stop><stop offset="0.3125" stop-color="rgb(249, 139, 174)"></stop><stop offset="0.375" stop-color="rgb(246, 121, 168)"></stop><stop offset="0.4375" stop-color="rgb(242, 102, 162)"></stop><stop offset="0.5" stop-color="rgb(236, 83, 157)"></stop><stop offset="0.5625" stop-color="rgb(225, 65, 152)"></stop><stop offset="0.625" stop-color="rgb(213, 47, 146)"></stop><stop offset="0.6875" stop-color="rgb(199, 30, 139)"></stop><stop offset="0.75" stop-color="rgb(183, 18, 133)"></stop><stop offset="0.8125" stop-color="rgb(166, 7, 127)"></stop><stop offset="0.875" stop-color="rgb(148, 3, 123)"></stop><stop offset="0.9375" stop-color="rgb(130, 1, 119)"></stop><stop offset="1" stop-color="rgb(112, 1, 116)"></stop></linearGradient></defs><g transform="translate(36,22)"><g class="mark-group role-frame root"><g transform="translate(0,0)"><path class="background" d="M0.5,0.5h400v40h-400Z" style="fill: none; stroke: #ddd;"></path><g><g class="mark-group role-axis"><g transform="translate(0.5,40.5)"><path class="background" d="M0,0h0v0h0Z" style="pointer-events: none; fill: none;"></path><g><g class="mark-rule role-axis-grid" style="pointer-events: none;"><line transform="translate(29,0)" x2="0" y2="-40" style="fill: none; stroke: #ddd; stroke-width: 1; opacity: 1;"></line><line transform="translate(98,0)" x2="0" y2="-40" style="fill: none; stroke: #ddd; stroke-width: 1; opacity: 1;"></line><line transform="translate(166,0)" x2="0" y2="-40" style="fill: none; stroke: #ddd; stroke-width: 1; opacity: 1;"></line><line transform="translate(234,0)" x2="0" y2="-40" style="fill: none; stroke: #ddd; stroke-width: 1; opacity: 1;"></line><line transform="translate(302,0)" x2="0" y2="-40" style="fill: none; stroke: #ddd; stroke-width: 1; opacity: 1;"></line><line transform="translate(371,0)" x2="0" y2="-40" style="fill: none; stroke: #ddd; stroke-width: 1; opacity: 1;"></line></g></g><path class="foreground" d="" style="pointer-events: none; display: none; fill: none;"></path></g></g><g class="mark-group role-axis"><g transform="translate(0.5,40.5)"><path class="background" d="M0,0h0v0h0Z" style="pointer-events: none; fill: none;"></path><g><g class="mark-rule role-axis-tick" style="pointer-events: none;"><line transform="translate(29,0)" x2="0" y2="5" style="fill: none; stroke: #888; stroke-width: 1; opacity: 1;"></line><line transform="translate(98,0)" x2="0" y2="5" style="fill: none; stroke: #888; stroke-width: 1; opacity: 1;"></line><line transform="translate(166,0)" x2="0" y2="5" style="fill: none; stroke: #888; stroke-width: 1; opacity: 1;"></line><line transform="translate(234,0)" x2="0" y2="5" style="fill: none; stroke: #888; stroke-width: 1; opacity: 1;"></line><line transform="translate(302,0)" x2="0" y2="5" style="fill: none; stroke: #888; stroke-width: 1; opacity: 1;"></line><line transform="translate(371,0)" x2="0" y2="5" style="fill: none; stroke: #888; stroke-width: 1; opacity: 1;"></line></g><g class="mark-text role-axis-label" style="pointer-events: none;"><text text-anchor="middle" transform="translate(29.298067141403866,15)" style="font-family: sans-serif; font-size: 10px; fill: #000; opacity: 1;">Mar 11</text><text text-anchor="middle" transform="translate(97.66022380467956,15)" style="font-family: sans-serif; font-size: 10px; fill: #000; opacity: 1;">Mar 18</text><text text-anchor="middle" transform="translate(166.02238046795523,15)" style="font-family: sans-serif; font-size: 10px; fill: #000; opacity: 1;">Mar 25</text><text text-anchor="middle" transform="translate(233.97761953204474,15)" style="font-family: sans-serif; font-size: 10px; fill: #000; opacity: 1;">Apr 01</text><text text-anchor="middle" transform="translate(302.33977619532044,15)" style="font-family: sans-serif; font-size: 10px; fill: #000; opacity: 1;">Apr 08</text><text text-anchor="middle" transform="translate(370.70193285859614,15)" style="font-family: sans-serif; font-size: 10px; fill: #000; opacity: 1;">Apr 15</text></g><g class="mark-rule role-axis-domain" style="pointer-events: none;"><line transform="translate(0,0)" x2="400" y2="0" style="fill: none; stroke: #888; stroke-width: 1; opacity: 1;"></line></g><g class="mark-text role-axis-title" style="pointer-events: none;"><text text-anchor="middle" transform="translate(200,30)" style="font-family: sans-serif; font-size: 11px; font-weight: bold; fill: #000; opacity: 1;">Date of Notification</text></g></g><path class="foreground" d="" style="pointer-events: none; display: none; fill: none;"></path></g></g><g class="mark-group role-axis"><g transform="translate(0.5,0.5)"><path class="background" d="M0,0h0v0h0Z" style="pointer-events: none; fill: none;"></path><g><g class="mark-rule role-axis-tick" style="pointer-events: none;"><line transform="translate(0,10)" x2="-5" y2="0" style="fill: none; stroke: #888; stroke-width: 1; opacity: 1;"></line><line transform="translate(0,30)" x2="-5" y2="0" style="fill: none; stroke: #888; stroke-width: 1; opacity: 1;"></line></g><g class="mark-text role-axis-label" style="pointer-events: none;"><text text-anchor="end" transform="translate(-7,12.5)" style="font-family: sans-serif; font-size: 10px; fill: #000; opacity: 1;">F</text><text text-anchor="end" transform="translate(-7,32.5)" style="font-family: sans-serif; font-size: 10px; fill: #000; opacity: 1;">M</text></g><g class="mark-rule role-axis-domain" style="pointer-events: none;"><line transform="translate(0,0)" x2="0" y2="40" style="fill: none; stroke: #888; stroke-width: 1; opacity: 1;"></line></g><g class="mark-text role-axis-title" style="pointer-events: none;"><text text-anchor="middle" transform="translate(-19.330078125,20) rotate(-90) translate(0,-2)" style="font-family: sans-serif; font-size: 11px; font-weight: bold; fill: #000; opacity: 1;">Gender</text></g></g><path class="foreground" d="" style="pointer-events: none; display: none; fill: none;"></path></g></g><g class="mark-rect role-mark marks"><path d="M1,21h8.766022380467955v18h-8.766022380467955Z" style="fill: rgb(252, 207, 204);"></path><path d="M10.766022380467955,1h8.766022380467955v18h-8.766022380467955Z" style="fill: rgb(252, 207, 204);"></path><path d="M30.298067141403866,21h8.766022380467955v18h-8.766022380467955Z" style="fill: rgb(252, 207, 204);"></path><path d="M30.298067141403866,1h8.766022380467955v18h-8.766022380467955Z" style="fill: rgb(252, 207, 204);"></path><path d="M40.06408952187182,21h8.766022380467959v18h-8.766022380467959Z" style="fill: rgb(252, 185, 190);"></path><path d="M49.83011190233978,1h8.766022380467952v18h-8.766022380467952Z" style="fill: rgb(252, 207, 204);"></path><path d="M59.59613428280773,21h8.766022380467952v18h-8.766022380467952Z" style="fill: rgb(250, 156, 180);"></path><path d="M59.59613428280773,1h8.766022380467952v18h-8.766022380467952Z" style="fill: rgb(252, 207, 204);"></path><path d="M69.36215666327568,21h8.766022380467959v18h-8.766022380467959Z" style="fill: rgb(252, 185, 190);"></path><path d="M69.36215666327568,1h8.766022380467959v18h-8.766022380467959Z" style="fill: rgb(252, 207, 204);"></path><path d="M137.72431332655137,21h8.766022380467945v18h-8.766022380467945Z" style="fill: rgb(249, 139, 174);"></path><path d="M79.12817904374364,21h8.766022380467945v18h-8.766022380467945Z" style="fill: rgb(242, 102, 162);"></path><path d="M79.12817904374364,1h8.766022380467945v18h-8.766022380467945Z" style="fill: rgb(242, 102, 162);"></path><path d="M88.89420142421159,21h8.766022380467973v18h-8.766022380467973Z" style="fill: rgb(246, 121, 168);"></path><path d="M88.89420142421159,1h8.766022380467973v18h-8.766022380467973Z" style="fill: rgb(250, 172, 185);"></path><path d="M98.66022380467956,21h8.766022380467945v18h-8.766022380467945Z" style="fill: rgb(249, 139, 174);"></path><path d="M98.66022380467956,1h8.766022380467945v18h-8.766022380467945Z" style="fill: rgb(250, 156, 180);"></path><path d="M108.4262461851475,1h8.766022380467959v18h-8.766022380467959Z" style="fill: rgb(252, 196, 197);"></path><path d="M108.4262461851475,21h8.766022380467959v18h-8.766022380467959Z" style="fill: rgb(250, 172, 185);"></path><path d="M118.19226856561546,1h8.766022380467959v18h-8.766022380467959Z" style="fill: rgb(252, 185, 190);"></path><path d="M118.19226856561546,21h8.766022380467959v18h-8.766022380467959Z" style="fill: rgb(236, 83, 157);"></path><path d="M127.95829094608342,1h8.766022380467945v18h-8.766022380467945Z" style="fill: rgb(252, 207, 204);"></path><path d="M127.95829094608342,21h8.766022380467945v18h-8.766022380467945Z" style="fill: rgb(252, 207, 204);"></path><path d="M137.72431332655137,1h8.766022380467945v18h-8.766022380467945Z" style="fill: rgb(252, 196, 197);"></path><path d="M147.4903357070193,1h8.766022380467973v18h-8.766022380467973Z" style="fill: rgb(242, 102, 162);"></path><path d="M147.4903357070193,21h8.766022380467973v18h-8.766022380467973Z" style="fill: rgb(242, 102, 162);"></path><path d="M157.25635808748729,1h8.766022380467945v18h-8.766022380467945Z" style="fill: rgb(250, 172, 185);"></path><path d="M157.25635808748729,21h8.766022380467945v18h-8.766022380467945Z" style="fill: rgb(246, 121, 168);"></path><path d="M167.02238046795523,21h8.359104781281786v18h-8.359104781281786Z" style="fill: rgb(242, 102, 162);"></path><path d="M167.02238046795523,1h8.359104781281786v18h-8.359104781281786Z" style="fill: rgb(236, 83, 157);"></path><path d="M176.38148524923702,1h8.766022380467973v18h-8.766022380467973Z" style="fill: rgb(250, 156, 180);"></path><path d="M176.38148524923702,21h8.766022380467973v18h-8.766022380467973Z" style="fill: rgb(252, 196, 197);"></path><path d="M186.147507629705,21h8.766022380467945v18h-8.766022380467945Z" style="fill: rgb(242, 102, 162);"></path><path d="M186.147507629705,1h8.766022380467945v18h-8.766022380467945Z" style="fill: rgb(242, 102, 162);"></path><path d="M195.91353001017293,21h8.766022380467945v18h-8.766022380467945Z" style="fill: rgb(252, 207, 204);"></path><path d="M195.91353001017293,1h8.766022380467945v18h-8.766022380467945Z" style="fill: rgb(252, 207, 204);"></path><path d="M205.67955239064088,1h8.766022380467973v18h-8.766022380467973Z" style="fill: rgb(249, 139, 174);"></path><path d="M205.67955239064088,21h8.766022380467973v18h-8.766022380467973Z" style="fill: rgb(225, 65, 152);"></path><path d="M215.44557477110885,21h8.766022380467945v18h-8.766022380467945Z" style="fill: rgb(236, 83, 157);"></path><path d="M215.44557477110885,1h8.766022380467945v18h-8.766022380467945Z" style="fill: rgb(225, 65, 152);"></path><path d="M225.2115971515768,1h8.766022380467945v18h-8.766022380467945Z" style="fill: rgb(148, 3, 123);"></path><path d="M225.2115971515768,21h8.766022380467945v18h-8.766022380467945Z" style="fill: rgb(130, 1, 119);"></path><path d="M234.97761953204474,21h8.766022380467945v18h-8.766022380467945Z" style="fill: rgb(249, 139, 174);"></path><path d="M234.97761953204474,1h8.766022380467945v18h-8.766022380467945Z" style="fill: rgb(250, 156, 180);"></path><path d="M293.5737538148525,21h8.766022380467916v18h-8.766022380467916Z" style="fill: rgb(250, 172, 185);"></path><path d="M244.7436419125127,21h8.766022380467973v18h-8.766022380467973Z" style="fill: rgb(112, 1, 116);"></path><path d="M244.7436419125127,1h8.766022380467973v18h-8.766022380467973Z" style="fill: rgb(236, 83, 157);"></path><path d="M254.50966429298066,21h8.766022380467945v18h-8.766022380467945Z" style="fill: rgb(252, 185, 190);"></path><path d="M254.50966429298066,1h8.766022380467945v18h-8.766022380467945Z" style="fill: rgb(249, 139, 174);"></path><path d="M274.0417090539166,1h8.766022380467973v18h-8.766022380467973Z" style="fill: rgb(252, 196, 197);"></path><path d="M283.80773143438455,1h8.766022380467973v18h-8.766022380467973Z" style="fill: rgb(250, 156, 180);"></path><path d="M283.80773143438455,21h8.766022380467973v18h-8.766022380467973Z" style="fill: rgb(249, 139, 174);"></path><path d="M264.2756866734486,1h8.766022380467973v18h-8.766022380467973Z" style="fill: rgb(252, 207, 204);"></path><path d="M293.5737538148525,1h8.766022380467916v18h-8.766022380467916Z" style="fill: rgb(252, 207, 204);"></path><path d="M303.33977619532044,21h8.766022380467973v18h-8.766022380467973Z" style="fill: rgb(250, 156, 180);"></path><path d="M303.33977619532044,1h8.766022380467973v18h-8.766022380467973Z" style="fill: rgb(242, 102, 162);"></path><path d="M264.2756866734486,21h8.766022380467973v18h-8.766022380467973Z" style="fill: rgb(252, 196, 197);"></path><path d="M313.1057985757884,1h8.766022380467973v18h-8.766022380467973Z" style="fill: rgb(252, 185, 190);"></path><path d="M313.1057985757884,21h8.766022380467973v18h-8.766022380467973Z" style="fill: rgb(252, 196, 197);"></path><path d="M274.0417090539166,21h8.766022380467973v18h-8.766022380467973Z" style="fill: rgb(252, 196, 197);"></path><path d="M332.6378433367243,21h8.766022380467973v18h-8.766022380467973Z" style="fill: rgb(252, 207, 204);"></path><path d="M332.6378433367243,1h8.766022380467973v18h-8.766022380467973Z" style="fill: rgb(252, 207, 204);"></path><path d="M352.16988809766025,1h8.766022380467916v18h-8.766022380467916Z" style="fill: rgb(246, 121, 168);"></path><path d="M342.4038657171923,1h8.766022380467973v18h-8.766022380467973Z" style="fill: rgb(252, 196, 197);"></path><path d="M352.16988809766025,21h8.766022380467916v18h-8.766022380467916Z" style="fill: rgb(225, 65, 152);"></path><path d="M361.93591047812816,21h8.766022380467973v18h-8.766022380467973Z" style="fill: rgb(250, 156, 180);"></path><path d="M361.93591047812816,1h8.766022380467973v18h-8.766022380467973Z" style="fill: rgb(112, 1, 116);"></path><path d="M342.4038657171923,21h8.766022380467973v18h-8.766022380467973Z" style="fill: rgb(252, 207, 204);"></path><path d="M371.70193285859614,1h8.766022380467973v18h-8.766022380467973Z" style="fill: rgb(250, 172, 185);"></path><path d="M371.70193285859614,21h8.766022380467973v18h-8.766022380467973Z" style="fill: rgb(252, 185, 190);"></path><path d="M381.4679552390641,21h8.766022380467916v18h-8.766022380467916Z" style="fill: rgb(250, 172, 185);"></path><path d="M381.4679552390641,1h8.766022380467916v18h-8.766022380467916Z" style="fill: rgb(250, 156, 180);"></path><path d="M391.233977619532,21h8.766022380467973v18h-8.766022380467973Z" style="fill: rgb(252, 196, 197);"></path><path d="M391.233977619532,1h8.766022380467973v18h-8.766022380467973Z" style="fill: rgb(250, 172, 185);"></path></g><g class="mark-group role-legend"><g transform="translate(418,0)"><path class="background" d="M0,0h87v80h-87Z" style="pointer-events: none; fill: none;"></path><g><g class="mark-group role-legend-entry"><g transform="translate(0,16)"><path class="background" d="M0,0h0v0h0Z" style="pointer-events: none; fill: none;"></path><g><g class="mark-rect role-legend-gradient" style="pointer-events: none;"><path d="M0,0h16v64h-16Z" style="fill: url(#gradient_1); stroke: #ddd; stroke-width: 0; opacity: 1;"></path></g><g class="mark-text role-legend-label" style="pointer-events: none;"><text text-anchor="start" transform="translate(18,62)" style="font-family: sans-serif; font-size: 10px; fill: #000; opacity: 1;">1</text><text text-anchor="start" transform="translate(18,8)" style="font-family: sans-serif; font-size: 10px; fill: #000; opacity: 1;">17</text></g></g><path class="foreground" d="" style="pointer-events: none; display: none; fill: none;"></path></g></g><g class="mark-text role-legend-title" style="pointer-events: none;"><text text-anchor="start" transform="translate(0,9)" style="font-family: sans-serif; font-size: 11px; font-weight: bold; fill: #000; opacity: 1;">Number Infected</text></g></g><path class="foreground" d="" style="pointer-events: none; display: none; fill: none;"></path></g></g><g class="mark-group role-title"><g transform="translate(200,-17)"><path class="background" d="M0,0h0v0h0Z" style="pointer-events: none; fill: none;"></path><g><g class="mark-text role-title-text" style="pointer-events: none;"><text text-anchor="middle" transform="translate(0,10)" style="font-family: sans-serif; font-size: 13px; font-weight: bold; fill: #000; opacity: 1;">Infections by Age and Date of Notification / Porto Alegre/RS/Brazil</text></g></g><path class="foreground" d="" style="pointer-events: none; display: none; fill: none;"></path></g></g></g><path class="foreground" d="" style="display: none; fill: none;"></path></g></g></g></svg>