<svg class="marks" width="829" height="599" viewBox="0 0 829 599" version="1.1" xmlns="http://www.w3.org/2000/svg" xmlns:xlink="http://www.w3.org/1999/xlink"><rect width="829" height="599" fill="white"></rect><g fill="none" stroke-miterlimit="10" transform="translate(123,22)"><g class="mark-group role-frame root" role="graphics-object" aria-roledescription="group mark container"><g transform="translate(0,0)"><path class="background" aria-hidden="true" d="M0.5,0.5h700v540h-700Z"></path><g><g class="mark-group role-axis" aria-hidden="true"><g transform="translate(0.5,0.5)"><path class="background" aria-hidden="true" d="M0,0h0v0h0Z" pointer-events="none"></path><g><g class="mark-rule role-axis-grid" pointer-events="none"><line transform="translate(0,10)" x2="700" y2="0" stroke="#ddd" stroke-width="1" opacity="1"></line><line transform="translate(0,30)" x2="700" y2="0" stroke="#ddd" stroke-width="1" opacity="1"></line><line transform="translate(0,50)" x2="700" y2="0" stroke="#ddd" stroke-width="1" opacity="1"></line><line transform="translate(0,70)" x2="700" y2="0" stroke="#ddd" stroke-width="1" opacity="1"></line><line transform="translate(0,90)" x2="700" y2="0" stroke="#ddd" stroke-width="1" opacity="1"></line><line transform="translate(0,110)" x2="700" y2="0" stroke="#ddd" stroke-width="1" opacity="1"></line><line transform="translate(0,130)" x2="700" y2="0" stroke="#ddd" stroke-width="1" opacity="1"></line><line transform="translate(0,150)" x2="700" y2="0" stroke="#ddd" stroke-width="1" opacity="1"></line><line transform="translate(0,170)" x2="700" y2="0" stroke="#ddd" stroke-width="1" opacity="1"></line><line transform="translate(0,190)" x2="700" y2="0" stroke="#ddd" stroke-width="1" opacity="1"></line><line transform="translate(0,210)" x2="700" y2="0" stroke="#ddd" stroke-width="1" opacity="1"></line><line transform="translate(0,230)" x2="700" y2="0" stroke="#ddd" stroke-width="1" opacity="1"></line><line transform="translate(0,250)" x2="700" y2="0" stroke="#ddd" stroke-width="1" opacity="1"></line><line transform="translate(0,270)" x2="700" y2="0" stroke="#ddd" stroke-width="1" opacity="1"></line><line transform="translate(0,290)" x2="700" y2="0" stroke="#ddd" stroke-width="1" opacity="1"></line><line transform="translate(0,310)" x2="700" y2="0" stroke="#ddd" stroke-width="1" opacity="1"></line><line transform="translate(0,330)" x2="700" y2="0" stroke="#ddd" stroke-width="1" opacity="1"></line><line transform="translate(0,350)" x2="700" y2="0" stroke="#ddd" stroke-width="1" opacity="1"></line><line transform="translate(0,370)" x2="700" y2="0" stroke="#ddd" stroke-width="1" opacity="1"></line><line transform="translate(0,390)" x2="700" y2="0" stroke="#ddd" stroke-width="1" opacity="1"></line><line transform="translate(0,410)" x2="700" y2="0" stroke="#ddd" stroke-width="1" opacity="1"></line><line transform="translate(0,430)" x2="700" y2="0" stroke="#ddd" stroke-width="1" opacity="1"></line><line transform="translate(0,450)" x2="700" y2="0" stroke="#ddd" stroke-width="1" opacity="1"></line><line transform="translate(0,470)" x2="700" y2="0" stroke="#ddd" stroke-width="1" opacity="1"></line><line transform="translate(0,490)" x2="700" y2="0" stroke="#ddd" stroke-width="1" opacity="1"></line><line transform="translate(0,510)" x2="700" y2="0" stroke="#ddd" stroke-width="1" opacity="1"></line><line transform="translate(0,530)" x2="700" y2="0" stroke="#ddd" stroke-width="1" opacity="1"></line></g></g><path class="foreground" aria-hidden="true" d="" pointer-events="none" display="none"></path></g></g><g class="mark-group role-axis" role="graphics-symbol" aria-roledescription="axis" aria-label="X-axis titled 'Weighted percentage w/ COVID-like illness, CI 0.95' for a linear scale with values from -2 to 12"><g transform="translate(0.5,540.5)"><path class="background" aria-hidden="true" d="M0,0h0v0h0Z" pointer-events="none"></path><g><g class="mark-rule role-axis-tick" pointer-events="none"><line transform="translate(0,0)" x2="0" y2="5" stroke="#888" stroke-width="1" opacity="1"></line><line transform="translate(50,0)" x2="0" y2="5" stroke="#888" stroke-width="1" opacity="1"></line><line transform="translate(100,0)" x2="0" y2="5" stroke="#888" stroke-width="1" opacity="1"></line><line transform="translate(150,0)" x2="0" y2="5" stroke="#888" stroke-width="1" opacity="1"></line><line transform="translate(200,0)" x2="0" y2="5" stroke="#888" stroke-width="1" opacity="1"></line><line transform="translate(250,0)" x2="0" y2="5" stroke="#888" stroke-width="1" opacity="1"></line><line transform="translate(300,0)" x2="0" y2="5" stroke="#888" stroke-width="1" opacity="1"></line><line transform="translate(350,0)" x2="0" y2="5" stroke="#888" stroke-width="1" opacity="1"></line><line transform="translate(400,0)" x2="0" y2="5" stroke="#888" stroke-width="1" opacity="1"></line><line transform="translate(450,0)" x2="0" y2="5" stroke="#888" stroke-width="1" opacity="1"></line><line transform="translate(500,0)" x2="0" y2="5" stroke="#888" stroke-width="1" opacity="1"></line><line transform="translate(550,0)" x2="0" y2="5" stroke="#888" stroke-width="1" opacity="1"></line><line transform="translate(600,0)" x2="0" y2="5" stroke="#888" stroke-width="1" opacity="1"></line><line transform="translate(650,0)" x2="0" y2="5" stroke="#888" stroke-width="1" opacity="1"></line><line transform="translate(700,0)" x2="0" y2="5" stroke="#888" stroke-width="1" opacity="1"></line></g><g class="mark-text role-axis-label" pointer-events="none"><text text-anchor="start" transform="translate(0,15)" font-family="sans-serif" font-size="10px" fill="#000" opacity="1">-2</text><text text-anchor="middle" transform="translate(50,15)" font-family="sans-serif" font-size="10px" fill="#000" opacity="1">-1</text><text text-anchor="middle" transform="translate(100,15)" font-family="sans-serif" font-size="10px" fill="#000" opacity="1">0</text><text text-anchor="middle" transform="translate(150,15)" font-family="sans-serif" font-size="10px" fill="#000" opacity="1">1</text><text text-anchor="middle" transform="translate(200,15)" font-family="sans-serif" font-size="10px" fill="#000" opacity="1">2</text><text text-anchor="middle" transform="translate(250,15)" font-family="sans-serif" font-size="10px" fill="#000" opacity="1">3</text><text text-anchor="middle" transform="translate(300,15)" font-family="sans-serif" font-size="10px" fill="#000" opacity="1">4</text><text text-anchor="middle" transform="translate(350,15)" font-family="sans-serif" font-size="10px" fill="#000" opacity="1">5</text><text text-anchor="middle" transform="translate(400,15)" font-family="sans-serif" font-size="10px" fill="#000" opacity="1">6</text><text text-anchor="middle" transform="translate(450.00000000000006,15)" font-family="sans-serif" font-size="10px" fill="#000" opacity="1">7</text><text text-anchor="middle" transform="translate(500,15)" font-family="sans-serif" font-size="10px" fill="#000" opacity="1">8</text><text text-anchor="middle" transform="translate(550,15)" font-family="sans-serif" font-size="10px" fill="#000" opacity="1">9</text><text text-anchor="middle" transform="translate(600,15)" font-family="sans-serif" font-size="10px" fill="#000" opacity="1">10</text><text text-anchor="middle" transform="translate(650,15)" font-family="sans-serif" font-size="10px" fill="#000" opacity="1">11</text><text text-anchor="end" transform="translate(700,15)" font-family="sans-serif" font-size="10px" fill="#000" opacity="1">12</text></g><g class="mark-rule role-axis-domain" pointer-events="none"><line transform="translate(0,0)" x2="700" y2="0" stroke="#888" stroke-width="1" opacity="1"></line></g><g class="mark-text role-axis-title" pointer-events="none"><text text-anchor="middle" transform="translate(350,30)" font-family="sans-serif" font-size="11px" font-weight="bold" fill="#000" opacity="1">Weighted percentage w/ COVID-like illness, CI 0.95</text></g></g><path class="foreground" aria-hidden="true" d="" pointer-events="none" display="none"></path></g></g><g class="mark-group role-axis" role="graphics-symbol" aria-roledescription="axis" aria-label="Y-axis titled 'States' for a discrete scale with 27 values: Acre, Alagoas, Amapá, Amazonas, Bahia, ending with Tocantins"><g transform="translate(0.5,0.5)"><path class="background" aria-hidden="true" d="M0,0h0v0h0Z" pointer-events="none"></path><g><g class="mark-rule role-axis-tick" pointer-events="none"><line transform="translate(0,10)" x2="-5" y2="0" stroke="#888" stroke-width="1" opacity="1"></line><line transform="translate(0,30)" x2="-5" y2="0" stroke="#888" stroke-width="1" opacity="1"></line><line transform="translate(0,50)" x2="-5" y2="0" stroke="#888" stroke-width="1" opacity="1"></line><line transform="translate(0,70)" x2="-5" y2="0" stroke="#888" stroke-width="1" opacity="1"></line><line transform="translate(0,90)" x2="-5" y2="0" stroke="#888" stroke-width="1" opacity="1"></line><line transform="translate(0,110)" x2="-5" y2="0" stroke="#888" stroke-width="1" opacity="1"></line><line transform="translate(0,130)" x2="-5" y2="0" stroke="#888" stroke-width="1" opacity="1"></line><line transform="translate(0,150)" x2="-5" y2="0" stroke="#888" stroke-width="1" opacity="1"></line><line transform="translate(0,170)" x2="-5" y2="0" stroke="#888" stroke-width="1" opacity="1"></line><line transform="translate(0,190)" x2="-5" y2="0" stroke="#888" stroke-width="1" opacity="1"></line><line transform="translate(0,210)" x2="-5" y2="0" stroke="#888" stroke-width="1" opacity="1"></line><line transform="translate(0,230)" x2="-5" y2="0" stroke="#888" stroke-width="1" opacity="1"></line><line transform="translate(0,250)" x2="-5" y2="0" stroke="#888" stroke-width="1" opacity="1"></line><line transform="translate(0,270)" x2="-5" y2="0" stroke="#888" stroke-width="1" opacity="1"></line><line transform="translate(0,290)" x2="-5" y2="0" stroke="#888" stroke-width="1" opacity="1"></line><line transform="translate(0,310)" x2="-5" y2="0" stroke="#888" stroke-width="1" opacity="1"></line><line transform="translate(0,330)" x2="-5" y2="0" stroke="#888" stroke-width="1" opacity="1"></line><line transform="translate(0,350)" x2="-5" y2="0" stroke="#888" stroke-width="1" opacity="1"></line><line transform="translate(0,370)" x2="-5" y2="0" stroke="#888" stroke-width="1" opacity="1"></line><line transform="translate(0,390)" x2="-5" y2="0" stroke="#888" stroke-width="1" opacity="1"></line><line transform="translate(0,410)" x2="-5" y2="0" stroke="#888" stroke-width="1" opacity="1"></line><line transform="translate(0,430)" x2="-5" y2="0" stroke="#888" stroke-width="1" opacity="1"></line><line transform="translate(0,450)" x2="-5" y2="0" stroke="#888" stroke-width="1" opacity="1"></line><line transform="translate(0,470)" x2="-5" y2="0" stroke="#888" stroke-width="1" opacity="1"></line><line transform="translate(0,490)" x2="-5" y2="0" stroke="#888" stroke-width="1" opacity="1"></line><line transform="translate(0,510)" x2="-5" y2="0" stroke="#888" stroke-width="1" opacity="1"></line><line transform="translate(0,530)" x2="-5" y2="0" stroke="#888" stroke-width="1" opacity="1"></line></g><g class="mark-text role-axis-label" pointer-events="none"><text text-anchor="end" transform="translate(-7,12.5)" font-family="sans-serif" font-size="10px" fill="#000" opacity="1">Acre</text><text text-anchor="end" transform="translate(-7,32.5)" font-family="sans-serif" font-size="10px" fill="#000" opacity="1">Alagoas</text><text text-anchor="end" transform="translate(-7,52.5)" font-family="sans-serif" font-size="10px" fill="#000" opacity="1">Amapá</text><text text-anchor="end" transform="translate(-7,72.5)" font-family="sans-serif" font-size="10px" fill="#000" opacity="1">Amazonas</text><text text-anchor="end" transform="translate(-7,92.5)" font-family="sans-serif" font-size="10px" fill="#000" opacity="1">Bahia</text><text text-anchor="end" transform="translate(-7,112.5)" font-family="sans-serif" font-size="10px" fill="#000" opacity="1">Ceará</text><text text-anchor="end" transform="translate(-7,132.5)" font-family="sans-serif" font-size="10px" fill="#000" opacity="1">Distrito Federal</text><text text-anchor="end" transform="translate(-7,152.5)" font-family="sans-serif" font-size="10px" fill="#000" opacity="1">Espírito Santo</text><text text-anchor="end" transform="translate(-7,172.5)" font-family="sans-serif" font-size="10px" fill="#000" opacity="1">Goiás</text><text text-anchor="end" transform="translate(-7,192.5)" font-family="sans-serif" font-size="10px" fill="#000" opacity="1">Maranhão</text><text text-anchor="end" transform="translate(-7,212.5)" font-family="sans-serif" font-size="10px" fill="#000" opacity="1">Mato Grosso</text><text text-anchor="end" transform="translate(-7,232.5)" font-family="sans-serif" font-size="10px" fill="#000" opacity="1">Mato Grosso do Sul</text><text text-anchor="end" transform="translate(-7,252.5)" font-family="sans-serif" font-size="10px" fill="#000" opacity="1">Minas Gerais</text><text text-anchor="end" transform="translate(-7,272.5)" font-family="sans-serif" font-size="10px" fill="#000" opacity="1">Paraná</text><text text-anchor="end" transform="translate(-7,292.5)" font-family="sans-serif" font-size="10px" fill="#000" opacity="1">Paraíba</text><text text-anchor="end" transform="translate(-7,312.5)" font-family="sans-serif" font-size="10px" fill="#000" opacity="1">Pará</text><text text-anchor="end" transform="translate(-7,332.5)" font-family="sans-serif" font-size="10px" fill="#000" opacity="1">Pernambuco</text><text text-anchor="end" transform="translate(-7,352.5)" font-family="sans-serif" font-size="10px" fill="#000" opacity="1">Piauí</text><text text-anchor="end" transform="translate(-7,372.5)" font-family="sans-serif" font-size="10px" fill="#000" opacity="1">Rio Grande do Norte</text><text text-anchor="end" transform="translate(-7,392.5)" font-family="sans-serif" font-size="10px" fill="#000" opacity="1">Rio Grande do Sul</text><text text-anchor="end" transform="translate(-7,412.5)" font-family="sans-serif" font-size="10px" fill="#000" opacity="1">Rio de Janeiro</text><text text-anchor="end" transform="translate(-7,432.5)" font-family="sans-serif" font-size="10px" fill="#000" opacity="1">Rondônia</text><text text-anchor="end" transform="translate(-7,452.5)" font-family="sans-serif" font-size="10px" fill="#000" opacity="1">Roraima</text><text text-anchor="end" transform="translate(-7,472.5)" font-family="sans-serif" font-size="10px" fill="#000" opacity="1">Santa Catarina</text><text text-anchor="end" transform="translate(-7,492.5)" font-family="sans-serif" font-size="10px" fill="#000" opacity="1">Sergipe</text><text text-anchor="end" transform="translate(-7,512.5)" font-family="sans-serif" font-size="10px" fill="#000" opacity="1">São Paulo</text><text text-anchor="end" transform="translate(-7,532.5)" font-family="sans-serif" font-size="10px" fill="#000" opacity="1">Tocantins</text></g><g class="mark-rule role-axis-domain" pointer-events="none"><line transform="translate(0,0)" x2="0" y2="540" stroke="#888" stroke-width="1" opacity="1"></line></g><g class="mark-text role-axis-title" pointer-events="none"><text text-anchor="middle" transform="translate(-107,270) rotate(-90) translate(0,-2)" font-family="sans-serif" font-size="11px" font-weight="bold" fill="#000" opacity="1">States</text></g></g><path class="foreground" aria-hidden="true" d="" pointer-events="none" display="none"></path></g></g><g class="mark-symbol role-mark layer_0_marks" role="graphics-object" aria-roledescription="symbol mark container"><path aria-label="Weighted percentage w/ COVID-like illness: 6.4901; States: Pará" role="graphics-symbol" aria-roledescription="point" transform="translate(424.505,310)" d="M2.7386127875258306,0A2.7386127875258306,2.7386127875258306,0,1,1,-2.7386127875258306,0A2.7386127875258306,2.7386127875258306,0,1,1,2.7386127875258306,0" stroke="#4c78a8" stroke-width="2" opacity="0.7"></path><path aria-label="Weighted percentage w/ COVID-like illness: 6.0956; States: Acre" role="graphics-symbol" aria-roledescription="point" transform="translate(404.78000000000003,10)" d="M2.7386127875258306,0A2.7386127875258306,2.7386127875258306,0,1,1,-2.7386127875258306,0A2.7386127875258306,2.7386127875258306,0,1,1,2.7386127875258306,0" stroke="#4c78a8" stroke-width="2" opacity="0.7"></path><path aria-label="Weighted percentage w/ COVID-like illness: 5.7606; States: Maranhão" role="graphics-symbol" aria-roledescription="point" transform="translate(388.03,190)" d="M2.7386127875258306,0A2.7386127875258306,2.7386127875258306,0,1,1,-2.7386127875258306,0A2.7386127875258306,2.7386127875258306,0,1,1,2.7386127875258306,0" stroke="#4c78a8" stroke-width="2" opacity="0.7"></path><path aria-label="Weighted percentage w/ COVID-like illness: 5.3635; States: Roraima" role="graphics-symbol" aria-roledescription="point" transform="translate(368.17500000000007,450)" d="M2.7386127875258306,0A2.7386127875258306,2.7386127875258306,0,1,1,-2.7386127875258306,0A2.7386127875258306,2.7386127875258306,0,1,1,2.7386127875258306,0" stroke="#4c78a8" stroke-width="2" opacity="0.7"></path><path aria-label="Weighted percentage w/ COVID-like illness: 4.9734; States: Alagoas" role="graphics-symbol" aria-roledescription="point" transform="translate(348.67,30)" d="M2.7386127875258306,0A2.7386127875258306,2.7386127875258306,0,1,1,-2.7386127875258306,0A2.7386127875258306,2.7386127875258306,0,1,1,2.7386127875258306,0" stroke="#4c78a8" stroke-width="2" opacity="0.7"></path><path aria-label="Weighted percentage w/ COVID-like illness: 3.6637; States: Rondônia" role="graphics-symbol" aria-roledescription="point" transform="translate(283.185,430)" d="M2.7386127875258306,0A2.7386127875258306,2.7386127875258306,0,1,1,-2.7386127875258306,0A2.7386127875258306,2.7386127875258306,0,1,1,2.7386127875258306,0" stroke="#4c78a8" stroke-width="2" opacity="0.7"></path><path aria-label="Weighted percentage w/ COVID-like illness: 3.6123; States: Amazonas" role="graphics-symbol" aria-roledescription="point" transform="translate(280.615,70)" d="M2.7386127875258306,0A2.7386127875258306,2.7386127875258306,0,1,1,-2.7386127875258306,0A2.7386127875258306,2.7386127875258306,0,1,1,2.7386127875258306,0" stroke="#4c78a8" stroke-width="2" opacity="0.7"></path><path aria-label="Weighted percentage w/ COVID-like illness: 3.5462; States: Espírito Santo" role="graphics-symbol" aria-roledescription="point" transform="translate(277.31000000000006,150)" d="M2.7386127875258306,0A2.7386127875258306,2.7386127875258306,0,1,1,-2.7386127875258306,0A2.7386127875258306,2.7386127875258306,0,1,1,2.7386127875258306,0" stroke="#4c78a8" stroke-width="2" opacity="0.7"></path><path aria-label="Weighted percentage w/ COVID-like illness: 3.1205; States: Amapá" role="graphics-symbol" aria-roledescription="point" transform="translate(256.025,50)" d="M2.7386127875258306,0A2.7386127875258306,2.7386127875258306,0,1,1,-2.7386127875258306,0A2.7386127875258306,2.7386127875258306,0,1,1,2.7386127875258306,0" stroke="#4c78a8" stroke-width="2" opacity="0.7"></path><path aria-label="Weighted percentage w/ COVID-like illness: 3.095; States: Paraíba" role="graphics-symbol" aria-roledescription="point" transform="translate(254.75,290)" d="M2.7386127875258306,0A2.7386127875258306,2.7386127875258306,0,1,1,-2.7386127875258306,0A2.7386127875258306,2.7386127875258306,0,1,1,2.7386127875258306,0" stroke="#4c78a8" stroke-width="2" opacity="0.7"></path><path aria-label="Weighted percentage w/ COVID-like illness: 2.9871; States: Ceará" role="graphics-symbol" aria-roledescription="point" transform="translate(249.35500000000002,110)" d="M2.7386127875258306,0A2.7386127875258306,2.7386127875258306,0,1,1,-2.7386127875258306,0A2.7386127875258306,2.7386127875258306,0,1,1,2.7386127875258306,0" stroke="#4c78a8" stroke-width="2" opacity="0.7"></path><path aria-label="Weighted percentage w/ COVID-like illness: 2.5677; States: Rio Grande do Norte" role="graphics-symbol" aria-roledescription="point" transform="translate(228.38500000000002,370)" d="M2.7386127875258306,0A2.7386127875258306,2.7386127875258306,0,1,1,-2.7386127875258306,0A2.7386127875258306,2.7386127875258306,0,1,1,2.7386127875258306,0" stroke="#4c78a8" stroke-width="2" opacity="0.7"></path><path aria-label="Weighted percentage w/ COVID-like illness: 2.4975; States: Sergipe" role="graphics-symbol" aria-roledescription="point" transform="translate(224.87500000000003,490)" d="M2.7386127875258306,0A2.7386127875258306,2.7386127875258306,0,1,1,-2.7386127875258306,0A2.7386127875258306,2.7386127875258306,0,1,1,2.7386127875258306,0" stroke="#4c78a8" stroke-width="2" opacity="0.7"></path><path aria-label="Weighted percentage w/ COVID-like illness: 2.3862; States: Pernambuco" role="graphics-symbol" aria-roledescription="point" transform="translate(219.31,330)" d="M2.7386127875258306,0A2.7386127875258306,2.7386127875258306,0,1,1,-2.7386127875258306,0A2.7386127875258306,2.7386127875258306,0,1,1,2.7386127875258306,0" stroke="#4c78a8" stroke-width="2" opacity="0.7"></path><path aria-label="Weighted percentage w/ COVID-like illness: 2.2754; States: Distrito Federal" role="graphics-symbol" aria-roledescription="point" transform="translate(213.76999999999998,130)" d="M2.7386127875258306,0A2.7386127875258306,2.7386127875258306,0,1,1,-2.7386127875258306,0A2.7386127875258306,2.7386127875258306,0,1,1,2.7386127875258306,0" stroke="#4c78a8" stroke-width="2" opacity="0.7"></path><path aria-label="Weighted percentage w/ COVID-like illness: 2.1452; States: Santa Catarina" role="graphics-symbol" aria-roledescription="point" transform="translate(207.26,470)" d="M2.7386127875258306,0A2.7386127875258306,2.7386127875258306,0,1,1,-2.7386127875258306,0A2.7386127875258306,2.7386127875258306,0,1,1,2.7386127875258306,0" stroke="#4c78a8" stroke-width="2" opacity="0.7"></path><path aria-label="Weighted percentage w/ COVID-like illness: 2.0619; States: Mato Grosso" role="graphics-symbol" aria-roledescription="point" transform="translate(203.095,210)" d="M2.7386127875258306,0A2.7386127875258306,2.7386127875258306,0,1,1,-2.7386127875258306,0A2.7386127875258306,2.7386127875258306,0,1,1,2.7386127875258306,0" stroke="#4c78a8" stroke-width="2" opacity="0.7"></path><path aria-label="Weighted percentage w/ COVID-like illness: 1.8696; States: Piauí" role="graphics-symbol" aria-roledescription="point" transform="translate(193.48000000000002,350)" d="M2.7386127875258306,0A2.7386127875258306,2.7386127875258306,0,1,1,-2.7386127875258306,0A2.7386127875258306,2.7386127875258306,0,1,1,2.7386127875258306,0" stroke="#4c78a8" stroke-width="2" opacity="0.7"></path><path aria-label="Weighted percentage w/ COVID-like illness: 1.4849; States: Minas Gerais" role="graphics-symbol" aria-roledescription="point" transform="translate(174.24499999999998,250)" d="M2.7386127875258306,0A2.7386127875258306,2.7386127875258306,0,1,1,-2.7386127875258306,0A2.7386127875258306,2.7386127875258306,0,1,1,2.7386127875258306,0" stroke="#4c78a8" stroke-width="2" opacity="0.7"></path><path aria-label="Weighted percentage w/ COVID-like illness: 1.4348; States: Goiás" role="graphics-symbol" aria-roledescription="point" transform="translate(171.74,170)" d="M2.7386127875258306,0A2.7386127875258306,2.7386127875258306,0,1,1,-2.7386127875258306,0A2.7386127875258306,2.7386127875258306,0,1,1,2.7386127875258306,0" stroke="#4c78a8" stroke-width="2" opacity="0.7"></path><path aria-label="Weighted percentage w/ COVID-like illness: 1.376; States: São Paulo" role="graphics-symbol" aria-roledescription="point" transform="translate(168.79999999999998,510)" d="M2.7386127875258306,0A2.7386127875258306,2.7386127875258306,0,1,1,-2.7386127875258306,0A2.7386127875258306,2.7386127875258306,0,1,1,2.7386127875258306,0" stroke="#4c78a8" stroke-width="2" opacity="0.7"></path><path aria-label="Weighted percentage w/ COVID-like illness: 1.1275; States: Rio de Janeiro" role="graphics-symbol" aria-roledescription="point" transform="translate(156.375,410)" d="M2.7386127875258306,0A2.7386127875258306,2.7386127875258306,0,1,1,-2.7386127875258306,0A2.7386127875258306,2.7386127875258306,0,1,1,2.7386127875258306,0" stroke="#4c78a8" stroke-width="2" opacity="0.7"></path><path aria-label="Weighted percentage w/ COVID-like illness: 1.0699; States: Tocantins" role="graphics-symbol" aria-roledescription="point" transform="translate(153.495,530)" d="M2.7386127875258306,0A2.7386127875258306,2.7386127875258306,0,1,1,-2.7386127875258306,0A2.7386127875258306,2.7386127875258306,0,1,1,2.7386127875258306,0" stroke="#4c78a8" stroke-width="2" opacity="0.7"></path><path aria-label="Weighted percentage w/ COVID-like illness: 1.0374; States: Bahia" role="graphics-symbol" aria-roledescription="point" transform="translate(151.87,90)" d="M2.7386127875258306,0A2.7386127875258306,2.7386127875258306,0,1,1,-2.7386127875258306,0A2.7386127875258306,2.7386127875258306,0,1,1,2.7386127875258306,0" stroke="#4c78a8" stroke-width="2" opacity="0.7"></path><path aria-label="Weighted percentage w/ COVID-like illness: 0.9173; States: Mato Grosso do Sul" role="graphics-symbol" aria-roledescription="point" transform="translate(145.865,230)" d="M2.7386127875258306,0A2.7386127875258306,2.7386127875258306,0,1,1,-2.7386127875258306,0A2.7386127875258306,2.7386127875258306,0,1,1,2.7386127875258306,0" stroke="#4c78a8" stroke-width="2" opacity="0.7"></path><path aria-label="Weighted percentage w/ COVID-like illness: 0.3377; States: Paraná" role="graphics-symbol" aria-roledescription="point" transform="translate(116.88499999999999,270)" d="M2.7386127875258306,0A2.7386127875258306,2.7386127875258306,0,1,1,-2.7386127875258306,0A2.7386127875258306,2.7386127875258306,0,1,1,2.7386127875258306,0" stroke="#4c78a8" stroke-width="2" opacity="0.7"></path><path aria-label="Weighted percentage w/ COVID-like illness: 0.1333; States: Rio Grande do Sul" role="graphics-symbol" aria-roledescription="point" transform="translate(106.665,390)" d="M2.7386127875258306,0A2.7386127875258306,2.7386127875258306,0,1,1,-2.7386127875258306,0A2.7386127875258306,2.7386127875258306,0,1,1,2.7386127875258306,0" stroke="#4c78a8" stroke-width="2" opacity="0.7"></path></g><g class="mark-rule role-mark layer_1_marks" role="graphics-object" aria-roledescription="rule mark container"><line aria-label="CI 0.95: 3.02188; upper_percent_cli_lower: 9.95832; region: Pará; percent_cli_upper: 9.95832; percent_cli_lower: 3.02188" role="graphics-symbol" aria-roledescription="errorbar" transform="translate(251.094,310)" x2="346.82200000000006" y2="0" stroke="blue" stroke-width="0.6"></line><line aria-label="CI 0.95: 0.969416; upper_percent_cli_lower: 11.221784; region: Acre; percent_cli_upper: 11.221784; percent_cli_lower: 0.969416" role="graphics-symbol" aria-roledescription="errorbar" transform="translate(148.47080000000003,10)" x2="512.6184" y2="0" stroke="blue" stroke-width="0.6"></line><line aria-label="CI 0.95: 3.183592; upper_percent_cli_lower: 8.337608; region: Maranhão; percent_cli_upper: 8.337608; percent_cli_lower: 3.183592" role="graphics-symbol" aria-roledescription="errorbar" transform="translate(259.1796,190)" x2="257.7008" y2="0" stroke="blue" stroke-width="0.6"></line><line aria-label="CI 0.95: 0.232416; upper_percent_cli_lower: 10.494584; region: Roraima; percent_cli_upper: 10.494584; percent_cli_lower: 0.232416" role="graphics-symbol" aria-roledescription="errorbar" transform="translate(111.62079999999999,450)" x2="513.1084" y2="0" stroke="blue" stroke-width="0.6"></line><line aria-label="CI 0.95: 1.334856; upper_percent_cli_lower: 8.611944; region: Alagoas; percent_cli_upper: 8.611944; percent_cli_lower: 1.334856" role="graphics-symbol" aria-roledescription="errorbar" transform="translate(166.74280000000002,30)" x2="363.85440000000006" y2="0" stroke="blue" stroke-width="0.6"></line><line aria-label="CI 0.95: 1.082184; upper_percent_cli_lower: 6.245216; region: Rondônia; percent_cli_upper: 6.245216; percent_cli_lower: 1.082184" role="graphics-symbol" aria-roledescription="errorbar" transform="translate(154.10920000000002,430)" x2="258.15160000000003" y2="0" stroke="blue" stroke-width="0.6"></line><line aria-label="CI 0.95: 1.47492; upper_percent_cli_lower: 5.74968; region: Amazonas; percent_cli_upper: 5.74968; percent_cli_lower: 1.47492" role="graphics-symbol" aria-roledescription="errorbar" transform="translate(173.74600000000004,70)" x2="213.73799999999994" y2="0" stroke="blue" stroke-width="0.6"></line><line aria-label="CI 0.95: 1.821008; upper_percent_cli_lower: 5.271392; region: Espírito Santo; percent_cli_upper: 5.271392; percent_cli_lower: 1.821008" role="graphics-symbol" aria-roledescription="errorbar" transform="translate(191.0504,150)" x2="172.51920000000004" y2="0" stroke="blue" stroke-width="0.6"></line><line aria-label="CI 0.95: -0.419652; upper_percent_cli_lower: 6.660652; region: Amapá; percent_cli_upper: 6.660652; percent_cli_lower: -0.419652" role="graphics-symbol" aria-roledescription="errorbar" transform="translate(79.01739999999997,50)" x2="354.01520000000005" y2="0" stroke="blue" stroke-width="0.6"></line><line aria-label="CI 0.95: 0.886276; upper_percent_cli_lower: 5.303724; region: Paraíba; percent_cli_upper: 5.303724; percent_cli_lower: 0.886276" role="graphics-symbol" aria-roledescription="errorbar" transform="translate(144.31380000000001,290)" x2="220.87240000000003" y2="0" stroke="blue" stroke-width="0.6"></line><line aria-label="CI 0.95: 0.850504; upper_percent_cli_lower: 5.123696; region: Ceará; percent_cli_upper: 5.123696; percent_cli_lower: 0.850504" role="graphics-symbol" aria-roledescription="errorbar" transform="translate(142.5252,110)" x2="213.65959999999998" y2="0" stroke="blue" stroke-width="0.6"></line><line aria-label="CI 0.95: 1.049092; upper_percent_cli_lower: 4.086308; region: Rio Grande do Norte; percent_cli_upper: 4.086308; percent_cli_lower: 1.049092" role="graphics-symbol" aria-roledescription="errorbar" transform="translate(152.4546,370)" x2="151.86079999999995" y2="0" stroke="blue" stroke-width="0.6"></line><line aria-label="CI 0.95: -0.374096; upper_percent_cli_lower: 5.369096; region: Sergipe; percent_cli_upper: 5.369096; percent_cli_lower: -0.374096" role="graphics-symbol" aria-roledescription="errorbar" transform="translate(81.2952,490)" x2="287.15959999999995" y2="0" stroke="blue" stroke-width="0.6"></line><line aria-label="CI 0.95: 0.515772; upper_percent_cli_lower: 4.256628; region: Pernambuco; percent_cli_upper: 4.256628; percent_cli_lower: 0.515772" role="graphics-symbol" aria-roledescription="errorbar" transform="translate(125.7886,330)" x2="187.04280000000003" y2="0" stroke="blue" stroke-width="0.6"></line><line aria-label="CI 0.95: 1.013356; upper_percent_cli_lower: 3.537444; region: Distrito Federal; percent_cli_upper: 3.537444; percent_cli_lower: 1.013356" role="graphics-symbol" aria-roledescription="errorbar" transform="translate(150.6678,130)" x2="126.20439999999996" y2="0" stroke="blue" stroke-width="0.6"></line><line aria-label="CI 0.95: 0.4988; upper_percent_cli_lower: 3.7916; region: Santa Catarina; percent_cli_upper: 3.7916; percent_cli_lower: 0.4988" role="graphics-symbol" aria-roledescription="errorbar" transform="translate(124.94000000000001,470)" x2="164.64" y2="0" stroke="blue" stroke-width="0.6"></line><line aria-label="CI 0.95: 0.601504; upper_percent_cli_lower: 3.522296; region: Mato Grosso; percent_cli_upper: 3.522296; percent_cli_lower: 0.601504" role="graphics-symbol" aria-roledescription="errorbar" transform="translate(130.0752,210)" x2="146.0396" y2="0" stroke="blue" stroke-width="0.6"></line><line aria-label="CI 0.95: -0.171544; upper_percent_cli_lower: 3.910744; region: Piauí; percent_cli_upper: 3.910744; percent_cli_lower: -0.171544" role="graphics-symbol" aria-roledescription="errorbar" transform="translate(91.4228,350)" x2="204.1144" y2="0" stroke="blue" stroke-width="0.6"></line><line aria-label="CI 0.95: 0.301452; upper_percent_cli_lower: 2.668348; region: Minas Gerais; percent_cli_upper: 2.668348; percent_cli_lower: 0.301452" role="graphics-symbol" aria-roledescription="errorbar" transform="translate(115.07259999999998,250)" x2="118.3448" y2="0" stroke="blue" stroke-width="0.6"></line><line aria-label="CI 0.95: 0.119836; upper_percent_cli_lower: 2.749764; region: Goiás; percent_cli_upper: 2.749764; percent_cli_lower: 0.119836" role="graphics-symbol" aria-roledescription="errorbar" transform="translate(105.99180000000001,170)" x2="131.4964" y2="0" stroke="blue" stroke-width="0.6"></line><line aria-label="CI 0.95: 0.726848; upper_percent_cli_lower: 2.025152; region: São Paulo; percent_cli_upper: 2.025152; percent_cli_lower: 0.726848" role="graphics-symbol" aria-roledescription="errorbar" transform="translate(136.3424,510)" x2="64.91520000000003" y2="0" stroke="blue" stroke-width="0.6"></line><line aria-label="CI 0.95: 0.057144; upper_percent_cli_lower: 2.197856; region: Rio de Janeiro; percent_cli_upper: 2.197856; percent_cli_lower: 0.057144" role="graphics-symbol" aria-roledescription="errorbar" transform="translate(102.8572,410)" x2="107.03559999999999" y2="0" stroke="blue" stroke-width="0.6"></line><line aria-label="CI 0.95: -1.005936; upper_percent_cli_lower: 3.145736; region: Tocantins; percent_cli_upper: 3.145736; percent_cli_lower: -1.005936" role="graphics-symbol" aria-roledescription="errorbar" transform="translate(49.7032,530)" x2="207.58360000000002" y2="0" stroke="blue" stroke-width="0.6"></line><line aria-label="CI 0.95: -0.148988; upper_percent_cli_lower: 2.223788; region: Bahia; percent_cli_upper: 2.223788; percent_cli_lower: -0.148988" role="graphics-symbol" aria-roledescription="errorbar" transform="translate(92.55059999999999,90)" x2="118.63880000000005" y2="0" stroke="blue" stroke-width="0.6"></line><line aria-label="CI 0.95: -0.231064; upper_percent_cli_lower: 2.065664; region: Mato Grosso do Sul; percent_cli_upper: 2.065664; percent_cli_lower: -0.231064" role="graphics-symbol" aria-roledescription="errorbar" transform="translate(88.4468,230)" x2="114.8364" y2="0" stroke="blue" stroke-width="0.6"></line><line aria-label="CI 0.95: -0.322624; upper_percent_cli_lower: 0.998024; region: Paraná; percent_cli_upper: 0.998024; percent_cli_lower: -0.322624" role="graphics-symbol" aria-roledescription="errorbar" transform="translate(83.8688,270)" x2="66.03240000000002" y2="0" stroke="blue" stroke-width="0.6"></line><line aria-label="CI 0.95: -0.27046; upper_percent_cli_lower: 0.53706; region: Rio Grande do Sul; percent_cli_upper: 0.53706; percent_cli_lower: -0.27046" role="graphics-symbol" aria-roledescription="errorbar" transform="translate(86.477,390)" x2="40.376000000000005" y2="0" stroke="blue" stroke-width="0.6"></line></g><g class="mark-group role-title"><g transform="translate(350,-17)"><path class="background" aria-hidden="true" d="M0,0h0v0h0Z" pointer-events="none"></path><g><g class="mark-text role-title-text" role="graphics-symbol" aria-roledescription="title" aria-label="Title text 'Facebook COVID-like illness symptom survey (last available date) for all states in Brazil'" pointer-events="none"><text text-anchor="middle" transform="translate(0,10)" font-family="sans-serif" font-size="13px" font-weight="bold" fill="#000" opacity="1">Facebook COVID-like illness symptom survey (last available date) for all states in Brazil</text></g></g><path class="foreground" aria-hidden="true" d="" pointer-events="none" display="none"></path></g></g></g><path class="foreground" aria-hidden="true" d="" display="none"></path></g></g></g></svg>