<svg class="marks" width="829" height="599" viewBox="0 0 829 599" version="1.1" xmlns="http://www.w3.org/2000/svg" xmlns:xlink="http://www.w3.org/1999/xlink"><rect width="829" height="599" fill="white"></rect><g fill="none" stroke-miterlimit="10" transform="translate(123,22)"><g class="mark-group role-frame root" role="graphics-object" aria-roledescription="group mark container"><g transform="translate(0,0)"><path class="background" aria-hidden="true" d="M0.5,0.5h700v540h-700Z"></path><g><g class="mark-group role-axis" aria-hidden="true"><g transform="translate(0.5,0.5)"><path class="background" aria-hidden="true" d="M0,0h0v0h0Z" pointer-events="none"></path><g><g class="mark-rule role-axis-grid" pointer-events="none"><line transform="translate(0,10)" x2="700" y2="0" stroke="#ddd" stroke-width="1" opacity="1"></line><line transform="translate(0,30)" x2="700" y2="0" stroke="#ddd" stroke-width="1" opacity="1"></line><line transform="translate(0,50)" x2="700" y2="0" stroke="#ddd" stroke-width="1" opacity="1"></line><line transform="translate(0,70)" x2="700" y2="0" stroke="#ddd" stroke-width="1" opacity="1"></line><line transform="translate(0,90)" x2="700" y2="0" stroke="#ddd" stroke-width="1" opacity="1"></line><line transform="translate(0,110)" x2="700" y2="0" stroke="#ddd" stroke-width="1" opacity="1"></line><line transform="translate(0,130)" x2="700" y2="0" stroke="#ddd" stroke-width="1" opacity="1"></line><line transform="translate(0,150)" x2="700" y2="0" stroke="#ddd" stroke-width="1" opacity="1"></line><line transform="translate(0,170)" x2="700" y2="0" stroke="#ddd" stroke-width="1" opacity="1"></line><line transform="translate(0,190)" x2="700" y2="0" stroke="#ddd" stroke-width="1" opacity="1"></line><line transform="translate(0,210)" x2="700" y2="0" stroke="#ddd" stroke-width="1" opacity="1"></line><line transform="translate(0,230)" x2="700" y2="0" stroke="#ddd" stroke-width="1" opacity="1"></line><line transform="translate(0,250)" x2="700" y2="0" stroke="#ddd" stroke-width="1" opacity="1"></line><line transform="translate(0,270)" x2="700" y2="0" stroke="#ddd" stroke-width="1" opacity="1"></line><line transform="translate(0,290)" x2="700" y2="0" stroke="#ddd" stroke-width="1" opacity="1"></line><line transform="translate(0,310)" x2="700" y2="0" stroke="#ddd" stroke-width="1" opacity="1"></line><line transform="translate(0,330)" x2="700" y2="0" stroke="#ddd" stroke-width="1" opacity="1"></line><line transform="translate(0,350)" x2="700" y2="0" stroke="#ddd" stroke-width="1" opacity="1"></line><line transform="translate(0,370)" x2="700" y2="0" stroke="#ddd" stroke-width="1" opacity="1"></line><line transform="translate(0,390)" x2="700" y2="0" stroke="#ddd" stroke-width="1" opacity="1"></line><line transform="translate(0,410)" x2="700" y2="0" stroke="#ddd" stroke-width="1" opacity="1"></line><line transform="translate(0,430)" x2="700" y2="0" stroke="#ddd" stroke-width="1" opacity="1"></line><line transform="translate(0,450)" x2="700" y2="0" stroke="#ddd" stroke-width="1" opacity="1"></line><line transform="translate(0,470)" x2="700" y2="0" stroke="#ddd" stroke-width="1" opacity="1"></line><line transform="translate(0,490)" x2="700" y2="0" stroke="#ddd" stroke-width="1" opacity="1"></line><line transform="translate(0,510)" x2="700" y2="0" stroke="#ddd" stroke-width="1" opacity="1"></line><line transform="translate(0,530)" x2="700" y2="0" stroke="#ddd" stroke-width="1" opacity="1"></line></g></g><path class="foreground" aria-hidden="true" d="" pointer-events="none" display="none"></path></g></g><g class="mark-group role-axis" role="graphics-symbol" aria-roledescription="axis" aria-label="X-axis titled 'Weighted percentage w/ COVID-like illness, CI 0.95' for a linear scale with values from -2 to 20"><g transform="translate(0.5,540.5)"><path class="background" aria-hidden="true" d="M0,0h0v0h0Z" pointer-events="none"></path><g><g class="mark-rule role-axis-tick" pointer-events="none"><line transform="translate(0,0)" x2="0" y2="5" stroke="#888" stroke-width="1" opacity="1"></line><line transform="translate(32,0)" x2="0" y2="5" stroke="#888" stroke-width="1" opacity="1"></line><line transform="translate(64,0)" x2="0" y2="5" stroke="#888" stroke-width="1" opacity="1"></line><line transform="translate(95,0)" x2="0" y2="5" stroke="#888" stroke-width="1" opacity="1"></line><line transform="translate(127,0)" x2="0" y2="5" stroke="#888" stroke-width="1" opacity="1"></line><line transform="translate(159,0)" x2="0" y2="5" stroke="#888" stroke-width="1" opacity="1"></line><line transform="translate(191,0)" x2="0" y2="5" stroke="#888" stroke-width="1" opacity="1"></line><line transform="translate(223,0)" x2="0" y2="5" stroke="#888" stroke-width="1" opacity="1"></line><line transform="translate(255,0)" x2="0" y2="5" stroke="#888" stroke-width="1" opacity="1"></line><line transform="translate(286,0)" x2="0" y2="5" stroke="#888" stroke-width="1" opacity="1"></line><line transform="translate(318,0)" x2="0" y2="5" stroke="#888" stroke-width="1" opacity="1"></line><line transform="translate(350,0)" x2="0" y2="5" stroke="#888" stroke-width="1" opacity="1"></line><line transform="translate(382,0)" x2="0" y2="5" stroke="#888" stroke-width="1" opacity="1"></line><line transform="translate(414,0)" x2="0" y2="5" stroke="#888" stroke-width="1" opacity="1"></line><line transform="translate(445,0)" x2="0" y2="5" stroke="#888" stroke-width="1" opacity="1"></line><line transform="translate(477,0)" x2="0" y2="5" stroke="#888" stroke-width="1" opacity="1"></line><line transform="translate(509,0)" x2="0" y2="5" stroke="#888" stroke-width="1" opacity="1"></line><line transform="translate(541,0)" x2="0" y2="5" stroke="#888" stroke-width="1" opacity="1"></line><line transform="translate(573,0)" x2="0" y2="5" stroke="#888" stroke-width="1" opacity="1"></line><line transform="translate(605,0)" x2="0" y2="5" stroke="#888" stroke-width="1" opacity="1"></line><line transform="translate(636,0)" x2="0" y2="5" stroke="#888" stroke-width="1" opacity="1"></line><line transform="translate(668,0)" x2="0" y2="5" stroke="#888" stroke-width="1" opacity="1"></line><line transform="translate(700,0)" x2="0" y2="5" stroke="#888" stroke-width="1" opacity="1"></line></g><g class="mark-text role-axis-label" pointer-events="none"><text text-anchor="start" transform="translate(0,15)" font-family="sans-serif" font-size="10px" fill="#000" opacity="1">-2</text><text text-anchor="middle" transform="translate(31.81818181818182,15)" font-family="sans-serif" font-size="10px" fill="#000" opacity="1">-1</text><text text-anchor="middle" transform="translate(63.63636363636364,15)" font-family="sans-serif" font-size="10px" fill="#000" opacity="1">0</text><text text-anchor="middle" transform="translate(95.45454545454545,15)" font-family="sans-serif" font-size="10px" fill="#000" opacity="1">1</text><text text-anchor="middle" transform="translate(127.27272727272728,15)" font-family="sans-serif" font-size="10px" fill="#000" opacity="1">2</text><text text-anchor="middle" transform="translate(159.0909090909091,15)" font-family="sans-serif" font-size="10px" fill="#000" opacity="1">3</text><text text-anchor="middle" transform="translate(190.9090909090909,15)" font-family="sans-serif" font-size="10px" fill="#000" opacity="1">4</text><text text-anchor="middle" transform="translate(222.72727272727272,15)" font-family="sans-serif" font-size="10px" fill="#000" opacity="1">5</text><text text-anchor="middle" transform="translate(254.54545454545456,15)" font-family="sans-serif" font-size="10px" fill="#000" opacity="1">6</text><text text-anchor="middle" transform="translate(286.3636363636364,15)" font-family="sans-serif" font-size="10px" fill="#000" opacity="1">7</text><text text-anchor="middle" transform="translate(318.1818181818182,15)" font-family="sans-serif" font-size="10px" fill="#000" opacity="1">8</text><text text-anchor="middle" transform="translate(350,15)" font-family="sans-serif" font-size="10px" fill="#000" opacity="1">9</text><text text-anchor="middle" transform="translate(381.8181818181818,15)" font-family="sans-serif" font-size="10px" fill="#000" opacity="1">10</text><text text-anchor="middle" transform="translate(413.6363636363637,15)" font-family="sans-serif" font-size="10px" fill="#000" opacity="1">11</text><text text-anchor="middle" transform="translate(445.45454545454544,15)" font-family="sans-serif" font-size="10px" fill="#000" opacity="1">12</text><text text-anchor="middle" transform="translate(477.27272727272725,15)" font-family="sans-serif" font-size="10px" fill="#000" opacity="1">13</text><text text-anchor="middle" transform="translate(509.0909090909091,15)" font-family="sans-serif" font-size="10px" fill="#000" opacity="1">14</text><text text-anchor="middle" transform="translate(540.9090909090909,15)" font-family="sans-serif" font-size="10px" fill="#000" opacity="1">15</text><text text-anchor="middle" transform="translate(572.7272727272727,15)" font-family="sans-serif" font-size="10px" fill="#000" opacity="1">16</text><text text-anchor="middle" transform="translate(604.5454545454545,15)" font-family="sans-serif" font-size="10px" fill="#000" opacity="1">17</text><text text-anchor="middle" transform="translate(636.3636363636364,15)" font-family="sans-serif" font-size="10px" fill="#000" opacity="1">18</text><text text-anchor="middle" transform="translate(668.1818181818182,15)" font-family="sans-serif" font-size="10px" fill="#000" opacity="1">19</text><text text-anchor="end" transform="translate(700,15)" font-family="sans-serif" font-size="10px" fill="#000" opacity="1">20</text></g><g class="mark-rule role-axis-domain" pointer-events="none"><line transform="translate(0,0)" x2="700" y2="0" stroke="#888" stroke-width="1" opacity="1"></line></g><g class="mark-text role-axis-title" pointer-events="none"><text text-anchor="middle" transform="translate(350,30)" font-family="sans-serif" font-size="11px" font-weight="bold" fill="#000" opacity="1">Weighted percentage w/ COVID-like illness, CI 0.95</text></g></g><path class="foreground" aria-hidden="true" d="" pointer-events="none" display="none"></path></g></g><g class="mark-group role-axis" role="graphics-symbol" aria-roledescription="axis" aria-label="Y-axis titled 'States' for a discrete scale with 27 values: Acre, Alagoas, Amapá, Amazonas, Bahia, ending with Tocantins"><g transform="translate(0.5,0.5)"><path class="background" aria-hidden="true" d="M0,0h0v0h0Z" pointer-events="none"></path><g><g class="mark-rule role-axis-tick" pointer-events="none"><line transform="translate(0,10)" x2="-5" y2="0" stroke="#888" stroke-width="1" opacity="1"></line><line transform="translate(0,30)" x2="-5" y2="0" stroke="#888" stroke-width="1" opacity="1"></line><line transform="translate(0,50)" x2="-5" y2="0" stroke="#888" stroke-width="1" opacity="1"></line><line transform="translate(0,70)" x2="-5" y2="0" stroke="#888" stroke-width="1" opacity="1"></line><line transform="translate(0,90)" x2="-5" y2="0" stroke="#888" stroke-width="1" opacity="1"></line><line transform="translate(0,110)" x2="-5" y2="0" stroke="#888" stroke-width="1" opacity="1"></line><line transform="translate(0,130)" x2="-5" y2="0" stroke="#888" stroke-width="1" opacity="1"></line><line transform="translate(0,150)" x2="-5" y2="0" stroke="#888" stroke-width="1" opacity="1"></line><line transform="translate(0,170)" x2="-5" y2="0" stroke="#888" stroke-width="1" opacity="1"></line><line transform="translate(0,190)" x2="-5" y2="0" stroke="#888" stroke-width="1" opacity="1"></line><line transform="translate(0,210)" x2="-5" y2="0" stroke="#888" stroke-width="1" opacity="1"></line><line transform="translate(0,230)" x2="-5" y2="0" stroke="#888" stroke-width="1" opacity="1"></line><line transform="translate(0,250)" x2="-5" y2="0" stroke="#888" stroke-width="1" opacity="1"></line><line transform="translate(0,270)" x2="-5" y2="0" stroke="#888" stroke-width="1" opacity="1"></line><line transform="translate(0,290)" x2="-5" y2="0" stroke="#888" stroke-width="1" opacity="1"></line><line transform="translate(0,310)" x2="-5" y2="0" stroke="#888" stroke-width="1" opacity="1"></line><line transform="translate(0,330)" x2="-5" y2="0" stroke="#888" stroke-width="1" opacity="1"></line><line transform="translate(0,350)" x2="-5" y2="0" stroke="#888" stroke-width="1" opacity="1"></line><line transform="translate(0,370)" x2="-5" y2="0" stroke="#888" stroke-width="1" opacity="1"></line><line transform="translate(0,390)" x2="-5" y2="0" stroke="#888" stroke-width="1" opacity="1"></line><line transform="translate(0,410)" x2="-5" y2="0" stroke="#888" stroke-width="1" opacity="1"></line><line transform="translate(0,430)" x2="-5" y2="0" stroke="#888" stroke-width="1" opacity="1"></line><line transform="translate(0,450)" x2="-5" y2="0" stroke="#888" stroke-width="1" opacity="1"></line><line transform="translate(0,470)" x2="-5" y2="0" stroke="#888" stroke-width="1" opacity="1"></line><line transform="translate(0,490)" x2="-5" y2="0" stroke="#888" stroke-width="1" opacity="1"></line><line transform="translate(0,510)" x2="-5" y2="0" stroke="#888" stroke-width="1" opacity="1"></line><line transform="translate(0,530)" x2="-5" y2="0" stroke="#888" stroke-width="1" opacity="1"></line></g><g class="mark-text role-axis-label" pointer-events="none"><text text-anchor="end" transform="translate(-7,12.5)" font-family="sans-serif" font-size="10px" fill="#000" opacity="1">Acre</text><text text-anchor="end" transform="translate(-7,32.5)" font-family="sans-serif" font-size="10px" fill="#000" opacity="1">Alagoas</text><text text-anchor="end" transform="translate(-7,52.5)" font-family="sans-serif" font-size="10px" fill="#000" opacity="1">Amapá</text><text text-anchor="end" transform="translate(-7,72.5)" font-family="sans-serif" font-size="10px" fill="#000" opacity="1">Amazonas</text><text text-anchor="end" transform="translate(-7,92.5)" font-family="sans-serif" font-size="10px" fill="#000" opacity="1">Bahia</text><text text-anchor="end" transform="translate(-7,112.5)" font-family="sans-serif" font-size="10px" fill="#000" opacity="1">Ceará</text><text text-anchor="end" transform="translate(-7,132.5)" font-family="sans-serif" font-size="10px" fill="#000" opacity="1">Distrito Federal</text><text text-anchor="end" transform="translate(-7,152.5)" font-family="sans-serif" font-size="10px" fill="#000" opacity="1">Espírito Santo</text><text text-anchor="end" transform="translate(-7,172.5)" font-family="sans-serif" font-size="10px" fill="#000" opacity="1">Goiás</text><text text-anchor="end" transform="translate(-7,192.5)" font-family="sans-serif" font-size="10px" fill="#000" opacity="1">Maranhão</text><text text-anchor="end" transform="translate(-7,212.5)" font-family="sans-serif" font-size="10px" fill="#000" opacity="1">Mato Grosso</text><text text-anchor="end" transform="translate(-7,232.5)" font-family="sans-serif" font-size="10px" fill="#000" opacity="1">Mato Grosso do Sul</text><text text-anchor="end" transform="translate(-7,252.5)" font-family="sans-serif" font-size="10px" fill="#000" opacity="1">Minas Gerais</text><text text-anchor="end" transform="translate(-7,272.5)" font-family="sans-serif" font-size="10px" fill="#000" opacity="1">Paraná</text><text text-anchor="end" transform="translate(-7,292.5)" font-family="sans-serif" font-size="10px" fill="#000" opacity="1">Paraíba</text><text text-anchor="end" transform="translate(-7,312.5)" font-family="sans-serif" font-size="10px" fill="#000" opacity="1">Pará</text><text text-anchor="end" transform="translate(-7,332.5)" font-family="sans-serif" font-size="10px" fill="#000" opacity="1">Pernambuco</text><text text-anchor="end" transform="translate(-7,352.5)" font-family="sans-serif" font-size="10px" fill="#000" opacity="1">Piauí</text><text text-anchor="end" transform="translate(-7,372.5)" font-family="sans-serif" font-size="10px" fill="#000" opacity="1">Rio Grande do Norte</text><text text-anchor="end" transform="translate(-7,392.5)" font-family="sans-serif" font-size="10px" fill="#000" opacity="1">Rio Grande do Sul</text><text text-anchor="end" transform="translate(-7,412.5)" font-family="sans-serif" font-size="10px" fill="#000" opacity="1">Rio de Janeiro</text><text text-anchor="end" transform="translate(-7,432.5)" font-family="sans-serif" font-size="10px" fill="#000" opacity="1">Rondônia</text><text text-anchor="end" transform="translate(-7,452.5)" font-family="sans-serif" font-size="10px" fill="#000" opacity="1">Roraima</text><text text-anchor="end" transform="translate(-7,472.5)" font-family="sans-serif" font-size="10px" fill="#000" opacity="1">Santa Catarina</text><text text-anchor="end" transform="translate(-7,492.5)" font-family="sans-serif" font-size="10px" fill="#000" opacity="1">Sergipe</text><text text-anchor="end" transform="translate(-7,512.5)" font-family="sans-serif" font-size="10px" fill="#000" opacity="1">São Paulo</text><text text-anchor="end" transform="translate(-7,532.5)" font-family="sans-serif" font-size="10px" fill="#000" opacity="1">Tocantins</text></g><g class="mark-rule role-axis-domain" pointer-events="none"><line transform="translate(0,0)" x2="0" y2="540" stroke="#888" stroke-width="1" opacity="1"></line></g><g class="mark-text role-axis-title" pointer-events="none"><text text-anchor="middle" transform="translate(-107,270) rotate(-90) translate(0,-2)" font-family="sans-serif" font-size="11px" font-weight="bold" fill="#000" opacity="1">States</text></g></g><path class="foreground" aria-hidden="true" d="" pointer-events="none" display="none"></path></g></g><g class="mark-symbol role-mark layer_0_marks" role="graphics-object" aria-roledescription="symbol mark container"><path aria-label="Weighted percentage w/ COVID-like illness: 11.5225; States: Acre" role="graphics-symbol" aria-roledescription="point" transform="translate(430.2613636363636,10)" d="M2.7386127875258306,0A2.7386127875258306,2.7386127875258306,0,1,1,-2.7386127875258306,0A2.7386127875258306,2.7386127875258306,0,1,1,2.7386127875258306,0" stroke="#4c78a8" stroke-width="2" opacity="0.7"></path><path aria-label="Weighted percentage w/ COVID-like illness: 8.9647; States: Roraima" role="graphics-symbol" aria-roledescription="point" transform="translate(348.87681818181824,450)" d="M2.7386127875258306,0A2.7386127875258306,2.7386127875258306,0,1,1,-2.7386127875258306,0A2.7386127875258306,2.7386127875258306,0,1,1,2.7386127875258306,0" stroke="#4c78a8" stroke-width="2" opacity="0.7"></path><path aria-label="Weighted percentage w/ COVID-like illness: 5.6707; States: Amazonas" role="graphics-symbol" aria-roledescription="point" transform="translate(244.06772727272727,70)" d="M2.7386127875258306,0A2.7386127875258306,2.7386127875258306,0,1,1,-2.7386127875258306,0A2.7386127875258306,2.7386127875258306,0,1,1,2.7386127875258306,0" stroke="#4c78a8" stroke-width="2" opacity="0.7"></path><path aria-label="Weighted percentage w/ COVID-like illness: 4.9735; States: Sergipe" role="graphics-symbol" aria-roledescription="point" transform="translate(221.88409090909093,490)" d="M2.7386127875258306,0A2.7386127875258306,2.7386127875258306,0,1,1,-2.7386127875258306,0A2.7386127875258306,2.7386127875258306,0,1,1,2.7386127875258306,0" stroke="#4c78a8" stroke-width="2" opacity="0.7"></path><path aria-label="Weighted percentage w/ COVID-like illness: 4.4883; States: Rondônia" role="graphics-symbol" aria-roledescription="point" transform="translate(206.44590909090908,430)" d="M2.7386127875258306,0A2.7386127875258306,2.7386127875258306,0,1,1,-2.7386127875258306,0A2.7386127875258306,2.7386127875258306,0,1,1,2.7386127875258306,0" stroke="#4c78a8" stroke-width="2" opacity="0.7"></path><path aria-label="Weighted percentage w/ COVID-like illness: 4.1029; States: Amapá" role="graphics-symbol" aria-roledescription="point" transform="translate(194.18318181818182,50)" d="M2.7386127875258306,0A2.7386127875258306,2.7386127875258306,0,1,1,-2.7386127875258306,0A2.7386127875258306,2.7386127875258306,0,1,1,2.7386127875258306,0" stroke="#4c78a8" stroke-width="2" opacity="0.7"></path><path aria-label="Weighted percentage w/ COVID-like illness: 4.0625; States: Mato Grosso" role="graphics-symbol" aria-roledescription="point" transform="translate(192.89772727272728,210)" d="M2.7386127875258306,0A2.7386127875258306,2.7386127875258306,0,1,1,-2.7386127875258306,0A2.7386127875258306,2.7386127875258306,0,1,1,2.7386127875258306,0" stroke="#4c78a8" stroke-width="2" opacity="0.7"></path><path aria-label="Weighted percentage w/ COVID-like illness: 3.8156; States: Alagoas" role="graphics-symbol" aria-roledescription="point" transform="translate(185.04181818181817,30)" d="M2.7386127875258306,0A2.7386127875258306,2.7386127875258306,0,1,1,-2.7386127875258306,0A2.7386127875258306,2.7386127875258306,0,1,1,2.7386127875258306,0" stroke="#4c78a8" stroke-width="2" opacity="0.7"></path><path aria-label="Weighted percentage w/ COVID-like illness: 3.6047; States: Pará" role="graphics-symbol" aria-roledescription="point" transform="translate(178.33136363636365,310)" d="M2.7386127875258306,0A2.7386127875258306,2.7386127875258306,0,1,1,-2.7386127875258306,0A2.7386127875258306,2.7386127875258306,0,1,1,2.7386127875258306,0" stroke="#4c78a8" stroke-width="2" opacity="0.7"></path><path aria-label="Weighted percentage w/ COVID-like illness: 3.4637; States: Goiás" role="graphics-symbol" aria-roledescription="point" transform="translate(173.845,170)" d="M2.7386127875258306,0A2.7386127875258306,2.7386127875258306,0,1,1,-2.7386127875258306,0A2.7386127875258306,2.7386127875258306,0,1,1,2.7386127875258306,0" stroke="#4c78a8" stroke-width="2" opacity="0.7"></path><path aria-label="Weighted percentage w/ COVID-like illness: 3.4443; States: Piauí" role="graphics-symbol" aria-roledescription="point" transform="translate(173.2277272727273,350)" d="M2.7386127875258306,0A2.7386127875258306,2.7386127875258306,0,1,1,-2.7386127875258306,0A2.7386127875258306,2.7386127875258306,0,1,1,2.7386127875258306,0" stroke="#4c78a8" stroke-width="2" opacity="0.7"></path><path aria-label="Weighted percentage w/ COVID-like illness: 3.3963; States: Distrito Federal" role="graphics-symbol" aria-roledescription="point" transform="translate(171.70045454545453,130)" d="M2.7386127875258306,0A2.7386127875258306,2.7386127875258306,0,1,1,-2.7386127875258306,0A2.7386127875258306,2.7386127875258306,0,1,1,2.7386127875258306,0" stroke="#4c78a8" stroke-width="2" opacity="0.7"></path><path aria-label="Weighted percentage w/ COVID-like illness: 3.2308; States: Pernambuco" role="graphics-symbol" aria-roledescription="point" transform="translate(166.43454545454546,330)" d="M2.7386127875258306,0A2.7386127875258306,2.7386127875258306,0,1,1,-2.7386127875258306,0A2.7386127875258306,2.7386127875258306,0,1,1,2.7386127875258306,0" stroke="#4c78a8" stroke-width="2" opacity="0.7"></path><path aria-label="Weighted percentage w/ COVID-like illness: 2.8041; States: Maranhão" role="graphics-symbol" aria-roledescription="point" transform="translate(152.8577272727273,190)" d="M2.7386127875258306,0A2.7386127875258306,2.7386127875258306,0,1,1,-2.7386127875258306,0A2.7386127875258306,2.7386127875258306,0,1,1,2.7386127875258306,0" stroke="#4c78a8" stroke-width="2" opacity="0.7"></path><path aria-label="Weighted percentage w/ COVID-like illness: 2.7844; States: Paraíba" role="graphics-symbol" aria-roledescription="point" transform="translate(152.23090909090908,290)" d="M2.7386127875258306,0A2.7386127875258306,2.7386127875258306,0,1,1,-2.7386127875258306,0A2.7386127875258306,2.7386127875258306,0,1,1,2.7386127875258306,0" stroke="#4c78a8" stroke-width="2" opacity="0.7"></path><path aria-label="Weighted percentage w/ COVID-like illness: 2.6079; States: Rio Grande do Norte" role="graphics-symbol" aria-roledescription="point" transform="translate(146.615,370)" d="M2.7386127875258306,0A2.7386127875258306,2.7386127875258306,0,1,1,-2.7386127875258306,0A2.7386127875258306,2.7386127875258306,0,1,1,2.7386127875258306,0" stroke="#4c78a8" stroke-width="2" opacity="0.7"></path><path aria-label="Weighted percentage w/ COVID-like illness: 2.6004; States: Bahia" role="graphics-symbol" aria-roledescription="point" transform="translate(146.37636363636366,90)" d="M2.7386127875258306,0A2.7386127875258306,2.7386127875258306,0,1,1,-2.7386127875258306,0A2.7386127875258306,2.7386127875258306,0,1,1,2.7386127875258306,0" stroke="#4c78a8" stroke-width="2" opacity="0.7"></path><path aria-label="Weighted percentage w/ COVID-like illness: 2.4045; States: Espírito Santo" role="graphics-symbol" aria-roledescription="point" transform="translate(140.14318181818183,150)" d="M2.7386127875258306,0A2.7386127875258306,2.7386127875258306,0,1,1,-2.7386127875258306,0A2.7386127875258306,2.7386127875258306,0,1,1,2.7386127875258306,0" stroke="#4c78a8" stroke-width="2" opacity="0.7"></path><path aria-label="Weighted percentage w/ COVID-like illness: 2.3864; States: Tocantins" role="graphics-symbol" aria-roledescription="point" transform="translate(139.56727272727272,530)" d="M2.7386127875258306,0A2.7386127875258306,2.7386127875258306,0,1,1,-2.7386127875258306,0A2.7386127875258306,2.7386127875258306,0,1,1,2.7386127875258306,0" stroke="#4c78a8" stroke-width="2" opacity="0.7"></path><path aria-label="Weighted percentage w/ COVID-like illness: 2.0528; States: Ceará" role="graphics-symbol" aria-roledescription="point" transform="translate(128.95272727272726,110)" d="M2.7386127875258306,0A2.7386127875258306,2.7386127875258306,0,1,1,-2.7386127875258306,0A2.7386127875258306,2.7386127875258306,0,1,1,2.7386127875258306,0" stroke="#4c78a8" stroke-width="2" opacity="0.7"></path><path aria-label="Weighted percentage w/ COVID-like illness: 1.4111; States: Rio de Janeiro" role="graphics-symbol" aria-roledescription="point" transform="translate(108.53500000000001,410)" d="M2.7386127875258306,0A2.7386127875258306,2.7386127875258306,0,1,1,-2.7386127875258306,0A2.7386127875258306,2.7386127875258306,0,1,1,2.7386127875258306,0" stroke="#4c78a8" stroke-width="2" opacity="0.7"></path><path aria-label="Weighted percentage w/ COVID-like illness: 1.3849; States: São Paulo" role="graphics-symbol" aria-roledescription="point" transform="translate(107.70136363636364,510)" d="M2.7386127875258306,0A2.7386127875258306,2.7386127875258306,0,1,1,-2.7386127875258306,0A2.7386127875258306,2.7386127875258306,0,1,1,2.7386127875258306,0" stroke="#4c78a8" stroke-width="2" opacity="0.7"></path><path aria-label="Weighted percentage w/ COVID-like illness: 1.2331; States: Mato Grosso do Sul" role="graphics-symbol" aria-roledescription="point" transform="translate(102.87136363636365,230)" d="M2.7386127875258306,0A2.7386127875258306,2.7386127875258306,0,1,1,-2.7386127875258306,0A2.7386127875258306,2.7386127875258306,0,1,1,2.7386127875258306,0" stroke="#4c78a8" stroke-width="2" opacity="0.7"></path><path aria-label="Weighted percentage w/ COVID-like illness: 1.0565; States: Santa Catarina" role="graphics-symbol" aria-roledescription="point" transform="translate(97.25227272727273,470)" d="M2.7386127875258306,0A2.7386127875258306,2.7386127875258306,0,1,1,-2.7386127875258306,0A2.7386127875258306,2.7386127875258306,0,1,1,2.7386127875258306,0" stroke="#4c78a8" stroke-width="2" opacity="0.7"></path><path aria-label="Weighted percentage w/ COVID-like illness: 0.5564; States: Minas Gerais" role="graphics-symbol" aria-roledescription="point" transform="translate(81.34,250)" d="M2.7386127875258306,0A2.7386127875258306,2.7386127875258306,0,1,1,-2.7386127875258306,0A2.7386127875258306,2.7386127875258306,0,1,1,2.7386127875258306,0" stroke="#4c78a8" stroke-width="2" opacity="0.7"></path><path aria-label="Weighted percentage w/ COVID-like illness: 0.5168; States: Rio Grande do Sul" role="graphics-symbol" aria-roledescription="point" transform="translate(80.08,390)" d="M2.7386127875258306,0A2.7386127875258306,2.7386127875258306,0,1,1,-2.7386127875258306,0A2.7386127875258306,2.7386127875258306,0,1,1,2.7386127875258306,0" stroke="#4c78a8" stroke-width="2" opacity="0.7"></path><path aria-label="Weighted percentage w/ COVID-like illness: 0; States: Paraná" role="graphics-symbol" aria-roledescription="point" transform="translate(63.63636363636364,270)" d="M2.7386127875258306,0A2.7386127875258306,2.7386127875258306,0,1,1,-2.7386127875258306,0A2.7386127875258306,2.7386127875258306,0,1,1,2.7386127875258306,0" stroke="#4c78a8" stroke-width="2" opacity="0.7"></path></g><g class="mark-rule role-mark layer_1_marks" role="graphics-object" aria-roledescription="rule mark container"><line aria-label="CI 0.95: 3.807548; upper_percent_cli_lower: 19.237452; region: Acre; percent_cli_upper: 19.237452; percent_cli_lower: 3.807548" role="graphics-symbol" aria-roledescription="errorbar" transform="translate(184.78561818181817,10)" x2="490.95149090909086" y2="0" stroke="blue" stroke-width="0.6"></line><line aria-label="CI 0.95: 2.43104; upper_percent_cli_lower: 15.49836; region: Roraima; percent_cli_upper: 15.49836; percent_cli_lower: 2.43104" role="graphics-symbol" aria-roledescription="errorbar" transform="translate(140.9876363636364,450)" x2="415.77836363636345" y2="0" stroke="blue" stroke-width="0.6"></line><line aria-label="CI 0.95: 2.373392; upper_percent_cli_lower: 8.968008; region: Amazonas; percent_cli_upper: 8.968008; percent_cli_lower: 2.373392" role="graphics-symbol" aria-roledescription="errorbar" transform="translate(139.1533818181818,70)" x2="209.82869090909088" y2="0" stroke="blue" stroke-width="0.6"></line><line aria-label="CI 0.95: 1.52292; upper_percent_cli_lower: 8.42408; region: Sergipe; percent_cli_upper: 8.42408; percent_cli_lower: 1.52292" role="graphics-symbol" aria-roledescription="errorbar" transform="translate(112.0929090909091,490)" x2="219.58236363636362" y2="0" stroke="blue" stroke-width="0.6"></line><line aria-label="CI 0.95: 1.40816; upper_percent_cli_lower: 7.56844; region: Rondônia; percent_cli_upper: 7.56844; percent_cli_lower: 1.40816" role="graphics-symbol" aria-roledescription="errorbar" transform="translate(108.44145454545455,430)" x2="196.00890909090904" y2="0" stroke="blue" stroke-width="0.6"></line><line aria-label="CI 0.95: -0.042304; upper_percent_cli_lower: 8.248104; region: Amapá; percent_cli_upper: 8.248104; percent_cli_lower: -0.042304" role="graphics-symbol" aria-roledescription="errorbar" transform="translate(62.290327272727275,50)" x2="263.78570909090917" y2="0" stroke="blue" stroke-width="0.6"></line><line aria-label="CI 0.95: 2.266552; upper_percent_cli_lower: 5.858448; region: Mato Grosso; percent_cli_upper: 5.858448; percent_cli_lower: 2.266552" role="graphics-symbol" aria-roledescription="errorbar" transform="translate(135.7539272727273,210)" x2="114.28759999999997" y2="0" stroke="blue" stroke-width="0.6"></line><line aria-label="CI 0.95: 0.805628; upper_percent_cli_lower: 6.825572; region: Alagoas; percent_cli_upper: 6.825572; percent_cli_lower: 0.805628" role="graphics-symbol" aria-roledescription="errorbar" transform="translate(89.26998181818183,30)" x2="191.54367272727276" y2="0" stroke="blue" stroke-width="0.6"></line><line aria-label="CI 0.95: 1.086884; upper_percent_cli_lower: 6.122516; region: Pará; percent_cli_upper: 6.122516; percent_cli_lower: 1.086884" role="graphics-symbol" aria-roledescription="errorbar" transform="translate(98.21903636363636,310)" x2="160.2246545454546" y2="0" stroke="blue" stroke-width="0.6"></line><line aria-label="CI 0.95: 1.6654; upper_percent_cli_lower: 5.262; region: Goiás; percent_cli_upper: 5.262; percent_cli_lower: 1.6654" role="graphics-symbol" aria-roledescription="errorbar" transform="translate(116.62636363636364,170)" x2="114.43727272727273" y2="0" stroke="blue" stroke-width="0.6"></line><line aria-label="CI 0.95: 0.702652; upper_percent_cli_lower: 6.185948; region: Piauí; percent_cli_upper: 6.185948; percent_cli_lower: 0.702652" role="graphics-symbol" aria-roledescription="errorbar" transform="translate(85.99347272727273,350)" x2="174.4685090909091" y2="0" stroke="blue" stroke-width="0.6"></line><line aria-label="CI 0.95: 1.800664; upper_percent_cli_lower: 4.991936; region: Distrito Federal; percent_cli_upper: 4.991936; percent_cli_lower: 1.800664" role="graphics-symbol" aria-roledescription="errorbar" transform="translate(120.93021818181818,130)" x2="101.54047272727273" y2="0" stroke="blue" stroke-width="0.6"></line><line aria-label="CI 0.95: 1.061276; upper_percent_cli_lower: 5.400324; region: Pernambuco; percent_cli_upper: 5.400324; percent_cli_lower: 1.061276" role="graphics-symbol" aria-roledescription="errorbar" transform="translate(97.40423636363637,330)" x2="138.0606181818182" y2="0" stroke="blue" stroke-width="0.6"></line><line aria-label="CI 0.95: 0.710428; upper_percent_cli_lower: 4.897772; region: Maranhão; percent_cli_upper: 4.897772; percent_cli_lower: 0.710428" role="graphics-symbol" aria-roledescription="errorbar" transform="translate(86.24089090909092,190)" x2="133.23367272727268" y2="0" stroke="blue" stroke-width="0.6"></line><line aria-label="CI 0.95: 0.837532; upper_percent_cli_lower: 4.731268; region: Paraíba; percent_cli_upper: 4.731268; percent_cli_lower: 0.837532" role="graphics-symbol" aria-roledescription="errorbar" transform="translate(90.28510909090909,290)" x2="123.89160000000001" y2="0" stroke="blue" stroke-width="0.6"></line><line aria-label="CI 0.95: 0.86448; upper_percent_cli_lower: 4.35132; region: Rio Grande do Norte; percent_cli_upper: 4.35132; percent_cli_lower: 0.86448" role="graphics-symbol" aria-roledescription="errorbar" transform="translate(91.14254545454547,370)" x2="110.94490909090906" y2="0" stroke="blue" stroke-width="0.6"></line><line aria-label="CI 0.95: 0.774464; upper_percent_cli_lower: 4.426336; region: Bahia; percent_cli_upper: 4.426336; percent_cli_lower: 0.774464" role="graphics-symbol" aria-roledescription="errorbar" transform="translate(88.2784,90)" x2="116.19592727272726" y2="0" stroke="blue" stroke-width="0.6"></line><line aria-label="CI 0.95: 1.005452; upper_percent_cli_lower: 3.803548; region: Espírito Santo; percent_cli_upper: 3.803548; percent_cli_lower: 1.005452" role="graphics-symbol" aria-roledescription="errorbar" transform="translate(95.62801818181818,150)" x2="89.03032727272726" y2="0" stroke="blue" stroke-width="0.6"></line><line aria-label="CI 0.95: -0.645328; upper_percent_cli_lower: 5.418128; region: Tocantins; percent_cli_upper: 5.418128; percent_cli_lower: -0.645328" role="graphics-symbol" aria-roledescription="errorbar" transform="translate(43.103199999999994,530)" x2="192.92814545454547" y2="0" stroke="blue" stroke-width="0.6"></line><line aria-label="CI 0.95: 0.369748; upper_percent_cli_lower: 3.735852; region: Ceará; percent_cli_upper: 3.735852; percent_cli_lower: 0.369748" role="graphics-symbol" aria-roledescription="errorbar" transform="translate(75.40107272727275,110)" x2="107.10330909090905" y2="0" stroke="blue" stroke-width="0.6"></line><line aria-label="CI 0.95: 0.35956; upper_percent_cli_lower: 2.46264; region: Rio de Janeiro; percent_cli_upper: 2.46264; percent_cli_lower: 0.35956" role="graphics-symbol" aria-roledescription="errorbar" transform="translate(75.0769090909091,410)" x2="66.91618181818181" y2="0" stroke="blue" stroke-width="0.6"></line><line aria-label="CI 0.95: 0.83022; upper_percent_cli_lower: 1.93958; region: São Paulo; percent_cli_upper: 1.93958; percent_cli_lower: 0.83022" role="graphics-symbol" aria-roledescription="errorbar" transform="translate(90.05245454545452,510)" x2="35.297818181818215" y2="0" stroke="blue" stroke-width="0.6"></line><line aria-label="CI 0.95: 0.094144; upper_percent_cli_lower: 2.372056; region: Mato Grosso do Sul; percent_cli_upper: 2.372056; percent_cli_lower: 0.094144" role="graphics-symbol" aria-roledescription="errorbar" transform="translate(66.63185454545454,230)" x2="72.4790181818182" y2="0" stroke="blue" stroke-width="0.6"></line><line aria-label="CI 0.95: 0.0471; upper_percent_cli_lower: 2.0659; region: Santa Catarina; percent_cli_upper: 2.0659; percent_cli_lower: 0.0471" role="graphics-symbol" aria-roledescription="errorbar" transform="translate(65.13499999999999,470)" x2="64.23454545454547" y2="0" stroke="blue" stroke-width="0.6"></line><line aria-label="CI 0.95: -0.099024; upper_percent_cli_lower: 1.211824; region: Minas Gerais; percent_cli_upper: 1.211824; percent_cli_lower: -0.099024" role="graphics-symbol" aria-roledescription="errorbar" transform="translate(60.4856,250)" x2="41.708800000000004" y2="0" stroke="blue" stroke-width="0.6"></line><line aria-label="CI 0.95: -0.175668; upper_percent_cli_lower: 1.209268; region: Rio Grande do Sul; percent_cli_upper: 1.209268; percent_cli_lower: -0.175668" role="graphics-symbol" aria-roledescription="errorbar" transform="translate(58.04692727272728,390)" x2="44.06614545454543" y2="0" stroke="blue" stroke-width="0.6"></line><line aria-label="CI 0.95: 0; upper_percent_cli_lower: 0; region: Paraná; percent_cli_upper: 0; percent_cli_lower: 0" role="graphics-symbol" aria-roledescription="errorbar" transform="translate(63.63636363636364,270)" x2="0" y2="0" stroke="blue" stroke-width="0.6"></line></g><g class="mark-group role-title"><g transform="translate(350,-17)"><path class="background" aria-hidden="true" d="M0,0h0v0h0Z" pointer-events="none"></path><g><g class="mark-text role-title-text" role="graphics-symbol" aria-roledescription="title" aria-label="Title text 'Facebook COVID-like illness symptom survey (last available date) for all states in Brazil'" pointer-events="none"><text text-anchor="middle" transform="translate(0,10)" font-family="sans-serif" font-size="13px" font-weight="bold" fill="#000" opacity="1">Facebook COVID-like illness symptom survey (last available date) for all states in Brazil</text></g></g><path class="foreground" aria-hidden="true" d="" pointer-events="none" display="none"></path></g></g></g><path class="foreground" aria-hidden="true" d="" display="none"></path></g></g></g></svg>