<svg class="marks" width="997" height="599" viewBox="0 0 997 599" version="1.1" xmlns="http://www.w3.org/2000/svg" xmlns:xlink="http://www.w3.org/1999/xlink"><rect width="997" height="599" fill="white"></rect><g fill="none" stroke-miterlimit="10" transform="translate(179,22)"><g class="mark-group role-frame root" role="graphics-object" aria-roledescription="group mark container"><g transform="translate(0,0)"><path class="background" aria-hidden="true" d="M0.5,0.5h700v540h-700Z"></path><g><g class="mark-group role-axis" aria-hidden="true"><g transform="translate(0.5,0.5)"><path class="background" aria-hidden="true" d="M0,0h0v0h0Z" pointer-events="none"></path><g><g class="mark-rule role-axis-grid" pointer-events="none"><line transform="translate(0,10)" x2="700" y2="0" stroke="#ddd" stroke-width="1" opacity="1"></line><line transform="translate(0,30)" x2="700" y2="0" stroke="#ddd" stroke-width="1" opacity="1"></line><line transform="translate(0,50)" x2="700" y2="0" stroke="#ddd" stroke-width="1" opacity="1"></line><line transform="translate(0,70)" x2="700" y2="0" stroke="#ddd" stroke-width="1" opacity="1"></line><line transform="translate(0,90)" x2="700" y2="0" stroke="#ddd" stroke-width="1" opacity="1"></line><line transform="translate(0,110)" x2="700" y2="0" stroke="#ddd" stroke-width="1" opacity="1"></line><line transform="translate(0,130)" x2="700" y2="0" stroke="#ddd" stroke-width="1" opacity="1"></line><line transform="translate(0,150)" x2="700" y2="0" stroke="#ddd" stroke-width="1" opacity="1"></line><line transform="translate(0,170)" x2="700" y2="0" stroke="#ddd" stroke-width="1" opacity="1"></line><line transform="translate(0,190)" x2="700" y2="0" stroke="#ddd" stroke-width="1" opacity="1"></line><line transform="translate(0,210)" x2="700" y2="0" stroke="#ddd" stroke-width="1" opacity="1"></line><line transform="translate(0,230)" x2="700" y2="0" stroke="#ddd" stroke-width="1" opacity="1"></line><line transform="translate(0,250)" x2="700" y2="0" stroke="#ddd" stroke-width="1" opacity="1"></line><line transform="translate(0,270)" x2="700" y2="0" stroke="#ddd" stroke-width="1" opacity="1"></line><line transform="translate(0,290)" x2="700" y2="0" stroke="#ddd" stroke-width="1" opacity="1"></line><line transform="translate(0,310)" x2="700" y2="0" stroke="#ddd" stroke-width="1" opacity="1"></line><line transform="translate(0,330)" x2="700" y2="0" stroke="#ddd" stroke-width="1" opacity="1"></line><line transform="translate(0,350)" x2="700" y2="0" stroke="#ddd" stroke-width="1" opacity="1"></line><line transform="translate(0,370)" x2="700" y2="0" stroke="#ddd" stroke-width="1" opacity="1"></line><line transform="translate(0,390)" x2="700" y2="0" stroke="#ddd" stroke-width="1" opacity="1"></line><line transform="translate(0,410)" x2="700" y2="0" stroke="#ddd" stroke-width="1" opacity="1"></line><line transform="translate(0,430)" x2="700" y2="0" stroke="#ddd" stroke-width="1" opacity="1"></line><line transform="translate(0,450)" x2="700" y2="0" stroke="#ddd" stroke-width="1" opacity="1"></line><line transform="translate(0,470)" x2="700" y2="0" stroke="#ddd" stroke-width="1" opacity="1"></line><line transform="translate(0,490)" x2="700" y2="0" stroke="#ddd" stroke-width="1" opacity="1"></line><line transform="translate(0,510)" x2="700" y2="0" stroke="#ddd" stroke-width="1" opacity="1"></line><line transform="translate(0,530)" x2="700" y2="0" stroke="#ddd" stroke-width="1" opacity="1"></line></g></g><path class="foreground" aria-hidden="true" d="" pointer-events="none" display="none"></path></g></g><g class="mark-group role-axis" role="graphics-symbol" aria-roledescription="axis" aria-label="X-axis titled 'Weighted percentage w/ COVID-like illness, CI 0.95' for a linear scale with values from -2 to 16"><g transform="translate(0.5,540.5)"><path class="background" aria-hidden="true" d="M0,0h0v0h0Z" pointer-events="none"></path><g><g class="mark-rule role-axis-tick" pointer-events="none"><line transform="translate(0,0)" x2="0" y2="5" stroke="#888" stroke-width="1" opacity="1"></line><line transform="translate(39,0)" x2="0" y2="5" stroke="#888" stroke-width="1" opacity="1"></line><line transform="translate(78,0)" x2="0" y2="5" stroke="#888" stroke-width="1" opacity="1"></line><line transform="translate(117,0)" x2="0" y2="5" stroke="#888" stroke-width="1" opacity="1"></line><line transform="translate(156,0)" x2="0" y2="5" stroke="#888" stroke-width="1" opacity="1"></line><line transform="translate(194,0)" x2="0" y2="5" stroke="#888" stroke-width="1" opacity="1"></line><line transform="translate(233,0)" x2="0" y2="5" stroke="#888" stroke-width="1" opacity="1"></line><line transform="translate(272,0)" x2="0" y2="5" stroke="#888" stroke-width="1" opacity="1"></line><line transform="translate(311,0)" x2="0" y2="5" stroke="#888" stroke-width="1" opacity="1"></line><line transform="translate(350,0)" x2="0" y2="5" stroke="#888" stroke-width="1" opacity="1"></line><line transform="translate(389,0)" x2="0" y2="5" stroke="#888" stroke-width="1" opacity="1"></line><line transform="translate(428,0)" x2="0" y2="5" stroke="#888" stroke-width="1" opacity="1"></line><line transform="translate(467,0)" x2="0" y2="5" stroke="#888" stroke-width="1" opacity="1"></line><line transform="translate(506,0)" x2="0" y2="5" stroke="#888" stroke-width="1" opacity="1"></line><line transform="translate(544,0)" x2="0" y2="5" stroke="#888" stroke-width="1" opacity="1"></line><line transform="translate(583,0)" x2="0" y2="5" stroke="#888" stroke-width="1" opacity="1"></line><line transform="translate(622,0)" x2="0" y2="5" stroke="#888" stroke-width="1" opacity="1"></line><line transform="translate(661,0)" x2="0" y2="5" stroke="#888" stroke-width="1" opacity="1"></line><line transform="translate(700,0)" x2="0" y2="5" stroke="#888" stroke-width="1" opacity="1"></line></g><g class="mark-text role-axis-label" pointer-events="none"><text text-anchor="start" transform="translate(0,15)" font-family="sans-serif" font-size="10px" fill="#000" opacity="1">-2</text><text text-anchor="middle" transform="translate(38.888888888888886,15)" font-family="sans-serif" font-size="10px" fill="#000" opacity="1">-1</text><text text-anchor="middle" transform="translate(77.77777777777777,15)" font-family="sans-serif" font-size="10px" fill="#000" opacity="1">0</text><text text-anchor="middle" transform="translate(116.66666666666666,15)" font-family="sans-serif" font-size="10px" fill="#000" opacity="1">1</text><text text-anchor="middle" transform="translate(155.55555555555554,15)" font-family="sans-serif" font-size="10px" fill="#000" opacity="1">2</text><text text-anchor="middle" transform="translate(194.44444444444446,15)" font-family="sans-serif" font-size="10px" fill="#000" opacity="1">3</text><text text-anchor="middle" transform="translate(233.33333333333331,15)" font-family="sans-serif" font-size="10px" fill="#000" opacity="1">4</text><text text-anchor="middle" transform="translate(272.22222222222223,15)" font-family="sans-serif" font-size="10px" fill="#000" opacity="1">5</text><text text-anchor="middle" transform="translate(311.1111111111111,15)" font-family="sans-serif" font-size="10px" fill="#000" opacity="1">6</text><text text-anchor="middle" transform="translate(350,15)" font-family="sans-serif" font-size="10px" fill="#000" opacity="1">7</text><text text-anchor="middle" transform="translate(388.8888888888889,15)" font-family="sans-serif" font-size="10px" fill="#000" opacity="1">8</text><text text-anchor="middle" transform="translate(427.7777777777778,15)" font-family="sans-serif" font-size="10px" fill="#000" opacity="1">9</text><text text-anchor="middle" transform="translate(466.66666666666663,15)" font-family="sans-serif" font-size="10px" fill="#000" opacity="1">10</text><text text-anchor="middle" transform="translate(505.55555555555554,15)" font-family="sans-serif" font-size="10px" fill="#000" opacity="1">11</text><text text-anchor="middle" transform="translate(544.4444444444445,15)" font-family="sans-serif" font-size="10px" fill="#000" opacity="1">12</text><text text-anchor="middle" transform="translate(583.3333333333334,15)" font-family="sans-serif" font-size="10px" fill="#000" opacity="1">13</text><text text-anchor="middle" transform="translate(622.2222222222222,15)" font-family="sans-serif" font-size="10px" fill="#000" opacity="1">14</text><text text-anchor="middle" transform="translate(661.1111111111111,15)" font-family="sans-serif" font-size="10px" fill="#000" opacity="1">15</text><text text-anchor="end" transform="translate(700,15)" font-family="sans-serif" font-size="10px" fill="#000" opacity="1">16</text></g><g class="mark-rule role-axis-domain" pointer-events="none"><line transform="translate(0,0)" x2="700" y2="0" stroke="#888" stroke-width="1" opacity="1"></line></g><g class="mark-text role-axis-title" pointer-events="none"><text text-anchor="middle" transform="translate(350,30)" font-family="sans-serif" font-size="11px" font-weight="bold" fill="#000" opacity="1">Weighted percentage w/ COVID-like illness, CI 0.95</text></g></g><path class="foreground" aria-hidden="true" d="" pointer-events="none" display="none"></path></g></g><g class="mark-group role-axis" role="graphics-symbol" aria-roledescription="axis" aria-label="Y-axis titled 'States' for a discrete scale with 27 values: Acre, Alagoas, Amapá, Amazonas, Bahia, ending with Tocantins"><g transform="translate(0.5,0.5)"><path class="background" aria-hidden="true" d="M0,0h0v0h0Z" pointer-events="none"></path><g><g class="mark-rule role-axis-tick" pointer-events="none"><line transform="translate(0,10)" x2="-5" y2="0" stroke="#888" stroke-width="1" opacity="1"></line><line transform="translate(0,30)" x2="-5" y2="0" stroke="#888" stroke-width="1" opacity="1"></line><line transform="translate(0,50)" x2="-5" y2="0" stroke="#888" stroke-width="1" opacity="1"></line><line transform="translate(0,70)" x2="-5" y2="0" stroke="#888" stroke-width="1" opacity="1"></line><line transform="translate(0,90)" x2="-5" y2="0" stroke="#888" stroke-width="1" opacity="1"></line><line transform="translate(0,110)" x2="-5" y2="0" stroke="#888" stroke-width="1" opacity="1"></line><line transform="translate(0,130)" x2="-5" y2="0" stroke="#888" stroke-width="1" opacity="1"></line><line transform="translate(0,150)" x2="-5" y2="0" stroke="#888" stroke-width="1" opacity="1"></line><line transform="translate(0,170)" x2="-5" y2="0" stroke="#888" stroke-width="1" opacity="1"></line><line transform="translate(0,190)" x2="-5" y2="0" stroke="#888" stroke-width="1" opacity="1"></line><line transform="translate(0,210)" x2="-5" y2="0" stroke="#888" stroke-width="1" opacity="1"></line><line transform="translate(0,230)" x2="-5" y2="0" stroke="#888" stroke-width="1" opacity="1"></line><line transform="translate(0,250)" x2="-5" y2="0" stroke="#888" stroke-width="1" opacity="1"></line><line transform="translate(0,270)" x2="-5" y2="0" stroke="#888" stroke-width="1" opacity="1"></line><line transform="translate(0,290)" x2="-5" y2="0" stroke="#888" stroke-width="1" opacity="1"></line><line transform="translate(0,310)" x2="-5" y2="0" stroke="#888" stroke-width="1" opacity="1"></line><line transform="translate(0,330)" x2="-5" y2="0" stroke="#888" stroke-width="1" opacity="1"></line><line transform="translate(0,350)" x2="-5" y2="0" stroke="#888" stroke-width="1" opacity="1"></line><line transform="translate(0,370)" x2="-5" y2="0" stroke="#888" stroke-width="1" opacity="1"></line><line transform="translate(0,390)" x2="-5" y2="0" stroke="#888" stroke-width="1" opacity="1"></line><line transform="translate(0,410)" x2="-5" y2="0" stroke="#888" stroke-width="1" opacity="1"></line><line transform="translate(0,430)" x2="-5" y2="0" stroke="#888" stroke-width="1" opacity="1"></line><line transform="translate(0,450)" x2="-5" y2="0" stroke="#888" stroke-width="1" opacity="1"></line><line transform="translate(0,470)" x2="-5" y2="0" stroke="#888" stroke-width="1" opacity="1"></line><line transform="translate(0,490)" x2="-5" y2="0" stroke="#888" stroke-width="1" opacity="1"></line><line transform="translate(0,510)" x2="-5" y2="0" stroke="#888" stroke-width="1" opacity="1"></line><line transform="translate(0,530)" x2="-5" y2="0" stroke="#888" stroke-width="1" opacity="1"></line></g><g class="mark-text role-axis-label" pointer-events="none"><text text-anchor="end" transform="translate(-7,12.5)" font-family="sans-serif" font-size="10px" fill="#000" opacity="1">Acre</text><text text-anchor="end" transform="translate(-7,32.5)" font-family="sans-serif" font-size="10px" fill="#000" opacity="1">Alagoas</text><text text-anchor="end" transform="translate(-7,52.5)" font-family="sans-serif" font-size="10px" fill="#000" opacity="1">Amapá</text><text text-anchor="end" transform="translate(-7,72.5)" font-family="sans-serif" font-size="10px" fill="#000" opacity="1">Amazonas</text><text text-anchor="end" transform="translate(-7,92.5)" font-family="sans-serif" font-size="10px" fill="#000" opacity="1">Bahia</text><text text-anchor="end" transform="translate(-7,112.5)" font-family="sans-serif" font-size="10px" fill="#000" opacity="1">Ceará</text><text text-anchor="end" transform="translate(-7,132.5)" font-family="sans-serif" font-size="10px" fill="#000" opacity="1">Distrito Federal</text><text text-anchor="end" transform="translate(-7,152.5)" font-family="sans-serif" font-size="10px" fill="#000" opacity="1">Espírito Santo</text><text text-anchor="end" transform="translate(-7,172.5)" font-family="sans-serif" font-size="10px" fill="#000" opacity="1">Goiás</text><text text-anchor="end" transform="translate(-7,192.5)" font-family="sans-serif" font-size="10px" fill="#000" opacity="1">Maranhão</text><text text-anchor="end" transform="translate(-7,212.5)" font-family="sans-serif" font-size="10px" fill="#000" opacity="1">Mato Grosso</text><text text-anchor="end" transform="translate(-7,232.5)" font-family="sans-serif" font-size="10px" fill="#000" opacity="1">Mato Grosso do Sul</text><text text-anchor="end" transform="translate(-7,252.5)" font-family="sans-serif" font-size="10px" fill="#000" opacity="1">Minas Gerais</text><text text-anchor="end" transform="translate(-7,272.5)" font-family="sans-serif" font-size="10px" fill="#000" opacity="1">Paraná</text><text text-anchor="end" transform="translate(-7,292.5)" font-family="sans-serif" font-size="10px" fill="#000" opacity="1">Paraíba</text><text text-anchor="end" transform="translate(-7,312.5)" font-family="sans-serif" font-size="10px" fill="#000" opacity="1">Pará</text><text text-anchor="end" transform="translate(-7,332.5)" font-family="sans-serif" font-size="10px" fill="#000" opacity="1">Pernambuco</text><text text-anchor="end" transform="translate(-7,352.5)" font-family="sans-serif" font-size="10px" fill="#000" opacity="1">Piauí</text><text text-anchor="end" transform="translate(-7,372.5)" font-family="sans-serif" font-size="10px" fill="#000" opacity="1">Rio Grande do Norte</text><text text-anchor="end" transform="translate(-7,392.5)" font-family="sans-serif" font-size="10px" fill="#000" opacity="1">Rio Grande do Sul</text><text text-anchor="end" transform="translate(-7,412.5)" font-family="sans-serif" font-size="10px" fill="#000" opacity="1">Rio de Janeiro</text><text text-anchor="end" transform="translate(-7,432.5)" font-family="sans-serif" font-size="10px" fill="#000" opacity="1">Rondônia</text><text text-anchor="end" transform="translate(-7,452.5)" font-family="sans-serif" font-size="10px" fill="#000" opacity="1">Roraima</text><text text-anchor="end" transform="translate(-7,472.5)" font-family="sans-serif" font-size="10px" fill="#000" opacity="1">Santa Catarina</text><text text-anchor="end" transform="translate(-7,492.5)" font-family="sans-serif" font-size="10px" fill="#000" opacity="1">Sergipe</text><text text-anchor="end" transform="translate(-7,512.5)" font-family="sans-serif" font-size="10px" fill="#000" opacity="1">São Paulo</text><text text-anchor="end" transform="translate(-7,532.5)" font-family="sans-serif" font-size="10px" fill="#000" opacity="1">Tocantins</text></g><g class="mark-rule role-axis-domain" pointer-events="none"><line transform="translate(0,0)" x2="0" y2="540" stroke="#888" stroke-width="1" opacity="1"></line></g><g class="mark-text role-axis-title" pointer-events="none"><text text-anchor="middle" transform="translate(-163,270) rotate(-90) translate(0,-2)" font-family="sans-serif" font-size="11px" font-weight="bold" fill="#000" opacity="1">States</text></g></g><path class="foreground" aria-hidden="true" d="" pointer-events="none" display="none"></path></g></g><g class="mark-symbol role-mark layer_0_marks" role="graphics-object" aria-roledescription="symbol mark container"><path aria-label="Weighted percentage w/ COVID-like illness: 7.5218; States: Acre" role="graphics-symbol" aria-roledescription="point" transform="translate(370.29222222222216,10)" d="M2.7386127875258306,0A2.7386127875258306,2.7386127875258306,0,1,1,-2.7386127875258306,0A2.7386127875258306,2.7386127875258306,0,1,1,2.7386127875258306,0" stroke="#4c78a8" stroke-width="2" opacity="0.7"></path><path aria-label="Weighted percentage w/ COVID-like illness: 7.1773; States: Roraima" role="graphics-symbol" aria-roledescription="point" transform="translate(356.89500000000004,450)" d="M2.7386127875258306,0A2.7386127875258306,2.7386127875258306,0,1,1,-2.7386127875258306,0A2.7386127875258306,2.7386127875258306,0,1,1,2.7386127875258306,0" stroke="#4c78a8" stroke-width="2" opacity="0.7"></path><path aria-label="Weighted percentage w/ COVID-like illness: 6.7946; States: Amapá" role="graphics-symbol" aria-roledescription="point" transform="translate(342.01222222222225,50)" d="M2.7386127875258306,0A2.7386127875258306,2.7386127875258306,0,1,1,-2.7386127875258306,0A2.7386127875258306,2.7386127875258306,0,1,1,2.7386127875258306,0" stroke="#4c78a8" stroke-width="2" opacity="0.7"></path><path aria-label="Weighted percentage w/ COVID-like illness: 5.2226; States: Rio Grande do Norte" role="graphics-symbol" aria-roledescription="point" transform="translate(280.87888888888887,370)" d="M2.7386127875258306,0A2.7386127875258306,2.7386127875258306,0,1,1,-2.7386127875258306,0A2.7386127875258306,2.7386127875258306,0,1,1,2.7386127875258306,0" stroke="#4c78a8" stroke-width="2" opacity="0.7"></path><path aria-label="Weighted percentage w/ COVID-like illness: 5.1715; States: Distrito Federal" role="graphics-symbol" aria-roledescription="point" transform="translate(278.89166666666665,130)" d="M2.7386127875258306,0A2.7386127875258306,2.7386127875258306,0,1,1,-2.7386127875258306,0A2.7386127875258306,2.7386127875258306,0,1,1,2.7386127875258306,0" stroke="#4c78a8" stroke-width="2" opacity="0.7"></path><path aria-label="Weighted percentage w/ COVID-like illness: 4.4684; States: Paraíba" role="graphics-symbol" aria-roledescription="point" transform="translate(251.54888888888888,290)" d="M2.7386127875258306,0A2.7386127875258306,2.7386127875258306,0,1,1,-2.7386127875258306,0A2.7386127875258306,2.7386127875258306,0,1,1,2.7386127875258306,0" stroke="#4c78a8" stroke-width="2" opacity="0.7"></path><path aria-label="Weighted percentage w/ COVID-like illness: 4.2719; States: Sergipe" role="graphics-symbol" aria-roledescription="point" transform="translate(243.9072222222222,490)" d="M2.7386127875258306,0A2.7386127875258306,2.7386127875258306,0,1,1,-2.7386127875258306,0A2.7386127875258306,2.7386127875258306,0,1,1,2.7386127875258306,0" stroke="#4c78a8" stroke-width="2" opacity="0.7"></path><path aria-label="Weighted percentage w/ COVID-like illness: 4.2365; States: Espírito Santo" role="graphics-symbol" aria-roledescription="point" transform="translate(242.53055555555557,150)" d="M2.7386127875258306,0A2.7386127875258306,2.7386127875258306,0,1,1,-2.7386127875258306,0A2.7386127875258306,2.7386127875258306,0,1,1,2.7386127875258306,0" stroke="#4c78a8" stroke-width="2" opacity="0.7"></path><path aria-label="Weighted percentage w/ COVID-like illness: 4.0395; States: Rondônia" role="graphics-symbol" aria-roledescription="point" transform="translate(234.86944444444447,430)" d="M2.7386127875258306,0A2.7386127875258306,2.7386127875258306,0,1,1,-2.7386127875258306,0A2.7386127875258306,2.7386127875258306,0,1,1,2.7386127875258306,0" stroke="#4c78a8" stroke-width="2" opacity="0.7"></path><path aria-label="Weighted percentage w/ COVID-like illness: 3.3877; States: Tocantins" role="graphics-symbol" aria-roledescription="point" transform="translate(209.52166666666668,530)" d="M2.7386127875258306,0A2.7386127875258306,2.7386127875258306,0,1,1,-2.7386127875258306,0A2.7386127875258306,2.7386127875258306,0,1,1,2.7386127875258306,0" stroke="#4c78a8" stroke-width="2" opacity="0.7"></path><path aria-label="Weighted percentage w/ COVID-like illness: 3.2353; States: Pará" role="graphics-symbol" aria-roledescription="point" transform="translate(203.59500000000003,310)" d="M2.7386127875258306,0A2.7386127875258306,2.7386127875258306,0,1,1,-2.7386127875258306,0A2.7386127875258306,2.7386127875258306,0,1,1,2.7386127875258306,0" stroke="#4c78a8" stroke-width="2" opacity="0.7"></path><path aria-label="Weighted percentage w/ COVID-like illness: 3.2213; States: Ceará" role="graphics-symbol" aria-roledescription="point" transform="translate(203.05055555555552,110)" d="M2.7386127875258306,0A2.7386127875258306,2.7386127875258306,0,1,1,-2.7386127875258306,0A2.7386127875258306,2.7386127875258306,0,1,1,2.7386127875258306,0" stroke="#4c78a8" stroke-width="2" opacity="0.7"></path><path aria-label="Weighted percentage w/ COVID-like illness: 2.844; States: Mato Grosso do Sul" role="graphics-symbol" aria-roledescription="point" transform="translate(188.37777777777777,230)" d="M2.7386127875258306,0A2.7386127875258306,2.7386127875258306,0,1,1,-2.7386127875258306,0A2.7386127875258306,2.7386127875258306,0,1,1,2.7386127875258306,0" stroke="#4c78a8" stroke-width="2" opacity="0.7"></path><path aria-label="Weighted percentage w/ COVID-like illness: 2.8301; States: Amazonas" role="graphics-symbol" aria-roledescription="point" transform="translate(187.83722222222224,70)" d="M2.7386127875258306,0A2.7386127875258306,2.7386127875258306,0,1,1,-2.7386127875258306,0A2.7386127875258306,2.7386127875258306,0,1,1,2.7386127875258306,0" stroke="#4c78a8" stroke-width="2" opacity="0.7"></path><path aria-label="Weighted percentage w/ COVID-like illness: 2.7834; States: Maranhão" role="graphics-symbol" aria-roledescription="point" transform="translate(186.0211111111111,190)" d="M2.7386127875258306,0A2.7386127875258306,2.7386127875258306,0,1,1,-2.7386127875258306,0A2.7386127875258306,2.7386127875258306,0,1,1,2.7386127875258306,0" stroke="#4c78a8" stroke-width="2" opacity="0.7"></path><path aria-label="Weighted percentage w/ COVID-like illness: 2.3242; States: Pernambuco" role="graphics-symbol" aria-roledescription="point" transform="translate(168.1633333333333,330)" d="M2.7386127875258306,0A2.7386127875258306,2.7386127875258306,0,1,1,-2.7386127875258306,0A2.7386127875258306,2.7386127875258306,0,1,1,2.7386127875258306,0" stroke="#4c78a8" stroke-width="2" opacity="0.7"></path><path aria-label="Weighted percentage w/ COVID-like illness: 2.2423; States: Bahia" role="graphics-symbol" aria-roledescription="point" transform="translate(164.97833333333335,90)" d="M2.7386127875258306,0A2.7386127875258306,2.7386127875258306,0,1,1,-2.7386127875258306,0A2.7386127875258306,2.7386127875258306,0,1,1,2.7386127875258306,0" stroke="#4c78a8" stroke-width="2" opacity="0.7"></path><path aria-label="Weighted percentage w/ COVID-like illness: 2.201; States: Minas Gerais" role="graphics-symbol" aria-roledescription="point" transform="translate(163.3722222222222,250)" d="M2.7386127875258306,0A2.7386127875258306,2.7386127875258306,0,1,1,-2.7386127875258306,0A2.7386127875258306,2.7386127875258306,0,1,1,2.7386127875258306,0" stroke="#4c78a8" stroke-width="2" opacity="0.7"></path><path aria-label="Weighted percentage w/ COVID-like illness: 2.151; States: Alagoas" role="graphics-symbol" aria-roledescription="point" transform="translate(161.42777777777778,30)" d="M2.7386127875258306,0A2.7386127875258306,2.7386127875258306,0,1,1,-2.7386127875258306,0A2.7386127875258306,2.7386127875258306,0,1,1,2.7386127875258306,0" stroke="#4c78a8" stroke-width="2" opacity="0.7"></path><path aria-label="Weighted percentage w/ COVID-like illness: 1.7515; States: Rio de Janeiro" role="graphics-symbol" aria-roledescription="point" transform="translate(145.89166666666668,410)" d="M2.7386127875258306,0A2.7386127875258306,2.7386127875258306,0,1,1,-2.7386127875258306,0A2.7386127875258306,2.7386127875258306,0,1,1,2.7386127875258306,0" stroke="#4c78a8" stroke-width="2" opacity="0.7"></path><path aria-label="Weighted percentage w/ COVID-like illness: 1.6005; States: Paraná" role="graphics-symbol" aria-roledescription="point" transform="translate(140.01944444444445,270)" d="M2.7386127875258306,0A2.7386127875258306,2.7386127875258306,0,1,1,-2.7386127875258306,0A2.7386127875258306,2.7386127875258306,0,1,1,2.7386127875258306,0" stroke="#4c78a8" stroke-width="2" opacity="0.7"></path><path aria-label="Weighted percentage w/ COVID-like illness: 1.5602; States: São Paulo" role="graphics-symbol" aria-roledescription="point" transform="translate(138.45222222222222,510)" d="M2.7386127875258306,0A2.7386127875258306,2.7386127875258306,0,1,1,-2.7386127875258306,0A2.7386127875258306,2.7386127875258306,0,1,1,2.7386127875258306,0" stroke="#4c78a8" stroke-width="2" opacity="0.7"></path><path aria-label="Weighted percentage w/ COVID-like illness: 1.5094; States: Santa Catarina" role="graphics-symbol" aria-roledescription="point" transform="translate(136.4766666666667,470)" d="M2.7386127875258306,0A2.7386127875258306,2.7386127875258306,0,1,1,-2.7386127875258306,0A2.7386127875258306,2.7386127875258306,0,1,1,2.7386127875258306,0" stroke="#4c78a8" stroke-width="2" opacity="0.7"></path><path aria-label="Weighted percentage w/ COVID-like illness: 1.483; States: Goiás" role="graphics-symbol" aria-roledescription="point" transform="translate(135.45,170)" d="M2.7386127875258306,0A2.7386127875258306,2.7386127875258306,0,1,1,-2.7386127875258306,0A2.7386127875258306,2.7386127875258306,0,1,1,2.7386127875258306,0" stroke="#4c78a8" stroke-width="2" opacity="0.7"></path><path aria-label="Weighted percentage w/ COVID-like illness: 1.3584; States: Piauí" role="graphics-symbol" aria-roledescription="point" transform="translate(130.60444444444445,350)" d="M2.7386127875258306,0A2.7386127875258306,2.7386127875258306,0,1,1,-2.7386127875258306,0A2.7386127875258306,2.7386127875258306,0,1,1,2.7386127875258306,0" stroke="#4c78a8" stroke-width="2" opacity="0.7"></path><path aria-label="Weighted percentage w/ COVID-like illness: 1.2031; States: Rio Grande do Sul" role="graphics-symbol" aria-roledescription="point" transform="translate(124.565,390)" d="M2.7386127875258306,0A2.7386127875258306,2.7386127875258306,0,1,1,-2.7386127875258306,0A2.7386127875258306,2.7386127875258306,0,1,1,2.7386127875258306,0" stroke="#4c78a8" stroke-width="2" opacity="0.7"></path><path aria-label="Weighted percentage w/ COVID-like illness: 0.6153; States: Mato Grosso" role="graphics-symbol" aria-roledescription="point" transform="translate(101.70611111111111,210)" d="M2.7386127875258306,0A2.7386127875258306,2.7386127875258306,0,1,1,-2.7386127875258306,0A2.7386127875258306,2.7386127875258306,0,1,1,2.7386127875258306,0" stroke="#4c78a8" stroke-width="2" opacity="0.7"></path></g><g class="mark-rule role-mark layer_1_marks" role="graphics-object" aria-roledescription="rule mark container"><line aria-label="CI 0.95: 0.651216; upper_percent_cli_lower: 14.392384; region: Acre; percent_cli_upper: 14.392384; percent_cli_lower: 0.651216" role="graphics-symbol" aria-roledescription="errorbar" transform="translate(103.1028444444444,10)" x2="534.3787555555556" y2="0" stroke="blue" stroke-width="0.6"></line><line aria-label="CI 0.95: 1.20126; upper_percent_cli_lower: 13.15334; region: Roraima; percent_cli_upper: 13.15334; percent_cli_lower: 1.20126" role="graphics-symbol" aria-roledescription="errorbar" transform="translate(124.49344444444446,450)" x2="464.8031111111111" y2="0" stroke="blue" stroke-width="0.6"></line><line aria-label="CI 0.95: 1.1204; upper_percent_cli_lower: 12.4688; region: Amapá; percent_cli_upper: 12.4688; percent_cli_lower: 1.1204" role="graphics-symbol" aria-roledescription="errorbar" transform="translate(121.34888888888892,50)" x2="441.3266666666666" y2="0" stroke="blue" stroke-width="0.6"></line><line aria-label="CI 0.95: 1.227924; upper_percent_cli_lower: 9.217276; region: Rio Grande do Norte; percent_cli_upper: 9.217276; percent_cli_lower: 1.227924" role="graphics-symbol" aria-roledescription="errorbar" transform="translate(125.53037777777782,370)" x2="310.6970222222222" y2="0" stroke="blue" stroke-width="0.6"></line><line aria-label="CI 0.95: 2.432008; upper_percent_cli_lower: 7.910992; region: Distrito Federal; percent_cli_upper: 7.910992; percent_cli_lower: 2.432008" role="graphics-symbol" aria-roledescription="errorbar" transform="translate(172.35586666666666,130)" x2="213.07160000000005" y2="0" stroke="blue" stroke-width="0.6"></line><line aria-label="CI 0.95: 0.91296; upper_percent_cli_lower: 8.02384; region: Paraíba; percent_cli_upper: 8.02384; percent_cli_lower: 0.91296" role="graphics-symbol" aria-roledescription="errorbar" transform="translate(113.28177777777779,290)" x2="276.53422222222224" y2="0" stroke="blue" stroke-width="0.6"></line><line aria-label="CI 0.95: -0.001488; upper_percent_cli_lower: 8.545288; region: Sergipe; percent_cli_upper: 8.545288; percent_cli_lower: -0.001488" role="graphics-symbol" aria-roledescription="errorbar" transform="translate(77.71991111111113,490)" x2="332.37462222222223" y2="0" stroke="blue" stroke-width="0.6"></line><line aria-label="CI 0.95: 1.338836; upper_percent_cli_lower: 7.134164; region: Espírito Santo; percent_cli_upper: 7.134164; percent_cli_lower: 1.338836" role="graphics-symbol" aria-roledescription="errorbar" transform="translate(129.84362222222222,150)" x2="225.3738666666667" y2="0" stroke="blue" stroke-width="0.6"></line><line aria-label="CI 0.95: -0.063368; upper_percent_cli_lower: 8.142368; region: Rondônia; percent_cli_upper: 8.142368; percent_cli_lower: -0.063368" role="graphics-symbol" aria-roledescription="errorbar" transform="translate(75.31346666666667,430)" x2="319.11195555555554" y2="0" stroke="blue" stroke-width="0.6"></line><line aria-label="CI 0.95: -0.424892; upper_percent_cli_lower: 7.200292; region: Tocantins; percent_cli_upper: 7.200292; percent_cli_lower: -0.424892" role="graphics-symbol" aria-roledescription="errorbar" transform="translate(61.25419999999999,530)" x2="296.5349333333334" y2="0" stroke="blue" stroke-width="0.6"></line><line aria-label="CI 0.95: 1.008544; upper_percent_cli_lower: 5.462056; region: Pará; percent_cli_upper: 5.462056; percent_cli_lower: 1.008544" role="graphics-symbol" aria-roledescription="errorbar" transform="translate(116.99893333333334,310)" x2="173.1921333333333" y2="0" stroke="blue" stroke-width="0.6"></line><line aria-label="CI 0.95: 1.259144; upper_percent_cli_lower: 5.183456; region: Ceará; percent_cli_upper: 5.183456; percent_cli_lower: 1.259144" role="graphics-symbol" aria-roledescription="errorbar" transform="translate(126.7444888888889,110)" x2="152.61213333333336" y2="0" stroke="blue" stroke-width="0.6"></line><line aria-label="CI 0.95: 0.406544; upper_percent_cli_lower: 5.281456; region: Mato Grosso do Sul; percent_cli_upper: 5.281456; percent_cli_lower: 0.406544" role="graphics-symbol" aria-roledescription="errorbar" transform="translate(93.58782222222223,230)" x2="189.5799111111111" y2="0" stroke="blue" stroke-width="0.6"></line><line aria-label="CI 0.95: 0.11746; upper_percent_cli_lower: 5.54274; region: Amazonas; percent_cli_upper: 5.54274; percent_cli_lower: 0.11746" role="graphics-symbol" aria-roledescription="errorbar" transform="translate(82.34566666666667,70)" x2="210.98311111111116" y2="0" stroke="blue" stroke-width="0.6"></line><line aria-label="CI 0.95: -0.013128; upper_percent_cli_lower: 5.579928; region: Maranhão; percent_cli_upper: 5.579928; percent_cli_lower: -0.013128" role="graphics-symbol" aria-roledescription="errorbar" transform="translate(77.26724444444446,190)" x2="217.50773333333333" y2="0" stroke="blue" stroke-width="0.6"></line><line aria-label="CI 0.95: 0.46808; upper_percent_cli_lower: 4.18032; region: Pernambuco; percent_cli_upper: 4.18032; percent_cli_lower: 0.46808" role="graphics-symbol" aria-roledescription="errorbar" transform="translate(95.98088888888888,330)" x2="144.3648888888889" y2="0" stroke="blue" stroke-width="0.6"></line><line aria-label="CI 0.95: 0.645488; upper_percent_cli_lower: 3.839112; region: Bahia; percent_cli_upper: 3.839112; percent_cli_lower: 0.645488" role="graphics-symbol" aria-roledescription="errorbar" transform="translate(102.88008888888888,90)" x2="124.19648888888892" y2="0" stroke="blue" stroke-width="0.6"></line><line aria-label="CI 0.95: 1.176312; upper_percent_cli_lower: 3.225688; region: Minas Gerais; percent_cli_upper: 3.225688; percent_cli_lower: 1.176312" role="graphics-symbol" aria-roledescription="errorbar" transform="translate(123.52324444444444,250)" x2="79.69795555555557" y2="0" stroke="blue" stroke-width="0.6"></line><line aria-label="CI 0.95: -0.689236; upper_percent_cli_lower: 4.991236; region: Alagoas; percent_cli_upper: 4.991236; percent_cli_lower: -0.689236" role="graphics-symbol" aria-roledescription="errorbar" transform="translate(50.97415555555556,30)" x2="220.90724444444447" y2="0" stroke="blue" stroke-width="0.6"></line><line aria-label="CI 0.95: 0.854604; upper_percent_cli_lower: 2.648396; region: Rio de Janeiro; percent_cli_upper: 2.648396; percent_cli_lower: 0.854604" role="graphics-symbol" aria-roledescription="errorbar" transform="translate(111.01237777777779,410)" x2="69.75857777777777" y2="0" stroke="blue" stroke-width="0.6"></line><line aria-label="CI 0.95: 0.663816; upper_percent_cli_lower: 2.537184; region: Paraná; percent_cli_upper: 2.537184; percent_cli_lower: 0.663816" role="graphics-symbol" aria-roledescription="errorbar" transform="translate(103.59284444444444,270)" x2="72.85320000000002" y2="0" stroke="blue" stroke-width="0.6"></line><line aria-label="CI 0.95: 1.09862; upper_percent_cli_lower: 2.02178; region: São Paulo; percent_cli_upper: 2.02178; percent_cli_lower: 1.09862" role="graphics-symbol" aria-roledescription="errorbar" transform="translate(120.50188888888889,510)" x2="35.900666666666666" y2="0" stroke="blue" stroke-width="0.6"></line><line aria-label="CI 0.95: 0.181304; upper_percent_cli_lower: 2.837496; region: Santa Catarina; percent_cli_upper: 2.837496; percent_cli_lower: 0.181304" role="graphics-symbol" aria-roledescription="errorbar" transform="translate(84.82848888888888,470)" x2="103.29635555555554" y2="0" stroke="blue" stroke-width="0.6"></line><line aria-label="CI 0.95: 0.182344; upper_percent_cli_lower: 2.783656; region: Goiás; percent_cli_upper: 2.783656; percent_cli_lower: 0.182344" role="graphics-symbol" aria-roledescription="errorbar" transform="translate(84.86893333333333,170)" x2="101.16213333333334" y2="0" stroke="blue" stroke-width="0.6"></line><line aria-label="CI 0.95: -1.18078; upper_percent_cli_lower: 3.89758; region: Piauí; percent_cli_upper: 3.89758; percent_cli_lower: -1.18078" role="graphics-symbol" aria-roledescription="errorbar" transform="translate(31.858555555555558,350)" x2="197.49177777777774" y2="0" stroke="blue" stroke-width="0.6"></line><line aria-label="CI 0.95: 0.379508; upper_percent_cli_lower: 2.026692; region: Rio Grande do Sul; percent_cli_upper: 2.026692; percent_cli_lower: 0.379508" role="graphics-symbol" aria-roledescription="errorbar" transform="translate(92.53642222222223,390)" x2="64.05715555555557" y2="0" stroke="blue" stroke-width="0.6"></line><line aria-label="CI 0.95: -0.51072; upper_percent_cli_lower: 1.74132; region: Mato Grosso; percent_cli_upper: 1.74132; percent_cli_lower: -0.51072" role="graphics-symbol" aria-roledescription="errorbar" transform="translate(57.91644444444444,210)" x2="87.57933333333332" y2="0" stroke="blue" stroke-width="0.6"></line></g><g class="mark-group role-title"><g transform="translate(350,-17)"><path class="background" aria-hidden="true" d="M0,0h0v0h0Z" pointer-events="none"></path><g><g class="mark-text role-title-text" role="graphics-symbol" aria-roledescription="title" aria-label="Title text 'Facebook COVID-like illness symptom survey (last available date) for all states in Brazil'" pointer-events="none"><text text-anchor="middle" transform="translate(0,10)" font-family="sans-serif" font-size="13px" font-weight="bold" fill="#000" opacity="1">Facebook COVID-like illness symptom survey (last available date) for all states in Brazil</text></g></g><path class="foreground" aria-hidden="true" d="" pointer-events="none" display="none"></path></g></g></g><path class="foreground" aria-hidden="true" d="" display="none"></path></g></g></g></svg>