<svg class="marks" width="829" height="599" viewBox="0 0 829 599" version="1.1" xmlns="http://www.w3.org/2000/svg" xmlns:xlink="http://www.w3.org/1999/xlink"><rect width="829" height="599" fill="white"></rect><g fill="none" stroke-miterlimit="10" transform="translate(123,22)"><g class="mark-group role-frame root" role="graphics-object" aria-roledescription="group mark container"><g transform="translate(0,0)"><path class="background" aria-hidden="true" d="M0.5,0.5h700v540h-700Z"></path><g><g class="mark-group role-axis" aria-hidden="true"><g transform="translate(0.5,0.5)"><path class="background" aria-hidden="true" d="M0,0h0v0h0Z" pointer-events="none"></path><g><g class="mark-rule role-axis-grid" pointer-events="none"><line transform="translate(0,10)" x2="700" y2="0" stroke="#ddd" stroke-width="1" opacity="1"></line><line transform="translate(0,30)" x2="700" y2="0" stroke="#ddd" stroke-width="1" opacity="1"></line><line transform="translate(0,50)" x2="700" y2="0" stroke="#ddd" stroke-width="1" opacity="1"></line><line transform="translate(0,70)" x2="700" y2="0" stroke="#ddd" stroke-width="1" opacity="1"></line><line transform="translate(0,90)" x2="700" y2="0" stroke="#ddd" stroke-width="1" opacity="1"></line><line transform="translate(0,110)" x2="700" y2="0" stroke="#ddd" stroke-width="1" opacity="1"></line><line transform="translate(0,130)" x2="700" y2="0" stroke="#ddd" stroke-width="1" opacity="1"></line><line transform="translate(0,150)" x2="700" y2="0" stroke="#ddd" stroke-width="1" opacity="1"></line><line transform="translate(0,170)" x2="700" y2="0" stroke="#ddd" stroke-width="1" opacity="1"></line><line transform="translate(0,190)" x2="700" y2="0" stroke="#ddd" stroke-width="1" opacity="1"></line><line transform="translate(0,210)" x2="700" y2="0" stroke="#ddd" stroke-width="1" opacity="1"></line><line transform="translate(0,230)" x2="700" y2="0" stroke="#ddd" stroke-width="1" opacity="1"></line><line transform="translate(0,250)" x2="700" y2="0" stroke="#ddd" stroke-width="1" opacity="1"></line><line transform="translate(0,270)" x2="700" y2="0" stroke="#ddd" stroke-width="1" opacity="1"></line><line transform="translate(0,290)" x2="700" y2="0" stroke="#ddd" stroke-width="1" opacity="1"></line><line transform="translate(0,310)" x2="700" y2="0" stroke="#ddd" stroke-width="1" opacity="1"></line><line transform="translate(0,330)" x2="700" y2="0" stroke="#ddd" stroke-width="1" opacity="1"></line><line transform="translate(0,350)" x2="700" y2="0" stroke="#ddd" stroke-width="1" opacity="1"></line><line transform="translate(0,370)" x2="700" y2="0" stroke="#ddd" stroke-width="1" opacity="1"></line><line transform="translate(0,390)" x2="700" y2="0" stroke="#ddd" stroke-width="1" opacity="1"></line><line transform="translate(0,410)" x2="700" y2="0" stroke="#ddd" stroke-width="1" opacity="1"></line><line transform="translate(0,430)" x2="700" y2="0" stroke="#ddd" stroke-width="1" opacity="1"></line><line transform="translate(0,450)" x2="700" y2="0" stroke="#ddd" stroke-width="1" opacity="1"></line><line transform="translate(0,470)" x2="700" y2="0" stroke="#ddd" stroke-width="1" opacity="1"></line><line transform="translate(0,490)" x2="700" y2="0" stroke="#ddd" stroke-width="1" opacity="1"></line><line transform="translate(0,510)" x2="700" y2="0" stroke="#ddd" stroke-width="1" opacity="1"></line><line transform="translate(0,530)" x2="700" y2="0" stroke="#ddd" stroke-width="1" opacity="1"></line></g></g><path class="foreground" aria-hidden="true" d="" pointer-events="none" display="none"></path></g></g><g class="mark-group role-axis" role="graphics-symbol" aria-roledescription="axis" aria-label="X-axis titled 'Weighted percentage w/ COVID-like illness, CI 0.95' for a linear scale with values from -2 to 16"><g transform="translate(0.5,540.5)"><path class="background" aria-hidden="true" d="M0,0h0v0h0Z" pointer-events="none"></path><g><g class="mark-rule role-axis-tick" pointer-events="none"><line transform="translate(0,0)" x2="0" y2="5" stroke="#888" stroke-width="1" opacity="1"></line><line transform="translate(39,0)" x2="0" y2="5" stroke="#888" stroke-width="1" opacity="1"></line><line transform="translate(78,0)" x2="0" y2="5" stroke="#888" stroke-width="1" opacity="1"></line><line transform="translate(117,0)" x2="0" y2="5" stroke="#888" stroke-width="1" opacity="1"></line><line transform="translate(156,0)" x2="0" y2="5" stroke="#888" stroke-width="1" opacity="1"></line><line transform="translate(194,0)" x2="0" y2="5" stroke="#888" stroke-width="1" opacity="1"></line><line transform="translate(233,0)" x2="0" y2="5" stroke="#888" stroke-width="1" opacity="1"></line><line transform="translate(272,0)" x2="0" y2="5" stroke="#888" stroke-width="1" opacity="1"></line><line transform="translate(311,0)" x2="0" y2="5" stroke="#888" stroke-width="1" opacity="1"></line><line transform="translate(350,0)" x2="0" y2="5" stroke="#888" stroke-width="1" opacity="1"></line><line transform="translate(389,0)" x2="0" y2="5" stroke="#888" stroke-width="1" opacity="1"></line><line transform="translate(428,0)" x2="0" y2="5" stroke="#888" stroke-width="1" opacity="1"></line><line transform="translate(467,0)" x2="0" y2="5" stroke="#888" stroke-width="1" opacity="1"></line><line transform="translate(506,0)" x2="0" y2="5" stroke="#888" stroke-width="1" opacity="1"></line><line transform="translate(544,0)" x2="0" y2="5" stroke="#888" stroke-width="1" opacity="1"></line><line transform="translate(583,0)" x2="0" y2="5" stroke="#888" stroke-width="1" opacity="1"></line><line transform="translate(622,0)" x2="0" y2="5" stroke="#888" stroke-width="1" opacity="1"></line><line transform="translate(661,0)" x2="0" y2="5" stroke="#888" stroke-width="1" opacity="1"></line><line transform="translate(700,0)" x2="0" y2="5" stroke="#888" stroke-width="1" opacity="1"></line></g><g class="mark-text role-axis-label" pointer-events="none"><text text-anchor="start" transform="translate(0,15)" font-family="sans-serif" font-size="10px" fill="#000" opacity="1">-2</text><text text-anchor="middle" transform="translate(38.888888888888886,15)" font-family="sans-serif" font-size="10px" fill="#000" opacity="1">-1</text><text text-anchor="middle" transform="translate(77.77777777777777,15)" font-family="sans-serif" font-size="10px" fill="#000" opacity="1">0</text><text text-anchor="middle" transform="translate(116.66666666666666,15)" font-family="sans-serif" font-size="10px" fill="#000" opacity="1">1</text><text text-anchor="middle" transform="translate(155.55555555555554,15)" font-family="sans-serif" font-size="10px" fill="#000" opacity="1">2</text><text text-anchor="middle" transform="translate(194.44444444444446,15)" font-family="sans-serif" font-size="10px" fill="#000" opacity="1">3</text><text text-anchor="middle" transform="translate(233.33333333333331,15)" font-family="sans-serif" font-size="10px" fill="#000" opacity="1">4</text><text text-anchor="middle" transform="translate(272.22222222222223,15)" font-family="sans-serif" font-size="10px" fill="#000" opacity="1">5</text><text text-anchor="middle" transform="translate(311.1111111111111,15)" font-family="sans-serif" font-size="10px" fill="#000" opacity="1">6</text><text text-anchor="middle" transform="translate(350,15)" font-family="sans-serif" font-size="10px" fill="#000" opacity="1">7</text><text text-anchor="middle" transform="translate(388.8888888888889,15)" font-family="sans-serif" font-size="10px" fill="#000" opacity="1">8</text><text text-anchor="middle" transform="translate(427.7777777777778,15)" font-family="sans-serif" font-size="10px" fill="#000" opacity="1">9</text><text text-anchor="middle" transform="translate(466.66666666666663,15)" font-family="sans-serif" font-size="10px" fill="#000" opacity="1">10</text><text text-anchor="middle" transform="translate(505.55555555555554,15)" font-family="sans-serif" font-size="10px" fill="#000" opacity="1">11</text><text text-anchor="middle" transform="translate(544.4444444444445,15)" font-family="sans-serif" font-size="10px" fill="#000" opacity="1">12</text><text text-anchor="middle" transform="translate(583.3333333333334,15)" font-family="sans-serif" font-size="10px" fill="#000" opacity="1">13</text><text text-anchor="middle" transform="translate(622.2222222222222,15)" font-family="sans-serif" font-size="10px" fill="#000" opacity="1">14</text><text text-anchor="middle" transform="translate(661.1111111111111,15)" font-family="sans-serif" font-size="10px" fill="#000" opacity="1">15</text><text text-anchor="end" transform="translate(700,15)" font-family="sans-serif" font-size="10px" fill="#000" opacity="1">16</text></g><g class="mark-rule role-axis-domain" pointer-events="none"><line transform="translate(0,0)" x2="700" y2="0" stroke="#888" stroke-width="1" opacity="1"></line></g><g class="mark-text role-axis-title" pointer-events="none"><text text-anchor="middle" transform="translate(350,30)" font-family="sans-serif" font-size="11px" font-weight="bold" fill="#000" opacity="1">Weighted percentage w/ COVID-like illness, CI 0.95</text></g></g><path class="foreground" aria-hidden="true" d="" pointer-events="none" display="none"></path></g></g><g class="mark-group role-axis" role="graphics-symbol" aria-roledescription="axis" aria-label="Y-axis titled 'States' for a discrete scale with 27 values: Acre, Alagoas, Amapá, Amazonas, Bahia, ending with Tocantins"><g transform="translate(0.5,0.5)"><path class="background" aria-hidden="true" d="M0,0h0v0h0Z" pointer-events="none"></path><g><g class="mark-rule role-axis-tick" pointer-events="none"><line transform="translate(0,10)" x2="-5" y2="0" stroke="#888" stroke-width="1" opacity="1"></line><line transform="translate(0,30)" x2="-5" y2="0" stroke="#888" stroke-width="1" opacity="1"></line><line transform="translate(0,50)" x2="-5" y2="0" stroke="#888" stroke-width="1" opacity="1"></line><line transform="translate(0,70)" x2="-5" y2="0" stroke="#888" stroke-width="1" opacity="1"></line><line transform="translate(0,90)" x2="-5" y2="0" stroke="#888" stroke-width="1" opacity="1"></line><line transform="translate(0,110)" x2="-5" y2="0" stroke="#888" stroke-width="1" opacity="1"></line><line transform="translate(0,130)" x2="-5" y2="0" stroke="#888" stroke-width="1" opacity="1"></line><line transform="translate(0,150)" x2="-5" y2="0" stroke="#888" stroke-width="1" opacity="1"></line><line transform="translate(0,170)" x2="-5" y2="0" stroke="#888" stroke-width="1" opacity="1"></line><line transform="translate(0,190)" x2="-5" y2="0" stroke="#888" stroke-width="1" opacity="1"></line><line transform="translate(0,210)" x2="-5" y2="0" stroke="#888" stroke-width="1" opacity="1"></line><line transform="translate(0,230)" x2="-5" y2="0" stroke="#888" stroke-width="1" opacity="1"></line><line transform="translate(0,250)" x2="-5" y2="0" stroke="#888" stroke-width="1" opacity="1"></line><line transform="translate(0,270)" x2="-5" y2="0" stroke="#888" stroke-width="1" opacity="1"></line><line transform="translate(0,290)" x2="-5" y2="0" stroke="#888" stroke-width="1" opacity="1"></line><line transform="translate(0,310)" x2="-5" y2="0" stroke="#888" stroke-width="1" opacity="1"></line><line transform="translate(0,330)" x2="-5" y2="0" stroke="#888" stroke-width="1" opacity="1"></line><line transform="translate(0,350)" x2="-5" y2="0" stroke="#888" stroke-width="1" opacity="1"></line><line transform="translate(0,370)" x2="-5" y2="0" stroke="#888" stroke-width="1" opacity="1"></line><line transform="translate(0,390)" x2="-5" y2="0" stroke="#888" stroke-width="1" opacity="1"></line><line transform="translate(0,410)" x2="-5" y2="0" stroke="#888" stroke-width="1" opacity="1"></line><line transform="translate(0,430)" x2="-5" y2="0" stroke="#888" stroke-width="1" opacity="1"></line><line transform="translate(0,450)" x2="-5" y2="0" stroke="#888" stroke-width="1" opacity="1"></line><line transform="translate(0,470)" x2="-5" y2="0" stroke="#888" stroke-width="1" opacity="1"></line><line transform="translate(0,490)" x2="-5" y2="0" stroke="#888" stroke-width="1" opacity="1"></line><line transform="translate(0,510)" x2="-5" y2="0" stroke="#888" stroke-width="1" opacity="1"></line><line transform="translate(0,530)" x2="-5" y2="0" stroke="#888" stroke-width="1" opacity="1"></line></g><g class="mark-text role-axis-label" pointer-events="none"><text text-anchor="end" transform="translate(-7,12.5)" font-family="sans-serif" font-size="10px" fill="#000" opacity="1">Acre</text><text text-anchor="end" transform="translate(-7,32.5)" font-family="sans-serif" font-size="10px" fill="#000" opacity="1">Alagoas</text><text text-anchor="end" transform="translate(-7,52.5)" font-family="sans-serif" font-size="10px" fill="#000" opacity="1">Amapá</text><text text-anchor="end" transform="translate(-7,72.5)" font-family="sans-serif" font-size="10px" fill="#000" opacity="1">Amazonas</text><text text-anchor="end" transform="translate(-7,92.5)" font-family="sans-serif" font-size="10px" fill="#000" opacity="1">Bahia</text><text text-anchor="end" transform="translate(-7,112.5)" font-family="sans-serif" font-size="10px" fill="#000" opacity="1">Ceará</text><text text-anchor="end" transform="translate(-7,132.5)" font-family="sans-serif" font-size="10px" fill="#000" opacity="1">Distrito Federal</text><text text-anchor="end" transform="translate(-7,152.5)" font-family="sans-serif" font-size="10px" fill="#000" opacity="1">Espírito Santo</text><text text-anchor="end" transform="translate(-7,172.5)" font-family="sans-serif" font-size="10px" fill="#000" opacity="1">Goiás</text><text text-anchor="end" transform="translate(-7,192.5)" font-family="sans-serif" font-size="10px" fill="#000" opacity="1">Maranhão</text><text text-anchor="end" transform="translate(-7,212.5)" font-family="sans-serif" font-size="10px" fill="#000" opacity="1">Mato Grosso</text><text text-anchor="end" transform="translate(-7,232.5)" font-family="sans-serif" font-size="10px" fill="#000" opacity="1">Mato Grosso do Sul</text><text text-anchor="end" transform="translate(-7,252.5)" font-family="sans-serif" font-size="10px" fill="#000" opacity="1">Minas Gerais</text><text text-anchor="end" transform="translate(-7,272.5)" font-family="sans-serif" font-size="10px" fill="#000" opacity="1">Paraná</text><text text-anchor="end" transform="translate(-7,292.5)" font-family="sans-serif" font-size="10px" fill="#000" opacity="1">Paraíba</text><text text-anchor="end" transform="translate(-7,312.5)" font-family="sans-serif" font-size="10px" fill="#000" opacity="1">Pará</text><text text-anchor="end" transform="translate(-7,332.5)" font-family="sans-serif" font-size="10px" fill="#000" opacity="1">Pernambuco</text><text text-anchor="end" transform="translate(-7,352.5)" font-family="sans-serif" font-size="10px" fill="#000" opacity="1">Piauí</text><text text-anchor="end" transform="translate(-7,372.5)" font-family="sans-serif" font-size="10px" fill="#000" opacity="1">Rio Grande do Norte</text><text text-anchor="end" transform="translate(-7,392.5)" font-family="sans-serif" font-size="10px" fill="#000" opacity="1">Rio Grande do Sul</text><text text-anchor="end" transform="translate(-7,412.5)" font-family="sans-serif" font-size="10px" fill="#000" opacity="1">Rio de Janeiro</text><text text-anchor="end" transform="translate(-7,432.5)" font-family="sans-serif" font-size="10px" fill="#000" opacity="1">Rondônia</text><text text-anchor="end" transform="translate(-7,452.5)" font-family="sans-serif" font-size="10px" fill="#000" opacity="1">Roraima</text><text text-anchor="end" transform="translate(-7,472.5)" font-family="sans-serif" font-size="10px" fill="#000" opacity="1">Santa Catarina</text><text text-anchor="end" transform="translate(-7,492.5)" font-family="sans-serif" font-size="10px" fill="#000" opacity="1">Sergipe</text><text text-anchor="end" transform="translate(-7,512.5)" font-family="sans-serif" font-size="10px" fill="#000" opacity="1">São Paulo</text><text text-anchor="end" transform="translate(-7,532.5)" font-family="sans-serif" font-size="10px" fill="#000" opacity="1">Tocantins</text></g><g class="mark-rule role-axis-domain" pointer-events="none"><line transform="translate(0,0)" x2="0" y2="540" stroke="#888" stroke-width="1" opacity="1"></line></g><g class="mark-text role-axis-title" pointer-events="none"><text text-anchor="middle" transform="translate(-107,270) rotate(-90) translate(0,-2)" font-family="sans-serif" font-size="11px" font-weight="bold" fill="#000" opacity="1">States</text></g></g><path class="foreground" aria-hidden="true" d="" pointer-events="none" display="none"></path></g></g><g class="mark-symbol role-mark layer_0_marks" role="graphics-object" aria-roledescription="symbol mark container"><path aria-label="Weighted percentage w/ COVID-like illness: 8.9647; States: Roraima" role="graphics-symbol" aria-roledescription="point" transform="translate(426.40500000000003,450)" d="M2.7386127875258306,0A2.7386127875258306,2.7386127875258306,0,1,1,-2.7386127875258306,0A2.7386127875258306,2.7386127875258306,0,1,1,2.7386127875258306,0" stroke="#4c78a8" stroke-width="2" opacity="0.7"></path><path aria-label="Weighted percentage w/ COVID-like illness: 6.5034; States: Tocantins" role="graphics-symbol" aria-roledescription="point" transform="translate(330.68777777777774,530)" d="M2.7386127875258306,0A2.7386127875258306,2.7386127875258306,0,1,1,-2.7386127875258306,0A2.7386127875258306,2.7386127875258306,0,1,1,2.7386127875258306,0" stroke="#4c78a8" stroke-width="2" opacity="0.7"></path><path aria-label="Weighted percentage w/ COVID-like illness: 6.10535; States: Maranhão" role="graphics-symbol" aria-roledescription="point" transform="translate(315.2080555555555,190)" d="M2.7386127875258306,0A2.7386127875258306,2.7386127875258306,0,1,1,-2.7386127875258306,0A2.7386127875258306,2.7386127875258306,0,1,1,2.7386127875258306,0" stroke="#4c78a8" stroke-width="2" opacity="0.7"></path><path aria-label="Weighted percentage w/ COVID-like illness: 5.5534; States: Rondônia" role="graphics-symbol" aria-roledescription="point" transform="translate(293.74333333333334,430)" d="M2.7386127875258306,0A2.7386127875258306,2.7386127875258306,0,1,1,-2.7386127875258306,0A2.7386127875258306,2.7386127875258306,0,1,1,2.7386127875258306,0" stroke="#4c78a8" stroke-width="2" opacity="0.7"></path><path aria-label="Weighted percentage w/ COVID-like illness: 5.01555; States: Amazonas" role="graphics-symbol" aria-roledescription="point" transform="translate(272.82694444444445,70)" d="M2.7386127875258306,0A2.7386127875258306,2.7386127875258306,0,1,1,-2.7386127875258306,0A2.7386127875258306,2.7386127875258306,0,1,1,2.7386127875258306,0" stroke="#4c78a8" stroke-width="2" opacity="0.7"></path><path aria-label="Weighted percentage w/ COVID-like illness: 4.3856; States: Amapá" role="graphics-symbol" aria-roledescription="point" transform="translate(248.32888888888888,50)" d="M2.7386127875258306,0A2.7386127875258306,2.7386127875258306,0,1,1,-2.7386127875258306,0A2.7386127875258306,2.7386127875258306,0,1,1,2.7386127875258306,0" stroke="#4c78a8" stroke-width="2" opacity="0.7"></path><path aria-label="Weighted percentage w/ COVID-like illness: 4.3776; States: Pernambuco" role="graphics-symbol" aria-roledescription="point" transform="translate(248.01777777777778,330)" d="M2.7386127875258306,0A2.7386127875258306,2.7386127875258306,0,1,1,-2.7386127875258306,0A2.7386127875258306,2.7386127875258306,0,1,1,2.7386127875258306,0" stroke="#4c78a8" stroke-width="2" opacity="0.7"></path><path aria-label="Weighted percentage w/ COVID-like illness: 4.3441; States: Ceará" role="graphics-symbol" aria-roledescription="point" transform="translate(246.715,110)" d="M2.7386127875258306,0A2.7386127875258306,2.7386127875258306,0,1,1,-2.7386127875258306,0A2.7386127875258306,2.7386127875258306,0,1,1,2.7386127875258306,0" stroke="#4c78a8" stroke-width="2" opacity="0.7"></path><path aria-label="Weighted percentage w/ COVID-like illness: 4.0922; States: Goiás" role="graphics-symbol" aria-roledescription="point" transform="translate(236.9188888888889,170)" d="M2.7386127875258306,0A2.7386127875258306,2.7386127875258306,0,1,1,-2.7386127875258306,0A2.7386127875258306,2.7386127875258306,0,1,1,2.7386127875258306,0" stroke="#4c78a8" stroke-width="2" opacity="0.7"></path><path aria-label="Weighted percentage w/ COVID-like illness: 3.92135; States: Pará" role="graphics-symbol" aria-roledescription="point" transform="translate(230.2747222222222,310)" d="M2.7386127875258306,0A2.7386127875258306,2.7386127875258306,0,1,1,-2.7386127875258306,0A2.7386127875258306,2.7386127875258306,0,1,1,2.7386127875258306,0" stroke="#4c78a8" stroke-width="2" opacity="0.7"></path><path aria-label="Weighted percentage w/ COVID-like illness: 3.7013; States: Bahia" role="graphics-symbol" aria-roledescription="point" transform="translate(221.71722222222223,90)" d="M2.7386127875258306,0A2.7386127875258306,2.7386127875258306,0,1,1,-2.7386127875258306,0A2.7386127875258306,2.7386127875258306,0,1,1,2.7386127875258306,0" stroke="#4c78a8" stroke-width="2" opacity="0.7"></path><path aria-label="Weighted percentage w/ COVID-like illness: 3.5918; States: Piauí" role="graphics-symbol" aria-roledescription="point" transform="translate(217.45888888888885,350)" d="M2.7386127875258306,0A2.7386127875258306,2.7386127875258306,0,1,1,-2.7386127875258306,0A2.7386127875258306,2.7386127875258306,0,1,1,2.7386127875258306,0" stroke="#4c78a8" stroke-width="2" opacity="0.7"></path><path aria-label="Weighted percentage w/ COVID-like illness: 3.4053; States: Acre" role="graphics-symbol" aria-roledescription="point" transform="translate(210.20611111111114,10)" d="M2.7386127875258306,0A2.7386127875258306,2.7386127875258306,0,1,1,-2.7386127875258306,0A2.7386127875258306,2.7386127875258306,0,1,1,2.7386127875258306,0" stroke="#4c78a8" stroke-width="2" opacity="0.7"></path><path aria-label="Weighted percentage w/ COVID-like illness: 2.83415; States: Sergipe" role="graphics-symbol" aria-roledescription="point" transform="translate(187.99472222222218,490)" d="M2.7386127875258306,0A2.7386127875258306,2.7386127875258306,0,1,1,-2.7386127875258306,0A2.7386127875258306,2.7386127875258306,0,1,1,2.7386127875258306,0" stroke="#4c78a8" stroke-width="2" opacity="0.7"></path><path aria-label="Weighted percentage w/ COVID-like illness: 2.581; States: Rio Grande do Norte" role="graphics-symbol" aria-roledescription="point" transform="translate(178.14999999999998,370)" d="M2.7386127875258306,0A2.7386127875258306,2.7386127875258306,0,1,1,-2.7386127875258306,0A2.7386127875258306,2.7386127875258306,0,1,1,2.7386127875258306,0" stroke="#4c78a8" stroke-width="2" opacity="0.7"></path><path aria-label="Weighted percentage w/ COVID-like illness: 2.44565; States: Mato Grosso do Sul" role="graphics-symbol" aria-roledescription="point" transform="translate(172.88638888888892,230)" d="M2.7386127875258306,0A2.7386127875258306,2.7386127875258306,0,1,1,-2.7386127875258306,0A2.7386127875258306,2.7386127875258306,0,1,1,2.7386127875258306,0" stroke="#4c78a8" stroke-width="2" opacity="0.7"></path><path aria-label="Weighted percentage w/ COVID-like illness: 2.33285; States: Espírito Santo" role="graphics-symbol" aria-roledescription="point" transform="translate(168.4997222222222,150)" d="M2.7386127875258306,0A2.7386127875258306,2.7386127875258306,0,1,1,-2.7386127875258306,0A2.7386127875258306,2.7386127875258306,0,1,1,2.7386127875258306,0" stroke="#4c78a8" stroke-width="2" opacity="0.7"></path><path aria-label="Weighted percentage w/ COVID-like illness: 2.163; States: Paraná" role="graphics-symbol" aria-roledescription="point" transform="translate(161.89444444444447,270)" d="M2.7386127875258306,0A2.7386127875258306,2.7386127875258306,0,1,1,-2.7386127875258306,0A2.7386127875258306,2.7386127875258306,0,1,1,2.7386127875258306,0" stroke="#4c78a8" stroke-width="2" opacity="0.7"></path><path aria-label="Weighted percentage w/ COVID-like illness: 1.9944; States: Distrito Federal" role="graphics-symbol" aria-roledescription="point" transform="translate(155.33777777777777,130)" d="M2.7386127875258306,0A2.7386127875258306,2.7386127875258306,0,1,1,-2.7386127875258306,0A2.7386127875258306,2.7386127875258306,0,1,1,2.7386127875258306,0" stroke="#4c78a8" stroke-width="2" opacity="0.7"></path><path aria-label="Weighted percentage w/ COVID-like illness: 1.5529; States: Paraíba" role="graphics-symbol" aria-roledescription="point" transform="translate(138.16833333333335,290)" d="M2.7386127875258306,0A2.7386127875258306,2.7386127875258306,0,1,1,-2.7386127875258306,0A2.7386127875258306,2.7386127875258306,0,1,1,2.7386127875258306,0" stroke="#4c78a8" stroke-width="2" opacity="0.7"></path><path aria-label="Weighted percentage w/ COVID-like illness: 1.5088; States: Minas Gerais" role="graphics-symbol" aria-roledescription="point" transform="translate(136.45333333333332,250)" d="M2.7386127875258306,0A2.7386127875258306,2.7386127875258306,0,1,1,-2.7386127875258306,0A2.7386127875258306,2.7386127875258306,0,1,1,2.7386127875258306,0" stroke="#4c78a8" stroke-width="2" opacity="0.7"></path><path aria-label="Weighted percentage w/ COVID-like illness: 1.3499; States: Alagoas" role="graphics-symbol" aria-roledescription="point" transform="translate(130.27388888888888,30)" d="M2.7386127875258306,0A2.7386127875258306,2.7386127875258306,0,1,1,-2.7386127875258306,0A2.7386127875258306,2.7386127875258306,0,1,1,2.7386127875258306,0" stroke="#4c78a8" stroke-width="2" opacity="0.7"></path><path aria-label="Weighted percentage w/ COVID-like illness: 1.3082; States: Santa Catarina" role="graphics-symbol" aria-roledescription="point" transform="translate(128.65222222222224,470)" d="M2.7386127875258306,0A2.7386127875258306,2.7386127875258306,0,1,1,-2.7386127875258306,0A2.7386127875258306,2.7386127875258306,0,1,1,2.7386127875258306,0" stroke="#4c78a8" stroke-width="2" opacity="0.7"></path><path aria-label="Weighted percentage w/ COVID-like illness: 1.1285; States: São Paulo" role="graphics-symbol" aria-roledescription="point" transform="translate(121.66388888888888,510)" d="M2.7386127875258306,0A2.7386127875258306,2.7386127875258306,0,1,1,-2.7386127875258306,0A2.7386127875258306,2.7386127875258306,0,1,1,2.7386127875258306,0" stroke="#4c78a8" stroke-width="2" opacity="0.7"></path><path aria-label="Weighted percentage w/ COVID-like illness: 0.9362; States: Rio de Janeiro" role="graphics-symbol" aria-roledescription="point" transform="translate(114.18555555555555,410)" d="M2.7386127875258306,0A2.7386127875258306,2.7386127875258306,0,1,1,-2.7386127875258306,0A2.7386127875258306,2.7386127875258306,0,1,1,2.7386127875258306,0" stroke="#4c78a8" stroke-width="2" opacity="0.7"></path><path aria-label="Weighted percentage w/ COVID-like illness: 0.7671; States: Mato Grosso" role="graphics-symbol" aria-roledescription="point" transform="translate(107.60944444444446,210)" d="M2.7386127875258306,0A2.7386127875258306,2.7386127875258306,0,1,1,-2.7386127875258306,0A2.7386127875258306,2.7386127875258306,0,1,1,2.7386127875258306,0" stroke="#4c78a8" stroke-width="2" opacity="0.7"></path><path aria-label="Weighted percentage w/ COVID-like illness: 0.1915; States: Rio Grande do Sul" role="graphics-symbol" aria-roledescription="point" transform="translate(85.225,390)" d="M2.7386127875258306,0A2.7386127875258306,2.7386127875258306,0,1,1,-2.7386127875258306,0A2.7386127875258306,2.7386127875258306,0,1,1,2.7386127875258306,0" stroke="#4c78a8" stroke-width="2" opacity="0.7"></path></g><g class="mark-rule role-mark layer_1_marks" role="graphics-object" aria-roledescription="rule mark container"><line aria-label="CI 0.95: 2.43104; upper_percent_cli_lower: 15.49836; region: Roraima; percent_cli_upper: 15.49836; percent_cli_lower: 2.43104" role="graphics-symbol" aria-roledescription="errorbar" transform="translate(172.3182222222223,450)" x2="508.1735555555555" y2="0" stroke="blue" stroke-width="0.6"></line><line aria-label="CI 0.95: 1.181118; upper_percent_cli_lower: 11.825682; region: Tocantins; percent_cli_upper: 11.825682; percent_cli_lower: 1.181118" role="graphics-symbol" aria-roledescription="errorbar" transform="translate(123.7101444444444,530)" x2="413.9552666666667" y2="0" stroke="blue" stroke-width="0.6"></line><line aria-label="CI 0.95: 2.442992; upper_percent_cli_lower: 9.767708; region: Maranhão; percent_cli_upper: 9.767708; percent_cli_lower: 2.442992" role="graphics-symbol" aria-roledescription="errorbar" transform="translate(172.7830222222222,190)" x2="284.8500666666667" y2="0" stroke="blue" stroke-width="0.6"></line><line aria-label="CI 0.95: 1.492868; upper_percent_cli_lower: 9.613932; region: Rondônia; percent_cli_upper: 9.613932; percent_cli_lower: 1.492868" role="graphics-symbol" aria-roledescription="errorbar" transform="translate(135.83375555555557,430)" x2="315.81915555555554" y2="0" stroke="blue" stroke-width="0.6"></line><line aria-label="CI 0.95: 1.883764; upper_percent_cli_lower: 8.147336; region: Amazonas; percent_cli_upper: 8.147336; percent_cli_lower: 1.883764" role="graphics-symbol" aria-roledescription="errorbar" transform="translate(151.03526666666667,70)" x2="243.58335555555553" y2="0" stroke="blue" stroke-width="0.6"></line><line aria-label="CI 0.95: -0.185512; upper_percent_cli_lower: 8.956712; region: Amapá; percent_cli_upper: 8.956712; percent_cli_lower: -0.185512" role="graphics-symbol" aria-roledescription="errorbar" transform="translate(70.56342222222224,50)" x2="355.5309333333333" y2="0" stroke="blue" stroke-width="0.6"></line><line aria-label="CI 0.95: 1.877032; upper_percent_cli_lower: 6.878168; region: Pernambuco; percent_cli_upper: 6.878168; percent_cli_lower: 1.877032" role="graphics-symbol" aria-roledescription="errorbar" transform="translate(150.77346666666668,330)" x2="194.48862222222218" y2="0" stroke="blue" stroke-width="0.6"></line><line aria-label="CI 0.95: 1.696434; upper_percent_cli_lower: 6.991766; region: Ceará; percent_cli_upper: 6.991766; percent_cli_lower: 1.696434" role="graphics-symbol" aria-roledescription="errorbar" transform="translate(143.75021111111113,110)" x2="205.9295777777777" y2="0" stroke="blue" stroke-width="0.6"></line><line aria-label="CI 0.95: 2.11701; upper_percent_cli_lower: 6.06739; region: Goiás; percent_cli_upper: 6.06739; percent_cli_lower: 2.11701" role="graphics-symbol" aria-roledescription="errorbar" transform="translate(160.10594444444448,170)" x2="153.62588888888885" y2="0" stroke="blue" stroke-width="0.6"></line><line aria-label="CI 0.95: 1.15628; upper_percent_cli_lower: 6.68642; region: Pará; percent_cli_upper: 6.68642; percent_cli_lower: 1.15628" role="graphics-symbol" aria-roledescription="errorbar" transform="translate(122.74422222222222,310)" x2="215.06099999999998" y2="0" stroke="blue" stroke-width="0.6"></line><line aria-label="CI 0.95: 1.611842; upper_percent_cli_lower: 5.790758; region: Bahia; percent_cli_upper: 5.790758; percent_cli_lower: 1.611842" role="graphics-symbol" aria-roledescription="errorbar" transform="translate(140.4605222222222,90)" x2="162.5134" y2="0" stroke="blue" stroke-width="0.6"></line><line aria-label="CI 0.95: 0.3921; upper_percent_cli_lower: 6.7915; region: Piauí; percent_cli_upper: 6.7915; percent_cli_lower: 0.3921" role="graphics-symbol" aria-roledescription="errorbar" transform="translate(93.02611111111112,350)" x2="248.86555555555555" y2="0" stroke="blue" stroke-width="0.6"></line><line aria-label="CI 0.95: -1.250092; upper_percent_cli_lower: 8.060692; region: Acre; percent_cli_upper: 8.060692; percent_cli_lower: -1.250092" role="graphics-symbol" aria-roledescription="errorbar" transform="translate(29.16308888888889,10)" x2="362.08604444444444" y2="0" stroke="blue" stroke-width="0.6"></line><line aria-label="CI 0.95: -0.370156; upper_percent_cli_lower: 6.038456; region: Sergipe; percent_cli_upper: 6.038456; percent_cli_lower: -0.370156" role="graphics-symbol" aria-roledescription="errorbar" transform="translate(63.38282222222223,490)" x2="249.22380000000004" y2="0" stroke="blue" stroke-width="0.6"></line><line aria-label="CI 0.95: 0.51516; upper_percent_cli_lower: 4.64684; region: Rio Grande do Norte; percent_cli_upper: 4.64684; percent_cli_lower: 0.51516" role="graphics-symbol" aria-roledescription="errorbar" transform="translate(97.81177777777778,370)" x2="160.67644444444443" y2="0" stroke="blue" stroke-width="0.6"></line><line aria-label="CI 0.95: 0.54543; upper_percent_cli_lower: 4.34587; region: Mato Grosso do Sul; percent_cli_upper: 4.34587; percent_cli_lower: 0.54543" role="graphics-symbol" aria-roledescription="errorbar" transform="translate(98.98894444444443,230)" x2="147.79488888888892" y2="0" stroke="blue" stroke-width="0.6"></line><line aria-label="CI 0.95: 0.604326; upper_percent_cli_lower: 4.061374; region: Espírito Santo; percent_cli_upper: 4.061374; percent_cli_lower: 0.604326" role="graphics-symbol" aria-roledescription="errorbar" transform="translate(101.27934444444445,150)" x2="134.44075555555554" y2="0" stroke="blue" stroke-width="0.6"></line><line aria-label="CI 0.95: 0.770518; upper_percent_cli_lower: 3.555482; region: Paraná; percent_cli_upper: 3.555482; percent_cli_lower: 0.770518" role="graphics-symbol" aria-roledescription="errorbar" transform="translate(107.74236666666667,270)" x2="108.30415555555555" y2="0" stroke="blue" stroke-width="0.6"></line><line aria-label="CI 0.95: 0.565266; upper_percent_cli_lower: 3.423534; region: Distrito Federal; percent_cli_upper: 3.423534; percent_cli_lower: 0.565266" role="graphics-symbol" aria-roledescription="errorbar" transform="translate(99.76034444444446,130)" x2="111.15486666666666" y2="0" stroke="blue" stroke-width="0.6"></line><line aria-label="CI 0.95: -0.268332; upper_percent_cli_lower: 3.374132; region: Paraíba; percent_cli_upper: 3.374132; percent_cli_lower: -0.268332" role="graphics-symbol" aria-roledescription="errorbar" transform="translate(67.34264444444445,290)" x2="141.65137777777778" y2="0" stroke="blue" stroke-width="0.6"></line><line aria-label="CI 0.95: 0.377292; upper_percent_cli_lower: 2.640308; region: Minas Gerais; percent_cli_upper: 2.640308; percent_cli_lower: 0.377292" role="graphics-symbol" aria-roledescription="errorbar" transform="translate(92.45024444444445,250)" x2="88.0061777777778" y2="0" stroke="blue" stroke-width="0.6"></line><line aria-label="CI 0.95: -0.773466; upper_percent_cli_lower: 3.473266; region: Alagoas; percent_cli_upper: 3.473266; percent_cli_lower: -0.773466" role="graphics-symbol" aria-roledescription="errorbar" transform="translate(47.69854444444445,30)" x2="165.15068888888888" y2="0" stroke="blue" stroke-width="0.6"></line><line aria-label="CI 0.95: 0.190216; upper_percent_cli_lower: 2.426184; region: Santa Catarina; percent_cli_upper: 2.426184; percent_cli_lower: 0.190216" role="graphics-symbol" aria-roledescription="errorbar" transform="translate(85.17506666666667,470)" x2="86.95431111111112" y2="0" stroke="blue" stroke-width="0.6"></line><line aria-label="CI 0.95: 0.617528; upper_percent_cli_lower: 1.639472; region: São Paulo; percent_cli_upper: 1.639472; percent_cli_lower: 0.617528" role="graphics-symbol" aria-roledescription="errorbar" transform="translate(101.79275555555556,510)" x2="39.74226666666668" y2="0" stroke="blue" stroke-width="0.6"></line><line aria-label="CI 0.95: 0.079288; upper_percent_cli_lower: 1.793112; region: Rio de Janeiro; percent_cli_upper: 1.793112; percent_cli_lower: 0.079288" role="graphics-symbol" aria-roledescription="errorbar" transform="translate(80.86120000000001,410)" x2="66.64871111111113" y2="0" stroke="blue" stroke-width="0.6"></line><line aria-label="CI 0.95: -0.404784; upper_percent_cli_lower: 1.938984; region: Mato Grosso; percent_cli_upper: 1.938984; percent_cli_lower: -0.404784" role="graphics-symbol" aria-roledescription="errorbar" transform="translate(62.03617777777778,210)" x2="91.1465333333333" y2="0" stroke="blue" stroke-width="0.6"></line><line aria-label="CI 0.95: -0.183644; upper_percent_cli_lower: 0.566644; region: Rio Grande do Sul; percent_cli_upper: 0.566644; percent_cli_lower: -0.183644" role="graphics-symbol" aria-roledescription="errorbar" transform="translate(70.63606666666668,390)" x2="29.17786666666666" y2="0" stroke="blue" stroke-width="0.6"></line></g><g class="mark-group role-title"><g transform="translate(350,-17)"><path class="background" aria-hidden="true" d="M0,0h0v0h0Z" pointer-events="none"></path><g><g class="mark-text role-title-text" role="graphics-symbol" aria-roledescription="title" aria-label="Title text 'Facebook COVID-like illness symptom survey (last available date) for all states in Brazil'" pointer-events="none"><text text-anchor="middle" transform="translate(0,10)" font-family="sans-serif" font-size="13px" font-weight="bold" fill="#000" opacity="1">Facebook COVID-like illness symptom survey (last available date) for all states in Brazil</text></g></g><path class="foreground" aria-hidden="true" d="" pointer-events="none" display="none"></path></g></g></g><path class="foreground" aria-hidden="true" d="" display="none"></path></g></g></g></svg>