<svg class="marks" width="829" height="599" viewBox="0 0 829 599" version="1.1" xmlns="http://www.w3.org/2000/svg" xmlns:xlink="http://www.w3.org/1999/xlink"><rect width="829" height="599" fill="white"></rect><g fill="none" stroke-miterlimit="10" transform="translate(123,22)"><g class="mark-group role-frame root" role="graphics-object" aria-roledescription="group mark container"><g transform="translate(0,0)"><path class="background" aria-hidden="true" d="M0.5,0.5h700v540h-700Z"></path><g><g class="mark-group role-axis" aria-hidden="true"><g transform="translate(0.5,0.5)"><path class="background" aria-hidden="true" d="M0,0h0v0h0Z" pointer-events="none"></path><g><g class="mark-rule role-axis-grid" pointer-events="none"><line transform="translate(0,10)" x2="700" y2="0" stroke="#ddd" stroke-width="1" opacity="1"></line><line transform="translate(0,30)" x2="700" y2="0" stroke="#ddd" stroke-width="1" opacity="1"></line><line transform="translate(0,50)" x2="700" y2="0" stroke="#ddd" stroke-width="1" opacity="1"></line><line transform="translate(0,70)" x2="700" y2="0" stroke="#ddd" stroke-width="1" opacity="1"></line><line transform="translate(0,90)" x2="700" y2="0" stroke="#ddd" stroke-width="1" opacity="1"></line><line transform="translate(0,110)" x2="700" y2="0" stroke="#ddd" stroke-width="1" opacity="1"></line><line transform="translate(0,130)" x2="700" y2="0" stroke="#ddd" stroke-width="1" opacity="1"></line><line transform="translate(0,150)" x2="700" y2="0" stroke="#ddd" stroke-width="1" opacity="1"></line><line transform="translate(0,170)" x2="700" y2="0" stroke="#ddd" stroke-width="1" opacity="1"></line><line transform="translate(0,190)" x2="700" y2="0" stroke="#ddd" stroke-width="1" opacity="1"></line><line transform="translate(0,210)" x2="700" y2="0" stroke="#ddd" stroke-width="1" opacity="1"></line><line transform="translate(0,230)" x2="700" y2="0" stroke="#ddd" stroke-width="1" opacity="1"></line><line transform="translate(0,250)" x2="700" y2="0" stroke="#ddd" stroke-width="1" opacity="1"></line><line transform="translate(0,270)" x2="700" y2="0" stroke="#ddd" stroke-width="1" opacity="1"></line><line transform="translate(0,290)" x2="700" y2="0" stroke="#ddd" stroke-width="1" opacity="1"></line><line transform="translate(0,310)" x2="700" y2="0" stroke="#ddd" stroke-width="1" opacity="1"></line><line transform="translate(0,330)" x2="700" y2="0" stroke="#ddd" stroke-width="1" opacity="1"></line><line transform="translate(0,350)" x2="700" y2="0" stroke="#ddd" stroke-width="1" opacity="1"></line><line transform="translate(0,370)" x2="700" y2="0" stroke="#ddd" stroke-width="1" opacity="1"></line><line transform="translate(0,390)" x2="700" y2="0" stroke="#ddd" stroke-width="1" opacity="1"></line><line transform="translate(0,410)" x2="700" y2="0" stroke="#ddd" stroke-width="1" opacity="1"></line><line transform="translate(0,430)" x2="700" y2="0" stroke="#ddd" stroke-width="1" opacity="1"></line><line transform="translate(0,450)" x2="700" y2="0" stroke="#ddd" stroke-width="1" opacity="1"></line><line transform="translate(0,470)" x2="700" y2="0" stroke="#ddd" stroke-width="1" opacity="1"></line><line transform="translate(0,490)" x2="700" y2="0" stroke="#ddd" stroke-width="1" opacity="1"></line><line transform="translate(0,510)" x2="700" y2="0" stroke="#ddd" stroke-width="1" opacity="1"></line><line transform="translate(0,530)" x2="700" y2="0" stroke="#ddd" stroke-width="1" opacity="1"></line></g></g><path class="foreground" aria-hidden="true" d="" pointer-events="none" display="none"></path></g></g><g class="mark-group role-axis" role="graphics-symbol" aria-roledescription="axis" aria-label="X-axis titled 'Weighted percentage w/ COVID-like illness, CI 0.95' for a linear scale with values from -2 to 18"><g transform="translate(0.5,540.5)"><path class="background" aria-hidden="true" d="M0,0h0v0h0Z" pointer-events="none"></path><g><g class="mark-rule role-axis-tick" pointer-events="none"><line transform="translate(0,0)" x2="0" y2="5" stroke="#888" stroke-width="1" opacity="1"></line><line transform="translate(35,0)" x2="0" y2="5" stroke="#888" stroke-width="1" opacity="1"></line><line transform="translate(70,0)" x2="0" y2="5" stroke="#888" stroke-width="1" opacity="1"></line><line transform="translate(105,0)" x2="0" y2="5" stroke="#888" stroke-width="1" opacity="1"></line><line transform="translate(140,0)" x2="0" y2="5" stroke="#888" stroke-width="1" opacity="1"></line><line transform="translate(175,0)" x2="0" y2="5" stroke="#888" stroke-width="1" opacity="1"></line><line transform="translate(210,0)" x2="0" y2="5" stroke="#888" stroke-width="1" opacity="1"></line><line transform="translate(245,0)" x2="0" y2="5" stroke="#888" stroke-width="1" opacity="1"></line><line transform="translate(280,0)" x2="0" y2="5" stroke="#888" stroke-width="1" opacity="1"></line><line transform="translate(315,0)" x2="0" y2="5" stroke="#888" stroke-width="1" opacity="1"></line><line transform="translate(350,0)" x2="0" y2="5" stroke="#888" stroke-width="1" opacity="1"></line><line transform="translate(385,0)" x2="0" y2="5" stroke="#888" stroke-width="1" opacity="1"></line><line transform="translate(420,0)" x2="0" y2="5" stroke="#888" stroke-width="1" opacity="1"></line><line transform="translate(455,0)" x2="0" y2="5" stroke="#888" stroke-width="1" opacity="1"></line><line transform="translate(490,0)" x2="0" y2="5" stroke="#888" stroke-width="1" opacity="1"></line><line transform="translate(525,0)" x2="0" y2="5" stroke="#888" stroke-width="1" opacity="1"></line><line transform="translate(560,0)" x2="0" y2="5" stroke="#888" stroke-width="1" opacity="1"></line><line transform="translate(595,0)" x2="0" y2="5" stroke="#888" stroke-width="1" opacity="1"></line><line transform="translate(630,0)" x2="0" y2="5" stroke="#888" stroke-width="1" opacity="1"></line><line transform="translate(665,0)" x2="0" y2="5" stroke="#888" stroke-width="1" opacity="1"></line><line transform="translate(700,0)" x2="0" y2="5" stroke="#888" stroke-width="1" opacity="1"></line></g><g class="mark-text role-axis-label" pointer-events="none"><text text-anchor="start" transform="translate(0,15)" font-family="sans-serif" font-size="10px" fill="#000" opacity="1">-2</text><text text-anchor="middle" transform="translate(35,15)" font-family="sans-serif" font-size="10px" fill="#000" opacity="1">-1</text><text text-anchor="middle" transform="translate(70,15)" font-family="sans-serif" font-size="10px" fill="#000" opacity="1">0</text><text text-anchor="middle" transform="translate(105,15)" font-family="sans-serif" font-size="10px" fill="#000" opacity="1">1</text><text text-anchor="middle" transform="translate(140,15)" font-family="sans-serif" font-size="10px" fill="#000" opacity="1">2</text><text text-anchor="middle" transform="translate(175,15)" font-family="sans-serif" font-size="10px" fill="#000" opacity="1">3</text><text text-anchor="middle" transform="translate(210,15)" font-family="sans-serif" font-size="10px" fill="#000" opacity="1">4</text><text text-anchor="middle" transform="translate(244.99999999999997,15)" font-family="sans-serif" font-size="10px" fill="#000" opacity="1">5</text><text text-anchor="middle" transform="translate(280,15)" font-family="sans-serif" font-size="10px" fill="#000" opacity="1">6</text><text text-anchor="middle" transform="translate(315,15)" font-family="sans-serif" font-size="10px" fill="#000" opacity="1">7</text><text text-anchor="middle" transform="translate(350,15)" font-family="sans-serif" font-size="10px" fill="#000" opacity="1">8</text><text text-anchor="middle" transform="translate(385.00000000000006,15)" font-family="sans-serif" font-size="10px" fill="#000" opacity="1">9</text><text text-anchor="middle" transform="translate(420,15)" font-family="sans-serif" font-size="10px" fill="#000" opacity="1">10</text><text text-anchor="middle" transform="translate(455,15)" font-family="sans-serif" font-size="10px" fill="#000" opacity="1">11</text><text text-anchor="middle" transform="translate(489.99999999999994,15)" font-family="sans-serif" font-size="10px" fill="#000" opacity="1">12</text><text text-anchor="middle" transform="translate(525,15)" font-family="sans-serif" font-size="10px" fill="#000" opacity="1">13</text><text text-anchor="middle" transform="translate(560,15)" font-family="sans-serif" font-size="10px" fill="#000" opacity="1">14</text><text text-anchor="middle" transform="translate(595,15)" font-family="sans-serif" font-size="10px" fill="#000" opacity="1">15</text><text text-anchor="middle" transform="translate(630,15)" font-family="sans-serif" font-size="10px" fill="#000" opacity="1">16</text><text text-anchor="middle" transform="translate(665,15)" font-family="sans-serif" font-size="10px" fill="#000" opacity="1">17</text><text text-anchor="end" transform="translate(700,15)" font-family="sans-serif" font-size="10px" fill="#000" opacity="1">18</text></g><g class="mark-rule role-axis-domain" pointer-events="none"><line transform="translate(0,0)" x2="700" y2="0" stroke="#888" stroke-width="1" opacity="1"></line></g><g class="mark-text role-axis-title" pointer-events="none"><text text-anchor="middle" transform="translate(350,30)" font-family="sans-serif" font-size="11px" font-weight="bold" fill="#000" opacity="1">Weighted percentage w/ COVID-like illness, CI 0.95</text></g></g><path class="foreground" aria-hidden="true" d="" pointer-events="none" display="none"></path></g></g><g class="mark-group role-axis" role="graphics-symbol" aria-roledescription="axis" aria-label="Y-axis titled 'States' for a discrete scale with 27 values: Acre, Alagoas, Amapá, Amazonas, Bahia, ending with Tocantins"><g transform="translate(0.5,0.5)"><path class="background" aria-hidden="true" d="M0,0h0v0h0Z" pointer-events="none"></path><g><g class="mark-rule role-axis-tick" pointer-events="none"><line transform="translate(0,10)" x2="-5" y2="0" stroke="#888" stroke-width="1" opacity="1"></line><line transform="translate(0,30)" x2="-5" y2="0" stroke="#888" stroke-width="1" opacity="1"></line><line transform="translate(0,50)" x2="-5" y2="0" stroke="#888" stroke-width="1" opacity="1"></line><line transform="translate(0,70)" x2="-5" y2="0" stroke="#888" stroke-width="1" opacity="1"></line><line transform="translate(0,90)" x2="-5" y2="0" stroke="#888" stroke-width="1" opacity="1"></line><line transform="translate(0,110)" x2="-5" y2="0" stroke="#888" stroke-width="1" opacity="1"></line><line transform="translate(0,130)" x2="-5" y2="0" stroke="#888" stroke-width="1" opacity="1"></line><line transform="translate(0,150)" x2="-5" y2="0" stroke="#888" stroke-width="1" opacity="1"></line><line transform="translate(0,170)" x2="-5" y2="0" stroke="#888" stroke-width="1" opacity="1"></line><line transform="translate(0,190)" x2="-5" y2="0" stroke="#888" stroke-width="1" opacity="1"></line><line transform="translate(0,210)" x2="-5" y2="0" stroke="#888" stroke-width="1" opacity="1"></line><line transform="translate(0,230)" x2="-5" y2="0" stroke="#888" stroke-width="1" opacity="1"></line><line transform="translate(0,250)" x2="-5" y2="0" stroke="#888" stroke-width="1" opacity="1"></line><line transform="translate(0,270)" x2="-5" y2="0" stroke="#888" stroke-width="1" opacity="1"></line><line transform="translate(0,290)" x2="-5" y2="0" stroke="#888" stroke-width="1" opacity="1"></line><line transform="translate(0,310)" x2="-5" y2="0" stroke="#888" stroke-width="1" opacity="1"></line><line transform="translate(0,330)" x2="-5" y2="0" stroke="#888" stroke-width="1" opacity="1"></line><line transform="translate(0,350)" x2="-5" y2="0" stroke="#888" stroke-width="1" opacity="1"></line><line transform="translate(0,370)" x2="-5" y2="0" stroke="#888" stroke-width="1" opacity="1"></line><line transform="translate(0,390)" x2="-5" y2="0" stroke="#888" stroke-width="1" opacity="1"></line><line transform="translate(0,410)" x2="-5" y2="0" stroke="#888" stroke-width="1" opacity="1"></line><line transform="translate(0,430)" x2="-5" y2="0" stroke="#888" stroke-width="1" opacity="1"></line><line transform="translate(0,450)" x2="-5" y2="0" stroke="#888" stroke-width="1" opacity="1"></line><line transform="translate(0,470)" x2="-5" y2="0" stroke="#888" stroke-width="1" opacity="1"></line><line transform="translate(0,490)" x2="-5" y2="0" stroke="#888" stroke-width="1" opacity="1"></line><line transform="translate(0,510)" x2="-5" y2="0" stroke="#888" stroke-width="1" opacity="1"></line><line transform="translate(0,530)" x2="-5" y2="0" stroke="#888" stroke-width="1" opacity="1"></line></g><g class="mark-text role-axis-label" pointer-events="none"><text text-anchor="end" transform="translate(-7,12.5)" font-family="sans-serif" font-size="10px" fill="#000" opacity="1">Acre</text><text text-anchor="end" transform="translate(-7,32.5)" font-family="sans-serif" font-size="10px" fill="#000" opacity="1">Alagoas</text><text text-anchor="end" transform="translate(-7,52.5)" font-family="sans-serif" font-size="10px" fill="#000" opacity="1">Amapá</text><text text-anchor="end" transform="translate(-7,72.5)" font-family="sans-serif" font-size="10px" fill="#000" opacity="1">Amazonas</text><text text-anchor="end" transform="translate(-7,92.5)" font-family="sans-serif" font-size="10px" fill="#000" opacity="1">Bahia</text><text text-anchor="end" transform="translate(-7,112.5)" font-family="sans-serif" font-size="10px" fill="#000" opacity="1">Ceará</text><text text-anchor="end" transform="translate(-7,132.5)" font-family="sans-serif" font-size="10px" fill="#000" opacity="1">Distrito Federal</text><text text-anchor="end" transform="translate(-7,152.5)" font-family="sans-serif" font-size="10px" fill="#000" opacity="1">Espírito Santo</text><text text-anchor="end" transform="translate(-7,172.5)" font-family="sans-serif" font-size="10px" fill="#000" opacity="1">Goiás</text><text text-anchor="end" transform="translate(-7,192.5)" font-family="sans-serif" font-size="10px" fill="#000" opacity="1">Maranhão</text><text text-anchor="end" transform="translate(-7,212.5)" font-family="sans-serif" font-size="10px" fill="#000" opacity="1">Mato Grosso</text><text text-anchor="end" transform="translate(-7,232.5)" font-family="sans-serif" font-size="10px" fill="#000" opacity="1">Mato Grosso do Sul</text><text text-anchor="end" transform="translate(-7,252.5)" font-family="sans-serif" font-size="10px" fill="#000" opacity="1">Minas Gerais</text><text text-anchor="end" transform="translate(-7,272.5)" font-family="sans-serif" font-size="10px" fill="#000" opacity="1">Paraná</text><text text-anchor="end" transform="translate(-7,292.5)" font-family="sans-serif" font-size="10px" fill="#000" opacity="1">Paraíba</text><text text-anchor="end" transform="translate(-7,312.5)" font-family="sans-serif" font-size="10px" fill="#000" opacity="1">Pará</text><text text-anchor="end" transform="translate(-7,332.5)" font-family="sans-serif" font-size="10px" fill="#000" opacity="1">Pernambuco</text><text text-anchor="end" transform="translate(-7,352.5)" font-family="sans-serif" font-size="10px" fill="#000" opacity="1">Piauí</text><text text-anchor="end" transform="translate(-7,372.5)" font-family="sans-serif" font-size="10px" fill="#000" opacity="1">Rio Grande do Norte</text><text text-anchor="end" transform="translate(-7,392.5)" font-family="sans-serif" font-size="10px" fill="#000" opacity="1">Rio Grande do Sul</text><text text-anchor="end" transform="translate(-7,412.5)" font-family="sans-serif" font-size="10px" fill="#000" opacity="1">Rio de Janeiro</text><text text-anchor="end" transform="translate(-7,432.5)" font-family="sans-serif" font-size="10px" fill="#000" opacity="1">Rondônia</text><text text-anchor="end" transform="translate(-7,452.5)" font-family="sans-serif" font-size="10px" fill="#000" opacity="1">Roraima</text><text text-anchor="end" transform="translate(-7,472.5)" font-family="sans-serif" font-size="10px" fill="#000" opacity="1">Santa Catarina</text><text text-anchor="end" transform="translate(-7,492.5)" font-family="sans-serif" font-size="10px" fill="#000" opacity="1">Sergipe</text><text text-anchor="end" transform="translate(-7,512.5)" font-family="sans-serif" font-size="10px" fill="#000" opacity="1">São Paulo</text><text text-anchor="end" transform="translate(-7,532.5)" font-family="sans-serif" font-size="10px" fill="#000" opacity="1">Tocantins</text></g><g class="mark-rule role-axis-domain" pointer-events="none"><line transform="translate(0,0)" x2="0" y2="540" stroke="#888" stroke-width="1" opacity="1"></line></g><g class="mark-text role-axis-title" pointer-events="none"><text text-anchor="middle" transform="translate(-107,270) rotate(-90) translate(0,-2)" font-family="sans-serif" font-size="11px" font-weight="bold" fill="#000" opacity="1">States</text></g></g><path class="foreground" aria-hidden="true" d="" pointer-events="none" display="none"></path></g></g><g class="mark-symbol role-mark layer_0_marks" role="graphics-object" aria-roledescription="symbol mark container"><path aria-label="Weighted percentage w/ COVID-like illness: 10.1762; States: Roraima" role="graphics-symbol" aria-roledescription="point" transform="translate(426.167,450)" d="M2.7386127875258306,0A2.7386127875258306,2.7386127875258306,0,1,1,-2.7386127875258306,0A2.7386127875258306,2.7386127875258306,0,1,1,2.7386127875258306,0" stroke="#4c78a8" stroke-width="2" opacity="0.7"></path><path aria-label="Weighted percentage w/ COVID-like illness: 9.3573; States: Amapá" role="graphics-symbol" aria-roledescription="point" transform="translate(397.50550000000004,50)" d="M2.7386127875258306,0A2.7386127875258306,2.7386127875258306,0,1,1,-2.7386127875258306,0A2.7386127875258306,2.7386127875258306,0,1,1,2.7386127875258306,0" stroke="#4c78a8" stroke-width="2" opacity="0.7"></path><path aria-label="Weighted percentage w/ COVID-like illness: 6.964; States: Maranhão" role="graphics-symbol" aria-roledescription="point" transform="translate(313.73999999999995,190)" d="M2.7386127875258306,0A2.7386127875258306,2.7386127875258306,0,1,1,-2.7386127875258306,0A2.7386127875258306,2.7386127875258306,0,1,1,2.7386127875258306,0" stroke="#4c78a8" stroke-width="2" opacity="0.7"></path><path aria-label="Weighted percentage w/ COVID-like illness: 4.9592; States: Sergipe" role="graphics-symbol" aria-roledescription="point" transform="translate(243.572,490)" d="M2.7386127875258306,0A2.7386127875258306,2.7386127875258306,0,1,1,-2.7386127875258306,0A2.7386127875258306,2.7386127875258306,0,1,1,2.7386127875258306,0" stroke="#4c78a8" stroke-width="2" opacity="0.7"></path><path aria-label="Weighted percentage w/ COVID-like illness: 4.7681; States: Alagoas" role="graphics-symbol" aria-roledescription="point" transform="translate(236.8835,30)" d="M2.7386127875258306,0A2.7386127875258306,2.7386127875258306,0,1,1,-2.7386127875258306,0A2.7386127875258306,2.7386127875258306,0,1,1,2.7386127875258306,0" stroke="#4c78a8" stroke-width="2" opacity="0.7"></path><path aria-label="Weighted percentage w/ COVID-like illness: 4.5348; States: Pará" role="graphics-symbol" aria-roledescription="point" transform="translate(228.718,310)" d="M2.7386127875258306,0A2.7386127875258306,2.7386127875258306,0,1,1,-2.7386127875258306,0A2.7386127875258306,2.7386127875258306,0,1,1,2.7386127875258306,0" stroke="#4c78a8" stroke-width="2" opacity="0.7"></path><path aria-label="Weighted percentage w/ COVID-like illness: 3.9549; States: Ceará" role="graphics-symbol" aria-roledescription="point" transform="translate(208.42150000000004,110)" d="M2.7386127875258306,0A2.7386127875258306,2.7386127875258306,0,1,1,-2.7386127875258306,0A2.7386127875258306,2.7386127875258306,0,1,1,2.7386127875258306,0" stroke="#4c78a8" stroke-width="2" opacity="0.7"></path><path aria-label="Weighted percentage w/ COVID-like illness: 3.4617; States: Amazonas" role="graphics-symbol" aria-roledescription="point" transform="translate(191.1595,70)" d="M2.7386127875258306,0A2.7386127875258306,2.7386127875258306,0,1,1,-2.7386127875258306,0A2.7386127875258306,2.7386127875258306,0,1,1,2.7386127875258306,0" stroke="#4c78a8" stroke-width="2" opacity="0.7"></path><path aria-label="Weighted percentage w/ COVID-like illness: 3.3344; States: Rio Grande do Norte" role="graphics-symbol" aria-roledescription="point" transform="translate(186.704,370)" d="M2.7386127875258306,0A2.7386127875258306,2.7386127875258306,0,1,1,-2.7386127875258306,0A2.7386127875258306,2.7386127875258306,0,1,1,2.7386127875258306,0" stroke="#4c78a8" stroke-width="2" opacity="0.7"></path><path aria-label="Weighted percentage w/ COVID-like illness: 3.2453; States: Rondônia" role="graphics-symbol" aria-roledescription="point" transform="translate(183.58550000000002,430)" d="M2.7386127875258306,0A2.7386127875258306,2.7386127875258306,0,1,1,-2.7386127875258306,0A2.7386127875258306,2.7386127875258306,0,1,1,2.7386127875258306,0" stroke="#4c78a8" stroke-width="2" opacity="0.7"></path><path aria-label="Weighted percentage w/ COVID-like illness: 3.0104; States: Pernambuco" role="graphics-symbol" aria-roledescription="point" transform="translate(175.36399999999998,330)" d="M2.7386127875258306,0A2.7386127875258306,2.7386127875258306,0,1,1,-2.7386127875258306,0A2.7386127875258306,2.7386127875258306,0,1,1,2.7386127875258306,0" stroke="#4c78a8" stroke-width="2" opacity="0.7"></path><path aria-label="Weighted percentage w/ COVID-like illness: 2.3456; States: Bahia" role="graphics-symbol" aria-roledescription="point" transform="translate(152.096,90)" d="M2.7386127875258306,0A2.7386127875258306,2.7386127875258306,0,1,1,-2.7386127875258306,0A2.7386127875258306,2.7386127875258306,0,1,1,2.7386127875258306,0" stroke="#4c78a8" stroke-width="2" opacity="0.7"></path><path aria-label="Weighted percentage w/ COVID-like illness: 2.2592; States: Paraíba" role="graphics-symbol" aria-roledescription="point" transform="translate(149.07199999999997,290)" d="M2.7386127875258306,0A2.7386127875258306,2.7386127875258306,0,1,1,-2.7386127875258306,0A2.7386127875258306,2.7386127875258306,0,1,1,2.7386127875258306,0" stroke="#4c78a8" stroke-width="2" opacity="0.7"></path><path aria-label="Weighted percentage w/ COVID-like illness: 2.2247; States: Piauí" role="graphics-symbol" aria-roledescription="point" transform="translate(147.8645,350)" d="M2.7386127875258306,0A2.7386127875258306,2.7386127875258306,0,1,1,-2.7386127875258306,0A2.7386127875258306,2.7386127875258306,0,1,1,2.7386127875258306,0" stroke="#4c78a8" stroke-width="2" opacity="0.7"></path><path aria-label="Weighted percentage w/ COVID-like illness: 1.934; States: Espírito Santo" role="graphics-symbol" aria-roledescription="point" transform="translate(137.69,150)" d="M2.7386127875258306,0A2.7386127875258306,2.7386127875258306,0,1,1,-2.7386127875258306,0A2.7386127875258306,2.7386127875258306,0,1,1,2.7386127875258306,0" stroke="#4c78a8" stroke-width="2" opacity="0.7"></path><path aria-label="Weighted percentage w/ COVID-like illness: 1.9246; States: Mato Grosso" role="graphics-symbol" aria-roledescription="point" transform="translate(137.361,210)" d="M2.7386127875258306,0A2.7386127875258306,2.7386127875258306,0,1,1,-2.7386127875258306,0A2.7386127875258306,2.7386127875258306,0,1,1,2.7386127875258306,0" stroke="#4c78a8" stroke-width="2" opacity="0.7"></path><path aria-label="Weighted percentage w/ COVID-like illness: 1.7655; States: Goiás" role="graphics-symbol" aria-roledescription="point" transform="translate(131.79250000000002,170)" d="M2.7386127875258306,0A2.7386127875258306,2.7386127875258306,0,1,1,-2.7386127875258306,0A2.7386127875258306,2.7386127875258306,0,1,1,2.7386127875258306,0" stroke="#4c78a8" stroke-width="2" opacity="0.7"></path><path aria-label="Weighted percentage w/ COVID-like illness: 1.6384; States: Distrito Federal" role="graphics-symbol" aria-roledescription="point" transform="translate(127.344,130)" d="M2.7386127875258306,0A2.7386127875258306,2.7386127875258306,0,1,1,-2.7386127875258306,0A2.7386127875258306,2.7386127875258306,0,1,1,2.7386127875258306,0" stroke="#4c78a8" stroke-width="2" opacity="0.7"></path><path aria-label="Weighted percentage w/ COVID-like illness: 1.4511; States: Rio de Janeiro" role="graphics-symbol" aria-roledescription="point" transform="translate(120.78850000000001,410)" d="M2.7386127875258306,0A2.7386127875258306,2.7386127875258306,0,1,1,-2.7386127875258306,0A2.7386127875258306,2.7386127875258306,0,1,1,2.7386127875258306,0" stroke="#4c78a8" stroke-width="2" opacity="0.7"></path><path aria-label="Weighted percentage w/ COVID-like illness: 1.2939; States: Acre" role="graphics-symbol" aria-roledescription="point" transform="translate(115.28649999999999,10)" d="M2.7386127875258306,0A2.7386127875258306,2.7386127875258306,0,1,1,-2.7386127875258306,0A2.7386127875258306,2.7386127875258306,0,1,1,2.7386127875258306,0" stroke="#4c78a8" stroke-width="2" opacity="0.7"></path><path aria-label="Weighted percentage w/ COVID-like illness: 1.2166; States: Tocantins" role="graphics-symbol" aria-roledescription="point" transform="translate(112.58099999999997,530)" d="M2.7386127875258306,0A2.7386127875258306,2.7386127875258306,0,1,1,-2.7386127875258306,0A2.7386127875258306,2.7386127875258306,0,1,1,2.7386127875258306,0" stroke="#4c78a8" stroke-width="2" opacity="0.7"></path><path aria-label="Weighted percentage w/ COVID-like illness: 1.07; States: São Paulo" role="graphics-symbol" aria-roledescription="point" transform="translate(107.45,510)" d="M2.7386127875258306,0A2.7386127875258306,2.7386127875258306,0,1,1,-2.7386127875258306,0A2.7386127875258306,2.7386127875258306,0,1,1,2.7386127875258306,0" stroke="#4c78a8" stroke-width="2" opacity="0.7"></path><path aria-label="Weighted percentage w/ COVID-like illness: 1.0116; States: Mato Grosso do Sul" role="graphics-symbol" aria-roledescription="point" transform="translate(105.40599999999999,230)" d="M2.7386127875258306,0A2.7386127875258306,2.7386127875258306,0,1,1,-2.7386127875258306,0A2.7386127875258306,2.7386127875258306,0,1,1,2.7386127875258306,0" stroke="#4c78a8" stroke-width="2" opacity="0.7"></path><path aria-label="Weighted percentage w/ COVID-like illness: 0.9767; States: Rio Grande do Sul" role="graphics-symbol" aria-roledescription="point" transform="translate(104.1845,390)" d="M2.7386127875258306,0A2.7386127875258306,2.7386127875258306,0,1,1,-2.7386127875258306,0A2.7386127875258306,2.7386127875258306,0,1,1,2.7386127875258306,0" stroke="#4c78a8" stroke-width="2" opacity="0.7"></path><path aria-label="Weighted percentage w/ COVID-like illness: 0.7501; States: Minas Gerais" role="graphics-symbol" aria-roledescription="point" transform="translate(96.25349999999999,250)" d="M2.7386127875258306,0A2.7386127875258306,2.7386127875258306,0,1,1,-2.7386127875258306,0A2.7386127875258306,2.7386127875258306,0,1,1,2.7386127875258306,0" stroke="#4c78a8" stroke-width="2" opacity="0.7"></path><path aria-label="Weighted percentage w/ COVID-like illness: 0.6685; States: Santa Catarina" role="graphics-symbol" aria-roledescription="point" transform="translate(93.3975,470)" d="M2.7386127875258306,0A2.7386127875258306,2.7386127875258306,0,1,1,-2.7386127875258306,0A2.7386127875258306,2.7386127875258306,0,1,1,2.7386127875258306,0" stroke="#4c78a8" stroke-width="2" opacity="0.7"></path><path aria-label="Weighted percentage w/ COVID-like illness: 0.1623; States: Paraná" role="graphics-symbol" aria-roledescription="point" transform="translate(75.6805,270)" d="M2.7386127875258306,0A2.7386127875258306,2.7386127875258306,0,1,1,-2.7386127875258306,0A2.7386127875258306,2.7386127875258306,0,1,1,2.7386127875258306,0" stroke="#4c78a8" stroke-width="2" opacity="0.7"></path></g><g class="mark-rule role-mark layer_1_marks" role="graphics-object" aria-roledescription="rule mark container"><line aria-label="CI 0.95: 2.973788; upper_percent_cli_lower: 17.378612; region: Roraima; percent_cli_upper: 17.378612; percent_cli_lower: 2.973788" role="graphics-symbol" aria-roledescription="errorbar" transform="translate(174.08258000000004,450)" x2="504.16883999999993" y2="0" stroke="blue" stroke-width="0.6"></line><line aria-label="CI 0.95: 1.651364; upper_percent_cli_lower: 17.063236; region: Amapá; percent_cli_upper: 17.063236; percent_cli_lower: 1.651364" role="graphics-symbol" aria-roledescription="errorbar" transform="translate(127.79774000000003,50)" x2="539.41552" y2="0" stroke="blue" stroke-width="0.6"></line><line aria-label="CI 0.95: 4.159632; upper_percent_cli_lower: 9.768368; region: Maranhão; percent_cli_upper: 9.768368; percent_cli_lower: 4.159632" role="graphics-symbol" aria-roledescription="errorbar" transform="translate(215.58711999999997,190)" x2="196.30575999999996" y2="0" stroke="blue" stroke-width="0.6"></line><line aria-label="CI 0.95: 1.308896; upper_percent_cli_lower: 8.609504; region: Sergipe; percent_cli_upper: 8.609504; percent_cli_lower: 1.308896" role="graphics-symbol" aria-roledescription="errorbar" transform="translate(115.81136000000001,490)" x2="255.52127999999996" y2="0" stroke="blue" stroke-width="0.6"></line><line aria-label="CI 0.95: 1.979804; upper_percent_cli_lower: 7.556396; region: Alagoas; percent_cli_upper: 7.556396; percent_cli_lower: 1.979804" role="graphics-symbol" aria-roledescription="errorbar" transform="translate(139.29314,30)" x2="195.18071999999995" y2="0" stroke="blue" stroke-width="0.6"></line><line aria-label="CI 0.95: 2.08578; upper_percent_cli_lower: 6.98382; region: Pará; percent_cli_upper: 6.98382; percent_cli_lower: 2.08578" role="graphics-symbol" aria-roledescription="errorbar" transform="translate(143.0023,310)" x2="171.43139999999994" y2="0" stroke="blue" stroke-width="0.6"></line><line aria-label="CI 0.95: 1.853192; upper_percent_cli_lower: 6.056608; region: Ceará; percent_cli_upper: 6.056608; percent_cli_lower: 1.853192" role="graphics-symbol" aria-roledescription="errorbar" transform="translate(134.86172,110)" x2="147.11956000000004" y2="0" stroke="blue" stroke-width="0.6"></line><line aria-label="CI 0.95: 1.057564; upper_percent_cli_lower: 5.865836; region: Amazonas; percent_cli_upper: 5.865836; percent_cli_lower: 1.057564" role="graphics-symbol" aria-roledescription="errorbar" transform="translate(107.01474000000002,70)" x2="168.28951999999998" y2="0" stroke="blue" stroke-width="0.6"></line><line aria-label="CI 0.95: 1.576084; upper_percent_cli_lower: 5.092716; region: Rio Grande do Norte; percent_cli_upper: 5.092716; percent_cli_lower: 1.576084" role="graphics-symbol" aria-roledescription="errorbar" transform="translate(125.16293999999999,370)" x2="123.08212" y2="0" stroke="blue" stroke-width="0.6"></line><line aria-label="CI 0.95: 0.998552; upper_percent_cli_lower: 5.492048; region: Rondônia; percent_cli_upper: 5.492048; percent_cli_lower: 0.998552" role="graphics-symbol" aria-roledescription="errorbar" transform="translate(104.94932000000001,430)" x2="157.27236" y2="0" stroke="blue" stroke-width="0.6"></line><line aria-label="CI 0.95: 1.139188; upper_percent_cli_lower: 4.881612; region: Pernambuco; percent_cli_upper: 4.881612; percent_cli_lower: 1.139188" role="graphics-symbol" aria-roledescription="errorbar" transform="translate(109.87158,330)" x2="130.98483999999996" y2="0" stroke="blue" stroke-width="0.6"></line><line aria-label="CI 0.95: 0.721348; upper_percent_cli_lower: 3.969852; region: Bahia; percent_cli_upper: 3.969852; percent_cli_lower: 0.721348" role="graphics-symbol" aria-roledescription="errorbar" transform="translate(95.24718,90)" x2="113.69763999999999" y2="0" stroke="blue" stroke-width="0.6"></line><line aria-label="CI 0.95: 0.60888; upper_percent_cli_lower: 3.90952; region: Paraíba; percent_cli_upper: 3.90952; percent_cli_lower: 0.60888" role="graphics-symbol" aria-roledescription="errorbar" transform="translate(91.3108,290)" x2="115.52239999999998" y2="0" stroke="blue" stroke-width="0.6"></line><line aria-label="CI 0.95: 0.359956; upper_percent_cli_lower: 4.089444; region: Piauí; percent_cli_upper: 4.089444; percent_cli_lower: 0.359956" role="graphics-symbol" aria-roledescription="errorbar" transform="translate(82.59846,350)" x2="130.53207999999995" y2="0" stroke="blue" stroke-width="0.6"></line><line aria-label="CI 0.95: 0.684892; upper_percent_cli_lower: 3.183108; region: Espírito Santo; percent_cli_upper: 3.183108; percent_cli_lower: 0.684892" role="graphics-symbol" aria-roledescription="errorbar" transform="translate(93.97121999999999,150)" x2="87.43755999999999" y2="0" stroke="blue" stroke-width="0.6"></line><line aria-label="CI 0.95: 0.417948; upper_percent_cli_lower: 3.431252; region: Mato Grosso; percent_cli_upper: 3.431252; percent_cli_lower: 0.417948" role="graphics-symbol" aria-roledescription="errorbar" transform="translate(84.62818,210)" x2="105.46564" y2="0" stroke="blue" stroke-width="0.6"></line><line aria-label="CI 0.95: 0.602828; upper_percent_cli_lower: 2.928172; region: Goiás; percent_cli_upper: 2.928172; percent_cli_lower: 0.602828" role="graphics-symbol" aria-roledescription="errorbar" transform="translate(91.09898000000001,170)" x2="81.38703999999998" y2="0" stroke="blue" stroke-width="0.6"></line><line aria-label="CI 0.95: 0.655656; upper_percent_cli_lower: 2.621144; region: Distrito Federal; percent_cli_upper: 2.621144; percent_cli_lower: 0.655656" role="graphics-symbol" aria-roledescription="errorbar" transform="translate(92.94796000000001,130)" x2="68.79207999999996" y2="0" stroke="blue" stroke-width="0.6"></line><line aria-label="CI 0.95: 0.47502; upper_percent_cli_lower: 2.42718; region: Rio de Janeiro; percent_cli_upper: 2.42718; percent_cli_lower: 0.47502" role="graphics-symbol" aria-roledescription="errorbar" transform="translate(86.6257,410)" x2="68.32560000000001" y2="0" stroke="blue" stroke-width="0.6"></line><line aria-label="CI 0.95: -1.208236; upper_percent_cli_lower: 3.796036; region: Acre; percent_cli_upper: 3.796036; percent_cli_lower: -1.208236" role="graphics-symbol" aria-roledescription="errorbar" transform="translate(27.711740000000002,10)" x2="175.14952" y2="0" stroke="blue" stroke-width="0.6"></line><line aria-label="CI 0.95: -0.771624; upper_percent_cli_lower: 3.204824; region: Tocantins; percent_cli_upper: 3.204824; percent_cli_lower: -0.771624" role="graphics-symbol" aria-roledescription="errorbar" transform="translate(42.99316,530)" x2="139.17568" y2="0" stroke="blue" stroke-width="0.6"></line><line aria-label="CI 0.95: 0.608224; upper_percent_cli_lower: 1.531776; region: São Paulo; percent_cli_upper: 1.531776; percent_cli_lower: 0.608224" role="graphics-symbol" aria-roledescription="errorbar" transform="translate(91.28784,510)" x2="32.324319999999986" y2="0" stroke="blue" stroke-width="0.6"></line><line aria-label="CI 0.95: 0.043752; upper_percent_cli_lower: 1.979448; region: Mato Grosso do Sul; percent_cli_upper: 1.979448; percent_cli_lower: 0.043752" role="graphics-symbol" aria-roledescription="errorbar" transform="translate(71.53132000000001,230)" x2="67.74935999999998" y2="0" stroke="blue" stroke-width="0.6"></line><line aria-label="CI 0.95: 0.001208; upper_percent_cli_lower: 1.952192; region: Rio Grande do Sul; percent_cli_upper: 1.952192; percent_cli_lower: 0.001208" role="graphics-symbol" aria-roledescription="errorbar" transform="translate(70.04228,390)" x2="68.28443999999999" y2="0" stroke="blue" stroke-width="0.6"></line><line aria-label="CI 0.95: -0.005284; upper_percent_cli_lower: 1.505484; region: Minas Gerais; percent_cli_upper: 1.505484; percent_cli_lower: -0.005284" role="graphics-symbol" aria-roledescription="errorbar" transform="translate(69.81506,250)" x2="52.876879999999986" y2="0" stroke="blue" stroke-width="0.6"></line><line aria-label="CI 0.95: -0.18116; upper_percent_cli_lower: 1.51816; region: Santa Catarina; percent_cli_upper: 1.51816; percent_cli_lower: -0.18116" role="graphics-symbol" aria-roledescription="errorbar" transform="translate(63.6594,470)" x2="59.47620000000001" y2="0" stroke="blue" stroke-width="0.6"></line><line aria-label="CI 0.95: -0.212452; upper_percent_cli_lower: 0.537052; region: Paraná; percent_cli_upper: 0.537052; percent_cli_lower: -0.212452" role="graphics-symbol" aria-roledescription="errorbar" transform="translate(62.56418,270)" x2="26.23264000000001" y2="0" stroke="blue" stroke-width="0.6"></line></g><g class="mark-group role-title"><g transform="translate(350,-17)"><path class="background" aria-hidden="true" d="M0,0h0v0h0Z" pointer-events="none"></path><g><g class="mark-text role-title-text" role="graphics-symbol" aria-roledescription="title" aria-label="Title text 'Facebook COVID-like illness symptom survey (last available date) for all states in Brazil'" pointer-events="none"><text text-anchor="middle" transform="translate(0,10)" font-family="sans-serif" font-size="13px" font-weight="bold" fill="#000" opacity="1">Facebook COVID-like illness symptom survey (last available date) for all states in Brazil</text></g></g><path class="foreground" aria-hidden="true" d="" pointer-events="none" display="none"></path></g></g></g><path class="foreground" aria-hidden="true" d="" display="none"></path></g></g></g></svg>