<svg class="marks" width="829" height="599" viewBox="0 0 829 599" version="1.1" xmlns="http://www.w3.org/2000/svg" xmlns:xlink="http://www.w3.org/1999/xlink"><rect width="829" height="599" fill="white"></rect><g fill="none" stroke-miterlimit="10" transform="translate(123,22)"><g class="mark-group role-frame root" role="graphics-object" aria-roledescription="group mark container"><g transform="translate(0,0)"><path class="background" aria-hidden="true" d="M0.5,0.5h700v540h-700Z"></path><g><g class="mark-group role-axis" aria-hidden="true"><g transform="translate(0.5,0.5)"><path class="background" aria-hidden="true" d="M0,0h0v0h0Z" pointer-events="none"></path><g><g class="mark-rule role-axis-grid" pointer-events="none"><line transform="translate(0,10)" x2="700" y2="0" stroke="#ddd" stroke-width="1" opacity="1"></line><line transform="translate(0,30)" x2="700" y2="0" stroke="#ddd" stroke-width="1" opacity="1"></line><line transform="translate(0,50)" x2="700" y2="0" stroke="#ddd" stroke-width="1" opacity="1"></line><line transform="translate(0,70)" x2="700" y2="0" stroke="#ddd" stroke-width="1" opacity="1"></line><line transform="translate(0,90)" x2="700" y2="0" stroke="#ddd" stroke-width="1" opacity="1"></line><line transform="translate(0,110)" x2="700" y2="0" stroke="#ddd" stroke-width="1" opacity="1"></line><line transform="translate(0,130)" x2="700" y2="0" stroke="#ddd" stroke-width="1" opacity="1"></line><line transform="translate(0,150)" x2="700" y2="0" stroke="#ddd" stroke-width="1" opacity="1"></line><line transform="translate(0,170)" x2="700" y2="0" stroke="#ddd" stroke-width="1" opacity="1"></line><line transform="translate(0,190)" x2="700" y2="0" stroke="#ddd" stroke-width="1" opacity="1"></line><line transform="translate(0,210)" x2="700" y2="0" stroke="#ddd" stroke-width="1" opacity="1"></line><line transform="translate(0,230)" x2="700" y2="0" stroke="#ddd" stroke-width="1" opacity="1"></line><line transform="translate(0,250)" x2="700" y2="0" stroke="#ddd" stroke-width="1" opacity="1"></line><line transform="translate(0,270)" x2="700" y2="0" stroke="#ddd" stroke-width="1" opacity="1"></line><line transform="translate(0,290)" x2="700" y2="0" stroke="#ddd" stroke-width="1" opacity="1"></line><line transform="translate(0,310)" x2="700" y2="0" stroke="#ddd" stroke-width="1" opacity="1"></line><line transform="translate(0,330)" x2="700" y2="0" stroke="#ddd" stroke-width="1" opacity="1"></line><line transform="translate(0,350)" x2="700" y2="0" stroke="#ddd" stroke-width="1" opacity="1"></line><line transform="translate(0,370)" x2="700" y2="0" stroke="#ddd" stroke-width="1" opacity="1"></line><line transform="translate(0,390)" x2="700" y2="0" stroke="#ddd" stroke-width="1" opacity="1"></line><line transform="translate(0,410)" x2="700" y2="0" stroke="#ddd" stroke-width="1" opacity="1"></line><line transform="translate(0,430)" x2="700" y2="0" stroke="#ddd" stroke-width="1" opacity="1"></line><line transform="translate(0,450)" x2="700" y2="0" stroke="#ddd" stroke-width="1" opacity="1"></line><line transform="translate(0,470)" x2="700" y2="0" stroke="#ddd" stroke-width="1" opacity="1"></line><line transform="translate(0,490)" x2="700" y2="0" stroke="#ddd" stroke-width="1" opacity="1"></line><line transform="translate(0,510)" x2="700" y2="0" stroke="#ddd" stroke-width="1" opacity="1"></line><line transform="translate(0,530)" x2="700" y2="0" stroke="#ddd" stroke-width="1" opacity="1"></line></g></g><path class="foreground" aria-hidden="true" d="" pointer-events="none" display="none"></path></g></g><g class="mark-group role-axis" role="graphics-symbol" aria-roledescription="axis" aria-label="X-axis titled 'Weighted percentage w/ COVID-like illness, CI 0.95' for a linear scale with values from -2 to 20"><g transform="translate(0.5,540.5)"><path class="background" aria-hidden="true" d="M0,0h0v0h0Z" pointer-events="none"></path><g><g class="mark-rule role-axis-tick" pointer-events="none"><line transform="translate(0,0)" x2="0" y2="5" stroke="#888" stroke-width="1" opacity="1"></line><line transform="translate(32,0)" x2="0" y2="5" stroke="#888" stroke-width="1" opacity="1"></line><line transform="translate(64,0)" x2="0" y2="5" stroke="#888" stroke-width="1" opacity="1"></line><line transform="translate(95,0)" x2="0" y2="5" stroke="#888" stroke-width="1" opacity="1"></line><line transform="translate(127,0)" x2="0" y2="5" stroke="#888" stroke-width="1" opacity="1"></line><line transform="translate(159,0)" x2="0" y2="5" stroke="#888" stroke-width="1" opacity="1"></line><line transform="translate(191,0)" x2="0" y2="5" stroke="#888" stroke-width="1" opacity="1"></line><line transform="translate(223,0)" x2="0" y2="5" stroke="#888" stroke-width="1" opacity="1"></line><line transform="translate(255,0)" x2="0" y2="5" stroke="#888" stroke-width="1" opacity="1"></line><line transform="translate(286,0)" x2="0" y2="5" stroke="#888" stroke-width="1" opacity="1"></line><line transform="translate(318,0)" x2="0" y2="5" stroke="#888" stroke-width="1" opacity="1"></line><line transform="translate(350,0)" x2="0" y2="5" stroke="#888" stroke-width="1" opacity="1"></line><line transform="translate(382,0)" x2="0" y2="5" stroke="#888" stroke-width="1" opacity="1"></line><line transform="translate(414,0)" x2="0" y2="5" stroke="#888" stroke-width="1" opacity="1"></line><line transform="translate(445,0)" x2="0" y2="5" stroke="#888" stroke-width="1" opacity="1"></line><line transform="translate(477,0)" x2="0" y2="5" stroke="#888" stroke-width="1" opacity="1"></line><line transform="translate(509,0)" x2="0" y2="5" stroke="#888" stroke-width="1" opacity="1"></line><line transform="translate(541,0)" x2="0" y2="5" stroke="#888" stroke-width="1" opacity="1"></line><line transform="translate(573,0)" x2="0" y2="5" stroke="#888" stroke-width="1" opacity="1"></line><line transform="translate(605,0)" x2="0" y2="5" stroke="#888" stroke-width="1" opacity="1"></line><line transform="translate(636,0)" x2="0" y2="5" stroke="#888" stroke-width="1" opacity="1"></line><line transform="translate(668,0)" x2="0" y2="5" stroke="#888" stroke-width="1" opacity="1"></line><line transform="translate(700,0)" x2="0" y2="5" stroke="#888" stroke-width="1" opacity="1"></line></g><g class="mark-text role-axis-label" pointer-events="none"><text text-anchor="start" transform="translate(0,15)" font-family="sans-serif" font-size="10px" fill="#000" opacity="1">-2</text><text text-anchor="middle" transform="translate(31.81818181818182,15)" font-family="sans-serif" font-size="10px" fill="#000" opacity="1">-1</text><text text-anchor="middle" transform="translate(63.63636363636364,15)" font-family="sans-serif" font-size="10px" fill="#000" opacity="1">0</text><text text-anchor="middle" transform="translate(95.45454545454545,15)" font-family="sans-serif" font-size="10px" fill="#000" opacity="1">1</text><text text-anchor="middle" transform="translate(127.27272727272728,15)" font-family="sans-serif" font-size="10px" fill="#000" opacity="1">2</text><text text-anchor="middle" transform="translate(159.0909090909091,15)" font-family="sans-serif" font-size="10px" fill="#000" opacity="1">3</text><text text-anchor="middle" transform="translate(190.9090909090909,15)" font-family="sans-serif" font-size="10px" fill="#000" opacity="1">4</text><text text-anchor="middle" transform="translate(222.72727272727272,15)" font-family="sans-serif" font-size="10px" fill="#000" opacity="1">5</text><text text-anchor="middle" transform="translate(254.54545454545456,15)" font-family="sans-serif" font-size="10px" fill="#000" opacity="1">6</text><text text-anchor="middle" transform="translate(286.3636363636364,15)" font-family="sans-serif" font-size="10px" fill="#000" opacity="1">7</text><text text-anchor="middle" transform="translate(318.1818181818182,15)" font-family="sans-serif" font-size="10px" fill="#000" opacity="1">8</text><text text-anchor="middle" transform="translate(350,15)" font-family="sans-serif" font-size="10px" fill="#000" opacity="1">9</text><text text-anchor="middle" transform="translate(381.8181818181818,15)" font-family="sans-serif" font-size="10px" fill="#000" opacity="1">10</text><text text-anchor="middle" transform="translate(413.6363636363637,15)" font-family="sans-serif" font-size="10px" fill="#000" opacity="1">11</text><text text-anchor="middle" transform="translate(445.45454545454544,15)" font-family="sans-serif" font-size="10px" fill="#000" opacity="1">12</text><text text-anchor="middle" transform="translate(477.27272727272725,15)" font-family="sans-serif" font-size="10px" fill="#000" opacity="1">13</text><text text-anchor="middle" transform="translate(509.0909090909091,15)" font-family="sans-serif" font-size="10px" fill="#000" opacity="1">14</text><text text-anchor="middle" transform="translate(540.9090909090909,15)" font-family="sans-serif" font-size="10px" fill="#000" opacity="1">15</text><text text-anchor="middle" transform="translate(572.7272727272727,15)" font-family="sans-serif" font-size="10px" fill="#000" opacity="1">16</text><text text-anchor="middle" transform="translate(604.5454545454545,15)" font-family="sans-serif" font-size="10px" fill="#000" opacity="1">17</text><text text-anchor="middle" transform="translate(636.3636363636364,15)" font-family="sans-serif" font-size="10px" fill="#000" opacity="1">18</text><text text-anchor="middle" transform="translate(668.1818181818182,15)" font-family="sans-serif" font-size="10px" fill="#000" opacity="1">19</text><text text-anchor="end" transform="translate(700,15)" font-family="sans-serif" font-size="10px" fill="#000" opacity="1">20</text></g><g class="mark-rule role-axis-domain" pointer-events="none"><line transform="translate(0,0)" x2="700" y2="0" stroke="#888" stroke-width="1" opacity="1"></line></g><g class="mark-text role-axis-title" pointer-events="none"><text text-anchor="middle" transform="translate(350,30)" font-family="sans-serif" font-size="11px" font-weight="bold" fill="#000" opacity="1">Weighted percentage w/ COVID-like illness, CI 0.95</text></g></g><path class="foreground" aria-hidden="true" d="" pointer-events="none" display="none"></path></g></g><g class="mark-group role-axis" role="graphics-symbol" aria-roledescription="axis" aria-label="Y-axis titled 'States' for a discrete scale with 27 values: Acre, Alagoas, Amapá, Amazonas, Bahia, ending with Tocantins"><g transform="translate(0.5,0.5)"><path class="background" aria-hidden="true" d="M0,0h0v0h0Z" pointer-events="none"></path><g><g class="mark-rule role-axis-tick" pointer-events="none"><line transform="translate(0,10)" x2="-5" y2="0" stroke="#888" stroke-width="1" opacity="1"></line><line transform="translate(0,30)" x2="-5" y2="0" stroke="#888" stroke-width="1" opacity="1"></line><line transform="translate(0,50)" x2="-5" y2="0" stroke="#888" stroke-width="1" opacity="1"></line><line transform="translate(0,70)" x2="-5" y2="0" stroke="#888" stroke-width="1" opacity="1"></line><line transform="translate(0,90)" x2="-5" y2="0" stroke="#888" stroke-width="1" opacity="1"></line><line transform="translate(0,110)" x2="-5" y2="0" stroke="#888" stroke-width="1" opacity="1"></line><line transform="translate(0,130)" x2="-5" y2="0" stroke="#888" stroke-width="1" opacity="1"></line><line transform="translate(0,150)" x2="-5" y2="0" stroke="#888" stroke-width="1" opacity="1"></line><line transform="translate(0,170)" x2="-5" y2="0" stroke="#888" stroke-width="1" opacity="1"></line><line transform="translate(0,190)" x2="-5" y2="0" stroke="#888" stroke-width="1" opacity="1"></line><line transform="translate(0,210)" x2="-5" y2="0" stroke="#888" stroke-width="1" opacity="1"></line><line transform="translate(0,230)" x2="-5" y2="0" stroke="#888" stroke-width="1" opacity="1"></line><line transform="translate(0,250)" x2="-5" y2="0" stroke="#888" stroke-width="1" opacity="1"></line><line transform="translate(0,270)" x2="-5" y2="0" stroke="#888" stroke-width="1" opacity="1"></line><line transform="translate(0,290)" x2="-5" y2="0" stroke="#888" stroke-width="1" opacity="1"></line><line transform="translate(0,310)" x2="-5" y2="0" stroke="#888" stroke-width="1" opacity="1"></line><line transform="translate(0,330)" x2="-5" y2="0" stroke="#888" stroke-width="1" opacity="1"></line><line transform="translate(0,350)" x2="-5" y2="0" stroke="#888" stroke-width="1" opacity="1"></line><line transform="translate(0,370)" x2="-5" y2="0" stroke="#888" stroke-width="1" opacity="1"></line><line transform="translate(0,390)" x2="-5" y2="0" stroke="#888" stroke-width="1" opacity="1"></line><line transform="translate(0,410)" x2="-5" y2="0" stroke="#888" stroke-width="1" opacity="1"></line><line transform="translate(0,430)" x2="-5" y2="0" stroke="#888" stroke-width="1" opacity="1"></line><line transform="translate(0,450)" x2="-5" y2="0" stroke="#888" stroke-width="1" opacity="1"></line><line transform="translate(0,470)" x2="-5" y2="0" stroke="#888" stroke-width="1" opacity="1"></line><line transform="translate(0,490)" x2="-5" y2="0" stroke="#888" stroke-width="1" opacity="1"></line><line transform="translate(0,510)" x2="-5" y2="0" stroke="#888" stroke-width="1" opacity="1"></line><line transform="translate(0,530)" x2="-5" y2="0" stroke="#888" stroke-width="1" opacity="1"></line></g><g class="mark-text role-axis-label" pointer-events="none"><text text-anchor="end" transform="translate(-7,12.5)" font-family="sans-serif" font-size="10px" fill="#000" opacity="1">Acre</text><text text-anchor="end" transform="translate(-7,32.5)" font-family="sans-serif" font-size="10px" fill="#000" opacity="1">Alagoas</text><text text-anchor="end" transform="translate(-7,52.5)" font-family="sans-serif" font-size="10px" fill="#000" opacity="1">Amapá</text><text text-anchor="end" transform="translate(-7,72.5)" font-family="sans-serif" font-size="10px" fill="#000" opacity="1">Amazonas</text><text text-anchor="end" transform="translate(-7,92.5)" font-family="sans-serif" font-size="10px" fill="#000" opacity="1">Bahia</text><text text-anchor="end" transform="translate(-7,112.5)" font-family="sans-serif" font-size="10px" fill="#000" opacity="1">Ceará</text><text text-anchor="end" transform="translate(-7,132.5)" font-family="sans-serif" font-size="10px" fill="#000" opacity="1">Distrito Federal</text><text text-anchor="end" transform="translate(-7,152.5)" font-family="sans-serif" font-size="10px" fill="#000" opacity="1">Espírito Santo</text><text text-anchor="end" transform="translate(-7,172.5)" font-family="sans-serif" font-size="10px" fill="#000" opacity="1">Goiás</text><text text-anchor="end" transform="translate(-7,192.5)" font-family="sans-serif" font-size="10px" fill="#000" opacity="1">Maranhão</text><text text-anchor="end" transform="translate(-7,212.5)" font-family="sans-serif" font-size="10px" fill="#000" opacity="1">Mato Grosso</text><text text-anchor="end" transform="translate(-7,232.5)" font-family="sans-serif" font-size="10px" fill="#000" opacity="1">Mato Grosso do Sul</text><text text-anchor="end" transform="translate(-7,252.5)" font-family="sans-serif" font-size="10px" fill="#000" opacity="1">Minas Gerais</text><text text-anchor="end" transform="translate(-7,272.5)" font-family="sans-serif" font-size="10px" fill="#000" opacity="1">Paraná</text><text text-anchor="end" transform="translate(-7,292.5)" font-family="sans-serif" font-size="10px" fill="#000" opacity="1">Paraíba</text><text text-anchor="end" transform="translate(-7,312.5)" font-family="sans-serif" font-size="10px" fill="#000" opacity="1">Pará</text><text text-anchor="end" transform="translate(-7,332.5)" font-family="sans-serif" font-size="10px" fill="#000" opacity="1">Pernambuco</text><text text-anchor="end" transform="translate(-7,352.5)" font-family="sans-serif" font-size="10px" fill="#000" opacity="1">Piauí</text><text text-anchor="end" transform="translate(-7,372.5)" font-family="sans-serif" font-size="10px" fill="#000" opacity="1">Rio Grande do Norte</text><text text-anchor="end" transform="translate(-7,392.5)" font-family="sans-serif" font-size="10px" fill="#000" opacity="1">Rio Grande do Sul</text><text text-anchor="end" transform="translate(-7,412.5)" font-family="sans-serif" font-size="10px" fill="#000" opacity="1">Rio de Janeiro</text><text text-anchor="end" transform="translate(-7,432.5)" font-family="sans-serif" font-size="10px" fill="#000" opacity="1">Rondônia</text><text text-anchor="end" transform="translate(-7,452.5)" font-family="sans-serif" font-size="10px" fill="#000" opacity="1">Roraima</text><text text-anchor="end" transform="translate(-7,472.5)" font-family="sans-serif" font-size="10px" fill="#000" opacity="1">Santa Catarina</text><text text-anchor="end" transform="translate(-7,492.5)" font-family="sans-serif" font-size="10px" fill="#000" opacity="1">Sergipe</text><text text-anchor="end" transform="translate(-7,512.5)" font-family="sans-serif" font-size="10px" fill="#000" opacity="1">São Paulo</text><text text-anchor="end" transform="translate(-7,532.5)" font-family="sans-serif" font-size="10px" fill="#000" opacity="1">Tocantins</text></g><g class="mark-rule role-axis-domain" pointer-events="none"><line transform="translate(0,0)" x2="0" y2="540" stroke="#888" stroke-width="1" opacity="1"></line></g><g class="mark-text role-axis-title" pointer-events="none"><text text-anchor="middle" transform="translate(-107,270) rotate(-90) translate(0,-2)" font-family="sans-serif" font-size="11px" font-weight="bold" fill="#000" opacity="1">States</text></g></g><path class="foreground" aria-hidden="true" d="" pointer-events="none" display="none"></path></g></g><g class="mark-symbol role-mark layer_0_marks" role="graphics-object" aria-roledescription="symbol mark container"><path aria-label="Weighted percentage w/ COVID-like illness: 11.8015; States: Bahia" role="graphics-symbol" aria-roledescription="point" transform="translate(439.1386363636363,90)" d="M2.7386127875258306,0A2.7386127875258306,2.7386127875258306,0,1,1,-2.7386127875258306,0A2.7386127875258306,2.7386127875258306,0,1,1,2.7386127875258306,0" stroke="#4c78a8" stroke-width="2" opacity="0.7"></path><path aria-label="Weighted percentage w/ COVID-like illness: 8.9647; States: Roraima" role="graphics-symbol" aria-roledescription="point" transform="translate(348.87681818181824,450)" d="M2.7386127875258306,0A2.7386127875258306,2.7386127875258306,0,1,1,-2.7386127875258306,0A2.7386127875258306,2.7386127875258306,0,1,1,2.7386127875258306,0" stroke="#4c78a8" stroke-width="2" opacity="0.7"></path><path aria-label="Weighted percentage w/ COVID-like illness: 7.2629; States: Amazonas" role="graphics-symbol" aria-roledescription="point" transform="translate(294.7286363636363,70)" d="M2.7386127875258306,0A2.7386127875258306,2.7386127875258306,0,1,1,-2.7386127875258306,0A2.7386127875258306,2.7386127875258306,0,1,1,2.7386127875258306,0" stroke="#4c78a8" stroke-width="2" opacity="0.7"></path><path aria-label="Weighted percentage w/ COVID-like illness: 6.5756; States: Tocantins" role="graphics-symbol" aria-roledescription="point" transform="translate(272.86,530)" d="M2.7386127875258306,0A2.7386127875258306,2.7386127875258306,0,1,1,-2.7386127875258306,0A2.7386127875258306,2.7386127875258306,0,1,1,2.7386127875258306,0" stroke="#4c78a8" stroke-width="2" opacity="0.7"></path><path aria-label="Weighted percentage w/ COVID-like illness: 4.82; States: Rio Grande do Norte" role="graphics-symbol" aria-roledescription="point" transform="translate(217,370)" d="M2.7386127875258306,0A2.7386127875258306,2.7386127875258306,0,1,1,-2.7386127875258306,0A2.7386127875258306,2.7386127875258306,0,1,1,2.7386127875258306,0" stroke="#4c78a8" stroke-width="2" opacity="0.7"></path><path aria-label="Weighted percentage w/ COVID-like illness: 4.7625; States: Mato Grosso" role="graphics-symbol" aria-roledescription="point" transform="translate(215.17045454545453,210)" d="M2.7386127875258306,0A2.7386127875258306,2.7386127875258306,0,1,1,-2.7386127875258306,0A2.7386127875258306,2.7386127875258306,0,1,1,2.7386127875258306,0" stroke="#4c78a8" stroke-width="2" opacity="0.7"></path><path aria-label="Weighted percentage w/ COVID-like illness: 4.5534; States: Ceará" role="graphics-symbol" aria-roledescription="point" transform="translate(208.51727272727274,110)" d="M2.7386127875258306,0A2.7386127875258306,2.7386127875258306,0,1,1,-2.7386127875258306,0A2.7386127875258306,2.7386127875258306,0,1,1,2.7386127875258306,0" stroke="#4c78a8" stroke-width="2" opacity="0.7"></path><path aria-label="Weighted percentage w/ COVID-like illness: 4.3071; States: Pará" role="graphics-symbol" aria-roledescription="point" transform="translate(200.68045454545455,310)" d="M2.7386127875258306,0A2.7386127875258306,2.7386127875258306,0,1,1,-2.7386127875258306,0A2.7386127875258306,2.7386127875258306,0,1,1,2.7386127875258306,0" stroke="#4c78a8" stroke-width="2" opacity="0.7"></path><path aria-label="Weighted percentage w/ COVID-like illness: 3.8481; States: Alagoas" role="graphics-symbol" aria-roledescription="point" transform="translate(186.07590909090914,30)" d="M2.7386127875258306,0A2.7386127875258306,2.7386127875258306,0,1,1,-2.7386127875258306,0A2.7386127875258306,2.7386127875258306,0,1,1,2.7386127875258306,0" stroke="#4c78a8" stroke-width="2" opacity="0.7"></path><path aria-label="Weighted percentage w/ COVID-like illness: 3.7581; States: Maranhão" role="graphics-symbol" aria-roledescription="point" transform="translate(183.21227272727276,190)" d="M2.7386127875258306,0A2.7386127875258306,2.7386127875258306,0,1,1,-2.7386127875258306,0A2.7386127875258306,2.7386127875258306,0,1,1,2.7386127875258306,0" stroke="#4c78a8" stroke-width="2" opacity="0.7"></path><path aria-label="Weighted percentage w/ COVID-like illness: 3.5456; States: Sergipe" role="graphics-symbol" aria-roledescription="point" transform="translate(176.4509090909091,490)" d="M2.7386127875258306,0A2.7386127875258306,2.7386127875258306,0,1,1,-2.7386127875258306,0A2.7386127875258306,2.7386127875258306,0,1,1,2.7386127875258306,0" stroke="#4c78a8" stroke-width="2" opacity="0.7"></path><path aria-label="Weighted percentage w/ COVID-like illness: 3.4053; States: Acre" role="graphics-symbol" aria-roledescription="point" transform="translate(171.9868181818182,10)" d="M2.7386127875258306,0A2.7386127875258306,2.7386127875258306,0,1,1,-2.7386127875258306,0A2.7386127875258306,2.7386127875258306,0,1,1,2.7386127875258306,0" stroke="#4c78a8" stroke-width="2" opacity="0.7"></path><path aria-label="Weighted percentage w/ COVID-like illness: 3.2016; States: Goiás" role="graphics-symbol" aria-roledescription="point" transform="translate(165.50545454545457,170)" d="M2.7386127875258306,0A2.7386127875258306,2.7386127875258306,0,1,1,-2.7386127875258306,0A2.7386127875258306,2.7386127875258306,0,1,1,2.7386127875258306,0" stroke="#4c78a8" stroke-width="2" opacity="0.7"></path><path aria-label="Weighted percentage w/ COVID-like illness: 3.1687; States: Espírito Santo" role="graphics-symbol" aria-roledescription="point" transform="translate(164.45863636363634,150)" d="M2.7386127875258306,0A2.7386127875258306,2.7386127875258306,0,1,1,-2.7386127875258306,0A2.7386127875258306,2.7386127875258306,0,1,1,2.7386127875258306,0" stroke="#4c78a8" stroke-width="2" opacity="0.7"></path><path aria-label="Weighted percentage w/ COVID-like illness: 2.6895; States: Rondônia" role="graphics-symbol" aria-roledescription="point" transform="translate(149.21136363636364,430)" d="M2.7386127875258306,0A2.7386127875258306,2.7386127875258306,0,1,1,-2.7386127875258306,0A2.7386127875258306,2.7386127875258306,0,1,1,2.7386127875258306,0" stroke="#4c78a8" stroke-width="2" opacity="0.7"></path><path aria-label="Weighted percentage w/ COVID-like illness: 2.4351; States: Piauí" role="graphics-symbol" aria-roledescription="point" transform="translate(141.1168181818182,350)" d="M2.7386127875258306,0A2.7386127875258306,2.7386127875258306,0,1,1,-2.7386127875258306,0A2.7386127875258306,2.7386127875258306,0,1,1,2.7386127875258306,0" stroke="#4c78a8" stroke-width="2" opacity="0.7"></path><path aria-label="Weighted percentage w/ COVID-like illness: 2.0996; States: Distrito Federal" role="graphics-symbol" aria-roledescription="point" transform="translate(130.4418181818182,130)" d="M2.7386127875258306,0A2.7386127875258306,2.7386127875258306,0,1,1,-2.7386127875258306,0A2.7386127875258306,2.7386127875258306,0,1,1,2.7386127875258306,0" stroke="#4c78a8" stroke-width="2" opacity="0.7"></path><path aria-label="Weighted percentage w/ COVID-like illness: 1.9887; States: Paraíba" role="graphics-symbol" aria-roledescription="point" transform="translate(126.91318181818181,290)" d="M2.7386127875258306,0A2.7386127875258306,2.7386127875258306,0,1,1,-2.7386127875258306,0A2.7386127875258306,2.7386127875258306,0,1,1,2.7386127875258306,0" stroke="#4c78a8" stroke-width="2" opacity="0.7"></path><path aria-label="Weighted percentage w/ COVID-like illness: 1.907; States: Mato Grosso do Sul" role="graphics-symbol" aria-roledescription="point" transform="translate(124.31363636363638,230)" d="M2.7386127875258306,0A2.7386127875258306,2.7386127875258306,0,1,1,-2.7386127875258306,0A2.7386127875258306,2.7386127875258306,0,1,1,2.7386127875258306,0" stroke="#4c78a8" stroke-width="2" opacity="0.7"></path><path aria-label="Weighted percentage w/ COVID-like illness: 1.7834; States: Amapá" role="graphics-symbol" aria-roledescription="point" transform="translate(120.3809090909091,50)" d="M2.7386127875258306,0A2.7386127875258306,2.7386127875258306,0,1,1,-2.7386127875258306,0A2.7386127875258306,2.7386127875258306,0,1,1,2.7386127875258306,0" stroke="#4c78a8" stroke-width="2" opacity="0.7"></path><path aria-label="Weighted percentage w/ COVID-like illness: 1.4142; States: Santa Catarina" role="graphics-symbol" aria-roledescription="point" transform="translate(108.63363636363637,470)" d="M2.7386127875258306,0A2.7386127875258306,2.7386127875258306,0,1,1,-2.7386127875258306,0A2.7386127875258306,2.7386127875258306,0,1,1,2.7386127875258306,0" stroke="#4c78a8" stroke-width="2" opacity="0.7"></path><path aria-label="Weighted percentage w/ COVID-like illness: 1.341; States: Rio de Janeiro" role="graphics-symbol" aria-roledescription="point" transform="translate(106.30454545454546,410)" d="M2.7386127875258306,0A2.7386127875258306,2.7386127875258306,0,1,1,-2.7386127875258306,0A2.7386127875258306,2.7386127875258306,0,1,1,2.7386127875258306,0" stroke="#4c78a8" stroke-width="2" opacity="0.7"></path><path aria-label="Weighted percentage w/ COVID-like illness: 1.2601; States: São Paulo" role="graphics-symbol" aria-roledescription="point" transform="translate(103.73045454545455,510)" d="M2.7386127875258306,0A2.7386127875258306,2.7386127875258306,0,1,1,-2.7386127875258306,0A2.7386127875258306,2.7386127875258306,0,1,1,2.7386127875258306,0" stroke="#4c78a8" stroke-width="2" opacity="0.7"></path><path aria-label="Weighted percentage w/ COVID-like illness: 1.1628; States: Minas Gerais" role="graphics-symbol" aria-roledescription="point" transform="translate(100.63454545454545,250)" d="M2.7386127875258306,0A2.7386127875258306,2.7386127875258306,0,1,1,-2.7386127875258306,0A2.7386127875258306,2.7386127875258306,0,1,1,2.7386127875258306,0" stroke="#4c78a8" stroke-width="2" opacity="0.7"></path><path aria-label="Weighted percentage w/ COVID-like illness: 1.0493; States: Pernambuco" role="graphics-symbol" aria-roledescription="point" transform="translate(97.02318181818181,330)" d="M2.7386127875258306,0A2.7386127875258306,2.7386127875258306,0,1,1,-2.7386127875258306,0A2.7386127875258306,2.7386127875258306,0,1,1,2.7386127875258306,0" stroke="#4c78a8" stroke-width="2" opacity="0.7"></path><path aria-label="Weighted percentage w/ COVID-like illness: 0.879; States: Rio Grande do Sul" role="graphics-symbol" aria-roledescription="point" transform="translate(91.60454545454546,390)" d="M2.7386127875258306,0A2.7386127875258306,2.7386127875258306,0,1,1,-2.7386127875258306,0A2.7386127875258306,2.7386127875258306,0,1,1,2.7386127875258306,0" stroke="#4c78a8" stroke-width="2" opacity="0.7"></path><path aria-label="Weighted percentage w/ COVID-like illness: 0.7314; States: Paraná" role="graphics-symbol" aria-roledescription="point" transform="translate(86.90818181818182,270)" d="M2.7386127875258306,0A2.7386127875258306,2.7386127875258306,0,1,1,-2.7386127875258306,0A2.7386127875258306,2.7386127875258306,0,1,1,2.7386127875258306,0" stroke="#4c78a8" stroke-width="2" opacity="0.7"></path></g><g class="mark-rule role-mark layer_1_marks" role="graphics-object" aria-roledescription="rule mark container"><line aria-label="CI 0.95: 4.788032; upper_percent_cli_lower: 18.814968; region: Bahia; percent_cli_upper: 18.814968; percent_cli_lower: 4.788032" role="graphics-symbol" aria-roledescription="errorbar" transform="translate(215.98283636363632,90)" x2="446.3116" y2="0" stroke="blue" stroke-width="0.6"></line><line aria-label="CI 0.95: 2.43104; upper_percent_cli_lower: 15.49836; region: Roraima; percent_cli_upper: 15.49836; percent_cli_lower: 2.43104" role="graphics-symbol" aria-roledescription="errorbar" transform="translate(140.9876363636364,450)" x2="415.77836363636345" y2="0" stroke="blue" stroke-width="0.6"></line><line aria-label="CI 0.95: 3.429336; upper_percent_cli_lower: 11.096464; region: Amazonas; percent_cli_upper: 11.096464; percent_cli_lower: 3.429336" role="graphics-symbol" aria-roledescription="errorbar" transform="translate(172.7516,70)" x2="243.95407272727277" y2="0" stroke="blue" stroke-width="0.6"></line><line aria-label="CI 0.95: 1.389048; upper_percent_cli_lower: 11.762152; region: Tocantins; percent_cli_upper: 11.762152; percent_cli_lower: 1.389048" role="graphics-symbol" aria-roledescription="errorbar" transform="translate(107.83334545454545,530)" x2="330.05330909090907" y2="0" stroke="blue" stroke-width="0.6"></line><line aria-label="CI 0.95: 2.275136; upper_percent_cli_lower: 7.364864; region: Rio Grande do Norte; percent_cli_upper: 7.364864; percent_cli_lower: 2.275136" role="graphics-symbol" aria-roledescription="errorbar" transform="translate(136.02705454545455,370)" x2="161.94589090909093" y2="0" stroke="blue" stroke-width="0.6"></line><line aria-label="CI 0.95: 2.606892; upper_percent_cli_lower: 6.918108; region: Mato Grosso; percent_cli_upper: 6.918108; percent_cli_lower: 2.606892" role="graphics-symbol" aria-roledescription="errorbar" transform="translate(146.5829272727273,210)" x2="137.17505454545457" y2="0" stroke="blue" stroke-width="0.6"></line><line aria-label="CI 0.95: 2.166512; upper_percent_cli_lower: 6.940288; region: Ceará; percent_cli_upper: 6.940288; percent_cli_lower: 2.166512" role="graphics-symbol" aria-roledescription="errorbar" transform="translate(132.57083636363635,110)" x2="151.8928727272727" y2="0" stroke="blue" stroke-width="0.6"></line><line aria-label="CI 0.95: 1.81202; upper_percent_cli_lower: 6.80218; region: Pará; percent_cli_upper: 6.80218; percent_cli_lower: 1.81202" role="graphics-symbol" aria-roledescription="errorbar" transform="translate(121.29154545454544,310)" x2="158.7778181818182" y2="0" stroke="blue" stroke-width="0.6"></line><line aria-label="CI 0.95: 0.6484; upper_percent_cli_lower: 7.0478; region: Alagoas; percent_cli_upper: 7.0478; percent_cli_lower: 0.6484" role="graphics-symbol" aria-roledescription="errorbar" transform="translate(84.26727272727274,30)" x2="203.6172727272727" y2="0" stroke="blue" stroke-width="0.6"></line><line aria-label="CI 0.95: 1.27674; upper_percent_cli_lower: 6.23946; region: Maranhão; percent_cli_upper: 6.23946; percent_cli_lower: 1.27674" role="graphics-symbol" aria-roledescription="errorbar" transform="translate(104.2599090909091,190)" x2="157.90472727272726" y2="0" stroke="blue" stroke-width="0.6"></line><line aria-label="CI 0.95: 0.677336; upper_percent_cli_lower: 6.413864; region: Sergipe; percent_cli_upper: 6.413864; percent_cli_lower: 0.677336" role="graphics-symbol" aria-roledescription="errorbar" transform="translate(85.18796363636365,490)" x2="182.5258909090909" y2="0" stroke="blue" stroke-width="0.6"></line><line aria-label="CI 0.95: -1.250092; upper_percent_cli_lower: 8.060692; region: Acre; percent_cli_upper: 8.060692; percent_cli_lower: -1.250092" role="graphics-symbol" aria-roledescription="errorbar" transform="translate(23.860709090909094,10)" x2="296.25221818181814" y2="0" stroke="blue" stroke-width="0.6"></line><line aria-label="CI 0.95: 1.647908; upper_percent_cli_lower: 4.755292; region: Goiás; percent_cli_upper: 4.755292; percent_cli_lower: 1.647908" role="graphics-symbol" aria-roledescription="errorbar" transform="translate(116.06980000000001,170)" x2="98.87130909090908" y2="0" stroke="blue" stroke-width="0.6"></line><line aria-label="CI 0.95: 1.370792; upper_percent_cli_lower: 4.966608; region: Espírito Santo; percent_cli_upper: 4.966608; percent_cli_lower: 1.370792" role="graphics-symbol" aria-roledescription="errorbar" transform="translate(107.25247272727272,150)" x2="114.4123272727273" y2="0" stroke="blue" stroke-width="0.6"></line><line aria-label="CI 0.95: -0.035488; upper_percent_cli_lower: 5.414488; region: Rondônia; percent_cli_upper: 5.414488; percent_cli_lower: -0.035488" role="graphics-symbol" aria-roledescription="errorbar" transform="translate(62.50719999999999,430)" x2="173.40832727272726" y2="0" stroke="blue" stroke-width="0.6"></line><line aria-label="CI 0.95: 0.082512; upper_percent_cli_lower: 4.787688; region: Piauí; percent_cli_upper: 4.787688; percent_cli_lower: 0.082512" role="graphics-symbol" aria-roledescription="errorbar" transform="translate(66.26174545454546,350)" x2="149.71014545454543" y2="0" stroke="blue" stroke-width="0.6"></line><line aria-label="CI 0.95: 0.95986; upper_percent_cli_lower: 3.23934; region: Distrito Federal; percent_cli_upper: 3.23934; percent_cli_lower: 0.95986" role="graphics-symbol" aria-roledescription="errorbar" transform="translate(94.17736363636364,130)" x2="72.5289090909091" y2="0" stroke="blue" stroke-width="0.6"></line><line aria-label="CI 0.95: 0.304276; upper_percent_cli_lower: 3.673124; region: Paraíba; percent_cli_upper: 3.673124; percent_cli_lower: 0.304276" role="graphics-symbol" aria-roledescription="errorbar" transform="translate(73.31787272727274,290)" x2="107.19061818181817" y2="0" stroke="blue" stroke-width="0.6"></line><line aria-label="CI 0.95: 0.49482; upper_percent_cli_lower: 3.31918; region: Mato Grosso do Sul; percent_cli_upper: 3.31918; percent_cli_lower: 0.49482" role="graphics-symbol" aria-roledescription="errorbar" transform="translate(79.38063636363637,230)" x2="89.86600000000001" y2="0" stroke="blue" stroke-width="0.6"></line><line aria-label="CI 0.95: -1.226572; upper_percent_cli_lower: 4.793372; region: Amapá; percent_cli_upper: 4.793372; percent_cli_lower: -1.226572" role="graphics-symbol" aria-roledescription="errorbar" transform="translate(24.60907272727273,50)" x2="191.54367272727274" y2="0" stroke="blue" stroke-width="0.6"></line><line aria-label="CI 0.95: 0.275832; upper_percent_cli_lower: 2.552568; region: Santa Catarina; percent_cli_upper: 2.552568; percent_cli_lower: 0.275832" role="graphics-symbol" aria-roledescription="errorbar" transform="translate(72.41283636363636,470)" x2="72.44160000000005" y2="0" stroke="blue" stroke-width="0.6"></line><line aria-label="CI 0.95: 0.350612; upper_percent_cli_lower: 2.331388; region: Rio de Janeiro; percent_cli_upper: 2.331388; percent_cli_lower: 0.350612" role="graphics-symbol" aria-roledescription="errorbar" transform="translate(74.7922,410)" x2="63.02469090909092" y2="0" stroke="blue" stroke-width="0.6"></line><line aria-label="CI 0.95: 0.753048; upper_percent_cli_lower: 1.767152; region: São Paulo; percent_cli_upper: 1.767152; percent_cli_lower: 0.753048" role="graphics-symbol" aria-roledescription="errorbar" transform="translate(87.59698181818183,510)" x2="32.266945454545464" y2="0" stroke="blue" stroke-width="0.6"></line><line aria-label="CI 0.95: 0.276292; upper_percent_cli_lower: 2.049308; region: Minas Gerais; percent_cli_upper: 2.049308; percent_cli_lower: 0.276292" role="graphics-symbol" aria-roledescription="errorbar" transform="translate(72.42747272727273,250)" x2="56.41414545454545" y2="0" stroke="blue" stroke-width="0.6"></line><line aria-label="CI 0.95: -0.158452; upper_percent_cli_lower: 2.257052; region: Pernambuco; percent_cli_upper: 2.257052; percent_cli_lower: -0.158452" role="graphics-symbol" aria-roledescription="errorbar" transform="translate(58.5947090909091,330)" x2="76.85694545454544" y2="0" stroke="blue" stroke-width="0.6"></line><line aria-label="CI 0.95: 0.056584; upper_percent_cli_lower: 1.701416; region: Rio Grande do Sul; percent_cli_upper: 1.701416; percent_cli_lower: 0.056584" role="graphics-symbol" aria-roledescription="errorbar" transform="translate(65.43676363636364,390)" x2="52.335563636363645" y2="0" stroke="blue" stroke-width="0.6"></line><line aria-label="CI 0.95: -0.350912; upper_percent_cli_lower: 1.813712; region: Paraná; percent_cli_upper: 1.813712; percent_cli_lower: -0.350912" role="graphics-symbol" aria-roledescription="errorbar" transform="translate(52.47098181818181,270)" x2="68.87440000000001" y2="0" stroke="blue" stroke-width="0.6"></line></g><g class="mark-group role-title"><g transform="translate(350,-17)"><path class="background" aria-hidden="true" d="M0,0h0v0h0Z" pointer-events="none"></path><g><g class="mark-text role-title-text" role="graphics-symbol" aria-roledescription="title" aria-label="Title text 'Facebook COVID-like illness symptom survey (last available date) for all states in Brazil'" pointer-events="none"><text text-anchor="middle" transform="translate(0,10)" font-family="sans-serif" font-size="13px" font-weight="bold" fill="#000" opacity="1">Facebook COVID-like illness symptom survey (last available date) for all states in Brazil</text></g></g><path class="foreground" aria-hidden="true" d="" pointer-events="none" display="none"></path></g></g></g><path class="foreground" aria-hidden="true" d="" display="none"></path></g></g></g></svg>